<svg xmlns="http://www.w3.org/2000/svg" width="104" height="41" viewBox="0 0 104 41" fill="none">
    <g clip-path="url(#clip0_299_1665)">
        <mask id="mask0_299_1665" style="mask-type:luminance" maskUnits="userSpaceOnUse" x="63" y="0" width="30" height="41">
            <path d="M63.7646 0.861328H92.3712V40.9996H63.7646V0.861328Z" fill="white"/>
        </mask>
        <g mask="url(#mask0_299_1665)">
            <path d="M92.2744 2.22219C91.2868 1.74268 90.2629 1.33896 89.2118 1.01465C89.2118 1.01465 74.8114 1.86805 67.677 11.0663C60.1517 20.7699 66.4139 32.6606 66.4139 32.6606C68.1692 35.0362 70.4265 37.0113 73.0314 38.4508C75.6363 39.8903 78.5272 40.7602 81.5062 41.0009C81.5062 41.0009 72.885 32.7176 70.81 25.1692C68.735 17.6207 71.4648 7.22256 92.2767 2.21915" fill="#A6CE38"/>
        </g>
        <path d="M66.414 32.6598C66.414 32.6598 60.1518 20.7691 67.6771 11.0655C74.8115 1.87029 89.2165 0.943167 89.2165 0.943167C86.1045 -0.0253146 82.8025 -0.253557 79.583 0.277262C76.3635 0.80808 73.3185 2.08275 70.6994 3.99617C68.0802 5.90958 65.9618 8.40691 64.5188 11.2822C63.0758 14.1575 62.3497 17.3285 62.4002 20.5335C62.3918 24.8917 63.7977 29.1392 66.414 32.6598Z" fill="#0092C8"/>
        <path d="M96.3261 36.3835C93.2645 38.8878 89.5304 40.4687 85.5742 40.9355C85.5742 40.9355 77.4135 34.7079 73.7557 26.1389C70.098 17.5698 72.3038 8.32522 93.4307 2.7207C94.5709 3.34136 95.6512 4.06273 96.6581 4.87588C96.6581 4.87588 83.3637 7.32971 81.5658 14.8211C79.7679 22.3126 91.4161 33.5277 96.3292 36.3835" fill="#00AEEF"/>
        <mask id="mask1_299_1665" style="mask-type:luminance" maskUnits="userSpaceOnUse" x="81" y="4" width="23" height="33">
            <path d="M81.2346 4.74219H104V36.4315H81.2346V4.74219Z" fill="white"/>
        </mask>
        <g mask="url(#mask1_299_1665)">
            <path d="M96.3394 36.4133C91.4262 33.5567 79.7611 22.3127 81.5628 14.8212C83.3646 7.32981 96.6552 4.87598 96.6552 4.87598C98.9839 6.82899 100.848 9.25969 102.116 11.9968C103.385 14.7339 104.026 17.7108 103.996 20.7177C103.966 23.7247 103.264 26.6885 101.941 29.4003C100.617 32.1122 98.7041 34.506 96.3363 36.4133" fill="#EDEDED"/>
        </g>
        <path d="M26.5223 17.2405C25.9863 17.0148 25.5457 16.6149 25.2745 16.108C25.0033 15.6011 24.9179 15.018 25.0327 14.4566C25.1476 13.8952 25.4556 13.3896 25.905 13.0248C26.3545 12.66 26.9182 12.458 27.5013 12.4529C28.165 12.4524 28.8019 12.7097 29.2729 13.1688L30.3696 12.0053C29.7851 11.4495 29.0464 11.0755 28.2462 10.9303C27.446 10.7852 26.6199 10.8753 25.8717 11.1895C25.1235 11.5036 24.4865 12.0278 24.0405 12.6962C23.5946 13.3645 23.3597 14.1473 23.3653 14.9463C23.3638 15.7562 23.6194 16.5465 24.0967 17.2071H22.0371C21.7746 17.1069 21.5355 16.9554 21.3344 16.7618C21.6314 16.1424 21.7642 15.4594 21.7203 14.7761C21.6764 14.0929 21.4572 13.4317 21.0833 12.8539C20.7093 12.2761 20.1926 11.8006 19.5812 11.4715C18.9698 11.1424 18.2836 10.9704 17.5863 10.9715C16.8891 10.9726 16.2035 11.1469 15.5932 11.4779C14.983 11.809 14.4679 12.2863 14.0958 12.8653C13.7238 13.4442 13.5069 14.1062 13.4653 14.7896C13.4237 15.4729 13.5587 16.1556 13.8579 16.7739L13.9221 16.9016C13.813 17.2436 13.3215 17.1714 13.3215 17.1714H11.6095V8.5332H9.68079V18.8448H13.8486C14.3591 18.8126 14.8449 18.6173 15.2317 18.2885C15.9744 18.7863 16.8528 19.0526 17.7521 19.0526C18.6514 19.0526 19.5298 18.7863 20.2725 18.2885C20.5786 18.6062 20.9803 18.8192 21.4187 18.8964H30.7551V17.2405H26.5223ZM17.593 17.5156C17.0904 17.5183 16.5982 17.3745 16.1789 17.1022C15.7596 16.83 15.432 16.4416 15.2378 15.9864C15.0435 15.5312 14.9912 15.0296 15.0876 14.5452C15.184 14.0608 15.4246 13.6154 15.7791 13.2654C16.1336 12.9155 16.5859 12.6767 17.0787 12.5794C17.5715 12.4821 18.0827 12.5307 18.5473 12.7189C19.012 12.9072 19.4093 13.2266 19.6889 13.6368C19.9685 14.047 20.1177 14.5295 20.1177 15.023C20.1194 15.6822 19.8543 16.3151 19.3809 16.7825C18.9075 17.2499 18.2644 17.5136 17.593 17.5156ZM5.90616 13.3573C6.21951 13.6859 6.42992 14.0961 6.51228 14.5389C6.59464 14.9817 6.54545 15.4384 6.37061 15.8546C6.19576 16.2707 5.90263 16.6286 5.52623 16.8856C5.14983 17.1426 4.70605 17.2878 4.24789 17.3038C3.78972 17.3199 3.33653 17.2061 2.94242 16.9762C2.54832 16.7462 2.22994 16.4097 2.02532 16.0069C1.8207 15.604 1.73847 15.1519 1.78846 14.7045C1.83845 14.257 2.01854 13.8331 2.30722 13.4834L1.03095 12.2614C0.502314 12.8542 0.159461 13.5844 0.0436781 14.3641C-0.0721048 15.1438 0.0441189 15.9397 0.378355 16.656C0.712591 17.3724 1.25059 17.9785 1.92757 18.4016C2.60455 18.8247 3.39165 19.0466 4.1941 19.0406C4.99654 19.0346 5.78012 18.801 6.45048 18.3679C7.12085 17.9348 7.64941 17.3207 7.97254 16.5994C8.29566 15.8782 8.39957 15.0807 8.27175 14.3028C8.14393 13.5249 7.78983 12.7999 7.25209 12.2151L5.90616 13.355M4.1214 12.9325C4.32803 12.9337 4.53038 12.8746 4.70278 12.7627C4.87518 12.6509 5.00987 12.4913 5.08976 12.3041C5.16966 12.117 5.19116 11.9108 5.15154 11.7117C5.11192 11.5126 5.01297 11.3295 4.86724 11.1856C4.7215 11.0418 4.53554 10.9437 4.33294 10.9037C4.13034 10.8638 3.92023 10.8838 3.72924 10.9613C3.53825 11.0388 3.375 11.1702 3.26017 11.3389C3.14535 11.5076 3.08413 11.7059 3.08428 11.9088C3.08367 12.1796 3.19256 12.4395 3.38704 12.6314C3.58151 12.8234 3.84565 12.9317 4.1214 12.9325Z" fill="#151515"/>
        <path d="M48.1785 10.3207C48.3849 10.3217 48.587 10.2626 48.7592 10.1508C48.9313 10.0389 49.0658 9.87943 49.1456 9.69248C49.2253 9.50553 49.2467 9.29955 49.2071 9.10063C49.1675 8.90172 49.0686 8.71883 48.923 8.57514C48.7775 8.43145 48.5917 8.33343 48.3893 8.2935C48.187 8.25357 47.9771 8.27353 47.7862 8.35085C47.5954 8.42816 47.4323 8.55936 47.3175 8.72781C47.2027 8.89626 47.1414 9.09438 47.1414 9.29706C47.141 9.56774 47.25 9.82754 47.4444 10.0194C47.6388 10.2113 47.9028 10.3197 48.1785 10.3207ZM55.9847 15.8181V11.1559H54.0498V15.4943C53.7766 17.192 52.7666 17.1951 52.7666 17.1951H51.8564C52.208 16.6448 52.4245 16.0219 52.4887 15.3753C52.5529 14.7288 52.4631 14.0765 52.2264 13.47C51.9897 12.8634 51.6125 12.3192 51.1248 11.8804C50.637 11.4416 50.052 11.1201 49.4159 10.9415C48.7798 10.7629 48.1102 10.732 47.4599 10.8512C46.8095 10.9704 46.1964 11.2364 45.6688 11.6284C45.1412 12.0203 44.7137 12.5273 44.42 13.1094C44.1263 13.6914 43.9746 14.3326 43.9767 14.9821C43.975 15.7806 44.2136 16.5618 44.6624 17.2277L42.993 17.2217V15.8173C42.993 15.7953 42.993 15.7725 42.993 15.7504C42.9948 15.1099 42.8681 14.4754 42.6202 13.8829C42.3722 13.2905 42.0079 12.7518 41.5479 12.2977C41.088 11.8435 40.5414 11.4827 39.9394 11.236C39.3375 10.9892 38.6919 10.8613 38.0396 10.8595C36.8229 10.8554 35.6449 11.2783 34.7177 12.0518L34.7224 8.56904H32.8935V17.192H31.9918V18.8092H53.3378C54.0652 18.6923 54.7281 18.3293 55.2117 17.783C55.6952 17.2368 55.969 16.5416 55.9855 15.8181M41.2183 17.2733H34.7487V14.875C35.1581 13.3657 36.4135 12.3961 38.5411 12.6651C39.1731 12.7738 39.7604 13.0571 40.2341 13.4819C40.7079 13.9067 41.0485 14.4553 41.2159 15.0634V17.2733M48.2312 17.2999C47.7637 17.3025 47.306 17.1687 46.9161 16.9156C46.5262 16.6625 46.2216 16.3014 46.0409 15.8781C45.8602 15.4548 45.8116 14.9884 45.9012 14.5379C45.9908 14.0875 46.2145 13.6733 46.5441 13.3478C46.8738 13.0224 47.2943 12.8003 47.7526 12.7099C48.2109 12.6194 48.6862 12.6645 49.1183 12.8395C49.5504 13.0146 49.9198 13.3117 50.1798 13.6931C50.4398 14.0745 50.5786 14.5232 50.5786 14.9821C50.5795 15.2857 50.5195 15.5864 50.402 15.8672C50.2845 16.148 50.1119 16.4033 49.8939 16.6185C49.6759 16.8337 49.4169 17.0047 49.1316 17.1216C48.8463 17.2385 48.5403 17.2991 48.2312 17.2999ZM54.919 10.3207C55.1254 10.3217 55.3275 10.2626 55.4997 10.1508C55.6718 10.0389 55.8063 9.87943 55.886 9.69248C55.9658 9.50553 55.9872 9.29955 55.9476 9.10063C55.9079 8.90172 55.8091 8.71883 55.6635 8.57514C55.5179 8.43145 55.3322 8.33343 55.1298 8.2935C54.9274 8.25357 54.7175 8.27353 54.5267 8.35085C54.3359 8.42816 54.1727 8.55936 54.0579 8.72781C53.9432 8.89626 53.8819 9.09438 53.8819 9.29706C53.8815 9.56774 53.9904 9.82754 54.1849 10.0194C54.3793 10.2113 54.6433 10.3197 54.919 10.3207Z" fill="#151515"/>
        <path d="M4.01991 24.9871C4.75274 24.9877 5.4697 25.1967 6.08408 25.589C6.72782 25.9903 7.24904 26.5551 7.59253 27.2236C7.95367 27.9127 8.13955 28.6775 8.13431 29.4525C8.13979 30.235 7.954 31.0074 7.59253 31.7049C7.25691 32.3728 6.74307 32.9388 6.10575 33.3426C5.48761 33.7334 4.76672 33.9386 4.03152 33.933C3.48834 33.936 2.95123 33.8208 2.45878 33.5957C1.96632 33.3706 1.53074 33.0413 1.18333 32.6313C0.394893 31.7623 -0.0280794 30.6319 -6.31567e-05 29.4684C-0.0179288 28.8547 0.0910219 28.2437 0.320216 27.6724C0.54941 27.1012 0.894096 26.5814 1.33348 26.1445C1.67662 25.7809 2.09223 25.4904 2.55451 25.2912C3.01678 25.092 3.51584 24.9882 4.02069 24.9863M4.06403 27.007C3.7767 27.0028 3.4922 27.0632 3.23224 27.1834C2.97229 27.3036 2.74375 27.4806 2.56408 27.7008C2.15142 28.2009 1.93845 28.8314 1.96503 29.4745C1.93425 30.1258 2.14456 30.7661 2.55712 31.2771C2.73679 31.4969 2.96546 31.6733 3.22551 31.7927C3.48556 31.912 3.77005 31.9712 4.05706 31.9656C4.34602 31.9701 4.63221 31.9098 4.89379 31.7892C5.15536 31.6685 5.38539 31.4908 5.56629 31.2695C5.95601 30.7523 6.16724 30.1264 6.16919 29.4831C6.17114 28.8398 5.9637 28.2126 5.57713 27.6932C5.3945 27.4737 5.16329 27.2981 4.90109 27.1795C4.63889 27.061 4.3526 27.0028 4.06403 27.0093" fill="#151515"/>
        <path d="M9.69006 25.2023H11.625V26.1978C11.9254 25.8184 12.3059 25.5073 12.7403 25.2859C13.1555 25.0827 13.6137 24.9786 14.0777 24.9819C14.5474 24.9777 15.007 25.1162 15.3934 25.3786C15.8102 25.6725 16.1374 26.0723 16.34 26.5352C16.6171 26.062 17.0103 25.6645 17.4839 25.3786C17.931 25.1154 18.4432 24.9781 18.9645 24.9819C19.4847 24.9721 19.9954 25.1196 20.4273 25.4044C20.8372 25.673 21.1539 26.0579 21.3351 26.5079C21.5565 27.2246 21.65 27.9735 21.6114 28.7215V33.7181H19.6765V29.4169C19.7349 28.7487 19.6193 28.0769 19.3406 27.4646C19.2343 27.2994 19.085 27.165 18.9081 27.0754C18.7313 26.9858 18.5332 26.9441 18.3345 26.9547C18.0015 26.9523 17.6779 27.0626 17.4181 27.267C17.1371 27.4909 16.9282 27.79 16.8167 28.128C16.659 28.7028 16.5924 29.2979 16.6194 29.8926V33.7181H14.6845V29.6145C14.7062 29.061 14.6542 28.5071 14.5297 27.9669C14.4556 27.6738 14.2939 27.4091 14.0653 27.207C13.8532 27.0394 13.5875 26.951 13.3153 26.9577C12.9897 26.9569 12.6743 27.0689 12.4245 27.2739C12.1424 27.5061 11.9344 27.8132 11.8254 28.1584C11.6678 28.7428 11.601 29.3472 11.6273 29.9511V33.7181H9.69238V25.2023" fill="#151515"/>
        <path d="M29.1839 25.203H31.1188V33.7188H29.1839V32.8122C28.8573 33.1676 28.4652 33.4592 28.0283 33.6717C27.6348 33.8486 27.2065 33.9383 26.7737 33.9346C26.2662 33.9306 25.7662 33.8133 25.3117 33.5916C24.8571 33.3699 24.4598 33.0496 24.15 32.6549C23.3975 31.7638 23.0035 30.633 23.0424 29.4761C22.9926 28.3081 23.3728 27.1615 24.1136 26.2463C24.4199 25.8541 24.8141 25.5365 25.2656 25.3179C25.7171 25.0994 26.2138 24.986 26.7172 24.9864C27.1746 24.984 27.6267 25.0827 28.0399 25.2752C28.4764 25.4856 28.8654 25.7799 29.1839 26.1407V25.2014M27.1189 26.9493C26.8294 26.9448 26.5428 27.0055 26.2809 27.1267C26.019 27.2479 25.7888 27.4263 25.6081 27.6484C25.1935 28.1546 24.98 28.7913 25.0075 29.4403C24.981 30.0968 25.1983 30.7404 25.619 31.2513C25.7984 31.4746 26.0274 31.6546 26.2886 31.7777C26.5498 31.9007 26.8362 31.9634 27.1259 31.9611C27.4183 31.9661 27.708 31.9059 27.9732 31.7849C28.2384 31.6639 28.4722 31.4853 28.6568 31.2627C29.0808 30.7457 29.2975 30.0943 29.2659 29.4312C29.296 28.7795 29.079 28.14 28.6568 27.6363C28.469 27.4164 28.2333 27.2408 27.9671 27.1224C27.7009 27.0041 27.4111 26.9459 27.1189 26.9523" fill="#151515"/>
        <path d="M33.0243 25.2022H34.9592V26.0822C35.3103 25.7358 35.7159 25.4471 36.1604 25.2273C36.5055 25.07 36.8812 24.9878 37.2618 24.9864C37.6348 24.9832 38.004 25.0608 38.343 25.2137C38.682 25.3666 38.9824 25.591 39.223 25.871C39.7179 26.5054 39.9588 27.296 39.9002 28.093V33.7166H37.9653V29.9929C37.99 29.3172 37.948 28.6407 37.8399 27.973C37.7807 27.6813 37.6293 27.4153 37.4073 27.213C37.1948 27.0362 36.9233 26.9428 36.6449 26.9509C36.4547 26.9492 36.2663 26.987 36.0919 27.0618C35.9176 27.1365 35.7613 27.2466 35.6333 27.3848C35.3274 27.7218 35.1244 28.1366 35.0474 28.5817C34.9724 29.1533 34.9442 29.7299 34.9631 30.306V33.7181H33.0282V25.2022" fill="#151515"/>
        <path d="M45.441 24.9871C46.1736 24.9875 46.8904 25.1966 47.5044 25.589C48.1481 25.9901 48.6691 26.555 49.0121 27.2236C49.3738 27.9125 49.5597 28.6774 49.5539 29.4525C49.5583 30.2354 49.3709 31.008 49.0075 31.7049C48.6719 32.3728 48.158 32.9388 47.5207 33.3426C46.9026 33.7335 46.1817 33.9388 45.4464 33.933C44.9033 33.9358 44.3662 33.8206 43.8738 33.5955C43.3814 33.3704 42.9458 33.0411 42.5983 32.6313C41.8117 31.7615 41.3904 30.6312 41.4195 29.4684C41.4016 28.8547 41.5104 28.2438 41.7395 27.6725C41.9685 27.1013 42.3131 26.5815 42.7523 26.1445C43.0953 25.7808 43.5109 25.4903 43.9732 25.291C44.4355 25.0918 44.9346 24.9881 45.4395 24.9863M45.4828 27.007C45.1956 27.0028 44.9112 27.0632 44.6514 27.1834C44.3916 27.3037 44.1632 27.4806 43.9837 27.7008C43.571 28.2009 43.3581 28.8314 43.3846 29.4745C43.3533 30.1259 43.5637 30.7664 43.9767 31.2771C44.1561 31.4968 44.3845 31.6731 44.6443 31.7925C44.9041 31.9118 45.1883 31.9711 45.4751 31.9656C45.7641 31.9701 46.0504 31.9097 46.3121 31.7891C46.5738 31.6684 46.804 31.4907 46.9851 31.2695C47.3748 30.7523 47.586 30.1264 47.588 29.4831C47.5899 28.8398 47.3825 28.2126 46.9959 27.6932C46.8133 27.4737 46.5821 27.2981 46.3199 27.1795C46.0577 27.061 45.7714 27.0028 45.4828 27.0093" fill="#151515"/>
        <path d="M51.8858 21.7256C52.0507 21.7256 52.2135 21.7619 52.3622 21.8319C52.5108 21.9018 52.6416 22.0037 52.7449 22.1299C52.9846 22.4005 53.1127 22.7493 53.104 23.1079C53.1124 23.4627 52.9854 23.8077 52.748 24.0753C52.6456 24.2001 52.5159 24.3008 52.3685 24.3698C52.2212 24.4389 52.0599 24.4746 51.8967 24.4743C51.7303 24.4748 51.5659 24.4384 51.4158 24.3679C51.2657 24.2974 51.1338 24.1945 51.0298 24.0669C50.7901 23.7925 50.6624 23.4405 50.6715 23.079C50.6631 22.7282 50.7897 22.3871 51.0259 22.1238C51.1298 21.9992 51.2607 21.8989 51.4091 21.8303C51.5574 21.7617 51.7195 21.7264 51.8835 21.7271M50.9168 25.203H52.8556V33.7181H50.9168V25.2015" fill="#151515"/>
        <path d="M54.4159 21.9414H56.3508V33.7204H54.4159V21.9414Z" fill="#151515"/>
    </g>
    <defs>
        <clipPath id="clip0_299_1665">
            <rect width="104" height="41" fill="white"/>
        </clipPath>
    </defs>
</svg>