<svg width="134" height="53" viewBox="0 0 134 53" fill="none" xmlns="http://www.w3.org/2000/svg">
<g clip-path="url(#clip0_326_11843)">
<mask id="mask0_326_11843" style="mask-type:luminance" maskUnits="userSpaceOnUse" x="82" y="1" width="38" height="52">
<path d="M82.1583 1.11377H119.017V52.9998H82.1583V1.11377Z" fill="white"/>
</mask>
<g mask="url(#mask0_326_11843)">
<path d="M118.892 2.87297C117.62 2.25312 116.3 1.73124 114.946 1.31201C114.946 1.31201 96.3917 2.4152 87.1993 14.3056C77.5033 26.8493 85.5718 42.2202 85.5718 42.2202C87.8335 45.2911 90.742 47.8443 94.0982 49.7051C97.4545 51.5659 101.179 52.6904 105.018 53.0016C105.018 53.0016 93.9096 42.2939 91.2361 32.5362C88.5625 22.7784 92.0797 9.33687 118.895 2.86904" fill="#A6CE38"/>
</g>
<path d="M85.5718 42.2184C85.5718 42.2184 77.5033 26.8475 87.1993 14.3038C96.3917 2.41728 114.952 1.21881 114.952 1.21881C110.942 -0.0331287 106.688 -0.328174 102.54 0.358007C98.3914 1.04419 94.4681 2.69194 91.0934 5.16537C87.7187 7.63881 84.9892 10.8671 83.13 14.5839C81.2708 18.3008 80.3351 22.3998 80.4002 26.5429C80.3894 32.1767 82.2008 37.6673 85.5718 42.2184Z" fill="#0092C8"/>
<path d="M124.113 47.032C120.168 50.2691 115.357 52.3127 110.259 52.9163C110.259 52.9163 99.7444 44.8659 95.0315 33.7888C90.3186 22.7118 93.1607 10.7615 120.382 3.5166C121.851 4.31891 123.243 5.25142 124.54 6.30256C124.54 6.30256 107.411 9.47458 105.094 19.1586C102.778 28.8427 117.786 43.3403 124.117 47.032" fill="#00AEEF"/>
<mask id="mask1_326_11843" style="mask-type:luminance" maskUnits="userSpaceOnUse" x="104" y="6" width="30" height="42">
<path d="M104.668 6.12988H134V47.0941H104.668V6.12988Z" fill="white"/>
</mask>
<g mask="url(#mask1_326_11843)">
<path d="M124.13 47.0705C117.799 43.3778 102.769 28.8429 105.091 19.1588C107.412 9.47476 124.536 6.30273 124.536 6.30273C127.537 8.82737 129.939 11.9695 131.573 15.5077C133.207 19.0459 134.034 22.8941 133.995 26.7811C133.956 30.6681 133.052 34.4994 131.346 38.0049C129.641 41.5105 127.176 44.605 124.126 47.0705" fill="#FDFDFD"/>
</g>
<path d="M34.1729 22.2866C33.4823 21.9948 32.9147 21.4779 32.5652 20.8226C32.2158 20.1673 32.1058 19.4135 32.2537 18.6878C32.4016 17.9621 32.7985 17.3086 33.3776 16.8369C33.9568 16.3653 34.683 16.1043 35.4344 16.0977C36.2895 16.097 37.1101 16.4297 37.717 17.0231L39.1301 15.5191C38.377 14.8005 37.4251 14.3171 36.3941 14.1295C35.363 13.9418 34.2987 14.0584 33.3347 14.4645C32.3706 14.8706 31.5498 15.5482 30.9753 16.4121C30.4007 17.2761 30.098 18.288 30.1052 19.3209C30.1033 20.3678 30.4327 21.3894 31.0476 22.2434H28.394C28.0557 22.1138 27.7476 21.918 27.4885 21.6677C27.8712 20.8671 28.0423 19.9841 27.9857 19.1009C27.9291 18.2177 27.6468 17.3629 27.1649 16.616C26.6831 15.8692 26.0173 15.2544 25.2296 14.829C24.4418 14.4036 23.5577 14.1812 22.6593 14.1827C21.7609 14.1842 20.8775 14.4094 20.0912 14.8374C19.3049 15.2654 18.6412 15.8823 18.1619 16.6307C17.6825 17.3792 17.403 18.2349 17.3494 19.1183C17.2958 20.0017 17.4699 20.884 17.8553 21.6834L17.9381 21.8485C17.7975 22.2905 17.1642 22.1972 17.1642 22.1972H14.9584V11.0308H12.4733V24.3603H17.8433C18.5011 24.3188 19.127 24.0662 19.6254 23.6413C20.5824 24.2848 21.7141 24.629 22.8728 24.629C24.0315 24.629 25.1633 24.2848 26.1203 23.6413C26.5147 24.0519 27.0323 24.3274 27.5972 24.4271H39.6267V22.2866H34.1729ZM22.6679 22.6422C22.0202 22.6457 21.3861 22.4597 20.8458 22.1078C20.3056 21.7559 19.8835 21.2539 19.6332 20.6654C19.3829 20.077 19.3156 19.4286 19.4397 18.8024C19.5639 18.1762 19.874 17.6004 20.3307 17.148C20.7875 16.6956 21.3702 16.387 22.0052 16.2612C22.6402 16.1355 23.2988 16.1982 23.8975 16.4416C24.4962 16.6849 25.0081 17.0979 25.3683 17.6281C25.7285 18.1584 25.9208 18.782 25.9209 19.4201C25.923 20.2722 25.5815 21.0903 24.9715 21.6945C24.3615 22.2987 23.5329 22.6396 22.6679 22.6422ZM7.60982 17.2667C8.01356 17.6915 8.28467 18.2218 8.39079 18.7942C8.4969 19.3666 8.43353 19.957 8.20825 20.495C7.98296 21.0329 7.60528 21.4955 7.1203 21.8277C6.63532 22.1599 6.06353 22.3476 5.4732 22.3684C4.88288 22.3892 4.29896 22.2421 3.79116 21.9448C3.28337 21.6475 2.87316 21.2126 2.60951 20.6918C2.34587 20.1711 2.23992 19.5867 2.30433 19.0082C2.36873 18.4298 2.60077 17.8819 2.97273 17.4298L1.32831 15.8502C0.647177 16.6165 0.205424 17.5604 0.0562423 18.5683C-0.0929395 19.5761 0.0568103 20.605 0.48746 21.531C0.918111 22.457 1.6113 23.2406 2.48356 23.7875C3.35583 24.3344 4.36997 24.6212 5.40389 24.6135C6.43782 24.6058 7.44743 24.3038 8.31116 23.7439C9.1749 23.184 9.85594 22.3902 10.2723 21.4578C10.6886 20.5255 10.8225 19.4945 10.6578 18.489C10.4931 17.4835 10.0369 16.5463 9.344 15.7903L7.60982 17.2638M5.31023 16.7176C5.57647 16.7192 5.83719 16.6428 6.05932 16.4982C6.28145 16.3536 6.45499 16.1473 6.55793 15.9054C6.66087 15.6635 6.68857 15.397 6.63753 15.1395C6.58648 14.8821 6.45899 14.6455 6.27121 14.4595C6.08343 14.2736 5.84383 14.1467 5.58279 14.0951C5.32175 14.0435 5.05102 14.0694 4.80495 14.1695C4.55887 14.2697 4.34852 14.4395 4.20057 14.6576C4.05263 14.8757 3.97375 15.1321 3.97395 15.3944C3.97315 15.7444 4.11346 16.0804 4.36403 16.3285C4.6146 16.5766 4.95494 16.7166 5.31023 16.7176Z" fill="#151515"/>
<path d="M62.0762 13.3413C62.3422 13.3426 62.6026 13.2662 62.8244 13.1216C63.0462 12.977 63.2195 12.7709 63.3222 12.5292C63.4249 12.2875 63.4525 12.0213 63.4015 11.7641C63.3505 11.507 63.2231 11.2706 63.0355 11.0848C62.8479 10.8991 62.6086 10.7724 62.3478 10.7208C62.0871 10.6691 61.8166 10.6949 61.5708 10.7949C61.3249 10.8948 61.1147 11.0644 60.9668 11.2822C60.8189 11.4999 60.74 11.756 60.7399 12.018C60.7394 12.368 60.8798 12.7038 61.1303 12.9518C61.3808 13.1999 61.721 13.34 62.0762 13.3413ZM72.1342 20.4476V14.4209H69.6412V20.0291C69.2891 22.2237 67.9878 22.2276 67.9878 22.2276H66.815C67.2681 21.5164 67.547 20.7111 67.6297 19.8753C67.7124 19.0396 67.5967 18.1964 67.2917 17.4123C66.9867 16.6282 66.5008 15.9247 65.8723 15.3575C65.2439 14.7902 64.4901 14.3747 63.6705 14.1438C62.851 13.9129 61.9882 13.8729 61.1503 14.027C60.3123 14.1811 59.5223 14.525 58.8425 15.0317C58.1628 15.5383 57.6119 16.1937 57.2335 16.9461C56.8551 17.6986 56.6596 18.5274 56.6623 19.367C56.6602 20.3993 56.9676 21.4091 57.5458 22.2699L55.3948 22.262V20.4466C55.3948 20.4182 55.3948 20.3887 55.3948 20.3602C55.3972 19.5322 55.234 18.7119 54.9145 17.9461C54.5951 17.1803 54.1256 16.484 53.5329 15.8969C52.9403 15.3098 52.2361 14.8434 51.4605 14.5244C50.6849 14.2055 49.8531 14.0401 49.0126 14.0378C47.445 14.0325 45.9271 14.5792 44.7325 15.5791L44.7385 11.0769H42.382V22.2237H41.2203V24.3142H68.7237C69.661 24.1631 70.5151 23.6938 71.1382 22.9877C71.7612 22.2816 72.1139 21.383 72.1352 20.4476M53.1082 22.3288H44.7724V19.2285C45.2999 17.2776 46.9174 16.0241 49.6588 16.3718C50.4731 16.5123 51.2298 16.8786 51.8402 17.4277C52.4506 17.9768 52.8894 18.686 53.1052 19.4721V22.3288M62.144 22.3632C61.5418 22.3665 60.9521 22.1936 60.4496 21.8664C59.9472 21.5392 59.5548 21.0724 59.322 20.5252C59.0891 19.9781 59.0265 19.3751 59.1419 18.7928C59.2574 18.2105 59.5457 17.6751 59.9704 17.2544C60.3951 16.8337 60.937 16.5467 61.5274 16.4297C62.1179 16.3127 62.7303 16.3711 63.2871 16.5974C63.8438 16.8236 64.3199 17.2076 64.6548 17.7007C64.9898 18.1938 65.1686 18.7737 65.1686 19.367C65.1698 19.7594 65.0925 20.1482 64.9411 20.5111C64.7897 20.8741 64.5673 21.2041 64.2864 21.4823C64.0055 21.7606 63.6718 21.9816 63.3042 22.1327C62.9366 22.2839 62.5424 22.3622 62.144 22.3632ZM70.761 13.3413C71.027 13.3426 71.2874 13.2662 71.5092 13.1216C71.731 12.977 71.9043 12.7709 72.007 12.5292C72.1098 12.2875 72.1374 12.0213 72.0863 11.7641C72.0353 11.507 71.9079 11.2706 71.7203 11.0848C71.5327 10.8991 71.2934 10.7724 71.0327 10.7208C70.7719 10.6691 70.5015 10.6949 70.2556 10.7949C70.0097 10.8948 69.7995 11.0644 69.6516 11.2822C69.5037 11.4999 69.4248 11.756 69.4248 12.018C69.4242 12.368 69.5646 12.7038 69.8151 12.9518C70.0657 13.1999 70.4058 13.34 70.761 13.3413Z" fill="#151515"/>
<path d="M5.17958 32.2998C6.1238 32.3006 7.04757 32.5708 7.83917 33.0778C8.66861 33.5967 9.34018 34.3268 9.78276 35.1909C10.2481 36.0817 10.4876 37.0703 10.4808 38.0721C10.4879 39.0837 10.2485 40.0822 9.78276 40.9838C9.35032 41.8472 8.68826 42.5788 7.86709 43.1008C7.07065 43.6061 6.14182 43.8713 5.19453 43.8641C4.49466 43.8679 3.80262 43.719 3.16811 43.428C2.53361 43.1371 1.97238 42.7113 1.52475 42.1813C0.50888 41.0581 -0.0361041 39.5967 -6.25476e-06 38.0928C-0.0230255 37.2994 0.117353 36.5096 0.412661 35.7711C0.707968 35.0326 1.15208 34.3607 1.71821 33.7959C2.16033 33.3259 2.69584 32.9505 3.29146 32.6929C3.88708 32.4354 4.5301 32.3013 5.18057 32.2988M5.23642 34.9109C4.86621 34.9055 4.49964 34.9835 4.1647 35.1389C3.82976 35.2944 3.5353 35.5232 3.3038 35.8078C2.77209 36.4542 2.49769 37.2693 2.53195 38.1006C2.49228 38.9426 2.76326 39.7703 3.29482 40.4308C3.52632 40.7149 3.82095 40.943 4.15602 41.0973C4.49109 41.2516 4.85764 41.328 5.22744 41.3208C5.59975 41.3267 5.9685 41.2487 6.30553 41.0927C6.64256 40.9368 6.93894 40.707 7.17203 40.4209C7.67416 39.7524 7.94633 38.9433 7.94884 38.1117C7.95136 37.2801 7.68408 36.4694 7.18599 35.798C6.95068 35.5143 6.65277 35.2872 6.31494 35.134C5.9771 34.9807 5.60824 34.9055 5.23642 34.9139" fill="#151515"/>
<path d="M12.4852 32.5789H14.9783V33.8658C15.3654 33.3754 15.8556 32.9732 16.4153 32.687C16.9503 32.4244 17.5407 32.2897 18.1385 32.2941C18.7438 32.2886 19.3359 32.4677 19.8338 32.8068C20.3707 33.1867 20.7924 33.7036 21.0534 34.302C21.4104 33.6903 21.9171 33.1764 22.5273 32.8068C23.1033 32.4666 23.7633 32.2892 24.435 32.2941C25.1052 32.2814 25.7632 32.4721 26.3197 32.8402C26.8478 33.1874 27.2559 33.685 27.4895 34.2666C27.7747 35.1931 27.8951 36.1613 27.8455 37.1282V43.5872H25.3524V38.0271C25.4276 37.1633 25.2787 36.2949 24.9196 35.5034C24.7826 35.2898 24.5903 35.1161 24.3624 35.0003C24.1345 34.8844 23.8793 34.8305 23.6232 34.8442C23.1942 34.8411 22.7773 34.9837 22.4425 35.248C22.0804 35.5374 21.8113 35.924 21.6677 36.361C21.4644 37.104 21.3787 37.8733 21.4134 38.642V43.5872H18.9203V38.2825C18.9484 37.567 18.8813 36.8511 18.7209 36.1527C18.6254 35.7738 18.417 35.4317 18.1225 35.1704C17.8493 34.9537 17.5069 34.8395 17.1562 34.8482C16.7367 34.8471 16.3303 34.9918 16.0084 35.2568C15.645 35.557 15.377 35.954 15.2366 36.4003C15.0335 37.1557 14.9475 37.937 14.9813 38.7177V43.5872H12.4882V32.5789" fill="#151515"/>
<path d="M37.6024 32.5789H40.0954V43.5871H37.6024V42.4152C37.1815 42.8746 36.6764 43.2516 36.1135 43.5262C35.6065 43.7549 35.0546 43.8709 34.497 43.8661C33.8431 43.861 33.1989 43.7093 32.6132 43.4227C32.0275 43.1361 31.5157 42.722 31.1164 42.2118C30.1469 41.06 29.6392 39.5981 29.6894 38.1026C29.6251 36.5928 30.1151 35.1107 31.0695 33.9276C31.4642 33.4206 31.9721 33.01 32.5539 32.7275C33.1356 32.4451 33.7756 32.2984 34.4242 32.2989C35.0135 32.2958 35.596 32.4234 36.1285 32.6722C36.6908 32.9442 37.1921 33.3247 37.6024 33.7911V32.5769M34.9418 34.8363C34.5688 34.8305 34.1994 34.9089 33.862 35.0656C33.5245 35.2223 33.228 35.453 32.9952 35.7401C32.4609 36.3944 32.1859 37.2175 32.2213 38.0565C32.1872 38.9051 32.4672 39.737 33.0091 40.3974C33.2403 40.6861 33.5355 40.9188 33.872 41.0779C34.2085 41.2369 34.5775 41.318 34.9507 41.3149C35.3275 41.3215 35.7008 41.2436 36.0425 41.0872C36.3842 40.9308 36.6854 40.7 36.9232 40.4122C37.4696 39.7439 37.7487 38.9018 37.7081 38.0447C37.7469 37.2022 37.4673 36.3755 36.9232 35.7244C36.6813 35.4402 36.3776 35.2132 36.0346 35.0602C35.6917 34.9071 35.3182 34.832 34.9418 34.8402" fill="#151515"/>
<path d="M42.5505 32.5789H45.0436V33.7165C45.4959 33.2686 46.0185 32.8955 46.5913 32.6113C47.036 32.408 47.5201 32.3017 48.0103 32.2999C48.491 32.2957 48.9667 32.396 49.4035 32.5937C49.8402 32.7913 50.2274 33.0814 50.5373 33.4434C51.1749 34.2635 51.4854 35.2854 51.4099 36.3158V43.5852H48.9168V38.7717C48.9487 37.8982 48.8946 37.0238 48.7553 36.1606C48.679 35.7835 48.4839 35.4397 48.1978 35.1782C47.9241 34.9496 47.5742 34.8289 47.2156 34.8393C46.9705 34.8372 46.7277 34.886 46.5031 34.9827C46.2785 35.0794 46.0771 35.2216 45.9122 35.4002C45.5181 35.8359 45.2564 36.3721 45.1573 36.9474C45.0606 37.6864 45.0243 38.4318 45.0486 39.1764V43.5872H42.5555V32.5789" fill="#151515"/>
<path d="M58.549 32.2998C59.493 32.3003 60.4165 32.5706 61.2076 33.0778C62.037 33.5964 62.7083 34.3266 63.1502 35.1909C63.6162 36.0815 63.8558 37.0702 63.8483 38.0721C63.854 39.0843 63.6125 40.0829 63.1442 40.9838C62.7118 41.8472 62.0498 42.5788 61.2286 43.1008C60.4322 43.6062 59.5033 43.8715 58.556 43.8641C57.8562 43.8677 57.1642 43.7187 56.5297 43.4277C55.8952 43.1368 55.334 42.7112 54.8862 42.1813C53.8728 41.057 53.33 39.5959 53.3674 38.0928C53.3443 37.2994 53.4846 36.5097 53.7797 35.7713C54.0749 35.0328 54.5188 34.3608 55.0847 33.7959C55.5267 33.3258 56.0622 32.9503 56.6578 32.6927C57.2535 32.4352 57.8965 32.3011 58.547 32.2988M58.6029 34.9109C58.2328 34.9055 57.8664 34.9835 57.5316 35.139C57.1968 35.2944 56.9025 35.5232 56.6712 35.8078C56.1396 36.4543 55.8652 37.2693 55.8994 38.1006C55.8591 38.9427 56.1301 39.7706 56.6623 40.4308C56.8935 40.7148 57.1878 40.9427 57.5225 41.097C57.8572 41.2513 58.2234 41.3279 58.5929 41.3208C58.9653 41.3266 59.3342 41.2486 59.6714 41.0926C60.0086 40.9367 60.3051 40.707 60.5385 40.4209C61.0406 39.7524 61.3128 38.9433 61.3153 38.1117C61.3178 37.2801 61.0505 36.4694 60.5524 35.798C60.3171 35.5143 60.0192 35.2872 59.6814 35.134C59.3436 34.9807 58.9747 34.9055 58.6029 34.9139" fill="#151515"/>
<path d="M66.8529 28.0845C67.0654 28.0845 67.2751 28.1314 67.4667 28.2219C67.6583 28.3123 67.8268 28.444 67.9599 28.6071C68.2687 28.957 68.4337 29.4079 68.4226 29.8714C68.4334 30.33 68.2697 30.776 67.9639 31.1219C67.8319 31.2833 67.6648 31.4134 67.4749 31.5027C67.2851 31.5919 67.0773 31.6381 66.8669 31.6376C66.6525 31.6383 66.4407 31.5913 66.2474 31.5001C66.054 31.409 65.884 31.276 65.75 31.1111C65.4411 30.7563 65.2766 30.3013 65.2883 29.834C65.2776 29.3805 65.4406 28.9396 65.745 28.5992C65.8789 28.4382 66.0475 28.3085 66.2387 28.2198C66.4298 28.1311 66.6387 28.0855 66.85 28.0864M65.6044 32.5797H68.1025V43.587H65.6044V32.5778" fill="#151515"/>
<path d="M70.1129 28.3638H72.6059V43.5903H70.1129V28.3638Z" fill="#151515"/>
</g>
<defs>
<clipPath id="clip0_326_11843">
<rect width="134" height="53" fill="white"/>
</clipPath>
</defs>
</svg>
