<svg width="339" height="95" viewBox="0 0 339 95" fill="none" xmlns="http://www.w3.org/2000/svg">
    <path d="M9.38769 0H329.612C332.102 0 334.49 0.989891 336.25 2.75191C338.011 4.51393 339 6.90374 339 9.3956V85.6044C339 88.0963 338.011 90.4861 336.25 92.2481C334.49 94.0101 332.102 95 329.612 95H9.38769C6.89792 95 4.51013 94.0101 2.74959 92.2481C0.989058 90.4861 0 88.0963 0 85.6044L0 9.3956C0 6.90374 0.989058 4.51393 2.74959 2.75191C4.51013 0.989891 6.89792 0 9.38769 0Z" fill="url(#paint0_linear_1127_4485)"/>
    <mask id="mask0_1127_4485" style="mask-type:luminance" maskUnits="userSpaceOnUse" x="0" y="0" width="339" height="95">
        <path d="M9.38769 0H329.612C332.102 0 334.49 0.989891 336.25 2.75191C338.011 4.51393 339 6.90374 339 9.3956V85.6044C339 88.0963 338.011 90.4861 336.25 92.2481C334.49 94.0101 332.102 95 329.612 95H9.38769C6.89792 95 4.51013 94.0101 2.74959 92.2481C0.989058 90.4861 0 88.0963 0 85.6044L0 9.3956C0 6.90374 0.989058 4.51393 2.74959 2.75191C4.51013 0.989891 6.89792 0 9.38769 0Z" fill="white"/>
    </mask>
    <g mask="url(#mask0_1127_4485)">
        <mask id="mask1_1127_4485" style="mask-type:luminance" maskUnits="userSpaceOnUse" x="224" y="-23" width="139" height="141">
            <path d="M362.509 -22.0776H224.307V117.076H362.509V-22.0776Z" fill="white"/>
        </mask>
        <g mask="url(#mask1_1127_4485)">
            <mask id="mask2_1127_4485" style="mask-type:luminance" maskUnits="userSpaceOnUse" x="209" y="-37" width="170" height="226">
                <path d="M378.259 -36.6953H209.415V188.445H378.259V-36.6953Z" fill="white"/>
            </mask>
            <g mask="url(#mask2_1127_4485)">
                <path d="M360.232 47.7983C360.232 60.9491 356.335 73.8046 349.035 84.7391C341.735 95.6736 331.359 104.196 319.22 109.229C307.08 114.261 293.722 115.578 280.835 113.012C267.948 110.447 256.11 104.114 246.819 94.815C237.528 85.516 231.2 73.6683 228.637 60.7702C226.073 47.872 227.389 34.5028 232.417 22.353C237.446 10.2033 245.961 -0.181297 256.886 -7.48749C267.812 -14.7937 280.656 -18.6934 293.796 -18.6934C302.52 -18.6934 311.16 -16.9735 319.22 -13.632C327.28 -10.2905 334.604 -5.39273 340.773 0.781591C346.942 6.95591 351.836 14.2859 355.175 22.353C358.513 30.4202 360.232 39.0665 360.232 47.7983Z" fill="#FFE0E0"/>
                <path d="M293.796 47.7975L351.196 14.3188C357.113 24.482 360.231 36.0345 360.231 47.7975H293.796Z" fill="white"/>
                <path d="M293.796 47.5659L260.346 -9.88304C270.5 -15.8058 282.043 -18.9262 293.796 -18.9258V47.5659Z" fill="white"/>
                <path d="M293.796 47.5659L260.346 -9.88304C270.5 -15.8058 282.043 -18.9262 293.796 -18.9258V47.5659Z" fill="#FFA7A8"/>
                <path d="M293.447 47.5459L236.047 81.0245C230.129 70.8614 227.012 59.3089 227.012 47.5459H293.447Z" fill="#FFA7A8"/>
                <path d="M293.679 47.7983L327.13 105.246C316.975 111.169 305.432 114.29 293.679 114.29V47.7983Z" fill="#FFA7A8"/>
                <path d="M293.447 47.7975L350.846 14.3188C356.764 24.482 359.882 36.0344 359.882 47.7975H293.447Z" fill="#FFA7A8"/>
                <path d="M293.755 47.1525L229.514 30.2007C232.511 18.8268 238.468 8.45202 246.778 0.134766L293.755 47.1525Z" fill="white"/>
                <path d="M294.003 47.5645L277.068 111.86C265.704 108.861 255.338 102.899 247.028 94.5811L294.003 47.5645Z" fill="white"/>
                <path d="M293.838 47.3984L358.079 64.3471C355.083 75.7211 349.125 86.096 340.815 94.413L293.838 47.3984Z" fill="white"/>
                <path d="M293.673 47.5647L310.607 -16.7305C321.972 -13.732 332.338 -7.76964 340.648 0.548052L293.673 47.5647Z" fill="white"/>
                <path d="M293.447 116.296C277.613 116.295 262.269 110.799 250.03 100.745C237.79 90.691 229.413 76.7008 226.325 61.1579C223.236 45.615 225.628 29.4813 233.093 15.5055C240.557 1.52979 252.633 -9.42322 267.261 -15.4873C281.89 -21.5513 298.167 -22.3513 313.319 -17.7508C328.471 -13.1502 341.561 -3.43393 350.357 9.74266C359.154 22.9193 363.113 38.7409 361.561 54.5118C360.009 70.2827 353.042 85.0271 341.845 96.2328C335.504 102.614 327.962 107.673 319.654 111.117C311.346 114.56 302.439 116.321 293.447 116.296ZM293.447 -16.6867C280.703 -16.6867 268.246 -12.9047 257.651 -5.81895C247.055 1.26677 238.797 11.338 233.92 23.1211C229.044 34.9042 227.768 47.87 230.254 60.3789C232.74 72.8878 238.876 84.378 247.887 93.3964C256.898 102.415 268.378 108.556 280.877 111.045C293.375 113.533 306.33 112.256 318.103 107.375C329.876 102.494 339.939 94.2291 347.019 83.6245C354.099 73.02 357.877 60.5525 357.877 47.7985C357.858 30.7019 351.064 14.3111 338.985 2.22197C326.906 -9.86715 310.529 -16.6673 293.447 -16.6867Z" fill="#AC2C2E"/>
                <path d="M293.966 37.4676C288.527 34.7794 276.415 23.6445 276.415 23.6445C276.415 23.6445 284.186 38.1555 285.438 44.0915C286.69 50.0274 285.438 53.7052 285.438 53.7052L294.461 46.9195L303.271 39.8572C303.271 39.8572 299.405 40.1589 293.966 37.4707" fill="#D03739"/>
                <path d="M285.439 53.7052L301.531 56.4612L303.272 39.854L285.439 53.7052Z" fill="#D03739"/>
                <path d="M279.064 27.2588L300.895 55.7515L289.98 52.6582C290.144 50.9223 290.098 49.1729 289.844 47.4479C289.285 43.5403 279.064 27.2588 279.064 27.2588Z" fill="#AC2C2E"/>
            </g>
        </g>
    </g>
    <path d="M31.1814 35.8066V38.5273H21.1873V35.8066H31.1814ZM22.1443 18.6211V38.5273H18.7126V18.6211H22.1443ZM41.9685 35.041V23.7344H45.2771V38.5273H42.1599L41.9685 35.041ZM42.4333 31.9648L43.5408 31.9375C43.5408 32.931 43.4314 33.847 43.2126 34.6855C42.9939 35.515 42.6567 36.2396 42.2009 36.8594C41.7452 37.4701 41.1619 37.9486 40.4509 38.2949C39.74 38.6322 38.8878 38.8008 37.8943 38.8008C37.1742 38.8008 36.5134 38.696 35.9119 38.4863C35.3103 38.2767 34.7908 37.9531 34.3533 37.5156C33.9249 37.0781 33.5922 36.5085 33.3552 35.8066C33.1182 35.1048 32.9998 34.2663 32.9998 33.291V23.7344H36.2947V33.3184C36.2947 33.8561 36.3585 34.3073 36.4861 34.6719C36.6137 35.0273 36.7869 35.3145 37.0056 35.5332C37.2244 35.752 37.4796 35.9069 37.7712 35.998C38.0629 36.0892 38.3728 36.1348 38.7009 36.1348C39.6397 36.1348 40.378 35.9525 40.9158 35.5879C41.4626 35.2142 41.85 34.7129 42.0779 34.084C42.3149 33.4551 42.4333 32.7487 42.4333 31.9648ZM54.697 36.1758C55.2348 36.1758 55.7179 36.071 56.1462 35.8613C56.5837 35.6426 56.9347 35.3418 57.199 34.959C57.4724 34.5762 57.6228 34.1341 57.6501 33.6328H60.7537C60.7354 34.5898 60.4529 35.4603 59.906 36.2441C59.3591 37.028 58.6345 37.6523 57.7322 38.1172C56.8298 38.5729 55.8318 38.8008 54.738 38.8008C53.6078 38.8008 52.6235 38.6094 51.7849 38.2266C50.9464 37.8346 50.2491 37.2969 49.6931 36.6133C49.1371 35.9297 48.7179 35.1413 48.4353 34.248C48.1619 33.3548 48.0251 32.3978 48.0251 31.377V30.8984C48.0251 29.8776 48.1619 28.9206 48.4353 28.0273C48.7179 27.125 49.1371 26.332 49.6931 25.6484C50.2491 24.9648 50.9464 24.4316 51.7849 24.0488C52.6235 23.6569 53.6033 23.4609 54.7244 23.4609C55.9093 23.4609 56.9483 23.6979 57.8416 24.1719C58.7348 24.6367 59.4366 25.2884 59.947 26.127C60.4666 26.9564 60.7354 27.9225 60.7537 29.0254H57.6501C57.6228 28.4785 57.4861 27.9863 57.24 27.5488C57.003 27.1022 56.6658 26.7467 56.2283 26.4824C55.7999 26.2181 55.2849 26.0859 54.6833 26.0859C54.018 26.0859 53.4666 26.2227 53.0291 26.4961C52.5916 26.7604 52.2498 27.125 52.0037 27.5898C51.7576 28.0456 51.5798 28.5605 51.4705 29.1348C51.3702 29.6999 51.3201 30.2878 51.3201 30.8984V31.377C51.3201 31.9876 51.3702 32.5801 51.4705 33.1543C51.5707 33.7285 51.7439 34.2435 51.99 34.6992C52.2452 35.1458 52.5916 35.5059 53.0291 35.7793C53.4666 36.0436 54.0225 36.1758 54.697 36.1758ZM66.6052 17.5273V38.5273H63.2966V17.5273H66.6052ZM75.7927 23.7344L69.3533 30.8711L65.8259 34.4805L64.9646 31.6914L67.6306 28.3965L71.8142 23.7344H75.7927ZM72.5251 38.5273L67.7263 31.582L69.8044 29.2715L76.3396 38.5273H72.5251ZM82.1775 36.9141L86.197 23.7344H89.7244L83.7908 40.7832C83.6541 41.1478 83.4763 41.5443 83.2576 41.9727C83.0388 42.401 82.7517 42.8066 82.3962 43.1895C82.0499 43.5814 81.6169 43.8958 81.0974 44.1328C80.5779 44.3789 79.949 44.502 79.2107 44.502C78.919 44.502 78.6365 44.4746 78.363 44.4199C78.0987 44.3743 77.8481 44.3242 77.6111 44.2695L77.5974 41.7539C77.6886 41.763 77.7979 41.7721 77.9255 41.7812C78.0623 41.7904 78.1716 41.7949 78.2537 41.7949C78.8005 41.7949 79.2563 41.7266 79.6208 41.5898C79.9854 41.4622 80.2817 41.2526 80.5095 40.9609C80.7465 40.6693 80.947 40.2773 81.1111 39.7852L82.1775 36.9141ZM79.908 23.7344L83.4216 34.8086L84.0095 38.2812L81.7263 38.8691L76.3533 23.7344H79.908ZM106.883 34.5215C106.883 34.1934 106.801 33.8971 106.636 33.6328C106.472 33.3594 106.158 33.1133 105.693 32.8945C105.237 32.6758 104.563 32.4753 103.67 32.293C102.886 32.1198 102.166 31.9147 101.51 31.6777C100.862 31.4316 100.306 31.1354 99.8416 30.7891C99.3767 30.4427 99.0167 30.0326 98.7615 29.5586C98.5063 29.0846 98.3787 28.5378 98.3787 27.918C98.3787 27.3164 98.5108 26.7467 98.7751 26.209C99.0395 25.6712 99.4177 25.1973 99.9099 24.7871C100.402 24.377 100.999 24.0534 101.701 23.8164C102.412 23.5794 103.205 23.4609 104.08 23.4609C105.319 23.4609 106.381 23.6706 107.265 24.0898C108.159 24.5 108.842 25.0605 109.316 25.7715C109.79 26.4733 110.027 27.2663 110.027 28.1504H106.732C106.732 27.7585 106.632 27.3939 106.431 27.0566C106.24 26.7103 105.948 26.4323 105.556 26.2227C105.164 26.0039 104.672 25.8945 104.08 25.8945C103.515 25.8945 103.045 25.9857 102.672 26.168C102.307 26.3411 102.034 26.569 101.851 26.8516C101.678 27.1341 101.592 27.444 101.592 27.7812C101.592 28.0273 101.637 28.2507 101.728 28.4512C101.829 28.6426 101.993 28.8203 102.22 28.9844C102.448 29.1393 102.758 29.2852 103.15 29.4219C103.551 29.5586 104.052 29.6908 104.654 29.8184C105.784 30.0553 106.755 30.3607 107.566 30.7344C108.386 31.099 109.015 31.5729 109.453 32.1562C109.89 32.7305 110.109 33.4596 110.109 34.3438C110.109 35 109.968 35.6016 109.685 36.1484C109.412 36.6862 109.011 37.1556 108.482 37.5566C107.954 37.9486 107.32 38.2539 106.582 38.4727C105.853 38.6914 105.032 38.8008 104.121 38.8008C102.781 38.8008 101.646 38.5638 100.717 38.0898C99.7869 37.6068 99.0805 36.9915 98.5974 36.2441C98.1235 35.4876 97.8865 34.7038 97.8865 33.8926H101.072C101.108 34.5033 101.277 34.9909 101.578 35.3555C101.888 35.7109 102.271 35.9707 102.726 36.1348C103.191 36.2897 103.67 36.3672 104.162 36.3672C104.754 36.3672 105.251 36.2897 105.652 36.1348C106.053 35.9707 106.358 35.752 106.568 35.4785C106.778 35.196 106.883 34.877 106.883 34.5215ZM116.302 26.5781V44.2148H113.008V23.7344H116.043L116.302 26.5781ZM125.941 30.9941V31.2812C125.941 32.3568 125.814 33.3548 125.558 34.2754C125.312 35.1868 124.943 35.9844 124.451 36.668C123.968 37.3424 123.371 37.8665 122.66 38.2402C121.949 38.6139 121.129 38.8008 120.199 38.8008C119.278 38.8008 118.472 38.6322 117.779 38.2949C117.095 37.9486 116.517 37.4609 116.043 36.832C115.569 36.2031 115.186 35.4648 114.894 34.6172C114.612 33.7604 114.411 32.8216 114.293 31.8008V30.6934C114.411 29.6087 114.612 28.6243 114.894 27.7402C115.186 26.8561 115.569 26.0951 116.043 25.457C116.517 24.819 117.095 24.3268 117.779 23.9805C118.463 23.6341 119.26 23.4609 120.172 23.4609C121.101 23.4609 121.926 23.6432 122.646 24.0078C123.366 24.3633 123.972 24.8737 124.465 25.5391C124.957 26.1953 125.326 26.9883 125.572 27.918C125.818 28.8385 125.941 29.8639 125.941 30.9941ZM122.646 31.2812V30.9941C122.646 30.3105 122.582 29.6771 122.455 29.0938C122.327 28.5013 122.127 27.9818 121.853 27.5352C121.58 27.0885 121.229 26.7422 120.801 26.4961C120.381 26.2409 119.875 26.1133 119.283 26.1133C118.7 26.1133 118.198 26.2135 117.779 26.4141C117.36 26.6055 117.009 26.8743 116.726 27.2207C116.444 27.5671 116.225 27.9727 116.07 28.4375C115.915 28.8932 115.806 29.39 115.742 29.9277V32.5801C115.851 33.2363 116.038 33.8379 116.302 34.3848C116.567 34.9316 116.941 35.3691 117.424 35.6973C117.916 36.0163 118.545 36.1758 119.31 36.1758C119.903 36.1758 120.409 36.0482 120.828 35.793C121.247 35.5378 121.589 35.1868 121.853 34.7402C122.127 34.2845 122.327 33.7604 122.455 33.168C122.582 32.5755 122.646 31.9466 122.646 31.2812ZM132.271 23.7344V38.5273H128.963V23.7344H132.271ZM128.744 19.8516C128.744 19.3503 128.908 18.9355 129.236 18.6074C129.573 18.2702 130.038 18.1016 130.631 18.1016C131.214 18.1016 131.674 18.2702 132.011 18.6074C132.349 18.9355 132.517 19.3503 132.517 19.8516C132.517 20.3438 132.349 20.7539 132.011 21.082C131.674 21.4102 131.214 21.5742 130.631 21.5742C130.038 21.5742 129.573 21.4102 129.236 21.082C128.908 20.7539 128.744 20.3438 128.744 19.8516ZM139.148 26.8926V38.5273H135.853V23.7344H138.957L139.148 26.8926ZM138.56 30.584L137.494 30.5703C137.503 29.5221 137.649 28.5605 137.931 27.6855C138.223 26.8105 138.624 26.0586 139.135 25.4297C139.654 24.8008 140.274 24.3177 140.994 23.9805C141.714 23.6341 142.516 23.4609 143.4 23.4609C144.111 23.4609 144.754 23.5612 145.328 23.7617C145.911 23.9531 146.408 24.2676 146.818 24.7051C147.237 25.1426 147.556 25.7122 147.775 26.4141C147.994 27.1068 148.103 27.959 148.103 28.9707V38.5273H144.795V28.957C144.795 28.2461 144.69 27.6855 144.48 27.2754C144.28 26.8561 143.983 26.5599 143.592 26.3867C143.209 26.2044 142.73 26.1133 142.156 26.1133C141.591 26.1133 141.085 26.2318 140.638 26.4688C140.192 26.7057 139.814 27.0293 139.504 27.4395C139.203 27.8496 138.97 28.3236 138.806 28.8613C138.642 29.3991 138.56 29.9733 138.56 30.584Z" fill="white"/>
    <path d="M132.331 67.8293C132.564 67.8293 132.76 67.9133 132.919 68.0813C133.087 68.24 133.171 68.436 133.171 68.6693C133.171 68.9026 133.082 69.1033 132.905 69.2713C132.737 69.43 132.545 69.5093 132.331 69.5093C132.116 69.5093 131.92 69.43 131.743 69.2713C131.575 69.1033 131.491 68.9026 131.491 68.6693C131.491 68.436 131.57 68.24 131.729 68.0813C131.897 67.9133 132.097 67.8293 132.331 67.8293ZM132.331 72.9533C132.564 72.9533 132.76 73.0373 132.919 73.2053C133.087 73.364 133.171 73.56 133.171 73.7933C133.171 74.0266 133.082 74.2273 132.905 74.3953C132.737 74.554 132.545 74.6333 132.331 74.6333C132.116 74.6333 131.92 74.554 131.743 74.3953C131.575 74.2273 131.491 74.0266 131.491 73.7933C131.491 73.56 131.57 73.364 131.729 73.2053C131.897 73.0373 132.097 72.9533 132.331 72.9533Z" fill="white"/>
    <path d="M124.126 58.4614H90.7477C88.4434 58.4614 86.5754 60.331 86.5754 62.6373V79.3405C86.5754 81.6468 88.4434 83.5164 90.7477 83.5164H124.126C126.431 83.5164 128.299 81.6468 128.299 79.3405V62.6373C128.299 60.331 126.431 58.4614 124.126 58.4614Z" fill="#AC2C2E"/>
    <path d="M124.126 58.9834H90.7477C88.7314 58.9834 87.0969 60.6193 87.0969 62.6372V79.3405C87.0969 81.3585 88.7314 82.9944 90.7477 82.9944H124.126C126.142 82.9944 127.777 81.3585 127.777 79.3405V62.6372C127.777 60.6193 126.142 58.9834 124.126 58.9834Z" fill="#AC2C2E" stroke="white" stroke-opacity="0.26"/>
    <path d="M176.28 58.4614H142.902C140.597 58.4614 138.729 60.331 138.729 62.6373V79.3405C138.729 81.6468 140.597 83.5164 142.902 83.5164H176.28C178.584 83.5164 180.452 81.6468 180.452 79.3405V62.6373C180.452 60.331 178.584 58.4614 176.28 58.4614Z" fill="#AC2C2E"/>
    <path d="M176.28 58.9834H142.902C140.885 58.9834 139.251 60.6193 139.251 62.6372V79.3405C139.251 81.3585 140.885 82.9944 142.902 82.9944H176.28C178.296 82.9944 179.931 81.3585 179.931 79.3405V62.6372C179.931 60.6193 178.296 58.9834 176.28 58.9834Z" fill="#AC2C2E" stroke="white" stroke-opacity="0.26"/>
    <path d="M97.7057 75.5933H96.6977V66.9413L94.9197 68.5093L94.2897 67.7533L96.8097 65.6813H97.7057V75.5933ZM104.505 66.4373C103.964 66.4373 103.534 66.5819 103.217 66.8713C102.909 67.1606 102.676 67.5199 102.517 67.9493C102.358 68.3786 102.256 68.8359 102.209 69.3213C102.172 69.8066 102.153 70.2453 102.153 70.6373C102.153 71.0293 102.172 71.4679 102.209 71.9533C102.256 72.4386 102.358 72.8959 102.517 73.3253C102.676 73.7546 102.909 74.1139 103.217 74.4033C103.534 74.6926 103.964 74.8373 104.505 74.8373C105.046 74.8373 105.471 74.6926 105.779 74.4033C106.096 74.1139 106.334 73.7546 106.493 73.3253C106.652 72.8959 106.75 72.4386 106.787 71.9533C106.834 71.4679 106.857 71.0293 106.857 70.6373C106.857 70.2453 106.834 69.8066 106.787 69.3213C106.75 68.8359 106.652 68.3786 106.493 67.9493C106.334 67.5199 106.096 67.1606 105.779 66.8713C105.471 66.5819 105.046 66.4373 104.505 66.4373ZM104.505 65.5133C105.214 65.5133 105.788 65.6766 106.227 66.0033C106.666 66.3299 107.006 66.7453 107.249 67.2493C107.492 67.7533 107.655 68.3086 107.739 68.9153C107.823 69.5126 107.865 70.0866 107.865 70.6373C107.865 71.1879 107.823 71.7666 107.739 72.3733C107.655 72.9706 107.492 73.5213 107.249 74.0253C107.006 74.5293 106.666 74.9446 106.227 75.2713C105.788 75.5979 105.214 75.7613 104.505 75.7613C103.796 75.7613 103.222 75.5979 102.783 75.2713C102.344 74.9446 102.004 74.5293 101.761 74.0253C101.518 73.5213 101.355 72.9706 101.271 72.3733C101.187 71.7666 101.145 71.1879 101.145 70.6373C101.145 70.0866 101.187 69.5126 101.271 68.9153C101.355 68.3086 101.518 67.7533 101.761 67.2493C102.004 66.7453 102.344 66.3299 102.783 66.0033C103.222 65.6766 103.796 65.5133 104.505 65.5133Z" fill="white"/>
    <path d="M148.817 75.5933H147.809V66.9413L146.031 68.5093L145.401 67.7533L147.921 65.6813H148.817V75.5933ZM158.234 66.6053H154.174L154.118 69.5873C154.333 69.5033 154.552 69.4426 154.776 69.4053C155 69.3679 155.224 69.3493 155.448 69.3493C155.915 69.3493 156.339 69.4286 156.722 69.5873C157.105 69.7459 157.431 69.9699 157.702 70.2593C157.982 70.5393 158.197 70.8753 158.346 71.2673C158.505 71.6499 158.584 72.0699 158.584 72.5273C158.584 73.0033 158.5 73.4419 158.332 73.8433C158.164 74.2353 157.931 74.5759 157.632 74.8653C157.333 75.1453 156.979 75.3646 156.568 75.5233C156.167 75.6819 155.728 75.7613 155.252 75.7613C154.627 75.7613 154.062 75.6119 153.558 75.3133C153.054 75.0146 152.667 74.5759 152.396 73.9973L153.39 73.5633C153.577 73.9553 153.838 74.2679 154.174 74.5013C154.51 74.7253 154.897 74.8373 155.336 74.8373C155.653 74.8373 155.947 74.7813 156.218 74.6693C156.489 74.5479 156.722 74.3893 156.918 74.1933C157.123 73.9973 157.282 73.7639 157.394 73.4933C157.515 73.2226 157.576 72.9333 157.576 72.6253C157.576 72.2799 157.515 71.9626 157.394 71.6733C157.273 71.3839 157.105 71.1366 156.89 70.9313C156.675 70.7166 156.419 70.5533 156.12 70.4413C155.821 70.3293 155.495 70.2733 155.14 70.2733C154.785 70.2733 154.431 70.3246 154.076 70.4273C153.731 70.5206 153.399 70.6513 153.082 70.8193L153.18 65.6813H158.234V66.6053Z" fill="white"/>
    <path d="M116.747 68.1733C117.344 68.1733 117.867 68.2899 118.315 68.5233C118.772 68.7473 119.127 69.0926 119.379 69.5593C119.64 70.0259 119.771 70.6139 119.771 71.3233V75.5933H118.777V71.4213C118.777 70.6466 118.581 70.0633 118.189 69.6713C117.806 69.2699 117.265 69.0693 116.565 69.0693C116.042 69.0693 115.585 69.1766 115.193 69.3913C114.81 69.5966 114.512 69.8999 114.297 70.3013C114.092 70.6933 113.989 71.1693 113.989 71.7293V75.5933H112.995V65.2053H113.989V70.2593L113.793 69.8813C114.026 69.3493 114.4 68.9339 114.913 68.6353C115.426 68.3273 116.038 68.1733 116.747 68.1733Z" fill="white"/>
    <path d="M171.204 68.1733C171.801 68.1733 172.319 68.2899 172.758 68.5233C173.206 68.7473 173.551 69.0926 173.794 69.5593C174.046 70.0259 174.172 70.6139 174.172 71.3233V75.5933H173.178V71.4213C173.178 70.6466 172.991 70.0633 172.618 69.6713C172.254 69.2699 171.736 69.0693 171.064 69.0693C170.56 69.0693 170.121 69.1766 169.748 69.3913C169.384 69.5966 169.099 69.8999 168.894 70.3013C168.698 70.6933 168.6 71.1693 168.6 71.7293V75.5933H167.606V71.4213C167.606 70.6466 167.419 70.0633 167.046 69.6713C166.672 69.2699 166.15 69.0693 165.478 69.0693C164.983 69.0693 164.549 69.1766 164.176 69.3913C163.802 69.5966 163.513 69.8999 163.308 70.3013C163.112 70.6933 163.014 71.1693 163.014 71.7293V75.5933H162.02V68.2433H162.972V70.2313L162.818 69.8813C163.042 69.3493 163.401 68.9339 163.896 68.6353C164.4 68.3273 164.992 68.1733 165.674 68.1733C166.392 68.1733 167.004 68.3553 167.508 68.7193C168.012 69.0739 168.338 69.6106 168.488 70.3293L168.096 70.1753C168.31 69.5779 168.688 69.0973 169.23 68.7333C169.78 68.3599 170.438 68.1733 171.204 68.1733Z" fill="white"/>
    <path d="M24.1677 73.52V74.5933H18.8972V73.52H24.1677ZM19.1638 64.6401V74.5933H17.8445V64.6401H19.1638ZM23.4705 68.9194V69.9927H18.8972V68.9194H23.4705ZM24.0994 64.6401V65.7202H18.8972V64.6401H24.0994ZM26.4646 67.1968L28.0847 69.8901L29.7253 67.1968H31.2087L28.7888 70.8472L31.2839 74.5933H29.821L28.1121 71.8179L26.4031 74.5933H24.9333L27.4216 70.8472L25.0085 67.1968H26.4646ZM33.8201 68.6187V77.437H32.5486V67.1968H33.7107L33.8201 68.6187ZM38.8035 70.8335V70.9771C38.8035 71.5148 38.7397 72.0138 38.6121 72.4741C38.4845 72.9299 38.2976 73.3263 38.0515 73.6636C37.81 74.0008 37.5115 74.2629 37.156 74.4497C36.8005 74.6366 36.3927 74.73 35.9324 74.73C35.463 74.73 35.0483 74.6525 34.6882 74.4976C34.3282 74.3426 34.0229 74.117 33.7722 73.8208C33.5216 73.5246 33.321 73.1691 33.1707 72.7544C33.0248 72.3397 32.9246 71.8726 32.8699 71.353V70.5874C32.9246 70.0405 33.0271 69.5506 33.1775 69.1177C33.3279 68.6847 33.5261 68.3156 33.7722 68.0103C34.0229 67.7004 34.3259 67.4657 34.6814 67.3062C35.0369 67.1421 35.447 67.0601 35.9119 67.0601C36.3767 67.0601 36.7891 67.1512 37.1492 67.3335C37.5092 67.5112 37.8123 67.7664 38.0583 68.0991C38.3044 68.4318 38.489 68.8306 38.6121 69.2954C38.7397 69.7557 38.8035 70.2684 38.8035 70.8335ZM37.532 70.9771V70.8335C37.532 70.4644 37.4932 70.118 37.4158 69.7944C37.3383 69.4663 37.2175 69.1792 37.0535 68.9331C36.894 68.6825 36.6889 68.4865 36.4382 68.3452C36.1876 68.1994 35.8891 68.1265 35.5427 68.1265C35.2237 68.1265 34.9457 68.1812 34.7087 68.2905C34.4763 68.3999 34.2781 68.548 34.114 68.7349C33.95 68.9172 33.8155 69.1268 33.7107 69.3638C33.6104 69.5962 33.5352 69.8377 33.4851 70.0884V71.8589C33.5763 72.1779 33.7039 72.4787 33.8679 72.7612C34.032 73.0392 34.2507 73.2648 34.5242 73.438C34.7976 73.6066 35.1417 73.6909 35.5564 73.6909C35.8982 73.6909 36.1921 73.6203 36.4382 73.479C36.6889 73.3332 36.894 73.1349 37.0535 72.8843C37.2175 72.6336 37.3383 72.3465 37.4158 72.0229C37.4932 71.6948 37.532 71.3462 37.532 70.9771ZM41.7908 67.1968V74.5933H40.5193V67.1968H41.7908ZM40.4236 65.2349C40.4236 65.0298 40.4851 64.8566 40.6082 64.7153C40.7358 64.5741 40.9226 64.5034 41.1687 64.5034C41.4102 64.5034 41.5948 64.5741 41.7224 64.7153C41.8546 64.8566 41.9207 65.0298 41.9207 65.2349C41.9207 65.4308 41.8546 65.5994 41.7224 65.7407C41.5948 65.8774 41.4102 65.9458 41.1687 65.9458C40.9226 65.9458 40.7358 65.8774 40.6082 65.7407C40.4851 65.5994 40.4236 65.4308 40.4236 65.2349ZM45.0857 68.3589V74.5933H43.821V67.1968H45.0515L45.0857 68.3589ZM47.3962 67.1558L47.3894 68.3315C47.2846 68.3088 47.1843 68.2951 47.0886 68.2905C46.9975 68.2814 46.8927 68.2769 46.7742 68.2769C46.4825 68.2769 46.225 68.3224 46.0017 68.4136C45.7784 68.5047 45.5893 68.6323 45.4343 68.7964C45.2794 68.9604 45.1563 69.1564 45.0652 69.3843C44.9786 69.6076 44.9216 69.8537 44.8943 70.1226L44.5388 70.3276C44.5388 69.881 44.5821 69.4618 44.6687 69.0698C44.7598 68.6779 44.8988 68.3315 45.0857 68.0308C45.2725 67.7254 45.5095 67.4884 45.7966 67.3198C46.0883 67.1466 46.4347 67.0601 46.8357 67.0601C46.9268 67.0601 47.0317 67.0715 47.1501 67.0942C47.2686 67.1125 47.3507 67.133 47.3962 67.1558ZM51.4978 74.73C50.9828 74.73 50.5157 74.6434 50.0964 74.4702C49.6817 74.2925 49.324 74.0441 49.0232 73.7251C48.727 73.4061 48.4991 73.0278 48.3396 72.5903C48.1801 72.1528 48.1003 71.6743 48.1003 71.1548V70.8677C48.1003 70.2661 48.1892 69.7306 48.3669 69.2612C48.5447 68.7873 48.7862 68.3862 49.0916 68.0581C49.3969 67.73 49.7432 67.4816 50.1306 67.313C50.518 67.1444 50.919 67.0601 51.3337 67.0601C51.8624 67.0601 52.3181 67.1512 52.7009 67.3335C53.0883 67.5158 53.405 67.771 53.6511 68.0991C53.8972 68.4227 54.0795 68.8055 54.198 69.2476C54.3165 69.6851 54.3757 70.1636 54.3757 70.6831V71.2505H48.8523V70.2183H53.1111V70.1226C53.0929 69.7944 53.0245 69.4754 52.906 69.1655C52.7921 68.8556 52.6098 68.6004 52.3591 68.3999C52.1085 68.1994 51.7667 68.0991 51.3337 68.0991C51.0466 68.0991 50.7823 68.1606 50.5408 68.2837C50.2992 68.4022 50.0919 68.5799 49.9187 68.8169C49.7455 69.0539 49.6111 69.3433 49.5154 69.6851C49.4197 70.0269 49.3718 70.4211 49.3718 70.8677V71.1548C49.3718 71.5057 49.4197 71.8361 49.5154 72.146C49.6156 72.4513 49.7592 72.7202 49.946 72.9526C50.1375 73.1851 50.3676 73.3674 50.6365 73.4995C50.9099 73.6317 51.2198 73.6978 51.5662 73.6978C52.0128 73.6978 52.391 73.6066 52.7009 73.4243C53.0108 73.242 53.282 72.9982 53.5144 72.6929L54.28 73.3013C54.1205 73.5428 53.9177 73.7729 53.6716 73.9917C53.4255 74.2104 53.1225 74.3882 52.7625 74.5249C52.407 74.6616 51.9854 74.73 51.4978 74.73ZM60.1589 72.6313C60.1589 72.4491 60.1179 72.2804 60.0359 72.1255C59.9584 71.966 59.7966 71.8224 59.5505 71.6948C59.309 71.5627 58.9444 71.4487 58.4568 71.353C58.0466 71.2664 57.6752 71.1639 57.3425 71.0454C57.0144 70.9269 56.7341 70.7834 56.5017 70.6147C56.2738 70.4461 56.0984 70.2479 55.9753 70.02C55.8523 69.7922 55.7908 69.5256 55.7908 69.2202C55.7908 68.9285 55.8546 68.6528 55.9822 68.3931C56.1143 68.1333 56.2989 67.9032 56.5359 67.7026C56.7774 67.5021 57.0668 67.3449 57.4041 67.231C57.7413 67.117 58.1173 67.0601 58.532 67.0601C59.1244 67.0601 59.6303 67.1649 60.0496 67.3745C60.4688 67.5841 60.7901 67.8644 61.0134 68.2153C61.2367 68.5617 61.3484 68.9468 61.3484 69.3706H60.0837C60.0837 69.1655 60.0222 68.9673 59.8992 68.7759C59.7807 68.5799 59.6052 68.4181 59.3728 68.2905C59.1449 68.1629 58.8647 68.0991 58.532 68.0991C58.1811 68.0991 57.8962 68.1538 57.6775 68.2632C57.4633 68.368 57.3061 68.5024 57.2058 68.6665C57.1101 68.8306 57.0623 69.0037 57.0623 69.186C57.0623 69.3228 57.085 69.4458 57.1306 69.5552C57.1807 69.66 57.2673 69.758 57.3904 69.8491C57.5134 69.9357 57.6866 70.0177 57.9099 70.0952C58.1332 70.1727 58.4181 70.2502 58.7644 70.3276C59.3705 70.4644 59.8695 70.6284 60.2615 70.8198C60.6534 71.0112 60.9451 71.2459 61.1365 71.5239C61.3279 71.8019 61.4236 72.1392 61.4236 72.5356C61.4236 72.8592 61.3552 73.1554 61.2185 73.4243C61.0863 73.6932 60.8927 73.9256 60.6375 74.1216C60.3868 74.313 60.086 74.4634 59.7351 74.5728C59.3888 74.6776 58.9991 74.73 58.5662 74.73C57.9145 74.73 57.363 74.6138 56.9119 74.3813C56.4607 74.1489 56.1189 73.8481 55.8865 73.479C55.6541 73.1099 55.5378 72.7202 55.5378 72.3101H56.8093C56.8276 72.6564 56.9278 72.9321 57.1101 73.1372C57.2924 73.3377 57.5157 73.4813 57.78 73.5679C58.0444 73.6499 58.3064 73.6909 58.5662 73.6909C58.9125 73.6909 59.2019 73.6453 59.4343 73.5542C59.6713 73.4631 59.8513 73.3377 59.9744 73.1782C60.0974 73.0187 60.1589 72.8364 60.1589 72.6313ZM67.9314 67.1968V74.5933H66.6599V67.1968H67.9314ZM66.5642 65.2349C66.5642 65.0298 66.6257 64.8566 66.7488 64.7153C66.8764 64.5741 67.0632 64.5034 67.3093 64.5034C67.5509 64.5034 67.7354 64.5741 67.863 64.7153C67.9952 64.8566 68.0613 65.0298 68.0613 65.2349C68.0613 65.4308 67.9952 65.5994 67.863 65.7407C67.7354 65.8774 67.5509 65.9458 67.3093 65.9458C67.0632 65.9458 66.8764 65.8774 66.7488 65.7407C66.6257 65.5994 66.5642 65.4308 66.5642 65.2349ZM71.2263 68.7759V74.5933H69.9617V67.1968H71.158L71.2263 68.7759ZM70.9255 70.6147L70.3992 70.5942C70.4037 70.0884 70.4789 69.6213 70.6248 69.1929C70.7706 68.7599 70.9757 68.384 71.24 68.0649C71.5043 67.7459 71.8188 67.4998 72.1833 67.3267C72.5525 67.1489 72.9604 67.0601 73.407 67.0601C73.7716 67.0601 74.0997 67.1102 74.3914 67.2104C74.683 67.3062 74.9314 67.4611 75.1365 67.6753C75.3461 67.8895 75.5056 68.1675 75.615 68.5093C75.7244 68.8465 75.7791 69.259 75.7791 69.7466V74.5933H74.5076V69.7329C74.5076 69.3455 74.4506 69.0356 74.3367 68.8032C74.2227 68.5662 74.0564 68.3953 73.8376 68.2905C73.6189 68.1812 73.35 68.1265 73.031 68.1265C72.7166 68.1265 72.4294 68.1925 72.1697 68.3247C71.9145 68.4569 71.6934 68.6392 71.5066 68.8716C71.3243 69.104 71.1807 69.3706 71.0759 69.6714C70.9757 69.9676 70.9255 70.2821 70.9255 70.6147Z" fill="white"/>
    <defs>
        <linearGradient id="paint0_linear_1127_4485" x1="2.712" y1="42.75" x2="327.696" y2="-0.11288" gradientUnits="userSpaceOnUse">
            <stop stop-color="#D1383A"/>
            <stop offset="1" stop-color="#F35B5D"/>
        </linearGradient>
    </defs>
</svg>
