<svg width="159" height="41" viewBox="0 0 159 41" fill="none" xmlns="http://www.w3.org/2000/svg">
    <mask id="mask0_1127_4727" style="mask-type:luminance" maskUnits="userSpaceOnUse" x="0" y="0" width="159" height="41">
        <path d="M158.213 0.523438H0.786133V40.4767H158.213V0.523438Z" fill="white"/>
    </mask>
    <g mask="url(#mask0_1127_4727)">
        <path d="M5.14566 0.523438H153.854C155.01 0.523438 156.119 0.939746 156.936 1.68078C157.754 2.42181 158.213 3.42686 158.213 4.47486V36.5253C158.213 37.5733 157.754 38.5783 156.936 39.3194C156.119 40.0604 155.01 40.4767 153.854 40.4767H5.14566C3.98943 40.4767 2.88057 40.0604 2.06301 39.3194C1.24544 38.5783 0.786133 37.5733 0.786133 36.5253V4.47486C0.786133 3.42686 1.24544 2.42181 2.06301 1.68078C2.88057 0.939746 3.98943 0.523438 5.14566 0.523438Z" fill="url(#paint0_linear_1127_4727)"/>
        <mask id="mask1_1127_4727" style="mask-type:luminance" maskUnits="userSpaceOnUse" x="0" y="0" width="159" height="41">
            <path d="M5.14566 0.523438H153.854C155.01 0.523438 156.119 0.939746 156.936 1.68078C157.754 2.42181 158.213 3.42686 158.213 4.47486V36.5253C158.213 37.5733 157.754 38.5783 156.936 39.3194C156.119 40.0604 155.01 40.4767 153.854 40.4767H5.14566C3.98943 40.4767 2.88057 40.0604 2.06301 39.3194C1.24544 38.5783 0.786133 37.5733 0.786133 36.5253V4.47486C0.786133 3.42686 1.24544 2.42181 2.06301 1.68078C2.88057 0.939746 3.98943 0.523438 5.14566 0.523438Z" fill="white"/>
        </mask>
        <g mask="url(#mask1_1127_4727)">
            <mask id="mask2_1127_4727" style="mask-type:luminance" maskUnits="userSpaceOnUse" x="104" y="-9" width="66" height="59">
                <path d="M169.131 -8.76172H104.952V49.7608H169.131V-8.76172Z" fill="white"/>
            </mask>
            <g mask="url(#mask2_1127_4727)">
                <mask id="mask3_1127_4727" style="mask-type:luminance" maskUnits="userSpaceOnUse" x="98" y="-15" width="79" height="95">
                    <path d="M176.445 -14.9092H98.0366V79.776H176.445V-14.9092Z" fill="white"/>
                </mask>
                <g mask="url(#mask3_1127_4727)">
                    <path d="M168.074 20.6254C168.074 26.1561 166.265 31.5626 162.875 36.1613C159.485 40.7601 154.666 44.3441 149.028 46.4608C143.391 48.577 137.188 49.1309 131.203 48.0517C125.218 46.973 119.721 44.3096 115.406 40.3988C111.092 36.488 108.153 31.5053 106.963 26.0809C105.773 20.6564 106.384 15.0339 108.719 9.92413C111.054 4.81444 115.008 0.447084 120.082 -2.62561C125.155 -5.69831 131.12 -7.33838 137.222 -7.33838C141.274 -7.33838 145.285 -6.61506 149.028 -5.20974C152.772 -3.80443 156.173 -1.74464 159.038 0.852037C161.903 3.44871 164.175 6.53142 165.725 9.92413C167.276 13.3169 168.074 16.9532 168.074 20.6254Z" fill="#FFE0E0"/>
                    <path d="M137.222 20.6252L163.878 6.54541C166.626 10.8197 168.073 15.6782 168.073 20.6252H137.222Z" fill="white"/>
                    <path d="M137.222 20.5278L121.688 -3.63301C126.403 -6.12388 131.764 -7.4362 137.222 -7.43604V20.5278Z" fill="white"/>
                    <path d="M137.222 20.5278L121.688 -3.63301C126.403 -6.12388 131.764 -7.4362 137.222 -7.43604V20.5278Z" fill="#FFA7A8"/>
                    <path d="M137.06 20.519L110.404 34.5988C107.656 30.3246 106.208 25.4661 106.208 20.519H137.06Z" fill="#FFA7A8"/>
                    <path d="M137.168 20.6255L152.702 44.7857C147.986 47.2767 142.626 48.5893 137.168 48.5893V20.6255Z" fill="#FFA7A8"/>
                    <path d="M137.06 20.6252L163.715 6.54541C166.463 10.8197 167.911 15.6781 167.911 20.6252H137.06Z" fill="#FFA7A8"/>
                    <path d="M137.203 20.3539L107.371 13.2246C108.762 8.44121 111.528 4.07798 115.388 0.580078L137.203 20.3539Z" fill="white"/>
                    <path d="M137.318 20.5269L129.454 47.567C124.176 46.3058 119.362 43.7984 115.503 40.3001L137.318 20.5269Z" fill="white"/>
                    <path d="M137.241 20.457L167.074 27.585C165.683 32.3684 162.916 36.7317 159.057 40.2295L137.241 20.457Z" fill="white"/>
                    <path d="M137.165 20.5273L145.029 -6.5127C150.306 -5.25162 155.12 -2.74411 158.979 0.753983L137.165 20.5273Z" fill="white"/>
                    <path d="M137.06 49.4328C129.706 49.4324 122.581 47.121 116.897 42.8927C111.214 38.6644 107.323 32.7806 105.889 26.2439C104.454 19.7072 105.565 12.922 109.032 7.04428C112.498 1.16665 118.106 -3.43976 124.9 -5.99006C131.693 -8.54035 139.251 -8.8768 146.288 -6.94201C153.324 -5.0072 159.403 -0.920897 163.488 4.62068C167.573 10.1622 169.412 16.8162 168.691 23.4488C167.971 30.0814 164.735 36.2823 159.535 40.9951C156.591 43.6787 153.088 45.8063 149.23 47.2547C145.372 48.7027 141.235 49.4433 137.06 49.4328ZM137.06 -6.49449C131.142 -6.49449 125.357 -4.90392 120.436 -1.92394C115.516 1.05603 111.681 5.2916 109.416 10.2471C107.152 15.2026 106.559 20.6555 107.714 25.9163C108.868 31.177 111.718 36.0094 115.902 39.8021C120.087 43.595 125.418 46.1777 131.222 47.2244C137.026 48.2708 143.042 47.7337 148.51 45.681C153.977 43.6282 158.65 40.1523 161.938 35.6925C165.226 31.2326 166.981 25.9892 166.981 20.6255C166.971 13.4353 163.816 6.54197 158.207 1.45775C152.598 -3.62646 144.992 -6.48633 137.06 -6.49449Z" fill="#AC2C2E"/>
                    <path d="M137.3 16.2807C134.775 15.1502 129.15 10.4673 129.15 10.4673C129.15 10.4673 132.759 16.57 133.34 19.0665C133.922 21.5629 133.34 23.1096 133.34 23.1096L137.53 20.2558L141.622 17.2857C141.622 17.2857 139.826 17.4126 137.3 16.282" fill="#D03739"/>
                    <path d="M133.341 23.1095L140.813 24.2685L141.622 17.2842L133.341 23.1095Z" fill="#D03739"/>
                    <path d="M130.38 11.9873L140.519 23.9702L135.45 22.6693C135.526 21.9392 135.505 21.2035 135.386 20.478C135.127 18.8347 130.38 11.9873 130.38 11.9873Z" fill="#AC2C2E"/>
                </g>
            </g>
        </g>
        <path d="M15.2664 15.5821V16.7263H10.6252V15.5821H15.2664ZM11.0697 8.35454V16.7263H9.47607V8.35454H11.0697ZM20.2758 15.2601V10.505H21.8122V16.7263H20.3647L20.2758 15.2601ZM20.4917 13.9664L21.0059 13.9549C21.0059 14.3727 20.9551 14.758 20.8536 15.1106C20.752 15.4595 20.5954 15.7642 20.3837 16.0249C20.1721 16.2817 19.9012 16.4829 19.5711 16.6286C19.2409 16.7704 18.8451 16.8413 18.3838 16.8413C18.0494 16.8413 17.7425 16.7973 17.4632 16.7091C17.1838 16.6209 16.9425 16.4848 16.7394 16.3008C16.5404 16.1168 16.3859 15.8773 16.2759 15.5821C16.1659 15.2869 16.1108 14.9343 16.1108 14.5241V10.505H17.6409V14.5356C17.6409 14.7618 17.6706 14.9515 17.7298 15.1049C17.7891 15.2543 17.8695 15.3751 17.9711 15.4671C18.0727 15.5591 18.1912 15.6243 18.3266 15.6626C18.4621 15.7009 18.606 15.7201 18.7584 15.7201C19.1944 15.7201 19.5372 15.6434 19.7869 15.4901C20.0409 15.3329 20.2208 15.1221 20.3266 14.8576C20.4366 14.5931 20.4917 14.2961 20.4917 13.9664ZM26.1868 15.7374C26.4365 15.7374 26.6608 15.6933 26.8598 15.6051C27.0629 15.5131 27.2259 15.3866 27.3486 15.2256C27.4756 15.0646 27.5454 14.8787 27.5582 14.6679H28.9994C28.9909 15.0703 28.8597 15.4364 28.6057 15.7661C28.3518 16.0958 28.0153 16.3583 27.5962 16.5538C27.1772 16.7455 26.7137 16.8413 26.2058 16.8413C25.681 16.8413 25.2238 16.7608 24.8344 16.5998C24.445 16.435 24.1212 16.2088 23.863 15.9214C23.6048 15.6339 23.4101 15.3023 23.2789 14.9266C23.1519 14.551 23.0884 14.1485 23.0884 13.7192V13.5179C23.0884 13.0886 23.1519 12.6861 23.2789 12.3104C23.4101 11.9309 23.6048 11.5974 23.863 11.3099C24.1212 11.0225 24.445 10.7982 24.8344 10.6372C25.2238 10.4724 25.6788 10.39 26.1995 10.39C26.7497 10.39 27.2323 10.4896 27.647 10.689C28.0618 10.8845 28.3877 11.1585 28.6248 11.5112C28.8661 11.86 28.9909 12.2663 28.9994 12.7302H27.5582C27.5454 12.5002 27.482 12.2932 27.3677 12.1092C27.2577 11.9214 27.101 11.7718 26.8979 11.6607C26.6989 11.5495 26.4598 11.4939 26.1804 11.4939C25.8714 11.4939 25.6153 11.5515 25.4122 11.6665C25.209 11.7776 25.0503 11.9309 24.936 12.1264C24.8217 12.3181 24.7392 12.5347 24.6884 12.7762C24.6418 13.0138 24.6185 13.2611 24.6185 13.5179V13.7192C24.6185 13.976 24.6418 14.2251 24.6884 14.4666C24.735 14.7081 24.8153 14.9247 24.9296 15.1164C25.0481 15.3042 25.209 15.4556 25.4122 15.5706C25.6153 15.6818 25.8735 15.7374 26.1868 15.7374ZM31.7168 7.89453V16.7263H30.1803V7.89453H31.7168ZM35.9834 10.505L32.9929 13.5064L31.3549 15.0244L30.9549 13.8514L32.193 12.4657L34.1358 10.505H35.9834ZM34.4659 16.7263L32.2374 13.8054L33.2025 12.8337L36.2373 16.7263H34.4659ZM38.9483 16.0479L40.815 10.505H42.453L39.6975 17.675C39.634 17.8284 39.5515 17.9951 39.4499 18.1753C39.3484 18.3554 39.215 18.526 39.0499 18.687C38.8891 18.8519 38.688 18.9841 38.4468 19.0838C38.2055 19.1873 37.9134 19.239 37.5706 19.239C37.4352 19.239 37.3039 19.2275 37.177 19.2045C37.0542 19.1853 36.9378 19.1643 36.8278 19.1413L36.8214 18.0833C36.8637 18.0871 36.9145 18.0909 36.9738 18.0948C37.0373 18.0986 37.0881 18.1005 37.1262 18.1005C37.3801 18.1005 37.5918 18.0718 37.7611 18.0143C37.9304 17.9606 38.0679 17.8725 38.1738 17.7498C38.2838 17.6271 38.3769 17.4623 38.4531 17.2553L38.9483 16.0479ZM37.8944 10.505L39.5261 15.1624L39.7991 16.6228L38.7388 16.8701L36.2436 10.505H37.8944ZM50.4212 15.0416C50.4212 14.9036 50.3831 14.779 50.3069 14.6679C50.2308 14.5529 50.0845 14.4494 49.8685 14.3574C49.6572 14.2654 49.3438 14.1811 48.9291 14.1044C48.565 14.0316 48.2307 13.9453 47.926 13.8456C47.6256 13.7421 47.3674 13.6176 47.1514 13.4719C46.9355 13.3262 46.7683 13.1538 46.6499 12.9544C46.5315 12.7551 46.472 12.5251 46.472 12.2645C46.472 12.0114 46.5333 11.7718 46.6559 11.5457C46.779 11.3195 46.9545 11.1202 47.183 10.9477C47.4115 10.7752 47.6887 10.6392 48.0147 10.5395C48.3449 10.4398 48.7132 10.39 49.1195 10.39C49.6953 10.39 50.1885 10.4782 50.599 10.6545C51.0137 10.827 51.3309 11.0627 51.551 11.3617C51.7711 11.6569 51.8812 11.9904 51.8812 12.3622H50.351C50.351 12.1974 50.3046 12.044 50.2117 11.9022C50.1226 11.7565 49.9874 11.6396 49.8054 11.5515C49.6233 11.4595 49.3949 11.4134 49.1195 11.4134C48.8571 11.4134 48.6393 11.4518 48.4656 11.5285C48.2961 11.6013 48.1693 11.6971 48.0848 11.816C48.004 11.9348 47.9641 12.0651 47.9641 12.2069C47.9641 12.3104 47.985 12.4044 48.0277 12.4887C48.0742 12.5692 48.1503 12.6439 48.2562 12.7129C48.3621 12.7781 48.5056 12.8394 48.6876 12.8969C48.8738 12.9544 49.1069 13.01 49.386 13.0637C49.9113 13.1633 50.3617 13.2918 50.7383 13.4489C51.1196 13.6023 51.4117 13.8016 51.6146 14.0469C51.818 14.2884 51.9193 14.595 51.9193 14.9669C51.9193 15.2429 51.8538 15.4959 51.7228 15.7258C51.5956 15.952 51.4094 16.1494 51.1637 16.3181C50.9185 16.4829 50.6241 16.6113 50.2814 16.7033C49.9428 16.7953 49.562 16.8413 49.1385 16.8413C48.5163 16.8413 47.9892 16.7417 47.5578 16.5423C47.1259 16.3392 46.798 16.0804 46.5737 15.7661C46.3536 15.4479 46.2435 15.1183 46.2435 14.7771H47.7226C47.7398 15.034 47.8178 15.239 47.9576 15.3924C48.1016 15.5418 48.2794 15.6511 48.4912 15.7201C48.7066 15.7853 48.9291 15.8179 49.1576 15.8179C49.4329 15.8179 49.6633 15.7853 49.8495 15.7201C50.0357 15.6511 50.1778 15.5591 50.2749 15.4441C50.3724 15.3253 50.4212 15.1911 50.4212 15.0416ZM54.7957 11.7009V19.1182H53.2655V10.505H54.675L54.7957 11.7009ZM59.2715 13.5581V13.6789C59.2715 14.1312 59.2125 14.551 59.0941 14.9381C58.9794 15.3214 58.808 15.6569 58.5795 15.9444C58.3552 16.228 58.078 16.4484 57.7478 16.6056C57.4176 16.7627 57.0368 16.8413 56.6049 16.8413C56.1777 16.8413 55.803 16.7704 55.4811 16.6286C55.164 16.4829 54.8951 16.2778 54.675 16.0133C54.4548 15.7488 54.277 15.4383 54.1418 15.0819C54.0104 14.7215 53.9171 14.3267 53.8623 13.8974V13.4317C53.9171 12.9755 54.0104 12.5615 54.1418 12.1897C54.277 11.8179 54.4548 11.4978 54.675 11.2295C54.8951 10.9611 55.164 10.7541 55.4811 10.6085C55.7988 10.4628 56.1689 10.39 56.5924 10.39C57.0243 10.39 57.4069 10.4666 57.7413 10.62C58.0761 10.7695 58.3575 10.9841 58.586 11.264C58.8145 11.54 58.9859 11.8735 59.1001 12.2645C59.2143 12.6516 59.2715 13.0828 59.2715 13.5581ZM57.7413 13.6789V13.5581C57.7413 13.2706 57.7121 13.0043 57.6526 12.7589C57.5932 12.5098 57.5003 12.2913 57.3735 12.1035C57.2463 11.9156 57.0833 11.77 56.8845 11.6665C56.6899 11.5591 56.455 11.5055 56.1796 11.5055C55.9088 11.5055 55.6762 11.5476 55.4811 11.632C55.2866 11.7125 55.1236 11.8255 54.9926 11.9712C54.8612 12.1169 54.7595 12.2875 54.6875 12.4829C54.6155 12.6746 54.5649 12.8835 54.5352 13.1097V14.2251C54.5863 14.5011 54.6726 14.7541 54.7957 14.9841C54.9183 15.2141 55.092 15.3981 55.3163 15.5361C55.5448 15.6703 55.8368 15.7374 56.1926 15.7374C56.4675 15.7374 56.7025 15.6837 56.897 15.5764C57.0916 15.469 57.2504 15.3214 57.3735 15.1336C57.5003 14.942 57.5932 14.7215 57.6526 14.4724C57.7121 14.2232 57.7413 13.9587 57.7413 13.6789ZM62.211 10.505V16.7263H60.6748V10.505H62.211ZM60.5731 8.87204C60.5731 8.66121 60.6493 8.48677 60.8016 8.34878C60.9586 8.20697 61.1741 8.13606 61.4494 8.13606C61.7202 8.13606 61.9338 8.20697 62.0908 8.34878C62.2473 8.48677 62.3257 8.66121 62.3257 8.87204C62.3257 9.07904 62.2473 9.25151 62.0908 9.3895C61.9338 9.52753 61.7202 9.5965 61.4494 9.5965C61.1741 9.5965 60.9586 9.52753 60.8016 9.3895C60.6493 9.25151 60.5731 9.07904 60.5731 8.87204ZM65.4046 11.8332V16.7263H63.8749V10.505H65.3159L65.4046 11.8332ZM65.132 13.3857L64.6365 13.3799C64.6407 12.9391 64.7085 12.5347 64.8399 12.1667C64.9751 11.7987 65.1613 11.4825 65.3986 11.218C65.6396 10.9535 65.9275 10.7503 66.2619 10.6085C66.5962 10.4628 66.9687 10.39 67.3792 10.39C67.7094 10.39 68.008 10.4322 68.2745 10.5165C68.5453 10.597 68.7761 10.7292 68.9665 10.9132C69.1615 11.0972 69.3097 11.3368 69.4109 11.632C69.5126 11.9233 69.5637 12.2817 69.5637 12.7072V16.7263H68.027V12.7014C68.027 12.4024 67.9783 12.1667 67.8807 11.9942C67.7879 11.8179 67.6504 11.6933 67.4684 11.6204C67.2905 11.5438 67.0681 11.5055 66.8015 11.5055C66.5391 11.5055 66.3041 11.5553 66.097 11.655C65.8895 11.7546 65.7139 11.8907 65.5699 12.0632C65.4302 12.2357 65.3224 12.435 65.2463 12.6612C65.1701 12.8873 65.132 13.1288 65.132 13.3857Z" fill="white"/>
        <path d="M62.2392 29.0498C62.3474 29.0498 62.4384 29.0851 62.5123 29.1558C62.5903 29.2225 62.6293 29.305 62.6293 29.4031C62.6293 29.5012 62.588 29.5856 62.5058 29.6563C62.4277 29.723 62.3386 29.7563 62.2392 29.7563C62.1394 29.7563 62.0483 29.723 61.9661 29.6563C61.8881 29.5856 61.8491 29.5012 61.8491 29.4031C61.8491 29.305 61.8858 29.2225 61.9596 29.1558C62.0377 29.0851 62.1305 29.0498 62.2392 29.0498ZM62.2392 31.2048C62.3474 31.2048 62.4384 31.2401 62.5123 31.3107C62.5903 31.3775 62.6293 31.4599 62.6293 31.558C62.6293 31.6561 62.588 31.7406 62.5058 31.8112C62.4277 31.878 62.3386 31.9113 62.2392 31.9113C62.1394 31.9113 62.0483 31.878 61.9661 31.8112C61.8881 31.7406 61.8491 31.6561 61.8491 31.558C61.8491 31.4599 61.8858 31.3775 61.9596 31.3107C62.0377 31.2401 62.1305 31.2048 62.2392 31.2048Z" fill="white"/>
        <path d="M58.4288 25.1099H42.9283C41.8582 25.1099 40.9907 25.8961 40.9907 26.8661V33.8908C40.9907 34.8607 41.8582 35.647 42.9283 35.647H58.4288C59.4988 35.647 60.3663 34.8607 60.3663 33.8908V26.8661C60.3663 25.8961 59.4988 25.1099 58.4288 25.1099Z" fill="#AC2C2E"/>
        <path d="M58.4289 25.3296H42.9282C41.9919 25.3296 41.2329 26.0176 41.2329 26.8662V33.891C41.2329 34.7397 41.9919 35.4277 42.9282 35.4277H58.4289C59.3651 35.4277 60.1243 34.7397 60.1243 33.891V26.8662C60.1243 26.0176 59.3651 25.3296 58.4289 25.3296Z" fill="#AC2C2E" stroke="white" stroke-opacity="0.26"/>
        <path d="M82.6482 25.1099H67.1474C66.0774 25.1099 65.21 25.8961 65.21 26.8661V33.8908C65.21 34.8607 66.0774 35.647 67.1474 35.647H82.6482C83.7181 35.647 84.5856 34.8607 84.5856 33.8908V26.8661C84.5856 25.8961 83.7181 25.1099 82.6482 25.1099Z" fill="#AC2C2E"/>
        <path d="M82.6484 25.3296H67.1476C66.2114 25.3296 65.4521 26.0176 65.4521 26.8662V33.891C65.4521 34.7397 66.2114 35.4277 67.1476 35.4277H82.6484C83.5846 35.4277 84.3434 34.7397 84.3434 33.891V26.8662C84.3434 26.0176 83.5846 25.3296 82.6484 25.3296Z" fill="#AC2C2E" stroke="white" stroke-opacity="0.26"/>
        <path d="M46.1596 32.3149H45.6915V28.6762L44.8658 29.3357L44.5732 29.0177L45.7435 28.1463H46.1596V32.3149ZM49.317 28.4643C49.0657 28.4643 48.8665 28.5251 48.7188 28.6468C48.5758 28.7685 48.4676 28.9196 48.3938 29.1002C48.3204 29.2807 48.2726 29.473 48.2507 29.6772C48.2335 29.8813 48.2247 30.0658 48.2247 30.2306C48.2247 30.3955 48.2335 30.58 48.2507 30.7841C48.2726 30.9882 48.3204 31.1805 48.3938 31.3611C48.4676 31.5417 48.5758 31.6928 48.7188 31.8145C48.8665 31.9361 49.0657 31.997 49.317 31.997C49.5687 31.997 49.7656 31.9361 49.9086 31.8145C50.0563 31.6928 50.1668 31.5417 50.2402 31.3611C50.314 31.1805 50.3595 30.9882 50.3767 30.7841C50.3985 30.58 50.4092 30.3955 50.4092 30.2306C50.4092 30.0658 50.3985 29.8813 50.3767 29.6772C50.3595 29.473 50.314 29.2807 50.2402 29.1002C50.1668 28.9196 50.0563 28.7685 49.9086 28.6468C49.7656 28.5251 49.5687 28.4643 49.317 28.4643ZM49.317 28.0757C49.6467 28.0757 49.9132 28.1444 50.1166 28.2818C50.3205 28.4191 50.4789 28.5938 50.5912 28.8058C50.7041 29.0177 50.7798 29.2513 50.8188 29.5064C50.8578 29.7576 50.8773 29.999 50.8773 30.2306C50.8773 30.4622 50.8578 30.7056 50.8188 30.9607C50.7798 31.2119 50.7041 31.4435 50.5912 31.6555C50.4789 31.8675 50.3205 32.0421 50.1166 32.1795C49.9132 32.3169 49.6467 32.3856 49.317 32.3856C48.9877 32.3856 48.7211 32.3169 48.5173 32.1795C48.3139 32.0421 48.1555 31.8675 48.0427 31.6555C47.9303 31.4435 47.8541 31.2119 47.8151 30.9607C47.7761 30.7056 47.7566 30.4622 47.7566 30.2306C47.7566 29.999 47.7761 29.7576 47.8151 29.5064C47.8541 29.2513 47.9303 29.0177 48.0427 28.8058C48.1555 28.5938 48.3139 28.4191 48.5173 28.2818C48.7211 28.1444 48.9877 28.0757 49.317 28.0757Z" fill="white"/>
        <path d="M69.8949 32.3151H69.4268V28.6764L68.6012 29.3358L68.3086 29.0179L69.4789 28.1465H69.8949V32.3151ZM74.2681 28.5351H72.3827L72.3567 29.7892C72.4565 29.7539 72.5582 29.7283 72.6622 29.7127C72.7662 29.6969 72.8703 29.6891 72.9743 29.6891C73.1912 29.6891 73.3881 29.7225 73.5659 29.7892C73.7438 29.8559 73.8952 29.9501 74.021 30.0718C74.1511 30.1896 74.2509 30.3309 74.3201 30.4957C74.3939 30.6566 74.4306 30.8333 74.4306 31.0256C74.4306 31.2258 74.3916 31.4103 74.3136 31.5791C74.2356 31.744 74.1274 31.8872 73.9885 32.0089C73.8497 32.1267 73.6853 32.2189 73.4944 32.2856C73.3082 32.3523 73.1043 32.3857 72.8833 32.3857C72.593 32.3857 72.3307 32.3229 72.0966 32.1973C71.8626 32.0717 71.6828 31.8872 71.557 31.6439L72.0186 31.4613C72.1054 31.6262 72.2266 31.7577 72.3827 31.8558C72.5387 31.95 72.7184 31.9971 72.9223 31.9971C73.0695 31.9971 73.206 31.9736 73.3319 31.9265C73.4577 31.8754 73.5659 31.8087 73.6569 31.7263C73.7521 31.6439 73.826 31.5457 73.878 31.4319C73.9342 31.3181 73.9625 31.1964 73.9625 31.0669C73.9625 30.9216 73.9342 30.7882 73.878 30.6665C73.8218 30.5448 73.7438 30.4408 73.6439 30.3544C73.5441 30.2641 73.4252 30.1955 73.2864 30.1484C73.1475 30.1013 72.9961 30.0777 72.8313 30.0777C72.6664 30.0777 72.502 30.0993 72.3372 30.1425C72.1769 30.1817 72.0228 30.2367 71.8756 30.3073L71.9211 28.1465H74.2681V28.5351Z" fill="white"/>
        <path d="M55.0021 29.1945C55.2799 29.1945 55.5223 29.2436 55.7303 29.3417C55.943 29.4359 56.1074 29.5811 56.2244 29.7774C56.3461 29.9736 56.4065 30.2209 56.4065 30.5193V32.3151H55.9449V30.5605C55.9449 30.2347 55.8538 29.9894 55.6718 29.8245C55.4944 29.6557 55.2427 29.5713 54.9176 29.5713C54.6752 29.5713 54.4625 29.6165 54.2805 29.7068C54.1031 29.7931 53.9642 29.9207 53.8644 30.0895C53.7692 30.2543 53.7214 30.4545 53.7214 30.69V32.3151H53.2598V27.9463H53.7214V30.0718L53.6303 29.9128C53.739 29.6891 53.9122 29.5144 54.1505 29.3888C54.3892 29.2593 54.6729 29.1945 55.0021 29.1945Z" fill="white"/>
        <path d="M80.2913 29.1943C80.5685 29.1943 80.8091 29.2434 81.013 29.3415C81.221 29.4357 81.3812 29.581 81.4941 29.7772C81.6111 29.9735 81.6696 30.2208 81.6696 30.5191V32.3149H81.208V30.5603C81.208 30.2345 81.1212 29.9892 80.9479 29.8243C80.7789 29.6555 80.5384 29.5712 80.2263 29.5712C79.9922 29.5712 79.7884 29.6163 79.6152 29.7066C79.4461 29.7929 79.3138 29.9205 79.2186 30.0893C79.1275 30.2541 79.082 30.4543 79.082 30.6898V32.3149H78.6204V30.5603C78.6204 30.2345 78.5336 29.9892 78.3604 29.8243C78.1867 29.6555 77.9443 29.5712 77.6322 29.5712C77.4023 29.5712 77.2008 29.6163 77.0276 29.7066C76.8539 29.7929 76.7197 29.9205 76.6245 30.0893C76.5335 30.2541 76.488 30.4543 76.488 30.6898V32.3149H76.0264V29.2238H76.4685V30.0598L76.3969 29.9127C76.501 29.6889 76.6677 29.5142 76.8976 29.3886C77.1316 29.2591 77.4065 29.1943 77.7232 29.1943C78.0567 29.1943 78.3409 29.2709 78.5749 29.424C78.809 29.5731 78.9604 29.7988 79.03 30.1011L78.848 30.0363C78.9474 29.7851 79.1229 29.5829 79.3746 29.4298C79.63 29.2728 79.9356 29.1943 80.2913 29.1943Z" fill="white"/>
        <path d="M12.0092 31.4429V31.8943H9.56166V31.4429H12.0092ZM9.68547 27.7084V31.8943H9.07275V27.7084H9.68547ZM11.6854 29.5081V29.9595H9.56166V29.5081H11.6854ZM11.9775 27.7084V28.1626H9.56166V27.7084H11.9775ZM13.0758 28.7836L13.8282 29.9163L14.5901 28.7836H15.279L14.1552 30.3188L15.3139 31.8943H14.6345L13.8409 30.7271L13.0473 31.8943H12.3647L13.5203 30.3188L12.3997 28.7836H13.0758ZM16.4916 29.3816V33.0902H15.9012V28.7836H16.4408L16.4916 29.3816ZM18.8059 30.3131V30.3735C18.8059 30.5996 18.7762 30.8095 18.717 31.003C18.6577 31.1947 18.571 31.3614 18.4567 31.5033C18.3445 31.6451 18.2059 31.7553 18.0408 31.8339C17.8757 31.9125 17.6863 31.9518 17.4725 31.9518C17.2546 31.9518 17.062 31.9192 16.8948 31.854C16.7276 31.7889 16.5858 31.694 16.4694 31.5694C16.353 31.4448 16.2599 31.2953 16.19 31.1209C16.1223 30.9465 16.0758 30.7501 16.0504 30.5315V30.2096C16.0758 29.9796 16.1234 29.7735 16.1932 29.5915C16.2631 29.4094 16.3551 29.2541 16.4694 29.1257C16.5858 28.9954 16.7266 28.8967 16.8916 28.8296C17.0567 28.7606 17.2472 28.7261 17.463 28.7261C17.6789 28.7261 17.8704 28.7644 18.0376 28.8411C18.2048 28.9158 18.3456 29.0232 18.4598 29.1631C18.5741 29.303 18.6598 29.4707 18.717 29.6662C18.7762 29.8598 18.8059 30.0754 18.8059 30.3131ZM18.2154 30.3735V30.3131C18.2154 30.1578 18.1974 30.0122 18.1614 29.8761C18.1254 29.7381 18.0694 29.6173 17.9932 29.5138C17.9191 29.4084 17.8239 29.326 17.7075 29.2666C17.5911 29.2053 17.4524 29.1746 17.2916 29.1746C17.1435 29.1746 17.0144 29.1976 16.9043 29.2436C16.7964 29.2896 16.7043 29.3519 16.6282 29.4305C16.5519 29.5071 16.4895 29.5953 16.4408 29.695C16.3943 29.7927 16.3594 29.8943 16.3361 29.9997V30.7443C16.3784 30.8785 16.4377 31.005 16.5139 31.1238C16.59 31.2407 16.6916 31.3356 16.8186 31.4084C16.9456 31.4793 17.1054 31.5148 17.2979 31.5148C17.4567 31.5148 17.5932 31.4851 17.7075 31.4257C17.8239 31.3643 17.9191 31.2809 17.9932 31.1756C18.0694 31.0701 18.1254 30.9494 18.1614 30.8133C18.1974 30.6753 18.2154 30.5287 18.2154 30.3735ZM20.1931 28.7836V31.8943H19.6026V28.7836H20.1931ZM19.5582 27.9585C19.5582 27.8723 19.5868 27.7994 19.6439 27.74C19.7032 27.6806 19.79 27.6509 19.9042 27.6509C20.0164 27.6509 20.1021 27.6806 20.1614 27.74C20.2227 27.7994 20.2534 27.8723 20.2534 27.9585C20.2534 28.0409 20.2227 28.1118 20.1614 28.1712C20.1021 28.2287 20.0164 28.2575 19.9042 28.2575C19.79 28.2575 19.7032 28.2287 19.6439 28.1712C19.5868 28.1118 19.5582 28.0409 19.5582 27.9585ZM21.7232 29.2724V31.8943H21.136V28.7836H21.7074L21.7232 29.2724ZM22.7962 28.7664L22.793 29.2608C22.7444 29.2513 22.6978 29.2455 22.6534 29.2436C22.611 29.2398 22.5624 29.2379 22.5073 29.2379C22.3719 29.2379 22.2523 29.257 22.1487 29.2954C22.0449 29.3337 21.9571 29.3873 21.8852 29.4563C21.8132 29.5253 21.7561 29.6077 21.7137 29.7036C21.6735 29.7975 21.6471 29.901 21.6343 30.0141L21.4693 30.1003C21.4693 29.9125 21.4894 29.7362 21.5296 29.5713C21.5719 29.4065 21.6365 29.2608 21.7232 29.1344C21.81 29.0059 21.9201 28.9063 22.0534 28.8353C22.1888 28.7625 22.3497 28.7261 22.5359 28.7261C22.5783 28.7261 22.6269 28.7309 22.682 28.7405C22.737 28.7482 22.7751 28.7568 22.7962 28.7664ZM24.7009 31.9518C24.4618 31.9518 24.2449 31.9154 24.0502 31.8425C23.8576 31.7678 23.6914 31.6633 23.5518 31.5292C23.4142 31.395 23.3084 31.2359 23.2343 31.0519C23.1602 30.8679 23.1232 30.6667 23.1232 30.4482V30.3275C23.1232 30.0744 23.1645 29.8492 23.247 29.6518C23.3295 29.4525 23.4417 29.2838 23.5835 29.1458C23.7253 29.0079 23.8862 28.9034 24.0661 28.8325C24.2459 28.7616 24.4322 28.7261 24.6248 28.7261C24.8702 28.7261 25.0819 28.7644 25.2597 28.8411C25.4395 28.9178 25.5867 29.0251 25.7009 29.1631C25.8152 29.2992 25.8999 29.4602 25.9549 29.6461C26.0099 29.8301 26.0374 30.0313 26.0374 30.2498V30.4884H23.4724V30.0543H25.4501V30.0141C25.4417 29.8761 25.4099 29.7419 25.3549 29.6116C25.302 29.4812 25.2173 29.3739 25.1009 29.2896C24.9845 29.2053 24.8258 29.1631 24.6248 29.1631C24.4914 29.1631 24.3687 29.189 24.2565 29.2407C24.1444 29.2906 24.048 29.3653 23.9676 29.465C23.8872 29.5646 23.8248 29.6863 23.7803 29.8301C23.7359 29.9738 23.7137 30.1396 23.7137 30.3275V30.4482C23.7137 30.5958 23.7359 30.7347 23.7803 30.8651C23.8269 30.9935 23.8935 31.1065 23.9803 31.2043C24.0692 31.3021 24.1761 31.3787 24.3009 31.4343C24.428 31.4899 24.5719 31.5177 24.7327 31.5177C24.9401 31.5177 25.1158 31.4793 25.2597 31.4027C25.4036 31.326 25.5295 31.2235 25.6374 31.0951L25.993 31.3509C25.9189 31.4525 25.8247 31.5493 25.7105 31.6413C25.5962 31.7333 25.4554 31.808 25.2882 31.8655C25.1231 31.923 24.9274 31.9518 24.7009 31.9518ZM28.7231 31.0692C28.7231 30.9925 28.704 30.9216 28.6659 30.8564C28.63 30.7894 28.5548 30.729 28.4405 30.6753C28.3283 30.6197 28.1591 30.5718 27.9326 30.5315C27.7422 30.4951 27.5697 30.452 27.4152 30.4022C27.2628 30.3524 27.1326 30.292 27.0247 30.2211C26.9189 30.1501 26.8374 30.0668 26.7803 29.9709C26.7231 29.8751 26.6945 29.763 26.6945 29.6346C26.6945 29.5119 26.7242 29.396 26.7834 29.2867C26.8448 29.1775 26.9305 29.0807 27.0406 28.9963C27.1528 28.912 27.2871 28.8459 27.4437 28.798C27.6003 28.7501 27.7749 28.7261 27.9675 28.7261C28.2427 28.7261 28.4776 28.7702 28.6723 28.8583C28.867 28.9465 29.0162 29.0644 29.1199 29.212C29.2236 29.3576 29.2754 29.5196 29.2754 29.6978H28.6882C28.6882 29.6116 28.6596 29.5282 28.6024 29.4477C28.5474 29.3653 28.4659 29.2972 28.358 29.2436C28.2522 29.1899 28.122 29.1631 27.9675 29.1631C27.8046 29.1631 27.6723 29.1861 27.5707 29.2321C27.4712 29.2762 27.3982 29.3327 27.3517 29.4017C27.3073 29.4707 27.285 29.5435 27.285 29.6202C27.285 29.6777 27.2956 29.7295 27.3168 29.7755C27.34 29.8195 27.3803 29.8608 27.4374 29.8991C27.4945 29.9355 27.5749 29.97 27.6787 30.0026C27.7824 30.0352 27.9146 30.0678 28.0754 30.1003C28.357 30.1578 28.5887 30.2268 28.7707 30.3073C28.9527 30.3878 29.0881 30.4865 29.177 30.6034C29.2659 30.7203 29.3103 30.8622 29.3103 31.0289C29.3103 31.165 29.2786 31.2896 29.2151 31.4027C29.1538 31.5157 29.0638 31.6135 28.9453 31.6959C28.8289 31.7764 28.6892 31.8397 28.5263 31.8857C28.3654 31.9297 28.1844 31.9518 27.9834 31.9518C27.6808 31.9518 27.4247 31.9029 27.2152 31.8051C27.0056 31.7074 26.8469 31.5809 26.739 31.4257C26.6311 31.2704 26.5771 31.1065 26.5771 30.9341H27.1676C27.176 31.0797 27.2226 31.1957 27.3073 31.2819C27.3919 31.3662 27.4956 31.4266 27.6183 31.4631C27.7411 31.4975 27.8628 31.5148 27.9834 31.5148C28.1443 31.5148 28.2786 31.4956 28.3866 31.4573C28.4966 31.419 28.5802 31.3662 28.6374 31.2992C28.6945 31.2321 28.7231 31.1554 28.7231 31.0692ZM32.3325 28.7836V31.8943H31.7421V28.7836H32.3325ZM31.6976 27.9585C31.6976 27.8723 31.7262 27.7994 31.7833 27.74C31.8426 27.6806 31.9293 27.6509 32.0436 27.6509C32.1558 27.6509 32.2415 27.6806 32.3008 27.74C32.3621 27.7994 32.3928 27.8723 32.3928 27.9585C32.3928 28.0409 32.3621 28.1118 32.3008 28.1712C32.2415 28.2287 32.1558 28.2575 32.0436 28.2575C31.9293 28.2575 31.8426 28.2287 31.7833 28.1712C31.7262 28.1118 31.6976 28.0409 31.6976 27.9585ZM33.8626 29.4477V31.8943H33.2753V28.7836H33.8309L33.8626 29.4477ZM33.7229 30.2211L33.4785 30.2124C33.4806 29.9997 33.5156 29.8033 33.5833 29.6231C33.651 29.441 33.7462 29.2829 33.869 29.1487C33.9917 29.0145 34.1377 28.911 34.3071 28.8382C34.4785 28.7635 34.6679 28.7261 34.8753 28.7261C35.0446 28.7261 35.197 28.7472 35.3324 28.7893C35.4679 28.8296 35.5832 28.8948 35.6784 28.9849C35.7758 29.0749 35.8499 29.1919 35.9006 29.3356C35.9515 29.4774 35.9769 29.6509 35.9769 29.856V31.8943H35.3864V29.8502C35.3864 29.6873 35.3599 29.5569 35.307 29.4592C35.2541 29.3595 35.1769 29.2877 35.0753 29.2436C34.9737 29.1976 34.8489 29.1746 34.7007 29.1746C34.5547 29.1746 34.4213 29.2024 34.3007 29.258C34.1822 29.3136 34.0796 29.3902 33.9928 29.488C33.9081 29.5857 33.8415 29.6978 33.7928 29.8243C33.7462 29.9489 33.7229 30.0812 33.7229 30.2211Z" fill="white"/>
    </g>
    <defs>
        <linearGradient id="paint0_linear_1127_4727" x1="2.04555" y1="18.5024" x2="152.4" y2="-3.39478" gradientUnits="userSpaceOnUse">
            <stop stop-color="#D1383A"/>
            <stop offset="1" stop-color="#F35B5D"/>
        </linearGradient>
    </defs>
</svg>
