<svg xmlns="http://www.w3.org/2000/svg" width="139" height="40" viewBox="0 0 139 40" fill="none">
    <path d="M64.9453 30.7013V18.4791C64.9491 15.1708 66.1891 11.9991 68.3933 9.6597C70.5975 7.32031 73.586 6.00419 76.7033 6C76.782 6 77.1758 6.00707 77.3503 6.00707" stroke="#165C7D" stroke-width="10.18" stroke-miterlimit="10"/>
    <path d="M80.87 9.74219V21.9644C80.8658 25.2725 79.6257 28.4438 77.4215 30.7829C75.2173 33.122 72.229 34.438 69.112 34.4421C69.0333 34.4421 68.6395 34.4351 68.465 34.4351" stroke="#5CB8B2" stroke-width="10.18" stroke-miterlimit="10"/>
    <path d="M12.3074 16.167V27.5297" stroke="#2D333A" stroke-width="2"/>
    <path d="M36.0773 16.167V22.1577C36.0773 23.8685 35.7511 25.0752 35.0895 25.7774C34.4278 26.4796 33.4025 26.8359 32.0139 26.8359C30.6253 26.8359 29.6095 26.4799 28.9476 25.7774C28.2856 25.0749 27.9505 23.8672 27.9505 22.1577V16.167" stroke="#2D333A" stroke-width="2"/>
    <path d="M45.7723 17.2482C44.4644 16.8262 43.0794 16.7481 41.7368 17.0205C40.5998 17.3051 39.8357 18.1016 39.8357 19.249C39.8265 20.3964 40.5814 21.2023 42.0909 21.6482L43.6896 22.109C43.6896 22.109 44.1688 22.274 44.2345 22.3036C45.2718 22.7751 45.7894 23.4914 45.7815 24.4429C45.7815 25.5899 45.0173 26.3868 43.8803 26.671C42.5377 26.9438 41.1527 26.8656 39.8449 26.4433" stroke="#2D333A" stroke-width="2"/>
    <path d="M24.1922 16.168V18.0802C24.1922 19.7914 23.866 20.9981 23.2044 21.7003C22.5428 22.4025 21.5175 22.7588 20.1288 22.7588C18.7402 22.7588 17.7244 22.4025 17.0625 21.7003C16.4005 20.9981 16.0654 19.7914 16.0654 18.0802V16.168" stroke="#2D333A" stroke-width="2"/>
    <path d="M24.1854 16.167V22.3638C24.1854 23.8561 23.7412 24.8671 22.8393 25.6451C21.9375 26.423 20.7478 26.8187 19.2935 26.8187C18.1967 26.7994 17.1097 26.5969 16.0723 26.2189" stroke="#2D333A" stroke-width="2"/>
    <path d="M2.61236 17.2482C3.92024 16.8262 5.30518 16.7481 6.64784 17.0205C7.78484 17.3051 8.54897 18.1016 8.54897 19.249V24.0259C8.54897 24.9656 8.34365 25.6677 7.94318 26.1325C7.53288 26.5973 6.81539 26.8347 5.7901 26.8347H4.15903C2.07163 26.8347 1 26.0436 1 24.0455C1 22.0473 2.07163 21.266 4.15903 21.266H8.54897" stroke="#2D333A" stroke-width="2"/>
    <path d="M49.5401 27.518V21.3212C49.5401 19.8289 49.9844 18.8179 50.8865 18.0399C51.7887 17.2619 52.9781 16.8662 54.4324 16.8662" stroke="#2D333A" stroke-width="2"/>
    <path d="M124.562 26.4336C123.123 27.0272 121.527 27.0272 120.088 26.4336" stroke="#2D333A" stroke-width="2"/>
    <path d="M137.766 12.9141V24.2768" stroke="#2D333A" stroke-width="2"/>
    <path d="M134.512 12.9141V18.9047C134.512 20.6156 134.186 21.8223 133.524 22.5245C132.863 23.2267 131.838 23.583 130.449 23.583C129.06 23.583 128.044 23.227 127.383 22.5245C126.721 21.822 126.386 20.6156 126.386 18.9047V16.9922" stroke="#2D333A" stroke-width="2"/>
    <path d="M104.345 17.5129V18.9044C104.345 20.6156 104.019 21.8223 103.357 22.5245C102.696 23.2267 101.67 23.583 100.282 23.583C98.893 23.583 97.8773 23.2267 97.2153 22.5245C96.5534 21.8223 96.2183 20.6156 96.2183 18.9044V16.9922" stroke="#2D333A" stroke-width="2"/>
    <path d="M111.302 17.5137V18.9053C111.302 20.6164 111.023 21.8231 110.457 22.5253C109.89 23.2275 109.013 23.5838 107.823 23.5838C106.633 23.5838 105.765 23.2275 105.198 22.5253C104.631 21.8231 104.345 20.6164 104.345 18.9053V17.5137" stroke="#2D333A" stroke-width="2"/>
    <path d="M118.259 17.5137V18.9053C118.259 20.6164 117.98 21.8231 117.413 22.5253C116.847 23.2275 115.969 23.5838 114.78 23.5838C113.59 23.5838 112.721 23.2275 112.155 22.5253C111.588 21.8231 111.301 20.6164 111.301 18.9053V17.5137" stroke="#2D333A" stroke-width="2"/>
    <path d="M126.386 16.9922V18.9044C126.386 20.6156 126.06 21.8223 125.398 22.5245C124.737 23.2267 123.711 23.583 122.323 23.583C120.934 23.583 119.918 23.2267 119.256 22.5245C118.594 21.8223 118.259 20.6156 118.259 18.9044V17.5129" stroke="#2D333A" stroke-width="2"/>
    <path d="M96.2182 16.209V22.4058C96.2182 23.8981 95.7739 24.9091 94.8721 25.687C93.9702 26.465 92.7806 26.8607 91.3262 26.8607" stroke="#2D333A" stroke-width="2"/>
</svg>