<svg id="General_Cards_Dumbbell" data-name="General/Cards/Dumbbell" xmlns="http://www.w3.org/2000/svg" width="85" height="121" viewBox="0 0 85 121">
  <g id="Dumbbell_Card" data-name="Dumbbell Card">
    <path id="Background" d="M10,0H75A10,10,0,0,1,85,10V111a10,10,0,0,1-10,10H10A10,10,0,0,1,0,111V10A10,10,0,0,1,10,0Z" fill="#5041ab"/>
    <g id="Icons_Dumbbell" data-name="Icons/Dumbbell" transform="translate(10 10)">
      <g id="Group_5" data-name="Group 5" transform="translate(3 5)">
        <rect id="Rectangle" width="6.75" height="2.25" transform="translate(5.625 5.625)" fill="#fff" opacity="0.5"/>
        <path id="Combined_Shape" data-name="Combined Shape" d="M14.625,13.5A1.125,1.125,0,0,1,13.5,12.375V1.125A1.125,1.125,0,0,1,14.625,0H15.75a1.125,1.125,0,0,1,1.125,1.125v4.5H18v2.25H16.875v4.5A1.125,1.125,0,0,1,15.75,13.5ZM2.25,13.5a1.125,1.125,0,0,1-1.125-1.125v-4.5H0V5.625H1.125v-4.5A1.125,1.125,0,0,1,2.25,0H3.375A1.125,1.125,0,0,1,4.5,1.125v11.25A1.125,1.125,0,0,1,3.375,13.5Z" fill="#fff"/>
      </g>
    </g>
    <text id="_1213_Kcal" data-name="+1213 Kcal" transform="translate(14 84)" fill="#fff" font-size="16" font-family="Helvetica" letter-spacing="0.028em"><tspan x="0" y="0">+1213</tspan><tspan font-size="12"><tspan x="0" y="16">Kcal</tspan></tspan></text>
  </g>
</svg>
