<svg width="193" height="50" viewBox="0 0 193 50" fill="none" xmlns="http://www.w3.org/2000/svg">
    <path d="M90.0674 39.5756V22.5771C90.0728 17.9758 91.7973 13.5647 94.8629 10.3111C97.9285 7.05746 102.085 5.22702 106.42 5.22119C106.53 5.22119 107.077 5.23103 107.32 5.23103" stroke="#165C7D" stroke-width="10.18" stroke-miterlimit="10"/>
    <path d="M112.215 10.4263V27.4248C112.209 32.0257 110.485 36.4363 107.419 39.6895C104.354 42.9427 100.197 44.7729 95.8623 44.7788C95.7528 44.7788 95.2051 44.7689 94.9624 44.7689" stroke="#5CB8B2" stroke-width="10.18" stroke-miterlimit="10"/>
    <path d="M16.8591 19.3613V35.1645" stroke="#2D333A" stroke-width="2"/>
    <path d="M49.9182 19.3623V27.6941C49.9182 30.0735 49.4645 31.7518 48.5443 32.7284C47.6241 33.705 46.1981 34.2006 44.2668 34.2006C42.3355 34.2006 40.9228 33.7055 40.0022 32.7284C39.0815 31.7513 38.6155 30.0717 38.6155 27.6941V19.3623" stroke="#2D333A" stroke-width="2"/>
    <path d="M63.4017 20.8647C61.5827 20.2778 59.6566 20.1692 57.7892 20.5481C56.2079 20.9438 55.1451 22.0516 55.1451 23.6474C55.1323 25.2432 56.1823 26.3641 58.2817 26.9843L60.5052 27.625C60.5052 27.625 61.1716 27.8545 61.263 27.8958C62.7057 28.5515 63.4256 29.5478 63.4145 30.871C63.4145 32.4663 62.3518 33.5746 60.7705 33.9699C58.9031 34.3493 56.9769 34.2406 55.1579 33.6533" stroke="#2D333A" stroke-width="2"/>
    <path d="M33.3884 19.3628V22.0223C33.3884 24.4022 32.9347 26.0805 32.0145 27.0571C31.0943 28.0337 29.6684 28.5293 27.737 28.5293C25.8057 28.5293 24.393 28.0337 23.4724 27.0571C22.5517 26.0805 22.0857 24.4022 22.0857 22.0223V19.3628" stroke="#2D333A" stroke-width="2"/>
    <path d="M33.3789 19.3613V27.9798C33.3789 30.0552 32.7611 31.4614 31.5068 32.5433C30.2525 33.6253 28.5979 34.1757 26.5753 34.1757C25.0499 34.1487 23.5381 33.8672 22.0952 33.3415" stroke="#2D333A" stroke-width="2"/>
    <path d="M3.37527 20.8647C5.19426 20.2778 7.12042 20.1691 8.98778 20.5481C10.5691 20.9439 11.6319 22.0516 11.6319 23.6474V30.2911C11.6319 31.598 11.3463 32.5746 10.7893 33.2209C10.2187 33.8673 9.22081 34.1975 7.79484 34.1975H5.52636C2.62323 34.1975 1.13281 33.0973 1.13281 30.3183C1.13281 27.5393 2.62323 26.4526 5.52636 26.4526H11.6319" stroke="#2D333A" stroke-width="2"/>
    <path d="M68.6421 35.1488V26.5304C68.6421 24.4549 69.26 23.0488 70.5147 21.9668C71.7694 20.8848 73.4236 20.3345 75.4462 20.3345" stroke="#2D333A" stroke-width="2"/>
    <path d="M172.982 33.6401C170.981 34.4657 168.76 34.4657 166.759 33.6401" stroke="#2D333A" stroke-width="2"/>
    <path d="M191.346 14.8374V30.6405" stroke="#2D333A" stroke-width="2"/>
    <path d="M186.821 14.8379V23.1697C186.821 25.5491 186.367 27.2274 185.447 28.204C184.527 29.1806 183.101 29.6761 181.169 29.6761C179.238 29.6761 177.825 29.1811 176.905 28.204C175.984 27.2269 175.519 25.5491 175.519 23.1697V20.5097" stroke="#2D333A" stroke-width="2"/>
    <path d="M144.864 21.2334V23.1688C144.864 25.5487 144.411 27.227 143.49 28.2036C142.57 29.1802 141.144 29.6757 139.213 29.6757C137.282 29.6757 135.869 29.1802 134.948 28.2036C134.028 27.227 133.562 25.5487 133.562 23.1688V20.5093" stroke="#2D333A" stroke-width="2"/>
    <path d="M154.541 21.2339V23.1693C154.541 25.5492 154.152 27.2275 153.364 28.2041C152.577 29.1807 151.356 29.6762 149.701 29.6762C148.047 29.6762 146.839 29.1807 146.051 28.2041C145.262 27.2275 144.864 25.5492 144.864 23.1693V21.2339" stroke="#2D333A" stroke-width="2"/>
    <path d="M164.216 21.2339V23.1693C164.216 25.5492 163.827 27.2275 163.04 28.2041C162.252 29.1807 161.031 29.6762 159.377 29.6762C157.722 29.6762 156.514 29.1807 155.726 28.2041C154.938 27.2275 154.539 25.5492 154.539 23.1693V21.2339" stroke="#2D333A" stroke-width="2"/>
    <path d="M175.519 20.5093V23.1688C175.519 25.5487 175.065 27.227 174.145 28.2036C173.225 29.1802 171.799 29.6757 169.868 29.6757C167.936 29.6757 166.524 29.1802 165.603 28.2036C164.682 27.227 164.216 25.5487 164.216 23.1688V21.2334" stroke="#2D333A" stroke-width="2"/>
    <path d="M133.562 19.4204V28.0389C133.562 30.1143 132.944 31.5204 131.689 32.6024C130.435 33.6844 128.78 34.2348 126.758 34.2348" stroke="#2D333A" stroke-width="2"/>
</svg>
