<svg xmlns="http://www.w3.org/2000/svg" width="168" height="41" viewBox="0 0 168 41" fill="none">
    <path d="M156.034 35.6849L155.635 36.061C155.465 36.1962 155.282 36.3152 155.089 36.4167C154.878 36.5196 154.66 36.6103 154.438 36.6881C154.192 36.7541 153.938 36.7883 153.682 36.7897C153.476 36.7843 153.27 36.7564 153.07 36.7064C152.884 36.6546 152.712 36.5618 152.566 36.435C152.425 36.3129 152.311 36.1635 152.23 35.9959C152.142 35.7912 152.099 35.5701 152.104 35.3475C152.091 35.1232 152.136 34.8995 152.236 34.6979C152.335 34.4963 152.485 34.3238 152.671 34.197C153.118 33.9034 153.649 33.7638 154.183 33.7995C154.519 33.7995 154.834 33.8412 155.17 33.8625C155.46 33.902 155.747 33.9576 156.031 34.0292L156.034 35.6849ZM158.68 37.9209C158.68 37.7116 158.658 37.5022 158.658 37.2511C158.658 36.7491 158.638 36.1423 158.638 35.4308V31.4355C158.64 30.926 158.54 30.4212 158.344 29.9506C158.147 29.4968 157.845 29.0957 157.463 28.7797C157.027 28.4244 156.528 28.1547 155.992 27.985C155.332 27.7802 154.643 27.6814 153.952 27.6922C153.317 27.7 152.685 27.7629 152.062 27.8803C151.471 28.0044 150.894 28.1866 150.34 28.424C149.857 28.6334 149.794 28.8214 149.794 28.8214L150.256 30.7251C150.294 30.6329 150.351 30.5498 150.423 30.4813C150.496 30.4128 150.582 30.3604 150.676 30.3277C151.128 30.1623 151.591 30.0295 152.062 29.9303C152.585 29.8114 153.121 29.755 153.658 29.7625C154.029 29.7572 154.398 29.814 154.75 29.9303C155.024 30.021 155.275 30.1709 155.484 30.3693C155.667 30.5426 155.804 30.7579 155.883 30.9964C155.967 31.2242 156.01 31.4652 156.009 31.7079V32.1469C155.67 32.0569 155.327 31.987 154.98 31.9376C154.555 31.887 154.127 31.8592 153.699 31.8543C153.108 31.8495 152.521 31.9341 151.956 32.1053C151.468 32.2572 151.012 32.4985 150.612 32.8167C150.234 33.1278 149.932 33.5215 149.731 33.9673C149.514 34.4542 149.406 34.9825 149.415 35.5152C149.415 35.9956 149.508 36.4715 149.689 36.9167C149.859 37.3299 150.117 37.7013 150.445 38.0052C150.774 38.3067 151.16 38.5412 151.579 38.6954C152.04 38.8498 152.522 38.9277 153.008 38.9261C153.363 38.9317 153.717 38.8823 154.058 38.7797C154.365 38.7062 154.662 38.5935 154.94 38.4443C155.188 38.318 155.421 38.1635 155.633 37.9839C155.817 37.8335 155.993 37.6727 156.159 37.5021H156.2L156.302 38.6323H159.075V38.611C158.759 38.486 158.697 38.0886 158.676 37.9209M80.8264 30.0553C80.6006 29.3246 80.1252 28.6956 79.4826 28.2776C79.1694 28.0936 78.8293 27.9596 78.4745 27.8803C78.1025 27.795 77.7217 27.7531 77.34 27.7553C76.9499 27.7484 76.5609 27.7976 76.185 27.9016C75.8338 27.9921 75.4952 28.1256 75.1769 28.299C74.8912 28.458 74.6237 28.6475 74.3791 28.8641C74.1606 29.0588 73.9635 29.2762 73.7913 29.5125H73.7699C73.7853 29.2132 73.7285 28.9145 73.6042 28.6415C73.48 28.3685 73.2919 28.129 73.0557 27.9433L70.811 28.4037C71.1263 28.5501 71.2937 28.9688 71.3355 29.5339V38.6751H74.4015V38.6547C74.2692 38.6061 74.1555 38.5174 74.0765 38.4011C73.9974 38.2848 73.9569 38.1467 73.9607 38.0063V31.3542C74.2952 30.9228 74.7173 30.5663 75.1994 30.3083C75.6439 30.0684 76.1427 29.9459 76.6482 29.9526C76.9828 29.9404 77.3151 30.0124 77.6144 30.162C77.9019 30.3231 78.1199 30.5839 78.2266 30.8948C78.2928 31.0696 78.335 31.2525 78.3521 31.4385C78.3735 31.6479 78.3735 31.899 78.3735 32.1917V38.6964H80.9774V31.7932C80.9865 31.486 80.9725 31.1786 80.9355 30.8734C80.9469 30.5987 80.9124 30.3239 80.8335 30.0604M136.924 33.1359C136.621 32.9167 136.289 32.7406 135.937 32.6124C135.56 32.4874 135.203 32.3827 134.845 32.2984C134.615 32.2354 134.363 32.1723 134.111 32.1103C133.869 32.0461 133.63 31.969 133.397 31.8796C133.193 31.7893 133.008 31.6617 132.851 31.5036C132.716 31.3295 132.649 31.113 132.662 30.8938L132.746 30.4963L133.039 30.162L133.291 30.0156C133.865 29.7911 134.486 29.7121 135.097 29.7859C135.308 29.8063 135.518 29.8063 135.748 29.849C136.043 29.8564 136.331 29.9353 136.588 30.0787L136.756 30.225L136.777 30.2463L136.861 30.3927L137.281 28.4677C137.281 28.4677 137.155 28.175 136.588 28.0286H136.568L136.504 28.0073C136.316 27.9656 136.127 27.9239 135.917 27.8812C135.314 27.7698 134.702 27.7137 134.089 27.7136C133.572 27.7071 133.056 27.7777 132.559 27.9229C132.1 28.0591 131.666 28.2711 131.277 28.55C130.913 28.8443 130.619 29.2158 130.416 29.6375C130.197 30.1238 130.089 30.6526 130.101 31.1855C130.082 31.6089 130.161 32.031 130.332 32.4193C130.48 32.739 130.695 33.0239 130.961 33.2558C131.237 33.482 131.549 33.6591 131.886 33.7792C132.248 33.9227 132.62 34.0415 132.999 34.1349C133.293 34.198 133.586 34.2813 133.86 34.3443C134.112 34.4156 134.357 34.5067 134.594 34.6167C134.785 34.7001 134.956 34.8212 135.098 34.9725C135.235 35.1289 135.31 35.3299 135.309 35.5375C135.317 35.7422 135.25 35.9429 135.12 36.1016C134.999 36.2758 134.832 36.4134 134.637 36.499C134.412 36.6057 134.171 36.6764 133.923 36.7084C133.626 36.7692 133.323 36.7972 133.02 36.7917C132.57 36.7971 132.12 36.7631 131.676 36.6901C131.132 36.5917 130.598 36.4447 130.081 36.251V38.3427C130.51 38.5295 130.962 38.663 131.424 38.7401C132.027 38.8534 132.639 38.9096 133.252 38.9078C133.881 38.9087 134.508 38.8384 135.121 38.6984C135.649 38.5806 136.149 38.3603 136.591 38.05C136.998 37.7689 137.324 37.3866 137.536 36.9411C137.772 36.4522 137.887 35.9142 137.872 35.3719C137.896 34.9007 137.794 34.4315 137.578 34.012C137.45 33.6632 137.224 33.3584 136.927 33.1338M93.7506 28.0093H90.5162L86.4421 32.3391H86.3789V22.7578C86.3917 22.6132 86.3698 22.4676 86.315 22.3332C86.2601 22.1987 86.174 22.0791 86.0636 21.9843L83.1863 22.3187C83.3414 22.3887 83.4763 22.4963 83.579 22.6315C83.6816 22.7668 83.7487 22.9255 83.774 23.0932V38.6568H86.8349V38.6323C86.436 38.549 86.3942 38.0886 86.3728 37.9423V33.7162H86.4146L90.5978 38.674H93.7689L89.0439 33.0261L93.7506 28.0093ZM115.8 30.5197C115.758 30.3104 115.716 30.122 115.675 29.9547L115.486 29.4942C115.208 28.9708 114.795 28.5305 114.289 28.2187C113.698 27.8931 113.032 27.7273 112.357 27.7379C111.974 27.7325 111.592 27.7818 111.223 27.8843C110.88 27.9785 110.549 28.1118 110.237 28.2817C109.925 28.4484 109.636 28.6532 109.376 28.8915C109.118 29.1319 108.885 29.3982 108.683 29.6863H108.641C108.392 29.068 107.941 28.5518 107.36 28.2217C106.774 27.9058 106.116 27.7471 105.449 27.7613C105.066 27.7558 104.685 27.8051 104.316 27.9077C103.975 28.0094 103.645 28.1425 103.329 28.3051C103.043 28.4641 102.776 28.6535 102.531 28.8702C102.313 29.0649 102.116 29.2823 101.944 29.5186H101.902C101.917 29.2193 101.86 28.9206 101.736 28.6476C101.612 28.3745 101.424 28.1351 101.188 27.9494L98.9429 28.4098C99.3 28.5775 99.4888 29.1212 99.4684 29.8743V38.6608H102.534V38.6323C102.157 38.549 102.094 38.0673 102.094 37.9423V31.3359C102.268 31.1205 102.465 30.9242 102.681 30.7504C102.891 30.5731 103.124 30.4254 103.374 30.3114C103.604 30.196 103.843 30.0981 104.088 30.0187C104.314 29.9556 104.547 29.9215 104.781 29.9171C105.145 29.8918 105.505 30.0039 105.789 30.2311C106.032 30.4244 106.197 30.6993 106.251 31.0045C106.293 31.1766 106.321 31.3516 106.335 31.528C106.353 31.7368 106.361 31.9465 106.356 32.1561V38.6405H108.96V31.3227C109.135 31.1072 109.332 30.9109 109.548 30.7372C109.761 30.5642 109.993 30.4169 110.241 30.2982C110.471 30.1827 110.71 30.0849 110.955 30.0055C111.188 29.9425 111.428 29.9084 111.669 29.9039C112.004 29.8816 112.336 29.9789 112.606 30.1784C112.875 30.3778 113.064 30.6665 113.139 30.9924C113.181 31.1641 113.209 31.3387 113.223 31.5148C113.241 31.7236 113.249 31.9333 113.245 32.1429V38.6272H115.848V32.0209C115.848 31.7068 115.848 31.4111 115.827 31.1631C115.862 30.9547 115.855 30.7415 115.805 30.536M127.335 27.9626L124.92 28.423C125.297 28.5907 125.508 29.0928 125.487 29.8246V34.2965C125.508 34.7901 125.422 35.2824 125.235 35.7398C125.082 36.0833 124.815 36.3639 124.479 36.5346C124.111 36.7271 123.698 36.821 123.282 36.807C122.885 36.814 122.491 36.7356 122.127 36.5773C121.8 36.425 121.534 36.1671 121.371 35.8455C121.257 35.6367 121.179 35.4103 121.141 35.1757C121.096 34.8708 121.075 34.563 121.077 34.2549V29.5156C121.088 29.2157 121.024 28.9179 120.892 28.6481C120.761 28.3783 120.565 28.1447 120.321 27.9677L117.906 28.4281C118.242 28.5744 118.432 28.9932 118.474 29.5786V34.5151C118.465 34.96 118.515 35.404 118.621 35.8363C118.704 36.225 118.845 36.5989 119.041 36.9452C119.418 37.5731 119.973 38.0754 120.637 38.3884C121.468 38.7838 122.383 38.9705 123.304 38.9322C123.819 38.9351 124.332 38.8787 124.834 38.7645C125.263 38.669 125.679 38.5216 126.073 38.3254C126.755 37.9529 127.316 37.394 127.69 36.7145C128.001 36.0248 128.152 35.274 128.131 34.5181V29.4973C128.128 29.1952 128.054 28.898 127.916 28.6293C127.777 28.3606 127.578 28.1277 127.333 27.9494M166.792 36.6728C166.495 36.7319 166.192 36.7602 165.889 36.7572C165.647 36.7908 165.401 36.7624 165.173 36.6745C164.945 36.5867 164.743 36.4423 164.587 36.2551C164.443 35.9708 164.378 35.6532 164.399 35.3353V30.1681H167.486V28.0134H164.399V25.066C164.377 24.4561 164.083 24.3128 164.083 24.3128L161.206 24.6472C161.361 24.7172 161.496 24.8247 161.599 24.96C161.701 25.0953 161.768 25.254 161.794 25.4217V28.0368H159.799V30.1914H161.794V35.7144C161.773 36.2556 161.858 36.7956 162.046 37.304C162.281 37.8519 162.705 38.2974 163.243 38.5592C163.932 38.8778 164.688 39.0283 165.447 38.9983C165.834 38.9994 166.22 38.9716 166.602 38.9149C166.958 38.8757 167.309 38.8057 167.652 38.7055V36.5508C167.379 36.5722 167.085 36.6342 166.791 36.6758M143.082 30.6936C143.37 30.4204 143.714 30.2124 144.09 30.0838C144.477 29.9571 144.881 29.8936 145.287 29.8957C145.661 29.8861 146.035 29.9202 146.4 29.9973H146.422C146.669 30.0422 146.909 30.1194 147.136 30.2271C147.335 30.2971 147.5 30.4389 147.598 30.6244L148.019 28.6161C147.962 28.5184 147.886 28.433 147.796 28.3647C147.706 28.2965 147.603 28.2469 147.493 28.2187C147.107 28.06 146.706 27.9408 146.296 27.863C145.839 27.7778 145.376 27.7356 144.911 27.737C144.246 27.7396 143.586 27.8525 142.958 28.0713C142.3 28.2805 141.693 28.6224 141.173 29.0755C140.619 29.5743 140.182 30.1885 139.893 30.8744C139.539 31.7002 139.367 32.592 139.389 33.4895C139.375 34.3107 139.518 35.127 139.809 35.8953C140.072 36.5393 140.473 37.1178 140.986 37.5895C141.497 38.0312 142.089 38.372 142.728 38.5937C143.425 38.8247 144.157 38.9377 144.891 38.9281C145.399 38.9343 145.906 38.8852 146.403 38.7818C146.815 38.6996 147.216 38.5732 147.6 38.4047V36.2947C147.245 36.4382 146.88 36.5571 146.509 36.6505C146.083 36.7555 145.645 36.8046 145.207 36.7968C144.73 36.8141 144.255 36.7209 143.821 36.5244C143.449 36.3536 143.114 36.1119 142.834 35.813C142.572 35.5012 142.379 35.1379 142.267 34.7468C142.14 34.3179 142.076 33.8728 142.078 33.4255C142.067 32.8643 142.152 32.3054 142.33 31.7729C142.515 31.368 142.771 30.9996 143.086 30.6854M55.0126 34.7437C54.9203 35.1457 54.7569 35.5281 54.53 35.8729C54.329 36.1789 54.0548 36.4303 53.7321 36.6047C53.3875 36.7783 53.0052 36.8646 52.619 36.8557C52.1541 36.8484 51.6983 36.7262 51.2926 36.5C51.1131 36.3986 50.9442 36.2794 50.7886 36.1443L50.4111 35.7886V30.6844C50.7446 30.4265 51.1119 30.2151 51.5028 30.0563C51.8775 29.9099 52.2757 29.8321 52.6782 29.8266C52.9627 29.8271 53.2456 29.8693 53.5179 29.9516C53.8264 30.0515 54.1064 30.2236 54.3342 30.4537C54.6191 30.7675 54.8337 31.1383 54.9637 31.5412C55.1237 32.0989 55.2014 32.6768 55.1943 33.2568C55.1795 33.757 55.1163 34.2546 55.0055 34.7427M56.4339 29.0511C56.0154 28.6183 55.5065 28.2825 54.9433 28.0673C54.3868 27.854 53.7968 27.7407 53.2006 27.7329C52.9113 27.7287 52.6224 27.757 52.3394 27.8172C52.0811 27.8618 51.8278 27.9319 51.5834 28.0266C51.3592 28.1074 51.1416 28.2053 50.9324 28.3193C50.7437 28.421 50.5539 28.55 50.3866 28.6537H50.3662C50.3662 28.5073 50.3866 28.298 50.3866 28.0266C50.408 27.7542 50.408 27.4615 50.408 27.1474V22.7131H50.3866C50.3662 22.1277 50.0927 21.96 50.0927 21.96L47.1951 22.274C47.3542 22.3438 47.4922 22.4539 47.5953 22.5933C47.6985 22.7328 47.7631 22.8967 47.7828 23.0688V36.1433C47.7828 36.562 47.7828 37.0011 47.7613 37.4645C47.7613 37.925 47.7399 38.3224 47.7195 38.6354H49.8826L50.1346 37.5052H50.1764C50.2784 37.6313 50.407 37.7776 50.5753 37.9453C50.7634 38.1189 50.9685 38.2731 51.1875 38.4057C51.4572 38.5677 51.7466 38.6944 52.0486 38.7828C52.4047 38.878 52.7717 38.9272 53.1404 38.9292C53.7238 38.9294 54.3016 38.8158 54.8412 38.5947C55.4194 38.3567 55.9362 37.992 56.3533 37.5276C56.8315 36.9965 57.2022 36.3784 57.445 35.7072C57.7358 34.8881 57.8782 34.024 57.8654 33.1552C57.88 32.3445 57.7522 31.5376 57.4879 30.7708C57.2722 30.1274 56.9133 29.5409 56.438 29.0552M66.0554 35.7489L65.6565 36.1463C65.486 36.2816 65.3033 36.4007 65.1106 36.5021C64.9041 36.6105 64.6856 36.6947 64.4596 36.7531C64.2155 36.8305 63.9596 36.8649 63.7036 36.8548C63.4964 36.8596 63.2897 36.8314 63.0914 36.7714C62.907 36.7145 62.7358 36.6219 62.5874 36.499C62.4467 36.3768 62.3325 36.2274 62.2517 36.0599C62.166 35.862 62.1232 35.6484 62.1262 35.4329C62.1118 35.2107 62.1543 34.9885 62.2498 34.7872C62.3453 34.586 62.4906 34.4122 62.6721 34.2823C63.1277 34.0109 63.6539 33.88 64.1842 33.9063C64.514 33.9069 64.8435 33.9276 65.1708 33.9683C65.4608 34.0082 65.7482 34.0642 66.0319 34.136V35.7469L66.0554 35.7489ZM68.7021 37.9656C68.7021 37.7572 68.6806 37.5266 68.6806 37.2969C68.6602 36.7948 68.6602 36.188 68.6602 35.4775V31.4609C68.6622 30.9514 68.5623 30.4466 68.3664 29.976C68.1671 29.5114 67.8572 29.1022 67.4634 28.7838C67.0344 28.4363 66.5426 28.1738 66.0146 28.0103C65.3506 27.7958 64.6544 27.6968 63.9566 27.7177C63.3219 27.715 62.6887 27.778 62.067 27.9057C61.4825 28.027 60.9124 28.2092 60.3662 28.4494C59.8836 28.6588 59.8203 28.8468 59.8203 28.8468L60.2825 30.7504C60.3246 30.6575 60.3854 30.5743 60.4612 30.5059C60.5371 30.4375 60.6263 30.3855 60.7233 30.353C61.169 30.1906 61.625 30.0578 62.0884 29.9557C62.6122 29.8394 63.1477 29.7835 63.6842 29.789C64.055 29.7816 64.4243 29.838 64.7759 29.9557C65.0526 30.0413 65.3045 30.1919 65.5106 30.3947C65.693 30.5612 65.8303 30.771 65.9095 31.0045C65.9941 31.2396 66.0369 31.4876 66.036 31.7373V32.1764C65.6968 32.0885 65.3532 32.0186 65.0065 31.967C64.5826 31.9057 64.1544 31.8775 63.726 31.8827C63.1423 31.8763 62.5612 31.961 62.0038 32.1337C61.5135 32.2811 61.057 32.5228 60.66 32.8452C60.2809 33.1643 59.9795 33.565 59.7785 34.0171C59.5638 34.4965 59.4562 35.0167 59.4632 35.5416C59.4502 36.0231 59.5435 36.5016 59.7367 36.9431C59.9144 37.3401 60.1634 37.7014 60.4713 38.0093C60.7897 38.325 61.1784 38.5615 61.6059 38.6995C62.0665 38.8522 62.5488 38.9301 63.0343 38.9302C63.7091 38.9361 64.3743 38.7703 64.9667 38.4484C65.2184 38.317 65.4575 38.1629 65.681 37.988C65.8703 37.8434 66.0461 37.6822 66.2064 37.5062H66.2483L66.3737 38.6364H69.1459V38.6151C68.7888 38.5521 68.7255 38.1343 68.7051 37.9666" fill="#333F55"/>
    <path d="M116.176 13.9727C114.79 13.9727 114.055 12.6128 114.055 10.5841C114.076 8.55141 114.747 7.67633 116.176 7.67633C117.583 7.69767 118.255 8.5758 118.276 10.5841C118.276 12.6169 117.541 13.9727 116.176 13.9727ZM75.7085 13.9097C74.2382 13.9097 73.4403 12.3851 73.4199 10.3748C73.4414 8.36644 74.2597 7.63058 75.7085 7.6133C77.1369 7.63465 77.9532 8.36644 77.9766 10.3748C77.9766 12.3831 77.1788 13.9097 75.7085 13.9097ZM62.2476 13.0966C62.2327 13.3566 62.1986 13.6151 62.1456 13.87H52.1915C52.612 12.5308 53.3381 11.3066 54.3127 10.2934C55.6146 8.80854 56.9798 7.78303 58.3868 7.78303H58.5551C59.1147 7.82481 59.6572 7.99355 60.1412 8.27629C60.6252 8.55903 61.0379 8.94828 61.3477 9.4143C61.9798 10.5369 62.2921 11.8101 62.2507 13.0966H62.2476ZM120.796 10.5862C120.844 9.38227 120.521 8.19253 119.871 7.17627L119.83 7.11325L119.808 7.09293L119.745 7.00959C119.313 6.49212 118.764 6.0841 118.144 5.81907C117.523 5.55403 116.848 5.43956 116.174 5.48505C115.479 5.43371 114.782 5.55384 114.144 5.83482C113.507 6.11581 112.949 6.54898 112.52 7.09597C111.827 8.12662 111.482 9.34995 111.532 10.5892V11.321C111.532 12.7856 110.84 13.8944 109.516 13.8944H103.599V13.1413V8.6439L103.577 8.54226C103.578 8.38399 103.544 8.22743 103.479 8.08315C103.414 7.93886 103.318 7.81019 103.199 7.7058H103.177L103.156 7.68446L100.026 8.04019L100.594 8.26987C100.716 8.32496 100.822 8.40965 100.903 8.51617C100.983 8.6227 101.036 8.74767 101.056 8.87969V13.2938L101.036 13.3354L100.867 13.6495C100.657 13.8172 100.573 13.8589 100.426 13.8589H96.7533V9.52813C96.7115 8.91831 96.4176 8.71504 96.3544 8.69167L96.334 8.67033L93.2261 9.02606L93.772 9.27708C93.8982 9.32605 94.0083 9.40903 94.0899 9.51672C94.1715 9.62441 94.2215 9.75257 94.2342 9.8869V12.1229V13.2734L94.2127 13.3751L94.0444 13.6678C93.8138 13.8355 93.7291 13.8771 93.6036 13.8771H89.9703V10.5506C89.9285 9.94079 89.6346 9.75579 89.5918 9.7375L89.5704 9.71616L89.5489 9.69584L86.4196 10.0516L86.9869 10.2823C87.1137 10.3384 87.2243 10.4253 87.3086 10.5351C87.3929 10.6448 87.4482 10.7739 87.4695 10.9104V13.3161L87.4481 13.3791L87.2594 13.6718C87.0492 13.8395 86.9655 13.8812 86.8186 13.8812H79.4897C80.0322 12.8391 80.3268 11.6866 80.3509 10.513L80.3713 10.1156C80.3996 9.03816 80.0589 7.98323 79.405 7.12445C78.981 6.54943 78.4179 6.09059 77.768 5.79062C77.1181 5.49066 76.4026 5.35931 75.6881 5.40881C74.9744 5.36622 74.2613 5.50067 73.6126 5.80008C72.9639 6.0995 72.3999 6.55455 71.9711 7.12445C71.3213 8.00721 70.9951 9.08521 71.0467 10.1786V10.4713C71.034 11.6574 71.3143 12.8284 71.863 13.8812H64.6596C64.681 13.6302 64.681 13.3791 64.681 13.1494C64.772 11.5166 64.4162 9.88981 63.6515 8.44266C63.1521 7.53569 62.4211 6.77613 61.5325 6.24074C60.6439 5.70536 59.6291 5.41313 58.5908 5.39358H58.4021C57.1755 5.42585 55.9763 5.76215 54.913 6.37207C53.8496 6.98198 52.9556 7.84626 52.3119 8.8868V1.81903H52.2904C52.2835 1.68533 52.2481 1.55463 52.1866 1.43563C52.125 1.31663 52.0387 1.21206 51.9333 1.12891H51.9119L51.8915 1.10757L48.7837 1.4633L49.3295 1.69301C49.4533 1.74558 49.5611 1.82953 49.6422 1.93652C49.7233 2.04352 49.7749 2.16979 49.7917 2.3028L49.7499 13.808H47.8603C47.7313 13.7869 47.6097 13.7337 47.5069 13.6532C47.4042 13.5727 47.3236 13.4675 47.2726 13.3476L47.1706 13.1179L47.0236 12.7835L46.7288 15.6924L46.7502 15.734C46.8358 15.8418 46.9442 15.9295 47.0676 15.9909C47.191 16.0524 47.3265 16.0861 47.4644 16.0898V16.1111H109.601C110.842 16.1846 112.063 15.7717 113.003 14.9606C113.878 15.7404 115.022 16.1527 116.195 16.1111H116.217C116.91 16.1568 117.604 16.0319 118.238 15.7474C118.871 15.4629 119.425 15.0277 119.85 14.4799C120.52 13.2952 120.848 11.9482 120.795 10.5892L120.796 10.5862ZM74.0505 3.45334C74.2315 3.45829 74.4116 3.42705 74.5803 3.36147C74.749 3.29589 74.9028 3.1973 75.0325 3.07153C75.1623 2.94575 75.2655 2.79532 75.3359 2.62916C75.4063 2.463 75.4426 2.28447 75.4426 2.10411C75.4426 1.92374 75.4063 1.74521 75.3359 1.57905C75.2655 1.4129 75.1623 1.2625 75.0325 1.13672C74.9028 1.01095 74.749 0.912355 74.5803 0.846776C74.4116 0.781197 74.2315 0.749955 74.0505 0.754904C73.6916 0.753004 73.3465 0.892718 73.0906 1.14355C72.8348 1.39437 72.6891 1.7359 72.6853 2.09344C72.6883 2.4532 72.833 2.7974 73.0884 3.0518C73.3438 3.3062 73.6893 3.45042 74.0505 3.45334ZM77.5573 3.45334C77.8244 3.45133 78.0849 3.37073 78.3062 3.22165C78.5274 3.07257 78.6995 2.86166 78.8008 2.61545C78.9021 2.36924 78.9281 2.0987 78.8755 1.83783C78.8229 1.57696 78.694 1.3374 78.5052 1.14925C78.3163 0.961104 78.0758 0.832741 77.8139 0.780338C77.552 0.727934 77.2804 0.753821 77.0332 0.854716C76.7861 0.955612 76.5744 1.12702 76.4247 1.34742C76.2751 1.56782 76.1941 1.82736 76.1921 2.09344C76.1948 2.45328 76.3395 2.79762 76.5949 3.05208C76.8504 3.30653 77.196 3.45069 77.5573 3.45334Z" fill="#333F55"/>
    <path d="M154.983 5.96099C154.615 5.96099 154.263 5.81549 154.003 5.55656C153.743 5.29762 153.597 4.94643 153.597 4.58024C153.597 4.21405 153.743 3.86285 154.003 3.60392C154.263 3.34498 154.615 3.19952 154.983 3.19952C155.347 3.19789 155.698 3.33996 155.957 3.59474C156.217 3.84951 156.365 4.19631 156.369 4.55943C156.364 4.92599 156.217 5.27634 155.958 5.53745C155.7 5.79856 155.351 5.95029 154.983 5.96099ZM131.253 9.55889V9.53755L131.274 9.51621L131.295 9.49487C131.316 9.43185 131.484 9.26516 131.863 9.24382H133.458V9.01311C133.405 8.43181 133.539 7.84871 133.839 7.34738C134.139 6.84605 134.59 6.45221 135.129 6.22227C135.668 5.99233 136.265 5.9381 136.837 6.06734C137.408 6.19659 137.924 6.50269 138.31 6.94177L138.352 6.98343L138.583 7.06677H138.604L138.689 7.04543L139.423 6.85741L137.786 8.44699H137.702C137.535 8.43045 137.379 8.35641 137.261 8.23763L137.159 8.13599V8.11465L137.096 8.05162C136.994 7.91251 136.862 7.7986 136.709 7.71875C136.556 7.63889 136.387 7.59527 136.214 7.59124C135.479 7.61258 135.206 7.92561 135.185 8.82509V9.24382H138.629V10.8548H132.099L131.826 11.0641L131.553 11.7339L131.253 9.55889ZM143.033 14.7261C142.582 15.2287 142.023 15.6234 141.398 15.8805C140.772 16.1376 140.097 16.2506 139.421 16.211H130.685C130.116 16.2536 129.545 16.1766 129.008 15.9847C128.471 15.7929 127.981 15.4906 127.569 15.0976C127.157 14.7045 126.832 14.2295 126.617 13.7034C126.401 13.1773 126.299 12.6119 126.317 12.0439V9.4288V8.96839C126.296 8.83984 126.243 8.71873 126.162 8.61635C126.081 8.51397 125.976 8.43368 125.855 8.38297L125.183 8.09027L128.438 7.71319L128.459 7.73453H128.48C128.598 7.81434 128.695 7.92011 128.764 8.04356C128.833 8.167 128.873 8.30474 128.879 8.44597V8.52931L128.9 8.63095H128.879V8.94503V11.8528C128.921 13.2757 129.509 13.8856 130.979 13.9028L139.274 13.9242C140.744 13.8825 141.354 13.2757 141.395 11.8742V1.2542C141.375 1.1283 141.324 1.00927 141.247 0.907307C141.17 0.805343 141.069 0.723505 140.954 0.668787L140.281 0.37608L143.536 0L143.557 0.0213396H143.579C143.692 0.1047 143.787 0.211338 143.856 0.334052C143.924 0.456767 143.966 0.592728 143.978 0.732806V0.817172L143.999 0.900514H143.978V11.1485C143.999 13.0308 144.794 13.8683 146.623 13.8927L151.642 13.914C153.113 13.8723 153.722 13.2656 153.763 11.7593V11.6577V8.97347C153.743 8.84765 153.692 8.72864 153.616 8.62667C153.539 8.52471 153.438 8.44284 153.323 8.38806L152.65 8.09532L155.927 7.71927L155.968 7.74061H155.99C156.096 7.8154 156.184 7.91204 156.249 8.02392C156.315 8.13581 156.355 8.26032 156.367 8.38905H156.389V8.59845V11.8203C156.431 13.2635 157.018 13.8703 158.489 13.8916L163.129 13.913C164.578 13.8713 165.187 13.2645 165.208 11.7583V6.65412C165.192 6.52685 165.143 6.40599 165.066 6.30335C164.988 6.20072 164.886 6.11985 164.768 6.06871L164.096 5.776L167.351 5.39995L167.393 5.42129L167.414 5.44263C167.477 5.46398 167.75 5.67336 167.813 6.23744V6.67649V11.927C167.827 12.4927 167.725 13.0551 167.512 13.5796C167.298 14.1041 166.98 14.5795 166.574 14.9761C166.132 15.3841 165.613 15.7013 165.047 15.9095C164.482 16.1177 163.88 16.2129 163.278 16.1897H158.345C157.165 16.2348 156.013 15.8224 155.132 15.0391C154.241 15.8207 153.084 16.2325 151.897 16.1897H146.501C145.847 16.2432 145.19 16.138 144.585 15.8829C143.981 15.6278 143.448 15.2305 143.032 14.7251M164.956 17.8626C165.321 17.8612 165.671 18.0034 165.93 18.2581C166.19 18.5129 166.338 18.8595 166.342 19.2225C166.342 19.5864 166.197 19.9354 165.938 20.1927C165.68 20.45 165.33 20.5946 164.964 20.5946C164.599 20.5946 164.249 20.45 163.99 20.1927C163.732 19.9354 163.587 19.5864 163.587 19.2225C163.587 19.0438 163.622 18.8668 163.69 18.7016C163.759 18.5364 163.859 18.3864 163.986 18.26C164.113 18.1336 164.263 18.0335 164.429 17.9653C164.595 17.8971 164.773 17.8622 164.952 17.8626" fill="#333F55"/>
    <path d="M27.7849 11.819C27.6379 11.2539 27.4696 10.6685 27.2594 10.0831C27.0911 9.5393 26.8809 8.99556 26.6717 8.45079C26.3779 7.69767 26.0422 6.92624 25.6637 6.17108C25.2861 5.39661 24.8658 4.64653 24.4036 3.87003C24.3403 3.76839 24.2771 3.66066 24.2148 3.57732C23.8995 3.07524 23.5853 2.59449 23.2282 2.11273C23.1261 1.94503 22.9976 1.79868 22.8925 1.63098C22.767 1.46429 22.6405 1.29661 22.4936 1.12891C22.2834 1.27526 22.0528 1.44297 21.8426 1.58932C21.5488 1.79869 21.2753 2.00807 20.9815 2.21642C20.6244 2.46746 20.2887 2.7185 19.952 2.96954C19.4265 3.3456 18.9021 3.72266 18.3766 4.12005C18.1032 4.30808 17.8308 4.51747 17.5604 4.7055C16.9094 5.18624 16.234 5.64664 15.5861 6.1284C14.9739 6.58881 14.3474 7.02786 13.7383 7.48828C13.5281 7.63463 13.3394 7.78099 13.1261 7.92735L12.8741 8.11538C12.8109 8.15705 12.7272 8.21702 12.6639 8.26174L12.4752 8.38674C12.3731 8.4711 12.265 8.53312 12.1599 8.61748C12.4334 8.68049 12.7272 8.76382 12.9996 8.84716C13.2483 8.91104 13.4935 8.98772 13.7342 9.07687C14.4601 9.32243 15.1687 9.61578 15.8555 9.95499C15.9947 10.0122 16.1283 10.0823 16.2544 10.1644C17.2549 10.6941 18.1979 11.3252 19.0684 12.0477C19.9123 12.7278 20.6989 13.4756 21.4202 14.2837C21.7559 14.6394 22.0712 15.0155 22.365 15.3925C22.5334 15.6019 22.6803 15.8113 22.8476 16.0207C23.121 16.3764 23.3731 16.7524 23.6251 17.1295C23.6465 17.1509 23.6465 17.1712 23.6669 17.1712C23.7302 17.2545 23.7689 17.3389 23.8353 17.4222C23.877 17.4967 23.9263 17.5669 23.9822 17.6316C24.0454 17.7332 24.1291 17.8613 24.1924 17.966C25.4504 20.023 26.4769 22.2119 27.2533 24.4931C27.6522 25.6222 27.9042 26.5644 28.0695 27.1915C28.2165 27.7566 28.2797 28.0696 28.2797 28.091C28.3011 28.0076 28.3215 27.9233 28.343 27.8186C28.364 27.7346 28.3851 27.6299 28.4062 27.5045C28.4481 27.2951 28.4899 27.0238 28.5532 26.6914C28.5746 26.5451 28.595 26.4201 28.6164 26.2524C28.6582 25.9597 28.7001 25.6253 28.7429 25.2696C28.7643 25.0399 28.8062 24.7888 28.8266 24.5164C28.848 24.307 28.8684 24.0773 28.8899 23.8466C28.9113 23.6789 28.9113 23.4909 28.9317 23.3029C28.9735 22.5497 28.9949 21.7133 28.9949 20.8138C28.9949 19.831 28.9531 18.7638 28.848 17.6346C28.6326 15.6734 28.2773 13.73 27.7849 11.819Z" fill="#E25456"/>
    <path d="M19.8908 17.9894C20.3112 17.5707 20.5632 17.3623 20.5632 17.3623H20.5418C20.5257 17.364 20.5108 17.3716 20.5 17.3836C20.4367 17.405 20.353 17.4253 20.2898 17.4467C20.1898 17.4745 20.0917 17.5084 19.9959 17.5483C19.7858 17.6113 19.5337 17.716 19.2185 17.841C19.093 17.8827 18.945 17.9427 18.7981 18.0087C18.5247 18.1104 18.2104 18.2394 17.8951 18.3848C17.6849 18.4681 17.454 18.5728 17.2023 18.6988C17.0136 18.7822 16.8034 18.8868 16.5902 18.9915C16.4432 19.0749 16.2749 19.1379 16.1076 19.2212C15.4352 19.5556 14.6791 19.953 13.9231 20.4134C13.0619 20.9155 12.159 21.4806 11.2356 22.129C9.59649 23.2738 8.0578 24.5549 6.63606 25.9587C6.2157 26.3774 5.79635 26.8165 5.39742 27.28C5.0199 27.6977 4.64137 28.1378 4.28426 28.6013C3.78023 29.2497 3.2762 29.9225 2.79359 30.6096C2.31099 31.321 1.8692 32.0528 1.42843 32.8456C1.36517 32.9472 1.3264 33.0549 1.26008 33.1596C0.986636 33.6617 0.734619 34.2055 0.482604 34.7289C0.398939 34.9169 0.314248 35.0846 0.252009 35.2727C0.168344 35.4607 0.083665 35.67 0 35.8581C0.252015 35.9597 0.482606 36.0674 0.734621 36.1925C1.0499 36.3388 1.38557 36.4852 1.72125 36.6315C2.12019 36.7992 2.49872 36.9659 2.89766 37.1549C3.48536 37.406 4.07408 37.6784 4.68218 37.9294C4.99745 38.0545 5.29436 38.2018 5.60657 38.3268C6.34119 38.6612 7.07683 38.9966 7.83288 39.3097C8.44506 39.581 9.0297 39.8534 9.63882 40.1044C9.72249 40.1461 9.82758 40.1878 9.93267 40.2295C10.1633 40.3311 10.3949 40.4185 10.605 40.5222C10.7071 40.5638 10.7938 40.6055 10.8989 40.6472C10.979 40.6899 11.0635 40.724 11.1509 40.7488L11.7182 40.9999C11.6345 40.7275 11.5498 40.4561 11.4876 40.1634C11.4244 39.9124 11.3621 39.6613 11.3193 39.4103C11.1711 38.6576 11.073 37.8961 11.0254 37.1306C11.0254 36.9842 11.004 36.8379 11.004 36.6702C10.9673 35.5433 11.0377 34.4156 11.2142 33.3019C11.3863 32.2296 11.6464 31.1731 11.9916 30.1431C12.1386 29.6827 12.3069 29.2222 12.4957 28.7832C12.5809 28.541 12.679 28.3035 12.7895 28.0717V28.0504C12.7895 28.0476 12.7901 28.0449 12.7912 28.0424C12.7923 28.0398 12.7939 28.0375 12.7959 28.0356C12.7979 28.0337 12.8002 28.0322 12.8028 28.0313C12.8054 28.0303 12.8082 28.0299 12.811 28.03C12.9997 27.591 13.1885 27.1723 13.3986 26.7749C13.4405 26.6915 13.4823 26.6072 13.5241 26.5025C13.566 26.4191 13.6078 26.3561 13.6496 26.2728C13.7129 26.1477 13.7762 26.0431 13.8384 25.9384C15.0091 23.8233 16.4029 21.8386 17.9961 20.0181C18.5895 19.3074 19.2221 18.6302 19.8908 17.9894Z" fill="#E25456"/>
    <path d="M14.5361 30.3318C13.9688 30.1641 13.6545 30.0594 13.6545 30.0594H13.676C13.6872 30.0709 13.7019 30.0784 13.7178 30.0807C13.7811 30.1224 13.8198 30.1824 13.8862 30.2271C13.9494 30.2901 14.0331 30.3521 14.1167 30.4365C14.2851 30.5828 14.4953 30.7505 14.7677 30.9589C14.8697 31.0422 14.9983 31.1469 15.1034 31.2313C15.334 31.4193 15.6074 31.6073 15.8798 31.8167C16.0686 31.963 16.2788 32.1094 16.492 32.2558C16.6808 32.3808 16.8491 32.5068 17.0593 32.6318C17.2062 32.7334 17.3531 32.8199 17.5001 32.9245C18.1296 33.3433 18.8438 33.7824 19.6213 34.2214C20.4824 34.7235 21.4272 35.2052 22.4567 35.686C24.2696 36.5304 26.1527 37.2163 28.0847 37.7359C28.652 37.8823 29.2611 38.0287 29.8488 38.1547C30.393 38.2801 30.9599 38.3847 31.5497 38.4688C32.3659 38.5948 33.1873 38.6782 34.0484 38.7402C34.9095 38.8021 35.7707 38.8235 36.6737 38.8032H37.0093C37.597 38.7818 38.1857 38.7401 38.7734 38.7015C38.9622 38.6802 39.1724 38.6598 39.3611 38.6385C39.5713 38.6171 39.7815 38.5968 40.0121 38.5552C39.9907 38.2828 39.9488 38.0318 39.9284 37.7604C39.8866 37.4047 39.8448 37.0489 39.8264 36.6932C39.7846 36.2745 39.7427 35.8354 39.6999 35.4166C39.6366 34.7682 39.5529 34.1411 39.4897 33.4926C39.4479 33.1572 39.4264 32.8229 39.3876 32.4885C39.304 31.6937 39.2193 30.8786 39.1356 30.0828C39.0724 29.4343 39.0101 28.7615 38.9255 28.1161C38.904 28.0145 38.904 27.9067 38.8836 27.802C38.8622 27.551 38.8204 27.3203 38.8 27.0692C38.7964 26.9634 38.7824 26.8583 38.7581 26.7552C38.7581 26.6719 38.7367 26.5672 38.7367 26.4838C38.7153 26.2744 38.6949 26.0651 38.6734 25.874C38.4633 26.0834 38.2745 26.2927 38.0613 26.4838C37.8725 26.6718 37.6838 26.8396 37.494 27.0073C36.9186 27.5101 36.3079 27.9713 35.6666 28.3874L35.2881 28.6385C34.3231 29.2294 33.3036 29.727 32.2435 30.1245C31.2255 30.5103 30.1794 30.8178 29.1142 31.0442C28.6313 31.1493 28.1483 31.2329 27.6654 31.2953C27.4134 31.337 27.1613 31.3583 26.9093 31.3969H26.8675L25.4819 31.5229C25.3799 31.5229 25.2932 31.5443 25.1881 31.5443H24.9361C24.8027 31.5415 24.6694 31.5487 24.5371 31.5656C22.1133 31.6221 19.6907 31.4115 17.3134 30.9375C16.3753 30.7964 15.4475 30.594 14.5361 30.3318Z" fill="#E25456"/>
</svg>