<svg width="109" height="28" viewBox="0 0 109 28" fill="none" xmlns="http://www.w3.org/2000/svg">
<g style="mix-blend-mode:luminosity">
<path d="M101.147 23.8841L100.888 24.1291C100.777 24.2169 100.659 24.2943 100.534 24.3601C100.397 24.4273 100.256 24.4864 100.112 24.5371C99.9522 24.5806 99.7876 24.6035 99.622 24.6051C99.4888 24.6015 99.3563 24.5833 99.227 24.5511C99.1062 24.5173 98.9944 24.4568 98.9 24.3741C98.8086 24.2946 98.7344 24.1974 98.682 24.0881C98.6249 23.9549 98.5969 23.811 98.6 23.6661C98.5916 23.5202 98.621 23.3745 98.6855 23.2432C98.75 23.112 98.8473 22.9996 98.968 22.9171C99.2575 22.7258 99.6018 22.6349 99.948 22.6581C100.166 22.6581 100.37 22.6851 100.588 22.6991C100.776 22.7248 100.962 22.7612 101.146 22.8081L101.147 23.8841ZM102.862 25.3401C102.862 25.2041 102.848 25.0681 102.848 24.9041C102.848 24.5771 102.835 24.1831 102.835 23.7201V21.1201C102.836 20.7883 102.771 20.4596 102.644 20.1531C102.516 19.8577 102.32 19.5966 102.072 19.3911C101.79 19.1601 101.467 18.9846 101.119 18.8741C100.692 18.7409 100.246 18.6764 99.798 18.6831C99.3869 18.6883 98.977 18.7295 98.573 18.8061C98.1902 18.887 97.8164 19.0056 97.457 19.1601C97.144 19.2961 97.103 19.4191 97.103 19.4191L97.403 20.6581C97.4274 20.5981 97.4642 20.544 97.5111 20.4993C97.558 20.4547 97.6139 20.4205 97.675 20.3991C97.9684 20.2913 98.2692 20.2047 98.575 20.1401C98.9145 20.0628 99.2619 20.0262 99.61 20.0311C99.8504 20.0276 100.09 20.0644 100.318 20.1401C100.496 20.1992 100.658 20.2969 100.794 20.4261C100.912 20.5389 101.001 20.679 101.053 20.8341C101.108 20.9823 101.135 21.1391 101.135 21.2971V21.5831C100.916 21.5245 100.693 21.4791 100.468 21.4471C100.193 21.4142 99.9154 21.3962 99.638 21.3931C99.2553 21.3899 98.8742 21.4449 98.508 21.5561C98.1914 21.655 97.8961 21.812 97.637 22.0191C97.3914 22.2216 97.1957 22.4779 97.065 22.7681C96.9258 23.0852 96.8576 23.4289 96.865 23.7751C96.8645 24.0877 96.9246 24.3974 97.042 24.6871C97.152 24.9559 97.3192 25.1975 97.532 25.3951C97.7454 25.5913 97.9951 25.7438 98.267 25.8441C98.5654 25.9445 98.8782 25.9952 99.193 25.9941C99.4238 25.9964 99.6536 25.9626 99.874 25.8941C100.073 25.8464 100.266 25.7731 100.446 25.6761C100.607 25.5938 100.757 25.4931 100.895 25.3761C101.014 25.2784 101.128 25.1739 101.235 25.0631H101.262L101.33 25.7981H103.13V25.7841C102.93 25.7021 102.885 25.4441 102.871 25.3351M52.406 20.2161C52.2597 19.7406 51.9516 19.3312 51.535 19.0591C51.3322 18.9392 51.1119 18.8518 50.882 18.8001C50.641 18.7445 50.3943 18.7169 50.147 18.7181C49.8938 18.7151 49.6415 18.7488 49.398 18.8181C49.1705 18.8771 48.9511 18.9641 48.745 19.0771C48.5599 19.1807 48.3865 19.3041 48.228 19.4451C48.0863 19.5718 47.9586 19.7133 47.847 19.8671H47.833C47.8429 19.6723 47.806 19.478 47.7255 19.3004C47.6449 19.1228 47.523 18.967 47.37 18.8461L45.913 19.1461C46.113 19.2461 46.226 19.5141 46.253 19.8811V25.8301H48.241V25.8161C48.1552 25.7845 48.0814 25.7268 48.0301 25.6511C47.9788 25.5754 47.9525 25.4855 47.955 25.3941V21.0651C48.171 20.7845 48.4435 20.5525 48.755 20.3841C49.0432 20.2282 49.3664 20.1487 49.694 20.1531C49.9108 20.1451 50.1261 20.1919 50.32 20.2891C50.5058 20.3942 50.6464 20.564 50.715 20.7661C50.7582 20.8799 50.7858 20.999 50.797 21.1201C50.811 21.2561 50.811 21.4201 50.811 21.6101V25.8441H52.489V21.3531C52.495 21.1527 52.4859 20.9522 52.462 20.7531C52.469 20.5736 52.446 20.3941 52.394 20.2221M88.755 22.2221C88.5585 22.0796 88.3431 21.9652 88.115 21.8821C87.87 21.8001 87.639 21.7321 87.407 21.6821C87.257 21.6411 87.094 21.6001 86.931 21.5601C86.7741 21.5184 86.6196 21.4683 86.468 21.4101C86.3358 21.3512 86.2157 21.2681 86.114 21.1651C86.0278 21.052 85.9846 20.9121 85.992 20.7701L86.046 20.5111L86.237 20.2931L86.4 20.1931C86.7718 20.0467 87.1743 19.9951 87.571 20.0431C87.707 20.0571 87.843 20.0571 87.993 20.0841C88.1838 20.0892 88.3705 20.1407 88.537 20.2341L88.646 20.3341L88.66 20.3481L88.715 20.4481L88.987 19.1961C88.987 19.1961 88.905 19.0051 88.538 18.9101H88.524L88.483 18.8961C88.36 18.8691 88.238 18.8421 88.102 18.8141C87.7115 18.7416 87.3152 18.7051 86.918 18.7051C86.5817 18.7006 86.2467 18.7465 85.924 18.8411C85.6265 18.9298 85.3459 19.0677 85.094 19.2491C84.8577 19.4407 84.6671 19.6826 84.536 19.9571C84.3953 20.2741 84.327 20.6184 84.336 20.9651C84.3243 21.2397 84.3756 21.5134 84.486 21.7651C84.5824 21.973 84.7215 22.1583 84.894 22.3091C85.0729 22.4562 85.2759 22.5712 85.494 22.6491C85.7292 22.7424 85.9704 22.8196 86.216 22.8801C86.407 22.9211 86.597 22.9801 86.774 23.0161C86.9371 23.0624 87.0963 23.1216 87.25 23.1931C87.3735 23.2473 87.4847 23.3259 87.577 23.4241C87.6656 23.5258 87.7139 23.6563 87.713 23.7911C87.7184 23.9244 87.6746 24.055 87.59 24.1581C87.5117 24.2718 87.4033 24.3614 87.277 24.4171C87.1308 24.4865 86.9745 24.5324 86.814 24.5531C86.6216 24.5926 86.4254 24.6107 86.229 24.6071C85.9372 24.61 85.6458 24.5872 85.358 24.5391C85.0051 24.475 84.6587 24.3793 84.323 24.2531V25.6141C84.6016 25.7359 84.8941 25.8229 85.194 25.8731C85.5843 25.9469 85.9808 25.9834 86.378 25.9821C86.7859 25.9827 87.1924 25.9371 87.59 25.8461C87.9323 25.7695 88.2562 25.6261 88.543 25.4241C88.8069 25.2415 89.0182 24.9929 89.156 24.7031C89.3091 24.385 89.3838 24.035 89.374 23.6821C89.3896 23.3754 89.3237 23.0701 89.183 22.7971C89.1001 22.57 88.9536 22.3714 88.761 22.2251M60.772 18.8901H58.672L56.031 21.7081H55.989V15.4731C55.9969 15.38 55.983 15.2862 55.9482 15.1994C55.9135 15.1126 55.859 15.0351 55.789 14.9731L53.924 15.1911C54.0239 15.2365 54.1109 15.3059 54.1774 15.3932C54.2439 15.4804 54.2877 15.5828 54.305 15.6911V25.8191H56.289V25.8051C56.03 25.7501 56.003 25.4511 55.989 25.3561V22.6061H56.016L58.725 25.8321H60.781L57.718 22.1571L60.772 18.8901ZM75.066 20.5241C75.0387 20.3908 75.0113 20.2684 74.984 20.1571L74.861 19.8571C74.6806 19.5165 74.4128 19.23 74.085 19.0271C73.7022 18.8153 73.2705 18.7074 72.833 18.7141C72.5845 18.712 72.337 18.7457 72.098 18.8141C71.8754 18.8754 71.6606 18.9624 71.458 19.0731C71.2563 19.1811 71.0688 19.3137 70.9 19.4681C70.7329 19.6245 70.5824 19.7977 70.451 19.9851H70.424C70.2631 19.5827 69.9705 19.2468 69.594 19.0321C69.214 18.8263 68.787 18.7229 68.355 18.7321C68.1065 18.73 67.8589 18.7637 67.62 18.8321C67.3991 18.8983 67.1848 18.985 66.98 19.0911C66.7949 19.1948 66.6215 19.3181 66.463 19.4591C66.3213 19.5858 66.1936 19.7273 66.082 19.8811H66.055C66.0649 19.6863 66.0281 19.492 65.9475 19.3144C65.867 19.1368 65.7451 18.981 65.592 18.8601L64.135 19.1601C64.366 19.2691 64.489 19.6231 64.475 20.1131V25.8311H66.463V25.8171C66.218 25.7621 66.177 25.4491 66.177 25.3681V21.0681C66.2901 20.9279 66.4178 20.8002 66.558 20.6871C66.6938 20.5716 66.8449 20.4754 67.007 20.4011C67.1563 20.3262 67.3111 20.2627 67.47 20.2111C67.6162 20.1696 67.7671 20.1467 67.919 20.1431C68.154 20.1256 68.3871 20.197 68.572 20.3431C68.7292 20.468 68.8358 20.6457 68.872 20.8431C68.8987 20.9549 68.9168 21.0686 68.926 21.1831C68.938 21.3188 68.9426 21.455 68.94 21.5911V25.8111H70.628V21.0461C70.741 20.9059 70.8687 20.7781 71.009 20.6651C71.1469 20.5525 71.2976 20.4565 71.458 20.3791C71.6073 20.3038 71.7621 20.24 71.921 20.1881C72.072 20.1465 72.2275 20.1236 72.384 20.1201C72.6148 20.1046 72.8431 20.1759 73.024 20.3201C73.1805 20.4478 73.2905 20.6236 73.337 20.8201C73.3637 20.9319 73.3818 21.0455 73.391 21.1601C73.4029 21.2958 73.4076 21.432 73.405 21.5681V25.7881H75.089V21.4881C75.089 21.2881 75.089 21.0931 75.075 20.9301C75.0977 20.7942 75.0929 20.6552 75.061 20.5211M82.535 18.8471L80.97 19.1471C81.215 19.2561 81.351 19.5831 81.338 20.0591V22.9721C81.3517 23.2932 81.2961 23.6135 81.175 23.9111C81.0757 24.1345 80.9027 24.3169 80.685 24.4281C80.446 24.5533 80.1786 24.6143 79.909 24.6051C79.6514 24.6096 79.396 24.5585 79.16 24.4551C78.9477 24.3562 78.7751 24.1884 78.67 23.9791C78.5957 23.8433 78.545 23.6959 78.52 23.5431C78.4909 23.3445 78.4771 23.1439 78.479 22.9431V19.8661C78.4855 19.6709 78.4443 19.4771 78.3589 19.3014C78.2735 19.1257 78.1466 18.9736 77.989 18.8581L76.423 19.1581C76.641 19.2581 76.763 19.5261 76.791 19.9071V23.1201C76.7875 23.4092 76.8211 23.6975 76.891 23.9781C76.9447 24.2308 77.0364 24.4739 77.163 24.6991C77.4072 25.1078 77.7675 25.4347 78.198 25.6381C78.7368 25.8955 79.3304 26.0171 79.927 25.9921C80.2614 25.9941 80.595 25.9575 80.921 25.8831C81.1983 25.8206 81.4669 25.7246 81.721 25.5971C82.163 25.3546 82.5266 24.9911 82.769 24.5491C82.9709 24.1001 83.0686 23.6113 83.055 23.1191V19.8531C83.0531 19.6566 83.0054 19.4633 82.9156 19.2885C82.8259 19.1136 82.6966 18.9622 82.538 18.8461M108.118 24.5231C107.925 24.5616 107.729 24.5801 107.533 24.5781C107.376 24.6002 107.217 24.582 107.069 24.5251C106.921 24.4683 106.79 24.3746 106.689 24.2531C106.595 24.0677 106.553 23.8605 106.567 23.6531V20.2911H108.567V18.8911H106.567V16.9721C106.553 16.5771 106.367 16.4821 106.367 16.4821L104.502 16.7001C104.602 16.7455 104.689 16.8149 104.755 16.9022C104.822 16.9894 104.866 17.0918 104.883 17.2001V18.9001H103.59V20.3001H104.883V23.8941C104.869 24.2464 104.925 24.5981 105.046 24.9291C105.198 25.2859 105.474 25.5758 105.822 25.7461C106.269 25.9536 106.759 26.0517 107.251 26.0321C107.502 26.0329 107.752 26.0149 108 25.9781C108.23 25.9525 108.458 25.907 108.681 25.8421V24.4421C108.504 24.4561 108.313 24.4971 108.123 24.5241M92.753 20.6311C92.9398 20.454 93.1625 20.3193 93.406 20.2361C93.6564 20.1538 93.9184 20.1126 94.182 20.1141C94.4242 20.1084 94.6662 20.1312 94.903 20.1821H94.917C95.0773 20.2114 95.233 20.2618 95.38 20.3321C95.509 20.3777 95.616 20.4702 95.68 20.5911L95.952 19.2841C95.9153 19.2205 95.8664 19.1649 95.808 19.1204C95.7497 19.076 95.683 19.0436 95.612 19.0251C95.3618 18.9217 95.1018 18.844 94.836 18.7931C94.5392 18.7375 94.2379 18.7101 93.936 18.7111C93.5048 18.7128 93.0769 18.7865 92.67 18.9291C92.2436 19.065 91.8498 19.2873 91.513 19.5821C91.1538 19.9068 90.8704 20.3066 90.683 20.7531C90.4537 21.2899 90.3422 21.8696 90.356 22.4531C90.347 22.9876 90.4393 23.519 90.628 24.0191C90.7982 24.4372 91.0584 24.8128 91.39 25.1191C91.7218 25.4065 92.1053 25.6281 92.52 25.7721C92.9712 25.9224 93.4445 25.9961 93.92 25.9901C94.2494 25.9926 94.578 25.9591 94.9 25.8901C95.1668 25.8369 95.427 25.7547 95.676 25.6451V24.2701C95.4456 24.3637 95.2091 24.4412 94.968 24.5021C94.6922 24.5721 94.4085 24.6056 94.124 24.6021C93.8143 24.6136 93.5062 24.553 93.224 24.4251C92.9826 24.3139 92.7652 24.1566 92.584 23.9621C92.4139 23.7592 92.2885 23.5228 92.216 23.2681C92.1333 22.99 92.0919 22.7013 92.093 22.4111C92.0853 22.0458 92.1404 21.6818 92.256 21.3351C92.3753 21.0715 92.5413 20.8317 92.746 20.6271M35.651 23.2681C35.5911 23.5297 35.4851 23.7786 35.338 24.0031C35.2076 24.202 35.03 24.3656 34.821 24.4791C34.5977 24.5918 34.3501 24.6478 34.1 24.6421C33.9433 24.6405 33.7875 24.6176 33.637 24.5741C33.499 24.5365 33.3664 24.4817 33.242 24.4111C33.1255 24.3453 33.016 24.2679 32.915 24.1801L32.67 23.9481V20.6261C32.8863 20.4584 33.1245 20.3212 33.378 20.2181C33.6209 20.1226 33.8791 20.0718 34.14 20.0681C34.3247 20.0686 34.5083 20.0962 34.685 20.1501C34.8857 20.2148 35.0679 20.327 35.216 20.4771C35.4007 20.6815 35.5398 20.9228 35.624 21.1851C35.7279 21.5479 35.7785 21.9238 35.774 22.3011C35.7642 22.6263 35.723 22.9498 35.651 23.2671M36.577 19.5671C36.3055 19.2854 35.9754 19.0669 35.61 18.9271C35.2492 18.7881 34.8666 18.7143 34.48 18.7091C34.2925 18.7065 34.1054 18.725 33.922 18.7641C33.7546 18.7931 33.5904 18.8387 33.432 18.9001C33.2867 18.9529 33.1456 19.0168 33.01 19.0911C32.887 19.1591 32.765 19.2411 32.656 19.3091H32.642C32.642 19.2091 32.656 19.0781 32.656 18.9011C32.656 18.7241 32.67 18.5331 32.67 18.3291V15.4431H32.656C32.642 15.0621 32.465 14.9531 32.465 14.9531L30.586 15.1531C30.6892 15.1984 30.7787 15.27 30.8456 15.3607C30.9124 15.4514 30.9543 15.5581 30.967 15.6701V24.1791C30.967 24.4511 30.967 24.7371 30.953 25.0371C30.939 25.3371 30.939 25.5951 30.926 25.7991H32.326L32.489 25.0641H32.516C32.584 25.1461 32.666 25.2411 32.775 25.3501C32.8963 25.4631 33.0286 25.5636 33.17 25.6501C33.3447 25.7554 33.5322 25.8378 33.728 25.8951C33.9587 25.9587 34.1967 25.9923 34.436 25.9951C34.8134 25.995 35.1871 25.9209 35.536 25.7771C35.9106 25.6223 36.2456 25.3851 36.516 25.0831C36.826 24.7377 37.0664 24.3357 37.224 23.8991C37.4123 23.3659 37.5044 22.8035 37.496 22.2381C37.5054 21.7104 37.4225 21.1852 37.251 20.6861C37.1111 20.2675 36.8783 19.8859 36.57 19.5701M42.805 23.9261L42.546 24.1851C42.4355 24.2729 42.3169 24.3503 42.192 24.4161C42.0582 24.4867 41.9166 24.5414 41.77 24.5791C41.6119 24.6302 41.446 24.6532 41.28 24.6471C41.1463 24.6502 41.013 24.632 40.885 24.5931C40.7654 24.5563 40.6543 24.4961 40.558 24.4161C40.4666 24.3367 40.3924 24.2393 40.34 24.1301C40.2844 24.0014 40.2564 23.8624 40.258 23.7221C40.2486 23.5775 40.2762 23.4329 40.3381 23.3018C40.4 23.1708 40.4943 23.0576 40.612 22.9731C40.9073 22.7965 41.2483 22.7112 41.592 22.7281C41.806 22.7286 42.0197 22.7423 42.232 22.7691C42.4199 22.7951 42.6062 22.8315 42.79 22.8781V23.9261H42.805ZM44.52 25.3691C44.52 25.2331 44.506 25.0831 44.506 24.9341C44.492 24.6071 44.492 24.2131 44.492 23.7501V21.1331C44.4931 20.8013 44.4282 20.4726 44.301 20.1661C44.1718 19.8638 43.9711 19.5975 43.716 19.3901C43.4376 19.1654 43.1189 18.9957 42.777 18.8901C42.3466 18.7504 41.8953 18.6858 41.443 18.6991C41.0315 18.6976 40.621 18.7388 40.218 18.8221C39.8399 18.9012 39.4712 19.0199 39.118 19.1761C38.805 19.3121 38.764 19.4351 38.764 19.4351L39.064 20.6741C39.0913 20.6137 39.1308 20.5597 39.1801 20.5153C39.2293 20.4709 39.2871 20.4371 39.35 20.4161C39.6389 20.3102 39.9346 20.2236 40.235 20.1571C40.5747 20.0811 40.922 20.0446 41.27 20.0481C41.5105 20.0434 41.75 20.0803 41.978 20.1571C42.1573 20.2129 42.3206 20.311 42.454 20.4431C42.5722 20.5509 42.6613 20.6868 42.713 20.8381C42.7678 20.9912 42.7956 21.1526 42.795 21.3151V21.6011C42.5753 21.544 42.3526 21.4985 42.128 21.4651C41.8532 21.425 41.5757 21.4067 41.298 21.4101C40.9198 21.4059 40.5432 21.4609 40.182 21.5731C39.8642 21.669 39.5683 21.8263 39.311 22.0361C39.0651 22.2435 38.8695 22.504 38.739 22.7981C38.6011 23.111 38.5328 23.4502 38.539 23.7921C38.5305 24.1054 38.5909 24.4167 38.716 24.7041C38.8312 24.9624 38.9925 25.1977 39.192 25.3981C39.3983 25.6035 39.6501 25.7573 39.927 25.8471C40.2256 25.9464 40.5383 25.9971 40.853 25.9971C41.2902 26.0013 41.7212 25.8935 42.105 25.6841C42.2682 25.5985 42.4231 25.498 42.568 25.3841C42.6905 25.2902 42.8043 25.1854 42.908 25.0711H42.935L43.017 25.8061H44.817V25.7921C44.586 25.7511 44.545 25.4791 44.531 25.3701" fill="#393939"/>
<path d="M75.309 9.74953C74.409 9.74953 73.934 8.86454 73.934 7.54454C73.934 6.22454 74.383 5.65254 75.309 5.65254C76.235 5.65254 76.657 6.23754 76.67 7.54454C76.683 8.85154 76.194 9.74953 75.309 9.74953ZM49.076 9.70854C48.123 9.70854 47.606 8.71452 47.592 7.40852C47.606 6.10152 48.137 5.62554 49.076 5.60853C50.002 5.62253 50.533 6.09852 50.546 7.40852C50.559 8.71852 50.029 9.70854 49.076 9.70854ZM40.35 9.17754C40.3397 9.34565 40.3169 9.51276 40.282 9.67754H33.829C34.1015 8.80582 34.5721 8.00901 35.204 7.34953C35.5074 6.90947 35.8987 6.53708 36.3533 6.25584C36.8079 5.97461 37.3158 5.79063 37.845 5.71553H37.954C38.3169 5.74266 38.6687 5.85247 38.9826 6.03654C39.2965 6.22062 39.5642 6.4741 39.765 6.77754C40.1752 7.50924 40.3775 8.33916 40.35 9.17754ZM78.304 7.54353C78.3349 6.76 78.1255 5.98574 77.704 5.32454L77.677 5.28352L77.663 5.26955L77.622 5.21553C77.3425 4.87853 76.987 4.6127 76.5847 4.43989C76.1824 4.26709 75.7449 4.19226 75.308 4.22154C74.8574 4.188 74.4055 4.26607 73.9923 4.44887C73.5791 4.63167 73.2173 4.91356 72.939 5.26955C72.4901 5.94023 72.266 6.73618 72.299 7.54253V8.01955C72.299 8.97255 71.85 9.69353 70.992 9.69353H67.153V9.20354V6.27653L67.139 6.20854C67.1395 6.10546 67.1179 6.00348 67.0756 5.90947C67.0334 5.81545 66.9714 5.73158 66.894 5.66353H66.88L66.866 5.64952L64.838 5.88054L65.205 6.03053C65.284 6.06618 65.3528 6.12097 65.4052 6.18996C65.4575 6.25894 65.4919 6.3399 65.505 6.42552V9.29753L65.491 9.32454L65.382 9.52452C65.246 9.63352 65.191 9.66054 65.096 9.66054H62.714V6.84953C62.687 6.45453 62.496 6.31852 62.455 6.30452L62.441 6.29054L60.426 6.52153L60.78 6.68452C60.8617 6.71614 60.933 6.76981 60.9859 6.83955C61.0389 6.90929 61.0715 6.99238 61.08 7.07954V8.53654V9.28554L61.066 9.35353L60.957 9.54454C60.807 9.65354 60.757 9.68053 60.671 9.68053H58.32V7.51552C58.293 7.12052 58.102 6.99854 58.075 6.98454L58.061 6.97053L58.047 6.95653L56.019 7.18754L56.386 7.33754C56.4682 7.37394 56.5398 7.43035 56.5945 7.50163C56.6492 7.57291 56.6851 7.65677 56.699 7.74553V9.31154L56.685 9.35252L56.562 9.54353C56.426 9.65253 56.371 9.67952 56.276 9.67952H51.525C51.8765 9.00127 52.0675 8.25131 52.083 7.48753L52.097 7.22853C52.1156 6.52725 51.8948 5.84056 51.471 5.28154C51.196 4.90737 50.8309 4.60883 50.4095 4.41371C49.9881 4.21859 49.5242 4.13322 49.061 4.16554C48.5983 4.13754 48.1359 4.22482 47.7153 4.4196C47.2946 4.61438 46.9289 4.91057 46.651 5.28154C46.2294 5.85604 46.0176 6.55775 46.051 7.26955V7.46052C46.0434 8.23254 46.2257 8.99458 46.582 9.67952H41.913C41.927 9.51652 41.927 9.35253 41.927 9.20253C41.986 8.13997 41.7555 7.08134 41.26 6.13954C40.9367 5.54854 40.463 5.05343 39.8868 4.70433C39.3107 4.35523 38.6525 4.16454 37.979 4.15153H37.857C37.0619 4.17251 36.2845 4.3913 35.5952 4.78816C34.9059 5.18502 34.3264 5.74745 33.909 6.42454V1.83653H33.895C33.8906 1.74958 33.8677 1.66456 33.8279 1.58714C33.7881 1.50972 33.7322 1.44167 33.664 1.38753H33.65L33.636 1.37352L31.621 1.60454L31.975 1.75453C32.0551 1.78859 32.1248 1.84294 32.1774 1.91222C32.23 1.98149 32.2637 2.06327 32.275 2.14952L32.248 9.63652H31.023C30.9393 9.62294 30.8604 9.58829 30.7937 9.53581C30.727 9.48333 30.6748 9.41475 30.642 9.33653L30.574 9.18654L30.474 8.96852L30.29 10.8695L30.304 10.8965C30.3596 10.9666 30.4299 11.0235 30.5099 11.0635C30.5899 11.1034 30.6776 11.1253 30.767 11.1275V11.1415H71.049C71.8536 11.1893 72.645 10.9205 73.254 10.3925C73.821 10.9001 74.5625 11.1685 75.323 11.1415H75.337C75.7865 11.1712 76.2365 11.0898 76.6472 10.9046C77.0578 10.7194 77.4167 10.4361 77.692 10.0795C78.1269 9.30862 78.3392 8.43202 78.305 7.54753L78.304 7.54353ZM48.004 2.90153C48.1193 2.90153 48.2335 2.87882 48.34 2.8347C48.4465 2.79058 48.5433 2.72589 48.6248 2.64436C48.7064 2.56283 48.7711 2.46607 48.8152 2.35954C48.8593 2.25302 48.882 2.13884 48.882 2.02354C48.882 1.90824 48.8593 1.79407 48.8152 1.68755C48.7711 1.58102 48.7064 1.48422 48.6248 1.40269C48.5433 1.32116 48.4465 1.25648 48.34 1.21236C48.2335 1.16823 48.1193 1.14552 48.004 1.14552C47.7713 1.14419 47.5475 1.2351 47.3817 1.39833C47.2158 1.56156 47.1214 1.78383 47.119 2.01652C47.1208 2.25068 47.2147 2.47473 47.3802 2.6403C47.5458 2.80588 47.7698 2.8997 48.004 2.90153ZM50.277 2.90153C50.4501 2.90015 50.6188 2.84766 50.7621 2.75066C50.9055 2.65365 51.0169 2.51645 51.0825 2.35631C51.1481 2.19616 51.1649 2.0202 51.1308 1.85054C51.0967 1.68088 51.0132 1.52509 50.8908 1.40272C50.7684 1.28036 50.6127 1.19687 50.443 1.16276C50.2733 1.12866 50.0974 1.14546 49.9372 1.21104C49.7771 1.27663 49.6399 1.38808 49.5429 1.53139C49.4459 1.6747 49.3934 1.84348 49.392 2.01652C49.3938 2.25068 49.4877 2.47473 49.6532 2.6403C49.8188 2.80588 50.0429 2.8997 50.277 2.90153Z" fill="#393939"/>
<path d="M100.466 4.53931C100.227 4.53931 99.9984 4.44451 99.8296 4.27573C99.6608 4.10694 99.566 3.87801 99.566 3.63931C99.566 3.40062 99.6608 3.17171 99.8296 3.00293C99.9984 2.83415 100.227 2.73932 100.466 2.73932C100.702 2.73929 100.929 2.83204 101.097 2.99759C101.266 3.16314 101.362 3.38824 101.366 3.62433C101.362 3.8629 101.266 4.09073 101.099 4.26056C100.931 4.43039 100.704 4.52915 100.466 4.53632M85.083 6.87833V6.86432L85.097 6.85031L85.111 6.83633C85.124 6.79533 85.233 6.68631 85.479 6.67331H86.513V6.52332C86.495 6.27051 86.5297 6.01671 86.6149 5.77802C86.7001 5.53932 86.8339 5.32092 87.0079 5.13666C87.1819 4.95239 87.3923 4.80627 87.6257 4.70758C87.8592 4.60889 88.1106 4.55977 88.364 4.56332C88.6099 4.57237 88.8513 4.6314 89.0736 4.73679C89.2959 4.84218 89.4944 4.99173 89.657 5.17633L89.684 5.20331L89.834 5.25833H89.847L89.902 5.24432L90.378 5.12231L89.316 6.15732H89.261C89.1527 6.14668 89.0516 6.09859 88.975 6.02133L88.909 5.95932V5.94531L88.868 5.90433C88.8021 5.81368 88.7163 5.73944 88.6171 5.68741C88.5179 5.63537 88.408 5.60693 88.296 5.60431C87.82 5.61831 87.642 5.82233 87.629 6.40433V6.67633H89.862V7.72433H85.628L85.451 7.86032L85.274 8.29633L85.083 6.87833ZM92.72 10.2403C92.4281 10.5677 92.0658 10.8247 91.6603 10.9922C91.2549 11.1597 90.8169 11.2332 90.379 11.2073H84.716C84.3474 11.2351 83.9772 11.1851 83.6292 11.0605C83.2813 10.9358 82.9634 10.7394 82.6964 10.4839C82.4293 10.2284 82.2189 9.9196 82.079 9.57751C81.939 9.23543 81.8726 8.86775 81.884 8.49832V6.79831V6.49832C81.8705 6.41458 81.8357 6.33566 81.7833 6.26901C81.7308 6.20236 81.6622 6.15015 81.584 6.11731L81.149 5.92633L83.259 5.6813L83.272 5.69531H83.286C83.3618 5.74747 83.4246 5.81635 83.4695 5.89664C83.5144 5.97692 83.5402 6.06646 83.545 6.15833V6.21231L83.559 6.28033H83.549V6.48032V8.37231C83.576 9.29831 83.957 9.69333 84.91 9.70633L90.287 9.72031C91.24 9.69331 91.635 9.29832 91.662 8.38632V1.47031C91.6487 1.3884 91.6157 1.31096 91.5659 1.2446C91.5161 1.17824 91.451 1.12497 91.376 1.08932L90.94 0.898315L93.05 0.65332L93.064 0.667328H93.078C93.1518 0.721497 93.2131 0.790857 93.2578 0.870728C93.3024 0.950598 93.3295 1.0391 93.337 1.13031V1.18433L93.351 1.23831H93.337V7.90933C93.351 9.13433 93.868 9.67932 95.052 9.69232L98.305 9.70633C99.258 9.67933 99.653 9.2843 99.68 8.3063V8.23831V6.49933C99.6667 6.41743 99.6337 6.33998 99.5839 6.27362C99.5341 6.20726 99.4689 6.15396 99.394 6.11832L98.958 5.92731L101.082 5.68231L101.109 5.69632H101.123C101.192 5.74493 101.249 5.80779 101.292 5.88062C101.334 5.95344 101.36 6.0345 101.368 6.11832H101.382V6.25433V8.35431C101.409 9.29331 101.79 9.68833 102.743 9.70233L105.751 9.71631C106.69 9.68931 107.085 9.29431 107.099 8.31631V4.99432C107.088 4.91148 107.056 4.83281 107.006 4.76602C106.956 4.69923 106.89 4.6466 106.813 4.61331L106.377 4.42233L108.487 4.17731L108.514 4.19131L108.528 4.20532C108.569 4.21932 108.746 4.35532 108.787 4.72232V5.00833V8.42532C108.797 8.79367 108.731 9.16014 108.594 9.50195C108.456 9.84377 108.249 10.1536 107.987 10.4123C107.7 10.6779 107.364 10.8844 106.997 11.0199C106.63 11.1555 106.241 11.2175 105.85 11.2023H102.65C101.885 11.2318 101.138 10.9632 100.567 10.4533C99.9888 10.9628 99.2371 11.2309 98.467 11.2023H94.967C94.5435 11.2368 94.1179 11.1681 93.7267 11.0021C93.3356 10.8362 92.9905 10.5779 92.721 10.2493M106.933 12.2913C107.169 12.2913 107.396 12.384 107.564 12.5496C107.733 12.7151 107.829 12.9402 107.833 13.1763C107.837 13.2959 107.817 13.4151 107.774 13.5267C107.731 13.6384 107.666 13.7403 107.583 13.8263C107.5 13.9123 107.4 13.9807 107.29 14.0274C107.18 14.0741 107.061 14.0982 106.942 14.0982C106.822 14.0982 106.703 14.0741 106.593 14.0274C106.483 13.9807 106.383 13.9123 106.3 13.8263C106.217 13.7403 106.152 13.6384 106.109 13.5267C106.066 13.4151 106.046 13.2959 106.05 13.1763C106.05 13.06 106.072 12.9448 106.117 12.8373C106.161 12.7298 106.226 12.6322 106.309 12.55C106.391 12.4677 106.489 12.4025 106.596 12.3582C106.704 12.3138 106.819 12.2911 106.935 12.2913" fill="#393939"/>
<path d="M18.01 8.35013C17.91 7.98313 17.81 7.60112 17.67 7.22012C17.561 6.86612 17.425 6.51214 17.289 6.15814C17.098 5.66814 16.881 5.16413 16.636 4.67413C16.391 4.18413 16.119 3.68013 15.819 3.17413C15.778 3.10613 15.737 3.03812 15.696 2.98312C15.496 2.65612 15.288 2.34312 15.056 2.03012C14.988 1.92112 14.906 1.83013 14.838 1.71713C14.77 1.60413 14.675 1.49914 14.579 1.39014C14.443 1.49014 14.293 1.59012 14.157 1.69012C13.966 1.82612 13.789 1.96211 13.599 2.09811C13.368 2.26111 13.15 2.42513 12.932 2.58813C12.592 2.83313 12.251 3.07813 11.911 3.33713C11.734 3.46013 11.557 3.59614 11.38 3.71814C10.958 4.03114 10.522 4.33113 10.1 4.64413C9.70499 4.94413 9.29999 5.22911 8.89999 5.52911C8.76399 5.62911 8.64099 5.72012 8.50499 5.81512L8.342 5.93713C8.301 5.96413 8.24199 6.00514 8.20599 6.03714L8.084 6.11914C8.016 6.17414 7.94799 6.21913 7.88399 6.26913C8.06099 6.31013 8.252 6.36913 8.429 6.41913C8.59013 6.46097 8.749 6.51102 8.905 6.56912C9.3755 6.72912 9.83484 6.9202 10.28 7.14111C10.3704 7.1782 10.4571 7.22375 10.539 7.27713C11.1875 7.62168 11.7987 8.03219 12.363 8.50214C12.9102 8.94536 13.4203 9.43266 13.888 9.95914C14.106 10.1901 14.31 10.4351 14.501 10.6811C14.61 10.8171 14.701 10.9531 14.814 11.0891C14.991 11.3211 15.154 11.5661 15.314 11.8101C15.328 11.8241 15.328 11.8371 15.341 11.8371C15.382 11.8921 15.409 11.9461 15.45 12.0001C15.4786 12.0487 15.5121 12.0943 15.55 12.1361C15.591 12.2041 15.65 12.2861 15.686 12.3541C16.5028 13.6924 17.1695 15.1167 17.674 16.6011C17.933 17.3361 18.096 17.9491 18.205 18.3571C18.305 18.7251 18.341 18.9291 18.341 18.9421C18.355 18.8881 18.368 18.8331 18.382 18.7651C18.396 18.6971 18.409 18.6421 18.423 18.5651C18.45 18.4291 18.477 18.2521 18.523 18.0341C18.537 17.9341 18.55 17.8571 18.564 17.7481C18.591 17.5571 18.618 17.3401 18.646 17.1081C18.66 16.9581 18.687 16.7951 18.7 16.6181C18.714 16.4821 18.727 16.3321 18.741 16.1821C18.755 16.0731 18.755 15.9511 18.768 15.8281C18.795 15.3381 18.809 14.7931 18.809 14.2081C18.809 13.5681 18.782 12.8741 18.709 12.1391C18.5663 10.8611 18.3327 9.59492 18.01 8.35013Z" fill="#393939"/>
<path d="M12.892 12.3675C13.164 12.0955 13.328 11.9595 13.328 11.9595H13.314C13.3036 11.9606 13.2939 11.9656 13.287 11.9735C13.246 11.9875 13.187 12.0005 13.151 12.0145C13.086 12.0332 13.0222 12.0559 12.96 12.0825C12.824 12.1235 12.66 12.1915 12.46 12.2735C12.378 12.3005 12.283 12.3415 12.188 12.3825C12.011 12.4505 11.807 12.5325 11.603 12.6275C11.4697 12.6821 11.32 12.7488 11.154 12.8275C11.031 12.8815 10.895 12.9495 10.759 13.0185C10.659 13.0725 10.559 13.1185 10.446 13.1685C10.01 13.3865 9.52 13.6455 9.03 13.9445C8.472 14.2715 7.886 14.6385 7.287 15.0605C6.22237 15.807 5.22311 16.6427 4.3 17.5585C4.028 17.8305 3.755 18.1165 3.5 18.4165C3.255 18.6885 3.01 18.9745 2.778 19.2745C2.451 19.6965 2.125 20.1325 1.811 20.5815C1.497 21.0305 1.211 21.5205 0.926003 22.0385C0.885002 22.1065 0.858001 22.1745 0.817001 22.2385C0.640001 22.5655 0.477001 22.9195 0.317001 23.2595C0.263001 23.3825 0.208 23.4915 0.167 23.6135C0.126 23.7355 0.0579978 23.8725 0.0039978 23.9945C0.166998 24.0625 0.317003 24.1305 0.480003 24.2125C0.680003 24.3125 0.902003 24.4035 1.12 24.4985C1.379 24.6075 1.62 24.7165 1.882 24.8385C2.263 25.0015 2.644 25.1785 3.039 25.3385C3.239 25.4205 3.434 25.5155 3.639 25.5975C4.115 25.8155 4.592 26.0335 5.082 26.2375C5.477 26.4145 5.858 26.5915 6.253 26.7545C6.307 26.7815 6.376 26.8085 6.444 26.8365C6.594 26.9045 6.744 26.9595 6.88 27.0275C6.948 27.0545 7.003 27.0825 7.071 27.1095C7.12277 27.1379 7.17741 27.1607 7.234 27.1775L7.602 27.3405C7.548 27.1635 7.493 26.9865 7.452 26.7955C7.411 26.6325 7.37 26.4685 7.343 26.3055C7.24677 25.8156 7.18296 25.3198 7.152 24.8215C7.152 24.7215 7.138 24.6305 7.138 24.5215C7.11414 23.7882 7.15968 23.0542 7.274 22.3295C7.3843 21.6317 7.55153 20.944 7.774 20.2735C7.874 19.9735 7.974 19.6735 8.101 19.3885C8.15639 19.2309 8.22015 19.0763 8.292 18.9255V18.9115C8.29185 18.9096 8.2921 18.9077 8.29276 18.9059C8.29341 18.9042 8.29444 18.9026 8.29577 18.9012C8.2971 18.8999 8.2987 18.8989 8.30047 18.8983C8.30224 18.8976 8.30412 18.8973 8.306 18.8975C8.429 18.6115 8.551 18.3395 8.687 18.0805C8.714 18.0265 8.741 17.9715 8.769 17.9035C8.797 17.8355 8.823 17.8035 8.851 17.7535C8.892 17.6715 8.933 17.6035 8.974 17.5355C9.73437 16.1588 10.6395 14.8671 11.674 13.6825C12.0555 13.2221 12.4621 12.7831 12.892 12.3675Z" fill="#393939"/>
<path d="M9.42101 20.3993C9.05301 20.2903 8.849 20.2223 8.849 20.2223H8.86301C8.87025 20.2298 8.87972 20.2347 8.89 20.2363C8.931 20.2633 8.95799 20.3043 8.99899 20.3363C9.03999 20.3683 9.099 20.4183 9.149 20.4723C9.258 20.5723 9.394 20.6723 9.571 20.8123L9.789 20.9893C9.939 21.1123 10.116 21.2343 10.289 21.3703C10.412 21.4703 10.548 21.5613 10.684 21.6563C10.82 21.7513 10.915 21.8193 11.052 21.9013C11.152 21.9693 11.243 22.0243 11.338 22.0923C11.746 22.3643 12.209 22.6503 12.713 22.9363C13.271 23.2633 13.884 23.5763 14.551 23.8893C15.7261 24.4387 16.9467 24.8851 18.199 25.2233C18.567 25.3233 18.961 25.4143 19.343 25.4953C19.697 25.5766 20.0637 25.6433 20.443 25.6953C20.974 25.7773 21.505 25.8313 22.063 25.8723C22.621 25.9133 23.179 25.9273 23.763 25.9133H23.981C24.362 25.8993 24.743 25.8723 25.125 25.8453L25.506 25.8043C25.642 25.7903 25.778 25.7773 25.928 25.7503C25.914 25.5733 25.887 25.4103 25.874 25.2333C25.847 25.0023 25.82 24.7703 25.806 24.5393C25.779 24.2673 25.752 23.9813 25.724 23.7083C25.683 23.2863 25.624 22.8783 25.588 22.4563C25.561 22.2383 25.547 22.0203 25.52 21.8023C25.466 21.2853 25.411 20.7543 25.357 20.2363C25.316 19.8143 25.275 19.3783 25.221 18.9563C25.207 18.8883 25.207 18.8203 25.194 18.7563C25.18 18.5933 25.153 18.4433 25.14 18.2793C25.1374 18.2119 25.1284 18.1449 25.113 18.0793C25.113 18.0243 25.099 17.9563 25.099 17.9023C25.085 17.7663 25.072 17.6303 25.058 17.5073C24.922 17.6433 24.799 17.7793 24.663 17.9023C24.527 18.0253 24.418 18.1333 24.295 18.2423C23.9223 18.5701 23.5266 18.8709 23.111 19.1423L22.866 19.3053C22.2403 19.6898 21.5793 20.0136 20.892 20.2723C20.2324 20.5239 19.5544 20.7246 18.864 20.8723C18.5507 20.939 18.2377 20.9933 17.925 21.0353C17.762 21.0623 17.598 21.0763 17.435 21.1033H17.408L16.508 21.1853C16.44 21.1853 16.385 21.1993 16.317 21.1993H16.154C16.0674 21.1975 15.9809 21.2022 15.895 21.2133C14.3237 21.2504 12.7532 21.1136 11.212 20.8053C10.6068 20.7093 10.0085 20.5736 9.42101 20.3993Z" fill="#393939"/>
</g>
</svg>
