<svg width="176" height="43" viewBox="0 0 176 43" fill="none" xmlns="http://www.w3.org/2000/svg">
<path d="M163.645 37.4257L163.227 37.8201C163.048 37.9619 162.856 38.0867 162.654 38.1931C162.432 38.3011 162.205 38.3962 161.972 38.4778C161.713 38.5471 161.446 38.5829 161.179 38.5843C160.962 38.5787 160.747 38.5494 160.537 38.497C160.341 38.4426 160.161 38.3454 160.008 38.2123C159.86 38.0843 159.741 37.9276 159.656 37.7518C159.563 37.5372 159.518 37.3053 159.523 37.0718C159.51 36.8366 159.557 36.6019 159.661 36.3905C159.766 36.1791 159.923 35.9982 160.118 35.8652C160.587 35.5573 161.144 35.4109 161.704 35.4483C162.056 35.4483 162.387 35.492 162.739 35.5144C163.043 35.5558 163.344 35.6141 163.642 35.6892L163.645 37.4257ZM166.42 39.7708C166.42 39.5512 166.397 39.3316 166.397 39.0683C166.397 38.5417 166.376 37.9054 166.376 37.1592V32.969C166.378 32.4346 166.273 31.9052 166.068 31.4116C165.861 30.9357 165.544 30.515 165.143 30.1837C164.687 29.811 164.164 29.5282 163.601 29.3501C162.909 29.1354 162.186 29.0318 161.461 29.0431C160.796 29.0512 160.133 29.1172 159.479 29.2403C158.86 29.3705 158.255 29.5616 157.673 29.8106C157.167 30.0302 157.101 30.2274 157.101 30.2274L157.585 32.2239C157.625 32.1272 157.685 32.0401 157.761 31.9682C157.837 31.8964 157.927 31.8415 158.026 31.8071C158.5 31.6337 158.986 31.4944 159.479 31.3904C160.028 31.2656 160.59 31.2065 161.153 31.2144C161.542 31.2089 161.929 31.2684 162.298 31.3904C162.586 31.4855 162.849 31.6427 163.068 31.8508C163.26 32.0325 163.404 32.2584 163.487 32.5085C163.575 32.7474 163.62 33.0001 163.618 33.2546V33.7151C163.264 33.6207 162.903 33.5474 162.54 33.4956C162.094 33.4425 161.645 33.4134 161.196 33.4082C160.577 33.4032 159.96 33.4919 159.368 33.6714C158.856 33.8308 158.378 34.0839 157.959 34.4176C157.562 34.7438 157.245 35.1567 157.034 35.6242C156.807 36.135 156.694 36.689 156.704 37.2477C156.703 37.7515 156.8 38.2507 156.99 38.7176C157.168 39.1509 157.439 39.5404 157.783 39.8592C158.129 40.1754 158.533 40.4213 158.973 40.583C159.456 40.7449 159.962 40.8267 160.471 40.8249C160.844 40.8308 161.216 40.7791 161.572 40.6715C161.895 40.5944 162.206 40.4761 162.498 40.3197C162.758 40.1872 163.002 40.0252 163.225 39.8368C163.418 39.6791 163.602 39.5104 163.776 39.3315H163.82L163.927 40.5169H166.834V40.4945C166.503 40.3634 166.438 39.9466 166.416 39.7708M84.769 31.5214C84.5322 30.7551 84.0336 30.0955 83.3597 29.6571C83.0312 29.4641 82.6745 29.3235 82.3024 29.2403C81.9122 29.1509 81.5129 29.107 81.1125 29.1092C80.7034 29.102 80.2954 29.1537 79.9012 29.2627C79.5329 29.3576 79.1777 29.4976 78.844 29.6795C78.5443 29.8462 78.2637 30.045 78.0072 30.2722C77.778 30.4764 77.5714 30.7044 77.3908 30.9522H77.3683C77.3845 30.6383 77.3249 30.325 77.1946 30.0387C77.0642 29.7523 76.867 29.5013 76.6193 29.3064L74.2651 29.7893C74.5958 29.9428 74.7713 30.382 74.8151 30.9746V40.5617H78.0307V40.5404C77.892 40.4894 77.7727 40.3963 77.6898 40.2743C77.6069 40.1523 77.5644 40.0076 77.5684 39.8603V32.8837C77.9193 32.4312 78.3619 32.0574 78.8675 31.7868C79.3337 31.5352 79.8568 31.4068 80.387 31.4138C80.738 31.401 81.0865 31.4765 81.4004 31.6334C81.7019 31.8023 81.9304 32.0759 82.0424 32.4019C82.1118 32.5852 82.1561 32.777 82.174 32.9722C82.1965 33.1917 82.1965 33.4551 82.1965 33.762V40.5841H84.9273V33.3442C84.9369 33.022 84.9222 32.6995 84.8835 32.3795C84.8954 32.0913 84.8592 31.8032 84.7765 31.5268M143.603 34.7523C143.285 34.5225 142.937 34.3377 142.568 34.2033C142.172 34.0722 141.797 33.9624 141.423 33.8739C141.181 33.8079 140.917 33.7418 140.653 33.6767C140.399 33.6093 140.149 33.5286 139.903 33.4348C139.69 33.34 139.495 33.2063 139.331 33.0404C139.19 32.8578 139.12 32.6308 139.133 32.4009L139.221 31.984L139.529 31.6334L139.793 31.4799C140.395 31.2443 141.046 31.1615 141.687 31.239C141.908 31.2603 142.128 31.2603 142.37 31.3051C142.679 31.3129 142.981 31.3956 143.251 31.546L143.427 31.6995L143.449 31.7218L143.536 31.8753L143.977 29.8564C143.977 29.8564 143.846 29.5494 143.251 29.3959H143.229L143.163 29.3736C142.965 29.3299 142.767 29.2861 142.547 29.2414C141.914 29.1245 141.273 29.0656 140.63 29.0655C140.087 29.0587 139.546 29.1327 139.025 29.2851C138.543 29.4279 138.089 29.6502 137.681 29.9428C137.299 30.2514 136.99 30.641 136.778 31.0833C136.548 31.5933 136.435 32.1479 136.447 32.7068C136.427 33.1509 136.51 33.5936 136.689 34.0008C136.845 34.336 137.07 34.6349 137.349 34.8781C137.638 35.1153 137.966 35.301 138.319 35.4271C138.699 35.5775 139.089 35.7022 139.486 35.8001C139.794 35.8662 140.102 35.9536 140.389 36.0197C140.653 36.0944 140.911 36.1899 141.16 36.3054C141.359 36.3928 141.539 36.5198 141.688 36.6785C141.832 36.8426 141.91 37.0534 141.909 37.2711C141.918 37.4858 141.847 37.6963 141.711 37.8627C141.584 38.0454 141.409 38.1897 141.205 38.2795C140.968 38.3914 140.715 38.4655 140.456 38.499C140.144 38.5628 139.827 38.5922 139.509 38.5865C139.037 38.5921 138.565 38.5565 138.099 38.4799C137.529 38.3767 136.969 38.2226 136.426 38.0194V40.2131C136.877 40.4091 137.35 40.549 137.835 40.6299C138.467 40.7487 139.109 40.8076 139.751 40.8057C140.411 40.8067 141.069 40.733 141.712 40.5862C142.266 40.4626 142.79 40.2315 143.254 39.9061C143.681 39.6114 144.022 39.2104 144.245 38.7431C144.492 38.2304 144.613 37.6661 144.597 37.0974C144.622 36.6032 144.516 36.1111 144.289 35.6712C144.154 35.3053 143.917 34.9857 143.606 34.7502M98.3236 29.3757H94.9314L90.6587 33.9166H90.5923V23.868C90.6058 23.7163 90.5828 23.5637 90.5253 23.4226C90.4678 23.2816 90.3774 23.1562 90.2617 23.0568L87.244 23.4075C87.4066 23.4809 87.5482 23.5937 87.6559 23.7356C87.7635 23.8775 87.8338 24.0439 87.8604 24.2198V40.5425H91.0706V40.5169C90.6522 40.4295 90.6084 39.9466 90.5859 39.7931V35.3609H90.6298L95.0171 40.5606H98.3429L93.3873 34.6372L98.3236 29.3757ZM121.449 32.0086C121.405 31.789 121.361 31.5914 121.317 31.4159L121.119 30.933C120.828 30.3841 120.394 29.9223 119.864 29.5953C119.244 29.2538 118.546 29.0799 117.837 29.0911C117.436 29.0853 117.035 29.1371 116.649 29.2446C116.289 29.3433 115.941 29.4832 115.614 29.6614C115.287 29.8361 114.984 30.051 114.711 30.3009C114.44 30.553 114.197 30.8323 113.984 31.1345H113.94C113.68 30.486 113.206 29.9446 112.597 29.5985C111.983 29.2671 111.292 29.1007 110.593 29.1156C110.191 29.1098 109.791 29.1615 109.404 29.2691C109.047 29.3757 108.701 29.5153 108.369 29.6859C108.07 29.8526 107.789 30.0513 107.533 30.2785C107.303 30.4828 107.097 30.7107 106.916 30.9586H106.872C106.889 30.6446 106.829 30.3314 106.699 30.045C106.568 29.7587 106.371 29.5076 106.123 29.3128L103.769 29.7957C104.144 29.9716 104.342 30.5418 104.32 31.3317V40.5467H107.536V40.5169C107.14 40.4295 107.074 39.9243 107.074 39.7931V32.8645C107.257 32.6386 107.463 32.4328 107.69 32.2505C107.91 32.0645 108.154 31.9096 108.417 31.7901C108.658 31.669 108.908 31.5664 109.166 31.4831C109.402 31.4169 109.646 31.3811 109.892 31.3765C110.274 31.35 110.651 31.4675 110.949 31.7058C111.205 31.9086 111.377 32.1969 111.434 32.517C111.477 32.6975 111.507 32.881 111.522 33.066C111.541 33.285 111.549 33.5049 111.544 33.7248V40.5254H114.275V32.8507C114.458 32.6247 114.665 32.4188 114.892 32.2367C115.115 32.0552 115.359 31.9007 115.618 31.7762C115.86 31.6551 116.11 31.5525 116.367 31.4692C116.612 31.4032 116.863 31.3674 117.116 31.3626C117.468 31.3393 117.816 31.4413 118.098 31.6505C118.381 31.8597 118.579 32.1624 118.658 32.5042C118.702 32.6843 118.731 32.8675 118.746 33.0521C118.765 33.2711 118.773 33.4911 118.768 33.7109V40.5115H121.499V33.5829C121.499 33.2536 121.499 32.9434 121.477 32.6833C121.513 32.4648 121.506 32.2411 121.454 32.0256M133.546 29.3267L131.013 29.8095C131.409 29.9854 131.63 30.512 131.608 31.2795V35.9696C131.63 36.4872 131.54 37.0035 131.344 37.4833C131.183 37.8435 130.904 38.1378 130.551 38.3168C130.165 38.5187 129.732 38.6172 129.296 38.6025C128.879 38.6098 128.466 38.5276 128.084 38.3616C127.741 38.2018 127.462 37.9314 127.292 37.5941C127.172 37.3751 127.09 37.1377 127.05 36.8916C127.003 36.5719 126.98 36.2491 126.983 35.9259V30.9554C126.994 30.6409 126.927 30.3286 126.789 30.0456C126.651 29.7627 126.445 29.5177 126.19 29.332L123.658 29.8149C124.01 29.9684 124.209 30.4075 124.253 31.0215V36.1988C124.244 36.6654 124.296 37.1311 124.407 37.5845C124.494 37.9921 124.642 38.3842 124.847 38.7474C125.243 39.406 125.825 39.9328 126.521 40.2611C127.393 40.6757 128.353 40.8715 129.318 40.8314C129.858 40.8344 130.397 40.7753 130.923 40.6554C131.374 40.5554 131.81 40.4007 132.222 40.195C132.938 39.8043 133.526 39.2182 133.919 38.5055C134.245 37.7822 134.403 36.9947 134.381 36.202V30.9362C134.378 30.6194 134.3 30.3078 134.155 30.0259C134.01 29.7441 133.801 29.4999 133.544 29.3128M174.928 38.4618C174.616 38.5238 174.299 38.5534 173.981 38.5502C173.727 38.5856 173.469 38.5557 173.23 38.4636C172.991 38.3714 172.779 38.22 172.616 38.0237C172.464 37.7256 172.396 37.3924 172.418 37.059V31.6397H175.656V29.3799H172.418V26.2888C172.395 25.6492 172.087 25.4989 172.087 25.4989L169.069 25.8496C169.232 25.923 169.374 26.0358 169.481 26.1776C169.589 26.3195 169.659 26.486 169.686 26.6618V29.4045H167.594V31.6643H169.686V37.4566C169.664 38.0242 169.753 38.5906 169.95 39.1237C170.196 39.6984 170.642 40.1656 171.205 40.4402C171.928 40.7743 172.721 40.9322 173.518 40.9007C173.923 40.9019 174.328 40.8726 174.729 40.8132C175.102 40.7721 175.47 40.6986 175.83 40.5936V38.3339C175.543 38.3562 175.235 38.4212 174.927 38.4649M150.062 32.1908C150.364 31.9043 150.724 31.6862 151.119 31.5513C151.524 31.4184 151.948 31.3518 152.374 31.3541C152.766 31.344 153.158 31.3797 153.542 31.4607H153.564C153.823 31.5077 154.075 31.5887 154.313 31.7016C154.521 31.775 154.694 31.9238 154.798 32.1184L155.239 30.0121C155.179 29.9096 155.1 29.82 155.005 29.7484C154.911 29.6769 154.803 29.6248 154.688 29.5953C154.283 29.4288 153.862 29.3039 153.432 29.2222C152.953 29.1329 152.467 29.0886 151.979 29.09C151.282 29.0928 150.59 29.2113 149.931 29.4407C149.241 29.6601 148.604 30.0186 148.06 30.4939C147.478 31.017 147.02 31.6611 146.717 32.3806C146.345 33.2466 146.165 34.1819 146.188 35.1232C146.174 35.9844 146.323 36.8405 146.629 37.6463C146.904 38.3217 147.325 38.9284 147.863 39.4232C148.399 39.8864 149.02 40.2438 149.69 40.4764C150.422 40.7186 151.188 40.8371 151.959 40.8271C152.492 40.8335 153.023 40.7821 153.545 40.6736C153.976 40.5875 154.397 40.4548 154.8 40.2781V38.0652C154.427 38.2157 154.045 38.3404 153.655 38.4383C153.208 38.5484 152.749 38.6 152.29 38.5918C151.789 38.61 151.292 38.5122 150.836 38.3061C150.446 38.127 150.094 37.8735 149.802 37.56C149.527 37.233 149.324 36.852 149.207 36.4418C149.073 35.992 149.006 35.5252 149.009 35.0561C148.997 34.4675 149.086 33.8813 149.273 33.3229C149.466 32.8982 149.735 32.5118 150.066 32.1823M57.6961 36.4386C57.5992 36.8601 57.4279 37.2612 57.1899 37.6229C56.9791 37.9438 56.6916 38.2075 56.3531 38.3903C55.9917 38.5725 55.5907 38.6629 55.1857 38.6536C54.6982 38.646 54.2201 38.5178 53.7946 38.2806C53.6063 38.1742 53.4292 38.0491 53.266 37.9075L52.8701 37.5344V32.1813C53.2198 31.9108 53.605 31.6891 54.015 31.5225C54.408 31.369 54.8257 31.2874 55.2478 31.2816C55.5462 31.2822 55.8429 31.3264 56.1284 31.4127C56.452 31.5174 56.7456 31.698 56.9845 31.9393C57.2834 32.2684 57.5084 32.6573 57.6447 33.0798C57.8126 33.6647 57.894 34.2708 57.8866 34.8791C57.8711 35.4037 57.8048 35.9256 57.6886 36.4376M59.1867 30.4683C58.7477 30.0144 58.214 29.6622 57.6233 29.4365C57.0397 29.2128 56.4209 29.094 55.7956 29.0857C55.4922 29.0814 55.1893 29.1111 54.8925 29.1742C54.6215 29.2209 54.3559 29.2945 54.0996 29.3938C53.8644 29.4785 53.6362 29.5812 53.4169 29.7008C53.2189 29.8074 53.0199 29.9428 52.8444 30.0515H52.823C52.823 29.898 52.8444 29.6784 52.8444 29.3938C52.8668 29.1081 52.8668 28.8011 52.8668 28.4718V23.8211H52.8444C52.823 23.2071 52.5362 23.0312 52.5362 23.0312L49.4972 23.3606C49.6641 23.4338 49.8088 23.5493 49.917 23.6955C50.0251 23.8418 50.0929 24.0137 50.1135 24.1942V37.9064C50.1135 38.3456 50.1135 38.8061 50.0911 39.2921C50.0911 39.775 50.0686 40.1918 50.0472 40.5201H52.3158L52.5801 39.3348H52.6239C52.731 39.467 52.8658 39.6205 53.0423 39.7963C53.2395 39.9784 53.4546 40.1401 53.6844 40.2792C53.9672 40.449 54.2707 40.5819 54.5875 40.6746C54.961 40.7745 55.3458 40.8261 55.7325 40.8282C56.3444 40.8284 56.9504 40.7093 57.5163 40.4774C58.1227 40.2278 58.6647 39.8453 59.1022 39.3582C59.6036 38.8012 59.9924 38.153 60.2471 37.4491C60.5521 36.59 60.7014 35.6837 60.688 34.7725C60.7033 33.9224 60.5693 33.0761 60.2921 32.2718C60.0659 31.5971 59.6895 30.982 59.191 30.4726M69.2775 37.4928L68.8591 37.9096C68.6803 38.0514 68.4887 38.1764 68.2866 38.2827C68.07 38.3964 67.8409 38.4847 67.6039 38.5459C67.3478 38.6271 67.0795 38.6632 66.811 38.6526C66.5937 38.6577 66.3769 38.6281 66.1689 38.5651C65.9756 38.5055 65.796 38.4084 65.6403 38.2795C65.4928 38.1514 65.373 37.9947 65.2883 37.819C65.1984 37.6114 65.1535 37.3874 65.1567 37.1613C65.1415 36.9284 65.1861 36.6953 65.2862 36.4842C65.3864 36.2731 65.5388 36.0909 65.7291 35.9547C66.207 35.67 66.7589 35.5328 67.315 35.5603C67.6609 35.5609 68.0065 35.5826 68.3498 35.6253C68.6539 35.6672 68.9554 35.7259 69.2529 35.8012V37.4907L69.2775 37.4928ZM72.0533 39.8176C72.0533 39.5991 72.0308 39.3572 72.0308 39.1163C72.0094 38.5897 72.0094 37.9533 72.0094 37.2082V32.9956C72.0114 32.4613 71.9067 31.9319 71.7012 31.4383C71.4922 30.9511 71.1672 30.5219 70.7542 30.1879C70.3043 29.8235 69.7885 29.5481 69.2347 29.3768C68.5383 29.1517 67.8082 29.0479 67.0764 29.0698C66.4107 29.067 65.7465 29.1331 65.0946 29.267C64.4815 29.3942 63.8836 29.5853 63.3108 29.8372C62.8046 30.0568 62.7383 30.254 62.7383 30.254L63.223 32.2505C63.2671 32.1531 63.3309 32.0658 63.4105 31.994C63.49 31.9223 63.5836 31.8678 63.6853 31.8337C64.1528 31.6633 64.631 31.5241 65.117 31.417C65.6663 31.295 66.2279 31.2364 66.7907 31.2421C67.1796 31.2345 67.5669 31.2936 67.9356 31.417C68.2257 31.5068 68.49 31.6648 68.7061 31.8775C68.8975 32.0521 69.0414 32.2721 69.1245 32.517C69.2132 32.7636 69.2581 33.0236 69.2572 33.2855V33.746C68.9014 33.6538 68.541 33.5806 68.1775 33.5265C67.7328 33.4622 67.2838 33.4326 66.8345 33.438C66.2223 33.4313 65.6129 33.5201 65.0283 33.7013C64.514 33.8559 64.0352 34.1094 63.6189 34.4474C63.2213 34.7821 62.9052 35.2024 62.6944 35.6765C62.4692 36.1793 62.3564 36.7249 62.3637 37.2754C62.3501 37.7804 62.448 38.2822 62.6505 38.7453C62.837 39.1616 63.0981 39.5405 63.421 39.8635C63.755 40.1946 64.1627 40.4426 64.6109 40.5873C65.094 40.7475 65.5998 40.8292 66.109 40.8292C66.8168 40.8355 67.5144 40.6616 68.1357 40.324C68.3997 40.1861 68.6505 40.0245 68.8848 39.8411C69.0833 39.6895 69.2678 39.5204 69.4359 39.3358H69.4798L69.6114 40.5212H72.5188V40.4988C72.1442 40.4327 72.0779 39.9946 72.0565 39.8187" fill="#333F55"/>
<path d="M121.843 14.6546C120.39 14.6546 119.618 13.2284 119.618 11.1007C119.64 8.96887 120.345 8.0511 121.843 8.0511C123.318 8.07349 124.023 8.99445 124.045 11.1007C124.045 13.2326 123.274 14.6546 121.843 14.6546ZM79.4014 14.5885C77.8595 14.5885 77.0227 12.9896 77.0012 10.8812C77.0237 8.77487 77.8819 8.00312 79.4014 7.985C80.8995 8.00739 81.7556 8.77487 81.7802 10.8812C81.7802 12.9875 80.9434 14.5885 79.4014 14.5885ZM65.2839 13.7358C65.2683 14.0084 65.2326 14.2795 65.1769 14.5469H54.7373C55.1784 13.1423 55.9398 11.8585 56.962 10.7959C58.3274 9.23854 59.7591 8.16301 61.2348 8.16301H61.4113C61.9982 8.20683 62.5672 8.3838 63.0748 8.68033C63.5824 8.97686 64.0152 9.38509 64.3401 9.87385C65.0031 11.0512 65.3306 12.3866 65.2872 13.7358H65.2839ZM126.688 11.1029C126.738 9.84026 126.4 8.59248 125.719 7.52666L125.675 7.46056L125.652 7.43925L125.586 7.35184C125.133 6.80913 124.558 6.38121 123.906 6.10325C123.255 5.82528 122.547 5.70522 121.841 5.75293C121.112 5.69909 120.381 5.82508 119.712 6.11977C119.044 6.41446 118.459 6.86876 118.009 7.44244C117.282 8.52336 116.919 9.80636 116.973 11.1061V11.8736C116.973 13.4096 116.246 14.5725 114.858 14.5725H108.652V13.7826V9.06587L108.629 8.95927C108.63 8.79328 108.595 8.62909 108.526 8.47776C108.458 8.32644 108.358 8.1915 108.232 8.08201H108.21L108.187 8.05963L104.906 8.43271L105.501 8.67359C105.629 8.73137 105.74 8.82019 105.825 8.93191C105.909 9.04364 105.965 9.17471 105.985 9.31316V13.9426L105.964 13.9862L105.787 14.3156C105.567 14.4915 105.479 14.5352 105.325 14.5352H101.473V9.99323C101.429 9.35367 101.121 9.14048 101.054 9.11597L101.033 9.09359L97.7735 9.46667L98.346 9.72994C98.4784 9.78129 98.5938 9.86832 98.6794 9.98126C98.765 10.0942 98.8174 10.2286 98.8307 10.3695V12.7146V13.9212L98.8083 14.0278L98.6317 14.3348C98.3899 14.5107 98.301 14.5544 98.1694 14.5544H94.3589V11.0656C94.3151 10.426 94.0069 10.232 93.9619 10.2128L93.9395 10.1904L93.917 10.1691L90.6351 10.5422L91.23 10.7842C91.3629 10.8431 91.4789 10.9342 91.5674 11.0493C91.6558 11.1644 91.7138 11.2997 91.7362 11.4429V13.966L91.7137 14.0321L91.5157 14.3391C91.2953 14.5149 91.2075 14.5586 91.0534 14.5586H83.3671C83.936 13.4657 84.245 12.257 84.2703 11.0261L84.2916 10.6093C84.3214 9.47936 83.964 8.37297 83.2783 7.4723C82.8336 6.86923 82.243 6.38801 81.5614 6.07342C80.8798 5.75882 80.1294 5.62106 79.38 5.67297C78.6315 5.62831 77.8836 5.76932 77.2033 6.08334C76.523 6.39736 75.9314 6.8746 75.4817 7.4723C74.8003 8.39812 74.4581 9.5287 74.5123 10.6755V10.9824C74.4989 12.2264 74.7929 13.4545 75.3683 14.5586H67.8136C67.8361 14.2954 67.8361 14.0321 67.8361 13.7912C67.9315 12.0787 67.5583 10.3726 66.7564 8.85482C66.2325 7.90361 65.4659 7.10699 64.5339 6.54549C63.602 5.98399 62.5378 5.67751 61.4488 5.657H61.2508C59.9644 5.69085 58.7067 6.04356 57.5915 6.68322C56.4763 7.32289 55.5387 8.22932 54.8635 9.32061V1.9081H54.8411C54.8339 1.76787 54.7967 1.6308 54.7321 1.50599C54.6676 1.38119 54.577 1.27152 54.4666 1.18431H54.4441L54.4227 1.16193L51.1633 1.53501L51.7357 1.77593C51.8656 1.83106 51.9787 1.91911 52.0637 2.03132C52.1488 2.14353 52.2028 2.27597 52.2205 2.41546L52.1766 14.4819H50.1948C50.0595 14.4598 49.932 14.4039 49.8243 14.3195C49.7165 14.235 49.6319 14.1248 49.5785 13.999L49.4715 13.7581L49.3174 13.4074L49.0081 16.4582L49.0306 16.5018C49.1204 16.6148 49.2341 16.7068 49.3635 16.7713C49.4929 16.8358 49.635 16.8711 49.7796 16.8749V16.8973H114.947C116.249 16.9744 117.529 16.5414 118.515 15.6907C119.432 16.5086 120.632 16.941 121.863 16.8973H121.885C122.613 16.9452 123.341 16.8142 124.005 16.5159C124.67 16.2175 125.25 15.761 125.696 15.1865C126.399 13.944 126.742 12.5314 126.687 11.1061L126.688 11.1029ZM77.6626 3.62213C77.8524 3.62732 78.0413 3.59455 78.2182 3.52577C78.3951 3.457 78.5564 3.3536 78.6925 3.22169C78.8286 3.08977 78.9368 2.93201 79.0107 2.75774C79.0845 2.58348 79.1226 2.39624 79.1226 2.20708C79.1226 2.01791 79.0845 1.83068 79.0107 1.65641C78.9368 1.48215 78.8286 1.32442 78.6925 1.1925C78.5564 1.06059 78.3951 0.957193 78.2182 0.888415C78.0413 0.819637 77.8524 0.786871 77.6626 0.792062C77.2861 0.790069 76.9242 0.936599 76.6559 1.19966C76.3876 1.46272 76.2348 1.8209 76.2308 2.19589C76.2339 2.5732 76.3857 2.93419 76.6536 3.201C76.9214 3.4678 77.2838 3.61906 77.6626 3.62213ZM81.3404 3.62213C81.6205 3.62002 81.8938 3.53548 82.1258 3.37913C82.3579 3.22278 82.5383 3.00159 82.6446 2.74337C82.7508 2.48515 82.7781 2.20141 82.7229 1.92781C82.6677 1.65421 82.5326 1.40297 82.3345 1.20565C82.1364 1.00832 81.8842 0.873696 81.6095 0.818736C81.3349 0.763777 81.05 0.790926 80.7908 0.896743C80.5316 1.00256 80.3095 1.18233 80.1526 1.41348C79.9956 1.64463 79.9108 1.91683 79.9087 2.19589C79.9115 2.57328 80.0632 2.93442 80.3311 3.20129C80.599 3.46816 80.9615 3.61934 81.3404 3.62213Z" fill="#333F55"/>
<path d="M162.542 6.25175C162.157 6.25175 161.787 6.09916 161.515 5.8276C161.242 5.55603 161.089 5.18771 161.089 4.80365C161.089 4.4196 161.242 4.05128 161.515 3.77971C161.787 3.50814 162.157 3.35559 162.542 3.35559C162.925 3.35387 163.292 3.50288 163.565 3.77008C163.837 4.03728 163.993 4.40099 163.997 4.78183C163.991 5.16627 163.837 5.53371 163.566 5.80756C163.295 6.08141 162.928 6.24053 162.542 6.25175ZM137.655 10.0252V10.0028L137.677 9.98039L137.7 9.95801C137.721 9.89192 137.898 9.7171 138.295 9.69471H139.968V9.45276C139.913 8.8431 140.052 8.23156 140.367 7.70577C140.682 7.17999 141.155 6.76694 141.72 6.52578C142.285 6.28463 142.912 6.22775 143.511 6.3633C144.111 6.49885 144.652 6.81988 145.056 7.28038L145.1 7.32407L145.343 7.41148H145.365L145.453 7.38909L146.224 7.1919L144.506 8.85902H144.419C144.244 8.84167 144.08 8.76402 143.956 8.63945L143.849 8.53284V8.51046L143.783 8.44436C143.677 8.29847 143.538 8.179 143.377 8.09525C143.217 8.0115 143.039 7.96576 142.858 7.96152C142.087 7.98391 141.801 8.31221 141.779 9.25556V9.69471H145.391V11.3842H138.543L138.256 11.6038L137.97 12.3063L137.655 10.0252ZM150.01 15.4444C149.537 15.9716 148.951 16.3855 148.295 16.6551C147.639 16.9248 146.93 17.0433 146.222 17.0017H137.06C136.463 17.0465 135.864 16.9656 135.301 16.7644C134.737 16.5632 134.223 16.2462 133.791 15.834C133.359 15.4218 133.019 14.9236 132.793 14.3718C132.567 13.82 132.46 13.227 132.479 12.6314V9.88872V9.40585C132.457 9.27103 132.401 9.14401 132.316 9.03663C132.231 8.92926 132.12 8.84506 131.994 8.79188L131.289 8.4849L134.702 8.08943L134.725 8.11181H134.747C134.87 8.19551 134.972 8.30644 135.045 8.43591C135.117 8.56537 135.159 8.70982 135.166 8.85795V8.94536L135.187 9.05196H135.166V9.38135V12.431C135.21 13.9233 135.826 14.5629 137.368 14.581L146.068 14.6034C147.61 14.5597 148.248 13.9233 148.292 12.4534V1.31538C148.271 1.18334 148.217 1.0585 148.137 0.951564C148.056 0.844627 147.95 0.758796 147.829 0.701409L147.124 0.394425L150.537 0L150.56 0.0223805H150.582C150.701 0.109808 150.8 0.221646 150.873 0.350347C150.945 0.479047 150.988 0.62164 151.001 0.768551V0.857032L151.023 0.94444H151.001V11.6923C151.023 13.6664 151.857 14.5447 153.775 14.5703L159.039 14.5927C160.581 14.549 161.22 13.9126 161.264 12.3329V12.2263V9.41118C161.242 9.27922 161.189 9.15441 161.109 9.04747C161.028 8.94053 160.923 8.85466 160.801 8.79721L160.096 8.4902L163.532 8.09581L163.576 8.11819H163.599C163.71 8.19662 163.803 8.29797 163.871 8.41531C163.939 8.53266 163.981 8.66324 163.995 8.79826H164.017V9.01787V12.3969C164.061 13.9105 164.677 14.5469 166.219 14.5692L171.086 14.5917C172.605 14.548 173.244 13.9116 173.267 12.3318V6.9787C173.25 6.84522 173.198 6.71846 173.117 6.61082C173.036 6.50318 172.928 6.41837 172.805 6.36473L172.1 6.05774L175.514 5.66335L175.558 5.68573L175.58 5.70811C175.647 5.7305 175.932 5.9501 175.999 6.54169V7.00215V12.5088C176.014 13.102 175.906 13.692 175.682 14.242C175.459 14.7921 175.124 15.2906 174.7 15.7066C174.235 16.1345 173.691 16.4672 173.098 16.6855C172.505 16.9039 171.874 17.0038 171.242 16.9794H166.068C164.831 17.0267 163.623 16.5941 162.699 15.7727C161.765 16.5924 160.551 17.0243 159.307 16.9794H153.647C152.961 17.0356 152.272 16.9251 151.638 16.6576C151.004 16.3901 150.445 15.9734 150.009 15.4433M173.002 18.7339C173.385 18.7325 173.752 18.8816 174.024 19.1487C174.296 19.4159 174.451 19.7795 174.456 20.1601C174.456 20.5418 174.303 20.9078 174.033 21.1777C173.762 21.4475 173.394 21.5991 173.011 21.5991C172.628 21.5991 172.26 21.4475 171.99 21.1777C171.719 20.9078 171.566 20.5418 171.566 20.1601C171.566 19.9727 171.603 19.787 171.675 19.6138C171.746 19.4406 171.852 19.2832 171.985 19.1507C172.118 19.0182 172.276 18.9131 172.45 18.8416C172.624 18.7701 172.81 18.7335 172.998 18.7339" fill="#333F55"/>
<path d="M29.1402 12.3951C28.9861 11.8025 28.8096 11.1885 28.5891 10.5745C28.4126 10.0042 28.1921 9.43397 27.9728 8.86263C27.6646 8.07277 27.3125 7.26371 26.9155 6.47171C26.5196 5.65947 26.0787 4.8728 25.594 4.05842C25.5277 3.95183 25.4613 3.83884 25.396 3.75144C25.0654 3.22486 24.7358 2.72066 24.3613 2.21541C24.2543 2.03953 24.1194 1.88603 24.0092 1.71015C23.8776 1.53534 23.7449 1.35947 23.5908 1.18359C23.3704 1.33709 23.1286 1.51297 22.9081 1.66647C22.5999 1.88605 22.3131 2.10564 22.005 2.32416C21.6304 2.58744 21.2784 2.85073 20.9253 3.11401C20.3742 3.50841 19.8242 3.90386 19.2731 4.32064C18.9863 4.51784 18.7006 4.73745 18.417 4.93465C17.7343 5.43883 17.0259 5.9217 16.3464 6.42695C15.7044 6.90982 15.0473 7.37029 14.4085 7.85316C14.1881 8.00666 13.9901 8.16016 13.7665 8.31365L13.5022 8.51085C13.4358 8.55455 13.3481 8.61746 13.2817 8.66436L13.0838 8.79545C12.9767 8.88393 12.8633 8.94897 12.7531 9.03744C13.0399 9.10353 13.3481 9.19092 13.6338 9.27833C13.8946 9.34532 14.1518 9.42574 14.4042 9.51924C15.1655 9.77679 15.9087 10.0844 16.6289 10.4402C16.775 10.5002 16.9151 10.5737 17.0473 10.6598C18.0967 11.2153 19.0856 11.8772 19.9986 12.635C20.8837 13.3483 21.7086 14.1326 22.4651 14.98C22.8172 15.3531 23.1478 15.7475 23.456 16.143C23.6326 16.3626 23.7866 16.5822 23.9621 16.8017C24.2489 17.1748 24.5132 17.5692 24.7775 17.9647C24.8 17.9871 24.8 18.0084 24.8214 18.0084C24.8877 18.0958 24.9284 18.1843 24.998 18.2717C25.0418 18.3498 25.0934 18.4234 25.152 18.4912C25.2184 18.5978 25.3061 18.7322 25.3725 18.8419C26.6919 20.9993 27.7685 23.295 28.5827 25.6874C29.0011 26.8717 29.2654 27.8598 29.4388 28.5175C29.5929 29.1101 29.6592 29.4384 29.6592 29.4608C29.6817 29.3734 29.7031 29.285 29.7255 29.1752C29.7477 29.087 29.7698 28.9772 29.7919 28.8458C29.8358 28.6262 29.8796 28.3416 29.946 27.993C29.9685 27.8395 29.9899 27.7084 30.0123 27.5325C30.0562 27.2255 30.1001 26.8749 30.145 26.5018C30.1675 26.2609 30.2114 25.9976 30.2328 25.7119C30.2552 25.4923 30.2766 25.2514 30.2991 25.0094C30.3216 24.8336 30.3216 24.6364 30.343 24.4392C30.3869 23.6493 30.4093 22.7721 30.4093 21.8287C30.4093 20.7979 30.3655 19.6787 30.2552 18.4944C30.0293 16.4376 29.6567 14.3993 29.1402 12.3951Z" fill="#E25456"/>
<path d="M20.8611 18.8672C21.302 18.428 21.5663 18.2095 21.5663 18.2095H21.5438C21.5269 18.2113 21.5112 18.2192 21.4999 18.2319C21.4336 18.2542 21.3458 18.2756 21.2795 18.298C21.1747 18.3271 21.0717 18.3627 20.9713 18.4046C20.7509 18.4706 20.4866 18.5804 20.1559 18.7115C20.0243 18.7552 19.8691 18.8181 19.715 18.8874C19.4283 18.994 19.0987 19.1294 18.768 19.2818C18.5476 19.3692 18.3054 19.479 18.0414 19.6112C17.8435 19.6986 17.623 19.8084 17.3994 19.9182C17.2453 20.0056 17.0687 20.0717 16.8932 20.1591C16.1881 20.5098 15.3951 20.9266 14.6022 21.4094C13.6991 21.936 12.7521 22.5287 11.7837 23.2087C10.0646 24.4093 8.45084 25.7529 6.95976 27.2252C6.51889 27.6644 6.07909 28.1249 5.66069 28.6109C5.26476 29.049 4.86776 29.5106 4.49324 29.9966C3.96462 30.6767 3.43601 31.3823 2.92986 32.1029C2.42372 32.8491 1.96038 33.6166 1.49811 34.448C1.43176 34.5546 1.3911 34.6676 1.32154 34.7774C1.03476 35.3039 0.770453 35.8742 0.506144 36.4232C0.418398 36.6204 0.329576 36.7963 0.264302 36.9935C0.176556 37.1907 0.0877461 37.4102 0 37.6074C0.264308 37.714 0.506146 37.827 0.770454 37.9581C1.10111 38.1116 1.45316 38.2651 1.80521 38.4186C2.22361 38.5945 2.62061 38.7693 3.03901 38.9676C3.65537 39.2309 4.2728 39.5165 4.91057 39.7798C5.24122 39.9109 5.55261 40.0655 5.88005 40.1966C6.6505 40.5473 7.42203 40.8991 8.21495 41.2274C8.857 41.512 9.47015 41.7976 10.109 42.0609C10.1967 42.1046 10.307 42.1484 10.4172 42.1921C10.659 42.2986 10.9019 42.3903 11.1223 42.499C11.2294 42.5427 11.3203 42.5864 11.4305 42.6301C11.5146 42.6749 11.6032 42.7107 11.6948 42.7367L12.2898 43C12.2021 42.7144 12.1132 42.4298 12.048 42.1228C11.9816 41.8595 11.9163 41.5962 11.8714 41.3329C11.716 40.5436 11.6131 39.7448 11.5632 38.942C11.5632 38.7885 11.5407 38.635 11.5407 38.4591C11.5023 37.2773 11.5761 36.0946 11.7612 34.9266C11.9418 33.802 12.2145 32.694 12.5766 31.6137C12.7307 31.1308 12.9072 30.6479 13.1052 30.1874C13.1946 29.9334 13.2974 29.6844 13.4134 29.4413V29.4189C13.4134 29.416 13.414 29.4131 13.4151 29.4105C13.4162 29.4078 13.4179 29.4054 13.42 29.4034C13.4221 29.4014 13.4246 29.3999 13.4273 29.3989C13.43 29.3979 13.4329 29.3974 13.4358 29.3976C13.6338 28.9371 13.8318 28.4979 14.0522 28.0812C14.0961 27.9937 14.14 27.9053 14.1838 27.7955C14.2277 27.7081 14.2716 27.642 14.3154 27.5546C14.3818 27.4234 14.4481 27.3137 14.5134 27.2039C15.7412 24.9856 17.203 22.9042 18.874 20.9948C19.4963 20.2495 20.1597 19.5392 20.8611 18.8672Z" fill="#E25456"/>
<path d="M15.2452 31.8109C14.6502 31.6351 14.3206 31.5253 14.3206 31.5253H14.3431C14.3549 31.5373 14.3703 31.5452 14.387 31.5476C14.4533 31.5913 14.494 31.6543 14.5635 31.7012C14.6299 31.7673 14.7176 31.8323 14.8054 31.9208C14.9819 32.0743 15.2024 32.2501 15.4881 32.4686C15.5951 32.556 15.7299 32.6658 15.8401 32.7543C16.082 32.9515 16.3687 33.1487 16.6544 33.3683C16.8524 33.5218 17.0729 33.6753 17.2965 33.8288C17.4945 33.9599 17.671 34.092 17.8915 34.2232C18.0456 34.3297 18.1996 34.4204 18.3537 34.5302C19.014 34.9693 19.763 35.4298 20.5784 35.8903C21.4816 36.4169 22.4724 36.9221 23.5521 37.4263C25.4534 38.3119 27.4284 39.0312 29.4547 39.5763C30.0496 39.7298 30.6885 39.8833 31.3048 40.0155C31.8755 40.147 32.4701 40.2567 33.0886 40.3448C33.9447 40.477 34.8061 40.5644 35.7093 40.6295C36.6124 40.6945 37.5155 40.7169 38.4626 40.6956H38.8146C39.431 40.6732 40.0484 40.6294 40.6648 40.5889C40.8627 40.5665 41.0832 40.5452 41.2811 40.5228C41.5016 40.5004 41.722 40.4792 41.9638 40.4354C41.9414 40.1498 41.8975 39.8865 41.8761 39.6019C41.8322 39.2288 41.7883 38.8558 41.7691 38.4827C41.7252 38.0435 41.6813 37.583 41.6364 37.1438C41.57 36.4637 41.4823 35.8061 41.416 35.126C41.3721 34.7742 41.3496 34.4236 41.3089 34.0729C41.2212 33.2393 41.1324 32.3844 41.0446 31.5498C40.9783 30.8697 40.913 30.1641 40.8242 29.4872C40.8017 29.3806 40.8017 29.2676 40.7803 29.1578C40.7579 28.8945 40.714 28.6525 40.6926 28.3892C40.6889 28.2783 40.6742 28.168 40.6487 28.0599C40.6487 27.9725 40.6262 27.8627 40.6262 27.7753C40.6038 27.5557 40.5824 27.3361 40.5599 27.1357C40.3395 27.3553 40.1415 27.5749 39.9179 27.7753C39.7199 27.9725 39.5219 28.1484 39.3229 28.3243C38.7195 28.8516 38.079 29.3353 37.4064 29.7718L37.0094 30.0351C35.9974 30.6548 34.9281 31.1767 33.8163 31.5935C32.7487 31.9982 31.6515 32.3207 30.5344 32.5581C30.0279 32.6683 29.5214 32.7561 29.0149 32.8214C28.7506 32.8651 28.4863 32.8875 28.2219 32.928H28.1781L26.7249 33.0602C26.6179 33.0602 26.5269 33.0826 26.4167 33.0826H26.1524C26.0126 33.0797 25.8727 33.0872 25.734 33.105C23.192 33.1642 20.6512 32.9433 18.1579 32.4462C17.1741 32.2982 16.2011 32.086 15.2452 31.8109Z" fill="#E25456"/>
</svg>
