<svg width="116" height="40" viewBox="0 0 116 40" fill="none" xmlns="http://www.w3.org/2000/svg">
<g clip-path="url(#clip0_326_11558)">
<path opacity="0.938" d="M22.441 0.553223C20.497 0.553223 21.318 3.44622 21.469 4.39722C21.469 4.44022 21.621 10.9422 21.664 12.4322C21.964 12.3462 22.247 12.2802 22.55 12.2152L23.132 12.0642C23.154 10.6172 23.305 4.42022 23.305 4.37722C23.434 3.38322 24.45 0.553223 22.441 0.553223ZM23.953 3.68422L23.931 3.77322C23.909 3.92422 23.866 4.05322 23.845 4.18322C27.1923 4.50831 30.327 5.97134 32.726 8.32822L31.041 10.0112L31.105 9.71122L30.89 9.60322L30.609 9.62523L30.673 9.43022L30.478 8.73922L30.068 8.28522L28.751 7.59422L28.643 7.72222L28.406 7.78822C28.8553 8.43393 29.0964 9.20158 29.097 9.98822V10.2882L29.746 11.1092L29.446 11.1732L29.641 11.4732L29.059 12.0552L28.82 11.6232C28.711 11.9271 28.566 12.2169 28.388 12.4862L28.519 12.5942L26.726 14.3652C26.618 14.2572 26.511 14.1652 26.403 14.0652C26.2343 14.1467 26.0614 14.2191 25.885 14.2822L26.036 14.3882L25.95 14.4742L25.735 14.5822L25.649 14.7992L25.518 14.6682L25.15 14.7992L25.258 14.9722L25.517 14.9062L25.69 14.9282L25.712 14.8422L25.84 14.7782L25.884 14.7142L26.121 14.6482H26.294L26.402 14.7342L25.711 15.4472L25.667 15.3832L24.934 15.5142L24.761 15.6872L24.608 15.7072L25.062 15.2752L24.889 15.1892L24.457 15.7512L24.588 15.7292V15.9462L24.739 16.0102L24.761 16.2252L24.502 16.1832L24.243 16.2252L23.594 15.9022C23.594 15.9022 23.55 17.6312 23.55 18.4952C25.062 19.0132 26.683 19.7462 26.683 21.6902C26.6881 22.0974 26.5899 22.4991 26.3975 22.858C26.2051 23.2169 25.9249 23.5211 25.583 23.7422L25.541 23.7642L25.497 23.8062C24.8421 24.1837 24.1371 24.4669 23.403 24.6472L23.381 26.0092C24.1133 26.2574 24.7392 26.7479 25.1553 27.3996C25.5714 28.0513 25.753 28.8254 25.67 29.5942C25.648 30.1552 25.433 30.3062 25.26 30.3492C24.6138 30.5018 23.9563 30.6021 23.294 30.6492V31.1492C26.1397 30.9516 28.8274 29.7676 30.894 27.8012L32.665 29.5722C29.9285 32.2076 26.2795 33.6836 22.4803 33.6918C18.6812 33.7 15.0258 32.2398 12.278 29.6162L14.049 27.8452C16.1059 29.7671 18.7561 30.9311 21.563 31.1452V30.6452C18.8905 30.4452 16.3692 29.3278 14.426 27.4822L14.88 27.0082L15.529 27.0722L15.874 26.7042L16.78 26.7482L16.911 26.4232L16.869 26.2952C18.2122 27.32 19.811 27.9561 21.491 28.1342V27.6342C19.6371 27.4241 17.8982 26.6294 16.526 25.3652L18.297 23.5942C18.7304 23.9862 19.2181 24.3136 19.745 24.5662C19.7798 24.4008 19.838 24.2412 19.918 24.0922C19.4683 23.8616 19.0477 23.5783 18.665 23.2482L20.436 21.4792C20.7152 21.7011 21.0286 21.8761 21.364 21.9972V21.4572C21.1558 21.3681 20.9601 21.2522 20.782 21.1122L21.282 20.6122C21.1062 20.5643 20.9333 20.5065 20.764 20.4392L20.419 20.7872C20.2485 20.5977 20.1033 20.387 19.987 20.1602C19.6765 20.0316 19.3797 19.8722 19.101 19.6842C18.589 19.3714 18.168 18.9297 17.88 18.4033C17.592 17.8769 17.4472 17.2841 17.46 16.6842C17.43 15.8623 17.6816 15.0548 18.173 14.3952L16.402 12.6262C17.7003 11.3826 19.3494 10.5678 21.126 10.2922V9.79222C19.2167 10.0708 17.4423 10.9393 16.051 12.2762L15.751 11.9762C15.6627 12.1225 15.5835 12.2741 15.514 12.4302L15.709 12.6252C14.1359 14.2922 13.2422 16.4866 13.203 18.7782H10.677C10.7163 15.8177 11.8708 12.9809 13.91 10.8342L14.71 11.6342H14.818C14.9751 11.6137 15.1281 11.5695 15.272 11.5032L14.256 10.4892C14.7946 9.96969 15.3801 9.50103 16.005 9.08922C16.0355 8.96226 16.0794 8.8389 16.136 8.72122C16.2509 8.53847 16.3803 8.36525 16.523 8.20322C15.5762 8.72298 14.7048 9.36962 13.933 10.1252L12.162 8.35422C14.5473 6.03764 17.6442 4.59315 20.952 4.25422C20.953 4.21272 20.9441 4.17159 20.926 4.13422C20.904 4.00422 20.883 3.89822 20.862 3.74722C18.8691 3.94935 16.9359 4.54339 15.1733 5.49518C13.4108 6.44698 11.8538 7.73776 10.5918 9.29332C9.32981 10.8489 8.38773 12.6385 7.81972 14.5594C7.2517 16.4803 7.06896 18.4945 7.282 20.4862C7.67133 24.2282 9.43455 27.6928 12.2306 30.2099C15.0266 32.7271 18.6568 34.1178 22.419 34.1132C24.4219 34.1126 26.4049 33.7169 28.2547 32.9489C30.1044 32.1808 31.7845 31.0555 33.1988 29.6373C34.6131 28.2191 35.7338 26.5359 36.4967 24.6841C37.2597 22.8322 37.6499 20.8481 37.645 18.8452C37.6439 15.0716 36.2433 11.4324 33.7141 8.63175C31.185 5.83106 27.707 4.06887 23.953 3.68422ZM11.061 4.29122C9.64784 4.64894 8.3655 5.40106 7.36354 6.45985C6.36158 7.51865 5.68128 8.8405 5.402 10.2712C6.266 9.25622 7.757 8.67122 8.602 7.68122C9.441 6.66523 9.726 5.28422 11.061 4.29122ZM33.735 4.29122C35.074 5.28422 35.355 6.66622 36.197 7.68122C37.039 8.69623 38.508 9.28122 39.372 10.2942C39.0939 8.86429 38.4171 7.54217 37.4196 6.4805C36.4222 5.41882 35.1448 4.6609 33.735 4.29422V4.29122ZM24.471 5.24122L24.276 5.36922L23.844 5.32722V5.43422C24.1044 5.44857 24.3638 5.47728 24.621 5.52022L24.989 5.49822L25.357 5.52022L25.508 5.38923L25.227 5.26122L24.471 5.24122ZM23.78 5.97422C23.78 6.21222 23.758 6.75322 23.758 6.75322C23.758 6.92622 23.736 7.55323 23.736 7.68122C23.909 7.70322 24.103 7.72422 24.276 7.74522C25.896 8.13422 26.476 9.06322 26.476 9.97022C26.476 11.4602 25.201 12.0222 23.646 12.4542L23.128 12.5822C22.653 12.6902 22.157 12.8202 21.682 12.9502C21.5066 12.9906 21.3336 13.041 21.164 13.1012C19.436 13.6192 17.945 14.4612 17.945 16.6012C17.945 18.7412 19.652 19.5172 21.315 20.0352C21.315 19.4352 21.292 18.8042 21.271 18.2002C20.515 17.8542 20.02 17.4002 20.02 16.6462C20.0341 16.3011 20.1567 15.9691 20.3703 15.6977C20.584 15.4262 20.8778 15.229 21.21 15.1342C21.3613 15.0676 21.534 15.0026 21.728 14.9392C22.138 14.7882 22.615 14.6812 23.09 14.5522L23.608 14.4212C25.94 13.8602 28.574 13.1262 28.552 9.99522C28.552 8.41922 27.408 6.69022 24.622 6.08522C24.341 6.04222 24.061 5.99822 23.781 5.97722L23.78 5.97422ZM21.015 6.21322C20.4885 6.38111 19.9762 6.59077 19.483 6.84022C18.6794 6.96153 17.9368 7.33972 17.366 7.91822C17.107 8.21822 16.866 8.54422 16.631 8.86822C16.393 9.21422 16.372 9.77622 16.199 10.0572C16.0512 10.2557 15.9818 10.5017 16.004 10.7482C15.9552 10.9478 15.8596 11.1329 15.725 11.2882C15.6001 11.4368 15.4388 11.5505 15.2569 11.6183C15.075 11.6862 14.8787 11.7058 14.687 11.6752C14.9734 11.764 15.2828 11.7412 15.553 11.6112C15.468 11.843 15.4028 12.0815 15.358 12.3242C15.5479 11.8057 15.8584 11.3399 16.264 10.9652C16.6989 10.9932 17.1292 10.8624 17.475 10.5972C18.2914 10.1773 19.0406 9.63805 19.698 8.99722C20.0375 8.53654 20.5028 8.18373 21.038 7.98122C21.038 7.33322 21.016 6.73022 21.016 6.21222L21.015 6.21322ZM5.833 6.77322C2.183 9.49422 3.738 13.8572 3.544 15.2402C5.423 11.1582 8.21 12.0232 9.398 8.15722C8.707 9.32322 5.661 9.81922 4.257 12.8642C4.992 11.0492 4.626 8.28422 5.834 6.77222L5.833 6.77322ZM38.982 6.77322C40.213 8.26322 39.846 11.0502 40.558 12.8642C39.133 9.81922 36.089 9.32222 35.419 8.11322C36.607 12.0002 39.392 11.1362 41.271 15.1962C41.077 13.8342 42.632 9.45122 38.982 6.77322ZM29.437 7.33522L29.178 7.53022L29.501 7.70322L29.869 7.96222L29.913 7.74522L29.762 7.50822L29.437 7.33522ZM17.906 8.39322L18.446 8.41522L17.819 9.08422L17.429 9.17022L17.906 8.39322ZM11.793 8.67422L13.564 10.4432C11.4259 12.6798 10.2146 15.6434 10.174 18.7372H7.668C7.70288 14.9781 9.17886 11.3758 11.793 8.67422ZM33.088 8.71622C35.6722 11.4155 37.1314 14.9976 37.169 18.7342H34.669C34.6513 16.8729 34.2065 15.0405 33.369 13.3782L33.391 13.3342L33.564 13.4202L33.608 13.2922L33.154 12.5152L32.614 11.7802L31.987 11.2622C31.771 11.0032 31.556 10.7442 31.318 10.4852L33.088 8.71622ZM23.694 9.73422V10.2342C24.3965 10.3417 25.0844 10.5296 25.744 10.7942C25.8295 10.6557 25.8881 10.5024 25.917 10.3422C25.2054 10.0444 24.4581 9.84004 23.694 9.73422ZM2.875 10.4032C-0.472 15.1322 3.069 17.9612 3.198 19.6892C4.04 16.3892 6.049 16.3642 7.345 12.0022C6.92378 12.55 6.42131 13.0302 5.855 13.4262C4.48795 14.5045 3.55301 16.0373 3.22 17.7462C3.307 15.6262 2.012 12.6042 2.876 10.4012L2.875 10.4032ZM41.942 10.4032C42.806 12.6032 41.51 15.6282 41.574 17.7452C41.2323 16.0397 40.2991 14.5096 38.939 13.4252C38.3777 13.0231 37.8761 12.5437 37.449 12.0012C38.749 16.3632 40.749 16.3842 41.616 19.6882C41.746 17.9822 45.289 15.1532 41.941 10.4022L41.942 10.4032ZM15.336 11.8692C15.2386 11.8975 15.1364 11.905 15.036 11.8912L15.275 12.1502C15.297 12.0642 15.318 11.9552 15.339 11.8692H15.336ZM29.892 11.9342L30.492 11.9562L30.643 12.1292L30.579 12.3882L31.423 12.9062L31.596 12.8862L32.654 14.1172L33.086 13.9642C33.7766 15.4609 34.1449 17.086 34.167 18.7342H31.667C31.6641 18.0937 31.5845 17.4558 31.43 16.8342L31.536 16.6812L31.689 15.8812L31.581 15.0402L31.281 14.0682L30.59 13.0542L30.763 13.1402L30.849 13.0542L30.289 12.6642L30.245 12.7952L30.807 13.5952L31.13 14.2442L31.347 14.8932L31.411 15.3252L31.519 16.0582L31.302 16.0802C31.302 16.0802 31.065 15.6282 30.979 15.4342L31.087 15.2612L30.87 14.9612V14.6802L30.719 14.4852L30.524 14.5072C30.4646 14.3774 30.3919 14.254 30.307 14.1392L30.438 14.2052L30.48 14.1612L30.416 14.0102L30.589 13.9242L30.525 13.8382L30.288 13.9242L30.374 13.5342L30.221 13.4482L30.093 13.7482C29.8146 13.341 29.5113 12.9512 29.185 12.5812L29.892 11.9342ZM16.028 12.9062L17.799 14.6772C17.4268 15.0851 17.1144 15.5436 16.871 16.0392H16.74L16.481 16.1032H16.395L16.136 16.3402L16.481 16.2982L16.781 16.2322L16.717 16.3182L16.458 16.4912H16.326L15.936 16.7912L15.568 16.7492L15.028 17.7632L15.136 17.9582L14.836 18.3032L14.792 18.7352H13.669C13.6905 16.564 14.5325 14.4813 16.026 12.9052L16.028 12.9062ZM28.834 12.9722C29.2431 13.4283 29.6112 13.9195 29.934 14.4402L29.717 14.5042L29.739 14.8942L30.386 15.3042C30.5551 15.6661 30.693 16.0418 30.798 16.4272L30.69 16.6002L30.453 16.7732L30.387 17.1412L30.214 17.2272L30.086 17.4002L29.955 17.3362H29.718L29.849 17.1412L29.955 16.6412L30.128 16.5332L29.654 16.0792L29.309 16.2102L29.223 16.5552L29.006 16.7922L28.769 16.5972L28.683 16.3822L28.811 16.2962L28.877 16.4242L28.983 16.3822L28.941 16.1652H28.79V16.2512L28.682 16.2732L28.142 15.6242L27.947 15.4732L28.011 15.4092L28.184 15.3452L28.011 15.2792C28.011 15.2792 27.818 15.3232 27.796 15.3232L27.904 15.4742H27.626C27.4686 15.2077 27.2799 14.961 27.064 14.7392L28.834 12.9722ZM29.134 13.6852L28.744 13.8782L28.616 14.1172L28.53 14.3322L28.703 14.6132L28.637 14.7412L28.4 14.8272L28.422 15.0222L28.854 14.8942L28.982 14.6352L28.682 14.2452L28.833 14.0082L29.243 14.2892L29.309 14.2232L29.223 14.1592L29.137 13.9862L29.31 13.9002L29.134 13.6852ZM23.065 15.0852C22.612 15.1923 22.1647 15.3225 21.725 15.4752C21.747 16.2522 21.856 22.0182 21.856 22.6442C22.072 22.5792 22.286 22.4952 22.48 22.4512C22.631 22.4082 22.763 22.3642 22.914 22.3202C22.917 21.9112 23.046 16.1222 23.068 15.0862L23.065 15.0852ZM26.714 15.0852C26.8845 15.278 27.0434 15.4807 27.19 15.6922L27.104 15.9712L26.867 15.7982L26.672 15.8422L26.758 16.0152H26.844L26.736 16.2742L26.672 16.1662L26.391 16.0802L26.606 16.0382V15.9942L26.391 15.8432L26.455 15.3672L26.714 15.0852ZM21.186 15.6702C20.9984 15.7584 20.8375 15.8949 20.72 16.0657C20.6024 16.2365 20.5324 16.4355 20.517 16.6422C20.517 17.0742 20.776 17.3552 21.23 17.6142V17.4192L20.949 17.1192L21.1 16.8402L21.231 16.7962C21.209 16.2962 21.209 15.7602 21.209 15.6732L21.186 15.6702ZM0.886002 15.6922C-0.474998 21.4362 3.153 22.1052 4.103 24.5242C3.952 21.0692 6.155 20.3772 5.983 16.4242C5.011 18.3032 3.477 18.7362 3.649 22.6012C2.832 19.1692 0.867999 17.8732 0.889999 15.6922H0.886002ZM43.903 15.6922C43.925 17.8922 41.96 19.1692 41.14 22.6242C41.313 18.7152 39.8 18.3032 38.806 16.4242C38.612 20.3762 40.837 21.0682 40.686 24.5242C41.615 22.1242 45.264 21.4372 43.903 15.6922ZM30.86 16.5552C30.903 16.6852 30.925 16.8132 30.968 16.9422L30.729 17.6552V17.8922L31.029 17.3922C31.094 17.8242 31.138 18.2772 31.16 18.7092H28.96L28.916 18.5142L29.175 18.3212L29.219 18.1902L29.325 18.1042L29.625 18.0622L29.647 17.9312L29.388 17.8002L29.842 17.5632L30.294 17.4992L30.402 17.2822L30.661 17.1312L30.769 16.9162L30.86 16.5552ZM15.636 17.6782L16.174 17.7642L16.26 17.8502C16.217 18.1312 16.195 18.4332 16.174 18.7132H15.574L15.293 18.3452L15.337 17.8452L15.636 17.6782ZM23.496 18.9952C23.474 19.4952 23.473 20.2032 23.452 20.6952C24.035 20.9112 24.424 21.1952 24.424 21.6472C24.424 22.2082 23.842 22.5102 23.41 22.6832C23.237 22.7482 22.978 22.8342 22.892 22.8562C22.546 22.9642 22.201 23.0722 21.856 23.2012C21.6796 23.2636 21.5067 23.3354 21.338 23.4162C21.017 23.5364 20.7358 23.7435 20.5258 24.0145C20.3158 24.2854 20.1853 24.6094 20.149 24.9502C20.1799 25.32 20.3136 25.6738 20.535 25.9715C20.7564 26.2693 21.0568 26.4992 21.402 26.6352C21.402 26.4842 21.38 25.1672 21.38 25.1452C21.4049 25.0238 21.4623 24.9115 21.5462 24.8202C21.63 24.729 21.7371 24.6623 21.856 24.6272C22.185 24.4749 22.5237 24.3446 22.87 24.2372C23.064 24.1722 23.215 24.1082 23.388 24.0642C24.662 23.6752 26.131 23.2012 26.131 21.6462C26.131 20.0912 24.878 19.4642 23.496 18.9892V18.9952ZM10.668 19.2102H13.174C13.1748 19.4566 13.1962 19.7024 13.238 19.9452L12.938 20.0092L12.874 20.3092L12.225 21.1302L12.247 22.2532L11.601 22.4682H11.233C10.8944 21.4128 10.7052 20.3151 10.671 19.2072L10.668 19.2102ZM31.659 19.2102H34.159C34.0828 22.1388 32.9043 24.9308 30.859 27.0282L30.514 26.6832L30.709 26.4682L30.514 25.4962L30.383 25.4522L30.469 25.2792L30.059 25.1512L29.973 25.4962L29.931 25.9282L29.845 26.0142L29.088 25.2592C30.6597 23.6277 31.575 21.4741 31.659 19.2102ZM34.639 19.2102H37.139C37.0552 22.9335 35.5575 26.4852 32.95 29.1442L31.201 27.3732C33.339 25.1852 34.5688 22.2685 34.643 19.2102H34.639ZM7.665 19.2322H10.171C10.1996 20.3252 10.3813 21.4088 10.711 22.4512L10.558 22.4292L10.407 22.2782L9.694 22.2122L9.911 22.5122L9.262 22.3812L9.435 22.2302L9.284 22.0792L8.808 22.2742L8.635 22.5742L8.701 23.2872L9.239 24.5872L9.498 24.9972L9.651 25.0412L9.239 24.2642L9.153 23.8742L9.239 23.7882L9.175 23.5732L9.412 23.6152L9.802 24.1772L9.888 24.2192V23.8092L10.039 23.8952L10.083 24.1122L10.47 24.2182L10.643 24.0902L10.709 24.1322V24.4322L10.882 24.6472L11.097 24.6912L11.573 25.4682L11.854 25.5542L11.94 25.1862C12.4285 25.9916 13.008 26.7382 13.667 27.4112L11.896 29.1822C9.26768 26.5281 7.75517 22.9685 7.669 19.2342L7.665 19.2322ZM13.665 19.2322H14.42L14.247 19.8322L14.464 20.0712L14.227 20.4362H13.826L13.804 20.4162C13.7401 20.0225 13.6973 19.6256 13.676 19.2272L13.665 19.2322ZM15.065 19.2322H15.647L15.733 19.4052L15.605 19.9902L15.541 20.0962L15.756 20.5722L15.605 20.6582L15.497 20.5272L15.455 20.5712L15.561 20.8522L15.734 21.1752H15.82L15.864 20.8752L15.778 20.7672V20.5722L15.756 20.1622L15.887 19.4272L15.756 19.2322H16.166C16.2494 20.7208 16.8627 22.1305 17.895 23.2062L16.124 24.9552C15.951 24.7612 15.757 24.5672 15.606 24.3732L15.692 23.7462L15.433 23.1462L15.367 22.1962L15.067 21.6112L15.131 21.2432L14.763 20.5522L14.463 20.4012L14.591 20.0332L14.463 19.7522L14.591 19.4292H14.936L15.065 19.2322ZM29.188 19.2542H31.126C31.041 21.3853 30.1812 23.4121 28.708 24.9542L28.449 24.6952L28.555 24.3502L28.362 23.5732L27.972 24.1552L27.735 23.9182L27.908 23.6812L28.145 23.2052L28.059 23.0742L28.21 22.7292L28.188 22.4062L28.102 22.0832L27.887 22.0172L27.801 22.1922L27.67 22.1482C27.8634 21.8579 28.0365 21.5545 28.188 21.2402L28.405 21.1542L28.536 20.9812L28.6 21.0472L28.751 20.8742L28.623 20.7212L28.729 20.6992L28.924 20.7882H29.314L29.551 20.6572L30.151 20.4842L30.043 20.2892L30.001 20.0522L30.324 20.2032L30.455 20.1392L30.389 19.8802L29.979 20.0312L29.547 19.9452L29.188 19.2542ZM16.676 19.5342L17.044 19.9212H17.389L17.841 20.2212L17.972 20.1572L18.295 20.3942L18.144 20.5032L18.512 20.7402L18.49 20.4812L18.685 20.1582L18.9 20.3732L19.117 20.6732L18.727 20.7822L18.9 21.1272L19.159 20.9742L19.117 20.8682L19.312 20.7372L19.418 20.1972C19.5668 20.5206 19.7641 20.8194 20.003 21.0832L18.226 22.8612C17.364 21.9484 16.8203 20.7814 16.676 19.5342ZM5.814 20.5262C5.684 22.5782 4.301 23.5722 5.229 27.3082C3.609 24.1332 1.106 22.9472 0.371002 20.7882C0.414002 26.7272 5.186 27.6112 6.395 29.2522C5.381 25.4742 7.174 24.1562 5.814 20.5282V20.5262ZM38.983 20.5262C37.622 24.1542 39.416 25.4722 38.401 29.2522C39.61 27.6112 44.382 26.7262 44.425 20.7882C43.691 22.9692 41.187 24.1342 39.567 27.3082C40.496 23.5722 39.112 22.5782 38.983 20.5262ZM23.478 21.2612C23.478 21.3692 23.456 21.8612 23.456 22.1242C23.737 21.9732 23.932 21.8442 23.932 21.6242C23.932 21.4942 23.76 21.3642 23.522 21.2562L23.478 21.2612ZM26.458 23.6372L26.912 23.9602L27.257 24.1332L27.43 24.3062L27.344 24.3922L26.804 24.2412L26.631 24.3052L26.331 24.0682L26.05 23.9602C26.201 23.8522 26.33 23.7452 26.46 23.6372H26.458ZM22.896 24.7372C22.896 24.7372 22.696 24.8022 22.596 24.8452C22.531 24.8662 22.338 24.9522 22.209 24.9962C22.08 25.0402 21.928 25.1062 21.928 25.1492C21.928 25.1492 22.056 31.7992 22.056 31.9282C22.056 33.2892 22.749 33.3102 22.749 31.9282C22.749 31.8422 22.9 24.7372 22.9 24.7372H22.896ZM6.915 24.9962C7.261 26.5722 6.266 28.8842 7.843 31.0652C6.223 29.2512 2.768 28.7772 1.365 26.0132C3.114 32.7722 7.694 31.3902 9.745 32.8592C8.059 30.4202 9.441 28.7992 6.914 24.9982L6.915 24.9962ZM37.861 24.9962C35.334 28.7962 36.716 30.4182 35.031 32.8582C37.104 31.3902 41.662 32.7722 43.411 26.0122C42.011 28.7762 38.574 29.2502 36.955 31.0642C38.531 28.8832 37.537 26.5942 37.861 24.9962ZM9.853 25.3442L10.305 26.0552L10.327 25.9492L10.112 25.4492L9.853 25.3442ZM28.726 25.6232L30.497 27.3942C29.8414 28.0303 29.1083 28.5813 28.315 29.0342L28.552 28.5342L28.466 28.3192L28.811 28.0192V27.8462L28.511 27.6512L28.748 27.1512L29.116 26.6752L28.748 26.2882H28.467L28.294 26.0072C28.445 25.8772 28.594 25.7472 28.726 25.6172V25.6232ZM13.739 26.2722L14.301 26.5952L14.409 26.6812L13.997 27.0932C13.8059 26.9035 13.6256 26.7032 13.457 26.4932L13.739 26.2722ZM23.35 26.5092L23.328 27.5032C23.7562 27.6829 24.1402 27.9536 24.4532 28.2965C24.7663 28.6395 25.001 29.0465 25.141 29.4892C25.2095 28.865 25.0714 28.2355 24.7479 27.6973C24.4244 27.159 23.9334 26.7417 23.35 26.5092ZM9.333 29.0152C10.175 30.3152 9.311 31.9302 11.968 34.4352C9.377 32.9022 5.768 33.5492 4.044 31.4972C7.024 37.1972 12.244 34.8672 13.717 35.5802C12.312 33.6342 13.262 32.5342 9.332 29.0162L9.333 29.0152ZM35.465 29.0152C31.513 32.5352 32.484 33.6362 31.059 35.5802C32.549 34.8672 37.774 37.1982 40.732 31.4972C39.026 33.5702 35.421 32.8972 32.832 34.4352C35.486 31.9102 34.626 30.2912 35.464 29.0162L35.465 29.0152ZM18.465 35.2152C17.0061 35.2677 15.5579 35.4855 14.148 35.8642C11.773 36.4902 9.719 36.9862 7.927 36.0792C9.633 37.5912 11.642 38.1522 14.536 37.8282C16.936 37.5692 18.877 36.3612 21.145 36.3822H21.231C19.8038 37.0959 18.5333 38.0873 17.494 39.2982L18.594 39.4492C18.9932 38.7283 19.5366 38.0973 20.1904 37.5956C20.8442 37.0939 21.5943 36.7323 22.394 36.5332C23.1937 36.7323 23.9438 37.0939 24.5976 37.5956C25.2514 38.0973 25.7948 38.7283 26.194 39.4492L27.294 39.2982C26.2547 38.0873 24.9842 37.0959 23.557 36.3822H23.643C25.911 36.3602 27.855 37.5692 30.252 37.8282C33.146 38.1282 35.133 37.5912 36.861 36.0792C35.069 36.9862 33.015 36.4902 30.64 35.8642C29.2312 35.4853 27.7839 35.2673 26.326 35.2142C24.9848 35.1867 23.6506 35.4138 22.394 35.8832C21.1381 35.4137 19.8045 35.1867 18.464 35.2142L18.465 35.2152ZM71.975 10.2442V19.7642H73.56V10.2442H71.975ZM78.398 10.2442V14.1782H78.38C78.2372 13.8542 77.9995 13.581 77.6984 13.3946C77.3973 13.2083 77.0467 13.1175 76.693 13.1342C75.283 13.1342 74.43 14.3702 74.43 16.5102C74.43 18.3202 75.107 19.8692 76.73 19.8692C77.1 19.8884 77.4667 19.7912 77.7788 19.5915C78.0908 19.3917 78.3325 19.0993 78.47 18.7552H78.505C78.5046 19.0925 78.5216 19.4297 78.556 19.7652H80.035C80 19.4002 79.982 19.0172 79.982 18.6512V10.2442H78.398ZM103.667 10.2442V19.7642H105.232V10.2442H103.667ZM110.42 10.2442V19.7642H111.985V15.9542C111.985 15.1192 112.285 14.4222 113.099 14.4222C113.743 14.4222 114.005 14.8412 114.005 15.8502V19.7642H115.57V15.5532C115.57 14.2302 115.119 13.1332 113.639 13.1332C113.308 13.1234 112.982 13.2064 112.696 13.3727C112.41 13.539 112.176 13.782 112.021 14.0742H111.986V10.2442H110.42ZM51.72 10.9062L53.529 19.7822H55.444L56.837 12.5072H56.855L58.195 19.7822H60.143L61.972 10.9062H60.493L59.187 17.7452H59.169L57.847 10.9062H55.861L54.521 17.7452H54.505L53.252 10.9062H51.72ZM84.663 10.9062V19.7642H86.298V15.8492H88.926V19.7812H90.544V10.9062H88.926V14.5062H86.298V10.9062H84.663ZM108.61 11.3932L107.045 11.8802H107.026V13.2342H105.981V14.3832H107.026V17.9502C107.026 19.3252 107.687 19.8652 108.853 19.8652C109.218 19.867 109.579 19.7963 109.916 19.6572V18.5462C109.731 18.637 109.529 18.6845 109.323 18.6852C108.871 18.6852 108.61 18.4762 108.61 17.7792V14.3682H109.916V13.2192H108.609L108.61 11.3932ZM64.266 13.1172C62.943 13.1172 61.396 13.8172 61.379 16.4762C61.379 19.2082 62.926 19.8502 64.266 19.8502C65.606 19.8502 67.138 19.2252 67.138 16.4762C67.138 13.8132 65.606 13.1172 64.266 13.1172ZM99.717 13.1172C98.9986 13.1207 98.2903 13.2865 97.645 13.6022L97.751 14.8552C98.2653 14.4576 98.8922 14.2329 99.542 14.2132C99.7085 14.1991 99.8761 14.2222 100.033 14.2807C100.189 14.3392 100.331 14.4317 100.447 14.5516C100.564 14.6714 100.652 14.8156 100.706 14.9738C100.76 15.132 100.779 15.3001 100.76 15.4662V15.7102H100.446C98.446 15.7102 97.001 16.1622 97.001 17.9372C96.9952 18.1933 97.0419 18.4478 97.1384 18.6851C97.2349 18.9223 97.379 19.1373 97.5619 19.3166C97.7448 19.4959 97.9625 19.6358 98.2016 19.7276C98.4407 19.8193 98.6961 19.8611 98.952 19.8502C99.3164 19.8577 99.6765 19.7701 99.9969 19.5962C100.317 19.4222 100.587 19.1679 100.779 18.8582H100.797C100.782 19.1568 100.811 19.4559 100.883 19.7462H102.311C102.256 19.3656 102.228 18.9817 102.225 18.5972V15.7432C102.225 14.1072 101.755 13.1172 99.719 13.1172H99.717ZM71.037 13.1342C70.6589 13.1486 70.2947 13.2805 69.995 13.5115C69.6953 13.7425 69.4751 14.0612 69.365 14.4232H69.347C69.347 14.0232 69.313 13.6232 69.296 13.2232H67.868C67.903 13.5882 67.921 13.9382 67.921 14.3032L67.939 19.7852H69.504V16.1952C69.504 14.9772 70.217 14.5792 70.861 14.5792C71.0085 14.5852 71.1548 14.6084 71.297 14.6482V13.1682C71.2113 13.1481 71.1239 13.1364 71.036 13.1332L71.037 13.1342ZM94.028 13.1342C92.357 13.1342 91.328 14.6502 91.328 16.5992C91.328 18.3572 92.251 19.8692 94.357 19.8692C95.0285 19.8706 95.6926 19.7287 96.305 19.4532L96.252 18.2332C95.7514 18.5914 95.1435 18.7678 94.529 18.7332C93.311 18.7332 92.86 18.0562 92.86 16.9422H96.635V16.6342C96.635 13.9542 95.436 13.1342 94.028 13.1342ZM94.008 14.1972C94.722 14.1972 95.108 14.7892 95.108 15.9372H92.843C92.843 15.0672 93.172 14.1972 94.008 14.1972ZM64.267 14.2482C65.294 14.2482 65.52 15.3972 65.52 16.4932C65.52 17.5892 65.276 18.7562 64.267 18.7562C63.258 18.7562 63.014 17.5902 63.014 16.4932C63.014 15.3962 63.239 14.2462 64.266 14.2462L64.267 14.2482ZM77.167 14.2832C78.037 14.2832 78.385 15.2072 78.385 16.4772C78.385 17.6952 78.072 18.7022 77.15 18.7022C76.25 18.7022 76.001 17.9562 75.983 16.4412C75.983 15.1362 76.297 14.2822 77.168 14.2822L77.167 14.2832ZM100.607 16.5632H100.764V16.9442C100.764 18.1102 100.417 18.8082 99.478 18.8082H99.354C99.1027 18.7915 98.8682 18.6758 98.7021 18.4865C98.536 18.2971 98.4518 18.0496 98.468 17.7982C98.468 16.8412 99.268 16.5632 100.607 16.5632ZM82.47 21.8012V23.3492H84.106V21.8012H82.47ZM101.07 21.8012V23.3492H102.688V21.8012H101.07ZM55.326 22.1342C53.481 22.1342 51.792 23.5082 51.792 26.6932C51.792 29.8782 53.481 31.2542 55.326 31.2542C57.171 31.2542 58.86 29.8782 58.86 26.6932C58.86 23.5082 57.166 22.1342 55.326 22.1342ZM98.817 22.7612L97.252 23.2482L97.232 24.5882H96.184V25.7342H97.226V29.3212C97.226 30.6782 97.889 31.2212 99.055 31.2212C99.4204 31.2401 99.7848 31.1687 100.116 31.0132V29.8932C99.9352 29.992 99.7309 30.0401 99.525 30.0322C99.073 30.0322 98.812 29.8232 98.812 29.1262V25.7342H100.112V24.5842H98.812L98.817 22.7612ZM55.326 23.3842C56.353 23.3842 57.188 24.2362 57.188 26.6902C57.188 29.1442 56.353 30.0152 55.326 30.0152C54.299 30.0152 53.464 29.1262 53.464 26.6902C53.464 24.2542 54.294 23.3842 55.326 23.3842ZM72.326 24.4842C71.607 24.4806 70.8974 24.6482 70.256 24.9732L70.356 26.2242C70.8709 25.8261 71.4984 25.6007 72.149 25.5802C72.3156 25.5662 72.4831 25.5892 72.6397 25.6477C72.7963 25.7062 72.9379 25.7987 73.0544 25.9186C73.1709 26.0384 73.2594 26.1826 73.3134 26.3408C73.3675 26.499 73.3858 26.6671 73.367 26.8332V27.0772H73.056C71.056 27.0772 69.609 27.5292 69.609 29.3042C69.6029 29.5602 69.6494 29.8147 69.7455 30.052C69.8417 30.2892 69.9855 30.5043 70.1681 30.6838C70.3507 30.8632 70.5682 31.0034 70.8071 31.0955C71.0459 31.1876 71.3012 31.2297 71.557 31.2192C71.9218 31.227 72.2823 31.1396 72.603 30.9657C72.9237 30.7917 73.1936 30.5372 73.386 30.2272H73.404C73.3894 30.5258 73.4184 30.825 73.49 31.1152H74.916C74.8599 30.7334 74.8298 30.3482 74.826 29.9622V27.1082C74.826 25.4722 74.356 24.4802 72.32 24.4802L72.326 24.4842ZM93.036 24.4842C92.317 24.4806 91.6074 24.6482 90.966 24.9732L91.066 26.2242C91.5809 25.8261 92.2084 25.6007 92.859 25.5802C93.0256 25.5662 93.1931 25.5892 93.3497 25.6477C93.5063 25.7062 93.6479 25.7987 93.7644 25.9186C93.8809 26.0384 93.9694 26.1826 94.0234 26.3408C94.0775 26.499 94.0958 26.6671 94.077 26.8332V27.0772H93.763C91.763 27.0772 90.318 27.5292 90.318 29.3042C90.3122 29.5604 90.3589 29.815 90.4554 30.0523C90.5518 30.2897 90.6959 30.5048 90.8788 30.6842C91.0616 30.8637 91.2793 31.0038 91.5185 31.0958C91.7576 31.1878 92.013 31.2298 92.269 31.2192C92.6334 31.2267 92.9935 31.1391 93.3139 30.9652C93.6342 30.7912 93.9038 30.5369 94.096 30.2272H94.114C94.0995 30.5258 94.1285 30.825 94.2 31.1152H95.626C95.5714 30.7346 95.5427 30.3507 95.54 29.9662V27.1082C95.54 25.4722 95.07 24.4802 93.034 24.4802L93.036 24.4842ZM106.436 24.4842C105.113 24.4842 103.566 25.1972 103.549 27.8432C103.549 30.5932 105.096 31.2192 106.436 31.2192C107.776 31.2192 109.31 30.5922 109.31 27.8432C109.306 25.1762 107.773 24.4802 106.433 24.4802L106.436 24.4842ZM62.636 24.5022C62.2591 24.5195 61.8966 24.6526 61.598 24.8832C61.2993 25.1138 61.079 25.4309 60.967 25.7912H60.949C60.949 25.3912 60.913 24.9912 60.896 24.5912H59.47C59.505 24.9562 59.521 25.3062 59.521 25.6712V31.1532H61.089V27.5622C61.089 26.3442 61.802 25.9412 62.446 25.9412C62.599 25.9465 62.7508 25.9704 62.898 26.0122V24.5342C62.8088 24.5127 62.7177 24.5003 62.626 24.4972L62.636 24.5022ZM65.665 24.5022C63.942 24.5022 63.298 26.0862 63.298 27.8962C63.298 30.5412 64.673 31.1512 65.578 31.1512C65.9438 31.1617 66.3041 31.0603 66.6109 30.8608C66.9176 30.6612 67.1563 30.3729 67.295 30.0342H67.313V30.6612C67.313 31.6882 67.068 32.7132 65.588 32.7132C64.9075 32.6952 64.2429 32.5038 63.657 32.1572L63.588 33.5502C64.3065 33.8136 65.0657 33.949 65.831 33.9502C68.231 33.9502 68.86 32.5082 68.86 30.4502V25.6292C68.86 25.2812 68.896 24.9502 68.913 24.6022H67.487C67.47 24.9332 67.434 25.2642 67.434 25.6122H67.381C67.2357 25.2773 66.9946 24.9929 66.688 24.7947C66.3814 24.5964 66.023 24.4933 65.658 24.4982L65.665 24.5022ZM79.343 24.5022C78.9779 24.499 78.6197 24.6011 78.3111 24.7962C78.0025 24.9912 77.7567 25.2711 77.603 25.6022H77.585C77.585 25.2712 77.551 24.9232 77.534 24.5922H76.047C76.082 24.9572 76.1 25.3072 76.1 25.6722V31.1192H77.668V27.3092C77.668 26.4742 77.968 25.7772 78.782 25.7772C79.426 25.7772 79.682 26.1932 79.682 27.2032V31.1372H81.27V26.9152C81.27 25.5922 80.816 24.4972 79.337 24.4972L79.343 24.5022ZM113.8 24.5022C113.435 24.4986 113.077 24.6004 112.769 24.7956C112.46 24.9907 112.215 25.2709 112.062 25.6022H112.044C112.044 25.2712 112.008 24.9232 111.991 24.5922H110.506C110.541 24.9572 110.559 25.3072 110.559 25.6722L110.575 31.1192H112.143V27.3092C112.143 26.4742 112.443 25.7772 113.257 25.7772C113.901 25.7772 114.163 26.1932 114.163 27.2032V31.1372H115.726V26.9152C115.726 25.5922 115.272 24.4972 113.793 24.4972L113.8 24.5022ZM82.505 24.5842V31.1292H84.071V24.5842H82.505ZM85.394 24.5842V25.7842H88.109L85.309 29.7692H85.288V31.1262H89.763V29.9262H86.926L89.676 25.9262V24.5842H85.394ZM101.107 24.5842L101.125 31.1292H102.693V24.5842H101.107ZM106.432 25.6112C107.459 25.6112 107.685 26.7602 107.685 27.8562C107.685 28.9522 107.441 30.1192 106.432 30.1192C105.423 30.1192 105.181 28.9532 105.181 27.8562C105.181 26.7592 105.405 25.6112 106.432 25.6112ZM66.059 25.6972C66.807 25.6802 67.33 26.4102 67.33 27.7852C67.33 29.2642 66.93 29.9792 65.937 29.9792C65.398 29.9792 64.91 29.3362 64.91 27.8052C64.91 26.4822 65.224 25.7152 66.059 25.6972ZM73.21 27.9242H73.349L73.367 28.3092C73.367 29.4752 73.018 30.1692 72.078 30.1692H71.956C71.7045 30.1525 71.4699 30.0369 71.3035 29.8476C71.137 29.6583 71.0524 29.4108 71.068 29.1592C71.068 28.2022 71.869 27.9242 73.21 27.9242ZM93.92 27.9242H94.077V28.3092C94.077 29.4752 93.728 30.1692 92.788 30.1692H92.666C92.4145 30.1525 92.1799 30.0369 92.0135 29.8476C91.847 29.6583 91.7624 29.4108 91.778 29.1592C91.778 28.2022 92.579 27.9242 93.92 27.9242Z" fill="#393939"/>
</g>
<defs>
<clipPath id="clip0_326_11558">
<rect width="115.356" height="38.894" fill="white" transform="translate(0.372009 0.553223)"/>
</clipPath>
</defs>
</svg>
