<svg width="100" height="100" viewBox="0 0 100 100" fill="none" xmlns="http://www.w3.org/2000/svg">
<rect width="100" height="100" rx="4" fill="#1E71B8"/>
<path fill-rule="evenodd" clip-rule="evenodd" d="M83.1389 57.9019H83.3341C83.454 57.9019 83.5403 57.9239 83.5947 57.9779C83.6167 57.9887 83.6279 57.9999 83.6383 58.0103C83.7251 58.0862 83.823 58.2386 83.9425 58.4449L84.1272 58.7703H84.5182L84.2795 58.3689C84.1596 58.1842 84.0513 58.0431 83.9753 57.9671C83.9249 57.9201 83.8658 57.8833 83.8014 57.8587C83.9753 57.8479 84.1161 57.7828 84.2248 57.674C84.3335 57.5653 84.3883 57.4354 84.3883 57.283C84.3883 57.1747 84.3551 57.0767 84.2903 56.99C84.2296 56.8958 84.1371 56.8264 84.0297 56.7945C83.9429 56.7621 83.813 56.7401 83.6387 56.7401C83.6063 56.7401 83.5627 56.7293 83.5195 56.7293H82.8139V58.7699H83.1393L83.1389 57.9019ZM83.1389 57.0116H83.6383C83.7362 57.0228 83.801 57.0336 83.8446 57.0444C83.9036 57.0611 83.954 57.0999 83.9853 57.1527C84.0177 57.1959 84.0289 57.2506 84.0289 57.3158C84.0301 57.357 84.0219 57.3979 84.005 57.4355C83.988 57.473 83.9627 57.5062 83.931 57.5325C83.8766 57.5869 83.7786 57.6085 83.6379 57.6197H83.1385V57.0116H83.1389ZM34.3905 57.2399H37.3214L34.3905 52.3551L31.9153 48.2415L21.3973 54.5588L23.0037 57.2399H34.3905ZM61.6575 57.2399H75.9752L67.0628 42.3907L57.2073 26L53.1473 28.4424L46.6996 32.3173L53.1473 43.0528L61.6575 57.2399ZM56.6539 62.1354C55.644 61.4845 54.4606 61.1043 53.1797 61.1043H53.1473C49.609 61.1259 46.7324 64.0133 46.7324 67.552C46.7324 71.091 49.609 73.978 53.1473 74H53.1797C54.4606 74 55.644 73.6202 56.6539 72.9689V73.6418H59.6169V57.2402H56.6539V62.1354ZM56.6539 68.2252C56.3393 69.8536 54.8952 71.1014 53.1797 71.1014H53.1473C51.2042 71.0798 49.6306 69.495 49.6306 67.552C49.6306 65.6093 51.2042 64.0245 53.1473 64.0133H53.1797C54.8952 64.0133 56.3389 65.2511 56.6539 66.8791V68.2252ZM70.5695 62.1354C69.5365 61.4614 68.3295 61.103 67.096 61.1043H67.0628C63.5246 61.1259 60.6484 64.0133 60.6484 67.552C60.6484 71.091 63.5246 73.978 67.0628 74H67.096C68.377 74 69.5708 73.6202 70.5695 72.9689V73.6418H73.5332V61.4298H70.5695V62.1354ZM70.5695 68.2252C70.2549 69.8536 68.8108 71.1014 67.096 71.1014H67.0628C65.1206 71.0798 63.5465 69.495 63.5465 67.552C63.5465 65.6093 65.1206 64.0245 67.0628 64.0133H67.096C68.8108 64.0133 70.2545 65.2511 70.5695 66.8791V68.2252ZM84.0729 66.7488C83.9645 66.694 83.8122 66.64 83.6383 66.5749C82.9762 66.347 81.9015 66.0647 80.4035 65.7393C79.0901 65.4458 78.428 65.0664 78.428 64.5886C78.428 64.252 78.5472 63.9805 78.7751 63.7854C79.0793 63.5248 79.6215 63.3944 80.4035 63.3944C81.1959 63.3944 81.7712 63.5683 82.1078 63.9046C82.3141 64.1109 82.4657 64.4795 82.5636 65.0008H85.7117C85.7117 63.4596 85.082 62.3525 83.8446 61.6797C83.7794 61.6371 83.7103 61.6008 83.6383 61.5713C82.7803 61.1695 81.6409 60.9632 80.2192 60.9632C78.4928 60.9632 77.1907 61.4194 76.3227 62.3417C75.6282 63.0798 75.2916 63.9805 75.2916 65.0444C75.2916 66.3693 75.9425 67.3241 77.267 67.943C77.7664 68.1817 78.9818 68.5183 80.9144 68.9309C82.2062 69.2132 82.8567 69.6149 82.8567 70.1251C82.8567 70.4293 82.7271 70.6896 82.4449 70.9283C82.0863 71.2322 81.5433 71.3845 80.8165 71.3845C79.8501 71.3845 79.1665 71.2217 78.7651 70.9071C78.3629 70.6032 78.1566 70.1583 78.1566 69.5937H74.857C74.857 71.0918 75.4867 72.2097 76.7565 72.9473C77.7664 73.5226 79.0905 73.8161 80.7301 73.8161C81.826 73.8161 82.8027 73.6314 83.6387 73.2735C83.8126 73.1976 83.9649 73.1212 84.1276 73.0345C85.4194 72.3184 86.0707 71.1786 86.0707 69.6157C86.0703 68.3336 85.4074 67.3781 84.0729 66.7488ZM23.8505 62.1354C22.8129 61.4627 21.6028 61.1046 20.3662 61.1043H20.3334C16.8059 61.1259 13.9293 64.0133 13.9293 67.552C13.9293 71.091 16.8059 73.978 20.3334 74H20.3662C21.6471 74 22.841 73.6202 23.8505 72.9689V73.6418H26.8138V61.4298H23.8505V62.1354ZM23.8505 68.2252C23.5358 69.8536 22.0917 71.1014 20.3662 71.1014H20.3334C18.4015 71.0798 16.8275 69.495 16.8275 67.552C16.8275 65.6093 18.4015 64.0245 20.3334 64.0133H20.3662C22.0921 64.0133 23.5358 65.2511 23.8505 66.8791V68.2252ZM42.347 60.1384H45.571V57.305H42.347V60.1384ZM42.347 73.6414H45.571V61.1043H42.347V73.6414ZM37.9076 62.1354C36.8698 61.4626 35.6596 61.1045 34.4229 61.1043H34.3905C30.8518 61.1259 27.9752 64.0133 27.9752 67.552C27.9752 71.091 30.8514 73.978 34.3905 74H34.4229C35.6596 74 36.8699 73.6418 37.9076 72.9689V73.6418H40.8709V57.2402H37.9076V62.1354ZM37.9076 68.2252C37.5929 69.8536 36.1488 71.1014 34.4229 71.1014H34.3905C32.4474 71.0798 30.8734 69.495 30.8734 67.552C30.8734 65.6093 32.4474 64.0245 34.3905 64.0133H34.4229C36.1488 64.0133 37.5925 65.2511 37.9076 66.8791V68.2252ZM56.6424 57.2399L53.1473 51.4003L44.5615 37.1153L34.3905 43.2375L34.0431 43.4434L34.3905 44.0187L42.3358 57.2399H56.6424Z" fill="white"/>
</svg>
