<svg xmlns="http://www.w3.org/2000/svg" width="14.956" height="19.837" viewBox="0 0 14.956 19.837">
  <g id="Group_103765" data-name="Group 103765" transform="translate(-2569.821 -4775.28)">
    <path id="Path_63680" data-name="Path 63680" d="M150.284,363.12h-9.368a.936.936,0,1,0,0,1.873h9.368a.936.936,0,0,0,0-1.873Z" transform="translate(2431.705 4430.125)" fill="#fff"/>
    <g id="Group_103595" data-name="Group 103595" transform="translate(2569.821 4775.28)">
      <path id="Path_63679" data-name="Path 63679" d="M245.467,226.8a7.051,7.051,0,0,0,4.845-1.692h0c2.08-2.08,1.671-5.7,1.653-5.854a.938.938,0,0,0-.819-.818c-.519-.148-5.21-.216-6.615,2.668-1.393-2.881-6.122-2.818-6.614-2.668a.936.936,0,0,0-.818.817c-.019.153-.429,3.774,1.653,5.856a7.041,7.041,0,0,0,4.845,1.692Zm1.149-5.389a5.2,5.2,0,0,1,3.518-1.147c.033,3.072-1.606,4.7-4.666,4.664a5.208,5.208,0,0,1,1.149-3.517Zm-6.543,2.371a5.2,5.2,0,0,1-1.146-3.515c3.083-.029,4.7,1.605,4.665,4.661a5.22,5.22,0,0,1-3.519-1.147Z" transform="translate(-237.053 -218.382)" fill="#fff"/>
      <path id="Path_63681" data-name="Path 63681" d="M10.305,0H.936a.936.936,0,0,0,0,1.873h9.369a.936.936,0,0,0,0-1.873Z" transform="translate(6.541 14.889) rotate(-90)" fill="#fff"/>
    </g>
  </g>
</svg>
