<svg width="32" height="32" viewBox="0 0 32 32" fill="none" xmlns="http://www.w3.org/2000/svg">
<path fill-rule="evenodd" clip-rule="evenodd" d="M1 7C1 3.68629 3.68629 1 7 1H25C28.3137 1 31 3.68629 31 7V21C31 24.3137 28.3137 27 25 27H19.9538L16.7526 30.6585C16.5627 30.8755 16.2884 31 16 31C15.7116 31 15.4373 30.8755 15.2474 30.6585L12.0463 27H7C3.68629 27 1 24.3137 1 21V7ZM16 7C16.4669 7 16.8716 7.32305 16.9751 7.77825L17.5284 10.2114C17.7843 11.3369 18.6631 12.2157 19.7885 12.4716L22.2218 13.0249C22.677 13.1284 23 13.5331 23 14C23 14.4669 22.677 14.8716 22.2218 14.9751L19.7885 15.5284C18.6631 15.7843 17.7843 16.6631 17.5284 17.7885L16.9751 20.2218C16.8716 20.677 16.4669 21 16 21C15.5331 21 15.1284 20.677 15.0249 20.2218L14.4716 17.7885C14.2157 16.6631 13.3369 15.7843 12.2114 15.5284L9.77825 14.9751C9.32305 14.8716 9 14.4669 9 14C9 13.5331 9.32305 13.1284 9.77825 13.0249L12.2114 12.4716C13.3369 12.2157 14.2157 11.3369 14.4716 10.2114L15.0249 7.77825C15.1284 7.32305 15.5331 7 16 7Z" fill="white"/>
</svg>
