<svg xmlns="http://www.w3.org/2000/svg" width="37.397" height="42.133" viewBox="0 0 37.397 42.133">
  <g id="Group_105382" data-name="Group 105382" transform="translate(2174.657 -9773.12)">
    <g id="aws-dynamodb-seeklogo.com" transform="translate(-2174.657 9773.12)">
      <path id="Path_22366" data-name="Path 22366" d="M165.221,42.133h.513L174.1,37.95l.145-.2V4.377l-.145-.2L165.733,0h-.518V42.133" transform="translate(-141.08)" fill="#5294cf"/>
      <path id="Path_22367" data-name="Path 22367" d="M37.354,42.133h-.52L28.48,37.957l-.169-.29L28.222,4.546l.256-.368L36.834,0h.526V42.133" transform="translate(-24.097)" fill="#1f5b98"/>
      <path id="Path_22368" data-name="Path 22368" d="M87.285,0H99.179V42.133H87.285Z" transform="translate(-74.533)" fill="#2d72b8"/>
      <path id="Path_22369" data-name="Path 22369" d="M37.394,44.554l-.29-.062-4.035-.376-.059.03-8.372-.334H12.75l-8.372.334V37.762H4.369l.009-.019L12.75,35.8H24.644l8.372,1.94,3.077,1.636V38.328l1.3-.145-.135-.262-4.118-2.945-.126.041-8.373-2.587H12.75l-8.37,2.593V28.61L0,33.738v4.48l.033-.025,1.267.145v1.073l-1.3.7v4.457H.031l1.267.019v1.871L.205,46.47,0,46.441v4.452l1.3.7v1.086l-1.247.145L0,52.775v4.488l4.378,5.13V55.976l8.37,2.59H24.644l8.4-2.606.111.049,4.064-2.9.178-.29-1.3-.145V51.617l-.171-.068-2.781,1.5-.1.21-8.4,1.929H12.75l-8.37-1.934V46.846l8.372.333v.009H24.644l8.372-.342.191.088,3.909-.337.277-.135-1.3-.019V44.573l1.3-.019" transform="translate(0.002 -24.431)" fill="#1a476f"/>
      <path id="Path_22370" data-name="Path 22370" d="M226.027,197.456v6.407l4.378-5.13v-4.449l-4.352,3.159-.025.007" transform="translate(-193.009 -165.911)" fill="#2d72b8"/>
      <path id="Path_22371" data-name="Path 22371" d="M226.027,157.53h.025l4.352-2.341V150.7l-4.378.4v6.421" transform="translate(-193.01 -128.694)" fill="#2d72b8"/>
      <path id="Path_22372" data-name="Path 22372" d="M226.052,91.172h-.025v6.4l4.378.41V93.506l-4.352-2.327" transform="translate(-193.009 -77.85)" fill="#2d72b8"/>
      <path id="Path_22373" data-name="Path 22373" d="M226.052,35.049l4.352,3.142V33.74l-4.378-5.13v6.413l.025.009v.016" transform="translate(-193.01 -24.431)" fill="#2d72b8"/>
    </g>
  </g>
</svg>
