<svg id="amazon-documentdb" xmlns="http://www.w3.org/2000/svg" xmlns:xlink="http://www.w3.org/1999/xlink" width="65.593" height="72.534" viewBox="0 0 65.593 72.534">
  <defs>
    <linearGradient id="linear-gradient" y1="0.5" x2="1" y2="0.5" gradientUnits="objectBoundingBox">
      <stop offset="0" stop-color="#d25535"/>
      <stop offset="1" stop-color="#e08b20"/>
    </linearGradient>
    <linearGradient id="linear-gradient-2" x1="-0.002" y1="0.501" x2="1.262" y2="0.501" xlink:href="#linear-gradient"/>
    <linearGradient id="linear-gradient-3" x1="-1.783" y1="0.501" x2="4.504" y2="0.501" xlink:href="#linear-gradient"/>
    <linearGradient id="linear-gradient-4" x1="-3.306" y1="0.499" x2="2.959" y2="0.499" xlink:href="#linear-gradient"/>
  </defs>
  <g id="Group_2473" data-name="Group 2473" transform="translate(11.94 0)">
    <path id="Path_14405" data-name="Path 14405" d="M122.056,12.637a.63.63,0,0,0,.63-.63V7.231C122.686,3.452,115.8.5,106.993.5S91.3,3.452,91.3,7.231V40.585c0,3.779,6.889,6.731,15.693,6.731s15.693-2.952,15.693-6.731v-.8a.63.63,0,1,0-1.26,0v.8c0,2.637-5.8,5.458-14.42,5.458s-14.433-2.821-14.433-5.458v-7.9c2.388,2.388,7.873,4.028,14.42,4.028,1.1,0,2.217-.052,3.293-.144a.639.639,0,0,0-.118-1.273c-1.037.092-2.1.144-3.175.144-8.621,0-14.42-2.821-14.42-5.458V21.651c2.388,2.388,7.873,4.028,14.42,4.028,1.115,0,2.217-.052,3.293-.144a.639.639,0,0,0-.118-1.273c-1.037.092-2.113.144-3.188.144-8.621,0-14.42-2.821-14.42-5.458V9.934c2.388,2.388,7.873,4.028,14.42,4.028s12.045-1.64,14.42-4.028v2.073A.662.662,0,0,0,122.056,12.637Zm-15.063.052c-8.621,0-14.42-2.821-14.42-5.458s5.8-5.458,14.42-5.458,14.42,2.821,14.42,5.458S115.614,12.69,106.993,12.69Z" transform="translate(-91.3 -0.5)" fill="url(#linear-gradient)"/>
    <g id="Group_2472" data-name="Group 2472" transform="translate(22.162 13.515)">
      <path id="Path_14406" data-name="Path 14406" d="M279.331,111.465h0a.74.74,0,0,0-.052-.157c0-.013-.013-.026-.026-.039a.514.514,0,0,0-.1-.131l-3.2-3.2-2.126-2.126-2.126-2.126a.625.625,0,0,0-.446-.184H260.83a.63.63,0,0,0-.63.63v18.658a.63.63,0,0,0,.63.63h1.483V124.9a.63.63,0,0,0,.63.63h1.483v1.483a.63.63,0,0,0,.63.63h13.633a.63.63,0,0,0,.63-.63V111.583C279.344,111.543,279.331,111.5,279.331,111.465Zm-3.2-1.548,1.037,1.037h-1.037Zm-14.656,12.242V104.773h9.513l.853.853h-8.883a.63.63,0,0,0-.63.63v15.9Zm2.126,2.126V106.9h9.513l.853.853h-8.883a.63.63,0,0,0-.63.63v15.9Zm2.112,2.126v-17.4h9.146v2.572a.63.63,0,0,0,.63.63h2.572V126.4H265.711Z" transform="translate(-260.2 -103.5)" fill="url(#linear-gradient-2)"/>
      <path id="Path_14407" data-name="Path 14407" d="M315.716,179.8a.637.637,0,0,0-.617-1.115,3.034,3.034,0,0,0-1.378,2.677c0,1.5-.748,1.614-.984,1.653a.638.638,0,0,0,0,1.26c.249.039.984.157.984,1.653A3,3,0,0,0,315.1,188.6a.659.659,0,0,0,.315.079.614.614,0,0,0,.551-.328.633.633,0,0,0-.249-.866,1.764,1.764,0,0,1-.722-1.561,3.058,3.058,0,0,0-.787-2.283,3.036,3.036,0,0,0,.787-2.283A1.781,1.781,0,0,1,315.716,179.8Z" transform="translate(-305.377 -168.747)" fill="url(#linear-gradient-3)"/>
      <path id="Path_14408" data-name="Path 14408" d="M360.49,183.092c-.249-.039-.984-.157-.984-1.653a3,3,0,0,0-1.378-2.677.637.637,0,1,0-.617,1.115,1.764,1.764,0,0,1,.722,1.561,3.059,3.059,0,0,0,.787,2.283,3.036,3.036,0,0,0-.787,2.283,1.834,1.834,0,0,1-.722,1.575.637.637,0,0,0-.236.866.629.629,0,0,0,.551.328.7.7,0,0,0,.315-.079,3.034,3.034,0,0,0,1.378-2.677c0-1.5.748-1.614.984-1.653a.635.635,0,0,0,.538-.63A.676.676,0,0,0,360.49,183.092Z" transform="translate(-344.456 -168.816)" fill="url(#linear-gradient-4)"/>
    </g>
  </g>
  <g id="Group_2474" data-name="Group 2474" transform="translate(0 52.406)">
    <path id="Path_14409" data-name="Path 14409" d="M98.216,407.392l-.748-2.073H94.621l-.735,2.073H92.6l2.795-7.492H96.72l2.795,7.492Zm-1.076-3.123-.7-2.034c-.052-.131-.118-.354-.21-.643s-.157-.512-.184-.643a10.436,10.436,0,0,1-.407,1.378l-.669,1.942Z" transform="translate(-80.489 -399.9)"/>
    <path id="Path_14410" data-name="Path 14410" d="M156.463,418.947h-1.207V415.47a1.56,1.56,0,0,0-.249-.971.9.9,0,0,0-.761-.315,1.185,1.185,0,0,0-1.023.446,2.684,2.684,0,0,0-.328,1.5v2.821H151.7V413.3h.945l.171.735h.066a1.563,1.563,0,0,1,.682-.617,2.255,2.255,0,0,1,.984-.223,1.707,1.707,0,0,1,1.719.892h.079a1.8,1.8,0,0,1,.709-.656,2.2,2.2,0,0,1,1.037-.236,1.884,1.884,0,0,1,1.47.512,2.287,2.287,0,0,1,.459,1.561v3.674h-1.194V415.47a1.56,1.56,0,0,0-.249-.971.927.927,0,0,0-.774-.315,1.2,1.2,0,0,0-1.023.433,2.28,2.28,0,0,0-.328,1.338v2.992Z" transform="translate(-131.835 -411.455)"/>
    <path id="Path_14411" data-name="Path 14411" d="M228.736,418.947l-.236-.787h-.039a2.289,2.289,0,0,1-.827.7,2.712,2.712,0,0,1-1.063.184,1.8,1.8,0,0,1-1.3-.446,1.673,1.673,0,0,1-.472-1.273,1.475,1.475,0,0,1,.643-1.312,3.664,3.664,0,0,1,1.968-.486l.971-.026v-.3a1.162,1.162,0,0,0-.249-.814,1.021,1.021,0,0,0-.787-.262,2.479,2.479,0,0,0-.827.131,4.837,4.837,0,0,0-.761.3l-.394-.853a4.6,4.6,0,0,1,1.01-.367,4.985,4.985,0,0,1,1.037-.131,2.432,2.432,0,0,1,1.627.472,1.826,1.826,0,0,1,.551,1.47v3.805Zm-1.784-.814a1.465,1.465,0,0,0,1.05-.367,1.344,1.344,0,0,0,.394-1.023v-.485l-.722.026a2.536,2.536,0,0,0-1.233.289.842.842,0,0,0-.381.774.751.751,0,0,0,.223.577A.911.911,0,0,0,226.952,418.134Z" transform="translate(-195.343 -411.455)"/>
    <path id="Path_14412" data-name="Path 14412" d="M274.477,419.642H270.2v-.735l2.847-3.989h-2.677V414H274.4v.84l-2.795,3.884h2.874Z" transform="translate(-234.786 -412.15)"/>
    <path id="Path_14413" data-name="Path 14413" d="M314.94,416.113a3.062,3.062,0,0,1-.709,2.152,2.549,2.549,0,0,1-1.968.774,2.756,2.756,0,0,1-1.4-.354,2.279,2.279,0,0,1-.932-1.023,3.4,3.4,0,0,1-.328-1.548,3.027,3.027,0,0,1,.709-2.139,2.559,2.559,0,0,1,1.981-.774,2.512,2.512,0,0,1,1.942.787A3.123,3.123,0,0,1,314.94,416.113Zm-4.107,0c0,1.3.486,1.955,1.443,1.955s1.43-.656,1.43-1.955-.486-1.929-1.443-1.929a1.23,1.23,0,0,0-1.089.5A2.454,2.454,0,0,0,310.833,416.113Z" transform="translate(-269.016 -411.455)"/>
    <path id="Path_14414" data-name="Path 14414" d="M365.673,418.947h-1.207v-3.464a1.532,1.532,0,0,0-.262-.971,1.038,1.038,0,0,0-.84-.328,1.32,1.32,0,0,0-1.115.446,2.476,2.476,0,0,0-.354,1.509v2.808H360.7V413.3h.945l.171.735h.066a1.67,1.67,0,0,1,.722-.617,2.447,2.447,0,0,1,1.037-.223,1.809,1.809,0,0,1,2.034,2.06Z" transform="translate(-313.411 -411.455)"/>
    <path id="Path_14415" data-name="Path 14415" d="M6.362,499.361a3.7,3.7,0,0,1-1.023,2.821,4.089,4.089,0,0,1-2.952.971H.3V495.7H2.609a3.8,3.8,0,0,1,2.769.958A3.6,3.6,0,0,1,6.362,499.361Zm-1.286.039c0-1.784-.84-2.677-2.506-2.677H1.52v5.406h.866A2.392,2.392,0,0,0,5.076,499.4Z" transform="translate(-0.3 -483.13)"/>
    <path id="Path_14416" data-name="Path 14416" d="M60.54,511.713a3.062,3.062,0,0,1-.709,2.152,2.55,2.55,0,0,1-1.968.774,2.756,2.756,0,0,1-1.4-.354,2.279,2.279,0,0,1-.932-1.023,3.4,3.4,0,0,1-.328-1.548,3.027,3.027,0,0,1,.709-2.139,2.56,2.56,0,0,1,1.981-.774,2.512,2.512,0,0,1,1.942.787A3.059,3.059,0,0,1,60.54,511.713Zm-4.107,0c0,1.3.485,1.955,1.443,1.955s1.43-.656,1.43-1.955-.485-1.929-1.443-1.929a1.23,1.23,0,0,0-1.089.5A2.426,2.426,0,0,0,56.433,511.713Z" transform="translate(-47.996 -494.511)"/>
    <path id="Path_14417" data-name="Path 14417" d="M106.411,514.639a2.464,2.464,0,0,1-1.942-.748,3.1,3.1,0,0,1-.669-2.139,3.181,3.181,0,0,1,.7-2.191,2.555,2.555,0,0,1,2.008-.761,3.716,3.716,0,0,1,1.6.328l-.367.958a3.662,3.662,0,0,0-1.26-.3c-.971,0-1.47.643-1.47,1.942a2.326,2.326,0,0,0,.367,1.43,1.277,1.277,0,0,0,1.063.472,3.048,3.048,0,0,0,1.509-.394v1.05a2.565,2.565,0,0,1-.682.276A3.767,3.767,0,0,1,106.411,514.639Z" transform="translate(-90.22 -494.511)"/>
    <path id="Path_14418" data-name="Path 14418" d="M149.428,515.142l-.171-.735h-.066a1.711,1.711,0,0,1-.709.617,2.422,2.422,0,0,1-1.05.223,1.8,1.8,0,0,1-2.034-2.06V509.5h1.207v3.477a1.532,1.532,0,0,0,.262.971,1.028,1.028,0,0,0,.827.328,1.337,1.337,0,0,0,1.115-.446,2.476,2.476,0,0,0,.354-1.509v-2.808h1.207v5.642h-.945Z" transform="translate(-126.361 -495.119)"/>
    <path id="Path_14419" data-name="Path 14419" d="M200.963,514.36h-1.207v-3.477a1.56,1.56,0,0,0-.249-.971.9.9,0,0,0-.761-.315,1.185,1.185,0,0,0-1.023.446,2.684,2.684,0,0,0-.328,1.5v2.808H196.2V508.7h.945l.171.735h.066a1.563,1.563,0,0,1,.682-.617,2.256,2.256,0,0,1,.984-.223,1.707,1.707,0,0,1,1.719.892h.079a1.8,1.8,0,0,1,.709-.656,2.2,2.2,0,0,1,1.037-.236,1.884,1.884,0,0,1,1.47.512,2.288,2.288,0,0,1,.459,1.561v3.674h-1.194v-3.464a1.56,1.56,0,0,0-.249-.971.927.927,0,0,0-.774-.315,1.2,1.2,0,0,0-1.023.433,2.28,2.28,0,0,0-.328,1.338v2.992Z" transform="translate(-170.496 -494.337)"/>
    <path id="Path_14420" data-name="Path 14420" d="M272.608,514.639a2.733,2.733,0,0,1-2.06-.761,2.905,2.905,0,0,1-.748-2.113,3.233,3.233,0,0,1,.682-2.178,2.38,2.38,0,0,1,1.889-.787,2.313,2.313,0,0,1,1.771.682,2.574,2.574,0,0,1,.643,1.863v.643h-3.753a1.827,1.827,0,0,0,.446,1.26,1.562,1.562,0,0,0,1.181.446,4.234,4.234,0,0,0,.932-.092,5.571,5.571,0,0,0,.932-.315v.971a3.768,3.768,0,0,1-.892.3A6.011,6.011,0,0,1,272.608,514.639Zm-.223-4.934a1.2,1.2,0,0,0-.918.367,1.71,1.71,0,0,0-.407,1.05h2.559a1.61,1.61,0,0,0-.341-1.063A1.137,1.137,0,0,0,272.385,509.705Z" transform="translate(-234.438 -494.511)"/>
    <path id="Path_14421" data-name="Path 14421" d="M323.26,514.447h-1.194v-3.464a1.532,1.532,0,0,0-.262-.971,1.038,1.038,0,0,0-.84-.328,1.32,1.32,0,0,0-1.115.446,2.476,2.476,0,0,0-.354,1.509v2.808H318.3V508.8h.945l.171.735h.066a1.67,1.67,0,0,1,.722-.617,2.447,2.447,0,0,1,1.037-.223,1.809,1.809,0,0,1,2.034,2.06v3.687Z" transform="translate(-276.575 -494.424)"/>
    <path id="Path_14422" data-name="Path 14422" d="M366.569,505.936a2.936,2.936,0,0,0,.879-.144v.905a2.753,2.753,0,0,1-.512.144,3.5,3.5,0,0,1-.656.053c-1.142,0-1.706-.6-1.706-1.8v-3.044H363.8v-.525l.827-.433.407-1.194h.735v1.26h1.6v.905h-1.6v3.018a.818.818,0,0,0,.223.643A.783.783,0,0,0,366.569,505.936Z" transform="translate(-316.104 -486.779)"/>
    <path id="Path_14423" data-name="Path 14423" d="M407.162,499.361a3.7,3.7,0,0,1-1.023,2.821,4.089,4.089,0,0,1-2.952.971H401.1V495.7h2.309a3.8,3.8,0,0,1,2.769.958A3.6,3.6,0,0,1,407.162,499.361Zm-1.286.039c0-1.784-.84-2.677-2.506-2.677h-1.05v5.406h.866A2.392,2.392,0,0,0,405.876,499.4Z" transform="translate(-348.51 -483.13)"/>
    <path id="Path_14424" data-name="Path 14424" d="M459.5,495.7h2.217a4.21,4.21,0,0,1,2.231.446,1.57,1.57,0,0,1,.682,1.417,1.74,1.74,0,0,1-.341,1.089,1.535,1.535,0,0,1-.971.551v.053a1.907,1.907,0,0,1,1.155.59,1.744,1.744,0,0,1,.367,1.181,1.939,1.939,0,0,1-.7,1.575,3.017,3.017,0,0,1-1.955.564H459.5Zm1.22,3.083h1.168a2.044,2.044,0,0,0,1.115-.236.919.919,0,0,0,.354-.827.832.832,0,0,0-.38-.761,2.353,2.353,0,0,0-1.207-.236h-1.05Zm0,.984v2.362h1.3a1.9,1.9,0,0,0,1.155-.289,1.078,1.078,0,0,0,.394-.932,1,1,0,0,0-.394-.866,2.03,2.03,0,0,0-1.207-.276H460.72Z" transform="translate(-399.247 -483.13)"/>
  </g>
</svg>
