<svg xmlns="http://www.w3.org/2000/svg" width="120.161" height="50" viewBox="0 0 120.161 50">
  <g id="amazon-kinesis-firehose-seeklogo" transform="translate(-120 -222.85)">
    <path id="Path_84680" data-name="Path 84680" d="M524.393,448.71h1.4v5.5h.033l3.93-5.5h1.56l-3.435,4.741,3.722,6.628h-1.56l-3.075-5.473-1.178,1.606v3.867h-1.4Z" transform="translate(-353.24 -197.292)" fill="#010202"/>
    <path id="Path_84681" data-name="Path 84681" d="M590.43,448.71h1.4v11.358h-1.4Z" transform="translate(-410.927 -197.292)" fill="#010202"/>
    <path id="Path_84682" data-name="Path 84682" d="M619.23,448.71h1.811l3.755,9.483h.03V448.71h1.4v11.358H624.3l-3.643-9.2h-.03v9.2h-1.4Z" transform="translate(-436.084 -197.292)" fill="#010202"/>
    <path id="Path_84683" data-name="Path 84683" d="M692.3,448.71h5.87v1.242h-4.462v3.563h4.2v1.242h-4.2v4.069h4.662v1.242H692.3Z" transform="translate(-499.912 -197.292)" fill="#010202"/>
    <path id="Path_84684" data-name="Path 84684" d="M755.484,450.158c0-1.193-.429-2.019-1.767-2.019a1.685,1.685,0,0,0-1.878,1.844c0,3.2,5.362,1.288,5.362,5.441,0,2.625-1.924,3.373-3.535,3.373-2.651,0-3.435-1.367-3.435-3.787h1.4c0,1.272.08,2.651,2.133,2.651a1.911,1.911,0,0,0,1.425-.569,1.918,1.918,0,0,0,.548-1.434c0-3.214-5.362-1.352-5.362-5.524A2.965,2.965,0,0,1,753.688,447c2.163,0,3.151,1.083,3.181,3.166Z" transform="translate(-550.515 -195.798)" fill="#010202"/>
    <path id="Path_84685" data-name="Path 84685" d="M819.68,448.71h1.4v11.358h-1.4Z" transform="translate(-611.18 -197.292)" fill="#010202"/>
    <path id="Path_84686" data-name="Path 84686" d="M850.314,450.158c0-1.193-.429-2.019-1.767-2.019a1.685,1.685,0,0,0-1.878,1.844c0,3.2,5.362,1.288,5.362,5.441,0,2.625-1.924,3.373-3.535,3.373-2.651,0-3.435-1.367-3.435-3.787h1.4c0,1.272.08,2.651,2.133,2.651a1.914,1.914,0,0,0,1.973-2c0-3.214-5.362-1.352-5.362-5.524A2.965,2.965,0,0,1,848.518,447c2.163,0,3.151,1.083,3.181,3.166Z" transform="translate(-633.35 -195.798)" fill="#010202"/>
    <path id="Path_84687" data-name="Path 84687" d="M120.03,233.2c6.929-3.476,13.888-6.893,20.827-10.35v25.009H120.03Z" transform="translate(-0.026 0)" fill="#9f5224"/>
    <path id="Path_84688" data-name="Path 84688" d="M284.683,222.85c1.405.678,2.8,1.391,4.2,2.086V247.86h-4.2Q284.682,235.355,284.683,222.85Z" transform="translate(-143.852 0)" fill="#f18439"/>
    <path id="Path_84689" data-name="Path 84689" d="M317.86,288.065c1.2-.349,2.4-.674,3.6-1.025-.029,5.63,0,11.267,0,16.89h-3.6Z" transform="translate(-172.833 -56.071)" fill="#9f5224"/>
    <path id="Path_84690" data-name="Path 84690" d="M346.235,287.04c1.085.414,2.163.846,3.248,1.26v15.631h-3.258C346.231,298.3,346.207,292.669,346.235,287.04Z" transform="translate(-197.607 -56.071)" fill="#f18439"/>
    <path id="Path_84691" data-name="Path 84691" d="M393.69,321.91c1.646-.3,3.294-.6,4.938-.92v12.593h-2.377V323.44c-.831-.257-1.666-.488-2.506-.71-.025-.273-.04-.548-.056-.821Z" transform="translate(-239.072 -85.727)" fill="#9f5224"/>
    <path id="Path_84692" data-name="Path 84692" d="M432.69,320.99q1.053.4,2.1.835v11.758h-2.1Z" transform="translate(-273.139 -85.727)" fill="#f18439"/>
    <path id="Path_84693" data-name="Path 84693" d="M372.013,335.149c.914-.161,1.838-.281,2.752-.459.013,3.621,0,7.243,0,10.863H372.01Q372.01,340.35,372.013,335.149Z" transform="translate(-220.134 -97.694)" fill="#9f5224"/>
    <path id="Path_84694" data-name="Path 84694" d="M393.79,334.63l.035.011c.84.221,1.675.441,2.506.71.015,3.382,0,6.763,0,10.143H393.8c0-3.615.009-7.236-.005-10.864Z" transform="translate(-239.159 -97.641)" fill="#f18439"/>
    <path id="Path_84695" data-name="Path 84695" d="M136.915,436.956c1.767-.038,3.535-.231,5.3-.1q7.953.324,15.925.639a7.5,7.5,0,0,1,2.269.245c-.426.075-.851.161-1.281.21-6.1.6-12.193,1.226-18.292,1.81q-10.384-1-20.768-2.086c5.61-.32,11.229-.463,16.845-.715Z" transform="translate(-0.061 -186.897)" fill="#f6bc93"/>
    <path id="Path_84696" data-name="Path 84696" d="M303.851,443.553a11.414,11.414,0,0,1,1.246-.083v4.406c-2.468.612-4.941,1.21-7.408,1.834-4.471,1.083-8.936,2.21-13.409,3.285v-7.421c6.1-.583,12.2-1.213,18.294-1.81.428-.048.851-.142,1.277-.21Z" transform="translate(-143.501 -192.715)" fill="#f18439"/>
    <path id="Path_84697" data-name="Path 84697" d="M120,443.61q10.384,1.085,20.768,2.086v7.421c-4.489-1.065-8.959-2.22-13.448-3.3-2.43-.621-4.885-1.2-7.324-1.82q0-2.2,0-4.388Z" transform="translate(0 -192.837)" fill="#9f5224"/>
    <path id="Path_84698" data-name="Path 84698" d="M127.356,492.69c4.489,1.078,8.959,2.234,13.442,3.3,4.471-1.083,8.936-2.21,13.409-3.285,2.483.4,4.977.713,7.463,1.092-6.962,2.408-13.895,4.9-20.856,7.308-6.9-2.489-13.853-4.876-20.783-7.317,2.444-.369,4.9-.632,7.326-1.1Z" transform="translate(-0.026 -235.709)" fill="#f6bc93"/>
    <path id="Path_84699" data-name="Path 84699" d="M120.03,501.35c6.929,2.43,13.877,4.828,20.788,7.317-.04,2.485,0,4.971-.02,7.456-6.93-3.432-13.844-6.895-20.768-10.333Z" transform="translate(-0.026 -243.274)" fill="#9f5224"/>
    <path id="Path_84700" data-name="Path 84700" d="M284.261,508.728c6.962-2.406,13.895-4.9,20.856-7.308v4.352c-6.942,3.5-13.919,6.915-20.875,10.412.014-2.485-.022-4.971.019-7.456Z" transform="translate(-143.466 -243.335)" fill="#f18439"/>
    <path id="Path_84701" data-name="Path 84701" d="M526.936,316.579c-2.042,0-4.3.791-4.79,3.376a.347.347,0,0,0-.005.144.375.375,0,0,0,.051.135.355.355,0,0,0,.1.1.361.361,0,0,0,.132.058h.035l2.095.252a.459.459,0,0,0,.24-.166.466.466,0,0,0,.095-.276,1.641,1.641,0,0,1,1.734-1.313,1.439,1.439,0,0,1,.667.132,1.425,1.425,0,0,1,.531.425,2.874,2.874,0,0,1,.281,1.592v.3a14.589,14.589,0,0,0-4.051.754,3.754,3.754,0,0,0-2.286,3.592,3.1,3.1,0,0,0,3.208,3.435,4.2,4.2,0,0,0,3.55-1.594,5.258,5.258,0,0,0,1.2,1.432.436.436,0,0,0,.262.049.449.449,0,0,0,.243-.109c.441-.4,1.2-1.1,1.646-1.477a.424.424,0,0,0,0-.6,3.029,3.029,0,0,1-.808-2.035v-3.329c0-1.432.119-2.8-.921-3.8a4.8,4.8,0,0,0-3.2-1.087Zm28.136,0c-2.041,0-4.3.791-4.79,3.376a.347.347,0,0,0-.005.144.373.373,0,0,0,.051.135.355.355,0,0,0,.1.1.362.362,0,0,0,.132.058h.035l2.1.245a.465.465,0,0,0,.364-.441,1.639,1.639,0,0,1,1.73-1.31,1.43,1.43,0,0,1,1.2.557,2.868,2.868,0,0,1,.243,1.6v.3a14.4,14.4,0,0,0-4.023.754,3.754,3.754,0,0,0-2.286,3.592,3.1,3.1,0,0,0,3.208,3.435,4.2,4.2,0,0,0,3.55-1.594,5.235,5.235,0,0,0,1.2,1.432.436.436,0,0,0,.262.049.449.449,0,0,0,.243-.109c.441-.4,1.2-1.1,1.646-1.477a.444.444,0,0,0,0-.6,3.029,3.029,0,0,1-.808-2.035v-3.329c0-1.432.095-2.8-.946-3.8a4.731,4.731,0,0,0-3.2-1.089h0Zm-15.827.113a2.873,2.873,0,0,0-2.826,2.085v-1.462a.418.418,0,0,0-.124-.272.428.428,0,0,0-.272-.124h-1.988a.424.424,0,0,0-.424.4v11.307a.442.442,0,0,0,.128.268.449.449,0,0,0,.268.128h2.15a.424.424,0,0,0,.414-.414v-5.987c0-1.31-.066-3.093,1.477-3.093s1.31,1.844,1.31,3.093V328.6a.441.441,0,0,0,.395.414H541.9a.424.424,0,0,0,.414-.414v-5.987a6.878,6.878,0,0,1,.192-2.15,1.431,1.431,0,0,1,1.262-.942,1.119,1.119,0,0,1,1.25.964,15.062,15.062,0,0,1,.059,2.149v5.987a.441.441,0,0,0,.395.414h2.149a.424.424,0,0,0,.414-.414v-7.189c0-1.2.119-2.592-.557-3.55a3.13,3.13,0,0,0-5.388.883,2.954,2.954,0,0,0-2.843-2.066Zm36.557,0c-3.093,0-4.832,2.731-4.832,6.25s1.705,6.3,4.832,6.3c2.994,0,4.909-2.749,4.909-6.2,0-3.554-1.74-6.358-4.951-6.358Zm12.259,0c-1.485,0-2.329.718-2.935,2.287v-1.723a.413.413,0,0,0-.4-.3h-1.988a.4.4,0,0,0-.268.1.412.412,0,0,0-.132.257v11.3a.443.443,0,0,0,.4.414h2.15a.424.424,0,0,0,.414-.414v-6.08a5.251,5.251,0,0,1,.364-2.15,1.376,1.376,0,0,1,.447-.622,1.39,1.39,0,0,1,.71-.288c1.484,0,1.341,1.8,1.341,3.039v6.142a.424.424,0,0,0,.395.364h2.134a.424.424,0,0,0,.412-.364v-7.1a7.393,7.393,0,0,0-.557-3.52,2.82,2.82,0,0,0-2.507-1.343Zm-25.807.192a.4.4,0,0,0-.4.4V318.9a.4.4,0,0,0,.372.414h3.7l-4.184,6.219a2.06,2.06,0,0,0-.3,1.1v1.646a.362.362,0,0,0,.037.178.38.38,0,0,0,.116.14.365.365,0,0,0,.169.067.383.383,0,0,0,.181-.021,7.932,7.932,0,0,1,7.453,0,.39.39,0,0,0,.364-.04.381.381,0,0,0,.125-.14.4.4,0,0,0,.044-.183V326.57a.718.718,0,0,0-.4-.6,7.671,7.671,0,0,0-4.039-.9l3.667-5.386a2.261,2.261,0,0,0,.53-1.006v-1.367a.4.4,0,0,0-.372-.414h-7.069Zm13.542,2.149a1.37,1.37,0,0,1,1.42,1.089,10.653,10.653,0,0,1,.3,2.994c0,1.432-.073,3.849-1.73,3.849s-1.668-2.994-1.668-4.35.073-3.592,1.628-3.592Zm-47.722,4.1v.473a4.43,4.43,0,0,1-.4,2.335,1.734,1.734,0,0,1-1.477,1c-.826,0-1.31-.663-1.31-1.622-.024-1.856,1.646-2.184,3.19-2.184Zm28.136,0v.473a4.422,4.422,0,0,1-.4,2.346,1.732,1.732,0,0,1-1.479,1.006c-.826,0-1.31-.663-1.31-1.622,0-1.873,1.628-2.21,3.172-2.21Z" transform="translate(-350.943 -81.87)" fill="#201d1e"/>
  </g>
</svg>
