<svg width="122" height="51" viewBox="0 0 122 51" fill="none" xmlns="http://www.w3.org/2000/svg">
<g clip-path="url(#clip0_2953_110)">
<mask id="mask0_2953_110" style="mask-type:luminance" maskUnits="userSpaceOnUse" x="0" y="0" width="122" height="51">
<path d="M122 0H0V50.2901H122V0Z" fill="white"/>
</mask>
<g mask="url(#mask0_2953_110)">
<mask id="mask1_2953_110" style="mask-type:alpha" maskUnits="userSpaceOnUse" x="-13" y="-12" width="142" height="63">
<path d="M128.821 -11.9332H-12.0282V50.2729H128.821V-11.9332Z" fill="white"/>
</mask>
<g mask="url(#mask1_2953_110)">
<path d="M107.436 29.4682C104.38 29.8718 101.322 30.2379 98.259 30.5665C68.7231 33.7329 38.9098 33.3641 9.46291 29.4682C4.78163 28.7994 2.25914 24.6829 3.8506 20.2579C5.21804 16.4038 6.4691 12.4486 7.83072 8.40134C8.63081 6.06057 11.2057 4.09745 13.5565 4.07727H103.342C105.69 4.07727 108.267 6.04904 109.068 8.40134C110.441 12.4371 111.686 16.4038 113.048 20.2579C114.636 24.6887 112.114 28.7994 107.436 29.4682Z" fill="#C7C8CA"/>
<path d="M107.802 30.0534C104.747 30.457 101.688 30.8231 98.6258 31.1517C69.0896 34.3167 39.2765 33.9479 9.82951 30.0534C5.15111 29.3818 2.62864 25.2594 4.21719 20.8403C5.58753 16.9889 6.83568 13.0338 8.1973 8.98651C8.99742 6.6429 11.5751 4.68265 13.923 4.66248H103.709C106.059 4.66248 108.634 6.63137 109.434 8.98651C110.81 13.0223 112.053 16.9889 113.414 20.8403C115.006 25.271 112.481 29.3818 107.802 30.065" fill="#C7C8CA"/>
<path d="M107.806 30.0591C104.753 30.4799 101.696 30.8288 98.6293 31.1574C69.0983 34.3284 39.2766 34.118 9.83595 30.0591C5.15467 29.4134 2.6351 25.2767 4.22366 20.8344C5.59109 16.9831 6.84215 13.028 8.20377 8.98068C9.00386 6.63705 11.5787 4.6768 13.9296 4.65662H103.712C106.063 4.65662 108.638 6.62552 109.437 8.98068C110.814 13.0165 112.056 16.9831 113.418 20.8344C115.009 25.2651 112.49 29.4019 107.806 30.0591Z" fill="#C7C9CB"/>
<path d="M107.812 30.0622C104.757 30.483 101.702 30.8347 98.6353 31.1605C69.1016 34.3315 39.2828 34.121 9.84214 30.0622C5.16086 29.4193 2.64128 25.2826 4.22983 20.8518C5.59727 16.9977 6.84833 13.0455 8.20995 8.99813C9.01005 6.65449 11.5849 4.69426 13.9358 4.67407H103.718C106.066 4.67407 108.641 6.64297 109.441 8.99813C110.817 13.034 112.06 16.9977 113.421 20.8518C115.013 25.2826 112.493 29.4193 107.812 30.0766" fill="#C8CACC"/>
<path d="M107.831 30.068C104.776 30.4889 101.721 30.8377 98.6542 31.1663C69.1236 34.3373 39.3018 34.1268 9.86404 30.068C5.17987 29.4222 2.66321 25.2885 4.25176 20.8578C5.6192 17.0036 6.87026 13.0485 8.23187 9.00404C9.03195 6.66036 11.6068 4.70011 13.9577 4.67993H103.722C106.07 4.67993 108.645 6.64882 109.445 9.00404C110.822 13.0398 112.064 17.0036 113.426 20.8578C115.017 25.2885 112.498 29.4222 107.816 30.0824" fill="#C9CBCD"/>
<path d="M107.828 30.0737C104.773 30.4946 101.718 30.8434 98.6516 31.172C69.1206 34.343 39.2989 34.1296 9.86404 30.0737C5.17987 29.4279 2.66321 25.2913 4.25176 20.8489C5.6192 16.9977 6.87026 13.0426 8.23187 8.99813C9.03195 6.65449 11.6068 4.69426 13.9577 4.67407H103.722C106.07 4.67407 108.645 6.64585 109.445 8.99813C110.822 13.034 112.064 16.9977 113.426 20.8489C115.017 25.2798 112.498 29.4164 107.816 30.0737" fill="#CACBCD"/>
<path d="M107.829 30.0795C104.774 30.5004 101.72 30.8492 98.6525 31.1779C69.1249 34.3488 39.3002 34.1355 9.86826 30.0795C5.18409 29.4338 2.66452 25.2971 4.25598 20.8549C5.62342 17.0036 6.87448 13.0485 8.2361 9.00404C9.03617 6.66036 11.6111 4.70011 13.959 4.67993H103.727C106.075 4.67993 108.65 6.64882 109.449 9.00404C110.826 13.0398 112.068 17.0036 113.43 20.8549C115.021 25.2856 112.502 29.4222 107.821 30.0795" fill="#CBCCCE"/>
<path d="M107.829 30.0822C104.777 30.5031 101.719 30.8519 98.6525 31.1804C69.1246 34.3514 39.3145 34.141 9.871 30.0822C5.18095 29.4393 2.66137 25.3026 4.25284 20.8719C5.62028 17.0205 6.87133 13.0655 8.23295 9.0182C9.03307 6.6774 11.6079 4.71716 13.9559 4.69409H103.729C106.077 4.69409 108.656 6.66587 109.452 9.0182C110.828 13.0539 112.071 17.0205 113.433 20.8719C115.024 25.3026 112.505 29.4393 107.823 30.0966" fill="#CBCDCF"/>
<path d="M107.829 30.088C104.777 30.5089 101.72 30.8577 98.6525 31.1864C69.1249 34.3574 39.3177 34.1469 9.87126 30.088C5.18704 29.4423 2.66746 25.3085 4.25311 20.8777C5.62637 17.0265 6.8716 13.0714 8.23904 9.02403C9.03625 6.68326 11.614 4.72301 13.9619 4.69995H103.733C106.081 4.69995 108.658 6.67172 109.455 9.02403C110.832 13.0598 112.074 17.0265 113.436 20.8777C115.027 25.3085 112.507 29.4423 107.827 30.1024" fill="#CCCED0"/>
<path d="M107.829 30.0938C104.777 30.5146 101.72 30.8635 98.6533 31.1921C69.128 34.3631 39.3209 34.1497 9.87436 30.0938C5.19311 29.448 2.67353 25.3114 4.25336 20.8835C5.6208 17.0322 6.87185 13.0771 8.23348 9.02974C9.03067 6.689 11.6084 4.72587 13.9564 4.70569H103.736C106.087 4.70569 108.662 6.67747 109.459 9.02974C110.835 13.0656 112.078 17.0322 113.439 20.8835C115.031 25.3114 112.511 29.448 107.829 30.1082" fill="#CDCFD0"/>
<path d="M107.827 30.0996C104.775 30.5205 101.717 30.8693 98.6533 31.1951C69.1256 34.366 39.3185 34.1556 9.87487 30.0996C5.19652 29.4538 2.67694 25.3172 4.26841 20.8894C5.63585 17.038 6.86945 13.083 8.24852 9.03565C9.0457 6.69485 11.6235 4.73172 13.9714 4.71155H103.736C106.088 4.71155 108.662 6.68332 109.459 9.03565C110.835 13.0714 112.078 17.038 113.439 20.8894C115.031 25.3172 112.511 29.4538 107.83 30.114" fill="#CED0D1"/>
<path d="M107.827 30.1023C104.775 30.5232 101.717 30.872 98.6533 31.2006C69.1256 34.3716 39.3213 34.1612 9.8778 30.1023C5.19649 29.4566 2.67692 25.3228 4.26838 20.8921C5.63582 17.0408 6.88688 13.0886 8.2485 9.04127C9.0457 6.69759 11.6234 4.73734 13.9713 4.71716H103.754C106.105 4.71716 108.68 6.68605 109.477 9.04127C110.852 13.077 112.095 17.0408 113.457 20.8921C115.049 25.3228 112.529 29.4566 107.847 30.1167" fill="#CFD0D2"/>
<path d="M107.827 30.1082C104.776 30.5291 101.718 30.8779 98.6542 31.2065C69.1293 34.3775 39.325 34.1642 9.88148 30.1082C5.20893 29.4625 2.68935 25.3286 4.28082 20.8979C5.64825 17.0466 6.88476 13.0944 8.25801 9.0471C9.05815 6.70345 11.633 4.7432 13.9838 4.72302H103.755C106.106 4.72302 108.681 6.69191 109.478 9.0471C110.853 13.0829 112.096 17.0466 113.457 20.8979C115.049 25.3286 112.53 29.4625 107.848 30.1082" fill="#CFD1D3"/>
<path d="M107.828 30.1141C104.777 30.535 101.719 30.8838 98.6551 31.2124C69.1298 34.3834 39.3254 34.17 9.88476 30.1141C5.21515 29.4683 2.69557 25.3346 4.28703 20.9038C5.65447 17.0525 6.90553 13.0974 8.26424 9.05293C9.06435 6.7093 11.6392 4.74907 13.9871 4.72888H103.755C106.106 4.72888 108.681 6.69778 109.478 9.05293C110.854 13.0888 112.097 17.0525 113.458 20.9038C115.049 25.3346 112.53 29.4683 107.849 30.1285" fill="#D0D2D3"/>
<path d="M107.843 30.1197C104.791 30.5405 101.733 30.8894 98.6696 31.2151C69.1475 34.3861 39.3431 34.1756 9.90253 30.1197C5.22123 29.4739 2.70165 25.3373 4.29312 20.9094C5.66055 17.0581 6.91161 13.103 8.27032 9.05856C9.07044 6.71493 11.6452 4.75468 13.9932 4.7345H103.755C106.103 4.7345 108.678 6.7034 109.475 9.05856C110.852 13.0944 112.094 17.0581 113.456 20.9094C115.047 25.3373 112.527 29.4739 107.846 30.1341" fill="#D1D3D4"/>
<path d="M107.845 30.1225C104.793 30.5434 101.735 30.8922 98.6714 31.2209C69.1491 34.3919 39.3448 34.1785 9.90709 30.1225C5.22578 29.4768 2.70621 25.343 4.29476 20.9123C5.6651 17.0639 6.91326 13.1088 8.27487 9.06435C9.07499 6.72066 11.6498 4.76041 13.9978 4.74023H103.754C106.102 4.74023 108.677 6.70913 109.474 9.06435C110.85 13.1001 112.092 17.0639 113.454 20.9123C115.045 25.343 112.526 29.4797 107.845 30.1369" fill="#D2D3D5"/>
<path d="M107.848 30.1284C104.796 30.5492 101.739 30.8981 98.6748 31.2267C69.1524 34.3977 39.351 34.1844 9.91328 30.1284C5.23198 29.4827 2.7124 25.3488 4.30095 20.9181C5.67131 17.0697 6.91945 13.1146 8.28107 9.07017C9.08119 6.72652 11.656 4.76627 14.004 4.74609H103.754C106.102 4.74609 108.677 6.71498 109.477 9.07017C110.851 13.106 112.096 17.0697 113.455 20.9181C115.046 25.3488 112.526 29.4827 107.845 30.1428" fill="#D3D4D6"/>
<path d="M107.854 30.134C104.802 30.5548 101.745 30.9037 98.6808 31.2294C69.1616 34.4004 39.3603 34.1899 9.92256 30.134C5.24125 29.4882 2.72168 25.3544 4.31023 20.9353C5.68058 17.0839 6.92873 13.1317 8.29035 9.08725C9.09047 6.74362 11.6653 4.78337 14.0133 4.76318H103.758C106.106 4.76318 108.681 6.73208 109.48 9.08725C110.854 13.1231 112.099 17.0839 113.458 20.9353C115.049 25.366 112.53 29.4997 107.849 30.1599" fill="#D4D5D7"/>
<path d="M107.855 30.1369C104.802 30.5578 101.745 30.9066 98.6843 31.2353C69.1619 34.4062 39.3605 34.1929 9.92273 30.1369C5.24438 29.4941 2.7248 25.3574 4.31335 20.9353C5.68371 17.084 6.91731 13.1318 8.29348 9.08447C9.09064 6.73793 11.6685 4.79211 14.0163 4.76904H103.755C106.103 4.76904 108.678 6.73793 109.478 9.07867C110.852 13.1145 112.097 17.0782 113.455 20.9296C115.047 25.3574 112.527 29.4941 107.845 30.1369" fill="#D4D6D7"/>
<path d="M107.857 30.1429C104.806 30.5638 101.748 30.9126 98.6868 31.2412C69.1681 34.4122 39.3666 34.1988 9.92891 30.1429C5.25054 29.4972 2.73097 25.3634 4.31952 20.9355C5.68696 17.0842 6.93802 13.132 8.29963 9.08467C9.09681 6.74392 11.6746 4.79232 14.0196 4.77502H103.756C106.103 4.77502 108.678 6.74392 109.479 9.09908C110.852 13.1349 112.097 17.0986 113.456 20.95C115.047 25.3778 112.528 29.5116 107.846 30.1573" fill="#D5D7D8"/>
<path d="M107.858 30.16C104.806 30.5809 101.748 30.9297 98.6877 31.2583C69.1682 34.4063 39.3697 34.1958 9.932 30.16C5.25364 29.5027 2.73406 25.369 4.32262 20.9353C5.69006 17.0869 6.94111 13.1318 8.30273 9.08734C9.09991 6.74948 11.6748 4.79211 14.0227 4.79211H103.767C106.115 4.79211 108.69 6.761 109.49 9.10174C110.864 13.1376 112.109 17.1013 113.468 20.9497C115.059 25.3805 112.539 29.5142 107.858 30.16Z" fill="#D6D7D9"/>
<path d="M107.862 30.16C104.813 30.578 101.751 30.9297 98.6911 31.2555C69.1717 34.4264 39.3732 34.2131 9.95289 30.16C5.25709 29.5085 2.74042 25.3747 4.32898 20.9353C5.70514 17.0956 6.93292 13.152 8.32364 9.09603C9.10628 6.75524 11.6812 4.79211 14.0291 4.79211H103.77C106.119 4.79211 108.693 6.761 109.493 9.11615C110.867 13.152 112.112 17.1157 113.471 20.9641C115.06 25.3949 112.542 29.5287 107.862 30.1888" fill="#D7D8DA"/>
<path d="M107.869 30.16C104.816 30.5809 101.758 30.9297 98.6946 31.2583C69.1787 34.4293 39.3802 34.216 9.957 30.16C5.27575 29.5171 2.75909 25.3805 4.34764 20.9526C5.70635 17.1013 6.93995 13.152 8.32484 9.11615C9.11331 6.761 11.6881 4.79211 14.0361 4.79211H103.775C106.123 4.79211 108.698 6.761 109.498 9.11615C110.871 13.152 112.116 17.1157 113.475 20.9641C115.067 25.392 112.547 29.5287 107.869 30.1715" fill="#D8D9DA"/>
<path d="M107.874 30.16C104.822 30.5809 101.764 30.9297 98.7006 31.2583C69.1841 34.4293 39.3886 34.216 9.96251 30.16C5.27251 29.5171 2.75583 25.3834 4.34439 20.9555C5.70892 17.1042 6.94834 13.152 8.32741 9.11615C9.12166 6.76678 11.6965 4.79211 14.0444 4.79211C42.4436 4.84689 70.9793 4.79211 99.3785 4.79211H103.78C106.128 4.79211 108.703 6.761 109.504 9.11615C110.877 13.152 112.121 17.1129 113.481 20.9641C115.072 25.392 112.552 29.5258 107.874 30.1715" fill="#D9DADB"/>
<path d="M107.871 30.16C104.819 30.5809 101.762 30.9297 98.698 31.2555C69.1846 34.4264 39.3862 34.2131 9.9601 30.16C5.27885 29.5142 2.76218 25.3805 4.35074 20.9526C5.70363 17.11 6.94886 13.152 8.32212 9.11615C9.12225 6.77542 11.6971 4.81518 14.0449 4.79211H103.778C106.126 4.79211 108.7 6.76389 109.501 9.11615C110.874 13.152 112.12 17.1129 113.478 20.9641C115.069 25.392 112.55 29.5258 107.871 30.1715" fill="#D9DADC"/>
<path d="M107.878 30.1599C104.825 30.5808 101.768 30.9296 98.704 31.2582C69.1908 34.4292 39.3953 34.2158 9.96628 30.1599C5.28503 29.5171 2.76836 25.3832 4.35692 20.9554C5.72144 17.1156 6.95796 13.1519 8.3254 9.11607C9.12551 6.77245 11.7003 4.79201 14.0483 4.80635C42.4444 4.8612 70.9802 4.80635 99.3767 4.80635H103.782C106.126 4.80635 108.701 6.77245 109.501 9.13048C110.875 13.1663 112.12 17.1271 113.478 20.9785C115.07 25.4063 112.55 29.5402 107.872 30.1829" fill="#DADBDD"/>
<path d="M107.881 30.1773C104.829 30.5982 101.771 30.947 98.71 31.2756C69.1942 34.4466 39.4015 34.2333 9.97247 30.1773C5.29122 29.5315 2.77455 25.3978 4.36311 20.9699C5.72764 17.1215 6.96414 13.1693 8.32577 9.11615C9.12586 6.77254 11.7007 4.81518 14.0457 4.79211H103.79C106.136 4.79211 108.711 6.761 109.51 9.11615C110.883 13.152 112.129 17.1129 113.487 20.9613C115.076 25.3891 112.56 29.5229 107.881 30.1687" fill="#DBDCDD"/>
<path d="M107.884 30.1829C104.832 30.6038 101.775 30.9526 98.7135 31.2812C69.2001 34.4522 39.4045 34.2389 9.97556 30.1829C5.2943 29.5372 2.77764 25.4034 4.36619 20.9756C5.73363 17.1271 6.98469 13.1749 8.3434 9.13047C9.14347 6.78682 11.7184 4.8064 14.0633 4.8064C42.4624 4.86405 70.9924 4.8064 99.3913 4.8064C100.814 4.8064 102.371 4.8064 103.794 4.8064C106.142 4.8064 108.713 6.77529 109.513 9.13047C110.887 13.1663 112.132 17.1271 113.491 20.9756C115.08 25.4034 112.562 29.5372 107.884 30.1829Z" fill="#DCDDDE"/>
<path d="M107.885 30.189C104.833 30.607 101.775 30.9587 98.7143 31.2844C69.2009 34.4554 39.4082 34.2422 9.97634 30.189C5.29798 29.5433 2.79586 25.4095 4.36987 20.9816C5.73731 17.1332 6.98837 13.1781 8.34708 9.13659C9.14424 6.79292 11.7221 4.83268 14.067 4.8125H103.795C106.139 4.8125 108.714 6.78139 109.514 9.13659C110.888 13.1723 112.133 17.1332 113.491 20.9816C115.079 25.4095 112.563 29.5433 107.885 30.189Z" fill="#DDDEDF"/>
<path d="M107.89 30.1916C104.838 30.6124 101.781 30.9612 98.7195 31.2898C69.2065 34.4609 39.4167 34.2475 9.98193 30.1916C5.30645 29.5487 2.79851 25.4149 4.37834 20.987C5.74578 17.1386 6.99683 13.1835 8.35554 9.14193C9.15275 6.7983 11.7276 4.84094 14.0755 4.81787H103.8C106.148 4.81787 108.719 6.78677 109.52 9.14193C110.893 13.1778 112.138 17.1386 113.497 20.987C115.086 25.4149 112.569 29.5487 107.89 30.1916Z" fill="#DDDFE0"/>
<path d="M107.89 30.1976C104.838 30.6185 101.78 30.9673 98.7195 31.2959C69.2088 34.4669 39.4161 34.2507 9.98132 30.1976C5.30872 29.5518 2.79497 25.4181 4.38061 20.993C5.74805 17.1418 6.98457 13.1896 8.35782 9.14513C9.15499 6.80435 11.7299 4.8441 14.0778 4.82104H103.799C106.147 4.82104 108.719 6.78994 109.519 9.14513C110.892 13.181 112.138 17.1418 113.496 20.993C115.085 25.4181 112.568 29.5518 107.89 30.1976Z" fill="#DEDFE1"/>
<path d="M107.899 30.2033C104.846 30.6241 101.788 30.973 98.7281 31.2987C69.2174 34.4697 39.4276 34.2564 9.98991 30.2033C5.32026 29.5576 2.80069 25.4237 4.39215 20.9959C5.75959 17.1475 7.01065 13.1953 8.36935 9.15088C9.16658 6.81008 11.7414 4.84983 14.0893 4.84119H103.807C106.155 4.84119 108.73 6.81008 109.528 9.15088C110.901 13.1866 112.146 17.1475 113.505 20.9959C115.093 25.4237 112.577 29.5576 107.899 30.2033Z" fill="#DFE0E1"/>
<path d="M107.9 30.2062C104.847 30.627 101.789 30.9758 98.7289 31.3045C69.2212 34.4755 39.4285 34.2622 9.99077 30.2062C5.32401 29.5634 2.79862 25.4295 4.39299 21.0017C5.76334 17.1532 7.01148 13.201 8.37311 9.15659C9.17027 6.81585 11.7452 4.83254 14.0931 4.84688C42.4863 4.90461 71.0134 4.84688 99.4068 4.84688C100.83 4.84688 102.385 4.84688 103.808 4.84688C106.156 4.84688 108.731 6.81585 109.529 9.171C110.901 13.2068 112.147 17.1677 113.506 21.0161C115.094 25.4439 112.578 29.5778 107.9 30.2206" fill="#E0E1E2"/>
<path d="M107.903 30.2119C104.854 30.6328 101.794 30.9816 98.7358 31.3102C69.2252 34.4812 39.4355 34.2679 9.99773 30.2119C5.33099 29.5834 2.79978 25.4353 4.40288 21.0073C5.76741 17.159 7.00392 13.2068 8.38008 9.16233C9.17724 6.81002 11.7521 4.8613 14.1 4.85266H103.813C106.161 4.85266 108.736 6.82155 109.533 9.16233C110.909 13.1982 112.152 17.159 113.51 21.0073C115.098 25.4353 112.582 29.569 107.903 30.2119Z" fill="#E1E2E3"/>
<path d="M107.904 30.2177C104.855 30.6386 101.794 30.9874 98.7358 31.316C69.2253 34.4841 39.4385 34.2707 10.0124 30.2177C5.33404 29.5834 2.81446 25.441 4.40301 21.0131C5.77045 17.1648 7.00697 13.2126 8.38022 9.16813C9.18033 6.82732 11.7551 4.84402 14.1002 4.85835C42.4934 4.91608 71.0205 4.85835 99.4137 4.85835C100.834 4.85835 102.393 4.85835 103.813 4.85835C106.161 4.85835 108.736 6.82732 109.533 9.18253C110.909 13.2183 112.152 17.1792 113.51 21.0275C115.101 25.441 112.582 29.5834 107.904 30.2177Z" fill="#E1E2E4"/>
<path d="M107.906 30.2234C104.857 30.6443 101.797 30.9931 98.7392 31.3188C69.2315 34.4841 39.4563 34.2765 10.0186 30.2234C5.34022 29.5834 2.82064 25.4439 4.40919 21.0188C5.77663 17.1705 7.02769 13.2183 8.3864 9.17383C9.18652 6.83304 11.7613 4.84973 14.1064 4.84973C42.4996 4.90739 71.0238 4.84973 99.4171 4.84973C100.84 4.84973 102.396 4.84973 103.816 4.84973C106.164 4.84973 108.739 6.81862 109.536 9.17383C110.912 13.2096 112.154 17.1705 113.513 21.0188C115.102 25.4439 112.585 29.5776 107.906 30.2234Z" fill="#E2E3E4"/>
<path d="M107.91 30.2262C104.861 30.6471 101.8 30.9959 98.7427 31.3245C69.2348 34.484 39.4567 34.2822 10.0248 30.2262C5.3464 29.5834 2.82682 25.4495 4.41537 21.0217C5.78281 17.1877 7.01933 13.2211 8.39258 9.17949C9.19854 6.83876 11.7675 4.87852 14.1126 4.86987H103.819C106.167 4.86987 108.742 6.83876 109.54 9.19398C110.915 13.2297 112.158 17.1877 113.517 21.0361C115.105 25.464 112.588 29.5978 107.91 30.2406" fill="#E3E4E5"/>
<path d="M107.913 30.2321C104.864 30.653 101.804 31.0018 98.7453 31.3304C69.241 34.4841 39.457 34.2852 10.031 30.2321C5.35259 29.5834 2.83301 25.4555 4.42157 21.0276C5.789 17.1792 7.04006 13.227 8.39877 9.18536C9.19889 6.84463 11.7737 4.86133 14.1188 4.86133C42.509 4.9161 71.0332 4.86133 99.4231 4.86133H103.825C106.171 4.86133 108.745 6.83022 109.542 9.18536C110.919 13.2212 112.161 17.1792 113.52 21.0276C115.109 25.4555 112.591 29.5892 107.913 30.2321Z" fill="#E4E5E6"/>
<path d="M107.914 30.238C104.865 30.6588 101.804 31.0077 98.7461 31.3363C69.2414 34.4842 39.4546 34.291 10.0315 30.238C5.35309 29.5836 2.83643 25.4613 4.42498 21.0334C5.79242 17.1879 7.02893 13.2329 8.40218 9.19124C9.19648 6.85048 11.7742 4.89024 14.1221 4.88159H103.826C106.171 4.88159 108.746 6.85048 109.543 9.20564C110.919 13.2415 112.162 17.1995 113.52 21.0478C115.1 25.4613 112.592 29.5836 107.914 30.238Z" fill="#E5E5E6"/>
<path d="M107.917 30.2436C104.868 30.6615 101.807 31.0104 98.7496 31.339C69.2448 34.51 39.4608 34.2966 10.0377 30.2436C5.35927 29.5978 2.84261 25.464 4.43116 21.0391C5.7986 17.1906 7.04966 13.2384 8.40837 9.19686C9.19682 6.85322 11.7804 4.89586 14.1429 4.88721H103.829C106.174 4.88721 108.749 6.85322 109.547 9.21127C110.923 13.2471 112.164 17.2051 113.524 21.0535C115.112 25.4784 112.596 29.6122 107.917 30.258" fill="#E5E6E7"/>
<path d="M107.92 30.2465C104.871 30.6674 101.811 31.0162 98.753 31.3449C69.2509 34.5158 39.467 34.2996 10.0439 30.2465C5.36545 29.6037 2.84879 25.4699 4.43734 21.0449C5.80477 17.1965 7.05584 13.2443 8.41454 9.20269C9.21169 6.85908 11.7866 4.90171 14.1432 4.89307H103.841C106.186 4.89307 108.761 6.85908 109.559 9.20269C110.934 13.2385 112.176 17.1965 113.536 21.0449C115.124 25.4699 112.608 29.6037 107.929 30.2465" fill="#E6E7E8"/>
<path d="M107.926 30.2523C104.874 30.6731 101.817 31.0219 98.759 31.3506C69.2542 34.5216 39.4703 34.3054 10.05 30.2523C5.37163 29.6066 2.85497 25.4756 4.44352 21.0478C5.81096 17.1993 7.06202 13.2644 8.42072 9.20559C9.21787 6.86482 11.7928 4.90746 14.1436 4.8988H103.836C106.181 4.8988 108.755 6.86482 109.556 9.20559C110.929 13.2414 112.174 17.1993 113.53 21.0478C115.119 25.4756 112.602 29.6066 107.926 30.2523Z" fill="#E7E8E9"/>
<path d="M107.93 30.2581C104.878 30.679 101.82 31.0278 98.7624 31.3535C69.2603 34.5245 39.4764 34.3112 10.0562 30.2581C5.37782 29.6124 2.86116 25.4814 4.44971 21.0536C5.81715 17.2052 7.06821 13.2703 8.42692 9.21141C9.22406 6.87067 11.7989 4.91331 14.1439 4.90466H103.839C106.184 4.90466 108.759 6.87067 109.559 9.21141C110.932 13.2472 112.177 17.2052 113.533 21.0536C115.122 25.4814 112.605 29.6124 107.93 30.2581Z" fill="#E8E9EA"/>
<path d="M107.933 30.2609C104.881 30.6818 101.824 31.0306 98.7659 31.3592C69.2638 34.5302 39.4798 34.314 10.0625 30.2609C5.38411 29.618 2.86745 25.4842 4.456 21.0592C5.82344 17.2109 7.05704 13.2615 8.43321 9.21704C9.23043 6.87629 11.8169 4.91893 14.1444 4.91028H103.843C106.187 4.91028 108.762 6.87629 109.562 9.21704C110.936 13.2529 112.181 17.2109 113.536 21.0592C115.125 25.4842 112.609 29.618 107.933 30.2609Z" fill="#E9EAEB"/>
<path d="M107.936 30.2667C104.884 30.6876 101.826 31.0364 98.7684 31.3651C69.267 34.536 39.4859 34.3198 10.0685 30.2667C5.39018 29.6238 2.87352 25.4901 4.46207 21.0651C5.82951 17.2167 7.06311 13.2645 8.43928 9.22295C9.23643 6.88215 11.8172 4.92478 14.1447 4.91614H103.845C106.193 4.91614 108.766 6.88215 109.565 9.22295C110.939 13.2587 112.184 17.2167 113.54 21.0651C115.128 25.4901 112.612 29.6238 107.936 30.2667Z" fill="#EAEAEB"/>
<path d="M107.936 30.2725C104.885 30.6934 101.827 31.0422 98.7685 31.368C69.2701 34.539 39.489 34.3256 10.0717 30.2725C5.39328 29.6268 2.87662 25.4959 4.46517 21.0709C5.83261 17.2225 7.06621 13.2703 8.43947 9.22876C9.23953 6.88796 11.8144 4.93059 14.1594 4.91907H103.846C106.194 4.91907 108.766 6.88796 109.565 9.24316C110.939 13.2789 112.184 17.2369 113.54 21.0854C115.128 25.5103 112.612 29.6412 107.936 30.2869" fill="#EBEBEC"/>
<path d="M107.944 30.2782C104.895 30.6962 101.835 31.045 98.7771 31.3736C69.2781 34.5446 39.4971 34.3313 10.0826 30.2782C5.41877 29.6325 2.88756 25.5015 4.47611 21.0737C5.84355 17.2281 7.07715 13.2759 8.45041 9.23439C9.25052 6.89362 11.8196 4.93626 14.1704 4.92761H103.854C106.202 4.92761 108.773 6.89362 109.574 9.23439C110.947 13.2702 112.193 17.2281 113.548 21.0737C115.137 25.5015 112.62 29.6325 107.944 30.2782Z" fill="#EBECED"/>
<path d="M107.945 30.281C104.896 30.7019 101.836 31.0507 98.7779 31.3793C69.2788 34.5503 39.5007 34.3341 10.0834 30.281C5.41663 29.6382 2.89124 25.5072 4.47979 21.0794C5.84723 17.2338 7.08083 13.296 8.45409 9.24009C9.25422 6.89932 11.8174 4.94195 14.1741 4.93042H103.855C106.203 4.93042 108.774 6.89932 109.575 9.2545C110.948 13.2903 112.193 17.2482 113.548 21.0938C115.137 25.5216 112.621 29.6526 107.945 30.2954" fill="#ECEDEE"/>
<path d="M107.946 30.287C104.897 30.7078 101.837 31.0567 98.7788 31.3853C69.2826 34.5563 39.5045 34.3401 10.0872 30.287C5.41459 29.6442 2.89502 25.5103 4.48357 21.0854C5.8481 17.2369 7.08461 13.302 8.45786 9.24608C9.25792 6.90531 11.8299 4.94794 14.1778 4.922H103.858C106.204 4.922 108.775 6.8909 109.576 9.24608C110.949 13.2819 112.194 17.2369 113.549 21.0854C115.138 25.5103 112.621 29.6442 107.946 30.287Z" fill="#EDEEEE"/>
<path d="M107.95 30.2927C104.901 30.7136 101.84 31.0624 98.7848 31.3882C69.2864 34.5592 39.5082 34.3429 10.0938 30.2927C5.41541 29.647 2.90167 25.5161 4.49022 21.0911C5.85474 17.2427 7.09126 13.2934 8.46451 9.25183C9.26461 6.91103 11.8366 4.95078 14.1816 4.94214H103.862C106.207 4.94214 108.779 6.91103 109.579 9.26623C110.952 13.302 112.198 17.2571 113.554 21.1055C115.142 25.5305 112.626 29.6614 107.95 30.3072" fill="#EEEEEF"/>
<path d="M107.95 30.2983C104.902 30.7164 101.841 31.0651 98.7856 31.3938C69.29 34.5647 39.5119 34.3486 10.0975 30.2983C5.41327 29.6526 2.90534 25.5217 4.49389 21.0967C5.85842 17.2483 7.09493 13.299 8.46819 9.25741C9.26539 6.91666 11.8402 4.95641 14.1853 4.93335H103.863C106.208 4.93335 108.78 6.90225 109.58 9.25741C110.953 13.2932 112.199 17.2483 113.555 21.0967C115.143 25.5217 112.626 29.6526 107.95 30.2983Z" fill="#EEEFF0"/>
<path d="M107.956 30.3013C104.907 30.7222 101.846 31.071 98.7916 31.3996C69.2955 34.5706 39.5204 34.3545 10.1059 30.3013C5.4304 29.6585 2.91374 25.5275 4.50229 21.0997C5.86682 17.2541 7.10333 13.3164 8.47658 9.26329C9.2738 6.92251 11.8486 4.96226 14.1937 4.95361H103.868C106.213 4.95361 108.785 6.92251 109.585 9.27769C110.959 13.3135 112.204 17.2686 113.56 21.1141C115.148 25.5419 112.632 29.6729 107.956 30.3157" fill="#EFF0F0"/>
<path d="M107.96 30.307C104.911 30.7279 101.849 31.0767 98.7951 31.4054C69.2988 34.5763 39.5236 34.3573 10.1121 30.307C5.4366 29.6614 2.91993 25.5304 4.50849 21.1054C5.87301 17.2599 7.10953 13.3221 8.48277 9.26609C9.27999 6.92824 11.8548 4.968 14.1999 4.95935H103.872C106.216 4.95935 108.789 6.92824 109.589 9.26609C110.962 13.3019 112.207 17.2599 113.563 21.1054C115.152 25.5304 112.635 29.6614 107.96 30.307Z" fill="#F0F1F1"/>
<path d="M107.964 30.3129C104.915 30.7309 101.855 31.0797 98.7994 31.4083C69.3065 34.5793 39.5313 34.3631 10.1197 30.3129C5.44425 29.6672 2.92759 25.5477 4.51322 21.1113C5.88066 17.2657 7.13172 13.3279 8.49043 9.272C9.28763 6.9341 11.8624 4.97385 14.2075 4.96521H103.876C106.222 4.96521 108.793 6.9341 109.594 9.272C110.967 13.3078 112.212 17.2657 113.567 21.1113C115.156 25.5362 112.64 29.6672 107.964 30.3129Z" fill="#F1F2F2"/>
<path d="M107.965 30.3157C104.916 30.7366 101.855 31.0854 98.8002 31.4139C69.3069 34.5849 39.5317 34.3688 10.1231 30.3157C5.44472 29.6728 2.93097 25.5477 4.51661 21.1169C5.88405 17.2714 7.13511 13.3336 8.49382 9.27762C9.29099 6.93972 11.863 4.97947 14.2109 4.97083H103.877C106.222 4.97083 108.794 6.93972 109.594 9.27762C110.968 13.3134 112.213 17.2714 113.568 21.1169C115.157 25.5419 112.64 29.6728 107.965 30.3157Z" fill="#F2F2F3"/>
<path d="M107.965 30.3215C104.916 30.7424 101.855 31.0912 98.8003 31.4198C69.3071 34.5764 39.5348 34.3717 10.1262 30.3215C5.44782 29.6786 2.93406 25.5477 4.51971 21.1228C5.88715 17.2744 7.13821 13.325 8.49692 9.28346C9.29409 6.94269 11.8661 4.98534 14.214 4.97668H103.877C106.222 4.97668 108.797 6.94269 109.594 9.28346C110.968 13.3193 112.213 17.2744 113.568 21.1228C115.157 25.5477 112.64 29.6786 107.965 30.3215Z" fill="#F3F3F4"/>
<path d="M107.971 30.3273C104.922 30.7482 101.861 31.097 98.8063 31.4228C69.3164 34.5938 39.5441 34.3776 10.1355 30.3273C5.45706 29.6817 2.9404 25.5478 4.5435 21.1258C5.91094 17.2802 7.14745 13.3424 8.51779 9.28928C9.31788 6.94855 11.8898 4.99119 14.2348 4.98254H103.883C106.228 4.98254 108.803 6.94855 109.601 9.28928C110.974 13.3251 112.219 17.2802 113.575 21.1258C115.164 25.5507 112.646 29.6817 107.971 30.3273Z" fill="#F4F4F5"/>
<path d="M107.974 30.3331C104.925 30.7511 101.865 31.0999 98.8123 31.4285C69.3195 34.5995 39.5472 34.3833 10.1386 30.3331C5.46312 29.6874 2.94645 25.5478 4.54373 21.1315C5.91117 17.2859 7.16223 13.3481 8.51803 9.29508C9.31814 6.9543 11.8901 4.99693 14.2351 4.98828H103.886C106.232 4.98828 108.807 6.9543 109.603 9.29508C110.977 13.3309 112.222 17.2859 113.578 21.1315C115.166 25.5564 112.65 29.6874 107.974 30.3331Z" fill="#F4F5F5"/>
<path d="M107.978 30.3358C104.929 30.7566 101.867 31.1054 98.8157 31.434C69.3256 34.605 39.5533 34.3859 10.1447 30.3358C5.46915 29.6929 2.95249 25.562 4.54395 21.1369C5.91138 17.2915 7.14499 13.3537 8.51825 9.30053C9.3154 6.95978 11.8874 5.00243 14.2323 4.99377H103.89C106.235 4.99377 108.809 6.95978 109.607 9.30053C110.98 13.3364 112.225 17.2915 113.581 21.1369C115.17 25.562 112.653 29.6929 107.978 30.3358Z" fill="#F5F6F6"/>
<path d="M107.978 30.3417C104.929 30.7626 101.867 31.1114 98.8157 31.4371C69.3256 34.6081 39.5562 34.3919 10.1476 30.3417C5.47208 29.6989 2.95541 25.568 4.54106 21.1429C5.9085 17.2975 7.1421 13.3597 8.51536 9.30653C9.31547 6.96577 11.8874 5.00841 14.2324 4.99976H103.89C106.238 4.99976 108.809 6.96577 109.607 9.30653C110.98 13.3424 112.225 17.2975 113.581 21.1429C115.17 25.568 112.653 29.6989 107.978 30.3417Z" fill="#F6F7F7"/>
<path d="M107.984 30.3473C104.935 30.7682 101.873 31.117 98.8191 31.4428C69.3287 34.6138 39.5593 34.3975 10.1536 30.3473C5.47812 29.7016 2.96146 25.5736 4.54128 21.1486C5.90872 17.3031 7.14233 13.3653 8.51558 9.31215C9.31281 6.97139 11.8876 5.01402 14.2326 5.00537H103.892C106.241 5.00537 108.813 6.97139 109.61 9.31215C110.983 13.348 112.228 17.3031 113.585 21.1486C115.173 25.5736 112.656 29.7016 107.984 30.3473Z" fill="#F7F7F8"/>
<path d="M107.989 30.3505C104.94 30.7714 101.879 31.1202 98.8234 31.4489C69.3366 34.6198 39.5673 34.4036 10.1616 30.3505C5.48606 29.7077 2.9694 25.5768 4.55795 21.1547C5.92539 17.3062 7.1619 13.3569 8.53225 9.31827C9.32948 6.97749 11.9043 5.02013 14.2493 5.01147H103.901C106.246 5.01147 108.818 6.97749 109.615 9.31827C110.988 13.3541 112.233 17.3062 113.589 21.1547C115.177 25.5768 112.661 29.7077 107.989 30.3505Z" fill="#F8F8F9"/>
<path d="M107.991 30.3559C104.942 30.7768 101.882 31.1256 98.8269 31.4542C69.3397 34.6252 39.5733 34.4061 10.1676 30.3559C5.49211 29.713 2.97544 25.5821 4.564 21.1572C5.93143 17.3116 7.16504 13.3738 8.53829 9.33805C9.33549 6.99726 11.9075 5.03989 14.2554 5.03125H103.904C106.249 5.03125 108.821 6.99726 109.618 9.33805C110.992 13.3738 112.237 17.326 113.592 21.1716C115.181 25.5965 112.664 29.7274 107.991 30.3703" fill="#F9FAFA"/>
<path d="M107.995 30.3618C104.946 30.7827 101.885 31.1315 98.8303 31.4572C69.3461 34.6281 39.5767 34.412 10.1739 30.3618C5.49842 29.7189 2.98176 25.588 4.57031 21.163C5.93484 17.3175 7.17135 13.3797 8.54461 9.32951C9.34176 6.98871 11.9137 5.03135 14.2616 5.02271H103.907C106.253 5.02271 108.824 6.98871 109.621 9.32951C110.995 13.3652 112.24 17.3175 113.596 21.163C115.184 25.588 112.668 29.7189 107.995 30.3618Z" fill="#FAFAFB"/>
<path d="M107.995 30.3678C104.946 30.7858 101.885 31.1346 98.8337 31.4631C69.3463 34.6341 39.5798 34.418 10.177 30.3678C5.50152 29.722 2.98486 25.594 4.57341 21.169C5.93794 17.3234 7.17445 13.3857 8.54771 9.33543C9.34486 6.9947 11.9168 5.03733 14.2619 5.02869H103.908C106.253 5.02869 108.825 6.9947 109.621 9.33543C110.995 13.3712 112.24 17.3234 113.596 21.169C115.184 25.594 112.668 29.722 107.995 30.3678Z" fill="#FCFCFC"/>
<path d="M108.002 30.3703C104.953 30.7912 101.891 31.14 98.8398 31.4687C69.3526 34.6252 39.5891 34.4205 10.1863 30.3703C5.51082 29.7274 2.99415 25.5966 4.58271 21.1745C5.94723 17.3289 7.18374 13.3911 8.55699 9.33805C9.35414 7.00014 11.9261 5.04278 14.2712 5.03125H103.914C106.259 5.03125 108.831 7.00014 109.628 9.33805C111.001 13.3738 112.247 17.3289 113.603 21.1745C115.191 25.5966 112.674 29.7274 108.002 30.3703Z" fill="#FDFDFD"/>
<path d="M108.004 30.3763C104.952 30.7799 101.897 31.1451 98.8432 31.4717C69.3553 34.6319 39.591 34.2641 10.1922 30.3763C5.51962 29.7075 3.00004 25.6025 4.58859 21.1776C5.95312 17.3349 7.18964 13.3942 8.56289 9.34405C9.36007 7.00612 11.932 5.04876 14.277 5.03723H103.917C106.262 5.03723 108.833 7.00612 109.631 9.34405C111.005 13.3798 112.249 17.3349 113.605 21.1776C115.194 25.6025 112.674 29.7075 108.004 30.3763Z" fill="white"/>
</g>
<mask id="mask2_2953_110" style="mask-type:alpha" maskUnits="userSpaceOnUse" x="0" y="-1" width="117" height="39">
<path d="M9.40543 29.5284C4.72429 28.8602 2.20188 24.7465 3.7933 20.3247C5.16069 16.4732 6.41171 12.5209 7.77328 8.47931C8.57335 6.13731 11.1481 4.17556 13.4989 4.15828H103.282C105.629 4.15828 108.207 6.12866 109.007 8.47931C110.38 12.5122 111.625 16.4732 112.987 20.3247C114.575 24.7522 112.053 28.8602 107.375 29.5284C104.319 29.9318 101.261 30.2976 98.1988 30.626C84.9773 32.042 71.6885 32.7519 58.3901 32.7519C42.0078 32.7519 25.6436 31.6751 9.40543 29.5284ZM99.0597 -0.243408H13.3709C10.9852 -0.243408 8.3697 1.81916 7.55217 4.29079C5.31392 11.1084 3.08827 17.7349 0.875228 24.1704C-0.736551 28.7795 1.82368 33.1005 6.57463 33.8149C37.4196 38.0169 68.6687 38.4542 99.6216 35.117C103.154 34.7329 106.681 34.295 110.206 33.8034C114.968 33.1005 117.532 28.7795 115.914 24.1704C113.687 17.7484 111.456 11.1228 109.222 4.29367C108.407 1.82204 105.792 -0.234766 103.404 -0.240527L99.0597 -0.243408Z" fill="white"/>
</mask>
<g mask="url(#mask2_2953_110)">
<path d="M-20.2748 19.1038L58.3994 -58.7955L137.074 19.1036L58.3993 97.0028L-20.2748 19.1038Z" fill="url(#paint0_linear_2953_110)"/>
</g>
<mask id="mask3_2953_110" style="mask-type:alpha" maskUnits="userSpaceOnUse" x="3" y="25" width="111" height="9">
<path d="M107.45 29.4825C104.398 29.8811 101.341 30.2427 98.2813 30.5673C68.7694 33.6945 38.9806 33.3303 9.55792 29.4825C6.99975 29.121 5.00261 27.743 3.97351 25.8497C4.84562 27.9623 6.83986 29.5253 9.55792 29.9153C38.9755 33.828 68.7715 34.1989 98.2813 31.02C101.339 30.6897 104.396 30.3215 107.45 29.9153C110.168 29.5253 112.157 27.9623 113.031 25.8497C112.005 27.743 110.005 29.121 107.45 29.4825Z" fill="white"/>
</mask>
<g mask="url(#mask3_2953_110)">
<path d="M113.031 25.8497H3.97351V34.1973H113.031V25.8497Z" fill="url(#paint1_linear_2953_110)"/>
</g>
<mask id="mask4_2953_110" style="mask-type:alpha" maskUnits="userSpaceOnUse" x="-13" y="-12" width="142" height="63">
<path d="M128.821 -11.9332H-12.0282V50.2729H128.821V-11.9332Z" fill="white"/>
</mask>
<g mask="url(#mask4_2953_110)">
<g opacity="0.5">
<g style="mix-blend-mode:multiply">
<g style="mix-blend-mode:multiply">
<mask id="mask5_2953_110" style="mask-type:alpha" maskUnits="userSpaceOnUse" x="3" y="3" width="111" height="27">
<g style="mix-blend-mode:multiply" opacity="0.5">
<g style="mix-blend-mode:multiply">
<g style="mix-blend-mode:multiply">
<path d="M113.744 3.5957H3.14183V29.174H113.744V3.5957Z" fill="white"/>
</g>
</g>
</g>
</mask>
<g mask="url(#mask5_2953_110)">
<g style="mix-blend-mode:multiply">
<g style="mix-blend-mode:multiply">
<mask id="mask6_2953_110" style="mask-type:alpha" maskUnits="userSpaceOnUse" x="3" y="3" width="111" height="27">
<g style="mix-blend-mode:multiply" opacity="0.5">
<g style="mix-blend-mode:multiply">
<g style="mix-blend-mode:multiply">
<path d="M113.747 3.5957H3.14497V29.174H113.747V3.5957Z" fill="white"/>
</g>
</g>
</g>
</mask>
<g mask="url(#mask6_2953_110)">
<g style="mix-blend-mode:multiply">
<path d="M113.27 20.0416C111.894 16.124 110.651 12.0997 109.273 7.98319C108.469 5.59918 105.883 3.60435 103.523 3.5957H13.3684C11.0118 3.5957 8.42237 5.6136 7.61936 7.98319C6.24029 12.0997 5.00087 16.124 3.62471 20.0416C2.16998 24.1783 4.17459 28.0382 8.14597 29.174C4.32588 27.9864 2.41438 24.2532 3.84873 20.2549C5.21617 16.4036 6.46723 12.4485 7.82884 8.40118C8.62895 6.06042 11.2038 4.09729 13.5517 4.07712H103.34C105.688 4.07712 108.266 6.04889 109.063 8.40118C110.439 12.4369 111.682 16.4036 113.046 20.2549C114.48 24.2532 112.566 27.9864 108.748 29.174C112.72 28.0382 114.736 24.1783 113.27 20.0416Z" fill="#231F20"/>
</g>
</g>
</g>
</g>
</g>
</g>
</g>
<g style="mix-blend-mode:multiply">
<g style="mix-blend-mode:multiply">
<mask id="mask7_2953_110" style="mask-type:alpha" maskUnits="userSpaceOnUse" x="0" y="25" width="117" height="13">
<g style="mix-blend-mode:multiply" opacity="0.5">
<g style="mix-blend-mode:multiply">
<g style="mix-blend-mode:multiply">
<path d="M116.46 25.2045H0.451691V37.2715H116.46V25.2045Z" fill="white"/>
</g>
</g>
</g>
</mask>
<g mask="url(#mask7_2953_110)">
<g style="mix-blend-mode:multiply">
<mask id="mask8_2953_110" style="mask-type:alpha" maskUnits="userSpaceOnUse" x="0" y="25" width="117" height="13">
<g style="mix-blend-mode:multiply" opacity="0.5">
<g style="mix-blend-mode:multiply">
<g style="mix-blend-mode:multiply">
<path d="M116.46 25.2045H0.451691V37.2715H116.46V25.2045Z" fill="white"/>
</g>
</g>
</g>
</mask>
<g mask="url(#mask8_2953_110)">
<g style="mix-blend-mode:multiply">
<path d="M116.29 25.2045C116.802 28.8511 114.207 32.7803 110.282 33.3452C106.758 33.8238 103.229 34.2505 99.6972 34.6252C68.7361 37.8753 37.4939 37.4456 6.63582 33.3452C3.06885 32.8321 0.0866714 29.2605 0.592914 25.3774C-0.178088 29.494 2.33858 33.1089 6.63582 33.7373C37.4809 37.9489 68.7312 38.3933 99.6852 35.0605C103.218 34.6761 106.746 34.2379 110.27 33.7459C114.634 33.1003 117.154 29.3902 116.278 25.2045" fill="#231F20"/>
</g>
</g>
</g>
</g>
</g>
</g>
</g>
</g>
<mask id="mask9_2953_110" style="mask-type:alpha" maskUnits="userSpaceOnUse" x="1" y="-1" width="115" height="25">
<path d="M98.6636 -0.243408H13.3736C10.9936 -0.243408 8.7444 1.6345 7.84535 4.16524C5.50019 10.7969 3.63512 17.7794 1.44417 23.971C3.64966 17.7363 5.85807 11.2982 8.06939 4.657C8.87533 2.25569 11.4708 0.259862 13.8275 0.259862H102.955C105.318 0.259862 107.901 2.27294 108.711 4.6685C110.932 11.2905 113.143 17.7248 115.344 23.971C113.168 17.8024 111.231 10.8429 108.943 4.16524C108.071 1.64026 105.798 -0.243408 103.415 -0.243408H98.6636Z" fill="white"/>
</mask>
<g mask="url(#mask9_2953_110)">
<path d="M115.353 -0.243408H1.45616V23.971H115.353V-0.243408Z" fill="url(#paint2_linear_2953_110)"/>
</g>
<mask id="mask10_2953_110" style="mask-type:alpha" maskUnits="userSpaceOnUse" x="-13" y="-12" width="142" height="63">
<path d="M128.821 -11.9332H-12.0282V50.2729H128.821V-11.9332Z" fill="white"/>
</mask>
<g mask="url(#mask10_2953_110)">
<path d="M51.4764 16.006C52.7222 15.491 53.5143 14.2638 53.4636 12.9272C53.4636 9.75632 50.3505 9.41614 49.0121 9.41614H45.416V21.4025H48.1888V17.0006H48.9132C49.2041 17.0784 49.9228 18.2834 51.0866 20.2667L51.7558 21.4025H54.9357L54.4906 20.6472C53.0359 18.1998 52.0903 16.6114 51.4764 16.0175V16.006ZM49.0616 14.6483H48.1888V11.7655H49.0616C50.0537 11.7655 50.6938 12.3219 50.6938 13.1867C50.6938 14.0515 50.0392 14.6281 49.0616 14.6281V14.6483ZM28.9196 13.7632C28.672 14.1293 28.4447 14.5085 28.2387 14.899C28.0209 14.531 27.7829 14.1749 27.526 13.8325L24.3924 9.40463H21.8846V21.4025H24.6514V14.729C24.6514 14.5531 24.6514 14.3513 24.6514 14.1524C24.7678 14.3225 24.8812 14.4781 24.9918 14.6252L25.1111 14.7895L27.59 18.2488H28.8934L31.2209 14.7261C31.3169 14.5791 31.4391 14.3974 31.5497 14.2159C31.5497 14.4147 31.5497 14.6137 31.5497 14.8097V21.4111H34.3165V9.40463H31.8057L28.9196 13.7632ZM13.9359 9.36423L9.20224 21.4025H12.0477L13.1359 18.5572H16.8978L18.0411 21.4025H20.9506L16.0045 9.36423H13.9359ZM13.9621 16.2828L14.7506 14.213C14.8437 13.9564 14.9426 13.6796 15.0415 13.4087C15.1172 13.6652 15.2103 13.9506 15.315 14.2476L16.0395 16.2828H13.9621ZM43.0041 11.7424L43.7548 9.43634H36.551V21.4025H43.6879V19.0963H39.3237V16.4528H43.0682V14.1178H39.3208V11.7338L43.0041 11.7424ZM92.2638 15.5246C92.2638 15.8763 92.2638 16.3519 92.2638 16.793C92.0224 16.4499 91.7689 16.104 91.4493 15.7033L86.4885 9.40463H83.7712V21.4025H86.541V14.8529C86.541 14.5214 86.541 14.112 86.541 13.7546C86.7824 14.0976 87.047 14.4609 87.37 14.8702L92.5224 21.4025H95.0311V9.40463H92.2638V15.5246ZM55.8261 21.4025H58.6103V9.40463H55.8261V21.4025ZM102.782 9.36423H100.692L95.959 21.4025H98.8131L99.9008 18.5572H103.663L104.807 21.4025H107.716L102.782 9.36423ZM100.719 16.2828L101.507 14.213C101.6 13.9564 101.699 13.6796 101.783 13.4087C101.859 13.6652 101.952 13.9506 102.057 14.2476L102.782 16.2828H100.719ZM69.6546 18.4332C68.7906 18.9327 67.8095 19.1991 66.8092 19.2058C64.694 19.2058 63.216 17.6405 63.216 15.3978C63.216 12.6275 65.2526 11.6502 67.0245 11.6502C68.0318 11.6495 69.02 11.9227 69.8815 12.4401L70.1347 12.5842L70.1754 9.98979L70.0823 9.94078C69.0944 9.4972 68.0186 9.27942 66.9343 9.30371C63.0414 9.30371 60.2164 11.9241 60.2164 15.5361C60.2164 19.1482 62.701 21.5898 66.3989 21.5898C67.8451 21.5988 69.2675 21.2245 70.5187 20.506L70.6438 20.4309L69.8233 18.341L69.6546 18.4332ZM75.8284 9.36423L71.089 21.4025H73.9373L75.0254 18.5572H78.7873L79.9279 21.4025H82.8373L77.8912 9.36423H75.8284ZM75.8517 16.2828L76.6401 14.213C76.7333 13.9564 76.8322 13.6796 76.9311 13.4087C77.0067 13.6652 77.0999 13.9506 77.2075 14.2476L77.929 16.2828H75.8517Z" fill="#E02826"/>
<path d="M9.44958 25.7065L10.5523 25.7585C11.2709 25.7959 12.3271 25.842 13.6683 25.9227C15.0095 26.0034 16.6388 26.0928 18.5067 26.211L21.4802 26.4128L24.7766 26.5599C27.0721 26.6607 29.5597 26.7674 32.1869 26.9115C32.8445 26.9433 33.5078 26.9865 34.1828 27.0067L36.2194 27.0557C37.6013 27.0816 39.0124 27.1335 40.4468 27.1767L44.8109 27.3093C45.55 27.3353 46.2919 27.3612 47.0396 27.3555L49.2886 27.3757L58.4271 27.4708L67.5627 27.3757L69.8147 27.3526C70.5624 27.3526 71.3043 27.3324 72.0433 27.3093L76.4075 27.1738C77.8418 27.1335 79.2529 27.0787 80.6349 27.0528L82.686 27.0038C83.361 26.9836 84.0244 26.9375 84.6819 26.9086L88.5136 26.7155L92.1212 26.557L95.4203 26.4128L98.3913 26.2197C100.257 26.0928 101.883 26.0034 103.227 25.9314C104.571 25.8593 105.621 25.8046 106.343 25.7671L107.445 25.7152L106.354 25.8824C105.642 25.9861 104.609 26.1505 103.268 26.335C101.926 26.5195 100.32 26.7472 98.4643 26.9894L95.5079 27.3872C94.4632 27.5082 93.3635 27.6033 92.2174 27.7187L88.6304 28.0732L84.8041 28.4307C84.1436 28.4855 83.4774 28.5547 82.8024 28.6037L80.7484 28.7305C79.3635 28.8227 77.9495 28.8891 76.5093 28.9698C73.629 29.111 70.6555 29.3388 67.6267 29.3446L58.4475 29.5088L49.2682 29.3446C46.2395 29.3446 43.266 29.1081 40.3857 28.9669C38.931 28.8862 37.5287 28.8198 36.1466 28.7276L34.0926 28.6008C33.4147 28.5518 32.7484 28.4826 32.088 28.4278C29.4694 28.1972 26.9673 27.9522 24.6718 27.7245C23.5255 27.6062 22.4228 27.5169 21.3812 27.3901L18.4282 26.9894C16.5719 26.7443 14.9572 26.5108 13.6276 26.3234C12.2979 26.1361 11.2535 25.9775 10.5406 25.8737L9.44958 25.7065Z" fill="#E02826"/>
<path d="M119.689 26.9663C118.542 26.9663 117.611 26.0448 117.611 24.908C117.611 23.7712 118.542 22.8497 119.689 22.8497C120.837 22.8497 121.766 23.7712 121.766 24.908C121.767 25.4542 121.549 25.9781 121.159 26.3642C120.769 26.7505 120.24 26.967 119.689 26.9663ZM119.689 23.2187C119.002 23.2047 118.374 23.6044 118.1 24.2302C117.827 24.8558 117.963 25.583 118.445 26.0701C118.926 26.557 119.657 26.7071 120.294 26.4496C120.931 26.1921 121.347 25.5782 121.348 24.8965C121.356 24.4552 121.184 24.0292 120.873 23.7139C120.561 23.3986 120.135 23.2203 119.689 23.2187ZM120.125 26.0063L119.666 25.1242H119.375V26.0063H118.962V23.7924H119.806C119.994 23.7854 120.177 23.854 120.313 23.9826C120.449 24.1112 120.527 24.289 120.53 24.4756C120.535 24.7519 120.355 24.9981 120.088 25.0781L120.585 26.0178L120.125 26.0063ZM119.759 24.1412H119.38V24.8129H119.759C119.887 24.8247 120.012 24.7634 120.08 24.6546C120.148 24.5458 120.148 24.4083 120.08 24.2994C120.012 24.1907 119.887 24.1294 119.759 24.1412Z" fill="white"/>
</g>
<path d="M23.6889 47.7875V40.9453H26.6197C27.3567 40.9453 27.8914 41.0075 28.2238 41.132C28.5594 41.2534 28.8276 41.4711 29.0284 41.7854C29.229 42.0997 29.3294 42.459 29.3294 42.8636C29.3294 43.377 29.1772 43.8017 28.8731 44.1377C28.5689 44.4706 28.1141 44.6807 27.5088 44.7678C27.8099 44.942 28.0577 45.1334 28.2521 45.3419C28.4497 45.5503 28.7147 45.9206 29.0472 46.4527L29.8892 47.7875H28.2238L27.2172 46.2986C26.8596 45.7666 26.615 45.4321 26.4833 45.2951C26.3515 45.1552 26.212 45.0602 26.0645 45.0105C25.9172 44.9576 25.6835 44.9311 25.3636 44.9311H25.0813V47.7875H23.6889ZM25.0813 43.839H26.1116C26.7796 43.839 27.1967 43.811 27.363 43.755C27.5292 43.699 27.6594 43.6025 27.7534 43.4656C27.8475 43.3287 27.8945 43.1576 27.8945 42.9522C27.8945 42.722 27.8318 42.5369 27.7064 42.3968C27.5841 42.2537 27.41 42.1634 27.1842 42.1261C27.0713 42.1106 26.7326 42.1028 26.1681 42.1028H25.0813V43.839Z" fill="white"/>
<path d="M30.6467 47.7875V40.9453H35.7603V42.1028H32.0391V43.6196H35.5016V44.7725H32.0391V46.6347H35.892V47.7875H30.6467Z" fill="white"/>
<path d="M36.7199 45.5612L38.0748 45.4305C38.1564 45.8817 38.3211 46.2131 38.5688 46.4246C38.8197 46.6363 39.1568 46.742 39.5802 46.742C40.0287 46.742 40.3658 46.6487 40.5916 46.462C40.8206 46.2722 40.9351 46.0513 40.9351 45.7992C40.9351 45.6375 40.8865 45.5006 40.7892 45.3886C40.6952 45.2734 40.5289 45.1738 40.2906 45.0898C40.1275 45.0338 39.7558 44.9342 39.1757 44.7911C38.4292 44.6075 37.9055 44.3819 37.6044 44.1143C37.181 43.7379 36.9693 43.2789 36.9693 42.7375C36.9693 42.3891 37.0681 42.0639 37.2657 41.762C37.4664 41.4572 37.7533 41.2253 38.1265 41.0667C38.5029 40.908 38.9561 40.8286 39.4862 40.8286C40.3518 40.8286 41.0025 41.0169 41.4385 41.3933C41.8775 41.7698 42.108 42.2724 42.13 42.9009L40.7375 42.9615C40.6779 42.61 40.5494 42.3579 40.3518 42.2055C40.1573 42.0499 39.8641 41.9721 39.4721 41.9721C39.0675 41.9721 38.7507 42.0546 38.5218 42.2194C38.3743 42.3252 38.3006 42.4668 38.3006 42.6442C38.3006 42.806 38.3696 42.9445 38.5077 43.0595C38.6833 43.2058 39.1098 43.3583 39.7872 43.5169C40.4647 43.6756 40.9649 43.8406 41.2879 44.0117C41.6141 44.1797 41.8682 44.4115 42.0501 44.7071C42.2351 44.9996 42.3276 45.3621 42.3276 45.7945C42.3276 46.1866 42.2178 46.5538 41.9982 46.8961C41.7787 47.2383 41.4682 47.4934 41.0668 47.6615C40.6653 47.8263 40.1651 47.9089 39.5661 47.9089C38.6943 47.9089 38.0247 47.7097 37.5574 47.3114C37.0901 46.91 36.8109 46.3266 36.7199 45.5612Z" fill="white"/>
<path d="M45.0514 47.7875V42.1028H43.005V40.9453H48.4856V42.1028H46.4439V47.7875H45.0514Z" fill="white"/>
<path d="M54.893 47.7875H53.3782L52.776 46.2333H50.0192L49.45 47.7875H47.9728L50.659 40.9453H52.1315L54.893 47.7875ZM52.3291 45.0805L51.3788 42.5415L50.4473 45.0805H52.3291Z" fill="white"/>
<path d="M55.6268 40.9453H57.0193V44.6511C57.0193 45.2391 57.0366 45.6203 57.0711 45.7946C57.1307 46.0746 57.2718 46.3002 57.4945 46.4713C57.7203 46.6393 58.0276 46.7234 58.4165 46.7234C58.8117 46.7234 59.1097 46.644 59.3104 46.4853C59.5111 46.3235 59.6319 46.126 59.6726 45.8926C59.7134 45.6592 59.7338 45.2719 59.7338 44.7305V40.9453H61.1263V44.5391C61.1263 45.3605 61.0887 45.9408 61.0134 46.28C60.9381 46.6191 60.7985 46.9054 60.5946 47.1387C60.3939 47.3721 60.1243 47.5588 59.7855 47.6988C59.4468 47.8357 59.0046 47.9042 58.4589 47.9042C57.8002 47.9042 57.3 47.8295 56.9582 47.6802C56.6195 47.5277 56.3514 47.3316 56.1537 47.092C55.9561 46.8494 55.826 46.5958 55.7633 46.3313C55.6724 45.9393 55.6268 45.3605 55.6268 44.5951V40.9453Z" fill="white"/>
<path d="M62.6035 47.7875V40.9453H65.5343C66.2713 40.9453 66.806 41.0075 67.1385 41.132C67.4741 41.2534 67.7422 41.4711 67.9429 41.7854C68.1436 42.0997 68.244 42.459 68.244 42.8636C68.244 43.377 68.0919 43.8017 67.7877 44.1377C67.4835 44.4706 67.0287 44.6807 66.4234 44.7678C66.7245 44.942 66.9723 45.1334 67.1667 45.3419C67.3643 45.5503 67.6293 45.9206 67.9617 46.4527L68.8038 47.7875H67.1385L66.1317 46.2986C65.7742 45.7666 65.5296 45.4321 65.3979 45.2951C65.2661 45.1552 65.1266 45.0602 64.9792 45.0105C64.8318 44.9576 64.5982 44.9311 64.2782 44.9311H63.996V47.7875H62.6035ZM63.996 43.839H65.0262C65.6943 43.839 66.1114 43.811 66.2775 43.755C66.4438 43.699 66.574 43.6025 66.668 43.4656C66.7621 43.3287 66.8092 43.1576 66.8092 42.9522C66.8092 42.722 66.7465 42.5369 66.621 42.3968C66.4987 42.2537 66.3246 42.1634 66.0988 42.1261C65.9859 42.1106 65.6472 42.1028 65.0826 42.1028H63.996V43.839Z" fill="white"/>
<path d="M75.7804 47.7875H74.2656L73.6634 46.2333H70.9066L70.3375 47.7875H68.8602L71.5465 40.9453H73.019L75.7804 47.7875ZM73.2165 45.0805L72.2663 42.5415L71.3348 45.0805H73.2165Z" fill="white"/>
<path d="M76.5378 47.7875V40.9453H77.8927L80.7153 45.5145V40.9453H82.009V47.7875H80.6118L77.8315 43.3256V47.7875H76.5378Z" fill="white"/>
<path d="M85.0386 47.7875V42.1028H82.9922V40.9453H88.4732V42.1028H86.431V47.7875H85.0386Z" fill="white"/>
<path d="M89.023 45.5612L90.3779 45.4305C90.4596 45.8817 90.6245 46.2131 90.8719 46.4246C91.1228 46.6363 91.4605 46.742 91.8832 46.742C92.3316 46.742 92.6693 46.6487 92.8953 46.462C93.1238 46.2722 93.2381 46.0513 93.2381 45.7992C93.2381 45.6375 93.1899 45.5006 93.0929 45.3886C92.9983 45.2734 92.8325 45.1738 92.5937 45.0898C92.4305 45.0338 92.0593 44.9342 91.4785 44.7911C90.7328 44.6075 90.2087 44.3819 89.908 44.1143C89.4844 43.7379 89.2722 43.2789 89.2722 42.7375C89.2722 42.3891 89.371 42.0639 89.5686 41.762C89.7696 41.4572 90.0566 41.2253 90.4295 41.0667C90.8058 40.908 91.2594 40.8286 91.7895 40.8286C92.6547 40.8286 93.3059 41.0169 93.7415 41.3933C94.1806 41.7698 94.4117 42.2724 94.4331 42.9009L93.0405 42.9615C92.9812 42.61 92.8523 42.3579 92.6547 42.2055C92.4605 42.0499 92.1676 41.9721 91.7749 41.9721C91.3711 41.9721 91.0541 42.0546 90.8247 42.2194C90.6778 42.3252 90.6039 42.4668 90.6039 42.6442C90.6039 42.806 90.6726 42.9445 90.8109 43.0595C90.9862 43.2058 91.4132 43.3583 92.0902 43.5169C92.7681 43.6756 93.2681 43.8406 93.5912 44.0117C93.9176 44.1797 94.1711 44.4115 94.3532 44.7071C94.538 44.9996 94.6307 45.3621 94.6307 45.7945C94.6307 46.1866 94.5208 46.5538 94.3017 46.8961C94.0817 47.2383 93.7716 47.4934 93.3704 47.6615C92.9683 47.8263 92.4683 47.9089 91.8694 47.9089C90.9974 47.9089 90.3281 47.7097 89.8607 47.3114C89.3933 46.91 89.1141 46.3266 89.023 45.5612Z" fill="white"/>
</g>
</g>
<defs>
<linearGradient id="paint0_linear_2953_110" x1="23.9273" y1="53.0185" x2="91.1356" y2="-14.7665" gradientUnits="userSpaceOnUse">
<stop stop-color="#004E96"/>
<stop offset="0.3" stop-color="#006EAF"/>
<stop offset="0.5" stop-color="#009BDF"/>
<stop offset="0.7" stop-color="#006EAF"/>
<stop offset="1" stop-color="#004E96"/>
</linearGradient>
<linearGradient id="paint1_linear_2953_110" x1="58.3236" y1="33.2229" x2="58.3236" y2="25.9173" gradientUnits="userSpaceOnUse">
<stop stop-color="#8ED8F8"/>
<stop offset="0.72" stop-color="#009EDB"/>
<stop offset="1" stop-color="#009EDB"/>
</linearGradient>
<linearGradient id="paint2_linear_2953_110" x1="58.5337" y1="-0.143905" x2="58.5337" y2="24.0705" gradientUnits="userSpaceOnUse">
<stop stop-color="#6DCFF6"/>
<stop offset="0.22" stop-color="#0097D6"/>
<stop offset="0.3" stop-color="#0077C0"/>
<stop offset="1" stop-color="#0077C0"/>
</linearGradient>
<clipPath id="clip0_2953_110">
<rect width="122" height="50.2901" fill="white"/>
</clipPath>
</defs>
</svg>
