<svg id="Group_105676" data-name="Group 105676" xmlns="http://www.w3.org/2000/svg" width="71.379" height="71.379" viewBox="0 0 71.379 71.379">
  <path id="Path_71931" data-name="Path 71931" d="M72.126,35.992A35.69,35.69,0,1,1,36.436.3a35.688,35.688,0,0,1,35.69,35.69" transform="translate(-0.746 -0.302)" fill="#1a1918"/>
  <path id="Path_71932" data-name="Path 71932" d="M84.5,58.534l9.236,22.8L79.783,70.34ZM100.9,86.58,86.7,52.391a2.293,2.293,0,0,0-2.2-1.508,2.369,2.369,0,0,0-2.262,1.508l-15.593,37.5h5.334L78.15,74.43,96.57,89.311a2.993,2.993,0,0,0,1.97.87,2.547,2.547,0,0,0,2.608-2.549,3.376,3.376,0,0,0-.243-1.052Z" transform="translate(-48.207 -36.731)" fill="#fff"/>
</svg>
