<svg width="32" height="31" viewBox="0 0 32 31" fill="none" xmlns="http://www.w3.org/2000/svg">
<path fill-rule="evenodd" clip-rule="evenodd" d="M22.6795 16.3877H19.7948L11.9286 22.4119H21.0979L10.9531 30.4699H13.7707L26.2791 20.7758H17.0452L22.6795 16.3877Z" fill="#EEA852"/>
<path fill-rule="evenodd" clip-rule="evenodd" d="M11.0018 10.8426H8.17245L0 17.1856L10.4778 17.2377C15.3497 17.2377 20.3786 15.4327 20.3786 10.8718C20.3786 6.31086 15.2968 3.35047 6.75815 6.49317C6.1828 7.12455 3.72121 9.42831 3.30055 9.84739C11.4201 5.75998 18.5697 5.96834 18.5697 10.8434C18.5697 15.4548 11.2086 15.4548 10.4762 15.4548H5.12998L11.0018 10.8426Z" fill="#3DA0CA"/>
<path fill-rule="evenodd" clip-rule="evenodd" d="M6.74862 6.49376C6.17248 7.12514 3.71167 9.4289 3.29102 9.84797C4.96651 8.99496 6.71573 8.29522 8.51728 7.75731C9.74374 6.14098 13.0372 1.72762 17.6984 1.72762C22.6752 1.72762 24.3515 4.66275 24.3515 6.39037C24.287 7.62375 23.7863 8.79408 22.9388 9.6925C22.9388 9.6925 25.0863 9.79589 26.1344 9.79589C27.1825 9.79589 30.1681 10.1116 30.1681 12.9923C30.1681 15.8729 26.7626 16.2936 25.6111 16.2936H19.9011L17.6486 18.0733L25.3468 18.1246C28.8044 18.1246 31.9999 16.3986 31.9999 12.9899C31.9999 9.58122 29.0648 8.06511 26.0358 8.06511C26.3328 7.55933 26.4783 6.97884 26.4548 6.39274C26.4548 5.75662 25.4099 0 17.5958 0C12.5558 0 9.46672 3.97297 6.74862 6.49771V6.49376Z" fill="#2C6BA3"/>
<path fill-rule="evenodd" clip-rule="evenodd" d="M19.8939 16.2959H22.7975L20.4795 18.1009L17.5996 18.0724L19.8939 16.2959Z" fill="#928680"/>
<path fill-rule="evenodd" clip-rule="evenodd" d="M8.51844 7.75634L8.46477 7.77213C7.28804 8.15648 4.7633 9.20063 3.29297 9.84701L6.7482 6.49279C7.9392 6.04843 9.16553 5.70522 10.4142 5.4668C9.74062 6.19511 9.10674 6.95914 8.51528 7.75556L8.51844 7.75634Z" fill="#3288BA"/>
</svg>
