<svg width="213" height="56" viewBox="0 0 213 56" fill="none" xmlns="http://www.w3.org/2000/svg">
<path d="M58.7907 30.396V28.6644C58.1267 29.3695 57.3195 29.9244 56.4234 30.2919C55.5273 30.6595 54.563 30.8311 53.5951 30.7953C50.9645 30.7953 48.001 29.0302 48.001 25.4673C48.001 21.7705 50.9645 20.2389 53.5951 20.2389C54.559 20.1852 55.5231 20.342 56.4204 20.6984C57.3176 21.0548 58.1264 21.6024 58.7907 22.3029V19.9029C58.7907 18.0375 57.2583 16.9051 55.0278 16.9051C54.1379 16.9045 53.2571 17.0842 52.4385 17.4333C51.6199 17.7824 50.8806 18.2937 50.265 18.9364L48.8328 16.5058C50.6596 14.7867 53.0886 13.8537 55.5965 13.908C59.1601 13.908 62.2874 15.4062 62.2874 19.7364V30.396H58.7907ZM58.7907 26.7327V24.3015C58.3234 23.748 57.7348 23.3099 57.0706 23.021C56.4063 22.7322 55.6843 22.6004 54.9608 22.636C52.9972 22.636 51.5305 23.7691 51.5305 25.5335C51.5305 27.2658 52.9958 28.3975 54.9608 28.3975C55.6844 28.4329 56.4065 28.301 57.0708 28.0118C57.735 27.7227 58.3236 27.2843 58.7907 26.7305V26.7327Z" fill="black"/>
<path d="M69.6502 28.1625V36.5218H66.1543V14.3087H69.6502V16.5065C70.2479 15.6999 71.0263 15.0447 71.9231 14.5936C72.8199 14.1424 73.81 13.9078 74.8139 13.9087C78.9761 13.9087 81.9412 17.036 81.9412 22.3341C81.9412 27.6323 78.9761 30.793 74.8139 30.793C73.8058 30.7984 72.811 30.5625 71.9126 30.1048C71.0143 29.6472 70.2385 28.9812 69.6502 28.1625ZM78.3091 22.3341C78.3091 19.2374 76.544 17.0062 73.7804 17.0062C72.9713 17.0222 72.1772 17.2261 71.4604 17.6017C70.7436 17.9773 70.1239 18.5144 69.6502 19.1705V25.5312C70.1288 26.1823 70.7497 26.7156 71.4654 27.0908C72.181 27.466 72.9727 27.673 73.7804 27.6963C76.544 27.6963 78.3091 25.4651 78.3091 22.3341Z" fill="black"/>
<path d="M88.2351 28.1625V36.5218H84.7383V14.3087H88.2351V16.5065C88.8326 15.6998 89.611 15.0446 90.5078 14.5934C91.4046 14.1422 92.3947 13.9077 93.3986 13.9087C97.5608 13.9087 100.526 17.036 100.526 22.3341C100.526 27.6323 97.5615 30.793 93.3986 30.793C92.3905 30.7985 91.3957 30.5625 90.4973 30.1049C89.599 29.6473 88.8234 28.9812 88.2351 28.1625ZM96.894 22.3341C96.894 19.2374 95.1281 17.0062 92.3652 17.0062C91.5562 17.0222 90.7619 17.226 90.0451 17.6016C89.3283 17.9773 88.7087 18.5143 88.2351 19.1705V25.5312C88.7136 26.1823 89.3342 26.7158 90.0499 27.0909C90.7656 27.4661 91.5575 27.6732 92.3652 27.6963C95.1281 27.6963 96.894 25.4651 96.894 22.3341Z" fill="black"/>
<path d="M102.889 10.179C102.893 9.60628 103.123 9.0583 103.528 8.65337C103.933 8.24844 104.481 8.01903 105.054 8.01465C105.338 8.01408 105.62 8.06966 105.883 8.17823C106.145 8.28679 106.384 8.4462 106.586 8.6473C106.787 8.84839 106.946 9.08722 107.055 9.35007C107.163 9.61292 107.219 9.89462 107.218 10.179C107.219 10.4634 107.163 10.7452 107.055 11.0081C106.946 11.271 106.787 11.5098 106.586 11.711C106.384 11.9121 106.146 12.0716 105.883 12.1803C105.62 12.2889 105.338 12.3446 105.054 12.3441C104.481 12.3397 103.933 12.1102 103.528 11.7051C103.123 11.3 102.893 10.7519 102.889 10.179ZM103.325 30.3972V14.3099H106.822V30.3972H103.325Z" fill="black"/>
<path d="M121.541 30.396V20.3385C121.541 17.8403 120.275 17.0083 118.31 17.0083C117.502 17.03 116.71 17.2363 115.994 17.6114C115.278 17.9866 114.658 18.5207 114.18 19.1727V30.396H110.685V14.3087H114.181V16.5065C114.888 15.6987 115.758 15.0496 116.734 14.6019C117.71 14.1542 118.769 13.9179 119.842 13.9087C123.306 13.9087 125.037 15.7734 125.037 19.0723V30.396H121.541Z" fill="black"/>
<path d="M133.132 30.3981L126.571 14.313H130.301L134.997 26.3683L139.693 14.313H143.456L136.895 30.3981H133.132Z" fill="black"/>
<path d="M143.996 22.3341C143.996 17.6723 147.393 13.9087 152.155 13.9087C156.984 13.9087 160.083 17.6054 160.083 22.6672V23.5H147.661C147.774 24.7594 148.372 25.9255 149.329 26.752C150.286 27.5785 151.527 28.0006 152.79 27.9291C154.477 27.9264 156.102 27.2974 157.352 26.164L158.952 28.4621C157.153 30.0432 154.818 30.8759 152.424 30.7894C147.589 30.7931 143.996 27.4294 143.996 22.3341ZM152.155 16.7727C150.992 16.7474 149.866 17.18 149.018 17.9773C148.171 18.7746 147.671 19.8727 147.626 21.0352H156.684C156.68 20.4538 156.557 19.8792 156.325 19.3463C156.092 18.8135 155.753 18.3333 155.33 17.9349C154.906 17.5365 154.406 17.2281 153.86 17.0283C153.314 16.8286 152.733 16.7416 152.152 16.7727H152.155Z" fill="black"/>
<path d="M173.731 30.396V20.3385C173.731 17.8403 172.466 17.0083 170.501 17.0083C169.693 17.0299 168.901 17.2362 168.185 17.6113C167.469 17.9865 166.849 18.5206 166.371 19.1727V30.396H162.875V14.3087H166.371V16.5065C167.078 15.6988 167.948 15.0497 168.924 14.602C169.899 14.1543 170.959 13.918 172.032 13.9087C175.496 13.9087 177.228 15.7734 177.228 19.0723V30.396H173.731Z" fill="black"/>
<path d="M181.793 26.6649V17.3739H179.129V14.3099H181.793V9.91357H185.29V14.3099H188.554V17.3739H185.29V25.7994C185.29 26.8983 185.823 27.6976 186.822 27.6976C187.397 27.7149 187.957 27.5123 188.388 27.131L189.22 29.7623C188.296 30.5202 187.114 30.8901 185.923 30.7943C183.225 30.7943 181.793 29.3296 181.793 26.6649Z" fill="black"/>
<path d="M190.62 10.179C190.625 9.60628 190.854 9.0583 191.259 8.65337C191.665 8.24844 192.213 8.01903 192.785 8.01465C193.07 8.01408 193.351 8.06966 193.614 8.17823C193.877 8.28679 194.116 8.4462 194.317 8.6473C194.518 8.84839 194.678 9.08722 194.786 9.35007C194.895 9.61292 194.95 9.89462 194.95 10.179C194.95 10.4634 194.895 10.7452 194.786 11.0081C194.678 11.271 194.518 11.5098 194.317 11.711C194.116 11.9121 193.877 12.0716 193.614 12.1803C193.351 12.2889 193.07 12.3446 192.785 12.3441C192.212 12.3397 191.664 12.1102 191.259 11.7051C190.854 11.3 190.624 10.7519 190.62 10.179ZM191.057 30.3972V14.3099H194.553V30.3972H191.057Z" fill="black"/>
<path d="M202.643 30.3981L196.082 14.313H199.812L204.508 26.3683L209.203 14.313H212.967L206.406 30.3981H202.643Z" fill="black"/>
<path d="M43.4726 46.3753C42.892 46.376 42.3227 46.2162 41.8273 45.9135C41.3319 45.6109 40.9298 45.1772 40.6654 44.6604L23.0072 10.1382L9.79697 36.7724L22.0523 31.4458C22.8179 31.1123 23.6846 31.0964 24.4619 31.4016C25.2392 31.7068 25.8635 32.3082 26.1977 33.0735C26.3627 33.4522 26.4514 33.8597 26.4587 34.2728C26.4661 34.6858 26.3919 35.0963 26.2405 35.4806C26.0891 35.865 25.8632 36.2157 25.5761 36.5127C25.289 36.8098 24.9462 37.0473 24.5672 37.2116L4.40572 45.9753C3.81369 46.2326 3.15698 46.302 2.52424 46.1741C1.8915 46.0463 1.31323 45.7273 0.867546 45.2604C0.422671 44.7936 0.132184 44.2013 0.0355152 43.5637C-0.061154 42.9262 0.0406458 42.2744 0.327152 41.6967L20.1439 1.74545C20.4037 1.22352 20.8033 0.78397 21.2982 0.475786C21.7931 0.167602 22.3638 0.00289403 22.9468 1.66156e-07H22.9656C23.5457 -0.000188186 24.1147 0.159762 24.6096 0.462225C25.1046 0.764688 25.5064 1.19792 25.7709 1.71418L46.2762 41.8036C46.4641 42.1715 46.5776 42.5728 46.6104 42.9845C46.6431 43.3963 46.5943 43.8104 46.4669 44.2033C46.3394 44.5962 46.1358 44.9602 45.8676 45.2743C45.5994 45.5885 45.2719 45.8467 44.9039 46.0342C44.4613 46.2607 43.9714 46.3789 43.4742 46.3789" fill="#1163FB"/>
<path d="M82.0359 52.0903V43.9449H85.7479C88.1217 43.9449 89.6694 45.3296 89.6694 48.0176C89.6694 50.7056 88.1217 52.0903 85.7479 52.0903H82.0359ZM83.4323 50.8103H85.7945C87.1908 50.8103 88.2148 49.8678 88.2148 48.006C88.2148 46.1674 87.1908 45.2249 85.7945 45.2249H83.4323V50.8103ZM99.9132 52.0903V43.9449H101.31V52.0903H99.9132ZM114.991 52.2649C112.803 52.2649 111.546 50.8685 111.546 48.006C111.546 45.1434 112.78 43.7703 115.317 43.7703C117.551 43.7703 118.866 44.6082 118.866 46.7725H117.527C117.527 45.3412 116.364 45.0736 115.351 45.0736C113.618 45.0736 113.001 45.958 113.001 47.9943C113.001 50.0656 113.862 50.95 115.293 50.95C116.41 50.95 117.074 49.9958 117.493 49.0416H115.491V47.8198H119.04V52.0903H117.76V49.9492C117.213 51.1478 116.422 52.2649 114.991 52.2649ZM129.395 52.0903V43.9449H130.791V52.0903H129.395ZM143.414 52.0903V45.2249H140.854V43.9449H147.37V45.2249H144.81V52.0903H143.414ZM155.619 52.0903L159.029 43.9449H160.413L163.927 52.0903H162.345L161.74 50.6823H157.69L157.085 52.0903H155.619ZM157.993 49.4023H161.449L159.715 45.6322L157.993 49.4023ZM173.584 52.0903V43.9449H174.98V50.8103H179.809V52.0903H173.584Z" fill="black"/>
</svg>
