<svg width="147" height="32" viewBox="0 0 147 32" fill="none" xmlns="http://www.w3.org/2000/svg">
<g clip-path="url(#clip0_1763_117)">
<path d="M40.4387 20.9783V19.7836C39.9806 20.2701 39.4236 20.653 38.8053 20.9065C38.187 21.1601 37.5217 21.2785 36.8539 21.2538C35.0389 21.2538 32.9941 20.036 32.9941 17.5777C32.9941 15.027 35.0389 13.9703 36.8539 13.9703C37.519 13.9332 38.1842 14.0414 38.8033 14.2873C39.4223 14.5332 39.9804 14.911 40.4387 15.3944V13.7384C40.4387 12.4513 39.3814 11.67 37.8424 11.67C37.2284 11.6696 36.6207 11.7936 36.0559 12.0345C35.4911 12.2753 34.981 12.6281 34.5562 13.0715L33.5681 11.3945C34.8285 10.2084 36.5044 9.5647 38.2348 9.60213C40.6936 9.60213 42.8513 10.6358 42.8513 13.6235V20.9783H40.4387ZM40.4387 18.4508V16.7733C40.1163 16.3915 39.7102 16.0891 39.2519 15.8898C38.7936 15.6905 38.2954 15.5996 37.7962 15.6242C36.4414 15.6242 35.4294 16.406 35.4294 17.6233C35.4294 18.8186 36.4404 19.5994 37.7962 19.5994C38.2955 19.6239 38.7937 19.5328 39.252 19.3333C39.7103 19.1339 40.1164 18.8313 40.4387 18.4493V18.4508Z" fill="white"/>
<path d="M47.9336 19.4353V25.2029H45.5215V9.87657H47.9336V11.393C48.3459 10.8365 48.883 10.3844 49.5018 10.0731C50.1205 9.76183 50.8037 9.59998 51.4964 9.60059C54.3681 9.60059 56.414 11.7583 56.414 15.4139C56.414 19.0695 54.3681 21.2503 51.4964 21.2503C50.8008 21.254 50.1144 21.0912 49.4946 20.7754C48.8748 20.4597 48.3395 20.0002 47.9336 19.4353ZM53.9079 15.4139C53.9079 13.2772 52.6901 11.7377 50.7832 11.7377C50.225 11.7488 49.6771 11.8895 49.1825 12.1487C48.688 12.4078 48.2604 12.7784 47.9336 13.2311V17.6198C48.2638 18.069 48.6922 18.437 49.186 18.6958C49.6798 18.9547 50.2259 19.0976 50.7832 19.1136C52.6901 19.1136 53.9079 17.5741 53.9079 15.4139Z" fill="white"/>
<path d="M60.7564 19.4353V25.2029H58.3438V9.87657H60.7564V11.393C61.1687 10.8364 61.7058 10.3843 62.3245 10.073C62.9433 9.76171 63.6265 9.59991 64.3191 9.60059C67.1909 9.60059 69.2367 11.7583 69.2367 15.4139C69.2367 19.0695 67.1914 21.2503 64.3191 21.2503C63.6235 21.254 62.9371 21.0912 62.3173 20.7755C61.6975 20.4597 61.1623 20.0002 60.7564 19.4353ZM66.7308 15.4139C66.7308 13.2772 65.5124 11.7377 63.6061 11.7377C63.0479 11.7488 62.4998 11.8894 62.0053 12.1486C61.5107 12.4078 61.0832 12.7783 60.7564 13.2311V17.6198C61.0866 18.069 61.5148 18.4371 62.0086 18.6959C62.5024 18.9548 63.0488 19.0976 63.6061 19.1136C65.5124 19.1136 66.7308 17.5741 66.7308 15.4139Z" fill="white"/>
<path d="M70.8652 7.02606C70.8684 6.63089 71.0268 6.2528 71.3063 5.97341C71.5858 5.69402 71.9639 5.53574 72.3591 5.53272C72.5553 5.53232 72.7496 5.57067 72.931 5.64558C73.1123 5.72049 73.2772 5.83048 73.416 5.96922C73.5547 6.10797 73.6646 6.27275 73.7395 6.45411C73.8144 6.63547 73.8529 6.82984 73.8525 7.02606C73.8529 7.2223 73.8144 7.4167 73.7395 7.59808C73.6646 7.77947 73.5547 7.94428 73.416 8.08307C73.2772 8.22186 73.1125 8.33189 72.9311 8.40686C72.7497 8.48182 72.5553 8.52024 72.3591 8.51991C71.9638 8.51689 71.5856 8.35853 71.3061 8.07903C71.0266 7.79953 70.8683 7.42132 70.8652 7.02606ZM71.1664 20.976V9.87625H73.5789V20.976H71.1664Z" fill="white"/>
<path d="M83.7364 20.9763V14.037C83.7364 12.3133 82.8633 11.7392 81.5075 11.7392C80.9501 11.7542 80.4035 11.8965 79.9096 12.1554C79.4157 12.4142 78.9876 12.7827 78.6582 13.2326V20.9763H76.2461V9.87657H78.6588V11.393C79.1466 10.8356 79.7468 10.3878 80.42 10.0789C81.0932 9.76996 81.8241 9.60696 82.5647 9.60059C84.9548 9.60059 86.1491 10.8872 86.1491 13.1633V20.9763H83.7364Z" fill="white"/>
<path d="M91.7318 20.9776L87.2051 9.87939H89.7787L93.0189 18.1972L96.2585 9.87939H98.8553L94.3281 20.9776H91.7318Z" fill="white"/>
<path d="M99.2266 15.4139C99.2266 12.1974 101.57 9.60059 104.856 9.60059C108.188 9.60059 110.326 12.1512 110.326 15.6437V16.2183H101.755C101.833 17.0872 102.246 17.8918 102.906 18.4621C103.567 19.0323 104.423 19.3235 105.294 19.2742C106.458 19.2724 107.579 18.8384 108.442 18.0563L109.545 19.642C108.304 20.7329 106.693 21.3074 105.042 21.2478C101.706 21.2503 99.2266 18.9295 99.2266 15.4139ZM104.856 11.5767C104.054 11.5592 103.276 11.8577 102.692 12.4078C102.107 12.9579 101.762 13.7156 101.731 14.5177H107.981C107.978 14.1165 107.893 13.7201 107.733 13.3524C107.572 12.9847 107.339 12.6534 107.046 12.3785C106.754 12.1037 106.409 11.8909 106.032 11.753C105.656 11.6152 105.255 11.5552 104.854 11.5767H104.856Z" fill="white"/>
<path d="M119.746 20.9763V14.037C119.746 12.3133 118.873 11.7392 117.518 11.7392C116.96 11.7541 116.414 11.8964 115.92 12.1553C115.426 12.4141 114.998 12.7827 114.668 13.2326V20.9763H112.256V9.87657H114.668V11.393C115.156 10.8357 115.756 10.3879 116.429 10.079C117.102 9.77005 117.833 9.60702 118.574 9.60059C120.964 9.60059 122.159 10.8872 122.159 13.1633V20.9763H119.746Z" fill="white"/>
<path d="M125.305 18.4021V11.9917H123.467V9.87759H125.305V6.84424H127.718V9.87759H129.97V11.9917H127.718V17.805C127.718 18.5632 128.085 19.1146 128.775 19.1146C129.171 19.1266 129.558 18.9868 129.855 18.7238L130.429 20.5392C129.792 21.0621 128.976 21.3174 128.154 21.2513C126.293 21.2513 125.305 20.2407 125.305 18.4021Z" fill="white"/>
<path d="M131.402 7.02606C131.405 6.63089 131.564 6.2528 131.843 5.97341C132.123 5.69402 132.501 5.53574 132.896 5.53272C133.092 5.53232 133.287 5.57067 133.468 5.64558C133.65 5.72049 133.814 5.83048 133.953 5.96922C134.092 6.10797 134.202 6.27275 134.277 6.45411C134.352 6.63547 134.39 6.82984 134.39 7.02606C134.39 7.2223 134.352 7.4167 134.277 7.59808C134.202 7.77947 134.092 7.94428 133.953 8.08307C133.814 8.22186 133.65 8.33189 133.468 8.40686C133.287 8.48182 133.092 8.52024 132.896 8.51991C132.501 8.51689 132.123 8.35853 131.843 8.07903C131.564 7.79953 131.405 7.42132 131.402 7.02606ZM131.703 20.976V9.87625H134.116V20.976H131.703Z" fill="white"/>
<path d="M139.693 20.9776L135.166 9.87939H137.74L140.98 18.1972L144.219 9.87939H146.816L142.289 20.9776H139.693Z" fill="white"/>
<path d="M29.9947 32.0019C29.5942 32.0024 29.2014 31.8921 28.8596 31.6833C28.5177 31.4745 28.2403 31.1752 28.0579 30.8186L15.8742 6.99943L6.7596 25.3762L15.2154 21.701C15.7436 21.4709 16.3416 21.46 16.878 21.6705C17.4143 21.8811 17.845 22.296 18.0756 22.824C18.1894 23.0854 18.2506 23.3666 18.2557 23.6515C18.2608 23.9365 18.2096 24.2197 18.1051 24.4849C18.0006 24.7501 17.8448 24.9921 17.6467 25.197C17.4486 25.402 17.2121 25.5658 16.9506 25.6793L3.03981 31.7259C2.63133 31.9034 2.17822 31.9513 1.74165 31.8631C1.30508 31.7749 0.906088 31.5548 0.59858 31.2326C0.29163 30.9106 0.0912031 30.5019 0.0245044 30.062C-0.0421944 29.6221 0.0280443 29.1724 0.225725 28.7738L13.8987 1.2087C14.0779 0.848586 14.3536 0.545309 14.6951 0.332672C15.0366 0.120035 15.4303 0.00639132 15.8326 0.00439465H15.8456C16.2458 0.00426469 16.6384 0.114625 16.9799 0.323315C17.3214 0.532005 17.5986 0.83092 17.7811 1.18712L31.9291 28.8476C32.0588 29.1014 32.1371 29.3783 32.1597 29.6624C32.1823 29.9465 32.1486 30.2322 32.0607 30.5033C31.9728 30.7744 31.8323 31.0255 31.6472 31.2423C31.4622 31.459 31.2362 31.6372 30.9823 31.7665C30.6769 31.9229 30.3389 32.0044 29.9958 32.0044" fill="#1163FB"/>
</g>
<defs>
<clipPath id="clip0_1763_117">
<rect width="146.815" height="32" fill="white"/>
</clipPath>
</defs>
</svg>
