<svg xmlns="http://www.w3.org/2000/svg" width="292.579" height="63.771" viewBox="0 0 292.579 63.771">
  <g id="Group_104266" data-name="Group 104266" transform="translate(-1746 505)">
    <g id="Group_104265" data-name="Group 104265">
      <g id="Group_301" data-name="Group 301" transform="translate(-279.56 -295)">
        <path id="Path_1203" data-name="Path 1203" d="M2106.145-168.2v-2.381a9.339,9.339,0,0,1-7.144,2.93c-3.617,0-7.692-2.427-7.692-7.326,0-5.083,4.075-7.189,7.692-7.189a9.144,9.144,0,0,1,7.144,2.838v-3.3c0-2.565-2.107-4.122-5.174-4.122a9.06,9.06,0,0,0-6.549,2.793l-1.969-3.342a13.155,13.155,0,0,1,9.3-3.572c4.9,0,9.2,2.06,9.2,8.014V-168.2Zm0-5.037v-3.343a6.476,6.476,0,0,0-5.266-2.29c-2.7,0-4.717,1.558-4.717,3.984,0,2.382,2.015,3.938,4.717,3.938A6.475,6.475,0,0,0,2106.145-173.24Z" fill="#fff"/>
        <path id="Path_1204" data-name="Path 1204" d="M2121.076-171.271v11.494h-4.807V-190.32h4.807v3.022a8.827,8.827,0,0,1,7.1-3.572c5.723,0,9.8,4.3,9.8,11.585s-4.077,11.631-9.8,11.631A8.686,8.686,0,0,1,2121.076-171.271Zm11.906-8.014c0-4.258-2.427-7.326-6.227-7.326a7.18,7.18,0,0,0-5.679,2.976v8.746a7.31,7.31,0,0,0,5.679,2.977C2130.555-171.912,2132.982-174.98,2132.982-179.285Z" fill="#fff"/>
        <path id="Path_1205" data-name="Path 1205" d="M2146.631-171.271v11.494h-4.808V-190.32h4.808v3.022a8.825,8.825,0,0,1,7.1-3.572c5.723,0,9.8,4.3,9.8,11.585s-4.076,11.631-9.8,11.631A8.685,8.685,0,0,1,2146.631-171.271Zm11.906-8.014c0-4.258-2.428-7.326-6.227-7.326a7.179,7.179,0,0,0-5.679,2.976v8.746a7.308,7.308,0,0,0,5.679,2.977C2156.109-171.912,2158.537-174.98,2158.537-179.285Z" fill="#fff"/>
        <path id="Path_1206" data-name="Path 1206" d="M2166.782-196a3,3,0,0,1,2.977-2.976,2.97,2.97,0,0,1,2.976,2.976,2.971,2.971,0,0,1-2.976,2.977A3,3,0,0,1,2166.782-196Zm.6,27.8V-190.32h4.808V-168.2Z" fill="#fff"/>
        <path id="Path_1207" data-name="Path 1207" d="M2192.427-168.2v-13.829c0-3.435-1.74-4.579-4.442-4.579a7.279,7.279,0,0,0-5.678,2.976V-168.2H2177.5V-190.32h4.808v3.022a10.464,10.464,0,0,1,7.784-3.572c4.763,0,7.143,2.564,7.143,7.1V-168.2Z" fill="#fff"/>
        <path id="Path_1208" data-name="Path 1208" d="M2208.365-168.2l-9.021-22.117h5.129l6.457,16.576,6.456-16.576h5.175l-9.022,22.117Z" fill="#fff"/>
        <path id="Path_1209" data-name="Path 1209" d="M2223.3-179.285c0-6.41,4.671-11.585,11.219-11.585,6.639,0,10.9,5.083,10.9,12.043v1.145h-17.08a6.7,6.7,0,0,0,7.052,6.09,9.358,9.358,0,0,0,6.273-2.427l2.2,3.16a12.889,12.889,0,0,1-8.975,3.2C2228.241-167.654,2223.3-172.279,2223.3-179.285Zm11.219-7.647a6.1,6.1,0,0,0-6.228,5.861h12.455A5.915,5.915,0,0,0,2234.515-186.932Z" fill="#fff"/>
        <path id="Path_1210" data-name="Path 1210" d="M2264.19-168.2v-13.829c0-3.435-1.74-4.579-4.441-4.579a7.28,7.28,0,0,0-5.679,2.976V-168.2h-4.807V-190.32h4.807v3.022a10.466,10.466,0,0,1,7.784-3.572c4.763,0,7.144,2.564,7.144,7.1V-168.2Z" fill="#fff"/>
        <path id="Path_1211" data-name="Path 1211" d="M2275.274-173.332v-12.775h-3.663v-4.213h3.663v-6.045h4.809v6.045h4.487v4.213h-4.487v11.585c0,1.511.732,2.61,2.106,2.61a3.108,3.108,0,0,0,2.153-.779l1.144,3.618a6.345,6.345,0,0,1-4.533,1.419C2277.244-167.654,2275.274-169.668,2275.274-173.332Z" fill="#fff"/>
        <path id="Path_1212" data-name="Path 1212" d="M2287.411-196a3,3,0,0,1,2.977-2.976,2.97,2.97,0,0,1,2.976,2.976,2.971,2.971,0,0,1-2.976,2.977A3,3,0,0,1,2287.411-196Zm.6,27.8V-190.32h4.807V-168.2Z" fill="#fff"/>
        <path id="Path_1213" data-name="Path 1213" d="M2303.943-168.2l-9.021-22.117h5.129l6.457,16.576,6.456-16.576h5.175l-9.022,22.117Z" fill="#fff"/>
      </g>
      <path id="Path_1214" data-name="Path 1214" d="M2085.337-146.229a4.33,4.33,0,0,1-3.86-2.358l-24.28-47.468-18.164,36.622,16.851-7.324a4.332,4.332,0,0,1,5.7,2.238,4.321,4.321,0,0,1-2.242,5.69l-27.722,12.05a4.336,4.336,0,0,1-4.865-.983,4.32,4.32,0,0,1-.743-4.9l27.248-54.933a4.329,4.329,0,0,1,3.854-2.4h.026a4.332,4.332,0,0,1,3.857,2.357l28.195,55.123a4.322,4.322,0,0,1-1.887,5.817,4.315,4.315,0,0,1-1.966.474" transform="translate(-279.56 -295)" fill="#1163fb"/>
    </g>
  </g>
</svg>
