<svg width="24" height="24" viewBox="0 0 24 24" fill="none" xmlns="http://www.w3.org/2000/svg">
<path fill-rule="evenodd" clip-rule="evenodd" d="M10.1961 0.408559C10.4573 0.670885 10.6047 1.02586 10.6047 1.39535V4.74419C10.6047 5.11368 10.4573 5.46866 10.1961 5.73098C9.93378 5.99219 9.57992 6.13954 9.20931 6.13954H1.39535C1.02475 6.13954 0.670885 5.99219 0.408559 5.73098C0.147349 5.46866 0 5.11368 0 4.74419V1.39535C0 1.02586 0.147349 0.670885 0.408559 0.408559C0.670885 0.147349 1.02475 0 1.39535 0H9.20931C9.57992 0 9.93378 0.147349 10.1961 0.408559ZM23.5915 18.269C23.8527 18.5314 24 18.8863 24 19.2558V22.6047C24 22.9742 23.8527 23.3291 23.5915 23.5915C23.3291 23.8527 22.9753 24 22.6047 24H14.7907C14.4201 24 14.0663 23.8527 13.8039 23.5915C13.5427 23.3291 13.3954 22.9742 13.3954 22.6047V19.2558C13.3954 18.8863 13.5427 18.5314 13.8039 18.269C14.0663 18.0078 14.4201 17.8605 14.7907 17.8605H22.6047C22.9753 17.8605 23.3291 18.0078 23.5915 18.269ZM9.80095 23.1963L11.4754 21.5219C11.8024 21.1948 11.8024 20.6657 11.4754 20.3386L9.80095 18.6642C9.47499 18.3371 8.94364 18.3371 8.61769 18.6642C8.29062 18.9901 8.29062 19.5215 8.61769 19.8474L9.69936 20.9302L8.61769 22.013C8.29062 22.339 8.29062 22.8703 8.61769 23.1963C8.94364 23.5234 9.47499 23.5234 9.80095 23.1963ZM12.3472 12L13.4289 13.0828C13.7559 13.4088 13.7559 13.9401 13.4289 14.2661C13.1029 14.5931 12.5716 14.5931 12.2456 14.2661L10.5712 12.5917C10.2441 12.2646 10.2441 11.7355 10.5712 11.4084L12.2456 9.73398C12.5716 9.40691 13.1029 9.40691 13.4289 9.73398C13.7559 10.0599 13.7559 10.5913 13.4289 10.9172L12.3472 12ZM21.2093 7.53491C21.2093 9.53864 19.5852 11.1628 17.5814 11.1628H14.8164C14.3543 11.1628 13.9792 11.5379 13.9792 12C13.9792 12.4622 14.3543 12.8372 14.8164 12.8372H17.5814C20.5094 12.8372 22.8838 10.4629 22.8838 7.53491C22.8838 6.1284 22.3256 4.77993 21.331 3.78532C20.3364 2.79072 18.9879 2.23258 17.5814 2.23258H12C11.5379 2.23258 11.1628 2.60765 11.1628 3.06979C11.1628 3.53193 11.5379 3.907 12 3.907H17.5814C18.5437 3.907 19.4668 4.28877 20.1466 4.9697C20.8276 5.64951 21.2093 6.57268 21.2093 7.53491ZM6.41862 11.1628H8.67686C9.139 11.1628 9.51407 11.5379 9.51407 12C9.51407 12.4621 9.139 12.8372 8.67686 12.8372H6.41862C5.45639 12.8372 4.53322 13.219 3.85341 13.8999C3.17248 14.5797 2.79071 15.5029 2.79071 16.4651C2.79071 18.4688 4.4149 20.093 6.41862 20.093C6.88076 20.093 7.25583 20.4681 7.25583 20.9302C7.25583 21.3924 6.88076 21.7675 6.41862 21.7675C3.49062 21.7675 1.11629 19.3931 1.11629 16.4651C1.11629 15.0586 1.67443 13.7101 2.66904 12.7155C3.66364 11.7209 5.01211 11.1628 6.41862 11.1628Z" fill="white"/>
</svg>
