<svg width="24" height="24" viewBox="0 0 24 24" fill="none" xmlns="http://www.w3.org/2000/svg">
<path fill-rule="evenodd" clip-rule="evenodd" d="M15 2.25H12.75V0H11.25V2.25H9V0H7.5V2.25H6C5.00625 2.25 4.05002 2.64525 3.34877 3.34838C2.64377 4.0515 2.25 5.0055 2.25 6V7.5H0V9H2.25V11.25H0V12.75H2.25V15H0V16.5H2.25V18C2.25 18.9945 2.64377 19.9485 3.34877 20.6516C4.05002 21.3547 5.00625 21.75 6 21.75H7.5V24H9V21.75H11.25V24H12.75V21.75H15V24H16.5V21.75H18C18.9937 21.75 19.95 21.3547 20.6512 20.6516C21.3562 19.9485 21.75 18.9945 21.75 18V16.5H24V15H21.75V12.75H24V11.25H21.75V9H24V7.5H21.75V6C21.75 5.0055 21.3562 4.0515 20.6512 3.34838C19.95 2.64525 18.9937 2.25 18 2.25H16.5V0H15V2.25ZM15 7.5V16.5H16.5V7.5H15ZM7.5 10.125V16.5H9V13.875H11.25V16.5H12.75V10.125C12.75 8.67525 11.5763 7.5 10.125 7.5C8.67375 7.5 7.5 8.67525 7.5 10.125ZM11.25 12.375V10.125C11.25 9.50362 10.7475 9 10.125 9C9.5025 9 9 9.50362 9 10.125V12.375H11.25Z" fill="white"/>
</svg>
