<svg width="32" height="32" viewBox="0 0 32 32" fill="none" xmlns="http://www.w3.org/2000/svg">
<path fill-rule="evenodd" clip-rule="evenodd" d="M26.0466 10.0465C26.0466 7.78568 24.2145 5.95349 21.9536 5.95349H10.0466C7.7858 5.95349 5.95361 7.78568 5.95361 10.0465V21.9535C5.95361 24.2143 7.7858 26.0465 10.0466 26.0465H21.9536C24.2145 26.0465 26.0466 24.2143 26.0466 21.9535V10.0465ZM18.9769 13.0233V18.9767C18.9769 19.5929 19.477 20.093 20.0931 20.093C20.7093 20.093 21.2094 19.5929 21.2094 18.9767V13.0233C21.2094 12.4071 20.7093 11.907 20.0931 11.907C19.477 11.907 18.9769 12.4071 18.9769 13.0233ZM17.4885 18.9767V14.5116C17.4885 13.0739 16.3231 11.907 14.8838 11.907H13.3955C11.9562 11.907 10.7908 13.0739 10.7908 14.5116V18.9767C10.7908 19.5929 11.2909 20.093 11.9071 20.093C12.5233 20.093 13.0234 19.5929 13.0234 18.9767V17.8605H15.2559V18.9767C15.2559 19.5929 15.756 20.093 16.3722 20.093C16.9884 20.093 17.4885 19.5929 17.4885 18.9767ZM13.0234 15.6279H15.2559V14.5116C15.2559 14.3062 15.0892 14.1395 14.8838 14.1395H13.3955C13.1901 14.1395 13.0234 14.3062 13.0234 14.5116V15.6279Z" fill="white"/>
<path fill-rule="evenodd" clip-rule="evenodd" d="M24.9302 17.1163H30.8837C31.4999 17.1163 32 16.6162 32 16C32 15.3838 31.4999 14.8837 30.8837 14.8837H24.9302C24.3141 14.8837 23.814 15.3838 23.814 16C23.814 16.6162 24.3141 17.1163 24.9302 17.1163Z" fill="white"/>
<path fill-rule="evenodd" clip-rule="evenodd" d="M17.1163 7.06977V1.11628C17.1163 0.500093 16.6163 0 16.0001 0C15.3839 0 14.8838 0.500093 14.8838 1.11628V7.06977C14.8838 7.68595 15.3839 8.18605 16.0001 8.18605C16.6163 8.18605 17.1163 7.68595 17.1163 7.06977Z" fill="white"/>
<path fill-rule="evenodd" clip-rule="evenodd" d="M14.8838 24.9302V30.8837C14.8838 31.4999 15.3839 32 16.0001 32C16.6163 32 17.1163 31.4999 17.1163 30.8837V24.9302C17.1163 24.314 16.6163 23.8139 16.0001 23.8139C15.3839 23.8139 14.8838 24.314 14.8838 24.9302Z" fill="white"/>
<path fill-rule="evenodd" clip-rule="evenodd" d="M7.06977 14.8837H1.11628C0.500093 14.8837 0 15.3838 0 16C0 16.6162 0.500093 17.1163 1.11628 17.1163H7.06977C7.68595 17.1163 8.18605 16.6162 8.18605 16C8.18605 15.3838 7.68595 14.8837 7.06977 14.8837Z" fill="white"/>
<path fill-rule="evenodd" clip-rule="evenodd" d="M24.9302 12.6512H28.6512C29.2674 12.6512 29.7675 12.1511 29.7675 11.5349C29.7675 10.9187 29.2674 10.4186 28.6512 10.4186H24.9302C24.3141 10.4186 23.814 10.9187 23.814 11.5349C23.814 12.1511 24.3141 12.6512 24.9302 12.6512Z" fill="white"/>
<path fill-rule="evenodd" clip-rule="evenodd" d="M12.651 7.06977V3.34884C12.651 2.73265 12.1509 2.23256 11.5347 2.23256C10.9186 2.23256 10.4185 2.73265 10.4185 3.34884V7.06977C10.4185 7.68595 10.9186 8.18605 11.5347 8.18605C12.1509 8.18605 12.651 7.68595 12.651 7.06977Z" fill="white"/>
<path fill-rule="evenodd" clip-rule="evenodd" d="M10.4185 24.9302V28.6512C10.4185 29.2673 10.9186 29.7674 11.5347 29.7674C12.1509 29.7674 12.651 29.2673 12.651 28.6512V24.9302C12.651 24.314 12.1509 23.8139 11.5347 23.8139C10.9186 23.8139 10.4185 24.314 10.4185 24.9302Z" fill="white"/>
<path fill-rule="evenodd" clip-rule="evenodd" d="M7.06963 10.4186H3.3487C2.73251 10.4186 2.23242 10.9187 2.23242 11.5349C2.23242 12.1511 2.73251 12.6512 3.3487 12.6512H7.06963C7.68582 12.6512 8.18591 12.1511 8.18591 11.5349C8.18591 10.9187 7.68582 10.4186 7.06963 10.4186Z" fill="white"/>
<path fill-rule="evenodd" clip-rule="evenodd" d="M24.9302 21.5814H28.6512C29.2674 21.5814 29.7675 21.0813 29.7675 20.4651C29.7675 19.8489 29.2674 19.3488 28.6512 19.3488H24.9302C24.3141 19.3488 23.814 19.8489 23.814 20.4651C23.814 21.0813 24.3141 21.5814 24.9302 21.5814Z" fill="white"/>
<path fill-rule="evenodd" clip-rule="evenodd" d="M21.5812 7.06977V3.34884C21.5812 2.73265 21.0811 2.23256 20.4649 2.23256C19.8487 2.23256 19.3486 2.73265 19.3486 3.34884V7.06977C19.3486 7.68595 19.8487 8.18605 20.4649 8.18605C21.0811 8.18605 21.5812 7.68595 21.5812 7.06977Z" fill="white"/>
<path fill-rule="evenodd" clip-rule="evenodd" d="M19.3486 24.9302V28.6512C19.3486 29.2673 19.8487 29.7674 20.4649 29.7674C21.0811 29.7674 21.5812 29.2673 21.5812 28.6512V24.9302C21.5812 24.314 21.0811 23.8139 20.4649 23.8139C19.8487 23.8139 19.3486 24.314 19.3486 24.9302Z" fill="white"/>
<path fill-rule="evenodd" clip-rule="evenodd" d="M7.06963 19.3488H3.3487C2.73251 19.3488 2.23242 19.8489 2.23242 20.4651C2.23242 21.0813 2.73251 21.5814 3.3487 21.5814H7.06963C7.68582 21.5814 8.18591 21.0813 8.18591 20.4651C8.18591 19.8489 7.68582 19.3488 7.06963 19.3488Z" fill="white"/>
</svg>
