<svg width="32" height="25" viewBox="0 0 32 25" fill="none" xmlns="http://www.w3.org/2000/svg">
<path fill-rule="evenodd" clip-rule="evenodd" d="M6.85714 10.2714V7.19365C6.85714 7.0188 6.98857 6.87137 7.16229 6.85308L9.088 6.64279C9.21829 6.62908 9.32457 6.53994 9.368 6.41651C9.65486 5.59022 10.0926 4.81422 10.6743 4.13879C10.7589 4.04051 10.7829 3.90337 10.7303 3.78451L9.95314 2.01994C9.88229 1.85994 9.944 1.67251 10.096 1.58451L12.7611 0.0462238C12.9131 -0.0417762 13.1051 -0.000633606 13.2091 0.139938L14.3486 1.69537C14.4251 1.80051 14.5554 1.84851 14.6834 1.82451C15.56 1.65765 16.4503 1.66794 17.3097 1.83251C17.4377 1.85651 17.568 1.80851 17.6457 1.70337L18.7909 0.141081C18.8949 0.000509169 19.0869 -0.0406334 19.2389 0.0473666L21.904 1.58565C22.056 1.67365 22.1166 1.86108 22.0469 2.02108L21.2697 3.7868C21.2171 3.9068 21.24 4.04508 21.3257 4.14451C21.9131 4.82451 22.3429 5.56851 22.6377 6.41765C22.6811 6.54222 22.7886 6.63022 22.92 6.64508L24.8377 6.85537C25.0114 6.87251 25.1429 7.0188 25.1429 7.19365V10.2714C25.1429 10.4462 25.0114 10.5937 24.8377 10.6119L22.912 10.8222C22.7817 10.8359 22.6754 10.9251 22.632 11.0485C22.5906 11.1676 22.5349 11.2807 22.4793 11.3937L22.4792 11.3937L22.4792 11.3938C22.4473 11.4586 22.4154 11.5233 22.3863 11.5891H17.8903C18.8171 10.9765 19.4286 9.92737 19.4286 8.73308C19.4286 6.83937 17.8937 5.30451 16 5.30451C14.1063 5.30451 12.5714 6.83937 12.5714 8.73308C12.5714 9.92737 13.1829 10.9765 14.1086 11.5902H9.608C9.5789 11.5246 9.54724 11.4604 9.51553 11.3961C9.46006 11.2837 9.40446 11.1711 9.36229 11.0497C9.31886 10.9251 9.21143 10.8371 9.08 10.8222L7.16229 10.6119C6.98857 10.5937 6.85714 10.4462 6.85714 10.2714ZM2.85714 22.4474V15.5903H1.14286C0.512 15.5903 0 16.1023 0 16.7331V21.3046C0 21.9354 0.512 22.4474 1.14286 22.4474H2.85714ZM32 16.7331C32 16.1023 31.488 15.5903 30.8571 15.5903H29.1429V22.4474H30.8571C31.488 22.4474 32 21.9354 32 21.3046V16.7331ZM4.57143 15.5903C4.57143 14.3274 5.59429 13.3046 6.85714 13.3046H25.1429C26.4057 13.3046 27.4286 14.3274 27.4286 15.5903V22.4474C27.4286 23.7103 26.4057 24.7331 25.1429 24.7331H20.5829C19.8434 24.7331 19.1349 24.4394 18.6137 23.9171L17.9703 23.2737C16.8823 22.1857 15.1189 22.1857 14.0309 23.2737L13.3874 23.9171C12.864 24.4394 12.1554 24.7331 11.4171 24.7331H6.85714C5.59429 24.7331 4.57143 23.7103 4.57143 22.4474V15.5903ZM17.9429 17.3046C18.1326 17.3046 18.2857 17.1514 18.2857 16.9617V15.9331C18.2857 15.7434 18.1326 15.5903 17.9429 15.5903H14.0571C13.8674 15.5903 13.7143 15.7434 13.7143 15.9331V16.9617C13.7143 17.1514 13.8674 17.3046 14.0571 17.3046H17.9429Z" fill="white"/>
</svg>
