<svg id="type" xmlns="http://www.w3.org/2000/svg" width="93.187" height="19.333" viewBox="0 0 93.187 19.333">
  <path id="Fill_2" data-name="Fill 2" d="M1.656,9.588a.239.239,0,0,1-.045,0C1.4,9.559.951,9.546.771,9.546a4.041,4.041,0,0,0-.59.042H.158A.148.148,0,0,1,0,9.507c-.017-.053.016-.114.088-.163A2.255,2.255,0,0,0,.775,8.262l.034-.08C1.087,7.554,4.01.315,4.069.139,4.111.049,4.159,0,4.206,0s.079.036.109.1c.053.115,3.1,7.64,3.259,8.052.282.666.573,1.1.779,1.173.1.049.162.118.15.176s-.064.078-.163.083H8.282c-.07,0-.158-.007-.257-.015-.143-.011-.321-.024-.521-.024-.257,0-.993.026-1.124.037H6.355c-.068,0-.114-.021-.128-.06-.025-.057.01-.148.091-.236.1-.091.118-.257.049-.519C6.22,8.242,5.6,6.617,5.46,6.335a.332.332,0,0,0-.321-.161c-2.327,0-2.371,0-2.4.012a.531.531,0,0,0-.222.186c-.064.183-.8,2.094-.852,2.2a.657.657,0,0,0,.066.728.2.2,0,0,1,.049.209.128.128,0,0,1-.128.077ZM4.011,2.526h0c-.049,0-.118.073-.153.169-.049.148-.812,2.217-.964,2.557-.024.064-.036.117-.015.148s.061.038.138.038H4.982a.114.114,0,0,0,.1-.044.24.24,0,0,0,0-.2c-.028-.049-.317-.809-.572-1.477-.2-.521-.385-1.012-.428-1.114-.015-.046-.039-.071-.069-.071Z" transform="translate(0 0)" fill="#55524f"/>
  <path id="Fill_4" data-name="Fill 4" d="M.254,9.219C.119,9.155.094,9,.058,8.75.022,8.455.01,8.182,0,7.9a.249.249,0,0,1,.481-.123,1.868,1.868,0,0,0,1.831.987,1.623,1.623,0,0,0,.923-3C2.6,5.3,1.614,4.588,1.084,4.2A2.424,2.424,0,0,1,1.132.562a3.083,3.083,0,0,1,2-.566C3.417,0,4.1.144,4.442.144c.1,0,.321-.025.284.2-.037.344.012.816,0,1,0,.419-.344.456-.531.11a1.4,1.4,0,0,0-1.42-.8A1.359,1.359,0,0,0,2.1,3.153c.393.295,1.991,1.359,2.313,1.63A2.689,2.689,0,0,1,4.05,8.97,4.2,4.2,0,0,1,2,9.5,3.933,3.933,0,0,1,.254,9.219" transform="translate(11.006 0.157)" fill="#55524f"/>
  <path id="Fill_6" data-name="Fill 6" d="M2.044,9.372a7.093,7.093,0,0,0-.9-.024,7.7,7.7,0,0,0-.939.024C0,9.385-.065,9.261.095,9.151.341,9,.5,8.62.465,7.113V.951A.894.894,0,0,0,.154.222C.043.123.08,0,.215,0,.4,0,.833.024,1.142.037,1.45.024,1.833,0,2.017,0c.136,0,.173.123.064.222a.827.827,0,0,0-.3.728c-.049.295-.024,4.606-.024,6.162,0,1.519.161,1.863.393,2.038.186.11.123.234-.111.222" transform="translate(19.542 0.213)" fill="#55524f"/>
  <path id="Fill_8" data-name="Fill 8" d="M1.656,9.588a.239.239,0,0,1-.045,0c-.21-.024-.658-.037-.84-.037a4.053,4.053,0,0,0-.59.042H.158A.148.148,0,0,1,0,9.507c-.017-.053.016-.114.087-.163A2.262,2.262,0,0,0,.777,8.252l.032-.075c.276-.62,3.2-7.86,3.26-8.038C4.111.049,4.16,0,4.207,0s.079.036.109.1c.049.106,3.065,7.556,3.26,8.052.282.667.573,1.106.778,1.173.1.049.161.118.15.176s-.064.078-.163.083H8.282c-.07,0-.158-.007-.257-.015-.143-.011-.321-.024-.521-.024-.254,0-.993.026-1.124.037H6.356c-.068,0-.114-.021-.128-.06-.025-.057.01-.148.092-.236.1-.09.117-.257.049-.519-.145-.529-.762-2.151-.9-2.432a.332.332,0,0,0-.321-.161c-2.326,0-2.37,0-2.4.012a.522.522,0,0,0-.222.186c-.064.188-.806,2.1-.853,2.2a.655.655,0,0,0,.064.728.2.2,0,0,1,.049.209.128.128,0,0,1-.128.077ZM4.011,2.526h0c-.052,0-.118.073-.152.169-.053.157-.82,2.235-.964,2.557-.024.064-.037.117-.015.148s.061.038.138.038H4.983a.115.115,0,0,0,.1-.045.24.24,0,0,0,0-.2c-.028-.049-.317-.809-.572-1.477-.2-.521-.385-1.012-.428-1.114-.015-.046-.039-.071-.07-.071Z" transform="translate(24.293 0)" fill="#55524f"/>
  <path id="Fill_10" data-name="Fill 10" d="M9.234.228C9,.4,8.849.746,8.849,2.241s-.013,6.854-.013,7.125c0,.234-.222.257-.37.111C7.036,8.044,3.851,4.523,1.689,2.241c-.186-.2-.321-.321-.333.049,0,.593.012,3.446.012,4.867-.037,1.494.112,1.852.358,2.025.161.112.112.257-.123.222-.186-.012-.556-.049-.791-.049a2.891,2.891,0,0,0-.593.049c-.234.013-.295-.11-.111-.222C.354,9.023.5,8.615.5,7.146.5,5.9.514,1.959.514.835A.615.615,0,0,0,.208.24C.01.142.133.005.269.005.43.005.54.031.847.042c.309-.012.36-.024.545-.024.136,0,.21.123.246.21A6.494,6.494,0,0,0,2.171.87c.358.393,3.581,3.631,5.556,5.792.21.222.257.161.257-.075L7.934,2.253C7.946.758,7.749.39,7.526.227,7.341.116,7.4-.008,7.637,0a2.557,2.557,0,0,0,.63.037C8.5.041,8.934.03,9.119,0c.234-.037.271.111.111.222" transform="translate(35.397 0.195)" fill="#55524f"/>
  <path id="Fill_12" data-name="Fill 12" d="M2.429,9.414c-.251,0-.584-.015-.878-.029-.229-.011-.428-.02-.544-.02A6.033,6.033,0,0,0,.184,9.4a.292.292,0,0,1-.057.006.117.117,0,0,1-.121-.064.155.155,0,0,1,.076-.161c.231-.154.367-.545.334-2.025C.417,6.1.412,3.648.409,2.189V.968A.942.942,0,0,0,.14.241.153.153,0,0,1,.09.08a.107.107,0,0,1,.1-.063c.087,0,.2.006.329.013.186.01.416.023.671.023C1.329.053,1.5.045,1.7.03,1.951.014,2.235,0,2.516,0A2.377,2.377,0,0,1,3.629.19,1.863,1.863,0,0,1,4.662,1.8,1.916,1.916,0,0,1,3.472,3.834c-.064.019-.107.061-.106.1s.035.064.1.083a2.081,2.081,0,0,1,1.751.935,2.836,2.836,0,0,1,.351,1.482,3.036,3.036,0,0,1-.5,1.728A3.383,3.383,0,0,1,2.429,9.414ZM2.273.6c-.257,0-.745,0-.745.271V7.993a.6.6,0,0,0,.367.63,1.891,1.891,0,0,0,.554.084,1.911,1.911,0,0,0,.835-.2C3.93,8.2,4.338,7.758,4.376,6.5a2.034,2.034,0,0,0-.9-1.851,2.192,2.192,0,0,0-1.018-.308H2.443a.211.211,0,0,1-.209-.2.271.271,0,0,1,.184-.292c.8-.3,1.156-.635,1.156-1.828C3.574,1.077,3.136.6,2.273.6Z" transform="translate(54.034 0.184)" fill="#55524f"/>
  <path id="Fill_14" data-name="Fill 14" d="M1.656,9.588a.239.239,0,0,1-.045,0C1.4,9.559.951,9.546.771,9.546a4.041,4.041,0,0,0-.59.042H.158A.148.148,0,0,1,0,9.507c-.017-.053.016-.114.088-.163A2.255,2.255,0,0,0,.775,8.262l.034-.08C1.087,7.554,4.01.315,4.069.139,4.111.049,4.159,0,4.206,0s.079.036.109.1c.053.115,3.1,7.64,3.259,8.052.282.666.573,1.1.779,1.173.1.049.162.118.15.176s-.064.078-.163.083H8.282c-.07,0-.158-.007-.257-.015-.143-.011-.321-.024-.521-.024-.257,0-.993.026-1.124.037H6.355c-.068,0-.114-.021-.128-.06-.025-.057.01-.148.091-.236.1-.091.118-.257.049-.519C6.22,8.242,5.6,6.617,5.46,6.335a.332.332,0,0,0-.321-.161c-2.327,0-2.371,0-2.4.012a.531.531,0,0,0-.222.186c-.064.183-.8,2.094-.852,2.2a.657.657,0,0,0,.066.728.2.2,0,0,1,.049.209.128.128,0,0,1-.128.077ZM4.011,2.526h0c-.049,0-.118.073-.153.169-.049.148-.812,2.217-.964,2.557-.024.064-.036.117-.015.148s.061.038.138.038H4.982a.114.114,0,0,0,.1-.044.24.24,0,0,0,0-.2c-.028-.049-.317-.809-.572-1.477-.2-.521-.385-1.012-.428-1.114-.015-.046-.039-.071-.069-.071Z" transform="translate(61.88 0)" fill="#55524f"/>
  <path id="Fill_16" data-name="Fill 16" d="M9.237.228C9,.4,8.852.746,8.852,2.241s-.012,6.854-.012,7.125c0,.234-.222.257-.371.111C7.039,8.044,3.853,4.523,1.692,2.241c-.185-.2-.321-.321-.333.049,0,.593.012,3.446.012,4.867-.037,1.494.111,1.852.358,2.025.161.112.111.257-.123.222-.185-.012-.556-.049-.791-.049a2.891,2.891,0,0,0-.59.049c-.234.013-.295-.11-.112-.222.246-.161.393-.568.393-2.038,0-1.246.01-5.187.01-6.311A.615.615,0,0,0,.21.24C.012.142.136.005.272.005.433.005.543.031.85.042,1.158.031,1.21.018,1.4.018c.136,0,.21.123.246.21A6.354,6.354,0,0,0,2.173.87c.358.393,3.581,3.631,5.556,5.792.209.222.257.161.257-.075L7.937,2.253C7.95.758,7.751.39,7.529.227,7.344.116,7.406-.008,7.641,0a2.557,2.557,0,0,0,.63.037C8.5.041,8.936.03,9.122,0c.235-.037.272.111.112.222" transform="translate(72.981 0.195)" fill="#55524f"/>
  <path id="Fill_18" data-name="Fill 18" d="M7.064,9.361c-.112.012-.642.037-1.075.049a1.12,1.12,0,0,1-1.028-.491C4.74,8.61,2.282,5.251,2.183,5.129c-.123-.148-.234-.309-.358-.222-.087.064-.087.086-.087.257-.013.692,0,1.433,0,1.964.012,1.506.123,1.877.37,2.05.161.111.124.235-.111.222a7.58,7.58,0,0,0-.939-.037A6.4,6.4,0,0,0,.195,9.4c-.21.013-.272-.111-.11-.222.246-.148.407-.556.37-2.05C.459,5.584.447,1.261.447.953A.934.934,0,0,0,.15.21C.039.123.076,0,.213,0c.184,0,.54.024.851.024S1.817,0,2,0c.136,0,.173.123.064.21a.928.928,0,0,0-.311.741c-.012.344-.012,1.47-.012,2.964,0,.136.074.161.2.024C2.557,3.272,4.35.852,4.534.568c.135-.234.037-.556.309-.556.173,0,.556.012.692.012.161,0,.617,0,.7-.012.136-.012.148.173.013.271A4.425,4.425,0,0,0,5.423.9c-.287.321-1.828,2.248-2.406,2.966-.136.173-.1.186-.013.284.578.741,2.7,3.656,3.063,4.088.234.284.531.8.976.84.21.012.21.272.025.284" transform="translate(85.983 0.213)" fill="#55524f"/>
  <path id="Fill_20" data-name="Fill 20" d="M1.433,4.53A1.315,1.315,0,0,1,0,3.274,1.573,1.573,0,0,1,.967,1.919,1.686,1.686,0,0,1,.567.863.913.913,0,0,1,1.486,0H1.5A.854.854,0,0,1,2.441.8c0,.6-.339.835-.731,1.1A16.908,16.908,0,0,0,2.96,3.256a0,0,0,0,1,0,0l.006.007v.005a.02.02,0,0,0,.015.012q.014,0,.037-.031a1.043,1.043,0,0,0,.1-.9.6.6,0,0,0-.363-.4.1.1,0,0,1-.073-.09.109.109,0,0,1,.073-.1.562.562,0,0,1,.215-.036h.056a.619.619,0,0,1,.621.417,1.413,1.413,0,0,1-.367,1.413c.1.093.177.163.242.224.1.1.177.166.295.265a.885.885,0,0,0,.548.257.086.086,0,0,1,.087.078.1.1,0,0,1-.058.106,2.732,2.732,0,0,1-.45.041.528.528,0,0,0-.084,0c-.044,0-.09.005-.137.005a.757.757,0,0,1-.5-.169.139.139,0,0,1,.024.024h0a2.908,2.908,0,0,1-.4-.355,1.788,1.788,0,0,1-1.421.507ZM1.18,2.2a1.071,1.071,0,0,0-.572.937.956.956,0,0,0,1.02,1.02H1.65a1.357,1.357,0,0,0,.928-.389c-.34-.321-.8-.867-1.176-1.307h0ZM1.469.309c-.257.018-.385.2-.385.531a1.234,1.234,0,0,0,.385.807.9.9,0,0,0,.418-.8c0-.375-.128-.541-.412-.541Z" transform="translate(4.669 14.777)" fill="#55524f"/>
  <path id="Fill_22" data-name="Fill 22" d="M3.454.8C3.312.425,2.882.331,2.422.331A1.653,1.653,0,0,0,.706,2.183C.706,3.789,1.738,4.2,2.345,4.2a1.77,1.77,0,0,0,1.268-.389c.083-.083.182-.089.148.058-.035.118-.03.231-.076.385s-.089.137-.165.165a5.268,5.268,0,0,1-1.192.145A2.225,2.225,0,0,1,0,2.253,2.287,2.287,0,0,1,2.493-.005c.333,0,1.2.07,1.15.277C3.619.39,3.613.6,3.589.8c0,.1-.094.1-.136.006" transform="translate(15.91 14.76)" fill="#55524f"/>
  <path id="Fill_24" data-name="Fill 24" d="M.788,4.58H.77c-.1-.013-.313-.019-.4-.019a1.8,1.8,0,0,0-.283.019H.074A.071.071,0,0,1,0,4.538c-.008-.026.008-.055.042-.078a1.082,1.082,0,0,0,.328-.514l.015-.041C.513,3.621,1.911.157,1.942.064,1.962.021,1.985,0,2.006,0s.038.018.052.049C2.1.128,3.6,3.861,3.617,3.893c.134.321.274.527.371.561.049.022.076.056.072.084s-.032.037-.077.04H3.956c-.033,0-.073-.005-.123-.005-.069-.005-.154-.012-.251-.012-.12,0-.472.012-.537.019H3.034a.065.065,0,0,1-.064-.03.133.133,0,0,1,.044-.114c.049-.043.056-.124.024-.246-.07-.257-.364-1.031-.431-1.163a.16.16,0,0,0-.15-.077c-1.111,0-1.131,0-1.143.006a.246.246,0,0,0-.106.089c-.03.084-.385,1-.407,1.05a.313.313,0,0,0,.029.348.1.1,0,0,1,.024.1.064.064,0,0,1-.066.04ZM1.916,1.206h0c-.028,0-.058.041-.073.081-.024.075-.39,1.062-.46,1.221-.012.032-.017.056-.007.071s.029.018.064.018h.935a.055.055,0,0,0,.049-.021.121.121,0,0,0,0-.1c-.013-.024-.159-.405-.287-.741-.093-.24-.174-.45-.193-.5-.006-.02-.019-.034-.032-.034Z" transform="translate(22.292 14.7)" fill="#55524f"/>
  <path id="Fill_26" data-name="Fill 26" d="M2.6,1.1A1.221,1.221,0,0,1,1.2,2.341.125.125,0,0,1,1.193,2.1c.041-.017.049.007.112-.012.525-.091.662-.385.649-.945A.793.793,0,0,0,1.215.278c-.159,0-.4.006-.4.124V3.563a.928.928,0,0,0,.321.82c.076.053.059.141-.053.124-.064,0-.393-.036-.491-.036h0c-.064,0-.378.018-.5.03-.1.017-.128-.053-.053-.107.118-.071.2-.272.177-.992V.461A.433.433,0,0,0,.078.113C.028.072.042.007.107.007.219.007.4.03.632.024A3.646,3.646,0,0,1,1.927.09,1.045,1.045,0,0,1,2.6,1.1" transform="translate(29.293 14.79)" fill="#55524f"/>
  <path id="Fill_28" data-name="Fill 28" d="M.977,4.474a3.276,3.276,0,0,0-.43-.012A3.552,3.552,0,0,0,.1,4.474c-.1.006-.13-.053-.054-.106.118-.071.2-.253.177-.973V.454A.43.43,0,0,0,.077.106C.022.059.039,0,.1,0c.09,0,.3.012.443.018S.877,0,.965,0c.064,0,.083.059.03.106A.4.4,0,0,0,.853.455C.83.6.842,2.654.842,3.4c0,.725.076.89.188.973.089.053.06.112-.053.107" transform="translate(35.007 14.803)" fill="#55524f"/>
  <path id="Fill_30" data-name="Fill 30" d="M3.19.081c0,.182.022.394.022.507,0,.071-.1.071-.141.03A.973.973,0,0,0,2.464.361,2.008,2.008,0,0,0,2.029.334C1.9.346,1.923.463,1.916.58V3.4c0,.719.064.926.177,1,.088.053.059.112-.053.107a3.135,3.135,0,0,0-.425-.018,3.321,3.321,0,0,0-.437.018c-.1.006-.128-.054-.053-.107.124-.076.182-.257.182-.978,0-.755.006-2.7.006-2.837S1.3.334,1.215.334A2.741,2.741,0,0,0,.749.358.879.879,0,0,0,.142.615C.1.659,0,.659,0,.589,0,.476.024.263.024.081c0-.094.049-.089.111-.071a4.425,4.425,0,0,0,.95.036H2.128A4.411,4.411,0,0,0,3.078.009c.064-.017.112-.022.112.071" transform="translate(38.921 14.775)" fill="#55524f"/>
  <path id="Fill_32" data-name="Fill 32" d="M.788,4.58H.77c-.1-.013-.313-.019-.4-.019a1.819,1.819,0,0,0-.283.019H.074A.071.071,0,0,1,0,4.538c-.008-.026.008-.055.042-.078a1.076,1.076,0,0,0,.326-.514l.017-.041C.513,3.613,1.912.154,1.941.064,1.961.021,1.985,0,2.006,0s.038.018.052.049C2.086.109,3.538,3.7,3.616,3.893c.135.321.274.527.372.561.049.022.076.056.072.083s-.032.038-.078.041H3.955c-.033,0-.073-.005-.122-.005-.069-.005-.155-.012-.251-.012-.119,0-.471.012-.536.019H3.034a.065.065,0,0,1-.064-.03.134.134,0,0,1,.043-.114c.049-.043.057-.124.024-.246A12.129,12.129,0,0,0,2.606,3.03a.158.158,0,0,0-.15-.079c-1.111,0-1.131,0-1.145.006a.246.246,0,0,0-.106.089c-.031.088-.385,1-.407,1.05a.314.314,0,0,0,.03.348.1.1,0,0,1,.024.1A.064.064,0,0,1,.788,4.58ZM1.916,1.206h0c-.028,0-.058.041-.073.081-.025.076-.393,1.066-.46,1.221-.012.032-.017.056-.007.07s.029.018.064.018h.935a.055.055,0,0,0,.049-.021.121.121,0,0,0,0-.1c-.012-.022-.14-.362-.263-.689-.1-.257-.193-.5-.211-.55-.007-.022-.019-.034-.033-.034Z" transform="translate(44.172 14.7)" fill="#55524f"/>
  <path id="Fill_34" data-name="Fill 34" d="M2.641,3.774c-.006.118-.064.454-.089.59-.024.094-.064.112-.153.112-.064,0-.908-.018-1.2-.018-.071,0-1.032.018-1.092.018h0c-.1.005-.128-.06-.053-.112.224-.177.171-.689.171-.967V.454A.373.373,0,0,0,.075.106C.023.058.04,0,.1,0c.09,0,.207.012.354.012S.842,0,.93,0c.064,0,.083.058.03.106A.428.428,0,0,0,.812.455V3.276c0,.231.006.413.018.548a.317.317,0,0,0,.289.272,1.763,1.763,0,0,0,.81-.039A1.268,1.268,0,0,0,2.5,3.733c.064-.071.165-.053.148.041" transform="translate(51.122 14.808)" fill="#55524f"/>
  <path id="Fill_36" data-name="Fill 36" d="M3.191.081c0,.182.021.394.021.507,0,.071-.1.071-.141.03A.974.974,0,0,0,2.463.361,2.008,2.008,0,0,0,2.029.334C1.9.346,1.923.463,1.916.58V3.4c0,.719.064.926.177,1,.089.053.059.112-.053.107a3.135,3.135,0,0,0-.425-.018,3.317,3.317,0,0,0-.437.018c-.1.006-.128-.054-.053-.107.124-.076.183-.257.183-.978,0-.755.006-2.7.006-2.837S1.3.334,1.215.334A2.744,2.744,0,0,0,.749.358.88.88,0,0,0,.142.615C.1.659,0,.659,0,.589,0,.476.024.263.024.081c0-.094.046-.089.111-.071a4.415,4.415,0,0,0,.949.036H2.129A4.4,4.4,0,0,0,3.078.009c.064-.017.112-.022.112.071" transform="translate(60.42 14.775)" fill="#55524f"/>
  <path id="Fill_38" data-name="Fill 38" d="M3.265,4.469a3.716,3.716,0,0,1-.554.024.635.635,0,0,1-.566-.364c-.19-.33-.908-1.721-.935-1.763-.07-.128-.029-.236.041-.254.041-.006.118-.03.148-.03.454-.136.613-.443.6-.949A.824.824,0,0,0,1.213.271C1.042.271.827.277.812.4c0,2.235.005,2.99.005,3.261.018.472.177.666.271.73.076.053.059.124-.053.107-.064,0-.271-.03-.36-.03-.07,0-.46.012-.578.03S-.032,4.44.043,4.387c.124-.076.177-.254.177-.973S.216.6.216.454A.45.45,0,0,0,.075.106C.021.058.039,0,.1,0,.216,0,.411.023.629.017a4.792,4.792,0,0,1,1.31.077,1.131,1.131,0,0,1,.7,1,1.1,1.1,0,0,1-.689,1.1c-.041.018-.148.036-.094.106A19.709,19.709,0,0,0,2.895,4.069.532.532,0,0,0,3.26,4.3c.083,0,.1.154.006.171" transform="translate(66.449 14.797)" fill="#55524f"/>
  <path id="Fill_40" data-name="Fill 40" d="M3.828,4.494c-.089-.006-.128-.018-.242-.018-.041,0-.271.018-.337.018-.118.017-.135-.171-.135-.355,0-.053-.041-.053-.083-.012a2.306,2.306,0,0,1-1.345.385A1.786,1.786,0,0,1,.625,4.224a1.63,1.63,0,0,1-.454-1.3C.171,2.218.178.56.178.461A.468.468,0,0,0,.036.106C-.029.058,0,0,.064,0s.28.017.42.023S.8,0,.873,0,.956.058.9.106A.474.474,0,0,0,.767.461V2.9c0,1.191.926,1.426,1.776,1.12.224-.082.572-.4.572-.678V.46A.408.408,0,0,0,2.961.106C2.908.058,2.932,0,3,0s.3.017.45.023S3.733,0,3.822,0c.064,0,.083.058.03.106A.458.458,0,0,0,3.71.461V3.419c0,.678.059.885.171.967.077.054.049.112-.053.107" transform="translate(72.739 14.797)" fill="#55524f"/>
  <path id="Fill_42" data-name="Fill 42" d="M.122,4.4C.057,4.373.048,4.3.028,4.174S0,3.906,0,3.771a.119.119,0,0,1,.23-.058.893.893,0,0,0,.873.472.775.775,0,0,0,.439-1.433C1.24,2.533.77,2.191.513,2.008A1.156,1.156,0,0,1,.539.269,1.47,1.47,0,0,1,1.5,0c.135,0,.46.071.625.071.049,0,.154-.013.136.094-.018.165.006.389,0,.477,0,.2-.165.219-.254.053A.668.668,0,0,0,1.325.308.649.649,0,0,0,1,1.506c.189.141.949.649,1.1.779a1.285,1.285,0,0,1-.171,2,2,2,0,0,1-.98.253A1.874,1.874,0,0,1,.118,4.4" transform="translate(80.057 14.776)" fill="#55524f"/>
  <path id="Fill_44" data-name="Fill 44" d="M3.191.081c0,.182.021.394.021.507,0,.071-.1.071-.141.03A.974.974,0,0,0,2.463.361,2.008,2.008,0,0,0,2.029.334C1.9.346,1.923.463,1.916.58V3.4c0,.719.064.926.177,1,.089.053.059.112-.053.107a3.135,3.135,0,0,0-.425-.018,3.317,3.317,0,0,0-.437.018c-.1.006-.128-.054-.053-.107.124-.076.183-.257.183-.978,0-.755.006-2.7.006-2.837S1.3.334,1.215.334A2.744,2.744,0,0,0,.749.358.88.88,0,0,0,.142.615C.1.659,0,.659,0,.589,0,.476.024.263.024.081c0-.094.046-.089.111-.071a4.415,4.415,0,0,0,.949.036H2.129A4.4,4.4,0,0,0,3.078.009c.064-.017.112-.022.112.071" transform="translate(85.302 14.775)" fill="#55524f"/>
</svg>
