<svg width="24" height="24" viewBox="0 0 24 24" fill="none" xmlns="http://www.w3.org/2000/svg">
<path fill-rule="evenodd" clip-rule="evenodd" d="M23.9096 3.90234C22.706 1.49497 20.2864 0 17.5952 0H15.1344C11.8753 0 8.8058 1.23214 6.45829 3.47712L4.17229 3.80358C1.7938 4.14342 0 6.21093 0 8.61328V9.42857C0 9.90234 0.38379 10.2857 0.857143 10.2857H2.72942C3.08438 11.2813 4.0269 12 5.14286 12C6.2588 12 7.20138 11.2813 7.55634 10.2857H16.4437C16.7987 11.2813 17.7412 12 18.8571 12C20.0497 12 21.046 11.18 21.3356 10.077L23.4141 9.38421C23.764 9.26785 24 8.94057 24 8.57143V4.28571C24 4.15262 23.9691 4.0212 23.9096 3.90234ZM21.5132 3.42857H16.5264L16.9549 1.71429H17.5952C19.1168 1.71429 20.5187 2.35024 21.5132 3.42857ZM15.1879 1.71429L14.7593 3.42857H9.28883C11.0185 2.31692 13.0286 1.71429 15.1344 1.71429H15.1879ZM5.14286 10.2857C4.67034 10.2857 4.28571 9.90151 4.28571 9.42857C4.28571 8.95564 4.67034 8.57143 5.14286 8.57143C5.61538 8.57143 6 8.95564 6 9.42857C6 9.90151 5.61538 10.2857 5.14286 10.2857ZM18.8571 10.2857C18.3846 10.2857 18 9.90151 18 9.42857C18 8.95564 18.3846 8.57143 18.8571 8.57143C19.3296 8.57143 19.7143 8.95564 19.7143 9.42857C19.7143 9.90151 19.3296 10.2857 18.8571 10.2857ZM21.1703 8.32564C20.7559 7.46044 19.8789 6.85714 18.8571 6.85714C17.7412 6.85714 16.7986 7.57585 16.4437 8.57143H7.55634C7.20138 7.57585 6.2588 6.85714 5.14286 6.85714C4.0269 6.85714 3.08434 7.57585 2.72936 8.57143H1.7147C1.73521 7.0346 2.88867 5.71875 4.41462 5.50111L6.91998 5.14286H22.2857V7.95369L21.1703 8.32564ZM20.5712 12.8575C20.0979 12.8575 19.7141 13.2409 19.7141 13.7147V15.429H18.6322C18.2412 15.429 17.8997 15.6935 17.8023 16.0719C17.6616 16.616 17.4474 17.1349 17.1645 17.6137C16.9651 17.9502 17.0196 18.3795 17.2962 18.6558L18.061 19.4209L16.8484 20.6329L16.0838 19.8678C15.8075 19.5917 15.3795 19.5389 15.042 19.7355C14.562 20.0193 14.043 20.2345 13.4994 20.3751C13.121 20.473 12.857 20.8137 12.857 21.2046V22.286H11.1427V21.2046C11.1427 20.8137 10.8786 20.473 10.5002 20.3751C9.95655 20.2345 9.43759 20.0193 8.95753 19.7355C8.62021 19.5372 8.19164 19.5917 7.91582 19.8678L7.15117 20.6329L5.9387 19.4209L6.70335 18.6558C6.97999 18.3795 7.0344 17.9502 6.83519 17.6137C6.55227 17.1349 6.33798 16.616 6.19735 16.0719C6.09984 15.6935 5.75832 15.429 5.36742 15.429H4.28552V13.7147C4.28552 13.2409 3.90174 12.8575 3.42837 12.8575C2.95502 12.8575 2.57123 13.2409 2.57123 13.7147V16.286C2.57123 16.7598 2.95502 17.1433 3.42837 17.1433H4.73335C4.82374 17.3985 4.92711 17.648 5.04305 17.8916L4.12062 18.8148C3.7858 19.1497 3.7858 19.6921 4.12062 20.0269L6.54515 22.4511C6.86657 22.7724 7.43576 22.7724 7.75719 22.4511L8.68005 21.5286C8.92364 21.6441 9.17349 21.7479 9.42837 21.8382V23.1433C9.42837 23.617 9.81216 24.0003 10.2855 24.0003H13.7141C14.1875 24.0003 14.5712 23.617 14.5712 23.1433V21.8382C14.8262 21.7479 15.0759 21.6441 15.3196 21.5286L16.2425 22.4511C16.4031 22.6117 16.6212 22.7021 16.8484 22.7021C17.0757 22.7021 17.2938 22.6117 17.4545 22.4511L19.879 20.0269C20.2138 19.6921 20.2138 19.1497 19.879 18.8148L18.9566 17.8916C19.0725 17.648 19.1758 17.3985 19.2663 17.1433H20.5712C21.0446 17.1433 21.4284 16.7598 21.4284 16.286V13.7147C21.4284 13.2409 21.0446 12.8575 20.5712 12.8575ZM15.4284 14.571C15.4284 16.462 13.8903 17.9997 11.9998 17.9997C10.1093 17.9997 8.57123 16.462 8.57123 14.571C8.57123 12.6801 10.1093 11.1425 11.9998 11.1425C13.8903 11.1425 15.4284 12.6801 15.4284 14.571ZM13.7141 14.571C13.7141 13.626 12.9453 12.8568 11.9998 12.8568C11.0544 12.8568 10.2855 13.626 10.2855 14.571C10.2855 15.5161 11.0544 16.2854 11.9998 16.2854C12.9453 16.2854 13.7141 15.5161 13.7141 14.571Z" fill="white"/>
</svg>
