<svg width="20" height="20" viewBox="0 0 20 20" fill="none" xmlns="http://www.w3.org/2000/svg">
<g clip-path="url(#clip0_12169_527)">
<path fill-rule="evenodd" clip-rule="evenodd" d="M1.13271 13.8696C1.40062 14.1376 1.76398 14.288 2.14287 14.288H2.85412V14.2865C2.85412 13.1022 3.81419 12.1421 4.99849 12.1421C6.18279 12.1421 7.14287 13.1022 7.14287 14.2865V14.288H12.8541V14.2865C12.8541 13.1022 13.8142 12.1421 14.9984 12.1421C16.1829 12.1421 17.1429 13.1022 17.1429 14.2865V14.288H17.8572C18.236 14.288 18.5994 14.1376 18.8673 13.8696C19.1352 13.6018 19.2857 13.2383 19.2857 12.8595V10.0024C19.2857 9.62347 19.1352 9.26012 18.8673 8.9922C18.5994 8.72429 18.236 8.57379 17.8572 8.57379H15L13.9714 5.2595C13.872 4.96382 13.6786 4.70879 13.4206 4.53338C13.1627 4.35796 12.8544 4.27182 12.5429 4.28808H6.81429C6.50277 4.27182 6.19449 4.35796 5.93654 4.53338C5.67857 4.70879 5.48512 4.96382 5.38572 5.2595L4.28572 8.57379H2.14287C1.76398 8.57379 1.40062 8.72429 1.13271 8.9922C0.864804 9.26012 0.714294 9.62347 0.714294 10.0024V12.8595C0.714294 13.2383 0.864804 13.6018 1.13271 13.8696Z" fill="#ECF3FF"/>
<path d="M14.9984 16.4309C13.8142 16.4309 12.8541 15.4707 12.8541 14.2864C12.8541 13.1021 13.8142 12.1421 14.9984 12.1421C16.1829 12.1421 17.1429 13.1021 17.1429 14.2864C17.1429 15.4707 16.1829 16.4309 14.9984 16.4309Z" fill="white"/>
<path d="M4.9985 16.4309C3.8142 16.4309 2.85413 15.4707 2.85413 14.2864C2.85413 13.1021 3.8142 12.1421 4.9985 12.1421C6.1828 12.1421 7.14287 13.1021 7.14287 14.2864C7.14287 15.4707 6.1828 16.4309 4.9985 16.4309Z" fill="white"/>
<path d="M14.9984 16.4309C13.8142 16.4309 12.8541 15.4707 12.8541 14.2864C12.8541 13.1021 13.8142 12.1421 14.9984 12.1421C16.1829 12.1421 17.1429 13.1021 17.1429 14.2864C17.1429 15.4707 16.1829 16.4309 14.9984 16.4309Z" stroke="#1163FB" stroke-width="1.5" stroke-linecap="round" stroke-linejoin="round"/>
<path d="M4.9985 16.4309C3.8142 16.4309 2.85413 15.4707 2.85413 14.2864C2.85413 13.1021 3.8142 12.1421 4.9985 12.1421C6.1828 12.1421 7.14287 13.1021 7.14287 14.2864C7.14287 15.4707 6.1828 16.4309 4.9985 16.4309Z" stroke="#1163FB" stroke-width="1.5" stroke-linecap="round" stroke-linejoin="round"/>
<path d="M2.85715 14.288H2.14287C1.76398 14.288 1.40062 14.1376 1.13271 13.8696C0.864804 13.6018 0.714294 13.2383 0.714294 12.8595V10.0024C0.714294 9.62347 0.864804 9.26012 1.13271 8.9922C1.40062 8.72429 1.76398 8.57379 2.14287 8.57379H4.28572L5.38572 5.2595C5.48512 4.96382 5.67858 4.70879 5.93654 4.53338C6.19449 4.35796 6.50277 4.27182 6.81429 4.28808H12.5429C12.8544 4.27182 13.1627 4.35796 13.4206 4.53338C13.6786 4.70879 13.872 4.96382 13.9714 5.2595L15 8.57379H17.8572C18.236 8.57379 18.5994 8.72429 18.8673 8.9922C19.1352 9.26012 19.2857 9.62347 19.2857 10.0024V12.8595C19.2857 13.2383 19.1352 13.6018 18.8673 13.8696C18.5994 14.1376 18.236 14.288 17.8572 14.288H17.1429" stroke="#1163FB" stroke-width="1.5" stroke-linecap="round" stroke-linejoin="round"/>
<path d="M12.8542 14.2881H7.14291" stroke="#1163FB" stroke-width="1.5" stroke-linecap="round" stroke-linejoin="round"/>
</g>
<defs>
<clipPath id="clip0_12169_527">
<rect width="20" height="20" fill="white"/>
</clipPath>
</defs>
</svg>
