<svg xmlns="http://www.w3.org/2000/svg" width="24.111" height="22.082" viewBox="0 0 24.111 22.082">
  <g id="Group_103742" data-name="Group 103742" transform="translate(-1301.998 -4740.282)">
    <g id="Group_997" data-name="Group 997" transform="translate(1301.998 4740.282)">
      <path id="Path_1503" data-name="Path 1503" d="M2668.372,626.356a4.727,4.727,0,0,0-2.81-2.781c-1.317-.364-2.749.069-4.252,1.286-3.907,3.163-11.976,9.876-12.057,9.943a.991.991,0,1,0,1.268,1.524c.081-.068,8.139-6.772,12.037-9.927a3.133,3.133,0,0,1,2.469-.918,2.209,2.209,0,0,1,1.162.951l-6.011,4.855a.986.986,0,0,0-.306.425l-4.652,12.48a.991.991,0,1,0,1.857.692l4.557-12.227,6.431-5.193a.992.992,0,0,0,.305-1.111Z" transform="translate(-2644.321 -623.45)" fill="#fff"/>
      <path id="Path_1504" data-name="Path 1504" d="M2645.841,659.5a.992.992,0,0,0-1.394-.148l-6.99,5.645-2.809-6.477a.991.991,0,1,0-1.818.789l3.327,7.674a.992.992,0,0,0,.673.566.971.971,0,0,0,.237.029.993.993,0,0,0,.623-.22l8-6.464a.99.99,0,0,0,.146-1.392Z" transform="translate(-2632.747 -648.159)" fill="#fff"/>
    </g>
  </g>
</svg>
