<svg width="20" height="20" viewBox="0 0 20 20" fill="none" xmlns="http://www.w3.org/2000/svg">
<g clip-path="url(#clip0_12176_1004)">
<path d="M1.15712 5.39993L3.11427 4.77136C3.24584 4.73033 3.38697 4.7317 3.51772 4.77529C3.64847 4.81887 3.76219 4.90246 3.84284 5.01422L5.18569 7.14279L12.5571 3.47136C13.1384 3.1305 13.787 2.92066 14.4577 2.85649C15.1286 2.79232 15.8051 2.87537 16.4406 3.09984C17.0758 3.32432 17.6546 3.68479 18.136 4.1561C18.6176 4.6274 18.9904 5.19816 19.2286 5.8285C19.3268 6.14677 19.2947 6.491 19.1394 6.78563C18.984 7.08027 18.7181 7.3012 18.4 7.39993L13.5571 8.97136L13.0714 9.1285L12.1571 12.2571C12.1293 12.3652 12.0739 12.4641 11.9962 12.5443C11.9186 12.6245 11.8214 12.683 11.7143 12.7142L9.51427 13.4285C9.39881 13.4784 9.27187 13.4956 9.14731 13.4782C9.02275 13.4607 8.90538 13.4094 8.80804 13.3298C8.71071 13.2501 8.63714 13.1452 8.59541 13.0266C8.55367 12.908 8.54537 12.7801 8.57141 12.6571L9.02855 10.4285L8.71427 10.5285L3.98569 12.0571C3.83289 12.1137 3.67035 12.1395 3.50752 12.1327C3.34469 12.1259 3.18484 12.0869 3.03727 12.0177C2.88969 11.9486 2.75734 11.8508 2.64794 11.73C2.53852 11.6092 2.45424 11.4679 2.39998 11.3142L0.742835 6.17136C0.698018 6.01416 0.716209 5.84566 0.793553 5.70164C0.870898 5.55763 1.00131 5.4494 1.15712 5.39993Z" fill="#ECF3FF"/>
<path d="M1.15712 5.39993L3.11427 4.77136C3.24584 4.73033 3.38697 4.7317 3.51772 4.77529C3.64847 4.81887 3.76219 4.90246 3.84284 5.01422L5.18569 7.14279L12.5571 3.47136C13.1384 3.1305 13.787 2.92066 14.4577 2.85649C15.1286 2.79232 15.8051 2.87537 16.4406 3.09984C17.0758 3.32432 17.6546 3.68479 18.136 4.1561C18.6176 4.6274 18.9904 5.19816 19.2286 5.8285C19.3268 6.14677 19.2947 6.491 19.1394 6.78563C18.984 7.08027 18.7181 7.3012 18.4 7.39993L13.5571 8.97136L13.0714 9.1285L12.1571 12.2571C12.1293 12.3652 12.0739 12.4641 11.9962 12.5443C11.9186 12.6245 11.8214 12.683 11.7143 12.7142L9.51427 13.4285C9.39881 13.4784 9.27187 13.4956 9.14731 13.4782C9.02275 13.4607 8.90538 13.4094 8.80804 13.3298C8.71071 13.2501 8.63714 13.1452 8.59541 13.0266C8.55367 12.908 8.54537 12.7801 8.57141 12.6571L9.02855 10.4285L8.71427 10.5285L3.98569 12.0571C3.83289 12.1137 3.67035 12.1395 3.50752 12.1327C3.34469 12.1259 3.18484 12.0869 3.03727 12.0177C2.88969 11.9486 2.75734 11.8508 2.64794 11.73C2.53852 11.6092 2.45424 11.4679 2.39998 11.3142L0.742835 6.17136C0.698018 6.01416 0.716209 5.84566 0.793553 5.70164C0.870898 5.55763 1.00131 5.4494 1.15712 5.39993Z" stroke="#1163FB" stroke-width="1.5" stroke-linecap="round" stroke-linejoin="round"/>
<path d="M19.2857 19.2856H0.714294" stroke="#1163FB" stroke-width="1.5" stroke-linecap="round" stroke-linejoin="round"/>
</g>
<defs>
<clipPath id="clip0_12176_1004">
<rect width="20" height="20" fill="white"/>
</clipPath>
</defs>
</svg>
