<svg id="aws" xmlns="http://www.w3.org/2000/svg" width="112.871" height="67.485" viewBox="0 0 112.871 67.485">
  <path id="Path_75554" data-name="Path 75554" d="M38.853,24.493a12.326,12.326,0,0,0,.4,3.335,24.635,24.635,0,0,0,1.191,2.7,1.6,1.6,0,0,1,.278.873A1.5,1.5,0,0,1,40,32.512L37.622,34.1a1.5,1.5,0,0,1-2.1-.159,10.857,10.857,0,0,1-1.35-1.747c-.357-.635-.754-1.35-1.151-2.223a13.838,13.838,0,0,1-11.036,5.161,10.342,10.342,0,0,1-7.5-2.7A9.69,9.69,0,0,1,11.7,25.208a9.651,9.651,0,0,1,3.414-7.741c2.3-1.945,5.319-2.938,9.21-2.938a28.084,28.084,0,0,1,3.97.318c1.389.2,2.818.476,4.327.834V12.941c0-2.858-.6-4.843-1.747-5.994C29.683,5.8,27.658,5.24,24.76,5.24a18.149,18.149,0,0,0-4.049.476,34.281,34.281,0,0,0-4.049,1.27,8,8,0,0,1-1.31.476,2.206,2.206,0,0,1-.6.119c-.516,0-.794-.357-.794-1.151V4.6a2.3,2.3,0,0,1,.278-1.31A2.9,2.9,0,0,1,15.273,2.5,18.689,18.689,0,0,1,20,.794,23.043,23.043,0,0,1,25.832.079c4.486,0,7.741,1.032,9.845,3.057,2.064,2.025,3.1,5.121,3.1,9.249V24.533h.079ZM23.609,30.21a12.5,12.5,0,0,0,3.851-.675,8.208,8.208,0,0,0,3.573-2.422,6.177,6.177,0,0,0,1.27-2.422,12.942,12.942,0,0,0,.357-3.255V19.849a29.655,29.655,0,0,0-3.454-.635,26.861,26.861,0,0,0-3.533-.238c-2.5,0-4.367.476-5.6,1.508a5.254,5.254,0,0,0-1.826,4.327,4.9,4.9,0,0,0,5.359,5.4Zm30.13,4.049A2.289,2.289,0,0,1,52.31,33.9a3.1,3.1,0,0,1-.794-1.469L42.743,3.414a6.18,6.18,0,0,1-.357-1.508A.847.847,0,0,1,43.3.953h3.692a2.267,2.267,0,0,1,1.469.357,3.113,3.113,0,0,1,.754,1.469l6.272,24.89,5.835-24.85a2.643,2.643,0,0,1,.715-1.469A2.56,2.56,0,0,1,63.544.992h3.017a2.478,2.478,0,0,1,1.508.357,2.533,2.533,0,0,1,.715,1.469L74.7,27.947,81.21,2.818a3.273,3.273,0,0,1,.754-1.469A2.423,2.423,0,0,1,83.433.992h3.493a.858.858,0,0,1,.953.953,3.523,3.523,0,0,1-.079.6,5.44,5.44,0,0,1-.278.953L78.471,32.512a2.908,2.908,0,0,1-.794,1.469,2.369,2.369,0,0,1-1.429.357H73.032a2.478,2.478,0,0,1-1.508-.357,2.671,2.671,0,0,1-.715-1.508L64.974,8.257l-5.8,24.176a2.956,2.956,0,0,1-.715,1.508,2.3,2.3,0,0,1-1.508.357H53.739Zm48.232,1.032a25.973,25.973,0,0,1-5.8-.675,17.289,17.289,0,0,1-4.327-1.508A2.726,2.726,0,0,1,90.7,32.075a2.586,2.586,0,0,1-.238-1.032V29.138c0-.794.318-1.151.873-1.151a2.016,2.016,0,0,1,.675.119c.238.079.556.238.953.357a19.3,19.3,0,0,0,4.129,1.31,21.48,21.48,0,0,0,4.486.437,10,10,0,0,0,5.478-1.231A4.058,4.058,0,0,0,109,25.406a3.69,3.69,0,0,0-1.032-2.62,9.322,9.322,0,0,0-3.771-1.945l-5.439-1.747a11.56,11.56,0,0,1-5.994-3.811A9.019,9.019,0,0,1,90.9,9.845a8.319,8.319,0,0,1,1.032-4.168,10.08,10.08,0,0,1,2.7-3.1A11.556,11.556,0,0,1,98.518.635,16.569,16.569,0,0,1,103.242,0a17.269,17.269,0,0,1,2.5.159c.873.119,1.667.278,2.422.4.754.2,1.469.357,2.144.6a9.037,9.037,0,0,1,1.588.675,3.025,3.025,0,0,1,1.112.953,1.97,1.97,0,0,1,.357,1.231V5.756c0,.794-.318,1.191-.873,1.191a4.178,4.178,0,0,1-1.429-.437,16.909,16.909,0,0,0-7.225-1.469,10.212,10.212,0,0,0-5,1.032,3.617,3.617,0,0,0-1.747,3.335,3.538,3.538,0,0,0,1.112,2.66,11.211,11.211,0,0,0,4.129,2.064l5.319,1.707a11.623,11.623,0,0,1,5.835,3.612,8.3,8.3,0,0,1,1.707,5.24,9.689,9.689,0,0,1-.992,4.367,9.985,9.985,0,0,1-2.739,3.295,11.463,11.463,0,0,1-4.168,2.1A16.25,16.25,0,0,1,101.971,35.291Z" transform="translate(-7.036)" fill="#fff"/>
  <path id="Path_75555" data-name="Path 75555" d="M101.992,117.421c-12.346,9.13-30.289,13.973-45.731,13.973A82.648,82.648,0,0,1,.447,110.117c-1.151-1.032-.119-2.461,1.27-1.667a112.35,112.35,0,0,0,55.854,14.807,111.806,111.806,0,0,0,42.6-8.694C102.27,113.65,104.017,115.913,101.992,117.421Zm5.161-5.835c-1.588-2.025-10.44-.992-14.45-.476-1.191.159-1.389-.913-.318-1.707,7.066-4.962,18.658-3.533,20.007-1.866,1.35,1.707-.357,13.3-6.987,18.856-1.032.873-1.985.4-1.548-.715C105.366,121.947,108.7,113.57,107.153,111.586Z" transform="translate(0.049 -63.909)" fill="#f90"/>
</svg>
