<svg id="Layer_2" data-name="Layer 2" xmlns="http://www.w3.org/2000/svg" width="93.824" height="59.992" viewBox="0 0 93.824 59.992">
  <g id="Layer_1" data-name="Layer 1" transform="translate(0 0)">
    <path id="Path_14778" data-name="Path 14778" d="M246.52,139.007a2.749,2.749,0,0,1-1.811,1.664,5.714,5.714,0,0,1-3.412-.106.312.312,0,0,1-.26-.334v-1.4a3.628,3.628,0,0,0,2.478.733,2.089,2.089,0,0,0,.667-.136.773.773,0,0,0,.209-1.385,2.334,2.334,0,0,0-.733-.366,9.437,9.437,0,0,1-1.5-.638,2,2,0,0,1-.081-3.555,4.6,4.6,0,0,1,3.76-.308c.29.081.246.293.242.5,0,.334.114.784-.055.964s-.531-.187-.828-.257a2.9,2.9,0,0,0-1.854.033.781.781,0,0,0-.051,1.466c.334.154.674.286,1.019.414a3.022,3.022,0,0,1,2.2,2.012Z" transform="translate(-152.697 -84.204)" fill="#0078d3"/>
    <path id="Path_14779" data-name="Path 14779" d="M52.662,139.832a2.716,2.716,0,0,1-1.554,1.154,2.558,2.558,0,0,1-3.408-2.565c-.088-1.609-.022-3.225-.033-4.838,0-.227.073-.29.3-.3,1.466-.106,1.444-.11,1.466,1.323,0,1.173,0,2.349.044,3.522a1.411,1.411,0,0,0,1.334,1.539,1.671,1.671,0,0,0,1.832-1.327,3.4,3.4,0,0,0,.088-.777v-3.892c0-.3.084-.367.367-.388,1.385-.033,1.382-.044,1.382,1.334V140.4c0,.388-.088.564-.491.487a1.025,1.025,0,0,0-.158,0c-.366,0-.762.1-1.026-.059S52.772,140.224,52.662,139.832Z" transform="translate(-30.188 -84.403)" fill="#0078d3"/>
    <path id="Path_14780" data-name="Path 14780" d="M31.309,134.673c-1.158,0-2.2-.018-3.262,0-.4,0-.506-.114-.5-.5,0-.876,0-.876.894-.876h4.629c.205,0,.513-.143.6.128a.88.88,0,0,1-.15.839c-.557.733-1.1,1.466-1.635,2.2l-2.269,3.064c1.246,0,2.393.022,3.544,0,.425,0,.528.121.517.528-.026.854,0,.854-.861.854h-5.1c-.568,0-.733-.3-.443-.8a7.661,7.661,0,0,1,.462-.638l3.244-4.336C31.079,135,31.163,134.878,31.309,134.673Z" transform="translate(-17.192 -84.415)" fill="#0078d3"/>
    <path id="Path_14781" data-name="Path 14781" d="M168.737,139.314c.6-1.833,1.224-3.687,1.832-5.549.1-.323.22-.517.6-.462.44.062,1.03-.191,1.275.121.143.18-.231.781-.388,1.187-.755,1.957-1.517,3.911-2.261,5.864-.114.3-.238.436-.586.432-1.466,0-1.466,0-1.979-1.371-.7-1.92-1.4-3.841-2.122-5.754-.147-.392-.1-.495.345-.491,1.389,0,1.389,0,1.81,1.327Z" transform="translate(-104.552 -84.42)" fill="#0078d3"/>
    <path id="Path_14782" data-name="Path 14782" d="M73.141,134.524c.421-.817.861-1.4,1.708-1.521s.957,0,.957.806v.158c0,.227.07.528-.044.663s-.4-.077-.616-.1a1.576,1.576,0,0,0-1.5.685,2.932,2.932,0,0,0-.517,1.789c0,1.1-.018,2.177,0,3.262,0,.367-.114.458-.473.458-1.3,0-1.3,0-1.3-1.312v-5.791c0-.429.132-.52.531-.517C73.112,133.128,73.112,133.113,73.141,134.524Z" transform="translate(-45.207 -84.229)" fill="#0078d3"/>
    <path id="Path_14783" data-name="Path 14783" d="M196.684,129.225a4.746,4.746,0,0,0-3.009-4.4,5.144,5.144,0,0,0-5.552.949,5.636,5.636,0,0,0-1.62,4.816,4.715,4.715,0,0,0,2.914,4.449,5.163,5.163,0,0,0,5.578-.8,5.373,5.373,0,0,0,1.693-4.358C196.687,129.68,196.706,129.449,196.684,129.225Zm-1.986,2.137a3.116,3.116,0,0,1-2.877,2.565,3.038,3.038,0,0,1-3.189-2.2,5.087,5.087,0,0,1,.165-3.793,3.071,3.071,0,0,1,3.185-1.832,3.02,3.02,0,0,1,2.7,2.481,9.164,9.164,0,0,1,.158,1.466A10.264,10.264,0,0,1,194.7,131.362Z" transform="translate(-118.136 -78.813)" fill="#0078d3"/>
    <path id="Path_14784" data-name="Path 14784" d="M127.086,129.808a4.438,4.438,0,0,0-3.753-4.523,26.727,26.727,0,0,0-4.926-.205c-.367,0-.275.238-.275.429v9.734c0,.345.051.5.447.484.964-.029,1.928,0,2.892,0a6.157,6.157,0,0,0,3.379-.993A5.276,5.276,0,0,0,127.086,129.808Zm-1.942,1.466a3.357,3.357,0,0,1-3.042,2.877c-.594.07-1.187.07-1.781.088-.337,0-.41-.117-.407-.425v-6.78c0-.323.1-.432.418-.418a12.637,12.637,0,0,1,2.353.128,2.965,2.965,0,0,1,2.459,2.595,5.864,5.864,0,0,1,0,1.935Z" transform="translate(-74.831 -79.227)" fill="#0078d3"/>
    <path id="Path_14785" data-name="Path 14785" d="M6.531,126.479c-.176-.476-.242-1.121-.59-1.367s-.979-.048-1.466-.1c-.388-.037-.542.128-.671.473-.715,1.957-1.466,3.9-2.2,5.864C1.074,132.776.546,134.2,0,135.671c.557,0,1.067-.022,1.569,0a.443.443,0,0,0,.52-.367c.209-.667.451-1.327.656-1.994a.451.451,0,0,1,.52-.366q1.682.029,3.368,0a.458.458,0,0,1,.52.366c.224.682.48,1.352.707,2.03.07.205.143.33.392.323h1.69C8.8,132.541,7.66,129.51,6.531,126.479ZM3.647,131.5c-.366,0-.238-.191-.176-.367l1.294-3.779.172-.517L6.546,131.5c-1.015,0-1.957,0-2.9,0Z" transform="translate(0 -79.175)" fill="#0078d3"/>
    <path id="Path_14786" data-name="Path 14786" d="M225.571,135.119a2.74,2.74,0,0,0-2.2-2.2,2.884,2.884,0,0,0-3.064,1.143c-.048.066-.081.161-.194.125-.029-1.154-.029-1.154-1.195-1.151h-.051c-.4-.073-.491.1-.487.487V142.9c0,1.246,0,1.231,1.264,1.242.367,0,.469-.1.465-.469-.022-1.327,0-2.653,0-4.1a3.442,3.442,0,0,0,1.121.986,3.126,3.126,0,0,0,4.116-1.675A5.567,5.567,0,0,0,225.571,135.119Zm-1.895,3.119a1.8,1.8,0,0,1-2.118,1.143,1.891,1.891,0,0,1-1.466-1.832c0-.209,0-.421,0-.733a2.91,2.91,0,0,1,.282-1.547,1.9,1.9,0,0,1,1.9-1.041,1.8,1.8,0,0,1,1.587,1.466,3.991,3.991,0,0,1-.2,2.544Z" transform="translate(-138.344 -84.146)" fill="#0078d3"/>
    <path id="Path_14787" data-name="Path 14787" d="M147.243,137.31h3.628c1.209,0,1.2,0,1.136-1.195a3.16,3.16,0,0,0-2.39-3.185,3.588,3.588,0,0,0-4.031,1.763,4.034,4.034,0,0,0,5.666,5.556.366.366,0,0,0,.183-.345v-1.151a5.226,5.226,0,0,1-1.686.671,2.257,2.257,0,0,1-2.862-1.7C146.844,137.4,146.921,137.3,147.243,137.31Zm1.77-3.141a1.664,1.664,0,0,1,1.319,1.668c0,.227-.121.249-.3.249h-2.884c-.136,0-.3.029-.257-.205a1.923,1.923,0,0,1,2.14-1.715Z" transform="translate(-91.902 -84.138)" fill="#0078d3"/>
    <path id="Path_14788" data-name="Path 14788" d="M86.783,137.294c1.158.026,2.313,0,3.471,0,1.3,0,1.3,0,1.209-1.323a3.178,3.178,0,0,0-2.1-2.987,3.6,3.6,0,0,0-3.863,1.074,4.787,4.787,0,0,0-.227,5.41,2.822,2.822,0,0,0,1.5,1.1,5.424,5.424,0,0,0,3.793-.257c.161-.07.33-.132.33-.367V138.7a4.182,4.182,0,0,1-1.675.693,2.264,2.264,0,0,1-2.833-1.6C86.288,137.426,86.347,137.272,86.783,137.294Zm-.41-1.488a1.957,1.957,0,0,1,1.708-1.664,1.624,1.624,0,0,1,1.712,1.7c-.018.242-.147.235-.308.235H86.6C86.394,136.073,86.336,136.018,86.372,135.806Z" transform="translate(-53.556 -84.125)" fill="#0078d3"/>
    <path id="Path_14789" data-name="Path 14789" d="M110.909,21.97c3.016-.561,6.036-1.1,9.042-1.693.689-.136.652.191.649.66V44.755a1.374,1.374,0,0,1-.55,1.231q-4.42,3.6-8.8,7.257a1.33,1.33,0,0,1-1.466.275c-4.526-1.554-9.118-3.064-13.689-4.589-.282-.092-.564-.18-.905-.286v4.863c-.235.121-.315-.029-.407-.139L84.242,40.907a2.593,2.593,0,0,1-.194-.3.213.213,0,0,1,.044-.3,1.857,1.857,0,0,1,1.33-.106L109,43.5a5.745,5.745,0,0,0,.733.077.473.473,0,0,0,.535-.484c.026-.3.018-.608.018-.913V23.755a4.534,4.534,0,0,1,.106-1.466C110.462,22.047,110.711,22.05,110.909,21.97Z" transform="translate(-53.218 -12.822)" fill="#0078d3"/>
    <path id="Path_14790" data-name="Path 14790" d="M76.281,26.645v-11.5c0-.641.169-.869.821-.99,8.477-1.591,16.943-3.222,25.417-4.834a4.149,4.149,0,0,1,.542-.033l.367-.15c-.418.07-.671-.227-.957-.436Q96.846,4.6,91.22.492c-.315-.205-.542-.542-.964-.5,0,1.1-.026,2.2.033,3.3a1.025,1.025,0,0,1-.8,1.18C85.33,6.066,81.185,7.708,77.033,9.313A3.057,3.057,0,0,0,75.6,10.372c-1.14,1.536-2.309,3.049-3.463,4.574q0,5.41.026,10.819c0,.366-.092.733.2,1.034.92.169,1.833.319,2.756.509.484.1,1.045.022,1.407.487l.018-.231C76.19,27.327,76.281,26.968,76.281,26.645Z" transform="translate(-45.701 0.011)" fill="#0078d3"/>
  </g>
</svg>
