<svg width="32" height="29" viewBox="0 0 32 29" fill="none" xmlns="http://www.w3.org/2000/svg">
<path d="M19.4289 13.008C19.4336 13.1347 19.389 13.2583 19.3045 13.3528C19.22 13.4473 19.1022 13.5054 18.9757 13.5149H15.0454C14.9187 13.5196 14.7951 13.475 14.7006 13.3905C14.6061 13.306 14.548 13.1882 14.5384 13.0617V10.1281C14.5337 10.0005 14.5788 9.87613 14.6643 9.78134C14.7498 9.68655 14.8689 9.62883 14.9963 9.62046H18.9246C19.0508 9.61576 19.1739 9.65991 19.2684 9.74372C19.3628 9.82752 19.4213 9.94452 19.4316 10.0704L19.4289 13.008Z" fill="#76BC2D"/>
<path d="M26.4147 15.9817C26.4193 16.1084 26.3747 16.2319 26.2902 16.3265C26.2057 16.421 26.0879 16.4791 25.9614 16.4886H22.0278C21.9011 16.4933 21.7775 16.4487 21.683 16.3642C21.5885 16.2797 21.5304 16.1618 21.5208 16.0354V13.1157C21.5162 12.989 21.5608 12.8654 21.6453 12.7709C21.7298 12.6764 21.8476 12.6183 21.9741 12.6087H25.9084C26.0351 12.6041 26.1586 12.6487 26.2532 12.7332C26.3477 12.8177 26.4058 12.9355 26.4153 13.0619L26.4147 15.9817Z" fill="#76BC2D"/>
<path d="M19.4289 18.9928C19.4336 19.1195 19.389 19.2431 19.3045 19.3376C19.22 19.4322 19.1022 19.4903 18.9757 19.4998H15.0454C14.9187 19.5045 14.7951 19.4598 14.7006 19.3753C14.6061 19.2908 14.548 19.173 14.5384 19.0466V16.1129C14.5337 15.9854 14.5788 15.861 14.6643 15.7662C14.7498 15.6714 14.8689 15.6137 14.9963 15.6053H18.9246C19.0513 15.6007 19.1749 15.6453 19.2694 15.7298C19.3639 15.8143 19.4221 15.9321 19.4316 16.0585L19.4289 18.9928Z" fill="#76BC2D"/>
<path d="M12.4483 10.033C12.454 10.1549 12.4121 10.2743 12.3313 10.3658C12.2506 10.4573 12.1374 10.5138 12.0157 10.5234H7.9679C7.84444 10.5284 7.72362 10.4866 7.62962 10.4064C7.53563 10.3262 7.47538 10.2134 7.46094 10.0907V7.04891C7.46558 6.92905 7.514 6.81504 7.59703 6.72846C7.68005 6.64189 7.79194 6.58875 7.9115 6.5791H11.8425C12.2552 6.5791 12.4437 6.7868 12.4437 7.08607L12.4483 10.033Z" fill="#86D633"/>
<path d="M12.447 15.9809C12.4573 16.1051 12.4179 16.2282 12.3374 16.3233C12.2568 16.4184 12.1419 16.4776 12.0177 16.4879H7.96595C7.83654 16.4924 7.7106 16.4455 7.61563 16.3575C7.52065 16.2695 7.46434 16.1475 7.45899 16.0181C7.45899 16.0181 7.45899 15.9909 7.45899 15.9809V13.0075C7.45863 12.8836 7.50516 12.7642 7.58924 12.6732C7.67331 12.5823 7.78869 12.5265 7.9122 12.5171H11.8432C12.2559 12.5171 12.4444 12.7248 12.4444 13.0075L12.447 15.9809Z" fill="#76BC2D"/>
<path d="M12.4475 21.9872C12.4569 22.1108 12.417 22.2331 12.3366 22.3274C12.2562 22.4218 12.1417 22.4805 12.0182 22.4908H7.96642C7.83972 22.4955 7.71614 22.4509 7.62162 22.3663C7.52709 22.2818 7.46898 22.164 7.45945 22.0376V18.9938C7.45669 18.932 7.46615 18.8703 7.48728 18.8122C7.50842 18.7541 7.54081 18.7008 7.58261 18.6552C7.6244 18.6097 7.67478 18.5728 7.73085 18.5468C7.78692 18.5207 7.84758 18.506 7.90935 18.5034H11.8437C12.2564 18.5034 12.4449 18.6912 12.4449 18.9938L12.4475 21.9872Z" fill="#76BC2D"/>
<path d="M1.0572 0H3.48387V6.7777C3.48387 6.92272 3.42626 7.0618 3.32372 7.16434C3.22118 7.26688 3.0821 7.32449 2.93709 7.32449H0.532311C0.390073 7.32034 0.255055 7.26091 0.155933 7.15881C0.0568109 7.05672 0.00139501 6.92 0.00145538 6.7777V1.12807C-0.0132583 0.845551 0.0840575 0.568632 0.272276 0.35743C0.460495 0.146228 0.724423 0.0177898 1.00676 0L1.0572 0Z" fill="#999999"/>
<path opacity="0.5" d="M1.0572 0H3.48387V6.7777C3.48387 6.92272 3.42626 7.0618 3.32372 7.16434C3.22118 7.26688 3.0821 7.32449 2.93709 7.32449H0.532311C0.390073 7.32034 0.255055 7.26091 0.155933 7.15881C0.0568109 7.05672 0.00139501 6.92 0.00145538 6.7777V1.12807C-0.0132583 0.845551 0.0840575 0.568632 0.272276 0.35743C0.460495 0.146228 0.724423 0.0177898 1.00676 0L1.0572 0Z" fill="#999999"/>
<path d="M28.4827 8.19803e-07H30.9074C31.0486 -0.000173601 31.1884 0.0274858 31.3189 0.0813973C31.4494 0.135309 31.568 0.214415 31.6679 0.314192C31.7678 0.413969 31.8471 0.532461 31.9011 0.66289C31.9552 0.793319 31.9831 0.933127 31.9831 1.07432V6.71467C31.9824 6.85911 31.9245 6.9974 31.8222 7.09935C31.7199 7.2013 31.5814 7.25862 31.4369 7.25879H29.0103C28.8658 7.25792 28.7276 7.19992 28.6258 7.09748C28.5239 6.99503 28.4668 6.85645 28.4668 6.71201V8.19803e-07H28.4827Z" fill="#999999"/>
<path opacity="0.5" d="M28.4827 8.19803e-07H30.9074C31.0486 -0.000173601 31.1884 0.0274858 31.3189 0.0813973C31.4494 0.135309 31.568 0.214415 31.6679 0.314192C31.7678 0.413969 31.8471 0.532461 31.9011 0.66289C31.9552 0.793319 31.9831 0.933127 31.9831 1.07432V6.71467C31.9824 6.85911 31.9245 6.9974 31.8222 7.09935C31.7199 7.2013 31.5814 7.25862 31.4369 7.25879H29.0103C28.8658 7.25792 28.7276 7.19992 28.6258 7.09748C28.5239 6.99503 28.4668 6.85645 28.4668 6.71201V8.19803e-07H28.4827Z" fill="#999999"/>
<path d="M31.9841 1.07432V3.42336H1.20324e-08V1.07432C-4.21254e-05 0.792583 0.110591 0.522104 0.308064 0.321155C0.505537 0.120207 0.774045 0.00487254 1.05574 0L30.931 0C31.2122 0.0055597 31.4801 0.121196 31.677 0.322071C31.8739 0.522946 31.9841 0.793034 31.9841 1.07432Z" fill="#949494"/>
<path d="M0.530855 21.1748H2.95753C3.10255 21.1748 3.24162 21.2324 3.34417 21.335C3.44671 21.4375 3.50431 21.5766 3.50431 21.7216V28.4993H1.05574C0.774159 28.4944 0.505751 28.3792 0.308297 28.1784C0.110842 27.9776 0.000131829 27.7073 0 27.4256V21.628C0.0217954 21.5025 0.0867716 21.3884 0.1837 21.3057C0.280629 21.2229 0.40342 21.1766 0.530855 21.1748Z" fill="#999999"/>
<path opacity="0.5" d="M0.530855 21.1748H2.95753C3.10255 21.1748 3.24162 21.2324 3.34417 21.335C3.44671 21.4375 3.50431 21.5766 3.50431 21.7216V28.4993H1.05574C0.774159 28.4944 0.505751 28.3792 0.308297 28.1784C0.110842 27.9776 0.000131829 27.7073 0 27.4256V21.628C0.0217954 21.5025 0.0867716 21.3884 0.1837 21.3057C0.280629 21.2229 0.40342 21.1766 0.530855 21.1748Z" fill="#999999"/>
<path d="M29.0093 21.1748H31.4353C31.5803 21.1748 31.7194 21.2324 31.8219 21.335C31.9245 21.4375 31.9821 21.5766 31.9821 21.7216V27.3672C31.9821 27.6522 31.8689 27.9254 31.6674 28.1269C31.466 28.3284 31.1927 28.4416 30.9078 28.4416H28.4824V21.628C28.5042 21.5025 28.5692 21.3884 28.6661 21.3057C28.7631 21.2229 28.8858 21.1766 29.0133 21.1748H29.0093Z" fill="#999999"/>
<path opacity="0.5" d="M29.0093 21.1748H31.4353C31.5803 21.1748 31.7194 21.2324 31.8219 21.335C31.9245 21.4375 31.9821 21.5766 31.9821 21.7216V27.3672C31.9821 27.6522 31.8689 27.9254 31.6674 28.1269C31.466 28.3284 31.1927 28.4416 30.9078 28.4416H28.4824V21.628C28.5042 21.5025 28.5692 21.3884 28.6661 21.3057C28.7631 21.2229 28.8858 21.1766 29.0133 21.1748H29.0093Z" fill="#999999"/>
<path d="M1.20324e-08 27.4254V25.0757H32V27.4254C32 27.7103 31.8868 27.9836 31.6853 28.185C31.4839 28.3865 31.2106 28.4997 30.9257 28.4997H1.05574C0.774045 28.4948 0.505537 28.3795 0.308064 28.1786C0.110591 27.9776 -4.21254e-05 27.7071 1.20324e-08 27.4254Z" fill="#949494"/>
</svg>
