<svg id="Layer_2" data-name="Layer 2" xmlns="http://www.w3.org/2000/svg" xmlns:xlink="http://www.w3.org/1999/xlink" width="110.925" height="89.692" viewBox="0 0 110.925 89.692">
  <defs>
    <radialGradient id="radial-gradient" cx="0.495" cy="0.489" r="0.504" gradientTransform="matrix(1, 0, 0, -0.99, 0, 6.563)" gradientUnits="objectBoundingBox">
      <stop offset="0.18" stop-color="#5ea0ef"/>
      <stop offset="1" stop-color="#0078d4"/>
    </radialGradient>
    <clipPath id="clip-path">
      <path id="Path_14559" data-name="Path 14559" d="M106.911,39.027A25.81,25.81,0,1,1,75.81,19.9h0A25.81,25.81,0,0,1,106.911,39.027Z" transform="translate(-55.988 -19.192)" fill="none"/>
    </clipPath>
  </defs>
  <g id="Layer_1" data-name="Layer 1" transform="translate(0 0)">
    <path id="Path_14541" data-name="Path 14541" d="M9.113,169.791H7.334L6.457,167.3H2.616l-.847,2.491H0L3.657,160H5.481Zm-3.084-3.812-1.355-3.9a4.58,4.58,0,0,1-.13-.588h-.03a3.985,3.985,0,0,1-.135.613l-1.34,3.872Z" transform="translate(0 -80.278)" fill="#465154"/>
    <path id="Path_14542" data-name="Path 14542" d="M25.634,166.333l-3.767,5.082h3.752v1.231H19.64v-.593l3.847-5.152H20V165.67h5.635Z" transform="translate(-9.854 -83.123)" fill="#465154"/>
    <path id="Path_14543" data-name="Path 14543" d="M40.088,172.616H38.509v-1.1h-.025a2.277,2.277,0,0,1-2.143,1.276q-2.491,0-2.491-2.99v-4.17h1.579v3.986q0,1.878,1.45,1.878a1.465,1.465,0,0,0,1.156-.5,1.993,1.993,0,0,0,.453-1.355V165.63h1.579Z" transform="translate(-16.984 -83.103)" fill="#465154"/>
    <path id="Path_14544" data-name="Path 14544" d="M54.166,167.027a1.311,1.311,0,0,0-.822-.224,1.41,1.41,0,0,0-1.171.633,2.835,2.835,0,0,0-.468,1.724V172.5H50.12v-6.976H51.7v1.435h.025a2.431,2.431,0,0,1,.713-1.146,1.6,1.6,0,0,1,1.071-.414,1.335,1.335,0,0,1,.653.13Z" transform="translate(-25.147 -82.985)" fill="#465154"/>
    <path id="Path_14545" data-name="Path 14545" d="M65.885,169.391H61.132a1.993,1.993,0,0,0,.6,1.495,2.217,2.217,0,0,0,1.565.523,3.448,3.448,0,0,0,2.053-.668v1.276a4.688,4.688,0,0,1-2.521.6,3.119,3.119,0,0,1-2.417-.952,3.8,3.8,0,0,1-.877-2.676,3.717,3.717,0,0,1,.962-2.656,3.154,3.154,0,0,1,2.4-1.026,2.75,2.75,0,0,1,2.212.922,3.817,3.817,0,0,1,.782,2.556Zm-1.525-1.116a2.038,2.038,0,0,0-.4-1.325,1.34,1.34,0,0,0-1.091-.5,1.535,1.535,0,0,0-1.156.5,2.272,2.272,0,0,0-.583,1.3Z" transform="translate(-29.866 -82.938)" fill="#465154"/>
    <path id="Path_14546" data-name="Path 14546" d="M89.529,169.249a5.925,5.925,0,0,1-2.725.583,4.484,4.484,0,0,1-3.408-1.34,4.888,4.888,0,0,1-1.281-3.523,5.127,5.127,0,0,1,1.44-3.787,4.928,4.928,0,0,1,3.642-1.445,5.979,5.979,0,0,1,2.352.4v1.609a4.2,4.2,0,0,0-2.177-.588,3.418,3.418,0,0,0-2.571,1,3.727,3.727,0,0,0-1,2.711,3.558,3.558,0,0,0,.922,2.571,3.2,3.2,0,0,0,2.417.957,4.33,4.33,0,0,0,2.387-.648Z" transform="translate(-41.198 -80.144)" fill="#465154"/>
    <path id="Path_14547" data-name="Path 14547" d="M102.624,172.618a3.458,3.458,0,0,1-2.576-1,3.533,3.533,0,0,1-.962-2.591A3.443,3.443,0,0,1,102.8,165.3a3.348,3.348,0,0,1,2.546.962,3.712,3.712,0,0,1,.912,2.666,3.657,3.657,0,0,1-1,2.676A3.537,3.537,0,0,1,102.624,172.618Zm.075-6.044a1.8,1.8,0,0,0-1.465.648,2.711,2.711,0,0,0-.538,1.784,2.551,2.551,0,0,0,.543,1.729,1.829,1.829,0,0,0,1.46.628,1.739,1.739,0,0,0,1.435-.618,2.745,2.745,0,0,0,.5-1.764,2.785,2.785,0,0,0-.5-1.779,1.729,1.729,0,0,0-1.435-.638Z" transform="translate(-49.709 -82.93)" fill="#465154"/>
    <path id="Path_14548" data-name="Path 14548" d="M115.669,172.245V170.78a3.154,3.154,0,0,0,1.953.673q1.43,0,1.43-.847a.668.668,0,0,0-.125-.4,1.171,1.171,0,0,0-.329-.294,2.62,2.62,0,0,0-.5-.229l-.628-.229a6.66,6.66,0,0,1-.772-.359,2.322,2.322,0,0,1-.573-.434,1.624,1.624,0,0,1-.344-.548,1.993,1.993,0,0,1-.115-.718,1.649,1.649,0,0,1,.239-.887,2.068,2.068,0,0,1,.643-.648,3.069,3.069,0,0,1,.912-.394,4.183,4.183,0,0,1,1.056-.135,4.8,4.8,0,0,1,1.729.294v1.385a2.915,2.915,0,0,0-1.689-.5,2.2,2.2,0,0,0-.543.06,1.4,1.4,0,0,0-.414.169.827.827,0,0,0-.264.264.623.623,0,0,0-.095.339.718.718,0,0,0,.095.384.858.858,0,0,0,.284.274,2.422,2.422,0,0,0,.448.219l.6.214a8.843,8.843,0,0,1,.807.374,2.734,2.734,0,0,1,.608.433,1.7,1.7,0,0,1,.389.558,1.9,1.9,0,0,1,.135.752,1.719,1.719,0,0,1-.244.927,2.048,2.048,0,0,1-.653.653,3.063,3.063,0,0,1-.942.384,4.894,4.894,0,0,1-1.126.125,4.748,4.748,0,0,1-1.978-.394Z" transform="translate(-58.036 -82.951)" fill="#465154"/>
    <path id="Path_14549" data-name="Path 14549" d="M138.789,172.419h-1.579v-3.812a3.08,3.08,0,0,0-.309-1.589,1.141,1.141,0,0,0-1.046-.5,1.261,1.261,0,0,0-1.051.618,2.526,2.526,0,0,0-.433,1.495V172.4H132.78v-3.931q0-1.948-1.375-1.948a1.241,1.241,0,0,0-1.051.588,2.581,2.581,0,0,0-.414,1.495v3.772H128.36V165.4h1.579v1.1h.025a2.417,2.417,0,0,1,2.2-1.266,2.073,2.073,0,0,1,1.266.4,1.993,1.993,0,0,1,.737,1.046,2.491,2.491,0,0,1,2.317-1.445q2.3,0,2.3,2.84Z" transform="translate(-64.403 -82.906)" fill="#465154"/>
    <path id="Path_14550" data-name="Path 14550" d="M155.6,172.618a3.458,3.458,0,0,1-2.576-1,3.533,3.533,0,0,1-.962-2.591,3.443,3.443,0,0,1,3.712-3.732,3.348,3.348,0,0,1,2.546.962,3.712,3.712,0,0,1,.912,2.666,3.657,3.657,0,0,1-1,2.676A3.538,3.538,0,0,1,155.6,172.618Zm.075-6.044a1.8,1.8,0,0,0-1.465.648,2.711,2.711,0,0,0-.538,1.784,2.551,2.551,0,0,0,.543,1.729,1.829,1.829,0,0,0,1.46.628,1.739,1.739,0,0,0,1.435-.618,2.745,2.745,0,0,0,.5-1.764,2.785,2.785,0,0,0-.5-1.779,1.729,1.729,0,0,0-1.435-.638Z" transform="translate(-76.291 -82.93)" fill="#465154"/>
    <path id="Path_14551" data-name="Path 14551" d="M168.659,172.245V170.78a3.154,3.154,0,0,0,1.953.673q1.43,0,1.43-.847a.668.668,0,0,0-.125-.4,1.165,1.165,0,0,0-.329-.294,2.617,2.617,0,0,0-.5-.229l-.628-.229a6.655,6.655,0,0,1-.772-.359,2.342,2.342,0,0,1-.573-.433,1.63,1.63,0,0,1-.344-.548,1.993,1.993,0,0,1-.115-.718,1.649,1.649,0,0,1,.239-.887,2.073,2.073,0,0,1,.643-.648,3.074,3.074,0,0,1,.912-.394,4.182,4.182,0,0,1,1.056-.135,4.8,4.8,0,0,1,1.729.294v1.385a2.915,2.915,0,0,0-1.689-.5,2.2,2.2,0,0,0-.543.06,1.4,1.4,0,0,0-.414.169.837.837,0,0,0-.264.264.623.623,0,0,0-.095.339.717.717,0,0,0,.095.384.862.862,0,0,0,.284.274,2.451,2.451,0,0,0,.448.219l.6.214a8.86,8.86,0,0,1,.807.374,2.726,2.726,0,0,1,.608.434,1.7,1.7,0,0,1,.389.558,1.894,1.894,0,0,1,.134.752,1.719,1.719,0,0,1-.244.927,2.048,2.048,0,0,1-.653.653,3.059,3.059,0,0,1-.942.384,4.895,4.895,0,0,1-1.126.125A4.749,4.749,0,0,1,168.659,172.245Z" transform="translate(-84.623 -82.951)" fill="#465154"/>
    <path id="Path_14552" data-name="Path 14552" d="M189.66,169.791V160h2.82q5.4,0,5.4,4.763a4.694,4.694,0,0,1-1.495,3.632,5.72,5.72,0,0,1-4.021,1.37Zm1.614-8.391v7.026h1.3a3.617,3.617,0,0,0,2.661-.942,3.573,3.573,0,0,0,.952-2.656q0-3.428-3.548-3.428Z" transform="translate(-95.16 -80.278)" fill="#465154"/>
    <path id="Path_14553" data-name="Path 14553" d="M209.35,169.785v-9.791h3.1a3.662,3.662,0,0,1,2.242.618,1.928,1.928,0,0,1,.827,1.614,2.307,2.307,0,0,1-.468,1.445,2.536,2.536,0,0,1-1.3.872v.025a2.551,2.551,0,0,1,1.609.747,2.272,2.272,0,0,1,.6,1.639,2.461,2.461,0,0,1-1,2.028,3.911,3.911,0,0,1-2.491.777Zm1.614-8.47v2.78h1.051a1.993,1.993,0,0,0,1.325-.4,1.385,1.385,0,0,0,.5-1.126q0-1.256-1.674-1.256Zm0,4.081v3.069h1.385a2.1,2.1,0,0,0,1.4-.419,1.435,1.435,0,0,0,.5-1.156q0-1.495-2.1-1.495Z" transform="translate(-105.039 -80.272)" fill="#465154"/>
    <path id="Path_14554" data-name="Path 14554" d="M46.745,19.861A.737.737,0,0,1,46,19.128h0a8.47,8.47,0,0,0-8.47-8.47.742.742,0,0,1-.742-.737h0a.742.742,0,0,1,.742-.742h0A8.47,8.47,0,0,0,46,.708.737.737,0,0,1,46.74,0h0a.737.737,0,0,1,.742.732h0a8.47,8.47,0,0,0,8.47,8.47.737.737,0,0,1,.742.732h0a.737.737,0,0,1-.732.742h0a8.47,8.47,0,0,0-8.47,8.47A.742.742,0,0,1,46.745,19.861Z" transform="translate(-18.459 0)" fill="#50e6ff"/>
    <path id="Path_14555" data-name="Path 14555" d="M155.6,126.755a.593.593,0,0,1-.593-.593h0a6.766,6.766,0,0,0-6.756-6.751.593.593,0,0,1-.593-.588h0a.593.593,0,0,1,.593-.593h0a6.761,6.761,0,0,0,6.756-6.756.593.593,0,0,1,.593-.593h0a.593.593,0,0,1,.593.593h0a6.761,6.761,0,0,0,6.756,6.756.593.593,0,0,1,0,1.186h0a6.766,6.766,0,0,0-6.756,6.756.593.593,0,0,1-.593.583Z" transform="translate(-74.087 -55.632)" fill="#50e6ff"/>
    <path id="Path_14556" data-name="Path 14556" d="M106.911,39.027A25.81,25.81,0,1,1,75.81,19.9h0A25.81,25.81,0,0,1,106.911,39.027Z" transform="translate(-28.092 -9.629)" fill="url(#radial-gradient)"/>
    <g id="Group_2489" data-name="Group 2489" transform="translate(27.897 9.563)" clip-path="url(#clip-path)">
      <path id="Path_14557" data-name="Path 14557" d="M67.6,84.711a6.891,6.891,0,0,0,.359-13.772h-.339a5.479,5.479,0,0,0,.03-.588,6.941,6.941,0,0,0-6.976-6.881H55.521a26.289,26.289,0,0,0,6.707,21.241Z" transform="translate(-55.639 -41.408)" fill="#f2f2f2"/>
      <path id="Path_14558" data-name="Path 14558" d="M133.648,48.305a.4.4,0,0,0-.03-.184A25.142,25.142,0,0,0,127.7,36.008a7.674,7.674,0,0,0-1.216-.379,7.593,7.593,0,0,0-9.7,7.011,8.413,8.413,0,0,0-.842-.055,7.3,7.3,0,0,0-2.441,14.191,6.1,6.1,0,0,0,2.277.419h8.535a56.579,56.579,0,0,0,9.327-8.889Z" transform="translate(-82.406 -27.289)" fill="#f2f2f2"/>
    </g>
    <path id="Path_14560" data-name="Path 14560" d="M106.269,22.464c-2.646-4.4-8.829-6.119-17.474-4.833a61.426,61.426,0,0,0-8.754,1.9,27.15,27.15,0,0,1,6.428,3.224c1-.224,2.033-.5,2.99-.633a31.5,31.5,0,0,1,4.639-.374,9.2,9.2,0,0,1,8.236,3.049h0c1.609,2.681.254,7.27-3.727,12.616a70.33,70.33,0,0,1-19.97,17.036,70.474,70.474,0,0,1-24.475,9.492c-6.577,1-11.281,0-12.89-2.676s-.244-7.255,3.742-12.576c.5-.663.613-1,1.171-1.649a26.294,26.294,0,0,1,.11-6.856,48.581,48.581,0,0,0-4.923,5.77c-5.212,6.976-6.622,13.234-3.986,17.639a13.309,13.309,0,0,0,12.2,5.252,35.472,35.472,0,0,0,5.252-.419,75.087,75.087,0,0,0,26.154-10.09,74.894,74.894,0,0,0,21.286-18.217C107.495,33.132,108.91,26.874,106.269,22.464Z" transform="translate(-18.107 -8.637)" fill="#50e6ff"/>
  </g>
</svg>
