<svg id="Layer_2" data-name="Layer 2" xmlns="http://www.w3.org/2000/svg" xmlns:xlink="http://www.w3.org/1999/xlink" width="100.616" height="94.576" viewBox="0 0 100.616 94.576">
  <defs>
    <linearGradient id="linear-gradient" x1="0.5" y1="6.677" x2="0.5" y2="7.674" gradientUnits="objectBoundingBox">
      <stop offset="0" stop-color="#198ab3"/>
      <stop offset="0.17" stop-color="#32bedd"/>
      <stop offset="0.5" stop-color="#50e6ff"/>
      <stop offset="0.5" stop-color="#4fe4fd"/>
      <stop offset="0.5" stop-color="#4bddf8"/>
      <stop offset="0.5" stop-color="#44d2ee"/>
      <stop offset="0.5" stop-color="#3ac1e0"/>
      <stop offset="0.5" stop-color="#2dabce"/>
      <stop offset="0.5" stop-color="#1d90b8"/>
      <stop offset="0.5" stop-color="#198ab3"/>
      <stop offset="0.66" stop-color="#32bedd"/>
      <stop offset="0.97" stop-color="#50e6ff"/>
    </linearGradient>
  </defs>
  <g id="Layer_1" data-name="Layer 1">
    <path id="Path_14598" data-name="Path 14598" d="M10.09,134.387H8.1l-1-2.755H2.895l-.937,2.755H0L4.051,123.57H6.074Zm-3.418-4.215-1.495-4.315a5.107,5.107,0,0,1-.144-.678h-.05a4.484,4.484,0,0,1-.149.678l-1.495,4.315Z" transform="translate(0 -62)" fill="#465154"/>
    <path id="Path_14599" data-name="Path 14599" d="M28.352,130.533l-4.17,5.625h4.17v1.365h-6.6v-.638l4.26-5.7H22.159V129.82h6.193Z" transform="translate(-10.913 -65.135)" fill="#465154"/>
    <path id="Path_14600" data-name="Path 14600" d="M44.371,137.508H42.622v-1.221h-.03a2.516,2.516,0,0,1-2.352,1.405q-2.735,0-2.74-3.289V129.79h1.744v4.435q0,2.083,1.6,2.083a1.624,1.624,0,0,0,1.281-.573,2.2,2.2,0,0,0,.5-1.495v-4.445h1.749Z" transform="translate(-18.815 -65.12)" fill="#465154"/>
    <path id="Path_14601" data-name="Path 14601" d="M59.9,131.322a1.445,1.445,0,0,0-.912-.249,1.559,1.559,0,0,0-1.286.683,3.134,3.134,0,0,0-.5,1.908v3.7H55.42v-7.723h1.749v1.619H57.2a2.691,2.691,0,0,1,.787-1.271,1.779,1.779,0,0,1,1.186-.458,1.494,1.494,0,0,1,.722.144Z" transform="translate(-27.806 -64.988)" fill="#465154"/>
    <path id="Path_14602" data-name="Path 14602" d="M72.852,133.933H67.59a2.227,2.227,0,0,0,.658,1.654,2.456,2.456,0,0,0,1.734.593,3.816,3.816,0,0,0,2.272-.737v1.41a5.187,5.187,0,0,1-2.79.663,3.458,3.458,0,0,1-2.676-1.051,4.21,4.21,0,0,1-.967-2.96A4.116,4.116,0,0,1,66.9,130.55a3.488,3.488,0,0,1,2.651-1.136,3.044,3.044,0,0,1,2.451,1,4.23,4.23,0,0,1,.867,2.83Zm-1.689-1.241a2.252,2.252,0,0,0-.443-1.465,1.5,1.5,0,0,0-1.206-.528,1.7,1.7,0,0,0-1.281.553,2.491,2.491,0,0,0-.643,1.44Z" transform="translate(-33.021 -64.928)" fill="#465154"/>
    <path id="Path_14603" data-name="Path 14603" d="M91.2,133.766v-1.849a2.855,2.855,0,0,0,.593.409,4.594,4.594,0,0,0,.727.3,5.77,5.77,0,0,0,.767.194,4.094,4.094,0,0,0,.708.07,3.029,3.029,0,0,0,1.684-.379,1.241,1.241,0,0,0,.553-1.1,1.2,1.2,0,0,0-.184-.668,1.958,1.958,0,0,0-.5-.5,5.48,5.48,0,0,0-.782-.448l-.962-.448q-.548-.294-1.026-.6a4.44,4.44,0,0,1-.837-.683,2.785,2.785,0,0,1-.548-.827,2.686,2.686,0,0,1-.2-1.076,2.491,2.491,0,0,1,.344-1.325,2.9,2.9,0,0,1,.907-.927,4.15,4.15,0,0,1,1.281-.543A6.093,6.093,0,0,1,95.2,123.2a5.894,5.894,0,0,1,2.491.384v1.774a3.951,3.951,0,0,0-2.367-.663,4.253,4.253,0,0,0-.8.075,2.371,2.371,0,0,0-.708.249,1.534,1.534,0,0,0-.5.443,1.091,1.091,0,0,0-.194.658,1.24,1.24,0,0,0,.149.628,1.609,1.609,0,0,0,.443.5,4.483,4.483,0,0,0,.708.429q.419.209.967.448a5.611,5.611,0,0,1,1.066.618,5.013,5.013,0,0,1,.882.717,3.149,3.149,0,0,1,.6.872,2.779,2.779,0,0,1-1,3.4,3.986,3.986,0,0,1-1.3.5,7.26,7.26,0,0,1-1.545.159q-.269,0-.668-.04a8.31,8.31,0,0,1-.837-.13,7.619,7.619,0,0,1-.782-.194A2.492,2.492,0,0,1,91.2,133.766Z" transform="translate(-45.758 -61.807)" fill="#465154"/>
    <path id="Path_14604" data-name="Path 14604" d="M113.133,129.76l-3.488,8.969q-1.086,2.4-3.049,2.4a3.663,3.663,0,0,1-.922-.1v-1.455a2.446,2.446,0,0,0,.752.135,1.555,1.555,0,0,0,1.465-.967l.5-1.266-3.069-7.708h1.938l1.888,5.586q.03.1.135.558h.04q.04-.174.135-.543l1.933-5.625Z" transform="translate(-52.843 -65.095)" fill="#465154"/>
    <path id="Path_14605" data-name="Path 14605" d="M130.216,137.3h-1.749v-4.35q0-2.162-1.53-2.162a1.674,1.674,0,0,0-1.32.6,2.227,2.227,0,0,0-.5,1.495v4.4H123.36V129.56h1.759v1.281h.03a2.75,2.75,0,0,1,2.491-1.465,2.332,2.332,0,0,1,1.923.817,3.677,3.677,0,0,1,.663,2.367Z" transform="translate(-61.895 -64.91)" fill="#465154"/>
    <path id="Path_14606" data-name="Path 14606" d="M146.54,137.331h-1.7v-1.206h-.03a2.556,2.556,0,0,1-2.347,1.39,2.491,2.491,0,0,1-1.784-.618,2.163,2.163,0,0,1-.643-1.634q0-2.187,2.521-2.551l2.292-.324q0-1.649-1.57-1.649a3.727,3.727,0,0,0-2.491.952v-1.53a5.426,5.426,0,0,1,2.82-.723q2.925,0,2.925,2.88Zm-1.689-3.792-1.619.224a2.581,2.581,0,0,0-1.136.364,1.071,1.071,0,0,0-.379.937,1.026,1.026,0,0,0,.349.8,1.36,1.36,0,0,0,.942.329,1.734,1.734,0,0,0,1.325-.563,1.993,1.993,0,0,0,.518-1.43Z" transform="translate(-70.262 -64.944)" fill="#465154"/>
    <path id="Path_14607" data-name="Path 14607" d="M158.839,136.178h-.03v4.689H157.06V129.591h1.749v1.355h.03a2.87,2.87,0,0,1,2.626-1.54,2.765,2.765,0,0,1,2.292,1.031,4.335,4.335,0,0,1,.822,2.775,4.808,4.808,0,0,1-.927,3.094,3.069,3.069,0,0,1-2.536,1.161,2.531,2.531,0,0,1-2.277-1.291Zm-.045-3.049v.957a2.043,2.043,0,0,0,.538,1.435,1.9,1.9,0,0,0,2.895-.169,3.528,3.528,0,0,0,.553-2.118,2.78,2.78,0,0,0-.5-1.784,1.7,1.7,0,0,0-1.4-.643,1.884,1.884,0,0,0-1.495.663,2.457,2.457,0,0,0-.593,1.659Z" transform="translate(-78.803 -64.926)" fill="#465154"/>
    <path id="Path_14608" data-name="Path 14608" d="M174.63,137.027v-1.619a3.488,3.488,0,0,0,2.177.723q1.584,0,1.584-.937a.737.737,0,0,0-.135-.448,1.3,1.3,0,0,0-.364-.329,2.882,2.882,0,0,0-.543-.259l-.7-.254a7.479,7.479,0,0,1-.857-.4,2.576,2.576,0,0,1-.633-.5,1.813,1.813,0,0,1-.379-.608,2.233,2.233,0,0,1-.13-.792,1.829,1.829,0,0,1,.264-1,2.291,2.291,0,0,1,.708-.717,3.419,3.419,0,0,1,1-.438,4.64,4.64,0,0,1,1.171-.144,5.321,5.321,0,0,1,1.913.324v1.53a3.228,3.228,0,0,0-1.868-.558,2.415,2.415,0,0,0-.6.07,1.534,1.534,0,0,0-.458.189.922.922,0,0,0-.294.289.693.693,0,0,0-.1.374.8.8,0,0,0,.1.424.956.956,0,0,0,.314.3,2.7,2.7,0,0,0,.5.239l.668.239a9.629,9.629,0,0,1,.892.414,2.989,2.989,0,0,1,.673.5,1.883,1.883,0,0,1,.429.618,2.1,2.1,0,0,1,.149.832,1.9,1.9,0,0,1-.269,1.026,2.267,2.267,0,0,1-.722.722,3.4,3.4,0,0,1-1.046.424,5.428,5.428,0,0,1-1.246.14A5.256,5.256,0,0,1,174.63,137.027Z" transform="translate(-87.619 -64.879)" fill="#465154"/>
    <path id="Path_14609" data-name="Path 14609" d="M194.832,133.938h-5.262a2.222,2.222,0,0,0,.658,1.654,2.456,2.456,0,0,0,1.729.583,3.821,3.821,0,0,0,2.272-.737v1.41a5.187,5.187,0,0,1-2.79.663,3.453,3.453,0,0,1-2.676-1.051,4.21,4.21,0,0,1-.972-2.96,4.111,4.111,0,0,1,1.066-2.94,3.488,3.488,0,0,1,2.651-1.136,3.044,3.044,0,0,1,2.451,1,4.23,4.23,0,0,1,.867,2.83Zm-1.689-1.241a2.257,2.257,0,0,0-.443-1.465,1.5,1.5,0,0,0-1.206-.523,1.7,1.7,0,0,0-1.281.553,2.492,2.492,0,0,0-.643,1.44Z" transform="translate(-94.219 -64.934)" fill="#465154"/>
    <path id="Path_14610" data-name="Path 14610" d="M49.02,171.587H47.027l-1-2.755H41.825l-.937,2.755H38.93l4.051-10.817H45ZM45.6,167.362l-1.495-4.315a5.1,5.1,0,0,1-.159-.668h0a4.405,4.405,0,0,1-.149.678L42.3,167.372Z" transform="translate(-19.533 -80.664)" fill="#465154"/>
    <path id="Path_14611" data-name="Path 14611" d="M68.466,174.523H66.717v-4.35q0-2.162-1.53-2.162a1.674,1.674,0,0,0-1.32.6,2.227,2.227,0,0,0-.5,1.495v4.4H61.59v-7.7h1.759v1.281h.03a2.75,2.75,0,0,1,2.491-1.465,2.332,2.332,0,0,1,1.923.817,3.677,3.677,0,0,1,.673,2.357Z" transform="translate(-30.902 -83.6)" fill="#465154"/>
    <path id="Path_14612" data-name="Path 14612" d="M84.815,174.531H83.141v-1.206h-.05a2.556,2.556,0,0,1-2.347,1.39,2.491,2.491,0,0,1-1.784-.618,2.162,2.162,0,0,1-.643-1.634q0-2.187,2.521-2.551l2.292-.324q0-1.649-1.57-1.649a3.727,3.727,0,0,0-2.491.952v-1.53a5.426,5.426,0,0,1,2.82-.722q2.925,0,2.925,2.88Zm-1.674-3.792-1.619.224a2.581,2.581,0,0,0-1.136.364,1.071,1.071,0,0,0-.379.937,1.026,1.026,0,0,0,.349.8,1.36,1.36,0,0,0,.937.314,1.734,1.734,0,0,0,1.325-.563,1.993,1.993,0,0,0,.523-1.405Z" transform="translate(-39.294 -83.608)" fill="#465154"/>
    <path id="Path_14613" data-name="Path 14613" d="M97.1,170.97H95.34V159.54H97.1Z" transform="translate(-47.836 -80.047)" fill="#465154"/>
    <path id="Path_14614" data-name="Path 14614" d="M108.953,167l-3.488,8.969q-1.086,2.4-3.049,2.4a3.656,3.656,0,0,1-.922-.1v-1.455a2.446,2.446,0,0,0,.752.135,1.555,1.555,0,0,0,1.465-.967l.5-1.266L101.17,167h1.938l1.839,5.61q.03.1.135.558h.04q.035-.174.135-.543L107.189,167Z" transform="translate(-50.761 -83.79)" fill="#465154"/>
    <path id="Path_14615" data-name="Path 14615" d="M123.158,172.33a3.035,3.035,0,0,1-1.35.254q-2.247,0-2.247-2.158v-4.365H118.27V164.7h1.291v-1.789l1.749-.5V164.7h1.849v1.37h-1.849v3.862a1.52,1.52,0,0,0,.249,1,1.031,1.031,0,0,0,.832.294,1.206,1.206,0,0,0,.767-.254Z" transform="translate(-59.341 -81.487)" fill="#465154"/>
    <path id="Path_14616" data-name="Path 14616" d="M131.411,161.728a1.051,1.051,0,0,1-.737-.279.917.917,0,0,1-.3-.708.942.942,0,0,1,.3-.717,1.036,1.036,0,0,1,.737-.284,1.071,1.071,0,0,1,.752.284.937.937,0,0,1,.309.717.927.927,0,0,1-.309.7A1.061,1.061,0,0,1,131.411,161.728Zm.867,9.342h-1.749v-7.713h1.749Z" transform="translate(-65.411 -80.147)" fill="#465154"/>
    <path id="Path_14617" data-name="Path 14617" d="M143.44,174.164a4.315,4.315,0,0,1-2.192.533,3.717,3.717,0,0,1-2.775-1.076,3.807,3.807,0,0,1-1.056-2.785,4.19,4.19,0,0,1,1.136-3.064,4.061,4.061,0,0,1,3.034-1.156,4.43,4.43,0,0,1,1.863.369v1.629a2.82,2.82,0,0,0-1.719-.6,2.392,2.392,0,0,0-1.819.752,2.746,2.746,0,0,0-.708,1.963,2.616,2.616,0,0,0,.668,1.893,2.367,2.367,0,0,0,1.789.693,2.8,2.8,0,0,0,1.779-.673Z" transform="translate(-68.945 -83.595)" fill="#465154"/>
    <path id="Path_14618" data-name="Path 14618" d="M152,174.253v-1.619a3.488,3.488,0,0,0,2.162.747q1.584,0,1.584-.937a.737.737,0,0,0-.135-.448,1.29,1.29,0,0,0-.364-.329,2.882,2.882,0,0,0-.543-.259l-.7-.254a7.474,7.474,0,0,1-.857-.4,2.6,2.6,0,0,1-.633-.5,1.8,1.8,0,0,1-.379-.608,2.231,2.231,0,0,1-.13-.792,1.829,1.829,0,0,1,.264-1,2.287,2.287,0,0,1,.708-.718,3.414,3.414,0,0,1,1-.438,4.635,4.635,0,0,1,1.171-.145,5.315,5.315,0,0,1,1.913.324v1.53a3.229,3.229,0,0,0-1.868-.558,2.417,2.417,0,0,0-.6.07,1.534,1.534,0,0,0-.458.189.921.921,0,0,0-.294.289.692.692,0,0,0-.1.374.8.8,0,0,0,.1.424.956.956,0,0,0,.314.3,2.7,2.7,0,0,0,.5.239l.668.239a9.63,9.63,0,0,1,.892.414,3.015,3.015,0,0,1,.678.5,1.879,1.879,0,0,1,.428.618,2.1,2.1,0,0,1,.149.832,1.9,1.9,0,0,1-.269,1.026,2.267,2.267,0,0,1-.723.722,3.392,3.392,0,0,1-1.046.424,5.43,5.43,0,0,1-1.246.139A5.256,5.256,0,0,1,152,174.253Z" transform="translate(-76.264 -83.568)" fill="#465154"/>
    <path id="Path_14619" data-name="Path 14619" d="M75.326,0,52.69,12.955v25.86L75.326,51.909,97.962,38.954V13ZM93.762,36.249,75.326,46.917,56.87,36.373V15.516L75.306,4.848l18.436,10.7Z" transform="translate(-26.437)" fill="#0078d4"/>
    <path id="Path_14620" data-name="Path 14620" d="M93.263,36.707a2.108,2.108,0,0,0-.932-.812,16.826,16.826,0,0,0-12.9-9.661l18.68-10.792L93.761,12.95,72.481,25.242a2.162,2.162,0,0,0,1.086,4.036,1.993,1.993,0,0,0,.259-.065l.359,1.495a12.456,12.456,0,0,1,13.951,6.477L66.94,49.423l4.325,2.491L92.471,39.657a2.1,2.1,0,0,0,.7-.683l.214-.05a1.124,1.124,0,0,0-.07-.244A2.118,2.118,0,0,0,93.263,36.707Z" transform="translate(-33.586 -6.497)" fill="#50e6ff"/>
    <path id="Path_14621" data-name="Path 14621" d="M92.679,41.287a5.336,5.336,0,1,0,5.336,5.336A5.336,5.336,0,0,0,92.679,41.287ZM74.856,30.48a5.336,5.336,0,1,0,5.336,5.336h0A5.336,5.336,0,0,0,74.856,30.48Z" transform="translate(-34.881 -15.293)" fill="url(#linear-gradient)"/>
  </g>
</svg>
