<svg id="Layer_2" data-name="Layer 2" xmlns="http://www.w3.org/2000/svg" xmlns:xlink="http://www.w3.org/1999/xlink" width="101.508" height="85.283" viewBox="0 0 101.508 85.283">
  <defs>
    <linearGradient id="linear-gradient" x1="0.514" y1="3.58" x2="0.491" y2="2.317" gradientUnits="objectBoundingBox">
      <stop offset="0" stop-color="#32d4f5"/>
      <stop offset="0.23" stop-color="#31d0f1"/>
      <stop offset="0.46" stop-color="#2cc3e6"/>
      <stop offset="0.7" stop-color="#25afd4"/>
      <stop offset="0.94" stop-color="#1c92ba"/>
      <stop offset="1" stop-color="#198ab3"/>
    </linearGradient>
  </defs>
  <g id="Layer_1" data-name="Layer 1" transform="translate(0 0)">
    <path id="Path_14561" data-name="Path 14561" d="M9.113,160.981H7.334l-.877-2.491H2.616l-.847,2.491H0l3.657-9.771H5.481Zm-3.084-3.807-1.355-3.9a4.58,4.58,0,0,1-.13-.613h-.03a4.025,4.025,0,0,1-.135.613l-1.34,3.9Z" transform="translate(0 -75.868)" fill="#465154"/>
    <path id="Path_14562" data-name="Path 14562" d="M25.634,157.483l-3.767,5.082h3.752V163.8H19.64V163.2l3.847-5.152H20V156.82h5.635Z" transform="translate(-9.854 -78.682)" fill="#465154"/>
    <path id="Path_14563" data-name="Path 14563" d="M40.093,163.776H38.514v-1.1h-.025a2.277,2.277,0,0,1-2.138,1.266q-2.491,0-2.491-2.99v-4.17h1.579v3.986q0,1.878,1.45,1.878a1.465,1.465,0,0,0,1.156-.5,1.993,1.993,0,0,0,.453-1.355V156.78h1.579Z" transform="translate(-16.989 -78.662)" fill="#465154"/>
    <path id="Path_14564" data-name="Path 14564" d="M54.166,158.2a1.31,1.31,0,0,0-.822-.224,1.41,1.41,0,0,0-1.171.633,2.835,2.835,0,0,0-.468,1.724v3.338H50.12v-6.976H51.7v1.435h.025a2.431,2.431,0,0,1,.713-1.146,1.6,1.6,0,0,1,1.071-.414,1.335,1.335,0,0,1,.653.13Z" transform="translate(-25.147 -78.555)" fill="#465154"/>
    <path id="Path_14565" data-name="Path 14565" d="M65.885,160.561H61.132a1.993,1.993,0,0,0,.6,1.495,2.217,2.217,0,0,0,1.565.523,3.448,3.448,0,0,0,2.053-.668v1.276a4.689,4.689,0,0,1-2.521.6,3.119,3.119,0,0,1-2.417-.952,3.8,3.8,0,0,1-.877-2.676,3.717,3.717,0,0,1,.962-2.656,3.154,3.154,0,0,1,2.4-1.026,2.75,2.75,0,0,1,2.212.922,3.817,3.817,0,0,1,.782,2.556Zm-1.525-1.116a2.038,2.038,0,0,0-.4-1.325,1.345,1.345,0,0,0-1.091-.5,1.535,1.535,0,0,0-1.156.5,2.272,2.272,0,0,0-.583,1.3Z" transform="translate(-29.866 -78.507)" fill="#465154"/>
    <path id="Path_14566" data-name="Path 14566" d="M83.37,160.986V151.22h2.805q5.4,0,5.4,4.763a4.694,4.694,0,0,1-1.495,3.632,5.72,5.72,0,0,1-4.021,1.37Zm1.614-8.381v7.026h1.3a3.617,3.617,0,0,0,2.661-.942,3.573,3.573,0,0,0,.952-2.656q0-3.428-3.548-3.428Z" transform="translate(-41.83 -75.873)" fill="#465154"/>
    <path id="Path_14567" data-name="Path 14567" d="M107.567,163.609h-1.535v-1.091h-.025a2.307,2.307,0,0,1-2.118,1.256,2.232,2.232,0,0,1-1.609-.558,1.953,1.953,0,0,1-.583-1.495q0-1.993,2.277-2.3l2.073-.294q0-1.495-1.415-1.495a3.368,3.368,0,0,0-2.247.857V157.1a4.9,4.9,0,0,1,2.546-.653,2.317,2.317,0,0,1,2.641,2.6Zm-1.525-3.428-1.465.2a2.322,2.322,0,0,0-1.026.329.967.967,0,0,0-.344.847.927.927,0,0,0,.319.727,1.226,1.226,0,0,0,.847.284,1.565,1.565,0,0,0,1.2-.5,1.8,1.8,0,0,0,.5-1.276Z" transform="translate(-51.024 -78.496)" fill="#465154"/>
    <path id="Path_14568" data-name="Path 14568" d="M119.965,161.639a2.74,2.74,0,0,1-1.221.229q-2.028,0-2.028-1.948v-3.946H115.55v-1.241h1.166v-1.614l1.579-.448v2.063h1.669v1.241H118.3v3.488a1.375,1.375,0,0,0,.224.887.932.932,0,0,0,.747.264,1.086,1.086,0,0,0,.693-.229Z" transform="translate(-57.976 -76.6)" fill="#465154"/>
    <path id="Path_14569" data-name="Path 14569" d="M132.127,163.609h-1.495v-1.091h-.025a2.307,2.307,0,0,1-2.118,1.256,2.232,2.232,0,0,1-1.609-.558,1.953,1.953,0,0,1-.583-1.495q0-1.993,2.277-2.3l2.073-.294q0-1.495-1.415-1.495a3.368,3.368,0,0,0-2.247.857V157.1a4.9,4.9,0,0,1,2.546-.653,2.317,2.317,0,0,1,2.641,2.6Zm-1.495-3.428-1.465.2a2.317,2.317,0,0,0-1.026.324.967.967,0,0,0-.344.847.927.927,0,0,0,.319.727,1.226,1.226,0,0,0,.847.284,1.564,1.564,0,0,0,1.2-.5,1.8,1.8,0,0,0,.5-1.276Z" transform="translate(-63.367 -78.496)" fill="#465154"/>
    <path id="Path_14570" data-name="Path 14570" d="M155.391,160.986H150V151.22h1.619v8.4h3.787Z" transform="translate(-75.261 -75.873)" fill="#465154"/>
    <path id="Path_14571" data-name="Path 14571" d="M168.427,163.609h-1.535v-1.091h-.025a2.307,2.307,0,0,1-2.118,1.256,2.232,2.232,0,0,1-1.609-.558,1.953,1.953,0,0,1-.583-1.495q0-1.993,2.277-2.3l2.073-.294q0-1.495-1.415-1.495a3.368,3.368,0,0,0-2.247.857V157.1a4.9,4.9,0,0,1,2.546-.653,2.317,2.317,0,0,1,2.641,2.6Zm-1.525-3.428-1.465.2a2.316,2.316,0,0,0-1.026.329.967.967,0,0,0-.344.847.927.927,0,0,0,.319.727,1.226,1.226,0,0,0,.847.284,1.565,1.565,0,0,0,1.2-.5,1.8,1.8,0,0,0,.5-1.276Z" transform="translate(-81.56 -78.496)" fill="#465154"/>
    <path id="Path_14572" data-name="Path 14572" d="M184.288,160.419h-1.993l-2.71-3.353h-.025v3.353H177.97V150.09h1.589v6.547h.025l2.561-3.194h1.9l-2.88,3.363Z" transform="translate(-89.295 -75.306)" fill="#465154"/>
    <path id="Path_14573" data-name="Path 14573" d="M197.305,160.561h-4.753a1.993,1.993,0,0,0,.6,1.495,2.217,2.217,0,0,0,1.565.523,3.448,3.448,0,0,0,2.053-.668v1.276a4.684,4.684,0,0,1-2.521.6,3.119,3.119,0,0,1-2.417-.952,3.8,3.8,0,0,1-.877-2.676,3.717,3.717,0,0,1,.962-2.656,3.154,3.154,0,0,1,2.4-1.026,2.75,2.75,0,0,1,2.212.922,3.817,3.817,0,0,1,.782,2.556Zm-1.525-1.116a2.038,2.038,0,0,0-.4-1.325,1.34,1.34,0,0,0-1.091-.5,1.535,1.535,0,0,0-1.156.5,2.272,2.272,0,0,0-.583,1.3Z" transform="translate(-95.805 -78.507)" fill="#465154"/>
    <path id="Path_14574" data-name="Path 14574" d="M99.864,6.667H67.786a1.5,1.5,0,0,1-.952-.3L57.656.259A1.863,1.863,0,0,0,56.7,0H29.734A1.734,1.734,0,0,0,28,1.689V58.4a1.734,1.734,0,0,0,1.734,1.689h70.13A1.734,1.734,0,0,0,101.6,58.4V8.4a1.734,1.734,0,0,0-1.734-1.734Z" transform="translate(-14.049 0)" fill="#005ba1"/>
    <rect id="Rectangle_1325" data-name="Rectangle 1325" width="16.712" height="3.333" rx="1.39" transform="translate(20.663 3.289)" fill="#fff"/>
    <rect id="Rectangle_1326" data-name="Rectangle 1326" width="3.333" height="3.333" rx="0.96" transform="translate(20.663 3.289)" fill="#1ac3f2"/>
    <path id="Path_14575" data-name="Path 14575" d="M99.864,13.209H64.8a1.56,1.56,0,0,0-1.211.5l-5.845,5.645a1.864,1.864,0,0,1-1.211.5h-26.8A1.734,1.734,0,0,0,28,21.574h0V64.864a1.734,1.734,0,0,0,1.734,1.689h70.13a1.734,1.734,0,0,0,1.734-1.689V15.037a1.734,1.734,0,0,0-1.644-1.814Z" transform="translate(-14.049 -6.626)" fill="url(#linear-gradient)"/>
    <path id="Path_14576" data-name="Path 14576" d="M97.326,31.606a.648.648,0,0,0-.349,0,.693.693,0,0,0-.563.3L82.737,51.776a.693.693,0,0,0,0,.693.822.822,0,0,0,.648.434h8.1L87.889,64.935a.563.563,0,0,0,.249.757h.055a.433.433,0,0,0,.3,0,.5.5,0,0,0,.563-.3L103.17,45.243V44.81a.737.737,0,0,0-.737-.693h-8.65l3.488-11.829A.563.563,0,0,0,97.326,31.606Z" transform="translate(-41.466 -15.846)" fill="#fff"/>
  </g>
</svg>
