<svg id="Layer_2" data-name="Layer 2" xmlns="http://www.w3.org/2000/svg" xmlns:xlink="http://www.w3.org/1999/xlink" width="71.6" height="85.249" viewBox="0 0 71.6 85.249">
  <defs>
    <linearGradient id="linear-gradient" y1="3.37" x2="1" y2="3.37" gradientUnits="objectBoundingBox">
      <stop offset="0" stop-color="#005ba1"/>
      <stop offset="0.07" stop-color="#0060a9"/>
      <stop offset="0.36" stop-color="#0071c8"/>
      <stop offset="0.52" stop-color="#0078d4"/>
      <stop offset="0.64" stop-color="#0074cd"/>
      <stop offset="0.82" stop-color="#006abb"/>
      <stop offset="1" stop-color="#005ba1"/>
    </linearGradient>
    <radialGradient id="radial-gradient" cx="0.503" cy="0.502" r="1.353" gradientTransform="matrix(0.509, 0, 0, -1, 0.247, 16.817)" gradientUnits="objectBoundingBox">
      <stop offset="0" stop-color="#f2f2f2"/>
      <stop offset="0.58" stop-color="#eee"/>
      <stop offset="1" stop-color="#e6e6e6"/>
    </radialGradient>
  </defs>
  <g id="Layer_1" data-name="Layer 1">
    <path id="Path_14577" data-name="Path 14577" d="M10.09,122.612H8.1l-1-2.755H2.895l-.932,2.755H0L4.051,111.8H6.074Zm-3.413-4.235-1.495-4.315a5.1,5.1,0,0,1-.149-.668h-.05a4.435,4.435,0,0,1-.149.678l-1.495,4.315Z" transform="translate(0 -56.094)" fill="#465154"/>
    <path id="Path_14578" data-name="Path 14578" d="M28.352,118.732l-4.17,5.625h4.17v1.365h-6.6v-.658l4.26-5.7H22.159V118h6.193Z" transform="translate(-10.913 -59.205)" fill="#465154"/>
    <path id="Path_14579" data-name="Path 14579" d="M44.376,125.723H42.627V124.5H42.6a2.516,2.516,0,0,1-2.352,1.405q-2.735,0-2.735-3.289V118h1.739v4.435q0,2.083,1.6,2.083a1.624,1.624,0,0,0,1.281-.573,2.2,2.2,0,0,0,.5-1.495V118h1.749Z" transform="translate(-18.82 -59.205)" fill="#465154"/>
    <path id="Path_14580" data-name="Path 14580" d="M59.9,119.527a1.45,1.45,0,0,0-.912-.249,1.559,1.559,0,0,0-1.3.7,3.134,3.134,0,0,0-.5,1.908v3.7H55.42v-7.728h1.749v1.589H57.2a2.691,2.691,0,0,1,.787-1.271,1.779,1.779,0,0,1,1.186-.458,1.5,1.5,0,0,1,.722.144Z" transform="translate(-27.806 -59.062)" fill="#465154"/>
    <path id="Path_14581" data-name="Path 14581" d="M72.847,122.143H67.585a2.227,2.227,0,0,0,.658,1.639,2.456,2.456,0,0,0,1.729.583,3.817,3.817,0,0,0,2.272-.737v1.41a5.187,5.187,0,0,1-2.79.663,3.458,3.458,0,0,1-2.676-1.051,4.21,4.21,0,0,1-.967-2.96,4.116,4.116,0,0,1,1.066-2.94,3.488,3.488,0,0,1,2.651-1.136,3.044,3.044,0,0,1,2.451,1,4.23,4.23,0,0,1,.867,2.83Zm-1.689-1.236a2.257,2.257,0,0,0-.443-1.465,1.5,1.5,0,0,0-1.206-.523,1.7,1.7,0,0,0-1.281.553,2.491,2.491,0,0,0-.643,1.44Z" transform="translate(-33.016 -59.008)" fill="#465154"/>
    <path id="Path_14582" data-name="Path 14582" d="M91.21,122v-1.849a2.855,2.855,0,0,0,.593.409,4.613,4.613,0,0,0,.727.3,5.774,5.774,0,0,0,.767.194,4.1,4.1,0,0,0,.708.07,3.029,3.029,0,0,0,1.684-.379,1.241,1.241,0,0,0,.553-1.1,1.2,1.2,0,0,0-.184-.668,1.943,1.943,0,0,0-.5-.5,5.48,5.48,0,0,0-.782-.448l-.962-.448q-.553-.294-1.026-.6a4.44,4.44,0,0,1-.827-.668,2.8,2.8,0,0,1-.548-.827,2.686,2.686,0,0,1-.2-1.076,2.492,2.492,0,0,1,.344-1.325,2.91,2.91,0,0,1,.907-.927,4.155,4.155,0,0,1,1.281-.543,6.089,6.089,0,0,1,1.465-.179,5.9,5.9,0,0,1,2.491.384v1.774a3.951,3.951,0,0,0-2.367-.663,4.26,4.26,0,0,0-.8.075,2.372,2.372,0,0,0-.708.249,1.545,1.545,0,0,0-.5.443,1.091,1.091,0,0,0-.194.658,1.241,1.241,0,0,0,.149.628,1.615,1.615,0,0,0,.443.5,4.487,4.487,0,0,0,.708.429q.419.209.972.448a5.414,5.414,0,0,1,1.066.618,4.983,4.983,0,0,1,.882.718,3.134,3.134,0,0,1,.6.872,2.556,2.556,0,0,1,.224,1.091,2.705,2.705,0,0,1-.334,1.39,2.676,2.676,0,0,1-.892.922,3.986,3.986,0,0,1-1.3.5,7.264,7.264,0,0,1-1.545.159q-.269,0-.668-.04a6.315,6.315,0,0,1-.852-.149,7.648,7.648,0,0,1-.782-.194A2.491,2.491,0,0,1,91.21,122Z" transform="translate(-45.764 -55.912)" fill="#465154"/>
    <path id="Path_14583" data-name="Path 14583" d="M112.426,122.61a5.411,5.411,0,0,1-2.118-.4,4.649,4.649,0,0,1-1.619-1.121,5.057,5.057,0,0,1-1.041-1.724,6.372,6.372,0,0,1-.369-2.217,7.016,7.016,0,0,1,.374-2.352,5.137,5.137,0,0,1,1.061-1.8,4.673,4.673,0,0,1,1.679-1.156,5.749,5.749,0,0,1,2.212-.409,5.212,5.212,0,0,1,2.068.4,4.619,4.619,0,0,1,1.6,1.121,5.077,5.077,0,0,1,1.031,1.724,6.4,6.4,0,0,1,.364,2.212,6.841,6.841,0,0,1-.563,2.8,4.823,4.823,0,0,1-1.495,1.933l3.139,2.262h-2.73l-1.928-1.495a6.624,6.624,0,0,1-.8.164A6.007,6.007,0,0,1,112.426,122.61Zm.085-9.6a3.139,3.139,0,0,0-1.355.289,3.084,3.084,0,0,0-1.061.822,3.836,3.836,0,0,0-.693,1.271,5.217,5.217,0,0,0-.244,1.644,5.322,5.322,0,0,0,.239,1.634,3.8,3.8,0,0,0,.668,1.266,2.99,2.99,0,0,0,1.031.812,3.04,3.04,0,0,0,1.335.289,3.438,3.438,0,0,0,1.4-.269,2.89,2.89,0,0,0,1.051-.782,3.542,3.542,0,0,0,.668-1.251,5.57,5.57,0,0,0,.234-1.679,5.979,5.979,0,0,0-.224-1.719,3.638,3.638,0,0,0-.648-1.271,2.78,2.78,0,0,0-1.031-.787A3.318,3.318,0,0,0,112.511,113.009Z" transform="translate(-53.826 -55.908)" fill="#465154"/>
    <path id="Path_14584" data-name="Path 14584" d="M137.659,122.612H131.68V111.8h1.794v9.3h4.2Z" transform="translate(-66.069 -56.094)" fill="#465154"/>
    <path id="Path_14585" data-name="Path 14585" d="M10.1,159.812V149h3.124q5.979,0,5.979,5.272a5.2,5.2,0,0,1-1.679,4.021,6.333,6.333,0,0,1-4.449,1.495Zm1.789-9.293V158.3h1.435a3.986,3.986,0,0,0,2.945-1.041,3.956,3.956,0,0,0,1.051-2.94q0-3.792-3.931-3.792Z" transform="translate(-5.068 -74.759)" fill="#465154"/>
    <path id="Path_14586" data-name="Path 14586" d="M36.86,162.751h-1.7v-1.206h-.03a2.556,2.556,0,0,1-2.347,1.39A2.491,2.491,0,0,1,31,162.318a2.162,2.162,0,0,1-.643-1.634q0-2.187,2.521-2.551l2.292-.324q0-1.649-1.57-1.649a3.727,3.727,0,0,0-2.491.952v-1.53a5.426,5.426,0,0,1,2.82-.722q2.925,0,2.925,2.88Zm-1.7-3.792-1.619.224a2.582,2.582,0,0,0-1.136.364,1.071,1.071,0,0,0-.379.937,1.026,1.026,0,0,0,.349.8,1.36,1.36,0,0,0,.937.314,1.734,1.734,0,0,0,1.35-.558,1.993,1.993,0,0,0,.5-1.41Z" transform="translate(-15.231 -77.698)" fill="#465154"/>
    <path id="Path_14587" data-name="Path 14587" d="M50.568,160.54a3.034,3.034,0,0,1-1.35.254q-2.247,0-2.247-2.158v-4.345H45.68v-1.4h1.29v-1.789l1.749-.5V152.9h1.849v1.4H48.719v3.862a1.52,1.52,0,0,0,.249,1,1.031,1.031,0,0,0,.832.294,1.206,1.206,0,0,0,.767-.254Z" transform="translate(-22.919 -75.566)" fill="#465154"/>
    <path id="Path_14588" data-name="Path 14588" d="M64.01,162.751h-1.7v-1.206h-.03a2.556,2.556,0,0,1-2.347,1.39,2.491,2.491,0,0,1-1.784-.618,2.162,2.162,0,0,1-.643-1.634q0-2.187,2.521-2.551l2.292-.324q0-1.649-1.57-1.649a3.727,3.727,0,0,0-2.491.952v-1.53a5.426,5.426,0,0,1,2.82-.722q2.925,0,2.925,2.88Zm-1.689-3.792-1.619.224a2.582,2.582,0,0,0-1.136.364,1.071,1.071,0,0,0-.379.937,1.026,1.026,0,0,0,.349.8,1.36,1.36,0,0,0,.937.314,1.734,1.734,0,0,0,1.325-.563,1.993,1.993,0,0,0,.523-1.415Z" transform="translate(-28.853 -77.698)" fill="#465154"/>
    <path id="Path_14589" data-name="Path 14589" d="M76.3,158.074h-.05v1.116H74.52V147.76h1.734v5.067h.03a2.865,2.865,0,0,1,2.626-1.54,2.765,2.765,0,0,1,2.327,1.036,4.34,4.34,0,0,1,.827,2.78,4.838,4.838,0,0,1-.927,3.1,3.064,3.064,0,0,1-2.536,1.166A2.491,2.491,0,0,1,76.3,158.074ZM76.254,155v.957a2.043,2.043,0,0,0,.538,1.435,1.9,1.9,0,0,0,2.895-.169,3.528,3.528,0,0,0,.553-2.118,2.78,2.78,0,0,0-.5-1.784,1.7,1.7,0,0,0-1.4-.643,1.883,1.883,0,0,0-1.495.663A2.456,2.456,0,0,0,76.254,155Z" transform="translate(-37.39 -74.137)" fill="#465154"/>
    <path id="Path_14590" data-name="Path 14590" d="M98.29,162.741h-1.7v-1.206h-.03a2.556,2.556,0,0,1-2.347,1.39,2.491,2.491,0,0,1-1.784-.618,2.162,2.162,0,0,1-.643-1.634q0-2.187,2.521-2.551L96.6,157.8q0-1.649-1.57-1.649a3.727,3.727,0,0,0-2.491.952v-1.53a5.426,5.426,0,0,1,2.84-.732q2.925,0,2.925,2.88ZM96.6,158.949l-1.619.224a2.581,2.581,0,0,0-1.136.364,1.071,1.071,0,0,0-.379.937,1.026,1.026,0,0,0,.349.8,1.36,1.36,0,0,0,.937.314,1.734,1.734,0,0,0,1.325-.563,1.993,1.993,0,0,0,.523-1.415Z" transform="translate(-46.053 -77.688)" fill="#465154"/>
    <path id="Path_14591" data-name="Path 14591" d="M108.09,162.488v-1.6a3.488,3.488,0,0,0,2.162.747q1.584,0,1.584-.937a.737.737,0,0,0-.135-.448,1.3,1.3,0,0,0-.364-.329,2.881,2.881,0,0,0-.543-.259l-.7-.254a7.475,7.475,0,0,1-.857-.4,2.576,2.576,0,0,1-.633-.5,1.813,1.813,0,0,1-.379-.608,2.233,2.233,0,0,1-.13-.792,1.829,1.829,0,0,1,.264-1,2.292,2.292,0,0,1,.708-.717,3.418,3.418,0,0,1,1-.438,4.638,4.638,0,0,1,1.171-.145,5.321,5.321,0,0,1,1.913.324v1.53a3.229,3.229,0,0,0-1.868-.558,2.415,2.415,0,0,0-.6.07,1.534,1.534,0,0,0-.458.189.922.922,0,0,0-.294.289.693.693,0,0,0-.1.374.8.8,0,0,0,.1.424.956.956,0,0,0,.314.3,2.7,2.7,0,0,0,.5.239l.668.239a9.641,9.641,0,0,1,.892.414,2.99,2.99,0,0,1,.673.5,1.883,1.883,0,0,1,.429.618,2.1,2.1,0,0,1,.149.832,1.9,1.9,0,0,1-.269,1.026,2.267,2.267,0,0,1-.722.722,3.4,3.4,0,0,1-1.046.424,5.433,5.433,0,0,1-1.246.139A5.256,5.256,0,0,1,108.09,162.488Z" transform="translate(-54.233 -77.673)" fill="#465154"/>
    <path id="Path_14592" data-name="Path 14592" d="M128.3,159.358h-5.267a2.222,2.222,0,0,0,.658,1.654,2.456,2.456,0,0,0,1.729.583,3.822,3.822,0,0,0,2.272-.737v1.41a5.187,5.187,0,0,1-2.79.663,3.453,3.453,0,0,1-2.676-1.051,4.21,4.21,0,0,1-.972-2.96,4.111,4.111,0,0,1,1.066-2.94,3.488,3.488,0,0,1,2.651-1.136,3.044,3.044,0,0,1,2.451,1,4.23,4.23,0,0,1,.867,2.83Zm-1.694-1.241a2.257,2.257,0,0,0-.443-1.465,1.5,1.5,0,0,0-1.206-.523,1.7,1.7,0,0,0-1.281.553,2.491,2.491,0,0,0-.643,1.44Z" transform="translate(-60.833 -77.688)" fill="#465154"/>
    <path id="Path_14593" data-name="Path 14593" d="M54.093,19.288c-9.786,0-17.723-2.765-17.723-6.413V47.046c0,3.488,7.8,6.358,17.474,6.413h.249c9.786,0,17.723-2.765,17.723-6.413V12.87C71.816,16.423,63.879,19.288,54.093,19.288Z" transform="translate(-18.248 -6.457)" fill="url(#linear-gradient)"/>
    <path id="Path_14594" data-name="Path 14594" d="M71.816,6.413c0,3.568-7.932,6.413-17.723,6.413S36.37,10.065,36.37,6.413,44.307,0,54.093,0,71.816,2.765,71.816,6.413" transform="translate(-18.248)" fill="#e8e8e8"/>
    <path id="Path_14595" data-name="Path 14595" d="M71.845,7.726c0,2.267-6.1,4.076-13.6,4.076s-13.6-1.824-13.6-4.091,6.109-4.051,13.6-4.051,13.6,1.824,13.6,4.066" transform="translate(-22.398 -1.836)" fill="#50e6ff"/>
    <path id="Path_14596" data-name="Path 14596" d="M61.107,13.853a31.933,31.933,0,0,0-10.757,1.56A31.574,31.574,0,0,0,61.1,16.907a30.827,30.827,0,0,0,10.752-1.6A32.735,32.735,0,0,0,61.107,13.853Z" transform="translate(-25.263 -6.942)" fill="#198ab3"/>
    <path id="Path_14597" data-name="Path 14597" d="M69.354,50.871v-9.4H66.863V52.889h6.8V50.871ZM49.633,46.253a5.057,5.057,0,0,1-1.41-.857,1.216,1.216,0,0,1-.334-.887.942.942,0,0,1,.414-.827,1.878,1.878,0,0,1,1.161-.334,4.484,4.484,0,0,1,2.75.807V41.778a7.135,7.135,0,0,0-2.765-.443,4.534,4.534,0,0,0-2.99.942A2.99,2.99,0,0,0,45.3,44.738c0,1.41.887,2.491,2.765,3.343a7.972,7.972,0,0,1,1.714,1,1.161,1.161,0,0,1,.414.887,1.051,1.051,0,0,1-.443.857,2.237,2.237,0,0,1-1.246.3,4.589,4.589,0,0,1-2.99-1.161v2.571a5.979,5.979,0,0,0,2.96.663,5.2,5.2,0,0,0,3.264-.912,2.99,2.99,0,0,0,.912-2.491,2.9,2.9,0,0,0-.693-1.933A6.692,6.692,0,0,0,49.633,46.253Zm14.45,4.38a6.059,6.059,0,0,0,0-6.413,4.983,4.983,0,0,0-1.918-2.058,5.531,5.531,0,0,0-2.765-.718,5.835,5.835,0,0,0-2.99.747,5.142,5.142,0,0,0-2.018,2.048,6.8,6.8,0,0,0-.717,3.154,6.248,6.248,0,0,0,.668,2.74,4.868,4.868,0,0,0,1.908,2.048,5.7,5.7,0,0,0,2.765.827l2.377,2.765h3.343l-3.4-3.039A4.948,4.948,0,0,0,64.083,50.632Zm-2.765-.693a2.6,2.6,0,0,1-2.1.967,2.541,2.541,0,0,1-2.1-1,4.2,4.2,0,0,1-.782-2.765,4.23,4.23,0,0,1,.8-2.765,2.765,2.765,0,0,1,2.157-1.021,2.407,2.407,0,0,1,2.073,1.021,4.484,4.484,0,0,1,.727,2.765,4.036,4.036,0,0,1-.752,2.815Z" transform="translate(-22.727 -20.736)" fill="url(#radial-gradient)"/>
  </g>
</svg>
