<svg id="azure-blob-storage" xmlns="http://www.w3.org/2000/svg" width="78.127" height="89.688" viewBox="0 0 78.127 89.688">
  <g id="Group_2487" data-name="Group 2487" transform="translate(12.805)">
    <g id="paths_1_">
      <g id="Storage_blob_1_">
        <path id="Path_14516" data-name="Path 14516" d="M66.611,0H40L26.7,23.169,40,46.488H66.611l13.2-23.319Z" transform="translate(-26.7)" fill="#0078d7"/>
      </g>
    </g>
    <g id="Group_2486" data-name="Group 2486" transform="translate(12.855 10.115)">
      <path id="Path_14517" data-name="Path 14517" d="M84.394,37.128c1,0,1.594-1.2,1.594-3.189s-.5-3.039-1.594-3.039c-1,0-1.594,1.1-1.594,3.189h0C82.949,36.032,83.547,37.128,84.394,37.128Z" transform="translate(-67.703 -25.618)" fill="none"/>
      <path id="Path_14518" data-name="Path 14518" d="M70.694,53.7c-1,0-1.594,1.1-1.594,3.189,0,1.943.6,3.039,1.594,3.039s1.594-1.2,1.594-3.189C72.289,54.9,71.641,53.7,70.694,53.7Z" transform="translate(-60.829 -37.058)" fill="none"/>
      <path id="Path_14519" data-name="Path 14519" d="M75.532,23.8H57.694A1.626,1.626,0,0,0,56.1,25.494V46.72a1.626,1.626,0,0,0,1.694,1.594H78.073a1.711,1.711,0,0,0,1.694-1.694V28.932H75.482V23.8ZM71.1,26.341c1.594,0,2.541,1.445,2.541,3.886,0,2.691-1,4.036-2.691,4.036-1.445,0-2.541-1.345-2.541-4.036C68.457,27.786,69.553,26.341,71.1,26.341ZM64.022,45.773c-1.445,0-2.541-1.345-2.541-4.036,0-2.541,1.1-4.036,2.691-4.036s2.541,1.445,2.541,3.886C66.713,44.428,65.766,45.773,64.022,45.773Zm3.189-11.36H62.229v-1h2.093V27.437l-1.943,1-.5-1,2.541-1.345h1v7.075h1.844v1.246Zm1.345,10.962v-1h2.093V38.4l-1.943,1-.349-1L70.9,37.054h1v7.075h1.844v1l-5.182.249Z" transform="translate(-54.306 -22.056)" fill="none"/>
      <path id="Path_14520" data-name="Path 14520" d="M69.791,52.2c-1.594,0-2.691,1.445-2.691,4.036,0,2.541,1,4.036,2.541,4.036,1.694,0,2.691-1.445,2.691-4.036C72.382,53.645,71.285,52.2,69.791,52.2Zm-.1,7.075c-1,0-1.594-1.1-1.594-3.039,0-2.093.747-3.189,1.594-3.189,1,0,1.594,1.1,1.594,3.039S70.538,59.275,69.691,59.275Z" transform="translate(-59.825 -36.305)" fill="#fff"/>
      <path id="Path_14521" data-name="Path 14521" d="M83.441,37.122c1.694,0,2.691-1.445,2.691-4.036,0-2.441-1-3.886-2.541-3.886C82,29.2,80.9,30.645,80.9,33.236,80.9,35.628,82,37.122,83.441,37.122ZM82,33.086c0-2.093.747-3.189,1.594-3.189,1,0,1.594,1.1,1.594,3.039s-.6,3.189-1.594,3.189S82,35.179,82,33.086Z" transform="translate(-66.749 -24.765)" fill="#fff"/>
      <path id="Path_14522" data-name="Path 14522" d="M71.438,28.7h-1L67.9,30.045l.5.947,1.794-1.1v5.88H68.149v1.1h4.983v-1.1H71.438Z" transform="translate(-60.227 -24.515)" fill="#fff"/>
      <path id="Path_14523" data-name="Path 14523" d="M84.138,58.075V51h-.947L80.6,52.2l.349,1,1.993-1.1v5.979H80.849v.947h5.132v-.947Z" transform="translate(-66.599 -35.703)" fill="#fff"/>
      <path id="Path_14524" data-name="Path 14524" d="M73.975,20.3H56.137A3.706,3.706,0,0,0,52.5,23.838V44.466A3.574,3.574,0,0,0,56.137,48H75.918a3.706,3.706,0,0,0,3.637-3.538V25.831Zm3.886,24.564a1.711,1.711,0,0,1-1.694,1.694H55.888a1.7,1.7,0,0,1-1.694-1.594V23.738a1.7,1.7,0,0,1,1.594-1.694H73.576v4.983h4.285Z" transform="translate(-52.5 -20.3)" fill="#fff"/>
    </g>
  </g>
  <g id="Group_2488" data-name="Group 2488" transform="translate(0 55.008)">
    <path id="Path_14525" data-name="Path 14525" d="M11.414,122.861H9.371l-1-2.84H3.99l-.947,2.84H1L5.185,111.7H7.278Zm-3.488-4.385-1.545-4.435a5.3,5.3,0,0,1-.149-.7h-.05a5.3,5.3,0,0,1-.149.7l-1.545,4.435Z" transform="translate(-1 -111.052)" fill="#606060"/>
    <path id="Path_14526" data-name="Path 14526" d="M29.526,118.847l-4.285,5.83h4.285v1.4H22.7v-.7l4.385-5.88H23.1v-1.4h6.428Z" transform="translate(-11.888 -114.263)" fill="#606060"/>
    <path id="Path_14527" data-name="Path 14527" d="M46.225,126.072H44.431v-1.246h-.05a2.658,2.658,0,0,1-2.441,1.445c-1.893,0-2.84-1.146-2.84-3.388V118.1h1.794v4.584c0,1.445.548,2.143,1.644,2.143a1.541,1.541,0,0,0,1.3-.6,2.219,2.219,0,0,0,.5-1.545V118.1h1.794v7.972Z" transform="translate(-20.116 -114.263)" fill="#606060"/>
    <path id="Path_14528" data-name="Path 14528" d="M62.734,119.744a1.65,1.65,0,0,0-.947-.249,1.581,1.581,0,0,0-1.345.747,3.377,3.377,0,0,0-.548,1.993v3.837H58.1V118.1h1.794v1.644h.05a3.027,3.027,0,0,1,.8-1.3A1.914,1.914,0,0,1,61.986,118a1.4,1.4,0,0,1,.747.149v1.594Z" transform="translate(-29.649 -114.213)" fill="#606060"/>
    <path id="Path_14529" data-name="Path 14529" d="M76.025,122.384H70.594a2.139,2.139,0,0,0,.7,1.694,2.6,2.6,0,0,0,1.794.6,3.97,3.97,0,0,0,2.342-.747v1.445a5.509,5.509,0,0,1-2.89.7,3.394,3.394,0,0,1-2.74-1.1,4.462,4.462,0,0,1-1-3.039,4.224,4.224,0,0,1,1.1-3.039,3.588,3.588,0,0,1,2.74-1.2,3.165,3.165,0,0,1,2.541,1.046,4.411,4.411,0,0,1,.9,2.94v.7Zm-1.744-1.3a2.232,2.232,0,0,0-.448-1.495,1.547,1.547,0,0,0-1.246-.548,1.809,1.809,0,0,0-1.3.548,2.566,2.566,0,0,0-.648,1.495Z" transform="translate(-35.018 -114.063)" fill="#606060"/>
    <path id="Path_14530" data-name="Path 14530" d="M95.9,122.861V111.7h3.538a4.166,4.166,0,0,1,2.541.7,2.142,2.142,0,0,1,.947,1.844,2.613,2.613,0,0,1-.548,1.644,2.947,2.947,0,0,1-1.495,1v.05a2.9,2.9,0,0,1,1.844.847,2.682,2.682,0,0,1,.7,1.893,2.9,2.9,0,0,1-1.146,2.342,4.4,4.4,0,0,1-2.84.9H95.9Zm1.844-9.716v3.189h1.2a2.232,2.232,0,0,0,1.495-.448,1.652,1.652,0,0,0,.548-1.3c0-.947-.648-1.445-1.893-1.445Zm0,4.684v3.538h1.594a2.19,2.19,0,0,0,1.594-.5,1.506,1.506,0,0,0,.548-1.3c0-1.146-.8-1.744-2.392-1.744Z" transform="translate(-48.615 -111.052)" fill="#606060"/>
    <path id="Path_14531" data-name="Path 14531" d="M116.694,122.209H114.9V110.4h1.794Z" transform="translate(-58.148 -110.4)" fill="#606060"/>
    <path id="Path_14532" data-name="Path 14532" d="M126.236,126.021a3.908,3.908,0,0,1-2.94-1.1,3.984,3.984,0,0,1-1.1-2.94,3.956,3.956,0,0,1,4.235-4.285,3.721,3.721,0,0,1,2.89,1.1,4.25,4.25,0,0,1,1.046,3.039,4.1,4.1,0,0,1-1.146,3.039A3.8,3.8,0,0,1,126.236,126.021Zm.1-6.876a2.158,2.158,0,0,0-1.694.747,3.215,3.215,0,0,0-.6,2.043,2.828,2.828,0,0,0,.648,1.993,1.954,1.954,0,0,0,1.644.7,2.1,2.1,0,0,0,1.644-.7,2.97,2.97,0,0,0,.548-1.993,3.435,3.435,0,0,0-.548-2.043A1.99,1.99,0,0,0,126.336,119.145Z" transform="translate(-61.811 -114.063)" fill="#606060"/>
    <path id="Path_14533" data-name="Path 14533" d="M144.144,121.063h0l-.05,1.146H142.3V110.4h1.794v5.232h.05a2.985,2.985,0,0,1,2.691-1.594,2.826,2.826,0,0,1,2.342,1.046,4.635,4.635,0,0,1,.847,2.89,4.867,4.867,0,0,1-.947,3.189,3.178,3.178,0,0,1-2.641,1.2A2.591,2.591,0,0,1,144.144,121.063Zm-.05-3.189v1a2.206,2.206,0,0,0,.548,1.495,1.809,1.809,0,0,0,1.4.6,1.873,1.873,0,0,0,1.594-.8,3.581,3.581,0,0,0,.548-2.192,2.9,2.9,0,0,0-.548-1.844,1.731,1.731,0,0,0-1.445-.648,1.968,1.968,0,0,0-1.545.7A2.656,2.656,0,0,0,144.094,117.874Z" transform="translate(-71.896 -110.4)" fill="#606060"/>
    <path id="Path_14534" data-name="Path 14534" d="M25.8,160.612v-1.893a2.5,2.5,0,0,0,.6.4,2.349,2.349,0,0,0,.747.3c.249.05.548.15.8.2a3.768,3.768,0,0,0,.747.05,3.218,3.218,0,0,0,1.744-.4,1.238,1.238,0,0,0,.548-1.146,1.144,1.144,0,0,0-.2-.7,2.843,2.843,0,0,0-.548-.548c-.249-.149-.5-.3-.8-.448s-.648-.3-1-.448a9.778,9.778,0,0,1-1.046-.6,3.958,3.958,0,0,1-.847-.7,2.251,2.251,0,0,1-.548-.847,2.535,2.535,0,0,1-.2-1.1,2.255,2.255,0,0,1,.349-1.345,2.866,2.866,0,0,1,.947-.947,4.229,4.229,0,0,1,1.3-.548,7.692,7.692,0,0,1,1.495-.2,6.238,6.238,0,0,1,2.541.4v1.844a4.162,4.162,0,0,0-2.441-.7,3.873,3.873,0,0,0-.8.1,4.387,4.387,0,0,0-.747.249,1.558,1.558,0,0,0-.548.448,1.054,1.054,0,0,0-.2.7,1.379,1.379,0,0,0,.149.648,1.413,1.413,0,0,0,.448.5,4.919,4.919,0,0,0,.747.448,9.7,9.7,0,0,0,1,.448,7.928,7.928,0,0,1,1.1.648,3.263,3.263,0,0,1,.9.747,4.146,4.146,0,0,1,.648.9,2.768,2.768,0,0,1,.249,1.146,2.7,2.7,0,0,1-.349,1.445,2.867,2.867,0,0,1-.947.947,5.437,5.437,0,0,1-1.345.548,8.246,8.246,0,0,1-1.594.15,3.787,3.787,0,0,1-.7-.05,6.1,6.1,0,0,1-.847-.149,3.733,3.733,0,0,1-.8-.2C26.2,160.811,25.949,160.712,25.8,160.612Z" transform="translate(-13.443 -130.118)" fill="#606060"/>
    <path id="Path_14535" data-name="Path 14535" d="M46.282,162.014a2.8,2.8,0,0,1-1.4.249c-1.545,0-2.342-.747-2.342-2.242v-4.484H41.2v-1.4h1.345V152.3l1.794-.5v2.342h1.893v1.4H44.339v3.986a1.714,1.714,0,0,0,.249,1,1.026,1.026,0,0,0,.847.3,1.505,1.505,0,0,0,.8-.249v1.445Z" transform="translate(-21.17 -131.172)" fill="#606060"/>
    <path id="Path_14536" data-name="Path 14536" d="M57.336,164.421a3.908,3.908,0,0,1-2.94-1.1,3.984,3.984,0,0,1-1.1-2.94,3.956,3.956,0,0,1,4.235-4.285,3.721,3.721,0,0,1,2.89,1.1,4.25,4.25,0,0,1,1.046,3.039,4.1,4.1,0,0,1-1.146,3.039A3.732,3.732,0,0,1,57.336,164.421Zm.1-6.876a2.158,2.158,0,0,0-1.694.747,3.215,3.215,0,0,0-.6,2.043,2.828,2.828,0,0,0,.648,1.993,1.954,1.954,0,0,0,1.644.7,2.1,2.1,0,0,0,1.644-.7,2.97,2.97,0,0,0,.548-1.993,3.435,3.435,0,0,0-.548-2.043A1.991,1.991,0,0,0,57.436,157.545Z" transform="translate(-27.241 -133.329)" fill="#606060"/>
    <path id="Path_14537" data-name="Path 14537" d="M78.034,158.144a1.65,1.65,0,0,0-.947-.249,1.581,1.581,0,0,0-1.345.747,3.377,3.377,0,0,0-.548,1.993v3.837H73.4V156.5h1.794v1.644h.05a3.027,3.027,0,0,1,.8-1.3,1.913,1.913,0,0,1,1.246-.448,1.4,1.4,0,0,1,.747.15Z" transform="translate(-37.326 -133.48)" fill="#606060"/>
    <path id="Path_14538" data-name="Path 14538" d="M90.827,164.272H89.033v-1.246h0a2.658,2.658,0,0,1-2.441,1.445,2.453,2.453,0,0,1-1.844-.648,2.253,2.253,0,0,1-.648-1.694c0-1.495.847-2.392,2.591-2.641l2.392-.349c0-1.146-.548-1.694-1.644-1.694a4.024,4.024,0,0,0-2.591,1v-1.594a5.55,5.55,0,0,1,2.89-.747c1.993,0,3.039,1,3.039,2.99v5.182Zm-1.744-3.936-1.694.249a2.606,2.606,0,0,0-1.2.4,1.13,1.13,0,0,0-.4.947,1.093,1.093,0,0,0,.349.847,1.436,1.436,0,0,0,.947.3,1.706,1.706,0,0,0,1.345-.6,2.171,2.171,0,0,0,.548-1.445v-.7Z" transform="translate(-42.695 -133.329)" fill="#606060"/>
    <path id="Path_14539" data-name="Path 14539" d="M108.623,163.674c0,2.94-1.495,4.385-4.435,4.385a6.727,6.727,0,0,1-2.74-.5v-1.644a5.088,5.088,0,0,0,2.491.747c1.893,0,2.84-.947,2.84-2.79v-.9h-.05a3.128,3.128,0,0,1-5.032.5,4.219,4.219,0,0,1-.9-2.84,5.012,5.012,0,0,1,.947-3.239,3.178,3.178,0,0,1,2.641-1.2,2.56,2.56,0,0,1,2.342,1.3h.05v-1.1h1.794v7.275Zm-1.744-3.039v-1.046a2.171,2.171,0,0,0-.548-1.445,1.809,1.809,0,0,0-1.4-.6,1.834,1.834,0,0,0-1.594.747,3.327,3.327,0,0,0-.6,2.143,3.16,3.16,0,0,0,.548,1.893,1.95,1.95,0,0,0,2.99,0A2.344,2.344,0,0,0,106.879,160.635Z" transform="translate(-51.074 -133.38)" fill="#606060"/>
    <path id="Path_14540" data-name="Path 14540" d="M127.525,160.784h-5.431a2.139,2.139,0,0,0,.7,1.694,2.6,2.6,0,0,0,1.794.6,3.97,3.97,0,0,0,2.342-.747v1.445a5.509,5.509,0,0,1-2.89.7,3.394,3.394,0,0,1-2.74-1.1,4.462,4.462,0,0,1-1-3.039,4.224,4.224,0,0,1,1.1-3.039,3.588,3.588,0,0,1,2.74-1.2,3.165,3.165,0,0,1,2.541,1.046,4.411,4.411,0,0,1,.9,2.94v.7Zm-1.744-1.3a2.232,2.232,0,0,0-.448-1.495,1.547,1.547,0,0,0-1.246-.548,1.809,1.809,0,0,0-1.3.548,2.566,2.566,0,0,0-.648,1.495Z" transform="translate(-60.858 -133.329)" fill="#606060"/>
  </g>
</svg>
