<svg id="Group_2150" data-name="Group 2150" xmlns="http://www.w3.org/2000/svg" width="156.027" height="18.351" viewBox="0 0 156.027 18.351">
  <path id="Path_17883" data-name="Path 17883" d="M517.994,262.27h-2.925v1.346h.328a.572.572,0,0,1,.44.137.609.609,0,0,1,.12.429v7.552h3.049v-8.383a1.12,1.12,0,0,0-.285-.782.981.981,0,0,0-.728-.3m-.684-3.232a1.979,1.979,0,0,0-1.268.385,1.382,1.382,0,0,0-.5,1.112,1.289,1.289,0,0,0,.5,1.08,2.5,2.5,0,0,0,2.549,0,1.3,1.3,0,0,0,.476-1.078,1.4,1.4,0,0,0-.471-1.111,1.971,1.971,0,0,0-1.291-.388Zm-4.236.2h-2.86v1.416h.331c.428.03.534.1.559.5v10.58h2.856v-.192h.192V260.328a1.09,1.09,0,0,0-.3-.789,1.076,1.076,0,0,0-.781-.3Zm-12.031,0h-4.563v1.416h.534a1.042,1.042,0,0,1,.533.088c.06.044.09.089.1.272a2.53,2.53,0,0,1-.2.97l-3.225,9.746h3.142l.042-.138.848-2.821h3.268l.821,2.958h3.406l-3.21-11.39a1.308,1.308,0,0,0-1.487-1.1Zm-2.269,7.225,1.169-3.923L501,266.467Zm9.448-7.225h-2.858v1.416h.333a.656.656,0,0,1,.449.111.5.5,0,0,1,.111.385v10.579h2.859v-.192h.192V260.328a1.121,1.121,0,0,0-.267-.786,1.074,1.074,0,0,0-.816-.3Zm27.336,2.958a4.147,4.147,0,0,0-2.815,1.154v-.064a1.1,1.1,0,0,0-.217-.744.914.914,0,0,0-.728-.273H528.94v1.346h.329a.573.573,0,0,1,.441.137.617.617,0,0,1,.119.43v7.552h2.856v-.192h.192v-6.1a1.988,1.988,0,0,1,1.45-.652c.285.005.4.058.482.169a1.476,1.476,0,0,1,.144.81v5.97h2.982v-6.384a3.687,3.687,0,0,0-.513-2.383,2.272,2.272,0,0,0-1.86-.771Zm-7.465,8.071a.465.465,0,0,1-.128-.38V265.42a3.53,3.53,0,0,0-.712-2.533,3.272,3.272,0,0,0-2.486-.755,7.739,7.739,0,0,0-2.175.283,9.124,9.124,0,0,0-1.875.7l-.157.078.786,2.039.185-.081.237-.108a6.8,6.8,0,0,1,1.523-.469,4.571,4.571,0,0,1,.79-.064,1.1,1.1,0,0,1,.759.192.925.925,0,0,1,.21.719v.041c-1.167.187-1.515.26-2.1.389a5.5,5.5,0,0,0-1.125.351,2.772,2.772,0,0,0-1.691,2.864,3.1,3.1,0,0,0,.577,2.043,2.233,2.233,0,0,0,1.8.7h.012a3.685,3.685,0,0,0,1.8-.44,5.7,5.7,0,0,0,.809-.577,1.089,1.089,0,0,0,.241.665.9.9,0,0,0,.7.281h2.722v-1.346h-.256A.646.646,0,0,1,528.093,270.272Zm-3.046-1.422a2.107,2.107,0,0,1-1.448.714c-.285,0-.415-.061-.492-.153a.988.988,0,0,1-.137-.621c.02-.655.147-.857.629-1.06a5.948,5.948,0,0,1,1.448-.363Zm21.037.712h-3.655l3.714-5.183v-2.109h-5.935a1.172,1.172,0,0,0-.87.281,1.193,1.193,0,0,0-.277.873v1.843H540.4v-.4a.5.5,0,0,1,.111-.385.651.651,0,0,1,.449-.11h1.745l-3.715,5.179v2.18h7.288v-1.979h-.192Zm19.85-9.624a9.225,9.225,0,0,0-6.584-2.595,9.041,9.041,0,0,0-6.5,2.595l-.022.025-.028.026a9.164,9.164,0,0,0,6.561,15.7h0a9.123,9.123,0,0,0,6.527-2.615l.023-.024.029-.028a9.47,9.47,0,0,0-.009-13.085Zm-1.359,11.872a7.281,7.281,0,0,1-5.224,2.067,7.054,7.054,0,0,1-7.195-7.381,7.49,7.49,0,0,1,2.011-5.3,7.365,7.365,0,0,1,12.453,5.348,7.417,7.417,0,0,1-2.046,5.265Zm-7.482-9.109h-1.515a1.214,1.214,0,0,0-.9.3,1.231,1.231,0,0,0-.3.9v7.5h2.712v-.051h.051V262.9h-.051Zm3.319-2a1.25,1.25,0,0,0-.921-.276h-2.335v1.386h.052v.2h.375c.244,0,.348.038.374.07l.014.019c0,.044.006.094.006.153V271.4H560.5v-.051h.051v-.137h.136v-.049h.051v-9.341a1.776,1.776,0,0,0-.087-.6.943.943,0,0,0-.242-.522Zm3.6,2.3a1.211,1.211,0,0,0-.923-.3h-1.516v8.7h2.709v-.051h.051v-7.256a1.707,1.707,0,0,0-.085-.569,1,1,0,0,0-.237-.523Z" transform="translate(-412.534 -257.341)" fill="#0069b4" fill-rule="evenodd"/>
  <path id="Path_17884" data-name="Path 17884" d="M122.755,277.361m-3.655,4.7V270.9h9.962c2.056,0,5.36.275,5.36,2.928a2.9,2.9,0,0,1-2.5,2.556c1.667.5,2.5,1.416,2.5,2.669,0,2.738-3.142,3-5.36,3.008Zm3.655-4.7,1.056-1.712a1.453,1.453,0,0,1,1.186-.63h4.063c.728,0,1.32-.328,1.32-.887s-.583-.888-1.32-.888h-6.3Zm0,0v4.7l1.056-1.717a1.457,1.457,0,0,1,1.186-.628h4.018a1.191,1.191,0,1,0,0-2.355Zm20.507-3.773-4.937,8.476h-4.3L140.91,270.9h4.706l6.881,11.163h-4.3l-1.154-1.988h-6.371l1.057-1.713a1.448,1.448,0,0,1,1.186-.63h2.76Zm29.9,0-4.937,8.476h-4.3l6.884-11.163h4.706l6.877,11.163h-4.3l-1.154-1.988h-6.368l1.057-1.713a1.446,1.446,0,0,1,1.182-.63h2.763Zm-14.023,6.129c.834,0,1.506-.4,1.506-1.211V270.9H164.3v7.946c0,2.411-1.6,3.217-3.712,3.217H154.5a1.454,1.454,0,0,1-1.184-.628l-1.059-1.718Zm29.9,0c.829,0,1.507-.4,1.507-1.211V270.9H194.2v7.946c0,2.411-1.607,3.217-3.712,3.217H184.4a1.453,1.453,0,0,1-1.184-.628l-1.058-1.718Z" transform="translate(-119.1 -267.305)" fill="#0069b4" fill-rule="evenodd"/>
</svg>
