<svg width="20" height="20" viewBox="0 0 20 20" fill="none" xmlns="http://www.w3.org/2000/svg">
<path fill-rule="evenodd" clip-rule="evenodd" d="M10.2739 2.04284L18.9194 5.08978C19.0146 5.1279 19.0906 5.22314 19.1096 5.33738L19.1098 7.67962C19.1098 7.83198 18.9956 7.94622 18.8432 7.94622H16.9581V16.0008H18.8242C18.9766 16.0008 19.0908 16.1151 19.0908 16.2674V18.5336C19.0908 18.6859 18.9765 18.8002 18.8242 18.8002H1.26659C1.11424 18.8002 1 18.6859 1 18.5336V16.2674C1 16.1151 1.11423 16.0008 1.26659 16.0008H3.13277V7.94622H1.28565C1.1333 7.94622 1.01906 7.83198 1.01906 7.67962V5.33738C1.01906 5.22314 1.07618 5.1279 1.19042 5.08978L9.83591 2.04284C9.98827 1.98572 10.1405 1.98572 10.2739 2.04284ZM5.9321 7.94622V16.0008H8.6362V7.94622H5.9321ZM11.4355 7.94622V16.0008H14.1587V7.94622H11.4355Z" fill="#ECF3FF"/>
<path d="M18.9194 5.08978L19.198 4.39347L19.1835 4.38764L19.1686 4.38242L18.9194 5.08978ZM10.2739 2.04284L9.97859 2.73227L10.0013 2.74199L10.0246 2.75019L10.2739 2.04284ZM19.1096 5.33738L19.8596 5.33729L19.8596 5.2754L19.8494 5.21435L19.1096 5.33738ZM19.1098 7.67962H19.8598V7.67954L19.1098 7.67962ZM16.9581 7.94622V7.19622H16.2081V7.94622H16.9581ZM16.9581 16.0008H16.2081V16.7508H16.9581V16.0008ZM3.13277 16.0008V16.7508H3.88277V16.0008H3.13277ZM3.13277 7.94622H3.88277V7.19622H3.13277V7.94622ZM1.19042 5.08978L1.42787 5.80131L1.43971 5.79713L1.19042 5.08978ZM9.83591 2.04284L10.0852 2.75019L10.0922 2.74772L10.0992 2.74511L9.83591 2.04284ZM5.9321 16.0008H5.1821V16.7508H5.9321V16.0008ZM5.9321 7.94622V7.19622H5.1821V7.94622H5.9321ZM8.6362 16.0008V16.7508H9.3862V16.0008H8.6362ZM8.6362 7.94622H9.3862V7.19622H8.6362V7.94622ZM11.4355 16.0008H10.6855V16.7508H11.4355V16.0008ZM11.4355 7.94622V7.19622H10.6855V7.94622H11.4355ZM14.1587 16.0008V16.7508H14.9087V16.0008H14.1587ZM14.1587 7.94622H14.9087V7.19622H14.1587V7.94622ZM19.1686 4.38242L10.5232 1.33548L10.0246 2.75019L18.6701 5.79713L19.1686 4.38242ZM19.8494 5.21435C19.7907 4.86137 19.5547 4.53622 19.198 4.39347L18.6407 5.78608C18.4745 5.71958 18.3904 5.5849 18.3697 5.4604L19.8494 5.21435ZM19.8598 7.67954L19.8596 5.33729L18.3596 5.33746L18.3598 7.67971L19.8598 7.67954ZM18.8432 8.69622C19.4098 8.69622 19.8598 8.24618 19.8598 7.67962H18.3598C18.3598 7.56329 18.4058 7.43724 18.5033 7.33973C18.6009 7.24221 18.7269 7.19622 18.8432 7.19622V8.69622ZM16.9581 8.69622H18.8432V7.19622H16.9581V8.69622ZM17.7081 16.0008V7.94622H16.2081V16.0008H17.7081ZM18.8242 15.2508H16.9581V16.7508H18.8242V15.2508ZM19.8408 16.2674C19.8408 15.7011 19.391 15.2508 18.8242 15.2508V16.7508C18.7079 16.7508 18.5818 16.7048 18.4842 16.6072C18.3867 16.5097 18.3408 16.3836 18.3408 16.2674H19.8408ZM19.8408 18.5336V16.2674H18.3408V18.5336H19.8408ZM18.8242 19.5502C19.3908 19.5502 19.8408 19.1001 19.8408 18.5336H18.3408C18.3408 18.4172 18.3868 18.2912 18.4843 18.1937C18.5818 18.0962 18.7078 18.0502 18.8242 18.0502V19.5502ZM1.26659 19.5502H18.8242V18.0502H1.26659V19.5502ZM0.25 18.5336C0.25 19.1001 0.700025 19.5502 1.26659 19.5502V18.0502C1.38293 18.0502 1.50898 18.0962 1.60649 18.1937C1.704 18.2912 1.75 18.4172 1.75 18.5336H0.25ZM0.25 16.2674V18.5336H1.75V16.2674H0.25ZM1.26659 15.2508C0.700015 15.2508 0.25 15.7009 0.25 16.2674H1.75C1.75 16.3837 1.70401 16.5098 1.60649 16.6073C1.50898 16.7048 1.38292 16.7508 1.26659 16.7508V15.2508ZM3.13277 15.2508H1.26659V16.7508H3.13277V15.2508ZM2.38277 7.94622V16.0008H3.88277V7.94622H2.38277ZM1.28565 8.69622H3.13277V7.19622H1.28565V8.69622ZM0.26906 7.67962C0.26906 8.2462 0.71909 8.69622 1.28565 8.69622V7.19622C1.40198 7.19622 1.52804 7.24221 1.62555 7.33972C1.72306 7.43723 1.76906 7.56329 1.76906 7.67962H0.26906ZM0.26906 5.33738V7.67962H1.76906V5.33738H0.26906ZM0.952997 4.37835C0.491025 4.53252 0.26906 4.94656 0.26906 5.33738H1.76906C1.76906 5.40467 1.75172 5.50235 1.68601 5.60095C1.61705 5.70442 1.52002 5.77044 1.42784 5.80121L0.952997 4.37835ZM9.58661 1.33548L0.941122 4.38242L1.43971 5.79713L10.0852 2.75019L9.58661 1.33548ZM10.5691 1.35341C10.2361 1.21076 9.88203 1.22458 9.57264 1.34057L10.0992 2.74511C10.0984 2.7454 10.0856 2.75 10.062 2.75C10.0377 2.75 10.0083 2.745 9.97859 2.73227L10.5691 1.35341ZM6.6821 16.0008V7.94622H5.1821V16.0008H6.6821ZM8.6362 15.2508H5.9321V16.7508H8.6362V15.2508ZM7.8862 7.94622V16.0008H9.3862V7.94622H7.8862ZM5.9321 8.69622H8.6362V7.19622H5.9321V8.69622ZM12.1855 16.0008V7.94622H10.6855V16.0008H12.1855ZM14.1587 15.2508H11.4355V16.7508H14.1587V15.2508ZM13.4087 7.94622V16.0008H14.9087V7.94622H13.4087ZM11.4355 8.69622H14.1587V7.19622H11.4355V8.69622Z" fill="#1163FB"/>
</svg>
