<svg id="Group_2102" data-name="Group 2102" xmlns="http://www.w3.org/2000/svg" width="117.763" height="24.638" viewBox="0 0 117.763 24.638">
  <g id="Ebene_1" transform="translate(0 0)">
    <g id="Group_2101" data-name="Group 2101" transform="translate(0 0)">
      <path id="Path_17942" data-name="Path 17942" d="M82.843,270.443c0-.353-.02-.705-.039-1.04s-.078-.687-.118-1.02H73.149l-1.454,2.278-1.452,2.277H77.6a7.208,7.208,0,0,1-2.414,3.67,6.71,6.71,0,0,1-4.239,1.452,7.306,7.306,0,0,1-5.279-2.256,7.711,7.711,0,0,1-2.18-5.4,7.583,7.583,0,0,1,10.05-7.146,7.294,7.294,0,0,1,2.12,1.118l1.276-2.041,1.276-2.041a11.161,11.161,0,0,0-3.3-1.59,13.813,13.813,0,0,0-8.872.392,11.936,11.936,0,0,0-3.886,2.589,13.979,13.979,0,0,0-3.866,7.674c-.53,2.436-.824,4.651-2.611,6.418a7.307,7.307,0,0,1-5.358,2.257,7.78,7.78,0,0,1-5.476-2.277,7.418,7.418,0,0,1,0-10.657,7.81,7.81,0,0,1,5.476-2.3,9.08,9.08,0,0,1,2.493.392,6.877,6.877,0,0,1,2.1,1.079l1.3-2.041,1.3-2.041a11.244,11.244,0,0,0-3.278-1.57,13.778,13.778,0,0,0-3.886-.53,12.5,12.5,0,0,0-10.147,5.123,6.217,6.217,0,0,0-2.571-3.317,8.192,8.192,0,0,0-4.572-1.289H22v23.631H34.169a8.332,8.332,0,0,0,4.043-1,7.056,7.056,0,0,0,2.669-2.591,12.33,12.33,0,0,0,4.082,2.983,13.007,13.007,0,0,0,11.167-.334,12.306,12.306,0,0,0,4.359-3.866,11.675,11.675,0,0,0,4.318,3.846,12.871,12.871,0,0,0,6.006,1.452,11.784,11.784,0,0,0,8.557-3.611,12.337,12.337,0,0,0,3.474-8.675Zm-55.721-2.257v-5.162h5.829a2.659,2.659,0,0,1,1.868.726,2.591,2.591,0,0,1-1.865,4.436Zm0,9.679v-5.358h6.986a2.894,2.894,0,0,1,1.982.765,2.56,2.56,0,0,1,.824,1.9,2.636,2.636,0,0,1-.824,1.923,2.82,2.82,0,0,1-1.982.785H27.123Z" transform="translate(-22 -258.093)" fill="#007254"/>
      <path id="Path_17943" data-name="Path 17943" d="M369.841,281.058a.385.385,0,0,1,.02.157c0,.059.02.137.02.2a2.645,2.645,0,0,1-.705,1.865,2.513,2.513,0,0,1-1.845.746,2.652,2.652,0,0,1-1.923-.8,2.756,2.756,0,0,1,1.963-4.691,3.206,3.206,0,0,1,.883.118,2.312,2.312,0,0,1,.765.373l-.216.334-.216.334a1.754,1.754,0,0,0-.569-.294,2.245,2.245,0,0,0-.647-.1,1.882,1.882,0,0,0-1.334.549,1.956,1.956,0,0,0-.549,1.393,2.011,2.011,0,0,0,.53,1.393,1.777,1.777,0,0,0,1.315.569,1.749,1.749,0,0,0,1.178-.412,1.8,1.8,0,0,0,.549-1.04h-1.786l.235-.373.235-.373,2.1.059Zm8.872,3a2.826,2.826,0,0,0,1.963-.8,2.7,2.7,0,0,0,0-3.846,2.79,2.79,0,0,0-1.963-.8,2.728,2.728,0,0,0,0,5.456Zm4.75-5.358v3.22a1.335,1.335,0,1,0,2.669,0V278.7h.824v3.219a2.193,2.193,0,0,1-3.709,1.531,2.068,2.068,0,0,1-.628-1.531V278.7Zm-10.284,0a1.809,1.809,0,0,1,1.315.491,1.627,1.627,0,0,1,.491,1.2,1.688,1.688,0,0,1-.314,1,1.389,1.389,0,0,1-.863.549l.628,1,.628,1h-.983l-.589-.942-.589-.942h-1v1.884h-.844V278.7Zm17.35,0a1.982,1.982,0,0,1,1.334.491,1.672,1.672,0,0,1,.491,1.218,1.7,1.7,0,0,1-.491,1.218,1.859,1.859,0,0,1-1.335.491h-1.2v1.825h-.844v-5.24Zm-11.815,4.573a1.82,1.82,0,0,1-1.334-.569,1.992,1.992,0,0,1,0-2.748,1.854,1.854,0,0,1,1.334-.569,1.9,1.9,0,0,1,1.354.569,2.014,2.014,0,0,1,.549,1.374,1.942,1.942,0,0,1-.549,1.374,1.832,1.832,0,0,1-1.354.569Zm11.815-1.9a1.02,1.02,0,0,0,.687-.256.886.886,0,0,0,.275-.687.916.916,0,0,0-.275-.687,1.02,1.02,0,0,0-.687-.256h-1.2v1.884Zm-17.35-.078a.956.956,0,0,0,.667-.235.9.9,0,0,0,.256-.667.876.876,0,0,0-.922-.922H371.9V281.3Zm41.9-9.422a.384.384,0,0,1,.02.157c0,.059.02.137.02.2a2.645,2.645,0,0,1-.705,1.865,2.527,2.527,0,0,1-1.845.765,2.62,2.62,0,0,1-1.923-.8,2.727,2.727,0,0,1-.785-1.943,2.664,2.664,0,0,1,.8-1.943,2.743,2.743,0,0,1,1.941-.805,3.2,3.2,0,0,1,.883.118,2.312,2.312,0,0,1,.765.373l-.216.334-.216.334a1.753,1.753,0,0,0-.569-.294,2.244,2.244,0,0,0-.647-.1,1.883,1.883,0,0,0-1.335.549,2.069,2.069,0,0,0-.02,2.787,1.777,1.777,0,0,0,1.315.569,1.749,1.749,0,0,0,1.177-.412,1.8,1.8,0,0,0,.549-1.04H412.51l.235-.373.235-.373,2.1.039Zm-27.1-2.355v3.219a1.335,1.335,0,1,0,2.669,0v-3.219h.824v3.219a2.193,2.193,0,0,1-3.709,1.531,2.068,2.068,0,0,1-.628-1.531v-3.219Zm-3.906,5.358a2,2,0,0,0,1.354-.449,1.527,1.527,0,0,0,.491-1.138,1.218,1.218,0,0,0-.491-1.04,3.53,3.53,0,0,0-1.1-.491,3.018,3.018,0,0,1-.824-.314.577.577,0,0,1-.314-.53.725.725,0,0,1,.216-.53.992.992,0,0,1,.687-.216,2.11,2.11,0,0,1,1.177.392l.216-.334.216-.334a2.386,2.386,0,0,0-.705-.353,3.06,3.06,0,0,0-.863-.137,1.872,1.872,0,0,0-1.3.432,1.508,1.508,0,0,0-.471,1.118,1.19,1.19,0,0,0,.491,1.04,3.508,3.508,0,0,0,1.1.471,3.83,3.83,0,0,1,.824.314.577.577,0,0,1,.314.53.67.67,0,0,1-.256.549,1.127,1.127,0,0,1-.746.216,2.287,2.287,0,0,1-.746-.137,4.546,4.546,0,0,1-.687-.353l-.216.334-.216.334a3.28,3.28,0,0,0,.785.432,2.835,2.835,0,0,0,1.06.2Zm-11.442,0a2.825,2.825,0,0,0,1.963-.8,2.755,2.755,0,1,0-1.963.805Zm-8.028-2.729a2.743,2.743,0,0,0,.8,1.943,2.838,2.838,0,0,0,1.982.8,3.027,3.027,0,0,0,.981-.157,2.57,2.57,0,0,0,.785-.432l-.216-.334-.216-.334a2.232,2.232,0,0,1-.628.353,2.168,2.168,0,0,1-.726.118,1.809,1.809,0,0,1-1.315-.569,2.026,2.026,0,0,1-.549-1.393,1.941,1.941,0,0,1,.549-1.393,1.809,1.809,0,0,1,1.315-.569,2.086,2.086,0,0,1,.726.118,2.23,2.23,0,0,1,.628.353l.216-.334.216-.334a2.77,2.77,0,0,0-.785-.432,3.026,3.026,0,0,0-.981-.157,2.748,2.748,0,0,0-2.787,2.748Zm37.9,2.611h-.844v-5.24h.844Zm2.669,0h-.8v-5.24h1.04l1.218,1.982,1.218,1.982v-3.964h.8v5.24h-.981l-1.256-2.022-1.256-2.022v4.043ZM400.38,270.3h-1.649v4.455h-.865V270.3h-1.629v-.785h4.141v.785Zm-6.575,3.673H396.4v.785h-3.435V269.52h.844v4.455Zm-16.409.785h-.8V269.52h1.04l1.218,1.982,1.218,1.982v-3.964h.8v5.24h-.981l-1.256-2.022-1.256-2.022v4.043Zm-4.769-.667a1.82,1.82,0,0,1-1.334-.569,2.014,2.014,0,0,1-.549-1.374,1.942,1.942,0,0,1,.549-1.374,1.853,1.853,0,0,1,1.334-.569,1.9,1.9,0,0,1,1.354.569,2.014,2.014,0,0,1,.549,1.374,1.942,1.942,0,0,1-.549,1.374A1.9,1.9,0,0,1,372.627,274.093ZM388,265.671a2.825,2.825,0,0,0,1.963-.8,2.732,2.732,0,0,0,.8-1.923,2.814,2.814,0,0,0-.8-1.943,2.748,2.748,0,0,0-3.906,3.866,2.664,2.664,0,0,0,1.943.8Zm-10.088,0a1.91,1.91,0,0,0,1.354-.449,1.527,1.527,0,0,0,.491-1.138,1.218,1.218,0,0,0-.491-1.04,4.05,4.05,0,0,0-1.1-.491,3.017,3.017,0,0,1-.824-.314.577.577,0,0,1-.314-.53.725.725,0,0,1,.216-.53.992.992,0,0,1,.687-.216,2.11,2.11,0,0,1,1.177.392l.216-.334.216-.334a2.386,2.386,0,0,0-.705-.353,3.059,3.059,0,0,0-.863-.137,1.872,1.872,0,0,0-1.3.432,1.508,1.508,0,0,0-.471,1.118,1.19,1.19,0,0,0,.491,1.04,3.508,3.508,0,0,0,1.1.471,3.828,3.828,0,0,1,.824.314.577.577,0,0,1,.314.53.669.669,0,0,1-.256.549,1.127,1.127,0,0,1-.746.216,2.288,2.288,0,0,1-.746-.137,4.543,4.543,0,0,1-.687-.353l-.216.334-.216.334a3.281,3.281,0,0,0,.785.432,2.494,2.494,0,0,0,1.06.2Zm-5.437,0a2.826,2.826,0,0,0,1.963-.8,2.732,2.732,0,0,0,.8-1.923,2.814,2.814,0,0,0-.8-1.943,2.748,2.748,0,0,0-3.906,3.866,2.664,2.664,0,0,0,1.943.8ZM393,260.332l1.218,1.983,1.218,1.982v-3.964h.8v5.24h-.983L394,263.552l-1.256-2.022v4.063h-.785v-5.241l1.04-.02Zm-8.283,0v.785h-1.649v4.455h-.863v-4.455h-1.629v-.785Zm-17.782,0a1.829,1.829,0,0,1,1.158.392,1.317,1.317,0,0,1,.471,1,1.218,1.218,0,0,1-.157.608,1.193,1.193,0,0,1-.449.432,1.421,1.421,0,0,1,.608.513,1.382,1.382,0,0,1,.216.746,1.453,1.453,0,0,1-.471,1.079,1.718,1.718,0,0,1-1.2.432h-2.238V260.3l2.061.039ZM388,264.883a1.82,1.82,0,0,1-1.334-.569,2.014,2.014,0,0,1-.549-1.374,1.977,1.977,0,0,1,.549-1.374A1.853,1.853,0,0,1,388,261a1.9,1.9,0,0,1,1.354.569,2.014,2.014,0,0,1,.549,1.374,1.942,1.942,0,0,1-.549,1.374A1.822,1.822,0,0,1,388,264.883Zm-15.525,0a1.82,1.82,0,0,1-1.334-.569,2.014,2.014,0,0,1-.549-1.374,1.978,1.978,0,0,1,.549-1.374A1.853,1.853,0,0,1,372.47,261a1.9,1.9,0,0,1,1.354.569,2.014,2.014,0,0,1,.549,1.374,1.942,1.942,0,0,1-.549,1.374,1.822,1.822,0,0,1-1.354.569Zm-5.4-.078a.8.8,0,0,0,.589-.235.787.787,0,0,0,.235-.549.713.713,0,0,0-.235-.549.869.869,0,0,0-.589-.216h-1.354v1.531l1.354.02Zm-.137-2.257a.769.769,0,0,0,.549-.216.758.758,0,0,0,0-1.06.769.769,0,0,0-.549-.216h-1.218v1.474l1.218.02Z" transform="translate(-297.359 -259.778)" fill="#007254"/>
    </g>
  </g>
</svg>
