<svg width="24" height="24" viewBox="0 0 24 24" fill="none" xmlns="http://www.w3.org/2000/svg">
<path fill-rule="evenodd" clip-rule="evenodd" d="M12 6C18.6274 6 24 4.65685 24 3C24 1.34315 18.6274 0 12 0C5.37258 0 0 1.34315 0 3C0 4.65685 5.37258 6 12 6ZM12 8.00025C5.373 8.00025 0 6.65725 0 5.00024V12.0002C0 13.6572 5.373 15.0002 12 15.0002C18.627 15.0002 24 13.6572 24 12.0002V5.00024C24 6.65725 18.627 8.00025 12 8.00025ZM3.5 12.0002C2.672 12.0002 2 11.3282 2 10.5002C2 9.67225 2.672 9.00025 3.5 9.00025C4.328 9.00025 5 9.67225 5 10.5002C5 11.3282 4.328 12.0002 3.5 12.0002ZM0 14.0002C0 15.6572 5.373 17.0002 12 17.0002C18.627 17.0002 24 15.6572 24 14.0002V21.0002C24 22.6572 18.627 24.0002 12 24.0002C5.373 24.0002 0 22.6572 0 21.0002V14.0002ZM2 19.5002C2 20.3282 2.672 21.0002 3.5 21.0002C4.328 21.0002 5 20.3282 5 19.5002C5 18.6722 4.328 18.0002 3.5 18.0002C2.672 18.0002 2 18.6722 2 19.5002Z" fill="white"/>
</svg>
