<svg width="30" height="32" viewBox="0 0 30 32" fill="none" xmlns="http://www.w3.org/2000/svg">
<path d="M15.9082 15.7289V22.8711L22.0935 19.3001V12.1578L15.9082 15.7289Z" fill="white"/>
<path d="M8.78467 10.5338L14.97 14.1049L21.1553 10.5338L14.97 6.96265L8.78467 10.5338Z" fill="white"/>
<path d="M14.0325 15.7289L7.84717 12.1578V19.3001L14.0325 22.8711V15.7289Z" fill="white"/>
<path d="M27.2034 5.37215C26.5292 5.37215 25.9117 5.61758 25.4341 6.02315L15.0017 0L4.53177 6.04484C4.05089 5.6264 3.42351 5.37215 2.73751 5.37215C1.228 5.37215 0 6.60015 0 8.10966C0 9.3126 0.780316 10.3361 1.86113 10.7024V22.7601L12.225 28.7437C12.1927 28.9118 12.1751 29.0851 12.1751 29.2626C12.1751 30.772 13.4031 32 14.9126 32C16.4221 32 17.6501 30.772 17.6501 29.2626C17.6501 29.1178 17.6386 28.9757 17.6168 28.8369L28.1423 22.76V10.6812C29.1907 10.2972 29.9409 9.28941 29.9409 8.10966C29.9409 6.60021 28.7128 5.37215 27.2034 5.37215ZM26.2644 21.676L16.7042 27.1955C16.2236 26.7785 15.5973 26.5252 14.9126 26.5252C14.2618 26.5252 13.6637 26.7538 13.1934 27.1344L3.73908 21.676V10.6565C4.75439 10.2559 5.47496 9.26566 5.47496 8.10966C5.47496 7.96609 5.46371 7.82516 5.44233 7.68753L15.0017 2.16838L24.5043 7.65472C24.4795 7.80278 24.4658 7.95459 24.4658 8.10966C24.4658 9.28941 25.216 10.2972 26.2644 10.6812V21.676Z" fill="white"/>
</svg>
