<svg width="25" height="24" viewBox="0 0 25 24" fill="none" xmlns="http://www.w3.org/2000/svg">
<path d="M12.5 22C11.95 22 11.4792 21.8042 11.0875 21.4125C10.6958 21.0208 10.5 20.55 10.5 20H14.5C14.5 20.55 14.3042 21.0208 13.9125 21.4125C13.5208 21.8042 13.05 22 12.5 22ZM8.5 19V17H16.5V19H8.5ZM8.75 16C7.6 15.3167 6.6875 14.4 6.0125 13.25C5.3375 12.1 5 10.85 5 9.5C5 7.41667 5.72917 5.64583 7.1875 4.1875C8.64583 2.72917 10.4167 2 12.5 2C14.5833 2 16.3542 2.72917 17.8125 4.1875C19.2708 5.64583 20 7.41667 20 9.5C20 10.85 19.6625 12.1 18.9875 13.25C18.3125 14.4 17.4 15.3167 16.25 16H8.75ZM9.35 14H15.65C16.4 13.4667 16.9792 12.8083 17.3875 12.025C17.7958 11.2417 18 10.4 18 9.5C18 7.96667 17.4667 6.66667 16.4 5.6C15.3333 4.53333 14.0333 4 12.5 4C10.9667 4 9.66667 4.53333 8.6 5.6C7.53333 6.66667 7 7.96667 7 9.5C7 10.4 7.20417 11.2417 7.6125 12.025C8.02083 12.8083 8.6 13.4667 9.35 14Z" fill="white"/>
</svg>
