<svg width="32" height="23" viewBox="0 0 32 23" fill="none" xmlns="http://www.w3.org/2000/svg">
<path d="M32 19.6196C31.9439 20.3564 31.6557 21.021 31.2152 21.5175C30.7187 22.0781 30.03 22.4224 29.2693 22.4224H2.73073C1.30531 22.4224 0.128128 21.1892 0 19.6196H11.996C11.996 20.0601 12.3564 20.4204 12.7968 20.4204H19.2032C19.6436 20.4204 20.004 20.0601 20.004 19.6196H32ZM29.6136 2.04204C29.6136 0.912912 28.7167 0 27.6116 0H4.38839C3.28328 0 2.38639 0.912912 2.38639 2.04204V12.0761L7.32733 7.13513C7.23924 6.91091 7.19119 6.66266 7.19119 6.40641C7.19119 5.3013 8.08809 4.4044 9.19319 4.4044C10.2983 4.4044 11.1952 5.3013 11.1952 6.40641C11.1952 6.66266 11.1471 6.91091 11.0591 7.13513L15.1672 11.2432C15.5035 10.971 15.9359 10.8108 16.4004 10.8108C16.6567 10.8108 16.9049 10.8589 17.1371 10.955L21.6456 7.1992C21.6216 7.07107 21.6056 6.94294 21.6056 6.80681C21.6056 5.7017 22.5025 4.8048 23.6076 4.8048C24.7127 4.8048 25.6096 5.7017 25.6096 6.80681C25.6096 7.91191 24.7127 8.80881 23.6076 8.80881C23.2232 8.80881 22.8709 8.70471 22.5666 8.51251L18.2663 12.1001C18.3544 12.3243 18.4024 12.5646 18.4024 12.8128C18.4024 13.9179 17.5055 14.8148 16.4004 14.8148C15.2953 14.8148 14.3984 13.9179 14.3984 12.8128V12.7487L9.92192 8.27227C9.6977 8.36036 9.44945 8.40841 9.19319 8.40841C8.93694 8.40841 8.68869 8.36036 8.46446 8.27227L2.38639 14.3504V18.018H29.6136V2.04204Z" fill="white"/>
</svg>
