<svg width="20" height="20" viewBox="0 0 20 20" fill="none" xmlns="http://www.w3.org/2000/svg">
<path d="M15.8333 10C15.8333 8.375 15.2674 6.99653 14.1354 5.86458C13.0035 4.73264 11.625 4.16667 10 4.16667V2.5C11.0417 2.5 12.0174 2.69792 12.9271 3.09375C13.8368 3.48958 14.6285 4.02431 15.3021 4.69792C15.9757 5.37153 16.5104 6.16319 16.9062 7.07292C17.3021 7.98264 17.5 8.95833 17.5 10H15.8333ZM12.5 10C12.5 9.30556 12.2569 8.71528 11.7708 8.22917C11.2847 7.74306 10.6944 7.5 10 7.5V5.83333C11.1528 5.83333 12.1354 6.23958 12.9479 7.05208C13.7604 7.86458 14.1667 8.84722 14.1667 10H12.5ZM16.625 17.5C14.8889 17.5 13.1736 17.1215 11.4792 16.3646C9.78472 15.6076 8.24306 14.5347 6.85417 13.1458C5.46528 11.7569 4.39236 10.2153 3.63542 8.52083C2.87847 6.82639 2.5 5.11111 2.5 3.375C2.5 3.125 2.58333 2.91667 2.75 2.75C2.91667 2.58333 3.125 2.5 3.375 2.5H6.75C6.94444 2.5 7.11806 2.56597 7.27083 2.69792C7.42361 2.82986 7.51389 2.98611 7.54167 3.16667L8.08333 6.08333C8.11111 6.30556 8.10417 6.49306 8.0625 6.64583C8.02083 6.79861 7.94444 6.93056 7.83333 7.04167L5.8125 9.08333C6.09028 9.59722 6.42014 10.0938 6.80208 10.5729C7.18403 11.0521 7.60417 11.5139 8.0625 11.9583C8.49306 12.3889 8.94444 12.7882 9.41667 13.1562C9.88889 13.5243 10.3889 13.8611 10.9167 14.1667L12.875 12.2083C13 12.0833 13.1632 11.9896 13.3646 11.9271C13.566 11.8646 13.7639 11.8472 13.9583 11.875L16.8333 12.4583C17.0278 12.5139 17.1875 12.6146 17.3125 12.7604C17.4375 12.9062 17.5 13.0694 17.5 13.25V16.625C17.5 16.875 17.4167 17.0833 17.25 17.25C17.0833 17.4167 16.875 17.5 16.625 17.5ZM5.02083 7.5L6.39583 6.125L6.04167 4.16667H4.1875C4.25694 4.73611 4.35417 5.29861 4.47917 5.85417C4.60417 6.40972 4.78472 6.95833 5.02083 7.5ZM12.4792 14.9583C13.0208 15.1944 13.5729 15.3819 14.1354 15.5208C14.6979 15.6597 15.2639 15.75 15.8333 15.7917V13.9583L13.875 13.5625L12.4792 14.9583Z" fill="#0F0F0F"/>
</svg>
