<svg width="32" height="17" viewBox="0 0 32 17" fill="none" xmlns="http://www.w3.org/2000/svg">
<path d="M25.5346 5.64913C25.7701 8.38571 21.4586 10.9864 15.9107 11.4693C10.3628 11.9398 5.68221 10.1073 5.44671 7.37067C5.2112 4.63409 9.52271 2.03338 15.0706 1.55049C20.606 1.0925 25.2991 2.91255 25.5346 5.64913Z" fill="#BBE6FB"/>
<path d="M15.2074 1.86983C13.0896 1.83247 10.6134 2.6873 8.76791 3.4674C8.57407 4.0294 8.47367 4.61937 8.4707 5.21385C8.4707 8.45824 11.4054 11.0957 15.0217 11.0957C18.6381 11.0957 21.5847 8.47012 21.5847 5.21385C21.5823 4.21084 21.2992 3.22853 20.7672 2.3782C18.9267 2.08821 17.0694 1.91801 15.2069 1.8687" fill="white"/>
<path d="M15.0345 1.86995C13.8575 1.79579 11.8393 2.40153 10.1551 3.02425C9.8899 3.64221 9.755 4.30826 9.75887 4.98073C9.75887 7.82884 12.3471 10.1323 15.0588 10.1323C16.4236 10.0832 17.7215 9.52901 18.7008 8.57713C19.6801 7.62525 20.2709 6.34358 20.3587 4.98073C20.392 4.07892 20.1503 3.18831 19.6658 2.427C17.9324 2.12979 16.0869 1.94411 15.0345 1.86995Z" fill="white"/>
<path d="M12.0249 4.62126C12.1795 4.35213 12.3712 4.1061 12.5944 3.89041C12.558 3.78182 12.5331 3.66967 12.5203 3.55584C12.5198 3.48092 12.5342 3.40666 12.5627 3.33736C12.5912 3.26806 12.6331 3.2051 12.6861 3.15213C12.739 3.09916 12.802 3.05722 12.8713 3.02876C12.9406 3.0003 13.0149 2.98588 13.0898 2.98633C13.1617 2.98559 13.2331 2.99826 13.3004 3.02369C13.7904 2.64731 14.3578 2.38434 14.9617 2.25374C15.5656 2.12315 16.191 2.12819 16.7927 2.2685C16.9059 2.29341 17.0158 2.33021 17.1273 2.35512C15.8263 2.21267 14.5219 2.59104 13.4991 3.40752C13.5497 3.51838 13.5877 3.6346 13.6123 3.75398C13.6123 4.07609 13.4017 4.15025 13.092 4.15025C13.0202 4.14991 12.949 4.13728 12.8814 4.11289C12.6328 4.4882 12.4292 4.89138 12.2746 5.31418C12.757 5.71279 13.3112 6.0156 13.9072 6.20637C13.9072 6.18146 13.9321 6.14466 13.9321 6.11975C13.9477 5.65089 14.1452 5.20649 14.4827 4.88062C14.8201 4.55476 15.2712 4.37302 15.7403 4.37387C16.1526 4.37121 16.5524 4.51558 16.8679 4.78108C17.1834 5.04658 17.394 5.41582 17.4619 5.82255C17.9022 5.60077 18.297 5.29832 18.6258 4.93092C18.538 4.78888 18.487 4.62719 18.4775 4.46048C18.4782 4.32273 18.5333 4.19083 18.6307 4.09343C18.7281 3.99602 18.86 3.94097 18.9977 3.94023C19.0394 3.93879 19.0811 3.94298 19.1217 3.95268C19.2853 3.61846 19.4059 3.26484 19.4806 2.90028C17.9697 1.77315 15.0474 1.93449 15.0474 1.93449C13.7202 1.87124 12.3948 2.08984 11.1582 2.5759C11.2912 3.31373 11.5873 4.01253 12.0249 4.62126Z" fill="#373535"/>
<path d="M19.244 4.18512C19.3295 4.25816 19.4008 4.34623 19.4546 4.44496C19.591 4.69235 19.3182 4.92785 19.021 4.92785C18.9915 4.92981 18.962 4.92557 18.9343 4.9154C18.5603 5.4978 18.0816 6.00587 17.5225 6.4139C18.2934 6.52288 19.0188 6.84458 19.6171 7.34288C20.081 6.47691 20.3353 5.51423 20.3598 4.53214C20.3641 4.2198 20.2959 3.91071 20.1605 3.62919C20.0252 3.34767 19.8263 3.10137 19.5797 2.90967C19.518 3.34634 19.4057 3.77436 19.2451 4.18512" fill="#373535"/>
<path d="M12.9037 9.02694C13.2402 8.31575 13.7622 7.70836 14.4146 7.26859C14.3066 7.09183 14.2155 6.90533 14.1423 6.71154C13.4145 6.48801 12.7602 6.07313 12.2475 5.51025C12.2475 5.52271 12.2351 5.54762 12.2351 5.55951C12.1408 5.97788 12.12 6.40944 12.1734 6.83495C12.3469 6.86726 12.5038 6.95913 12.6169 7.09473C12.7299 7.23033 12.7921 7.40114 12.7927 7.57769C12.7539 7.83572 12.6323 8.07415 12.4462 8.25703C12.5692 8.52947 12.7229 8.78702 12.9042 9.02467" fill="#373535"/>
<path d="M12.8545 9.62151C12.5575 9.2179 12.3159 8.77638 12.1361 8.3087C12.0987 8.3087 12.0619 8.32115 12.0228 8.32115C11.6016 8.32115 11.1561 7.97469 11.2676 7.56596C11.3 7.45336 11.3583 7.34991 11.4378 7.26389C11.5173 7.17787 11.6159 7.11168 11.7256 7.07061C11.6515 6.53126 11.6641 5.98351 11.763 5.44814C11.7879 5.31171 11.8621 5.25 11.8994 5.11357C11.4123 4.38357 11.1498 3.52685 11.1442 2.64928V2.55078C10.7464 2.71024 10.4042 2.98302 10.16 3.33526C9.91588 3.68751 9.78055 4.1037 9.77084 4.53217C9.75935 5.58676 10.0432 6.62353 10.5904 7.52515C11.1376 8.42677 11.9261 9.15726 12.8669 9.63396V9.62151" fill="#373535"/>
<path d="M17.4113 6.6377C17.2898 6.97845 17.0668 7.27383 16.7724 7.48413C16.478 7.69443 16.1263 7.80957 15.7645 7.81408C15.3742 7.81583 14.995 7.68488 14.6889 7.44271C14.0412 7.99044 13.5428 8.69334 13.2402 9.4858C13.3502 9.61858 13.4702 9.74273 13.5992 9.85717C14.0929 9.91291 14.5914 9.91291 15.0852 9.85717C15.9616 9.88105 16.8301 9.68503 17.6113 9.28701C18.3925 8.88899 19.0616 8.30164 19.5575 7.57857C18.9363 7.08579 18.1984 6.76171 17.4153 6.6377" fill="#373535"/>
<path d="M11.9746 4.86652C12.1207 4.5516 12.2992 4.25277 12.5073 3.97489C12.483 3.91164 12.4704 3.84451 12.47 3.77675C12.4695 3.70184 12.4839 3.62758 12.5124 3.55828C12.5409 3.48898 12.5828 3.42602 12.6358 3.37305C12.6887 3.32007 12.7517 3.27814 12.821 3.24968C12.8903 3.22122 12.9646 3.20679 13.0395 3.20725C13.1114 3.2065 13.1828 3.21917 13.2501 3.24461C13.7401 2.86822 14.3075 2.60525 14.9114 2.47466C15.5153 2.34407 16.1407 2.34911 16.7424 2.48942C16.8556 2.51433 16.9655 2.55112 17.077 2.57603C16.4562 2.49485 15.8254 2.54081 15.223 2.71112C14.6206 2.88144 14.0591 3.17254 13.5728 3.56673C13.6009 3.638 13.6175 3.71328 13.622 3.78977C13.6225 3.86469 13.608 3.93895 13.5796 4.00825C13.5511 4.07755 13.5092 4.14051 13.4562 4.19348C13.4032 4.24646 13.3403 4.28839 13.271 4.31685C13.2017 4.34531 13.1274 4.35973 13.0525 4.35928C12.9807 4.35894 12.9095 4.3463 12.8419 4.32192C12.6204 4.61552 12.4449 4.94119 12.3216 5.2877C12.7775 5.78147 13.341 6.16349 13.9685 6.40408V6.31746C13.9685 5.88009 14.1326 5.45864 14.4283 5.13644C14.7241 4.81424 15.13 4.61474 15.5658 4.57739C16.0015 4.54004 16.4355 4.66755 16.7817 4.93472C17.128 5.20189 17.3615 5.58926 17.4359 6.02025C17.8748 5.74465 18.2606 5.3924 18.5749 4.98031C18.4963 4.89127 18.4523 4.77695 18.4509 4.65819C18.4517 4.52044 18.5067 4.38854 18.6041 4.29113C18.7015 4.19373 18.8334 4.13868 18.9712 4.13793C19.0129 4.1365 19.0546 4.14069 19.0952 4.15039C19.2588 3.81617 19.3794 3.46255 19.4541 3.09799C17.9431 1.97086 15.0209 2.1322 15.0209 2.1322C13.6941 2.06911 12.369 2.28771 11.1328 2.7736C11.2338 3.53123 11.5232 4.25142 11.9746 4.86822" fill="#1287B1"/>
<path d="M19.3194 4.27264C19.374 4.32058 19.4177 4.37962 19.4476 4.44582C19.4774 4.51202 19.4928 4.58384 19.4927 4.65647C19.4919 4.79422 19.4369 4.92611 19.3395 5.02352C19.2421 5.12093 19.1102 5.17598 18.9724 5.17672C18.943 5.17868 18.9135 5.17444 18.8858 5.16427C18.5622 5.68059 18.1262 6.11717 17.6104 6.44141C18.3643 6.5557 19.0717 6.87734 19.6535 7.3704C20.0926 6.57848 20.3227 5.68769 20.322 4.78214C20.3263 4.4698 20.2581 4.16071 20.1227 3.87919C19.9874 3.59766 19.7886 3.35137 19.5419 3.15967C19.5179 3.53955 19.4429 3.91448 19.3189 4.27434" fill="#1287B1"/>
<path d="M12.9788 9.18861C13.2375 8.46083 13.697 7.82118 14.3041 7.34366C14.2146 7.22272 14.1437 7.08917 14.0935 6.94738C13.3657 6.72385 12.7113 6.30897 12.1987 5.74609C12.1987 5.75855 12.1863 5.78346 12.1863 5.79534C12.092 6.21372 12.0711 6.64528 12.1245 7.07079C12.2634 7.0956 12.3926 7.1589 12.4973 7.2535C12.602 7.3481 12.678 7.4702 12.7167 7.60589C12.7554 7.74158 12.7552 7.88541 12.7162 8.021C12.6772 8.1566 12.6008 8.27851 12.4959 8.37285C12.6253 8.66282 12.7873 8.93708 12.9788 9.19031" fill="#1287B1"/>
<path d="M12.8536 9.60898C12.5424 9.30206 12.2831 8.94663 12.0859 8.55657C12.0486 8.55657 12.0118 8.56903 11.9727 8.56903C11.8734 8.56963 11.7749 8.55051 11.683 8.51277C11.5911 8.47503 11.5076 8.41942 11.4373 8.34918C11.3671 8.27893 11.3115 8.19544 11.2738 8.10355C11.236 8.01165 11.2169 7.91318 11.2175 7.81384C11.2182 7.67276 11.2579 7.53462 11.3322 7.41472C11.4065 7.29482 11.5126 7.19783 11.6387 7.1345C11.5771 6.65519 11.6022 6.1687 11.7128 5.69828C11.7378 5.56185 11.787 5.42598 11.8261 5.28955C11.349 4.58847 11.0943 3.75988 11.0952 2.91188V2.81055C10.6972 2.96983 10.3547 3.24254 10.1104 3.59479C9.866 3.94705 9.7305 4.36333 9.7207 4.79194C9.72102 5.81503 10.0169 6.81625 10.5726 7.67521C11.1284 8.53418 11.9205 9.21433 12.8536 9.63388V9.60898Z" fill="#1287B1"/>
<path d="M17.3621 6.88508C17.2406 7.22583 17.0176 7.52121 16.7232 7.73151C16.4288 7.94181 16.0771 8.05695 15.7153 8.06146C15.3251 8.06321 14.9458 7.93226 14.6397 7.69009C14.0267 8.17501 13.5554 8.816 13.2754 9.5458C13.3994 9.68223 13.5352 9.80564 13.6717 9.92962C14.1082 10.0443 14.5575 10.1025 15.0088 10.1029C15.8938 10.1008 16.7643 9.87907 17.5425 9.45756C18.3206 9.03605 18.9818 8.42795 19.467 7.68782C18.8525 7.23102 18.124 6.95248 17.3616 6.88281" fill="#1287B1"/>
<path d="M17.4243 6.43886L19.0343 6.05503L17.4118 5.96842L18.7371 4.96527L17.2386 5.49798L18.2542 4.0861L16.8423 5.02698L17.3252 3.38016L16.3594 4.74222L16.3345 3.02068L15.7027 4.55597L15.183 3.00879L15.2079 4.8294L14.2914 3.19504L14.7867 4.92847L13.3007 3.85286L14.4646 5.31399L12.6197 4.64542L14.0683 5.72103L12.2109 5.78273L14.1182 6.26563L12.2109 6.67436L14.0933 6.81079L12.5081 7.8264L14.1425 7.24443L13.0035 8.6699L14.4397 7.50598L13.9302 9.42566L15.0449 7.853L14.8966 9.69796L15.5159 8.01378L16.0486 9.77212L16.1726 8.00132L16.9651 9.51227L16.4947 7.80319L17.9434 8.93031L17.0025 7.49409L18.6001 8.11342L17.3739 6.91213L19.0082 7.0361L17.4231 6.44169L17.4243 6.43886Z" fill="white"/>
<path d="M0.236328 9.52228C5.23905 4.51956 9.2375 2.97124 12.8674 2.27606C13.3378 2.18944 13.4369 1.12459 13.4369 1.12459C13.4369 1.12459 13.4986 1.89223 13.8332 2.00376C14.1678 2.10283 14.6008 0.790016 14.6008 0.790016C14.6008 0.790016 14.2046 1.9664 14.6008 2.04056C14.9971 2.10226 15.7523 0.889085 15.7523 0.889085C15.7523 0.889085 15.4551 1.92903 15.6532 2.00376C15.8514 2.06546 16.867 0.492808 16.867 0.492808C16.867 0.492808 16.2726 1.53275 16.8296 1.64428C17.3991 1.74335 18.2415 0.938337 18.2415 0.938337C18.2415 0.938337 17.5978 1.67315 17.8826 1.79543C19.1331 2.22907 20.1238 0.61905 20.1238 0.61905C19.9212 1.1547 19.6373 1.65593 19.282 2.10509C20.5948 2.43966 21.5606 0.470729 21.5606 0.470729L20.5824 2.4391C21.0777 2.68705 23.0959 0.371094 23.0959 0.371094C23.0959 0.371094 22.056 2.17925 21.4491 2.55062C21.7837 2.82292 22.9968 1.73316 22.9968 1.73316C22.9968 1.73316 22.0186 2.9469 22.4024 3.00861C22.947 3.42979 24.9284 0.744161 24.9284 0.744161C24.4153 1.76248 23.7743 2.7112 23.0212 3.56736C23.9745 4.05025 26.3397 0.991552 26.3397 0.991552C26.3397 0.991552 26.278 1.96979 24.5565 3.51754C25.8319 3.35676 27.4787 0.929279 27.4787 0.929279C27.0503 2.10742 26.3503 3.16808 25.4356 4.02534C26.6862 3.90136 28.6925 0.805867 28.6925 0.805867C28.1974 2.10912 27.3945 3.27331 26.3522 4.19914C28.0981 4.58296 30.6246 1.98225 30.6246 1.98225C30.6246 1.98225 29.6345 3.82437 28.3466 4.59372C29.7953 5.13832 31.7766 2.86028 31.7766 2.86028C31.7766 2.86028 29.7953 5.91729 26.6375 5.78255C25.5981 5.7333 22.4647 2.63554 15.7529 2.88519C6.84907 3.20674 4.97921 6.97139 0.236328 9.52228Z" fill="#373535" fill-opacity="0.35"/>
<path d="M0.433594 9.15119C5.43632 4.14846 9.43476 2.60015 13.0647 1.90496C13.5351 1.81835 13.6342 0.753494 13.6342 0.753494C13.6342 0.753494 13.6959 1.52114 14.0305 1.63266C14.365 1.73173 14.7981 0.418922 14.7981 0.418922C14.7981 0.418922 14.4018 1.5953 14.7981 1.66946C15.1944 1.73117 15.9496 0.517992 15.9496 0.517992C15.9496 0.517992 15.6524 1.55794 15.8505 1.63266C16.0492 1.69833 17.0642 0.123978 17.0642 0.123978C17.0642 0.123978 16.4698 1.16392 17.0269 1.27545C17.5964 1.37452 18.4388 0.569508 18.4388 0.569508C18.4388 0.569508 17.7951 1.30206 18.0798 1.42434C19.3304 1.85741 20.3211 0.247391 20.3211 0.247391C20.1185 0.783042 19.8346 1.28427 19.4793 1.73343C20.7921 2.068 21.7579 0.0990695 21.7579 0.0990695L20.8045 2.0431C21.2993 2.31596 23.3181 0 23.3181 0C23.3181 0 22.29 1.80816 21.6713 2.17953C22.0058 2.41503 23.219 1.33772 23.219 1.33772C23.219 1.33772 22.2408 2.5509 22.6252 2.61317C23.1573 3.057 25.1506 0.371369 25.1506 0.371369C24.6305 1.38856 23.9856 2.33694 23.2309 3.19457C24.1842 3.665 26.5619 0.606305 26.5619 0.606305C26.5619 0.606305 26.5002 1.58455 24.7786 3.13229C26.0547 2.97208 27.702 0.544599 27.702 0.544599C27.2736 1.72274 26.5736 2.7834 25.6589 3.64066C26.9095 3.51668 28.9152 0.421187 28.9152 0.421187C28.4201 1.72444 27.6172 2.88863 26.5749 3.81446C28.3208 4.19828 30.8474 1.59757 30.8474 1.59757C30.8474 1.59757 29.8567 3.44252 28.5693 4.21017C30.018 4.75477 31.9994 2.47674 31.9994 2.47674C31.9994 2.47674 30.018 5.53374 26.8602 5.399C25.8203 5.34975 22.6869 2.25369 15.975 2.50108C7.05709 2.83565 5.17647 6.58784 0.433594 9.15119Z" fill="#373535"/>
<path d="M0.112305 10.0676C2.76227 11.3929 5.1773 9.86951 8.22355 10.7238C10.5395 11.3674 13.3627 12.1849 17.2015 11.6295C21.0278 11.0849 24.2971 9.41266 25.8698 6.44114C26.3527 5.11587 28.3465 6.73835 28.3465 6.73835C28.3465 6.73835 26.8979 6.14393 26.9347 6.41623C26.972 6.69929 29.1017 7.69168 29.1017 7.69168C29.1017 7.69168 27.1702 7.09726 27.2936 7.54336C27.4068 7.98889 29.7086 9.8078 29.7086 9.8078C29.7086 9.8078 27.0711 7.83887 26.8605 8.10947C26.6374 8.38177 27.9752 9.47153 27.9752 9.47153C27.9752 9.47153 25.7832 8.10947 25.0031 8.50575C24.446 8.7888 27.2817 10.6479 27.2817 10.6479C27.2817 10.6479 25.4367 9.23603 25.0031 9.60797C24.5694 9.9799 27.0835 13.0012 27.0835 13.0012C27.0835 13.0012 24.2105 9.90631 23.9258 10.0535C23.641 10.2007 24.7059 11.6879 24.7059 11.6879C24.7059 11.6879 23.3189 10.1526 22.9351 10.4124C22.5513 10.6847 24.9538 14.6973 24.9538 14.6973C24.9538 14.6973 22.3407 10.5862 21.2634 11.2797C22.9475 14.9821 22.3282 15.5148 22.3282 15.5148C22.3282 15.5148 22.1176 11.7377 20.0122 11.835C18.9474 11.8843 20.5076 14.6582 20.5076 14.6582C20.5076 14.6582 19.0714 12.1073 18.105 12.1674C19.8634 15.5108 19.244 16.8604 19.244 16.8604C19.244 16.8604 19.5271 13.9999 17.1494 12.4147C18.066 13.2322 16.5799 16.8604 16.5799 16.8604C16.5799 16.8604 17.882 11.5107 15.6141 12.5263C15.2552 12.687 15.5892 15.2011 15.5892 15.2011C15.5892 15.2011 15.1437 12.3281 14.4502 12.477C14.0539 12.5636 11.9242 16.4522 11.9242 16.4522C11.9242 16.4522 13.6576 12.2421 13.138 12.4278C12.7541 12.5517 12.0233 14.2852 12.0233 14.2852C12.0233 14.2852 12.3697 12.5761 12.0233 12.477C11.6768 12.3779 9.70732 14.2852 9.70732 14.2852C9.70732 14.2852 11.1707 12.5812 10.925 12.2223C10.787 11.9994 10.568 11.8387 10.3139 11.7741C10.0599 11.7095 9.79067 11.7459 9.56297 11.8758C8.79532 12.173 7.75481 13.5849 7.75481 13.5849C7.75481 13.5849 8.79475 12.1487 8.62152 11.6284C8.33847 10.7617 5.35223 13.2877 5.35223 13.2877C5.35223 13.2877 7.11057 11.6284 6.71429 11.2689C6.31802 10.9225 4.11358 11.0215 3.445 11.0215C1.42512 11.0334 0.719176 10.563 0.112305 10.0676Z" fill="#373535" fill-opacity="0.35"/>
<path d="M0.000566111 9.77028C2.65053 11.0956 5.06556 9.57214 8.11181 10.4264C10.4278 11.0825 13.251 11.8875 17.0898 11.3322C20.9161 10.7876 24.1854 9.11529 25.7581 6.14378C26.241 4.81851 28.2348 6.44099 28.2348 6.44099C28.2348 6.44099 26.7861 5.84657 26.8229 6.11887C26.8603 6.40192 28.99 7.39432 28.99 7.39432C28.99 7.39432 27.0584 6.7999 27.1818 7.24599C27.2951 7.69152 29.5969 9.51044 29.5969 9.51044C29.5969 9.51044 26.9961 7.52905 26.7856 7.80135C26.575 8.07365 27.9002 9.16341 27.9002 9.16341C27.9002 9.16341 25.7082 7.80135 24.9281 8.19763C24.3711 8.48068 27.2067 10.3398 27.2067 10.3398C27.2067 10.3398 25.3618 8.92791 24.9281 9.29985C24.4945 9.67178 27.0086 12.6931 27.0086 12.6931C27.0086 12.6931 24.148 9.59705 23.8633 9.74594C23.5802 9.90672 24.6434 11.3928 24.6434 11.3928C24.6434 11.3928 23.219 9.85747 22.8352 10.1173C22.4514 10.3896 24.8415 14.4022 24.8415 14.4022C24.8415 14.4022 22.2408 10.2787 21.1618 10.9721C22.8601 14.687 22.2267 15.218 22.2267 15.218C22.2267 15.218 22.0161 11.4409 19.9107 11.5382C18.8458 11.5875 20.406 14.3614 20.406 14.3614C20.406 14.3614 18.9817 11.8355 18.0284 11.8847C19.7867 15.2282 19.1674 16.5778 19.1674 16.5778C19.1674 16.5778 19.4504 13.7172 17.0728 12.1321C17.9893 12.9496 16.5033 16.5778 16.5033 16.5778C16.5033 16.5778 17.8053 11.228 15.5375 12.2436C15.1786 12.4044 15.5126 14.9185 15.5126 14.9185C15.5126 14.9185 15.067 12.0455 14.3736 12.1944C13.9773 12.281 11.8476 16.1696 11.8476 16.1696C11.8476 16.1696 13.5872 11.964 13.0653 12.148C12.6815 12.2719 11.9506 14.0054 11.9506 14.0054C11.9506 14.0054 12.2971 12.2963 11.9506 12.1972C11.6041 12.0981 9.63465 14.0054 9.63465 14.0054C9.63465 14.0054 11.0958 12.2963 10.8484 11.9374C10.7104 11.7145 10.4913 11.5538 10.2373 11.4892C9.98324 11.4246 9.71404 11.461 9.48633 11.5909C8.71868 11.8881 7.67817 13.3 7.67817 13.3C7.67817 13.3 8.71868 11.8626 8.54488 11.3412C8.26183 10.4745 5.27559 13.0005 5.27559 13.0005C5.27559 13.0005 7.03393 11.3412 6.63765 10.9818C6.24138 10.6353 4.03694 10.7344 3.36836 10.7344C1.31281 10.7344 0.606871 10.2515 0 9.76859" fill="#373535"/>
</svg>
