<svg width="115" height="73" viewBox="0 0 115 73" fill="none" xmlns="http://www.w3.org/2000/svg">
<g clip-path="url(#clip0_7311_29)">
<path d="M85.892 18.6976C91.7477 18.6976 96.5071 23.5286 96.5071 29.4724V32.2511C96.5071 38.1949 91.7477 43.0259 85.892 43.0259C80.0363 43.0259 75.2769 38.1949 75.2769 32.2511V29.4724C75.2769 23.5286 80.0363 18.6976 85.892 18.6976ZM86.5485 7.36975C74.5745 7.36975 64.7734 17.3183 64.7734 29.4724V32.2511C64.7734 44.4052 74.5745 54.3537 86.5485 54.3537C98.5224 54.3537 108.324 44.4052 108.324 32.2511V29.4724C108.324 17.3183 98.5224 7.36975 86.5485 7.36975Z" fill="#3866B1"/>
<path d="M38.8821 35.0298C37.963 40.0274 33.6435 43.8255 28.4574 43.8255C22.6017 43.8255 17.8423 38.9945 17.8423 33.0507V30.2721C17.8423 24.3283 22.6017 19.4973 28.4574 19.4973C33.6435 19.4973 37.9696 23.2955 38.8821 28.293H50.1339C49.1427 17.0518 39.7749 8.16943 28.4508 8.16943C16.4768 8.16943 6.67578 18.118 6.67578 30.2721V33.0507C6.67578 45.2049 16.4768 55.1534 28.4508 55.1534C39.7683 55.1534 49.1427 46.2644 50.1339 35.0298H38.8821Z" fill="#E31D2A"/>
<path d="M63.1595 23.3154H51.8945V53.1344H63.1595V23.3154Z" fill="#DF9D15"/>
<path d="M67.735 10.355C67.735 4.63609 63.1677 0 57.5335 0C51.8994 0 47.332 4.63609 47.332 10.355V11.3612C47.332 17.0801 51.8994 21.7162 57.5335 21.7162C63.1677 21.7162 67.735 17.0801 67.735 11.3612V10.355Z" fill="#DF9D15"/>
<path d="M8.84262 68.4068L10.3984 68.8066C10.0702 70.106 9.48596 71.0922 8.63911 71.7785C7.79227 72.4582 6.75505 72.7981 5.52746 72.7981C4.29986 72.7981 3.22982 72.5382 2.4355 72.0118C1.64117 71.4854 1.03722 70.7257 0.623644 69.7329C0.21007 68.74 0 67.6739 0 66.5344C0 65.2883 0.236328 64.2022 0.70242 63.2826C1.16851 62.3631 1.83811 61.6501 2.69808 61.1703C3.56462 60.6906 4.5165 60.4507 5.55372 60.4507C6.72879 60.4507 7.72006 60.7572 8.52095 61.3636C9.32184 61.9699 9.87984 62.8295 10.2015 63.929L8.66537 64.2955C8.38966 63.4292 7.99578 62.7962 7.47717 62.3964C6.95856 62.0033 6.30209 61.8034 5.52089 61.8034C4.61497 61.8034 3.86003 62.0233 3.25608 62.463C2.65213 62.9028 2.21886 63.4959 1.97597 64.2355C1.72651 64.9752 1.60835 65.7415 1.60835 66.5277C1.60835 67.5406 1.75277 68.4335 2.04818 69.1865C2.33702 69.9461 2.79655 70.5125 3.40707 70.8856C4.02415 71.2588 4.68718 71.4454 5.40273 71.4454C6.27583 71.4454 7.01108 71.1922 7.61503 70.6791C8.21898 70.166 8.62599 69.413 8.84262 68.4068Z" fill="white"/>
<path d="M12.584 72.5915V60.6506H14.1398V72.5915H12.584Z" fill="white"/>
<path d="M16.4121 66.7745C16.4121 64.7955 16.9373 63.2429 17.9876 62.1168C19.038 60.9973 20.3903 60.4309 22.0512 60.4309C23.1343 60.4309 24.119 60.6974 24.9921 61.2239C25.8652 61.7503 26.5283 62.4832 26.9878 63.4295C27.4473 64.369 27.6771 65.4418 27.6771 66.6346C27.6771 67.8273 27.4342 68.9268 26.955 69.8863C26.4758 70.8392 25.793 71.5655 24.9068 72.0586C24.0206 72.5517 23.0687 72.7983 22.0512 72.7983C20.9417 72.7983 19.9505 72.5251 19.0839 71.9853C18.2108 71.4389 17.5478 70.6993 17.1014 69.7597C16.6484 68.8202 16.4252 67.8273 16.4252 66.7745H16.4121ZM18.0205 66.8012C18.0205 68.2405 18.4012 69.3733 19.1627 70.1995C19.9242 71.0258 20.8827 71.4456 22.0315 71.4456C23.1803 71.4456 24.165 71.0258 24.9265 70.1929C25.6814 69.3599 26.0622 68.1672 26.0622 66.6346C26.0622 65.6617 25.8981 64.8155 25.5764 64.0891C25.2547 63.3628 24.7821 62.8031 24.1584 62.4033C23.5348 62.0035 22.8324 61.8036 22.0577 61.8036C20.9549 61.8036 20.0096 62.1901 19.2152 62.9564C18.4209 63.7227 18.0205 65.0087 18.0205 66.8078V66.8012Z" fill="white"/>
<path d="M32.043 72.5915L36.5595 60.6506H38.24L43.0585 72.5915H41.286L39.914 68.9733H34.9905L33.6973 72.5915H32.043ZM35.4369 67.6872H39.4282L38.2006 64.3822C37.8264 63.376 37.5507 62.5497 37.3669 61.9034C37.2159 62.6697 37.0059 63.4293 36.7301 64.1823L35.4369 67.6872Z" fill="white"/>
<path d="M43.5371 70.0129L44.9682 69.7864C45.047 70.3661 45.2702 70.8125 45.6378 71.1257C46.0054 71.4322 46.5175 71.5921 47.1739 71.5921C47.8304 71.5921 48.3293 71.4522 48.651 71.179C48.9727 70.9058 49.1302 70.586 49.1302 70.2128C49.1302 69.8796 48.9858 69.6198 48.7035 69.4332C48.5066 69.2999 48.0142 69.14 47.2265 68.9334C46.1695 68.6602 45.4343 68.427 45.0207 68.2271C44.6137 68.0272 44.2986 67.754 44.0885 67.4008C43.8785 67.0477 43.7734 66.6612 43.7734 66.2414C43.7734 65.8549 43.8588 65.5018 44.036 65.1686C44.2067 64.8421 44.4496 64.5689 44.745 64.349C44.9682 64.1824 45.2767 64.0358 45.6641 63.9225C46.0514 63.8026 46.465 63.7493 46.9114 63.7493C47.5809 63.7493 48.1652 63.8492 48.6707 64.0425C49.1762 64.2357 49.5504 64.5022 49.7932 64.8354C50.0361 65.1686 50.2003 65.615 50.2922 66.1748L48.8808 66.368C48.8151 65.9216 48.6313 65.5751 48.3228 65.3285C48.0142 65.082 47.581 64.9554 47.0164 64.9554C46.3534 64.9554 45.8807 65.0686 45.5984 65.2885C45.3161 65.5084 45.1717 65.775 45.1717 66.0681C45.1717 66.2614 45.2308 66.428 45.349 66.5812C45.4671 66.7412 45.6509 66.8678 45.9004 66.9744C46.0448 67.0277 46.4715 67.1543 47.1739 67.3475C48.198 67.6274 48.907 67.8539 49.314 68.0272C49.721 68.2071 50.0361 68.4603 50.2659 68.8002C50.4957 69.14 50.6138 69.5531 50.6138 70.0529C50.6138 70.5526 50.476 70.9991 50.1937 71.4322C49.9114 71.8653 49.5044 72.1985 48.9792 72.4317C48.4475 72.665 47.8501 72.7849 47.1805 72.7849C46.0711 72.7849 45.2308 72.5517 44.6465 72.0852C44.0688 71.6188 43.6947 70.9258 43.5371 70.0062V70.0129Z" fill="white"/>
<path d="M51.7559 70.0129L53.187 69.7864C53.2657 70.3661 53.4889 70.8125 53.8566 71.1257C54.2242 71.4322 54.7362 71.5921 55.3927 71.5921C56.0492 71.5921 56.5481 71.4522 56.8697 71.179C57.1914 70.9058 57.349 70.586 57.349 70.2128C57.349 69.8796 57.2045 69.6198 56.9223 69.4332C56.7253 69.2999 56.233 69.14 55.4452 68.9334C54.3883 68.6602 53.6531 68.427 53.2395 68.2271C52.8325 68.0272 52.5174 67.754 52.3073 67.4008C52.0972 67.0477 51.9922 66.6612 51.9922 66.2414C51.9922 65.8549 52.0775 65.5018 52.2548 65.1686C52.4255 64.8421 52.6684 64.5689 52.9638 64.349C53.187 64.1824 53.4955 64.0358 53.8828 63.9225C54.2701 63.8026 54.6837 63.7493 55.1301 63.7493C55.7997 63.7493 56.384 63.8492 56.8894 64.0425C57.3949 64.2357 57.7691 64.5022 58.012 64.8354C58.2549 65.1686 58.419 65.615 58.5109 66.1748L57.0995 66.368C57.0339 65.9216 56.85 65.5751 56.5415 65.3285C56.233 65.082 55.7997 64.9554 55.2351 64.9554C54.5721 64.9554 54.0995 65.0686 53.8172 65.2885C53.5349 65.5084 53.3905 65.775 53.3905 66.0681C53.3905 66.2614 53.4495 66.428 53.5677 66.5812C53.6859 66.7412 53.8697 66.8678 54.1191 66.9744C54.2636 67.0277 54.6903 67.1543 55.3927 67.3475C56.4168 67.6274 57.1258 67.8539 57.5328 68.0272C57.9398 68.2071 58.2549 68.4603 58.4847 68.8002C58.7144 69.14 58.8326 69.5531 58.8326 70.0529C58.8326 70.5526 58.6947 70.9991 58.4124 71.4322C58.1302 71.8653 57.7232 72.1985 57.198 72.4317C56.6662 72.665 56.0689 72.7849 55.3993 72.7849C54.2898 72.7849 53.4495 72.5517 52.8653 72.0852C52.2876 71.6188 51.9134 70.9258 51.7559 70.0062V70.0129Z" fill="white"/>
<path d="M60.0137 68.2671C60.0137 66.6612 60.4535 65.4751 61.3332 64.7088C62.0684 64.0691 62.9612 63.7493 64.0116 63.7493C65.1866 63.7493 66.1385 64.1357 66.8869 64.9154C67.6287 65.695 68.0029 66.7745 68.0029 68.1471C68.0029 69.2599 67.8388 70.1395 67.5105 70.7725C67.1823 71.4056 66.7031 71.9053 66.0729 72.2585C65.4427 72.6117 64.7599 72.7849 64.0116 72.7849C62.8168 72.7849 61.8518 72.3984 61.1165 71.6188C60.3813 70.8392 60.0137 69.7264 60.0137 68.2604V68.2671ZM61.4973 68.2671C61.4973 69.3732 61.7336 70.2062 62.2128 70.7592C62.6921 71.3123 63.2894 71.5855 64.0116 71.5855C64.7337 71.5855 65.3245 71.3056 65.8037 70.7526C66.2829 70.1995 66.5193 69.3532 66.5193 68.2204C66.5193 67.1476 66.2829 66.3414 65.8037 65.7883C65.3245 65.2352 64.7271 64.962 64.0181 64.962C63.3091 64.962 62.6986 65.2352 62.2194 65.7883C61.7402 66.3414 61.5039 67.1676 61.5039 68.2737L61.4973 68.2671Z" fill="white"/>
<path d="M75.2574 69.4264L76.6754 69.6129C76.5178 70.6058 76.1239 71.3854 75.4806 71.9451C74.8438 72.5049 74.056 72.7847 73.1239 72.7847C71.9553 72.7847 71.0166 72.3982 70.3076 71.6253C69.5986 70.8523 69.2441 69.7395 69.2441 68.3002C69.2441 67.3673 69.3951 66.5477 69.7037 65.8481C70.0056 65.1484 70.4717 64.622 71.0954 64.2688C71.719 63.9157 72.3952 63.7424 73.1304 63.7424C74.056 63.7424 74.811 63.9823 75.4018 64.4554C75.9926 64.9285 76.3668 65.6082 76.5309 66.4811L75.1261 66.701C74.9948 66.1213 74.7585 65.6815 74.4171 65.3883C74.0757 65.0951 73.6687 64.9485 73.1829 64.9485C72.4543 64.9485 71.8634 65.2151 71.4105 65.7415C70.9575 66.2679 70.7278 67.1075 70.7278 68.2536C70.7278 69.3997 70.9444 70.2593 71.3842 70.7857C71.8241 71.3121 72.3952 71.5786 73.1042 71.5786C73.6687 71.5786 74.1414 71.4054 74.5221 71.0522C74.9029 70.6991 75.1458 70.1527 75.2443 69.4197L75.2574 69.4264Z" fill="white"/>
<path d="M77.9219 62.3365V60.6506H79.3661V62.3365H77.9219ZM77.9219 72.5915V63.9357H79.3661V72.5915H77.9219Z" fill="white"/>
<path d="M87.1327 71.5255C86.5944 71.9853 86.0824 72.3118 85.59 72.505C85.0977 72.6983 84.5659 72.7916 83.9948 72.7916C83.056 72.7916 82.3405 72.5583 81.835 72.0986C81.3295 71.6321 81.0801 71.0391 81.0801 70.3194C81.0801 69.893 81.172 69.5065 81.3624 69.16C81.5527 68.8135 81.8022 68.527 82.1107 68.3137C82.4193 68.1005 82.7672 67.9406 83.148 67.834C83.4302 67.7607 83.8569 67.6874 84.4346 67.6141C85.6031 67.4741 86.4565 67.3075 87.008 67.1076C87.008 66.9077 87.0145 66.7811 87.0145 66.7278C87.0145 66.1281 86.8767 65.7083 86.6075 65.4618C86.2399 65.1286 85.6885 64.962 84.9598 64.962C84.2771 64.962 83.7782 65.082 83.4565 65.3218C83.1348 65.5617 82.8919 65.9882 82.7409 66.6079L81.3295 66.4146C81.4608 65.8016 81.6709 65.3019 81.9663 64.9287C82.2617 64.5555 82.6884 64.2624 83.2399 64.0558C83.7979 63.8492 84.4412 63.7493 85.1764 63.7493C85.9117 63.7493 86.4959 63.8359 86.9489 64.0091C87.4019 64.1824 87.7367 64.4023 87.9533 64.6622C88.1699 64.922 88.3144 65.2552 88.3997 65.6617C88.4456 65.9149 88.4719 66.3613 88.4719 67.0144V68.9667C88.4719 70.3328 88.5047 71.1923 88.5638 71.5522C88.6229 71.912 88.7476 72.2585 88.9314 72.5917H87.4216C87.2706 72.2851 87.1721 71.932 87.1327 71.5255ZM87.008 68.2538C86.4828 68.4737 85.695 68.6536 84.6513 68.8068C84.0604 68.8935 83.6403 68.9934 83.3908 69.1C83.1414 69.2066 82.9576 69.3666 82.8197 69.5731C82.6884 69.7797 82.6162 70.0129 82.6162 70.2728C82.6162 70.6659 82.7606 70.9924 83.056 71.2523C83.3515 71.5122 83.7716 71.6455 84.3362 71.6455C84.9007 71.6455 85.3865 71.5188 85.8198 71.2723C86.253 71.0258 86.5747 70.6859 86.7782 70.2595C86.9358 69.9263 87.008 69.4399 87.008 68.7935V68.2538Z" fill="white"/>
<path d="M93.8692 71.2856L94.0793 72.5783C93.6723 72.6649 93.3112 72.7115 92.9895 72.7115C92.4644 72.7115 92.0573 72.6249 91.7685 72.4583C91.4797 72.2917 91.2762 72.0718 91.158 71.792C91.0398 71.5188 90.9807 70.9391 90.9807 70.0595V65.0819H89.9238V63.9424H90.9807V61.7968L92.4184 60.9172V63.9424H93.8692V65.0819H92.4184V70.1395C92.4184 70.5592 92.4447 70.8258 92.4972 70.9457C92.5497 71.0657 92.6285 71.159 92.7466 71.2323C92.8582 71.3056 93.0289 71.3389 93.239 71.3389C93.3965 71.3389 93.6132 71.3189 93.8758 71.2789L93.8692 71.2856Z" fill="white"/>
<path d="M95.2871 62.3365V60.6506H96.7313V62.3365H95.2871ZM95.2871 72.5915V63.9357H96.7313V72.5915H95.2871Z" fill="white"/>
<path d="M98.3906 68.2671C98.3906 66.6612 98.8305 65.4751 99.7101 64.7088C100.445 64.0691 101.338 63.7493 102.389 63.7493C103.564 63.7493 104.515 64.1357 105.264 64.9154C106.006 65.695 106.38 66.7745 106.38 68.1471C106.38 69.2599 106.216 70.1395 105.887 70.7725C105.559 71.4122 105.08 71.9053 104.45 72.2585C103.82 72.6117 103.137 72.7849 102.389 72.7849C101.194 72.7849 100.229 72.3984 99.4935 71.6188C98.7582 70.8392 98.3906 69.7264 98.3906 68.2604V68.2671ZM99.8742 68.2671C99.8742 69.3732 100.111 70.2062 100.59 70.7592C101.069 71.3123 101.666 71.5855 102.389 71.5855C103.111 71.5855 103.701 71.3056 104.181 70.7526C104.66 70.1995 104.896 69.3532 104.896 68.2204C104.896 67.1476 104.653 66.3414 104.181 65.7883C103.701 65.2352 103.104 64.962 102.395 64.962C101.686 64.962 101.076 65.2352 100.596 65.7883C100.117 66.3414 99.8808 67.1676 99.8808 68.2737L99.8742 68.2671Z" fill="white"/>
<path d="M108.075 72.5915V63.9357H109.375V65.1684C109.998 64.2155 110.904 63.7424 112.086 63.7424C112.598 63.7424 113.071 63.8357 113.504 64.0223C113.937 64.2089 114.259 64.4554 114.469 64.7619C114.686 65.0685 114.83 65.4283 114.915 65.8481C114.968 66.1213 114.994 66.5944 114.994 67.2741V72.5915H113.55V67.3274C113.55 66.7277 113.491 66.2812 113.379 65.988C113.268 65.6948 113.071 65.4549 112.782 65.2817C112.493 65.1084 112.158 65.0151 111.777 65.0151C111.16 65.0151 110.629 65.2151 110.182 65.6082C109.736 66.0013 109.513 66.7543 109.513 67.8671V72.5915H108.068H108.075Z" fill="white"/>
</g>
<defs>
<clipPath id="clip0_7311_29">
<rect width="115" height="72.7982" fill="white"/>
</clipPath>
</defs>
</svg>
