<svg width="32" height="27" viewBox="0 0 32 27" fill="none" xmlns="http://www.w3.org/2000/svg">
<path d="M25.0667 8C24.7904 3.536 21.0667 0 16.5333 0C12.3557 0 8.88587 3.00373 8.14987 6.968C7.92427 6.9472 7.6976 6.93333 7.46667 6.93333C3.34293 6.93333 0 10.2763 0 14.4C0 18.1605 2.78293 21.2629 6.4 21.7819V14.4C6.4 12.9296 7.59627 11.7333 9.06667 11.7333H22.9333C24.4037 11.7333 25.6 12.9296 25.6 14.4V21.8395C29.1792 21.5664 32 18.5824 32 14.9333C32 11.104 28.896 8 25.0667 8Z" fill="white"/>
<path d="M22.9332 13.8666H9.06654C8.77214 13.8666 8.5332 14.1056 8.5332 14.4V18.6666C8.5332 18.961 8.77214 19.2 9.06654 19.2H22.9332C23.2276 19.2 23.4665 18.961 23.4665 18.6666V14.4C23.4665 14.1056 23.2276 13.8666 22.9332 13.8666ZM13.8665 17.6H10.6665V15.4666H13.8665V17.6Z" fill="white"/>
<path d="M22.9332 21.3333H9.06654C8.77214 21.3333 8.5332 21.5723 8.5332 21.8667V26.1333C8.5332 26.4277 8.77214 26.6667 9.06654 26.6667H22.9332C23.2276 26.6667 23.4665 26.4277 23.4665 26.1333V21.8667C23.4665 21.5723 23.2276 21.3333 22.9332 21.3333ZM13.8665 25.0667H10.6665V22.9333H13.8665V25.0667Z" fill="white"/>
</svg>
