<svg width="32" height="24" viewBox="0 0 32 24" fill="none" xmlns="http://www.w3.org/2000/svg">
<path fill-rule="evenodd" clip-rule="evenodd" d="M9.36521 6.0949C6.72627 6.0949 4.25909 5.70285 2.41839 4.99097C0.949256 4.42279 0 3.65992 0 3.04733C0 2.43498 0.949256 1.67212 2.41839 1.10393C4.25909 0.392047 6.72627 0 9.36521 0C12.0041 0 14.4713 0.392047 16.312 1.10393C17.7812 1.67212 18.7304 2.43498 18.7304 3.04733C18.7304 3.65992 17.7812 4.42279 16.312 4.99097C14.4713 5.70285 12.0041 6.0949 9.36521 6.0949ZM27.788 16.8902C27.9856 16.8563 28.1883 16.8378 28.3955 16.8378C30.3733 16.8378 31.9766 18.4411 31.9766 20.4189C31.9766 22.3967 30.3733 24 28.3955 24H12.8753C10.5011 24 8.57648 22.0754 8.57648 19.7011C8.57648 17.3269 10.5011 15.4023 12.8753 15.4023C13.5148 15.4023 14.121 15.5428 14.6665 15.7934C14.9068 12.375 17.7538 9.67577 21.2335 9.67577C24.8705 9.67577 27.8187 12.6241 27.8187 16.261C27.8187 16.4733 27.8078 16.6831 27.788 16.8902ZM2.41839 12.1927C4.25909 12.9046 6.72627 13.2967 9.36521 13.2967C10.8007 13.2967 12.1849 13.1803 13.4455 12.96C13.9017 11.8831 14.5809 10.9031 15.4545 10.0851C16.4001 9.19956 17.5196 8.55379 18.7304 8.17931V5.86655C18.2393 6.18687 17.657 6.47963 16.9878 6.73847C14.9368 7.53159 12.2298 7.96853 9.36521 7.96853C6.50085 7.96853 3.79361 7.53159 1.74262 6.73847C1.07343 6.47963 0.491095 6.18687 0 5.86655V10.2491C0 10.8617 0.949256 11.6245 2.41839 12.1927ZM1.74262 13.9446C3.63235 14.6755 6.07904 15.1034 8.69236 15.1664C7.46987 16.295 6.70285 17.91 6.70285 19.7009C6.70285 19.9266 6.7153 20.1491 6.73896 20.3684C5.11393 20.1976 3.6304 19.8675 2.41839 19.3989C0.949256 18.8307 0 18.0678 0 17.4555V13.0727C0.491095 13.3933 1.07343 13.6858 1.74262 13.9446Z" fill="white"/>
</svg>
