<svg xmlns="http://www.w3.org/2000/svg" width="127.612" height="59.442" viewBox="0 0 127.612 59.442">
  <g id="Group_105198" data-name="Group 105198" transform="translate(-4403 -6512)">
    <path id="Path_75574" data-name="Path 75574" d="M34.066,9.782A14.052,14.052,0,0,0,20.779,0,13.788,13.788,0,0,0,8.554,7.262,10.4,10.4,0,0,0,6.045,26.945l.261.118h.017V24.105A7.757,7.757,0,0,1,9.556,9.782l.731-.077.32-.658A11.188,11.188,0,0,1,20.779,2.634a11.38,11.38,0,0,1,10.979,8.7l.251,1h1.044a6.448,6.448,0,0,1,6.316,6.424,5.839,5.839,0,0,1-3.828,5.478v2.8l.174-.056A8.6,8.6,0,0,0,42,18.753a9.114,9.114,0,0,0-7.934-8.971Z" transform="translate(4445.814 6512)" fill="#fff"/>
    <path id="Path_75576" data-name="Path 75576" d="M142.776,23.564a5.965,5.965,0,0,1,4.719,2.332.24.24,0,0,0,.348.038l1.987-1.583a.247.247,0,0,0,.038-.348,9.048,9.048,0,0,0-7.172-3.525c-5.189,0-9.4,4.472-9.4,9.97s4.221,9.97,9.4,9.97a9,9,0,0,0,7.169-3.522.24.24,0,0,0-.042-.348l-1.984-1.566a.247.247,0,0,0-.348.038,6.006,6.006,0,0,1-4.715,2.321c-3.546,0-6.32-3.028-6.32-6.887S139.23,23.564,142.776,23.564Zm9.653-3.654h2.492a.247.247,0,0,1,.247.247V39.916a.244.244,0,0,1-.244.244h-2.492a.247.247,0,0,1-.247-.247V20.157a.244.244,0,0,1,.244-.247Zm11.23,6.835a6.509,6.509,0,0,0-6.643,6.81,6.661,6.661,0,1,0,13.314,0,6.566,6.566,0,0,0-6.671-6.81Zm3.664,6.81a3.663,3.663,0,1,1-7.3,0,3.662,3.662,0,0,1,3.633-3.9A3.713,3.713,0,0,1,167.324,33.555ZM183.76,27.03h-2.492a.244.244,0,0,0-.247.244v6.612a3.191,3.191,0,0,1-3.309,3.5c-1.35,0-2.711-1.02-2.711-3.3v-6.81a.244.244,0,0,0-.247-.244h-2.492a.244.244,0,0,0-.244.244v7.134c0,3.915,1.771,6.069,4.99,6.069a4.423,4.423,0,0,0,3.772-2.154l.24.049v1.545a.247.247,0,0,0,.247.247h2.492a.247.247,0,0,0,.247-.247V27.274a.244.244,0,0,0-.247-.244Zm15.3-7.12h-2.5a.244.244,0,0,0-.244.247v8.832l-.153-.244a4.9,4.9,0,0,0-4.159-2.011c-3.048,0-6.132,2.349-6.132,6.838,0,3.915,2.648,6.866,6.156,6.866a4.895,4.895,0,0,0,4.134-2.039l.153-.251v1.768a.244.244,0,0,0,.244.247h2.5a.244.244,0,0,0,.244-.247V20.157a.244.244,0,0,0-.244-.247Zm-2.784,13.645a3.828,3.828,0,0,1-3.741,3.953,3.766,3.766,0,0,1-3.637-3.953,3.717,3.717,0,0,1,3.637-3.9,3.828,3.828,0,0,1,3.731,3.9ZM202.8,27.03h2.492a.244.244,0,0,1,.244.244V39.916a.244.244,0,0,1-.244.244H202.8a.247.247,0,0,1-.247-.247V27.274A.247.247,0,0,1,202.8,27.03Zm1.256-6.72a1.938,1.938,0,0,0-1.98,1.938,1.963,1.963,0,0,0,1.98,1.942A1.928,1.928,0,0,0,206,22.249a1.907,1.907,0,0,0-1.952-1.938Zm11.741,6.434a4.369,4.369,0,0,0-3.776,2.154l-.24-.049V27.274a.244.244,0,0,0-.247-.244h-2.492a.244.244,0,0,0-.244.244V39.916a.244.244,0,0,0,.244.247h2.492a.247.247,0,0,0,.247-.247V33.3a3.187,3.187,0,0,1,3.309-3.48c1.35,0,2.711,1.013,2.711,3.271v6.821a.247.247,0,0,0,.247.247h2.5a.247.247,0,0,0,.247-.247v-7.13C220.783,28.892,219.009,26.745,215.793,26.745Zm19.881.285h-2.492a.244.244,0,0,0-.247.244v1.74l-.15-.244a4.915,4.915,0,0,0-4.176-2.011c-3.045,0-6.132,2.349-6.132,6.838,0,3.915,2.648,6.866,6.16,6.866a4.9,4.9,0,0,0,4.134-2.039l.15-.251v1.743a.247.247,0,0,0,.247.247h2.492a.244.244,0,0,0,.244-.247V27.274A.244.244,0,0,0,235.674,27.03Zm-2.784,6.525a3.828,3.828,0,0,1-3.751,3.953,3.764,3.764,0,0,1-3.633-3.953,3.714,3.714,0,0,1,3.633-3.9,3.828,3.828,0,0,1,3.744,3.9Zm14.153-6.48a4.754,4.754,0,0,0-1.789-.348c-1.656,0-2.861.992-3.48,2.871l-.223-.031V27.274a.244.244,0,0,0-.247-.244h-2.492a.244.244,0,0,0-.247.244V39.916a.247.247,0,0,0,.247.247h2.52a.244.244,0,0,0,.244-.247V35.6c0-5.15,2.057-5.916,3.285-5.916a3.828,3.828,0,0,1,1.507.313.251.251,0,0,0,.212,0,.244.244,0,0,0,.125-.167l.494-2.474a.247.247,0,0,0-.157-.282Zm13.826.063a.24.24,0,0,0-.205-.108h-2.683a.251.251,0,0,0-.23.157L254.5,35.6l-3.278-8.415a.251.251,0,0,0-.23-.157h-2.735a.24.24,0,0,0-.2.108.244.244,0,0,0-.024.23l4.872,11.964-2.69,6.991a.247.247,0,0,0,.23.348h2.61a.24.24,0,0,0,.226-.157l7.607-19.14A.24.24,0,0,0,260.869,27.138Z" transform="translate(4269.7 6524.771)" fill="#fff"/>
    <path id="Path_75575" data-name="Path 75575" d="M31.291,49.844l.578.578a.115.115,0,0,1-.08.195H27.23a2.088,2.088,0,0,1-2.088-2.088V39.675a.115.115,0,0,0-.115-.115h-.974a.115.115,0,0,1-.084-.195l3.87-3.87a.115.115,0,0,1,.164,0l3.866,3.87a.115.115,0,0,1-.08.195H30.8a.118.118,0,0,0-.118.115v8.7a2.088,2.088,0,0,0,.609,1.469Zm8.55,0,.581.578a.115.115,0,0,1-.084.195H35.791A2.088,2.088,0,0,1,33.7,48.528V41.913a.118.118,0,0,0-.115-.118H32.6a.115.115,0,0,1-.08-.195l3.866-3.863a.115.115,0,0,1,.164,0l3.87,3.856a.115.115,0,0,1-.084.195h-.988a.118.118,0,0,0-.115.118v6.469a2.088,2.088,0,0,0,.606,1.469Zm8.554,0,.578.578a.115.115,0,0,1-.08.195H44.331a2.088,2.088,0,0,1-2.088-2.088v-4.4a.115.115,0,0,0-.115-.115h-.974a.115.115,0,0,1-.08-.2l3.87-3.866a.111.111,0,0,1,.16,0l3.87,3.866a.115.115,0,0,1-.08.2H47.9a.115.115,0,0,0-.115.115v4.242a2.088,2.088,0,0,0,.609,1.469Z" transform="translate(4430.567 6488.879)" fill="#fff"/>
  </g>
</svg>
