<svg width="32" height="32" viewBox="0 0 32 32" fill="none" xmlns="http://www.w3.org/2000/svg">
<path d="M28.4268 12.7289L26.8535 12.4266C26.6846 11.9022 26.4623 11.3778 26.2046 10.8711L27.1024 9.54665C27.6979 8.66666 27.5913 7.48442 26.8357 6.72889L25.2713 5.16444C24.5157 4.40885 23.3335 4.30219 22.4535 4.90662L21.1379 5.79551C20.649 5.54665 20.1246 5.33333 19.5913 5.15554L19.289 3.58219C19.0846 2.5422 18.1691 1.77777 17.1024 1.77777H14.8979C13.8313 1.77777 12.9157 2.5422 12.7113 3.58219L12.409 5.15554C11.8668 5.33333 11.3512 5.54665 10.8624 5.79551L9.52903 4.89778C8.64903 4.30219 7.4579 4.41774 6.70237 5.17333L5.15571 6.72889C4.40902 7.48442 4.30235 8.66666 4.88905 9.54665L5.78684 10.8711C5.53792 11.3778 5.3157 11.9022 5.14681 12.4266L3.57346 12.7289C2.52458 12.9244 1.76904 13.8488 1.76904 14.9066V17.1022C1.76904 18.1689 2.52458 19.0844 3.57346 19.2888L5.14681 19.5822C5.3157 20.1156 5.53792 20.64 5.78684 21.1466L4.89795 22.4711C4.30235 23.3511 4.40902 24.5333 5.15571 25.2888L6.71126 26.8356C7.4579 27.5911 8.64014 27.7066 9.52013 27.1111L10.8624 26.2133C11.3512 26.4622 11.8668 26.6756 12.409 26.8533L12.7113 28.4266C12.9157 29.4666 13.8313 30.2222 14.8979 30.2222H17.1024C18.1691 30.2222 19.0846 29.4666 19.2802 28.4266L19.5913 26.8622C20.1246 26.6844 20.649 26.4622 21.1379 26.2133L22.4535 27.1111C23.3335 27.7066 24.5157 27.5911 25.2713 26.8444L26.8357 25.2888C27.5913 24.5333 27.6979 23.3511 27.1024 22.4622L26.2046 21.1466C26.4623 20.6311 26.6757 20.1156 26.8535 19.5822L28.4268 19.2888C29.4668 19.0844 30.2313 18.1689 30.2313 17.1022V14.9066C30.2313 13.8488 29.4757 12.9244 28.4268 12.7289ZM20.5335 19.9378H11.5735C10.2757 19.9378 9.22683 18.8889 9.22683 17.6C9.22683 16.3022 10.2757 15.2533 11.5735 15.2533C11.6446 15.2533 11.7157 15.2622 11.7868 15.2711C11.7335 15.0933 11.7157 14.8978 11.7157 14.7022C11.7157 13.3867 12.7735 12.32 14.0979 12.32C14.6757 12.32 15.209 12.5244 15.6179 12.88C16.0357 11.9555 16.9779 11.3066 18.0535 11.3066C19.529 11.3066 20.7202 12.5067 20.7202 13.9822C20.7202 14.5422 20.5513 15.0666 20.249 15.5022C20.3379 15.4844 20.4357 15.4755 20.5335 15.4755C21.769 15.4755 22.7646 16.4711 22.7646 17.7066C22.7646 18.9422 21.769 19.9378 20.5335 19.9378Z" fill="white"/>
</svg>
