<svg width="32" height="32" viewBox="0 0 32 32" fill="none" xmlns="http://www.w3.org/2000/svg">
<path fill-rule="evenodd" clip-rule="evenodd" d="M20 3H17V0H15V3H12V0H10V3H8C6.675 3 5.40003 3.527 4.46503 4.4645C3.52503 5.402 3 6.674 3 8V10H0V12H3V15H0V17H3V20H0V22H3V24C3 25.326 3.52503 26.598 4.46503 27.5355C5.40003 28.473 6.675 29 8 29H10V32H12V29H15V32H17V29H20V32H22V29H24C25.325 29 26.6 28.473 27.535 27.5355C28.475 26.598 29 25.326 29 24V22H32V20H29V17H32V15H29V12H32V10H29V8C29 6.674 28.475 5.402 27.535 4.4645C26.6 3.527 25.325 3 24 3H22V0H20V3ZM9.64502 13.377L7.33502 16L9.64502 18.623C11.26 20.453 13.57 21.5 16 21.5C18.43 21.5 20.74 20.453 22.355 18.623L24.665 16L22.355 13.377C20.74 11.547 18.43 10.5 16 10.5C13.57 10.5 11.26 11.547 9.64502 13.377ZM16 12.5C17.93 12.5 19.5 14.0685 19.5 16C19.5 17.9315 17.93 19.5 16 19.5C14.07 19.5 12.5 17.9315 12.5 16C12.5 14.0685 14.07 12.5 16 12.5Z" fill="white"/>
</svg>
