<svg width="21" height="20" viewBox="0 0 21 20" fill="none" xmlns="http://www.w3.org/2000/svg">
<path d="M1.21428 13.4V3.74292H16.9286V13.4C16.8393 15.3046 12.7991 16.4143 9.07142 16.4143C5.34374 16.4143 1.30356 15.3046 1.21428 13.4Z" fill="#ECF3FF"/>
<path d="M9.07142 6.7715C13.4108 6.7715 16.9286 5.41556 16.9286 3.74293C16.9286 2.0703 13.4108 0.714355 9.07142 0.714355C4.73204 0.714355 1.21428 2.0703 1.21428 3.74293C1.21428 5.41556 4.73204 6.7715 9.07142 6.7715Z" fill="white"/>
<path d="M9.07142 6.7715C13.4108 6.7715 16.9286 5.41556 16.9286 3.74293C16.9286 2.0703 13.4108 0.714355 9.07142 0.714355C4.73204 0.714355 1.21428 2.0703 1.21428 3.74293C1.21428 5.41556 4.73204 6.7715 9.07142 6.7715Z" stroke="#1163FB" stroke-width="1.5" stroke-linecap="round" stroke-linejoin="round"/>
<path d="M16.9286 7.14292V3.74292" stroke="#1163FB" stroke-width="1.5" stroke-linecap="round" stroke-linejoin="round"/>
<path d="M1.21428 3.74292V13.4001C1.21428 14.9301 4.14045 16.1466 7.94414 16.3875" stroke="#1163FB" stroke-width="1.5" stroke-linecap="round" stroke-linejoin="round"/>
<path d="M1.21428 8.57153C1.21428 10.1235 4.29351 11.4045 8.16462 11.5339" stroke="#1163FB" stroke-width="1.5" stroke-linecap="round" stroke-linejoin="round"/>
<path d="M15.4571 17.143C17.035 17.143 18.3143 15.8639 18.3143 14.2859C18.3143 12.7079 17.035 11.4287 15.4571 11.4287C13.8791 11.4287 12.5999 12.7079 12.5999 14.2859C12.5999 15.8639 13.8791 17.143 15.4571 17.143Z" fill="white"/>
<path d="M15.4571 9.28589V11.4287" stroke="#1163FB" stroke-width="1.5" stroke-linecap="round" stroke-linejoin="round"/>
<path d="M11.1285 11.7859L12.9856 12.8573" stroke="#1163FB" stroke-width="1.5" stroke-linecap="round" stroke-linejoin="round"/>
<path d="M11.1285 16.7858L12.9856 15.7144" stroke="#1163FB" stroke-width="1.5" stroke-linecap="round" stroke-linejoin="round"/>
<path d="M15.4571 19.2857V17.1428" stroke="#1163FB" stroke-linecap="round" stroke-linejoin="round"/>
<path d="M19.7857 16.7858L17.9286 15.7144" stroke="#1163FB" stroke-width="1.5" stroke-linecap="round" stroke-linejoin="round"/>
<path d="M19.7857 11.7859L17.9286 12.8573" stroke="#1163FB" stroke-width="1.5" stroke-linecap="round" stroke-linejoin="round"/>
<path d="M15.4571 17.143C17.035 17.143 18.3143 15.8639 18.3143 14.2859C18.3143 12.7079 17.035 11.4287 15.4571 11.4287C13.8791 11.4287 12.5999 12.7079 12.5999 14.2859C12.5999 15.8639 13.8791 17.143 15.4571 17.143Z" stroke="#1163FB" stroke-width="1.5" stroke-linecap="round" stroke-linejoin="round"/>
</svg>
