<svg width="32" height="32" viewBox="0 0 32 32" fill="none" xmlns="http://www.w3.org/2000/svg">
<path fill-rule="evenodd" clip-rule="evenodd" d="M24.3777 4.68806C24.3777 3.13702 25.6395 1.87523 27.1906 1.87523C28.7416 1.87523 30.0033 3.13695 30.0034 4.68793C30.0034 6.23897 28.7417 7.50075 27.1906 7.50075C26.7576 7.50075 26.3523 7.39431 25.9855 7.21887L23.9942 9.21017C24.2355 10.1654 24.3777 11.1597 24.3777 12.1888C24.3777 14.5244 23.7059 16.701 22.5618 18.5572L24.2367 19.9599C23.041 21.237 21.2355 23.0424 19.9593 24.2371L18.5562 22.5624C16.7003 23.706 14.5241 24.3777 12.1889 24.3777C5.46814 24.3777 0 18.9096 0 12.1889C0 5.46814 5.46814 0 12.1889 0C17.1457 0 21.4132 2.97901 23.3159 7.23687L24.6596 5.89315C24.4842 5.52639 24.3777 5.12107 24.3777 4.68806ZM1.87523 12.1889C1.87523 17.8758 6.50279 22.5025 12.1889 22.5025C17.875 22.5025 22.5025 17.8758 22.5025 12.1889C22.5025 11.7187 22.4599 11.2594 22.3987 10.8057L20.3454 12.859C20.5208 13.2258 20.6273 13.6311 20.6273 14.0641C20.6273 15.6151 19.3655 16.8769 17.8144 16.8769C16.2634 16.8769 15.0016 15.6151 15.0016 14.0641C15.0016 13.6311 15.1081 13.2257 15.2835 12.859L13.3938 10.9693C13.0271 11.1448 12.6218 11.2512 12.1887 11.2512C11.7557 11.2512 11.3504 11.1448 10.9837 10.9693L9.09398 12.859C9.26942 13.2258 9.37586 13.6311 9.37586 14.0641C9.37586 15.6151 8.11408 16.8769 6.56304 16.8769C5.012 16.8769 3.75022 15.6151 3.75022 14.0641C3.75022 12.5131 5.012 11.2513 6.56304 11.2513C6.99605 11.2513 7.40144 11.3577 7.76813 11.5332L9.65781 9.64349C9.48236 9.27673 9.37592 8.87141 9.37592 8.4384C9.37592 6.88736 10.6377 5.62558 12.1887 5.62558C13.7398 5.62558 15.0016 6.88736 15.0016 8.4384C15.0016 8.87141 14.8951 9.2768 14.7197 9.64349L16.6094 11.5332C16.9761 11.3577 17.3814 11.2513 17.8144 11.2513C18.2475 11.2513 18.6528 11.3577 19.0196 11.5332L21.8742 8.67859C20.4333 4.71737 16.6412 1.87523 12.1889 1.87523C6.50279 1.87523 1.87523 6.50191 1.87523 12.1889ZM30.6548 25.3575C31.4239 26.003 31.8982 26.9095 31.9862 27.9103C32.074 28.9112 31.7683 29.8863 31.1218 30.6563C30.3802 31.5435 29.3107 32.0004 28.2358 32.0004C27.3824 32.0004 26.5254 31.7129 25.8222 31.1241C25.6573 30.9858 25.4926 30.8201 25.3589 30.6608L21.1638 25.6744C22.5189 24.4119 24.411 22.5199 25.6747 21.1638L30.6548 25.3575Z" fill="white"/>
</svg>
