<svg width="25" height="24" viewBox="0 0 25 24" fill="none" xmlns="http://www.w3.org/2000/svg">
<path d="M15.36 6.69767C10.5935 6.69767 6.70884 10.5823 6.70884 15.3488C6.70884 20.1154 10.5935 24 15.36 24C20.1265 24 24.0112 20.1154 24.0112 15.3488C24.0112 10.5823 20.1265 6.69767 15.36 6.69767ZM14.0874 17.5479C14.4112 17.8716 14.4112 18.4074 14.0874 18.7312C13.92 18.8986 13.7079 18.9767 13.4958 18.9767C13.2837 18.9767 13.0716 18.8986 12.9042 18.7312L10.1135 15.9405C9.78977 15.6167 9.78977 15.0809 10.1135 14.7572L12.9042 11.9665C13.2279 11.6428 13.7637 11.6428 14.0874 11.9665C14.4112 12.2902 14.4112 12.826 14.0874 13.1498L11.8884 15.3488L14.0874 17.5479ZM20.5954 15.9405L17.8047 18.7312C17.6372 18.8986 17.4251 18.9767 17.213 18.9767C17.0009 18.9767 16.7888 18.8986 16.6214 18.7312C16.2977 18.4074 16.2977 17.8716 16.6214 17.5479L18.8205 15.3488L16.6214 13.1498C16.2977 12.826 16.2977 12.2902 16.6214 11.9665C16.9451 11.6428 17.4809 11.6428 17.8047 11.9665L20.5954 14.7572C20.9191 15.0809 20.9191 15.6167 20.5954 15.9405ZM8.30512 7.79163C7.05488 8.97488 6.08372 10.4595 5.54791 12.1228C2.24372 11.8326 0.346047 11.1851 0 10.7833V5.92744C2.15442 7.38977 5.87163 7.74698 8.30512 7.79163ZM5.82698 19.334C2.91349 18.9991 0 18.1842 0 16.4651V12.6698C1.36186 13.2614 3.34884 13.574 5.14605 13.7526C5.06791 14.2772 5.02326 14.8019 5.02326 15.3488C5.02326 16.7554 5.31349 18.106 5.82698 19.334ZM9.22047 0C5.80465 0 0.0111628 0.647442 0.0111628 3.06977C0.0111628 5.49209 5.80465 6.13953 9.22047 6.13953C12.6363 6.13953 18.4298 5.49209 18.4298 3.06977C18.4298 0.647442 12.6363 0 9.22047 0Z" fill="white"/>
</svg>
