<svg id="Layer_2" data-name="Layer 2" xmlns="http://www.w3.org/2000/svg" width="74.64" height="74.984" viewBox="0 0 74.64 74.984">
  <g id="layer">
    <path id="Path_14894" data-name="Path 14894" d="M75.688,64.813l4.078-.7c1.994,2.219,1.215,3.1,2.924,4.363,2.834,2.1,6.4,1.17,7.6-.555a6.588,6.588,0,0,0,.885-5.788l4.618-.795.57,4.8L122.679,61.3l-1.559-19.267-.9.165-2.8-30.9L69.9,16.338Z" transform="translate(-59.419 -9.606)" fill="#fff"/>
    <path id="Path_14895" data-name="Path 14895" d="M89.284,18.682c.4-.39-2.024-.915-3.913.4a2.678,2.678,0,0,0-.1,4.213,3.75,3.75,0,0,0,.345.27,12.017,12.017,0,0,1,1.349-.54,11.814,11.814,0,0,1,2.174-.51,2.368,2.368,0,0,0,.525-1.9c-.12-1.394-1.155-1.185-.375-1.934m12.79,7.542a6.254,6.254,0,0,0-2.069.015,9.956,9.956,0,0,0-3.344.96,1.089,1.089,0,0,0,.12,1.694c1.289.975,2.414,1.634,3.614,1.469.735-.1,1.379-1.274,1.829-2.339.315-.75.315-1.544-.15-1.8m-4.933-8.682c-.09.195-.21.315-.015.945l.015.03.03.075.075.195a3.742,3.742,0,0,0,1.394,1.784c.165-.03.345-.045.525-.06a2.341,2.341,0,0,1,1.244.21,3.076,3.076,0,0,0,.015-.57c-.045-.93.18-2.519-1.574-3.344a1.778,1.778,0,0,0-1.9.18.45.45,0,0,1,.15.03c.45.15.135.315.045.525m18.128,12.745-1.514.3L110.845,0,61.2,5.848l6.118,50.41,5.8-.855a13.488,13.488,0,0,0-2.414-2.534c-1.709-1.439-1.11-3.9-.09-5.443,1.334-2.624,8.217-5.938,7.827-10.121-.135-1.514-.375-3.494-1.769-4.858a5.171,5.171,0,0,0,.045,1.11,5.647,5.647,0,0,1-.855-1.754,8.041,8.041,0,0,1-.81-1.035,3.967,3.967,0,0,0-.18,1.289,8.242,8.242,0,0,1-.54-2.069,3.451,3.451,0,0,0-.345,1.23,8.174,8.174,0,0,1-.465-2.714,13.206,13.206,0,0,1-.87-6.208c1.514,1.08,4.843.825,6.148-1.125.435-.645.72-2.4-.21-5.863a52.111,52.111,0,0,0-2.684-6.792l-.075.045c.3,1,.945,3.134,1.185,4.153.735,3.119.93,4.2.585,5.638-.3,1.244-1,2.069-2.789,2.984S70.646,20.017,70.5,19.9a9.726,9.726,0,0,1-3.239-4.828c-.15-1.215.69-1.949,1.125-2.954a10.719,10.719,0,0,0-1.289.495,16.031,16.031,0,0,1,1.814-1.6A9.964,9.964,0,0,0,70,10.181c-.63-.015-1.155,0-1.155,0a20.168,20.168,0,0,1,2.159-1c-.81-.03-1.574,0-1.574,0S71.8,8.1,73.66,7.317a2.5,2.5,0,0,1,3.239.66,5.61,5.61,0,0,0,3.958,2.549,17.318,17.318,0,0,1,3.239-1.3,5.171,5.171,0,0,1,2.489-1.769,2.63,2.63,0,0,0-.69,1.3c.795-.63,1.664-1.17,1.664-1.17a6.132,6.132,0,0,0-.645,1.095l.075.1a15.583,15.583,0,0,1,2.009-1s-.315.4-.675.915c.69,0,2.114.03,2.654.09,3.239.075,3.913-3.509,5.158-3.958,1.559-.57,2.249-.9,4.9,1.739,2.279,2.279,4.048,6.342,3.179,7.242-.735.75-2.2-.3-3.823-2.339a8.873,8.873,0,0,1-1.8-4,3.918,3.918,0,0,0-1.244-2.174,7.3,7.3,0,0,1,.57,2.459,8.2,8.2,0,0,0,1.065,4.3c-.1.195-.15.96-.255,1.095-1.155-1.424-3.644-2.429-4.048-2.729,1.364,1.14,4.513,3.763,5.728,6.267,1.14,2.369.465,4.543,1.05,5.113a19.747,19.747,0,0,1,2.894,4.528,8.853,8.853,0,0,1-.96,6.867l-2.819.45a4.537,4.537,0,0,1-1.065-.39,6.452,6.452,0,0,0,.615-1.469l-.165-.285A11.82,11.82,0,0,1,96.391,34.7a5.965,5.965,0,0,1-4.633.4,26.374,26.374,0,0,1-7.377-4s-.03.495.12.6a26.135,26.135,0,0,0,4.723,3.988l-4.048.45,1.919,15.129c-.84.12-.975.18-1.9.315A10.124,10.124,0,0,0,81.1,45.612a7.643,7.643,0,0,0-5.578-.81l-.12.15a7.074,7.074,0,0,1,4.693,1.14c1.649,1.065,2.969,3.793,3.464,5.443.63,2.1,1.065,4.348-.63,6.732-1.2,1.694-4.693,2.624-7.527.6A4.561,4.561,0,0,0,78.548,61.3a5.931,5.931,0,0,0,5.308-1.469C85,58.641,85.6,56.152,85.43,53.543l1.8-.27.645,4.693,29.808-3.644ZM86.735,37.23l3.748-.525a9.26,9.26,0,0,0,1.754.57,5.469,5.469,0,0,0,4.393-.4,7.31,7.31,0,0,0,1.769-1.6l15.369-2.834L115.328,51.7,89.014,56.512Zm21.8,6.4L103.5,40.259l-4.2,7.122-4.888-1.454-4.3,6.672.225,2.1,23.376-4.378L112.36,35.476Z" transform="translate(-52.024)" fill="#75459b"/>
    <path id="Path_14896" data-name="Path 14896" d="M72.571,430.507v2.639a5.385,5.385,0,0,1-1.274.195c-2.534,0-3.793-1.349-3.793-4.063,0-2.5,1.334-3.748,4.018-3.748a7.678,7.678,0,0,1,3.119.63V424.27a8.977,8.977,0,0,0-3.284-.555q-6.005,0-6.013,5.563,0,5.87,5.908,5.878a8.311,8.311,0,0,0,3.389-.6v-5.908H71.3l-.7,1.859Zm-14.154,2.819c2.249,0,3.374-1.3,3.374-3.928,0-2.579-1.125-3.883-3.374-3.883-2.309,0-3.464,1.289-3.464,3.883.015,2.624,1.155,3.928,3.464,3.928m-5.608-3.883q0-5.735,5.608-5.743,5.51,0,5.518,5.743,0,5.713-5.518,5.713c-3.569-.015-5.443-1.9-5.608-5.713m-9.4,3.808h2.459c2.309,0,3.479-1.379,3.479-4.138,0-2.354-1.155-3.524-3.479-3.524H43.408Zm2.774,1.814H41.338V423.79h4.843q5.24,0,5.233,5.338,0,5.938-5.233,5.938m-15.894,0H28.159L32.9,423.79h2.219l4.843,11.275H37.74l-1.409-3.074H32.762l.7-1.814h2.324l-1.829-4.243ZM20.752,423.79h8.472V425.6H26.03v9.461H23.96V425.6H20.752Zm-8.517,11.275H10.106l4.738-11.275h2.219l4.843,11.275H19.7l-1.409-3.074H14.709l.7-1.814h2.324l-1.814-4.243ZM2.069,433.251H4.528c2.324,0,3.479-1.379,3.479-4.138,0-2.354-1.155-3.524-3.479-3.524H2.069Zm2.774,1.814H0V423.79H4.843q5.248,0,5.233,5.338c0,3.958-1.754,5.938-5.233,5.938" transform="translate(0 -360.171)" fill="#75459b"/>
  </g>
</svg>
