<svg width="98" height="45" viewBox="0 0 98 45" fill="none" xmlns="http://www.w3.org/2000/svg">
<g clip-path="url(#clip0_1763_394)">
<mask id="mask0_1763_394" style="mask-type:luminance" maskUnits="userSpaceOnUse" x="1" y="1" width="97" height="43">
<path d="M97.7115 1.01074H1.11133V43.7056H97.7115V1.01074Z" fill="white"/>
</mask>
<g mask="url(#mask0_1763_394)">
<path d="M23.4516 29.95C23.1824 29.3407 22.7795 28.7911 22.269 28.3368C21.7584 27.8823 21.1516 27.5332 20.4878 27.3119C19.5822 27.0396 18.6223 26.9638 17.6807 27.0903C17.0616 27.1431 16.4597 27.3096 15.9096 27.5804C15.3594 27.8512 14.8717 28.2209 14.4747 28.6684C13.89 29.361 13.4684 30.1613 13.2375 31.017C12.8558 32.4331 12.6742 33.89 12.6973 35.3503C12.6975 36.1185 12.7432 36.8861 12.8343 37.6496C12.9486 38.7348 13.2492 39.7958 13.7242 40.7917C14.2122 41.8713 15.1026 42.7484 16.23 43.26C17.1171 43.6223 18.0873 43.7702 19.0514 43.6903C20.251 43.667 21.4009 43.2379 22.2884 42.4825C22.9786 41.8481 23.4914 41.0646 23.7816 40.2011C24.2811 38.6917 24.519 37.1171 24.486 35.5373C24.4984 34.7622 24.457 33.9871 24.3621 33.2169C24.2542 32.089 23.9485 30.9855 23.457 29.9506M21.2662 39.1674C21.1361 39.7292 20.8715 40.256 20.4926 40.7084C20.238 40.9838 19.9187 41.2002 19.5597 41.3408C19.2006 41.4814 18.8116 41.5422 18.4233 41.5185C18.0349 41.4948 17.6576 41.3872 17.3212 41.2042C16.9847 41.0212 16.6981 40.7677 16.4841 40.4637C16.0869 39.8448 15.8392 39.1521 15.7583 38.4341C15.4332 36.3437 15.4459 34.2195 15.796 32.1327C15.895 31.4957 16.1197 30.8815 16.4587 30.3214C16.6858 29.986 17 29.7097 17.3718 29.5183C17.7438 29.3268 18.1614 29.2264 18.5858 29.2264C19.0103 29.2264 19.4279 29.3268 19.7998 29.5183C20.1717 29.7097 20.4858 29.986 20.713 30.3214C21.0943 30.9637 21.3426 31.6675 21.4449 32.3959C21.6014 33.3976 21.6763 34.409 21.6688 35.4214C21.691 36.6796 21.5561 37.9359 21.2669 39.1649" fill="#86BC41"/>
<path d="M8.77377 33.6248C7.37652 33.3017 5.91887 33.2814 4.51192 33.5653C4.1915 33.6203 4.19219 33.6222 4.22642 33.3174C4.22642 33.3033 4.22642 33.2899 4.23122 33.2757C4.34487 32.1286 4.46467 30.9823 4.56532 29.8345C4.58244 29.6424 4.63995 29.597 4.83917 29.5976C6.86502 29.6046 8.89085 29.5975 10.9167 29.6053C11.0865 29.6053 11.1474 29.572 11.1446 29.4003C11.1333 28.7782 11.1333 28.1561 11.1446 27.534C11.1481 27.3476 11.1016 27.2894 10.8899 27.29C8.528 27.2977 6.166 27.2951 3.80331 27.2951C3.30216 27.2951 2.80169 27.2983 2.30054 27.2951C2.16977 27.2951 2.11842 27.3278 2.10953 27.4572C2.05338 28.2257 1.98971 28.9892 1.92467 29.7551C1.84046 30.7504 1.75283 31.7457 1.66862 32.7409C1.60358 33.5094 1.54265 34.2723 1.47897 35.0383C1.47008 35.1465 1.47145 35.2355 1.59811 35.3008C1.94042 35.4763 2.26973 35.6659 2.60247 35.8529C2.6368 35.8738 2.67542 35.8878 2.71584 35.894C2.75628 35.9002 2.79763 35.8984 2.83729 35.8888C3.28778 35.7876 3.7458 35.7255 4.20657 35.664C5.19612 35.5072 6.20871 35.5305 7.18884 35.7325C7.65243 35.8029 8.08862 35.9846 8.45492 36.2595C8.82122 36.5345 9.10515 36.8936 9.279 37.3016C9.4639 37.7989 9.52524 38.3289 9.45845 38.8516C9.44201 39.2123 9.34675 39.5661 9.17863 39.8912C9.0105 40.2163 8.77299 40.5056 8.48075 40.7415C7.8957 41.173 7.18408 41.4277 6.44054 41.4717C4.59632 41.6201 2.74557 41.2665 1.11133 40.4534C1.11133 41.236 1.11133 41.9904 1.11133 42.7423C1.11133 42.8339 1.17979 42.8589 1.24346 42.8909C1.56047 43.047 1.89207 43.1756 2.23413 43.2752C3.05715 43.5077 3.90828 43.642 4.76729 43.6749C5.95296 43.7659 7.14658 43.672 8.29932 43.3969C9.01375 43.2363 9.6843 42.9378 10.2679 42.5201C10.8515 42.1025 11.3351 41.5752 11.6876 40.9721C12.1998 40.0107 12.4261 38.938 12.3428 37.8665C12.334 36.8897 11.9791 35.9432 11.3334 35.1754C10.6877 34.4077 9.78792 33.862 8.77515 33.6241" fill="#86BC41"/>
<path d="M79.6991 27.4074C79.4155 27.4052 79.1401 27.4961 78.9206 27.664C78.7011 27.8321 78.5514 28.0667 78.4976 28.3271C78.3029 28.9833 78.3029 29.6768 78.4976 30.333C78.5636 30.6245 78.7441 30.8822 79.0035 31.0551C79.2629 31.2281 79.5823 31.3036 79.8983 31.2668C80.1931 31.2756 80.4816 31.1847 80.7106 31.0107C80.9396 30.8367 81.0938 30.5913 81.1451 30.3195C81.2302 30.0084 81.2718 29.6883 81.2689 29.3672C81.2784 28.9971 81.2228 28.6279 81.1046 28.2746C81.0234 27.9943 80.8355 27.7515 80.5763 27.5918C80.3171 27.4321 80.0043 27.3665 79.697 27.4074M80.1078 30.146C80.0778 30.3029 80.0154 30.4598 79.81 30.4585C79.6046 30.4573 79.5533 30.2971 79.5136 30.1422C79.4641 29.8741 79.4435 29.602 79.4519 29.33C79.4418 29.051 79.4647 28.7717 79.5204 28.4975C79.5587 28.3591 79.6196 28.2176 79.8024 28.215C79.9853 28.2124 80.0688 28.3521 80.0995 28.5039C80.2099 29.0462 80.2122 29.6029 80.1064 30.146" fill="#86BC41"/>
<path d="M77.192 28.826C76.9736 28.776 76.7462 28.77 76.5252 28.8087C76.404 28.8267 76.376 28.7985 76.3951 28.6953C76.4103 28.6341 76.4177 28.5712 76.417 28.5084C76.4054 28.3591 76.4753 28.3213 76.6272 28.3258C76.9634 28.336 77.3002 28.3258 77.6364 28.3323C77.7788 28.336 77.8178 28.2899 77.8103 28.1638C77.8003 27.9893 77.8003 27.8144 77.8103 27.6399C77.8171 27.5169 77.7665 27.4856 77.6426 27.4881C77.3139 27.4945 76.9846 27.4881 76.656 27.4881C76.3274 27.4881 76.0131 27.4958 75.6921 27.4881C75.5339 27.483 75.4914 27.5361 75.4866 27.6803C75.4599 28.1894 75.4141 28.6973 75.3854 29.2065C75.3785 29.3287 75.2654 29.485 75.4879 29.5606C75.6311 29.6093 75.7475 29.7021 75.9276 29.6458C76.1629 29.5694 76.4187 29.5676 76.6553 29.6406C76.7539 29.6657 76.8393 29.7233 76.896 29.8028C76.9526 29.8823 76.9766 29.9783 76.9634 30.073C76.9408 30.3003 76.745 30.4489 76.4369 30.4637C76.0998 30.469 75.7651 30.4092 75.4537 30.2882C75.3168 30.2395 75.2826 30.2766 75.2867 30.4003C75.2922 30.5681 75.297 30.7365 75.2867 30.903C75.2815 30.9301 75.2821 30.9578 75.2885 30.9847C75.2949 31.0115 75.3071 31.0369 75.324 31.0594C75.3411 31.0818 75.3627 31.1008 75.3877 31.1153C75.4126 31.1298 75.4405 31.1395 75.4695 31.1439C75.8499 31.2489 76.247 31.2908 76.643 31.2674C76.8499 31.2862 77.0587 31.2586 77.2521 31.1871C77.4455 31.1157 77.6181 31.0023 77.7555 30.8563C77.8931 30.7104 77.9915 30.5359 78.0429 30.3474C78.0943 30.1589 78.0971 29.9617 78.0513 29.7719C78.0326 29.5508 77.9403 29.3407 77.7871 29.1712C77.6339 29.0019 77.4276 28.8818 77.1976 28.8279" fill="#86BC41"/>
<path d="M68.2042 29.2409C68.2094 29.0388 68.1408 28.8412 68.01 28.6804C67.879 28.5197 67.6935 28.4054 67.4839 28.3564C66.8844 28.2203 66.2538 28.2688 65.6861 28.4948C65.5978 28.5275 65.5751 28.5671 65.6176 28.6504C65.6929 28.7945 65.7627 28.9412 65.823 29.0904C65.8641 29.1877 65.912 29.2114 66.0215 29.1679C66.2588 29.064 66.5175 29.0098 66.7794 29.0091C66.851 29.004 66.9222 29.022 66.9812 29.0601C67.0403 29.0982 67.0836 29.1541 67.1039 29.2185C67.1402 29.3261 67.1286 29.3888 66.9793 29.3812C66.7329 29.3705 66.4858 29.3849 66.2427 29.4241C66.0734 29.421 65.906 29.4587 65.7568 29.5336C65.6075 29.6085 65.4815 29.7181 65.3906 29.8517C65.2997 29.9854 65.247 30.1387 65.2378 30.2968C65.2285 30.455 65.2629 30.6128 65.3376 30.755C65.3716 30.8744 65.4412 30.9824 65.5381 31.0664C65.6351 31.1504 65.7554 31.2069 65.8853 31.2295C66.1251 31.3006 66.3823 31.3014 66.6226 31.2319C66.8628 31.1623 67.0745 31.0255 67.2292 30.8402C67.4777 31.2244 67.4777 31.2244 67.9385 31.2244C67.9759 31.2221 68.0134 31.2221 68.0508 31.2244C68.1679 31.2385 68.2049 31.195 68.2035 31.0842C68.198 30.4693 68.2082 29.8545 68.198 29.2396M67.1245 30.11C67.132 30.2138 67.0967 30.3164 67.026 30.3966C66.9552 30.4769 66.8542 30.5288 66.7438 30.5416C66.5884 30.5628 66.4316 30.5481 66.3762 30.3803C66.3481 30.3101 66.35 30.2326 66.3814 30.1637C66.4128 30.0948 66.4712 30.0398 66.5445 30.0101C66.6946 29.9463 66.8595 29.919 67.0238 29.9307C67.1806 29.9307 67.1019 30.0504 67.1245 30.11Z" fill="#86BC41"/>
<path d="M57.9612 28.4793C57.9798 28.4031 57.9421 28.3653 57.8517 28.3698C57.3143 28.398 56.7782 28.3192 56.2422 28.332C56.1106 28.3263 55.9793 28.3456 55.8559 28.3885C55.7326 28.4315 55.6198 28.4975 55.5244 28.5823C55.4289 28.6672 55.3529 28.7692 55.3007 28.8822C55.2485 28.9953 55.2213 29.117 55.2207 29.2402C55.1997 29.4146 55.2339 29.591 55.3191 29.7475C55.4043 29.9039 55.5367 30.0335 55.7 30.1202C55.2816 30.4936 55.2645 30.6326 55.5972 30.9842C55.1604 31.1456 54.9714 31.3749 54.9872 31.7104C54.9925 31.8837 55.0631 32.0498 55.1865 32.1793C55.3099 32.3088 55.4781 32.3933 55.6616 32.4181C56.2011 32.5472 56.7704 32.5143 57.2889 32.324C57.5185 32.2507 57.7094 32.0981 57.8227 31.8975C57.9359 31.697 57.963 31.4635 57.8983 31.2448C57.8147 30.8798 57.4779 30.6799 56.9494 30.6767C56.681 30.6767 56.412 30.6767 56.1442 30.6575C56.0361 30.6512 55.9019 30.6178 55.9272 30.4724C55.9318 30.4124 55.9608 30.3563 56.0083 30.3158C56.0559 30.2753 56.1183 30.2533 56.1826 30.2546C56.3092 30.2546 56.4366 30.2617 56.5632 30.2546C56.7174 30.2607 56.8709 30.2334 57.0119 30.1749C57.1528 30.1164 57.2773 30.0281 57.3759 29.917C57.4744 29.8059 57.5441 29.6751 57.5797 29.5347C57.6152 29.3943 57.6155 29.2481 57.5806 29.1076C57.5514 29.0006 57.5148 28.8956 57.471 28.7931C57.6039 28.7669 57.7347 28.7407 57.8662 28.7163C58.0366 28.6843 57.9394 28.56 57.9592 28.4774M57.1048 31.2384C57.3787 31.3024 57.3985 31.6554 57.152 31.8488C56.9493 31.9816 56.7074 32.0526 56.4599 32.0518C56.4153 32.0563 56.3701 32.0518 56.3065 32.0518C56.1782 32.0605 56.0493 32.0466 55.9265 32.0107C55.8334 31.9959 55.7482 31.9522 55.6845 31.8869C55.6208 31.8217 55.5821 31.7384 55.5746 31.6503C55.5701 31.5546 55.6006 31.4603 55.6611 31.3832C55.7216 31.3059 55.8085 31.2503 55.9074 31.2256C56.3019 31.1396 56.7128 31.1433 57.1054 31.2365M56.4209 29.8697C56.3401 29.8752 56.2591 29.8636 56.1837 29.8356C56.1085 29.8077 56.0409 29.7642 55.9862 29.7084C55.9314 29.6525 55.8908 29.5859 55.8675 29.5134C55.8441 29.4408 55.8386 29.3643 55.8512 29.2895C55.856 28.9117 56.0567 28.7054 56.423 28.7093C56.7755 28.7131 56.9569 28.911 56.9575 29.2934C56.9582 29.6757 56.7837 29.8697 56.4209 29.8697Z" fill="white"/>
<path d="M64.9134 27.4878C64.5848 27.4948 64.2554 27.4878 63.9268 27.4878C63.5845 27.4878 63.2422 27.4917 62.8958 27.4878C62.7753 27.4878 62.7246 27.5128 62.7246 27.6377C62.7292 28.7841 62.7292 29.9303 62.7246 31.0763C62.7246 31.2044 62.7766 31.2287 62.8964 31.2255C63.1354 31.2191 63.3757 31.2146 63.614 31.2255C63.7715 31.2338 63.7989 31.1717 63.7961 31.043C63.7886 30.701 63.8036 30.3577 63.7893 30.0182C63.7817 29.8479 63.8262 29.7838 64.0193 29.7947C64.2931 29.8101 64.5718 29.7991 64.8484 29.7979C64.9128 29.7979 64.9942 29.8139 64.9915 29.7146C64.9853 29.4853 65.0736 29.2221 64.9544 29.0389C64.8771 28.9205 64.5923 29.0147 64.4006 29.0012C64.3856 29.0012 64.3705 29.0012 64.3554 29.0012C63.7714 29.0012 63.7769 29.0012 63.7885 28.4465C63.7885 28.3134 63.8379 28.2819 63.9714 28.2852C64.2849 28.2935 64.5992 28.2852 64.9128 28.2902C65.0428 28.2902 65.1058 28.2672 65.0962 28.1302C65.0844 27.9698 65.0844 27.8089 65.0962 27.6485C65.1065 27.5115 65.0421 27.4859 64.9128 27.489" fill="#86BC41"/>
<path d="M70.4685 29.4532C70.2713 29.3699 70.0707 29.2937 69.8728 29.2124C69.8091 29.1861 69.7461 29.1484 69.7564 29.0741C69.7687 28.9889 69.8543 28.9761 69.9276 28.9664C70.0694 28.9618 70.2112 28.9776 70.3479 29.0131C70.5246 29.0401 70.7129 29.2188 70.8546 29.117C70.9833 29.0241 71.006 28.8076 71.0909 28.6526C71.1498 28.545 71.1079 28.5098 71.0059 28.4707C70.5908 28.3063 70.1368 28.2471 69.6894 28.2991C69.4898 28.295 69.2934 28.3481 69.1268 28.4511C68.9603 28.5541 68.8312 28.7021 68.7568 28.8755C68.7169 28.9836 68.7002 29.0981 68.7078 29.2123C68.7155 29.3265 68.7473 29.4382 68.8014 29.5408C68.8555 29.6434 68.9309 29.7349 69.0232 29.81C69.1155 29.8851 69.2227 29.9424 69.3388 29.9784C69.5476 30.0706 69.764 30.1481 69.9749 30.2345C70.055 30.2685 70.1542 30.3126 70.1351 30.4126C70.1159 30.5125 69.9982 30.5304 69.903 30.5407C69.7015 30.5488 69.4998 30.5301 69.304 30.4849C69.1095 30.4504 68.8431 30.2762 68.7521 30.3729C68.6467 30.4856 68.7288 30.7443 68.7117 30.9391C68.6987 31.0825 68.7692 31.1356 68.9027 31.1671C69.1845 31.2378 69.4759 31.2695 69.7675 31.2612C69.8715 31.2612 69.9769 31.2657 70.081 31.2612C70.322 31.2787 70.5618 31.2147 70.7567 31.0806C70.9514 30.9466 71.0882 30.7516 71.1422 30.5311C71.1742 30.4188 71.1822 30.3017 71.1657 30.1864C71.1491 30.0713 71.1084 29.9603 71.0457 29.8599C70.9831 29.7595 70.8998 29.6717 70.8008 29.6016C70.7017 29.5315 70.5887 29.4803 70.4685 29.4512" fill="#86BC41"/>
<path d="M42.6126 28.3363C42.3985 28.2939 42.1759 28.3086 41.9702 28.3785C41.7645 28.4485 41.5838 28.571 41.4487 28.7321C41.487 28.3683 41.4686 28.0116 41.47 27.6562C41.47 27.2353 41.47 27.2443 41.014 27.2341C40.8401 27.2302 40.8086 27.2815 40.8086 27.4333C40.8154 28.5444 40.8127 29.6556 40.8127 30.7668C40.8127 31.2414 40.8127 31.2363 41.3166 31.2273C41.4536 31.2273 41.4747 31.1806 41.4734 31.0685C41.4673 30.6842 41.4734 30.3 41.4734 29.9156C41.4614 29.7132 41.48 29.51 41.5289 29.3124C41.5764 29.1483 41.69 29.0078 41.8459 28.9203C42.0017 28.8328 42.1876 28.8051 42.3648 28.8429C42.6729 28.8852 42.8249 29.087 42.8263 29.4603C42.8263 30.0053 42.8331 30.5491 42.8228 31.0954C42.8228 31.2472 42.9159 31.2427 43.0049 31.2197C43.1665 31.1774 43.4602 31.356 43.478 31.1056C43.5145 30.4916 43.5169 29.8761 43.4856 29.2617C43.4958 29.1474 43.4815 29.0322 43.4432 28.9231C43.4049 28.814 43.3435 28.7133 43.2627 28.6269C43.1818 28.5406 43.0832 28.4703 42.9727 28.4203C42.8622 28.3704 42.7421 28.3418 42.6195 28.3363" fill="white"/>
<path d="M73.3243 30.4499C73.2951 30.4556 73.2657 30.4599 73.236 30.4628C72.9793 30.4813 72.8773 30.3987 72.8738 30.1559C72.8738 29.9677 72.8738 29.7788 72.8738 29.5904C72.8738 29.0889 72.8738 29.0889 73.4215 29.0857C73.4514 29.0843 73.4814 29.0843 73.5112 29.0857C73.6084 29.0947 73.644 29.0537 73.6399 28.9641C73.631 28.763 73.6982 28.5209 73.6009 28.373C73.5194 28.2493 73.2408 28.346 73.0532 28.3306C73.0457 28.3298 73.0381 28.3298 73.0306 28.3306C72.9149 28.346 72.8759 28.3018 72.8752 28.191C72.8752 28.0476 72.9505 27.8471 72.8382 27.7741C72.7259 27.7011 72.5233 27.7485 72.359 27.7433C72.3364 27.7433 72.3139 27.7433 72.2906 27.7433C72.2706 27.739 72.25 27.7386 72.2298 27.742C72.2098 27.7454 72.1906 27.7526 72.1736 27.7631C72.1566 27.7737 72.142 27.7874 72.1308 27.8033C72.1195 27.8194 72.112 27.8373 72.1085 27.8561C72.064 28.0176 71.9855 28.1692 71.8776 28.3019C71.7697 28.4347 71.6344 28.5459 71.4799 28.629C71.3183 28.7111 71.4059 28.8853 71.4114 29.0134C71.4169 29.1415 71.5538 29.0774 71.6271 29.0774C71.7552 29.0774 71.7969 29.1165 71.7921 29.2344C71.7839 29.4367 71.7921 29.6391 71.7921 29.8415H71.8058C71.8058 30.0714 71.7894 30.3033 71.8092 30.5319C71.8104 30.7201 71.8895 30.9005 72.03 31.0353C72.1704 31.17 72.3612 31.2485 72.5623 31.2544C72.7924 31.2813 73.0256 31.2738 73.2531 31.2319C73.6837 31.1442 73.6845 31.1481 73.6845 30.7382C73.6845 30.3859 73.6844 30.3859 73.3277 30.4467" fill="#86BC41"/>
<path d="M60.5649 28.3698C60.5255 28.362 60.4845 28.3691 60.4508 28.3895C60.417 28.4098 60.3932 28.442 60.3847 28.4786C60.154 29.1409 59.9192 29.8025 59.6857 30.4641C59.688 30.4912 59.6845 30.5184 59.6753 30.5441C59.6662 30.5698 59.6515 30.5936 59.6323 30.614C59.5871 30.5838 59.605 30.5448 59.6091 30.5083C59.4188 29.8038 59.1073 29.139 58.8642 28.4524C58.8578 28.4257 58.8406 28.4023 58.8163 28.387C58.7919 28.3718 58.7622 28.3659 58.7334 28.3705C58.5355 28.3742 58.3377 28.3705 58.1172 28.3705C58.5075 29.2882 58.8875 30.1798 59.2654 31.0719C59.3074 31.1368 59.3217 31.214 59.3052 31.2884C59.1387 31.8161 58.9224 31.9743 58.3466 31.9563C58.2686 31.9563 58.2343 31.9641 58.2357 32.0377C58.2426 32.4764 58.1528 32.4738 58.6307 32.4803C58.7349 32.4854 58.8395 32.4777 58.9416 32.4571C59.1548 32.4006 59.3487 32.2934 59.5047 32.1461C59.6606 31.9987 59.7731 31.8162 59.8316 31.6163C60.193 30.7243 60.5522 29.8313 60.9092 28.9372L61.1371 28.3698C60.9222 28.3698 60.7435 28.3749 60.5649 28.3698Z" fill="white"/>
<path d="M50.1771 29.3092C50.1179 29.0442 49.967 28.8048 49.7476 28.6281C49.5283 28.4515 49.2528 28.3473 48.9639 28.3319C48.6483 28.2779 48.3224 28.332 48.0459 28.4841C47.7694 28.6363 47.5606 28.8764 47.4577 29.1607C47.3375 29.5075 47.319 29.8783 47.4043 30.2341C47.4747 30.52 47.6436 30.7765 47.8848 30.964C48.126 31.1516 48.4264 31.2599 48.7398 31.2725C49.0532 31.2851 49.3623 31.2012 49.6197 31.0336C49.8773 30.8661 50.069 30.6241 50.1654 30.3448C50.2183 30.17 50.2414 29.9885 50.2339 29.8069C50.2406 29.6396 50.2229 29.4721 50.1811 29.3092M49.4965 30.2892C49.4486 30.4257 49.3558 30.5447 49.2315 30.6291C49.107 30.7133 48.9573 30.7588 48.8037 30.7588C48.65 30.7588 48.5003 30.7133 48.3759 30.6291C48.2514 30.5447 48.1587 30.4257 48.1108 30.2892C47.9941 29.9474 48.0026 29.5789 48.1347 29.242C48.1789 29.1181 48.2662 29.0116 48.3826 28.9394C48.4989 28.8672 48.6378 28.8335 48.777 28.8436C48.9196 28.8285 49.0637 28.8573 49.1873 28.9257C49.3108 28.9941 49.4072 29.0985 49.4616 29.2228C49.5417 29.4039 49.577 29.5997 49.565 29.7954C49.5725 29.9631 49.5494 30.1307 49.4965 30.2911" fill="white"/>
<path d="M54.7981 29.3097C54.7389 29.0447 54.588 28.8053 54.3687 28.6286C54.1494 28.4519 53.8738 28.3478 53.5849 28.3324C53.2694 28.2784 52.9438 28.3325 52.6672 28.4845C52.3908 28.6365 52.182 28.8764 52.0788 29.1605C51.9586 29.5073 51.9401 29.8781 52.0253 30.2339C52.0957 30.5198 52.2645 30.7763 52.5057 30.9639C52.7469 31.1515 53.0471 31.26 53.3605 31.2726C53.6739 31.2853 53.9831 31.2014 54.2407 31.0339C54.4982 30.8664 54.69 30.6246 54.7865 30.3453C54.8393 30.1704 54.8625 29.9889 54.855 29.8073C54.8616 29.64 54.8439 29.4726 54.8022 29.3097M54.1251 30.264C54.0815 30.4056 53.9901 30.5303 53.8645 30.6193C53.7389 30.7083 53.5859 30.7569 53.4284 30.7579C53.2708 30.7588 53.1172 30.712 52.9904 30.6245C52.8636 30.537 52.7705 30.4135 52.7251 30.2723C52.618 29.9427 52.625 29.59 52.7448 29.2642C52.7864 29.132 52.876 29.0174 52.998 28.9403C53.1201 28.8631 53.2671 28.8282 53.4138 28.8416C53.5601 28.8287 53.7068 28.8624 53.8301 28.9373C53.9533 29.0122 54.0459 29.1237 54.0929 29.254C54.1631 29.431 54.1936 29.6195 54.1827 29.808C54.1887 29.9616 54.1693 30.1159 54.1251 30.264Z" fill="white"/>
<path d="M46.8409 29.2784C46.8526 29.1463 46.8324 29.0133 46.7818 28.8894C46.7311 28.7655 46.6513 28.6538 46.5483 28.5627C46.4453 28.4715 46.3217 28.4032 46.1866 28.3628C46.0515 28.3225 45.9085 28.3109 45.768 28.3293C45.5814 28.3198 45.3949 28.3519 45.224 28.4227C45.053 28.4934 44.9023 28.601 44.7842 28.7366C44.6692 28.3703 44.6693 28.3793 44.3625 28.3696C44.2037 28.3645 44.1646 28.4094 44.1661 28.5554C44.1742 29.2957 44.1695 30.0367 44.1695 30.7778C44.1695 31.2485 44.1694 31.244 44.6822 31.2293C44.8034 31.226 44.8315 31.1902 44.8295 31.0839C44.8232 30.6784 44.8295 30.2731 44.8295 29.867C44.8204 29.6855 44.8379 29.5036 44.8815 29.3264C44.9232 29.1612 45.0327 29.0179 45.1864 28.9274C45.3401 28.8369 45.5257 28.8066 45.703 28.8429C46.0227 28.8794 46.1782 29.0825 46.1823 29.4686C46.1823 29.9996 46.1823 30.5305 46.1823 31.0621C46.1823 31.1184 46.1262 31.2184 46.2507 31.2235C46.4226 31.2299 46.5931 31.2235 46.7663 31.2235C46.8614 31.2235 46.8415 31.153 46.8415 31.1012C46.8415 30.4934 46.8587 29.8843 46.8368 29.2777" fill="white"/>
<path d="M36.754 28.3679C36.4625 28.2823 36.1483 28.2928 35.864 28.3977C35.5796 28.5026 35.3423 28.6955 35.1917 28.9443C34.9847 29.3281 34.9234 29.7662 35.0179 30.1868C35.053 30.4491 35.1786 30.6936 35.3754 30.8832C35.5723 31.0728 35.8299 31.1973 36.1092 31.2378C36.4033 31.2885 36.7049 31.2885 36.9991 31.2378C37.5414 31.152 37.5468 31.1469 37.5202 30.6025C37.2138 30.7265 36.8851 30.7945 36.5514 30.8029C36.4429 30.812 36.3335 30.8005 36.2297 30.7692C36.126 30.738 36.0302 30.6875 35.9476 30.6209C35.8651 30.5543 35.7978 30.4729 35.7496 30.3815C35.7013 30.2901 35.6732 30.1906 35.6669 30.0888C35.6429 29.955 35.6819 29.9229 35.8229 29.9248C36.2864 29.9326 36.7499 29.9248 37.2135 29.9248C37.677 29.9248 37.679 29.9248 37.6694 29.49C37.6791 29.2325 37.593 28.98 37.426 28.7752C37.259 28.5704 37.0213 28.426 36.7533 28.3666M36.9122 29.5066C36.726 29.5022 36.5391 29.5066 36.3529 29.5066C36.1666 29.5066 35.9797 29.5028 35.7935 29.5066C35.6929 29.5066 35.6723 29.4836 35.6867 29.3869C35.6993 29.2251 35.7778 29.0739 35.9058 28.9645C36.0339 28.8552 36.2021 28.7959 36.3755 28.799C36.4597 28.7966 36.5437 28.81 36.6224 28.8385C36.701 28.8669 36.7728 28.9099 36.8335 28.9648C36.8941 29.0196 36.9424 29.0853 36.9754 29.1579C37.0085 29.2306 37.0256 29.3086 37.0259 29.3875C37.0382 29.4855 37.008 29.5086 36.9122 29.5066Z" fill="white"/>
<path d="M35.246 27.6702C35.2501 27.5242 35.2104 27.4845 35.0515 27.4864C34.2526 27.4947 33.4529 27.4903 32.6553 27.4903C32.2165 27.4903 32.2233 27.4903 32.2274 27.8931C32.2274 28.0212 32.2781 28.0403 32.3958 28.0378C32.6792 28.0314 32.9641 28.0416 33.2475 28.0327C33.3755 28.0288 33.4098 28.066 33.4077 28.1839C33.4009 28.6661 33.4077 29.1477 33.4077 29.63V30.8245C33.4077 31.2241 33.4077 31.2126 33.8349 31.228C34.0335 31.2349 34.0807 31.1844 34.0787 30.9999C34.0671 30.0706 34.0787 29.1426 34.0691 28.2126C34.0691 28.0615 34.1135 28.0205 34.2683 28.032C34.4614 28.0448 34.6565 28.032 34.851 28.032C35.25 28.032 35.2419 28.032 35.2514 27.667" fill="white"/>
<path d="M40.23 28.4432C39.9472 28.3532 39.6486 28.3147 39.3503 28.3299C39.0642 28.3243 38.7845 28.4106 38.5582 28.5744C38.3319 28.7383 38.1723 28.9699 38.1063 29.2304C38.0172 29.5268 37.998 29.8378 38.0502 30.1417C38.0559 30.3037 38.0972 30.4628 38.1716 30.6092C38.246 30.7556 38.3518 30.8861 38.4825 30.9925C38.6132 31.099 38.7658 31.179 38.931 31.2278C39.0962 31.2765 39.2704 31.293 39.4428 31.276C39.5763 31.2651 39.7118 31.2638 39.8425 31.2408C40.2787 31.1639 40.2986 31.1325 40.2883 30.7284C40.2883 30.6073 40.267 30.5574 40.1267 30.6247C39.9715 30.6944 39.8044 30.7377 39.633 30.7527C39.5381 30.7745 39.4394 30.7781 39.3429 30.7633C39.2464 30.7485 39.1542 30.7156 39.0716 30.6666C38.9891 30.6176 38.918 30.5535 38.8626 30.4782C38.8072 30.4029 38.7686 30.3178 38.7492 30.2282C38.6916 30.0107 38.6807 29.7848 38.717 29.5634C38.7135 29.4411 38.7431 29.3198 38.8033 29.2112C38.8635 29.1025 38.952 29.0099 39.0608 28.9419C39.1696 28.874 39.2951 28.833 39.4254 28.8227C39.5559 28.8124 39.6869 28.8332 39.8062 28.8832C40.189 28.9691 40.1842 28.9678 40.3143 28.6085C40.3492 28.5118 40.3314 28.4804 40.2307 28.4452" fill="white"/>
<path d="M51.4257 27.6823C51.4257 27.2339 51.4257 27.2384 50.952 27.2339C50.8082 27.2339 50.7617 27.2646 50.7637 27.4055C50.7726 28.0063 50.7672 28.6071 50.7672 29.2078V30.8007C50.7672 31.2253 50.7672 31.2176 51.2183 31.2265C51.3833 31.2297 51.4306 31.1939 51.4299 31.0344C51.4216 29.9168 51.4257 28.7998 51.4257 27.6823Z" fill="white"/>
<path d="M59.6146 30.583C59.6402 30.5458 59.6608 30.5058 59.6757 30.4639L59.5996 30.508C59.6243 30.5382 59.6318 30.5676 59.6146 30.583Z" fill="white"/>
<path d="M32.4062 37.1432V34.4H32.6129V37.1432H32.4062ZM35.5754 37.1432H35.3648L33.6318 34.7171H33.6218C33.6245 34.7847 33.6265 34.8535 33.6278 34.9235C33.6304 34.9923 33.6325 35.0636 33.6338 35.1374C33.6365 35.2099 33.6378 35.285 33.6378 35.3626V37.1432H33.4412V34.4H33.6539L35.3809 36.8186H35.3909C35.3896 36.7636 35.3875 36.6998 35.3848 36.6272C35.3835 36.5547 35.3815 36.4803 35.3788 36.404C35.3775 36.3277 35.3768 36.2557 35.3768 36.1882V34.4H35.5754V37.1432ZM38.6362 35.7454C38.6362 36.0518 38.5781 36.3088 38.4617 36.5165C38.3467 36.7242 38.1756 36.8805 37.9482 36.9856C37.7223 37.0907 37.4421 37.1432 37.1078 37.1432H36.4058V34.4H37.2001C37.513 34.4 37.7757 34.4513 37.9883 34.5539C38.201 34.6564 38.3621 34.8078 38.4717 35.0079C38.5814 35.2068 38.6362 35.4526 38.6362 35.7454ZM38.4196 35.7529C38.4196 35.4914 38.3741 35.2732 38.2832 35.098C38.1923 34.9229 38.0532 34.7916 37.866 34.704C37.6788 34.6151 37.4414 34.5707 37.154 34.5707H36.6123V36.9724H37.0978C37.5404 36.9724 37.8713 36.8712 38.0906 36.6685C38.3099 36.4646 38.4196 36.1594 38.4196 35.7529ZM39.3062 37.1432V34.4H39.5127V37.1432H39.3062ZM42.1764 37.1432L41.7772 36.1731H40.5457L40.1385 37.1432H39.9279L41.0812 34.3906H41.2698L42.393 37.1432H42.1764ZM41.711 35.9987L41.3059 34.9704C41.2952 34.9441 41.2818 34.9104 41.2658 34.8691C41.2511 34.8278 41.235 34.784 41.2176 34.7377C41.2016 34.6914 41.1855 34.6477 41.1695 34.6064C41.1562 34.6502 41.1414 34.694 41.1254 34.7377C41.1093 34.7815 41.0939 34.824 41.0793 34.8653C41.0645 34.9053 41.0505 34.9417 41.0371 34.9742L40.6159 35.9987H41.711Z" fill="white"/>
<path d="M92.6191 15.4084C92.6191 14.7762 92.8881 14.17 93.3661 13.723C93.8433 13.2761 94.4919 13.0249 95.1677 13.0249C95.8435 13.0249 96.4912 13.2761 96.9693 13.723C97.4465 14.17 97.7154 14.7762 97.7154 15.4084C97.7057 16.0378 97.435 16.639 96.9587 17.084C96.4833 17.5291 95.8409 17.7829 95.1677 17.7916C94.4919 17.7914 93.8442 17.5402 93.367 17.0933C92.8889 16.6464 92.62 16.0404 92.6191 15.4084Z" fill="#96BA3A"/>
<path d="M16.0749 9.00379C16.0749 11.7841 15.3321 13.8713 13.7396 15.3591C12.1472 16.8468 9.91802 17.5937 7.05213 17.5937H1.42578V1.05957H7.37048C10.1837 1.05957 12.3067 1.70515 13.7931 3.09559C15.3321 4.43607 16.0756 6.42213 16.0756 9.00445M11.1928 9.15366C11.1928 7.61658 10.8744 6.52204 10.2343 5.77718C9.87715 5.4029 9.43326 5.1099 8.93657 4.92054C8.43989 4.73119 7.90353 4.65047 7.36843 4.68456H6.09637V13.92H7.15756C7.74317 13.9648 8.33186 13.8803 8.87615 13.6733C9.42043 13.4663 9.9051 13.1424 10.2912 12.7281C10.9633 11.6461 11.2773 10.4019 11.1935 9.15301" fill="white"/>
<path d="M35.933 1.01025H31.5273V17.5943H35.933V1.01025Z" fill="white"/>
<path d="M50.4814 11.3898C50.4814 13.3752 49.9508 14.9649 48.7829 16.1068C48.1573 16.6852 47.4088 17.1343 46.586 17.425C45.7632 17.7158 44.8843 17.8416 44.0062 17.7944C43.1394 17.84 42.2724 17.7081 41.4658 17.408C40.6591 17.1079 39.9321 16.6468 39.3355 16.0569C38.1278 14.772 37.4998 13.099 37.5836 11.3898C37.5836 9.40438 38.1141 7.81478 39.2822 6.7228C39.9076 6.14422 40.6559 5.69497 41.4789 5.40414C42.3017 5.11332 43.1807 4.98741 44.0588 5.03456C45.2233 5.00977 46.375 5.26631 47.4026 5.77941C48.3717 6.2716 49.1513 7.03564 49.6318 7.96402C50.2412 9.01297 50.5349 10.197 50.4814 11.3898ZM42.1453 11.3898C42.1045 12.2034 42.2491 13.0157 42.5697 13.773C42.6952 14.0359 42.9069 14.2546 43.1742 14.3974C43.4414 14.5402 43.7503 14.5996 44.0562 14.5671C44.361 14.5932 44.6671 14.5309 44.933 14.389C45.1988 14.2469 45.4116 14.0318 45.5425 13.773C45.853 13.0132 45.9973 12.2027 45.967 11.3898C46.0077 10.5763 45.8631 9.76389 45.5425 9.00664C45.408 8.75041 45.1946 8.53775 44.9296 8.39618C44.6646 8.25461 44.3604 8.19063 44.0562 8.21251C43.7532 8.19885 43.4525 8.26632 43.1893 8.40699C42.926 8.54767 42.711 8.75571 42.5697 9.00664C42.2491 9.76389 42.1045 10.5763 42.1453 11.3898Z" fill="white"/>
<path d="M56.6869 5.23096H52.2812V17.5444H56.6869V5.23096Z" fill="white"/>
<path d="M56.6869 1.01025H52.2812V3.79048H56.6869V1.01025Z" fill="white"/>
<path d="M65.6532 14.4146C66.3781 14.384 67.0938 14.2501 67.7755 14.0175V17.1455C67.2316 17.3713 66.6616 17.5379 66.0769 17.6419C65.4466 17.7494 64.8067 17.7994 64.1662 17.7911C62.6798 17.7911 61.6186 17.4433 60.9285 16.6991C60.1964 15.7681 59.8392 14.6252 59.92 13.4718V8.4071H58.3789V5.22915H59.9179V2.15047L64.3763 1.45557V5.32842H67.2422V8.45642H64.3763V13.2233C64.4824 14.0674 64.8555 14.4152 65.6504 14.4152" fill="white"/>
<path d="M75.95 14.4146C76.6749 14.384 77.3907 14.2501 78.0723 14.0175V17.1455C77.5285 17.3713 76.9585 17.5379 76.3739 17.6419C75.7436 17.7494 75.1036 17.7994 74.463 17.7911C72.9766 17.7911 71.9155 17.4433 71.2253 16.6991C70.4934 15.7681 70.1361 14.6252 70.2169 13.4718V8.4071H68.6777V5.22915H70.2169V2.10115L74.6752 1.45557V5.32842H77.5411V8.45642H74.6752V13.2233C74.7286 14.0674 75.1551 14.4146 75.95 14.4146Z" fill="white"/>
<path d="M89.9663 6.47083C88.9038 5.47748 87.4185 5.03107 85.5077 5.03107C84.6369 4.97912 83.7644 5.10298 82.9493 5.39427C82.1342 5.68557 81.3957 6.13747 80.7837 6.71933C79.6691 7.86126 79.1406 9.45027 79.1406 11.5355C79.1406 13.521 79.7246 15.1106 80.8919 16.2026C81.5673 16.7696 82.3558 17.2062 83.212 17.4873C84.0683 17.7685 84.9755 17.8886 85.8815 17.8408C86.771 17.8613 87.6604 17.7948 88.5356 17.6423C89.2747 17.5081 89.99 17.274 90.6579 16.9475L90.0208 14.1672C88.9012 14.627 87.6867 14.8476 86.4648 14.8128C85.7465 14.8441 85.0372 14.6521 84.4479 14.2665C84.2032 14.0611 84.0099 13.8078 83.8815 13.5247C83.7532 13.2416 83.6929 12.9355 83.7051 12.6282H91.6132V10.6914C91.6554 9.14083 91.0683 7.6328 89.9698 6.47083M83.7071 9.89667C83.7169 9.35269 83.9227 8.82785 84.2911 8.40693C84.4675 8.25093 84.6764 8.13062 84.9046 8.05348C85.1329 7.97634 85.3757 7.94405 85.6179 7.95861C85.8724 7.94523 86.127 7.98257 86.365 8.06813C86.6029 8.15369 86.8187 8.28554 86.9981 8.45496C87.3395 8.86723 87.526 9.37324 87.5287 9.8947L83.7071 9.89667Z" fill="white"/>
<path d="M28.2357 6.47059C26.9175 5.49685 25.2751 4.98812 23.5962 5.03356C21.9173 5.07899 20.3091 5.67569 19.0533 6.71908C17.9388 7.86102 17.4102 9.45001 17.4102 11.5354C17.4102 13.5208 17.9941 15.1104 19.1615 16.2024C19.8368 16.7694 20.6253 17.2059 21.4816 17.4871C22.3378 17.7682 23.245 17.8884 24.1511 17.8407C25.0406 17.8611 25.93 17.7946 26.8048 17.6421C27.5445 17.5078 28.2594 17.2737 28.9271 16.9472L28.2904 14.117C27.1711 14.5768 25.9563 14.7974 24.7344 14.7626C24.016 14.7939 23.3068 14.6018 22.7175 14.2163C22.4728 14.0109 22.2794 13.7576 22.1511 13.4746C22.0227 13.1914 21.9625 12.8853 21.9746 12.578H29.8788V10.6912C29.9211 9.14057 29.3341 7.63253 28.2357 6.47059ZM21.9192 9.89642C21.929 9.35251 22.1348 8.8276 22.5032 8.4067C22.6795 8.2507 22.8884 8.13038 23.1166 8.05325C23.345 7.97611 23.5878 7.94381 23.83 7.95837C24.085 7.94033 24.3411 7.9755 24.5798 8.06134C24.8185 8.14718 25.0338 8.28155 25.2102 8.45472C25.5516 8.86698 25.7382 9.37298 25.7408 9.89444L21.9192 9.89642Z" fill="white"/>
<path d="M28.6914 27.29V43.7031" stroke="white" stroke-width="0.638994" stroke-miterlimit="10"/>
<mask id="mask1_1763_394" style="mask-type:luminance" maskUnits="userSpaceOnUse" x="33" y="40" width="52" height="3">
<path d="M84.3524 40.457H33.4414V42.5276H84.3524V40.457Z" fill="white"/>
</mask>
<g mask="url(#mask1_1763_394)">
<path d="M34.126 41.738C34.5042 41.738 34.8107 41.4512 34.8107 41.0975C34.8107 40.7438 34.5042 40.457 34.126 40.457C33.7479 40.457 33.4414 40.7438 33.4414 41.0975C33.4414 41.4512 33.7479 41.738 34.126 41.738Z" fill="#86BC41"/>
<path d="M37.5538 41.738C37.9319 41.738 38.2384 41.4512 38.2384 41.0975C38.2384 40.7438 37.9319 40.457 37.5538 40.457C37.1757 40.457 36.8691 40.7438 36.8691 41.0975C36.8691 41.4512 37.1757 41.738 37.5538 41.738Z" fill="#86BC41"/>
<path d="M40.9776 41.738C41.3557 41.738 41.6622 41.4512 41.6622 41.0975C41.6622 40.7438 41.3557 40.457 40.9776 40.457C40.5995 40.457 40.293 40.7438 40.293 41.0975C40.293 41.4512 40.5995 41.738 40.9776 41.738Z" fill="#86BC41"/>
<path d="M44.4034 41.738C44.7815 41.738 45.088 41.4512 45.088 41.0975C45.088 40.7438 44.7815 40.457 44.4034 40.457C44.0253 40.457 43.7188 40.7438 43.7188 41.0975C43.7188 41.4512 44.0253 41.738 44.4034 41.738Z" fill="#86BC41"/>
<path d="M47.8234 41.738C48.2014 41.738 48.508 41.4512 48.508 41.0975C48.508 40.7438 48.2014 40.457 47.8234 40.457C47.4452 40.457 47.1387 40.7438 47.1387 41.0975C47.1387 41.4512 47.4452 41.738 47.8234 41.738Z" fill="#86BC41"/>
<path d="M51.249 41.738C51.6272 41.738 51.9337 41.4512 51.9337 41.0975C51.9337 40.7438 51.6272 40.457 51.249 40.457C50.871 40.457 50.5645 40.7438 50.5645 41.0975C50.5645 41.4512 50.871 41.738 51.249 41.738Z" fill="#86BC41"/>
<path d="M54.667 41.738C55.0452 41.738 55.3517 41.4512 55.3517 41.0975C55.3517 40.7438 55.0452 40.457 54.667 40.457C54.289 40.457 53.9824 40.7438 53.9824 41.0975C53.9824 41.4512 54.289 41.738 54.667 41.738Z" fill="#86BC41"/>
<path d="M58.0948 41.738C58.4729 41.738 58.7794 41.4512 58.7794 41.0975C58.7794 40.7438 58.4729 40.457 58.0948 40.457C57.7167 40.457 57.4102 40.7438 57.4102 41.0975C57.4102 41.4512 57.7167 41.738 58.0948 41.738Z" fill="#86BC41"/>
<path d="M61.5127 41.738C61.8909 41.738 62.1974 41.4512 62.1974 41.0975C62.1974 40.7438 61.8909 40.457 61.5127 40.457C61.1347 40.457 60.8281 40.7438 60.8281 41.0975C60.8281 41.4512 61.1347 41.738 61.5127 41.738Z" fill="#86BC41"/>
<path d="M64.9385 41.738C65.3167 41.738 65.6232 41.4512 65.6232 41.0975C65.6232 40.7438 65.3167 40.457 64.9385 40.457C64.5604 40.457 64.2539 40.7438 64.2539 41.0975C64.2539 41.4512 64.5604 41.738 64.9385 41.738Z" fill="#86BC41"/>
<path d="M68.3585 41.738C68.7366 41.738 69.0431 41.4512 69.0431 41.0975C69.0431 40.7438 68.7366 40.457 68.3585 40.457C67.9804 40.457 67.6738 40.7438 67.6738 41.0975C67.6738 41.4512 67.9804 41.738 68.3585 41.738Z" fill="#86BC41"/>
<path d="M71.7842 41.738C72.1624 41.738 72.4689 41.4512 72.4689 41.0975C72.4689 40.7438 72.1624 40.457 71.7842 40.457C71.4061 40.457 71.0996 40.7438 71.0996 41.0975C71.0996 41.4512 71.4061 41.738 71.7842 41.738Z" fill="#86BC41"/>
<path d="M75.2041 41.738C75.5823 41.738 75.8888 41.4512 75.8888 41.0975C75.8888 40.7438 75.5823 40.457 75.2041 40.457C74.8261 40.457 74.5195 40.7438 74.5195 41.0975C74.5195 41.4512 74.8261 41.738 75.2041 41.738Z" fill="#86BC41"/>
<path d="M78.63 41.738C79.0081 41.738 79.3146 41.4512 79.3146 41.0975C79.3146 40.7438 79.0081 40.457 78.63 40.457C78.2518 40.457 77.9453 40.7438 77.9453 41.0975C77.9453 41.4512 78.2518 41.738 78.63 41.738Z" fill="#86BC41"/>
<path d="M82.0557 41.738C82.4338 41.738 82.7404 41.4512 82.7404 41.0975C82.7404 40.7438 82.4338 40.457 82.0557 40.457C81.6776 40.457 81.3711 40.7438 81.3711 41.0975C81.3711 41.4512 81.6776 41.738 82.0557 41.738Z" fill="#86BC41"/>
</g>
</g>
</g>
<defs>
<clipPath id="clip0_1763_394">
<rect width="97.5484" height="43.5716" fill="white" transform="translate(0.431641 0.600586)"/>
</clipPath>
</defs>
</svg>
