<svg width="92" height="41" viewBox="0 0 92 41" fill="none" xmlns="http://www.w3.org/2000/svg">
<g clip-path="url(#clip0_17131_335)">
<mask id="mask0_17131_335" style="mask-type:luminance" maskUnits="userSpaceOnUse" x="0" y="0" width="92" height="41">
<path d="M91.5382 0.386719H0.639404V40.5617H91.5382V0.386719Z" fill="white"/>
</mask>
<g mask="url(#mask0_17131_335)">
<path d="M21.66 27.619C21.4067 27.0457 21.0275 26.5285 20.5472 26.101C20.0667 25.6733 19.4958 25.3449 18.8711 25.1366C18.019 24.8803 17.1158 24.809 16.2298 24.9281C15.6472 24.9777 15.0808 25.1345 14.5631 25.3893C14.0454 25.6441 13.5865 25.992 13.2129 26.4131C12.6627 27.0648 12.266 27.8179 12.0487 28.623C11.6896 29.9556 11.5187 31.3265 11.5404 32.7006C11.5407 33.4234 11.5837 34.1457 11.6693 34.8642C11.7769 35.8854 12.0597 36.8837 12.5068 37.8208C12.9659 38.8367 13.8038 39.6621 14.8646 40.1434C15.6994 40.4843 16.6123 40.6236 17.5196 40.5484C18.6483 40.5264 19.7304 40.1227 20.5654 39.4118C21.2149 38.8149 21.6975 38.0776 21.9705 37.2651C22.4405 35.8448 22.6644 34.3631 22.6334 32.8766C22.6451 32.1472 22.6061 31.4178 22.5168 30.6931C22.4152 29.6318 22.1275 28.5934 21.6651 27.6196M19.6036 36.2924C19.4812 36.821 19.2322 37.3167 18.8757 37.7424C18.6361 38.0016 18.3356 38.2053 17.9978 38.3376C17.6599 38.4698 17.2939 38.527 16.9285 38.5047C16.563 38.4824 16.208 38.3812 15.8915 38.209C15.5748 38.0368 15.3052 37.7983 15.1037 37.5122C14.73 36.9298 14.4969 36.278 14.4208 35.6024C14.1149 33.6354 14.1268 31.6365 14.4562 29.6729C14.5494 29.0735 14.7609 28.4955 15.0798 27.9685C15.2936 27.6529 15.5892 27.3929 15.9391 27.2128C16.2891 27.0326 16.682 26.9382 17.0814 26.9382C17.4809 26.9382 17.8738 27.0326 18.2238 27.2128C18.5737 27.3929 18.8693 27.6529 19.0831 27.9685C19.4419 28.5729 19.6755 29.2352 19.7717 29.9206C19.919 30.8632 19.9895 31.8148 19.9825 32.7675C20.0034 33.9514 19.8764 35.1336 19.6043 36.29" fill="#86BC41"/>
<path d="M7.84961 31.0761C6.53482 30.7721 5.1632 30.753 3.83929 31.0201C3.53779 31.0719 3.53843 31.0737 3.57064 30.7869C3.57064 30.7735 3.57064 30.7609 3.57516 30.7476C3.6821 29.6682 3.79483 28.5896 3.88954 27.5096C3.90565 27.3288 3.95976 27.286 4.14723 27.2866C6.05351 27.2932 7.95977 27.2865 9.86603 27.2938C10.0258 27.2938 10.0832 27.2625 10.0805 27.101C10.0699 26.5156 10.0699 25.9302 10.0805 25.3448C10.0838 25.1694 10.04 25.1146 9.84089 25.1152C7.61834 25.1224 5.39574 25.12 3.17251 25.12C2.70093 25.12 2.23 25.1231 1.75843 25.12C1.63538 25.12 1.58706 25.1507 1.57869 25.2725C1.52586 25.9957 1.46595 26.7141 1.40474 27.4348C1.32551 28.3713 1.24304 29.3079 1.16381 30.2444C1.1026 30.9676 1.04527 31.6854 0.985351 32.4062C0.976982 32.508 0.978272 32.5918 1.09745 32.6532C1.41956 32.8184 1.72944 32.9968 2.04254 33.1727C2.07484 33.1924 2.11118 33.2055 2.14922 33.2114C2.18727 33.2172 2.22618 33.2155 2.2635 33.2065C2.6874 33.1112 3.11839 33.0528 3.55196 32.995C4.48311 32.8475 5.43593 32.8693 6.35822 33.0594C6.79445 33.1257 7.2049 33.2966 7.54958 33.5553C7.89426 33.814 8.16143 34.1519 8.32501 34.536C8.499 35.0038 8.55672 35.5025 8.49387 35.9944C8.47841 36.3338 8.38877 36.6668 8.23057 36.9727C8.07236 37.2785 7.84887 37.5508 7.57388 37.7728C7.02336 38.1788 6.35374 38.4185 5.65408 38.4599C3.91871 38.5995 2.1772 38.2668 0.639404 37.5016C0.639404 38.2381 0.639404 38.948 0.639404 39.6555C0.639404 39.7417 0.703827 39.7652 0.76374 39.7953C1.06203 39.9422 1.37407 40.0632 1.69594 40.1569C2.47038 40.3757 3.27128 40.5021 4.07959 40.533C5.19528 40.6187 6.31845 40.5303 7.40316 40.2715C8.07542 40.1204 8.7064 39.8394 9.25557 39.4464C9.80467 39.0535 10.2597 38.5573 10.5914 37.9898C11.0735 37.0851 11.2864 36.0757 11.208 35.0675C11.1997 34.1483 10.8657 33.2577 10.2582 32.5352C9.65061 31.8128 8.8039 31.2994 7.8509 31.0755" fill="#86BC41"/>
<path d="M74.5883 25.2258C74.3214 25.2237 74.0623 25.3092 73.8558 25.4673C73.6492 25.6254 73.5084 25.8462 73.4577 26.0912C73.2745 26.7087 73.2745 27.3612 73.4577 27.9787C73.5198 28.253 73.6896 28.4955 73.9338 28.6582C74.1779 28.821 74.4784 28.892 74.7758 28.8574C75.0532 28.8657 75.3246 28.7801 75.5401 28.6164C75.7556 28.4527 75.9007 28.2218 75.9489 27.966C76.0291 27.6733 76.0682 27.3721 76.0655 27.0699C76.0744 26.7216 76.0221 26.3743 75.9109 26.0418C75.8344 25.7781 75.6576 25.5496 75.4137 25.3993C75.1698 25.249 74.8755 25.1873 74.5863 25.2258M74.9729 27.8027C74.9446 27.9504 74.8859 28.0981 74.6927 28.0968C74.4994 28.0957 74.4511 27.945 74.4137 27.7992C74.3672 27.5469 74.3478 27.2908 74.3558 27.0349C74.3462 26.7724 74.3677 26.5096 74.4202 26.2515C74.4562 26.1213 74.5135 25.9882 74.6855 25.9857C74.8576 25.9833 74.9362 26.1148 74.9651 26.2576C75.069 26.7679 75.0711 27.2917 74.9716 27.8027" fill="#86BC41"/>
<path d="M72.229 26.5615C72.0235 26.5144 71.8095 26.5088 71.6015 26.5452C71.4875 26.5621 71.4611 26.5356 71.4792 26.4385C71.4935 26.3809 71.5004 26.3218 71.4998 26.2626C71.4888 26.1222 71.5546 26.0866 71.6976 26.0908C72.0139 26.1004 72.3308 26.0908 72.6471 26.0969C72.7812 26.1004 72.8179 26.057 72.8108 25.9384C72.8014 25.7741 72.8014 25.6096 72.8108 25.4454C72.8172 25.3296 72.7696 25.3002 72.653 25.3026C72.3437 25.3086 72.0339 25.3026 71.7246 25.3026C71.4154 25.3026 71.1197 25.3098 70.8176 25.3026C70.6688 25.2978 70.6288 25.3477 70.6243 25.4833C70.5991 25.9624 70.556 26.4403 70.529 26.9195C70.5226 27.0345 70.4161 27.1816 70.6255 27.2527C70.7602 27.2986 70.8698 27.3859 71.0392 27.3329C71.2607 27.261 71.5013 27.2593 71.724 27.328C71.8167 27.3516 71.8971 27.4059 71.9504 27.4807C72.0037 27.5554 72.0263 27.6457 72.0139 27.7349C71.9926 27.9488 71.8084 28.0886 71.5184 28.1025C71.2012 28.1075 70.8863 28.0513 70.5933 27.9374C70.4645 27.8916 70.4323 27.9265 70.4361 28.0428C70.4413 28.2007 70.4458 28.3592 70.4361 28.5159C70.4313 28.5414 70.4318 28.5675 70.4379 28.5928C70.4439 28.618 70.4553 28.6419 70.4713 28.663C70.4873 28.6841 70.5077 28.702 70.5312 28.7156C70.5546 28.7293 70.5808 28.7384 70.6081 28.7425C70.9661 28.8414 71.3398 28.8808 71.7124 28.8588C71.9071 28.8764 72.1036 28.8505 72.2856 28.7832C72.4675 28.716 72.6299 28.6093 72.7593 28.4719C72.8887 28.3346 72.9813 28.1705 73.0297 27.9931C73.0781 27.8157 73.0807 27.6301 73.0375 27.4516C73.02 27.2435 72.9331 27.0458 72.789 26.8863C72.6448 26.727 72.4507 26.6139 72.2342 26.5633" fill="#86BC41"/>
<path d="M63.7735 26.9508C63.7784 26.7607 63.7139 26.5747 63.5908 26.4234C63.4675 26.2722 63.293 26.1646 63.0958 26.1185C62.5316 25.9904 61.9383 26.0361 61.4041 26.2487C61.321 26.2795 61.2996 26.3168 61.3396 26.3952C61.4104 26.5308 61.4762 26.6688 61.5329 26.8092C61.5715 26.9008 61.6167 26.9231 61.7197 26.8822C61.943 26.7844 62.1864 26.7334 62.4329 26.7327C62.5002 26.7279 62.5672 26.7448 62.6227 26.7807C62.6783 26.8166 62.7191 26.8692 62.7382 26.9297C62.7723 27.031 62.7614 27.09 62.6209 27.0828C62.389 27.0728 62.1566 27.0863 61.9278 27.1232C61.7685 27.1203 61.611 27.1558 61.4706 27.2262C61.3301 27.2967 61.2116 27.3998 61.126 27.5256C61.0405 27.6514 60.9909 27.7956 60.9822 27.9444C60.9735 28.0933 61.0058 28.2417 61.0761 28.3756C61.1081 28.488 61.1736 28.5895 61.2648 28.6686C61.356 28.7477 61.4693 28.8008 61.5915 28.8221C61.8171 28.889 62.0592 28.8898 62.2853 28.8243C62.5113 28.7588 62.7105 28.6301 62.8561 28.4557C63.09 28.8173 63.09 28.8173 63.5235 28.8173C63.5587 28.8151 63.594 28.8151 63.6292 28.8173C63.7394 28.8305 63.7742 28.7896 63.7729 28.6853C63.7677 28.1067 63.7773 27.5282 63.7677 26.9496M62.7575 27.7687C62.7646 27.8663 62.7314 27.9628 62.6648 28.0384C62.5983 28.1139 62.5032 28.1627 62.3993 28.1748C62.2531 28.1947 62.1056 28.1808 62.0534 28.023C62.027 27.957 62.0288 27.884 62.0583 27.8192C62.0879 27.7544 62.1428 27.7026 62.2118 27.6746C62.3531 27.6146 62.5082 27.5889 62.6628 27.5999C62.8104 27.5999 62.7363 27.7126 62.7575 27.7687Z" fill="#86BC41"/>
<path d="M54.134 26.2352C54.1515 26.1635 54.116 26.1279 54.031 26.1321C53.5252 26.1587 53.0208 26.0845 52.5165 26.0966C52.3927 26.0912 52.2691 26.1093 52.153 26.1498C52.0369 26.1902 51.9308 26.2523 51.841 26.3321C51.7512 26.4119 51.6797 26.5079 51.6305 26.6143C51.5814 26.7207 51.5558 26.8352 51.5552 26.9511C51.5354 27.1153 51.5677 27.2813 51.6478 27.4285C51.728 27.5756 51.8526 27.6976 52.0062 27.7792C51.6126 28.1305 51.5965 28.2614 51.9096 28.5922C51.4985 28.7441 51.3207 28.9598 51.3356 29.2756C51.3405 29.4387 51.4069 29.5949 51.523 29.7168C51.6391 29.8386 51.7975 29.9181 51.9702 29.9415C52.4778 30.063 53.0135 30.032 53.5014 29.8529C53.7174 29.784 53.897 29.6404 54.0036 29.4517C54.1102 29.2629 54.1357 29.0432 54.0748 28.8374C53.9962 28.494 53.6792 28.3059 53.1819 28.3029C52.9293 28.3029 52.6762 28.3029 52.4242 28.2848C52.3225 28.2788 52.1963 28.2474 52.2201 28.1107C52.2244 28.0542 52.2517 28.0014 52.2964 27.9633C52.3411 27.9252 52.3999 27.9045 52.4604 27.9057C52.5796 27.9057 52.6994 27.9124 52.8185 27.9057C52.9636 27.9115 53.1081 27.8858 53.2407 27.8307C53.3733 27.7756 53.4905 27.6925 53.5832 27.588C53.6759 27.4835 53.7415 27.3604 53.775 27.2283C53.8084 27.0962 53.8087 26.9586 53.7759 26.8264C53.7484 26.7257 53.714 26.6269 53.6728 26.5305C53.7978 26.5058 53.9209 26.4811 54.0446 26.4582C54.2049 26.428 54.1135 26.3111 54.1321 26.2334M53.3282 28.8314C53.5859 28.8917 53.6046 29.2238 53.3726 29.4058C53.1818 29.5308 52.9542 29.5976 52.7213 29.5968C52.6794 29.601 52.6369 29.5968 52.577 29.5968C52.4563 29.605 52.3349 29.5919 52.2194 29.5582C52.1318 29.5442 52.0516 29.5031 51.9917 29.4417C51.9317 29.3803 51.8953 29.3019 51.8883 29.219C51.884 29.1289 51.9127 29.0403 51.9697 28.9676C52.0266 28.8949 52.1084 28.8426 52.2014 28.8193C52.5727 28.7384 52.9593 28.7419 53.3288 28.8296M52.6846 27.5435C52.6086 27.5486 52.5323 27.5377 52.4615 27.5114C52.3907 27.4851 52.3271 27.4442 52.2756 27.3917C52.224 27.3392 52.1858 27.2765 52.1638 27.2082C52.1418 27.14 52.1366 27.0679 52.1485 26.9975C52.1531 26.642 52.3419 26.4479 52.6866 26.4516C53.0183 26.4552 53.189 26.6414 53.1896 27.0012C53.1902 27.361 53.026 27.5435 52.6846 27.5435Z" fill="black"/>
<path d="M60.6759 25.3022C60.3667 25.3088 60.0568 25.3022 59.7476 25.3022C59.4255 25.3022 59.1034 25.3059 58.7774 25.3022C58.664 25.3022 58.6163 25.3258 58.6163 25.4433C58.6206 26.522 58.6206 27.6006 58.6163 28.6789C58.6163 28.7995 58.6653 28.8224 58.778 28.8193C59.0029 28.8133 59.229 28.8091 59.4532 28.8193C59.6014 28.8272 59.6272 28.7688 59.6246 28.6476C59.6175 28.3258 59.6317 28.0028 59.6182 27.6833C59.6111 27.5231 59.6529 27.4627 59.8346 27.473C60.0923 27.4875 60.3545 27.4772 60.6148 27.476C60.6753 27.476 60.752 27.4911 60.7494 27.3977C60.7436 27.1819 60.8267 26.9342 60.7145 26.7618C60.6418 26.6504 60.3738 26.739 60.1934 26.7263C60.1793 26.7263 60.165 26.7263 60.1509 26.7263C59.6013 26.7263 59.6065 26.7263 59.6174 26.2044C59.6174 26.0791 59.6639 26.0495 59.7895 26.0525C60.0846 26.0604 60.3803 26.0525 60.6754 26.0573C60.7977 26.0573 60.8569 26.0357 60.8479 25.9067C60.8368 25.7558 60.8368 25.6044 60.8479 25.4535C60.8576 25.3245 60.7971 25.3005 60.6754 25.3034" fill="#86BC41"/>
<path d="M65.9035 27.1506C65.718 27.0722 65.5292 27.0005 65.343 26.924C65.2831 26.8993 65.2238 26.8638 65.2334 26.7938C65.245 26.7137 65.3256 26.7016 65.3945 26.6926C65.528 26.6882 65.6614 26.7031 65.7901 26.7365C65.9563 26.7619 66.1335 26.9301 66.2668 26.8342C66.3879 26.7468 66.4093 26.5431 66.4892 26.3973C66.5446 26.296 66.5052 26.2628 66.4092 26.2261C66.0186 26.0714 65.5913 26.0157 65.1704 26.0646C64.9825 26.0608 64.7978 26.1107 64.641 26.2076C64.4843 26.3045 64.3628 26.4439 64.2929 26.607C64.2552 26.7087 64.2395 26.8165 64.2467 26.924C64.2539 27.0314 64.2839 27.1365 64.3348 27.233C64.3857 27.3295 64.4567 27.4156 64.5435 27.4863C64.6304 27.5571 64.7312 27.6109 64.8405 27.6448C65.037 27.7316 65.2406 27.8044 65.439 27.8858C65.5144 27.9178 65.6078 27.9593 65.5898 28.0534C65.5718 28.1474 65.4609 28.1642 65.3714 28.1739C65.1818 28.1816 64.992 28.1639 64.8077 28.1215C64.6247 28.089 64.3741 27.925 64.2884 28.016C64.1893 28.1221 64.2665 28.3655 64.2504 28.5488C64.2381 28.6838 64.3045 28.7338 64.4301 28.7633C64.6953 28.8298 64.9695 28.8597 65.2439 28.8519C65.3418 28.8519 65.4409 28.8561 65.5388 28.8519C65.7657 28.8684 65.9913 28.8081 66.1747 28.682C66.3579 28.5559 66.4867 28.3723 66.5375 28.1649C66.5676 28.0592 66.5751 27.949 66.5595 27.8406C66.5439 27.7322 66.5056 27.6278 66.4467 27.5333C66.3877 27.4388 66.3094 27.3562 66.2162 27.2902C66.1229 27.2243 66.0166 27.1761 65.9035 27.1488" fill="#86BC41"/>
<path d="M39.6918 26.1006C39.4903 26.0607 39.2809 26.0745 39.0873 26.1403C38.8937 26.2062 38.7237 26.3214 38.5966 26.473C38.6327 26.1307 38.6153 25.795 38.6166 25.4606C38.6166 25.0646 38.6166 25.073 38.1875 25.0634C38.0239 25.0598 37.9943 25.1081 37.9943 25.2509C38.0007 26.2964 37.9981 27.342 37.9981 28.3877C37.9981 28.8343 37.9981 28.8294 38.4723 28.821C38.6012 28.821 38.6211 28.777 38.6198 28.6715C38.6141 28.3099 38.6198 27.9484 38.6198 27.5867C38.6085 27.3962 38.626 27.205 38.672 27.019C38.7168 26.8646 38.8237 26.7324 38.9703 26.6501C39.1169 26.5677 39.2919 26.5417 39.4586 26.5773C39.7485 26.6171 39.8915 26.8069 39.8928 27.1582C39.8928 27.6711 39.8993 28.1827 39.8896 28.6968C39.8896 28.8397 39.9772 28.8354 40.061 28.8138C40.213 28.774 40.4893 28.9421 40.5061 28.7065C40.5404 28.1287 40.5427 27.5495 40.5132 26.9714C40.5229 26.8638 40.5094 26.7554 40.4734 26.6528C40.4373 26.5501 40.3796 26.4553 40.3035 26.374C40.2274 26.2928 40.1346 26.2267 40.0306 26.1796C39.9267 26.1327 39.8136 26.1058 39.6983 26.1006" fill="black"/>
<path d="M68.5906 28.0901C68.5631 28.0954 68.5354 28.0995 68.5075 28.1022C68.2659 28.1197 68.1699 28.0419 68.1667 27.8135C68.1667 27.6363 68.1667 27.4585 68.1667 27.2813C68.1667 26.8094 68.1667 26.8094 68.682 26.8064C68.7102 26.8051 68.7384 26.8051 68.7665 26.8064C68.8579 26.8149 68.8914 26.7763 68.8875 26.6919C68.8792 26.5027 68.9424 26.2749 68.8508 26.1357C68.7742 26.0194 68.512 26.1103 68.3355 26.0959C68.3284 26.0951 68.3212 26.0951 68.3142 26.0959C68.2053 26.1103 68.1687 26.0688 68.168 25.9645C68.168 25.8295 68.2388 25.6409 68.1332 25.5722C68.0275 25.5035 67.8368 25.5481 67.6823 25.5432C67.661 25.5432 67.6398 25.5432 67.6178 25.5432C67.5991 25.5392 67.5796 25.5388 67.5607 25.542C67.5418 25.5452 67.5238 25.552 67.5078 25.5619C67.4918 25.5719 67.478 25.5847 67.4675 25.5997C67.4569 25.6148 67.4498 25.6317 67.4465 25.6494C67.4047 25.8013 67.3308 25.9439 67.2293 26.0689C67.1277 26.1938 67.0004 26.2985 66.855 26.3767C66.703 26.4539 66.7854 26.6178 66.7906 26.7383C66.7958 26.8589 66.9246 26.7986 66.9936 26.7986C67.1141 26.7986 67.1534 26.8354 67.1488 26.9463C67.1411 27.1367 67.1488 27.3271 67.1488 27.5176H67.1617C67.1617 27.7339 67.1462 27.9521 67.1649 28.1672C67.166 28.3443 67.2404 28.5141 67.3727 28.6409C67.5048 28.7677 67.6843 28.8416 67.8735 28.8471C68.09 28.8724 68.3095 28.8653 68.5236 28.8259C68.9288 28.7434 68.9295 28.747 68.9295 28.3613C68.9295 28.0298 68.9294 28.0298 68.5938 28.0871" fill="#86BC41"/>
<path d="M56.5841 26.1299C56.547 26.1225 56.5085 26.1292 56.4768 26.1484C56.445 26.1675 56.4226 26.1978 56.4146 26.2323C56.1975 26.8555 55.9765 27.478 55.7568 28.1006C55.759 28.126 55.7557 28.1516 55.7471 28.1759C55.7385 28.2001 55.7246 28.2224 55.7066 28.2416C55.664 28.2132 55.6809 28.1765 55.6847 28.1421C55.5057 27.4792 55.2125 26.8536 54.9838 26.2076C54.9778 26.1825 54.9616 26.1604 54.9387 26.146C54.9158 26.1317 54.8879 26.1262 54.8607 26.1305C54.6745 26.1341 54.4884 26.1305 54.2809 26.1305C54.6481 26.994 55.0057 27.833 55.3613 28.6725C55.4008 28.7335 55.4143 28.8062 55.3987 28.8762C55.2421 29.3727 55.0385 29.5217 54.4968 29.5047C54.4234 29.5047 54.3911 29.512 54.3924 29.5813C54.3989 29.9941 54.3144 29.9917 54.7641 29.9977C54.8621 30.0026 54.9605 29.9953 55.0566 29.976C55.2573 29.9228 55.4397 29.8219 55.5865 29.6833C55.7332 29.5446 55.8391 29.3729 55.8941 29.1848C56.2342 28.3454 56.5722 27.5052 56.9081 26.6638L57.1226 26.1299C56.9203 26.1299 56.7522 26.1347 56.5841 26.1299Z" fill="black"/>
<path d="M46.8093 27.014C46.7535 26.7646 46.6116 26.5394 46.4051 26.3731C46.1987 26.2069 45.9396 26.1089 45.6677 26.0944C45.3707 26.0436 45.0641 26.0945 44.8038 26.2376C44.5437 26.3808 44.3472 26.6067 44.2504 26.8742C44.1372 27.2006 44.1199 27.5495 44.2001 27.8843C44.2664 28.1534 44.4253 28.3946 44.6523 28.5711C44.8793 28.7476 45.1619 28.8496 45.4568 28.8614C45.7517 28.8733 46.0425 28.7943 46.2848 28.6366C46.5272 28.479 46.7076 28.2513 46.7983 27.9885C46.8481 27.824 46.8698 27.6532 46.8627 27.4824C46.8691 27.3249 46.8524 27.1673 46.8131 27.014M46.1689 27.9361C46.1238 28.0646 46.0365 28.1766 45.9195 28.2559C45.8024 28.3352 45.6615 28.378 45.5169 28.378C45.3723 28.378 45.2315 28.3352 45.1144 28.2559C44.9973 28.1766 44.91 28.0646 44.865 27.9361C44.7551 27.6145 44.7631 27.2678 44.8875 26.9507C44.929 26.8342 45.0112 26.734 45.1207 26.666C45.2301 26.5981 45.3608 26.5664 45.4918 26.5759C45.626 26.5616 45.7616 26.5888 45.8779 26.6532C45.9942 26.7175 46.0848 26.8157 46.136 26.9327C46.2114 27.1031 46.2446 27.2873 46.2333 27.4714C46.2403 27.6293 46.2186 27.787 46.1689 27.9379" fill="black"/>
<path d="M51.1578 27.0179C51.1022 26.7685 50.9601 26.5432 50.7538 26.377C50.5474 26.2107 50.2881 26.1127 50.0162 26.0983C49.7194 26.0475 49.413 26.0983 49.1527 26.2414C48.8926 26.3844 48.6961 26.6102 48.599 26.8775C48.4859 27.2039 48.4685 27.5528 48.5487 27.8876C48.615 28.1566 48.7737 28.398 49.0007 28.5745C49.2276 28.751 49.5102 28.8531 49.8051 28.865C50.1 28.8769 50.3909 28.798 50.6333 28.6403C50.8757 28.4828 51.0561 28.2552 51.1469 27.9924C51.1966 27.8278 51.2184 27.657 51.2113 27.4862C51.2176 27.3287 51.2009 27.1712 51.1617 27.0179M50.5245 27.9159C50.4835 28.0492 50.3975 28.1664 50.2794 28.2502C50.1612 28.334 50.0172 28.3797 49.8689 28.3807C49.7207 28.3815 49.5761 28.3375 49.4568 28.2551C49.3375 28.1728 49.2499 28.0565 49.2071 27.9237C49.1064 27.6136 49.113 27.2816 49.2257 26.9751C49.2649 26.8507 49.3491 26.7429 49.464 26.6703C49.5789 26.5977 49.7172 26.5648 49.8552 26.5774C49.9929 26.5653 50.1309 26.597 50.2469 26.6675C50.3629 26.7379 50.45 26.8429 50.4943 26.9655C50.5603 27.132 50.5891 27.3095 50.5787 27.4868C50.5844 27.6314 50.5661 27.7766 50.5245 27.9159Z" fill="black"/>
<path d="M43.6696 26.9882C43.6806 26.8639 43.6616 26.7388 43.6139 26.6222C43.5663 26.5056 43.4912 26.4005 43.3942 26.3148C43.2973 26.229 43.181 26.1647 43.0539 26.1267C42.9268 26.0887 42.7922 26.0779 42.6601 26.0951C42.4844 26.0862 42.3089 26.1164 42.1481 26.183C41.9872 26.2496 41.8454 26.3508 41.7343 26.4784C41.626 26.1337 41.6261 26.1422 41.3374 26.1331C41.188 26.1282 41.1513 26.1705 41.1526 26.3079C41.1603 27.0046 41.1558 27.7018 41.1558 28.3991C41.1558 28.8421 41.1558 28.8378 41.6383 28.824C41.7523 28.8209 41.7788 28.7872 41.7769 28.6872C41.771 28.3057 41.7769 27.9242 41.7769 27.5421C41.7684 27.3713 41.7848 27.2001 41.8258 27.0334C41.8651 26.8779 41.9682 26.7431 42.1128 26.658C42.2574 26.5728 42.432 26.5443 42.5989 26.5785C42.8997 26.6128 43.046 26.8039 43.0499 27.1672C43.0499 27.6669 43.0499 28.1665 43.0499 28.6667C43.0499 28.7197 42.997 28.8137 43.1142 28.8185C43.276 28.8246 43.4364 28.8185 43.5994 28.8185C43.6889 28.8185 43.6702 28.7522 43.6702 28.7034C43.6702 28.1315 43.6864 27.5584 43.6657 26.9876" fill="black"/>
<path d="M34.1778 26.1292C33.9034 26.0486 33.6078 26.0585 33.3403 26.1572C33.0727 26.2559 32.8494 26.4375 32.7077 26.6715C32.5129 27.0327 32.4552 27.4449 32.5441 27.8407C32.5772 28.0875 32.6954 28.3176 32.8806 28.496C33.0658 28.6744 33.3082 28.7916 33.571 28.8297C33.8478 28.8773 34.1316 28.8773 34.4085 28.8297C34.9187 28.7489 34.9238 28.7441 34.8988 28.2319C34.6105 28.3485 34.3011 28.4126 33.9871 28.4205C33.885 28.429 33.7821 28.4181 33.6845 28.3888C33.5869 28.3594 33.4967 28.3119 33.419 28.2492C33.3414 28.1865 33.278 28.11 33.2326 28.0239C33.1872 27.9379 33.1608 27.8443 33.1548 27.7485C33.1322 27.6226 33.169 27.5924 33.3017 27.5942C33.7378 27.6015 34.1739 27.5942 34.6102 27.5942C35.0463 27.5942 35.0482 27.5942 35.0392 27.1851C35.0483 26.9428 34.9673 26.7051 34.8101 26.5124C34.653 26.3197 34.4293 26.1838 34.1772 26.128M34.3267 27.2007C34.1514 27.1965 33.9756 27.2007 33.8003 27.2007C33.6251 27.2007 33.4492 27.197 33.274 27.2007C33.1793 27.2007 33.1599 27.179 33.1735 27.088C33.1853 26.9357 33.2592 26.7935 33.3797 26.6906C33.5002 26.5877 33.6584 26.5319 33.8216 26.5348C33.9009 26.5325 33.9799 26.5451 34.054 26.572C34.128 26.5988 34.1955 26.6392 34.2526 26.6908C34.3096 26.7424 34.355 26.8042 34.3861 26.8725C34.4172 26.9409 34.4334 27.0143 34.4336 27.0886C34.4452 27.1808 34.4168 27.2025 34.3267 27.2007Z" fill="black"/>
<path d="M32.7589 25.4714C32.7628 25.334 32.7255 25.2966 32.5759 25.2984C31.8242 25.3062 31.0717 25.302 30.3212 25.302C29.9082 25.302 29.9147 25.302 29.9185 25.6811C29.9185 25.8016 29.9662 25.8196 30.077 25.8172C30.3437 25.8112 30.6117 25.8209 30.8784 25.8124C30.9989 25.8088 31.0311 25.8438 31.0291 25.9547C31.0228 26.4085 31.0291 26.8617 31.0291 27.3155V28.4395C31.0291 28.8155 31.0291 28.8047 31.4311 28.8191C31.618 28.8257 31.6624 28.7781 31.6605 28.6045C31.6496 27.7301 31.6605 26.8569 31.6515 25.9818C31.6515 25.8396 31.6933 25.801 31.839 25.8118C32.0206 25.8239 32.2042 25.8118 32.3872 25.8118C32.7627 25.8118 32.7551 25.8118 32.7641 25.4684" fill="black"/>
<path d="M37.45 26.2008C37.1839 26.1161 36.9029 26.0798 36.6222 26.0941C36.353 26.0888 36.0898 26.17 35.8768 26.3242C35.6639 26.4784 35.5138 26.6963 35.4516 26.9415C35.3677 27.2203 35.3497 27.513 35.3988 27.799C35.4042 27.9515 35.4431 28.1011 35.5131 28.2389C35.5831 28.3766 35.6827 28.4995 35.8056 28.5996C35.9286 28.6997 36.0722 28.7751 36.2277 28.821C36.3832 28.8668 36.5471 28.8823 36.7092 28.8663C36.8348 28.8561 36.9623 28.8549 37.0854 28.8332C37.4958 28.7609 37.5145 28.7313 37.5048 28.3511C37.5048 28.2371 37.4848 28.1902 37.3528 28.2535C37.2068 28.3191 37.0495 28.3598 36.8883 28.3739C36.7989 28.3944 36.7061 28.3978 36.6153 28.3839C36.5245 28.37 36.4377 28.339 36.36 28.2929C36.2824 28.2468 36.2155 28.1865 36.1633 28.1156C36.1112 28.0448 36.0749 27.9647 36.0566 27.8804C36.0024 27.6758 35.9921 27.4632 36.0263 27.2548C36.023 27.1397 36.0509 27.0256 36.1075 26.9234C36.1641 26.8211 36.2475 26.734 36.3498 26.67C36.4522 26.6061 36.5703 26.5675 36.6929 26.5578C36.8156 26.5482 36.9389 26.5677 37.0512 26.6148C37.4114 26.6955 37.4069 26.6944 37.5293 26.3563C37.5621 26.2653 37.5454 26.2357 37.4507 26.2026" fill="black"/>
<path d="M47.9846 25.4851C47.9846 25.0632 47.9846 25.0675 47.5388 25.0632C47.4035 25.0632 47.3597 25.0922 47.3616 25.2248C47.37 25.7901 47.3649 26.3554 47.3649 26.9207V28.4195C47.3649 28.8191 47.3649 28.8118 47.7894 28.8202C47.9446 28.8232 47.9891 28.7895 47.9885 28.6394C47.9807 27.5878 47.9846 26.5368 47.9846 25.4851Z" fill="black"/>
<path d="M55.6903 28.2151C55.7144 28.1802 55.7337 28.1425 55.7478 28.103L55.6761 28.1446C55.6994 28.173 55.7064 28.2007 55.6903 28.2151Z" fill="black"/>
<path d="M32.8343 34.4207H30.5839V33.9779L31.392 33.2137C31.5549 33.0571 31.6856 32.9267 31.784 32.8223C31.8838 32.7166 31.9557 32.6204 31.9997 32.534C32.0453 32.4474 32.068 32.3547 32.068 32.2558C32.068 32.1363 32.0321 32.0471 31.9601 31.988C31.8897 31.9276 31.795 31.8974 31.6761 31.8974C31.5513 31.8974 31.4302 31.9242 31.3127 31.9777C31.1953 32.0313 31.0727 32.1076 30.945 32.2064L30.5751 31.7965C30.6676 31.7223 30.7652 31.6523 30.868 31.5864C30.9722 31.5205 31.0926 31.4676 31.2291 31.4278C31.367 31.3866 31.5322 31.366 31.7245 31.366C31.9359 31.366 32.1172 31.4017 32.2684 31.4731C32.4211 31.5445 32.5385 31.642 32.6207 31.7656C32.7029 31.8878 32.744 32.0265 32.744 32.1817C32.744 32.3478 32.7088 32.4996 32.6383 32.6369C32.5678 32.7742 32.4651 32.9101 32.33 33.0447C32.1965 33.1794 32.035 33.3283 31.8456 33.4917L31.4316 33.8563V33.8852H32.8343V34.4207ZM35.3973 32.915C35.3973 33.1581 35.3768 33.375 35.3357 33.5659C35.2961 33.7568 35.2315 33.9188 35.142 34.052C35.0539 34.1852 34.9379 34.2869 34.7941 34.3569C34.6502 34.4269 34.4754 34.462 34.27 34.462C34.0116 34.462 33.7995 34.4008 33.6336 34.2786C33.4677 34.155 33.3452 33.9778 33.2659 33.7472C33.1866 33.5151 33.147 33.2377 33.147 32.915C33.147 32.5895 33.1829 32.3115 33.2549 32.0807C33.3282 31.8486 33.4471 31.6709 33.6116 31.5472C33.776 31.4236 33.9955 31.3618 34.27 31.3618C34.5269 31.3618 34.7383 31.4236 34.9041 31.5472C35.0715 31.6695 35.1956 31.8466 35.2763 32.0787C35.357 32.3094 35.3973 32.5882 35.3973 32.915ZM33.823 32.915C33.823 33.1443 33.8362 33.3359 33.8626 33.4897C33.8905 33.6421 33.9368 33.7568 34.0014 33.8337C34.0659 33.9106 34.1555 33.9491 34.27 33.9491C34.383 33.9491 34.4718 33.9112 34.5364 33.8357C34.6025 33.7588 34.6494 33.6442 34.6773 33.4917C34.7053 33.3379 34.7191 33.1457 34.7191 32.915C34.7191 32.6857 34.7053 32.4941 34.6773 32.3403C34.6494 32.1865 34.6025 32.0711 34.5364 31.9942C34.4718 31.9159 34.383 31.8768 34.27 31.8768C34.1555 31.8768 34.0659 31.9159 34.0014 31.9942C33.9368 32.0711 33.8905 32.1865 33.8626 32.3403C33.8362 32.4941 33.823 32.6857 33.823 32.915ZM37.9957 34.4207H35.7453V33.9779L36.5534 33.2137C36.7163 33.0571 36.847 32.9267 36.9454 32.8223C37.0452 32.7166 37.1171 32.6204 37.1611 32.534C37.2066 32.4474 37.2294 32.3547 37.2294 32.2558C37.2294 32.1363 37.1935 32.0471 37.1215 31.988C37.0511 31.9276 36.9564 31.8974 36.8375 31.8974C36.7127 31.8974 36.5915 31.9242 36.4741 31.9777C36.3567 32.0313 36.2341 32.1076 36.1064 32.2064L35.7365 31.7965C35.8289 31.7223 35.9266 31.6523 36.0294 31.5864C36.1336 31.5205 36.254 31.4676 36.3905 31.4278C36.5284 31.3866 36.6936 31.366 36.8859 31.366C37.0973 31.366 37.2785 31.4017 37.4298 31.4731C37.5825 31.5445 37.6999 31.642 37.7821 31.7656C37.8643 31.8878 37.9054 32.0265 37.9054 32.1817C37.9054 32.3478 37.8701 32.4996 37.7997 32.6369C37.7292 32.7742 37.6264 32.9101 37.4914 33.0447C37.3579 33.1794 37.1964 33.3283 37.007 33.4917L36.593 33.8563V33.8852H37.9957V34.4207ZM40.649 33.7966H40.2615V34.4207H39.5965V33.7966H38.2225V33.3537L39.6339 31.4092H40.2615V33.3023H40.649V33.7966ZM39.5965 33.3023V32.7914C39.5965 32.7434 39.5972 32.6863 39.5987 32.6204C39.6016 32.5545 39.6046 32.4886 39.6075 32.4227C39.6105 32.3568 39.6133 32.2984 39.6163 32.2476C39.6207 32.1954 39.6237 32.159 39.6251 32.1384H39.6075C39.5796 32.1947 39.5503 32.2497 39.5194 32.3032C39.4886 32.3554 39.4527 32.4103 39.4115 32.468L38.8214 33.3023H39.5965Z" fill="black"/>
<path d="M44.3069 34.3863V31.805H44.5013V34.3863H44.3069ZM47.289 34.3863H47.0908L45.4601 32.1033H45.4507C45.4532 32.1669 45.4551 32.2317 45.4563 32.2976C45.4588 32.3623 45.4607 32.4294 45.462 32.4989C45.4645 32.5671 45.4658 32.6377 45.4658 32.7107V34.3863H45.2808V31.805H45.4809L47.1059 34.0808H47.1154C47.1141 34.029 47.1122 33.969 47.1097 33.9008C47.1084 33.8325 47.1065 33.7624 47.104 33.6907C47.1028 33.6189 47.1021 33.5512 47.1021 33.4876V31.805H47.289V34.3863ZM50.1691 33.0709C50.1691 33.3592 50.1144 33.6011 50.005 33.7966C49.8967 33.992 49.7357 34.1391 49.5218 34.238C49.3092 34.3368 49.0455 34.3863 48.731 34.3863H48.0704V31.805H48.8178C49.1122 31.805 49.3594 31.8532 49.5595 31.9498C49.7596 32.0462 49.9112 32.1887 50.0144 32.377C50.1176 32.5642 50.1691 32.7955 50.1691 33.0709ZM49.9653 33.078C49.9653 32.832 49.9225 32.6266 49.837 32.4617C49.7514 32.297 49.6205 32.1734 49.4444 32.091C49.2682 32.0074 49.0449 31.9656 48.7744 31.9656H48.2647V34.2256H48.7215C49.138 34.2256 49.4494 34.1303 49.6557 33.9396C49.8621 33.7477 49.9653 33.4605 49.9653 33.078ZM50.7996 34.3863V31.805H50.9939V34.3863H50.7996ZM53.5004 34.3863L53.1248 33.4734H51.966L51.5828 34.3863H51.3846L52.4698 31.7961H52.6473L53.7042 34.3863H53.5004ZM53.0625 33.3093L52.6813 32.3417C52.6712 32.317 52.6586 32.2852 52.6435 32.2464C52.6297 32.2075 52.6146 32.1663 52.5982 32.1227C52.5831 32.0792 52.568 32.038 52.5529 31.9992C52.5404 32.0404 52.5265 32.0816 52.5114 32.1227C52.4963 32.164 52.4818 32.204 52.468 32.2428C52.4541 32.2805 52.441 32.3147 52.4283 32.3452L52.032 33.3093H53.0625Z" fill="black"/>
<path d="M86.7454 13.9359C86.7454 13.3411 86.9984 12.7706 87.4483 12.35C87.8973 11.9294 88.5076 11.6931 89.1435 11.6931C89.7794 11.6931 90.3889 11.9294 90.8387 12.35C91.2878 12.7706 91.5408 13.3411 91.5408 13.9359C91.5317 14.5281 91.277 15.0939 90.8288 15.5126C90.3814 15.9314 89.7769 16.1703 89.1435 16.1784C88.5076 16.1783 87.8981 15.942 87.4491 15.5214C86.9992 15.1009 86.7462 14.5306 86.7454 13.9359Z" fill="#96BA3A"/>
<path d="M14.7208 7.90968C14.7208 10.5259 14.0219 12.4899 12.5234 13.8899C11.0249 15.2898 8.9273 15.9926 6.23055 15.9926H0.936279V0.434326H6.53012C9.17729 0.434326 11.175 1.04181 12.5736 2.35018C14.0219 3.61154 14.7215 5.48038 14.7215 7.9103M10.1269 8.0507C10.1269 6.60434 9.82727 5.57439 9.22492 4.8735C8.88885 4.52131 8.47116 4.24561 8.00378 4.06742C7.53641 3.88924 7.03171 3.81329 6.52819 3.84537H5.33121V12.5357H6.32976C6.88082 12.5779 7.43475 12.4984 7.94692 12.3036C8.45908 12.1088 8.91515 11.8041 9.27842 11.4142C9.91087 10.3961 10.2063 9.22531 10.1275 8.05008" fill="black"/>
<path d="M33.405 0.386719H29.2594V15.9919H33.405V0.386719Z" fill="black"/>
<path d="M47.0951 10.1526C47.0951 12.0208 46.5958 13.5166 45.4968 14.5911C44.9082 15.1354 44.2039 15.558 43.4296 15.8316C42.6553 16.1052 41.8283 16.2236 41.002 16.1791C40.1864 16.2221 39.3706 16.098 38.6116 15.8156C37.8525 15.5332 37.1685 15.0993 36.607 14.5442C35.4706 13.3351 34.8796 11.7609 34.9585 10.1526C34.9585 8.28433 35.4578 6.78855 36.5569 5.76102C37.1454 5.21658 37.8495 4.79385 38.6239 4.52019C39.3982 4.24653 40.2253 4.12805 41.0516 4.17241C42.1473 4.14909 43.2311 4.39049 44.198 4.87331C45.1099 5.33645 45.8435 6.0554 46.2956 6.92898C46.869 7.91602 47.1454 9.03014 47.0951 10.1526ZM39.251 10.1526C39.2126 10.9182 39.3487 11.6825 39.6504 12.3951C39.7685 12.6425 39.9677 12.8482 40.2192 12.9826C40.4706 13.117 40.7613 13.1729 41.0491 13.1424C41.3359 13.1669 41.624 13.1083 41.8741 12.9747C42.1243 12.8411 42.3245 12.6387 42.4477 12.3951C42.7398 11.6801 42.8756 10.9175 42.8471 10.1526C42.8855 9.38707 42.7494 8.62262 42.4477 7.91007C42.3212 7.66896 42.1203 7.46884 41.871 7.33563C41.6217 7.20241 41.3354 7.14221 41.0491 7.16281C40.764 7.14995 40.481 7.21344 40.2334 7.34581C39.9856 7.47818 39.7833 7.67395 39.6504 7.91007C39.3487 8.62262 39.2126 9.38707 39.251 10.1526Z" fill="black"/>
<path d="M52.9356 4.3584H48.7899V15.9451H52.9356V4.3584Z" fill="black"/>
<path d="M52.9356 0.386719H48.7899V3.00286H52.9356V0.386719Z" fill="black"/>
<path d="M61.3717 12.9991C62.0538 12.9704 62.7272 12.8443 63.3688 12.6255V15.5688C62.8569 15.7813 62.3205 15.9381 61.7704 16.0359C61.1773 16.1371 60.5752 16.1841 59.9724 16.1763C58.5738 16.1763 57.5752 15.8491 56.9259 15.1488C56.2369 14.2727 55.9009 13.1973 55.9769 12.112V7.34618H54.5267V4.35579H55.9749V1.45882L60.1701 0.804932V4.4492H62.8669V7.39259H60.1701V11.8781C60.27 12.6725 60.6211 12.9997 61.3691 12.9997" fill="black"/>
<path d="M71.061 12.9991C71.7431 12.9704 72.4166 12.8443 73.058 12.6255V15.5688C72.5462 15.7813 72.01 15.9381 71.4598 16.0359C70.8667 16.1371 70.2645 16.1841 69.6617 16.1763C68.2631 16.1763 67.2645 15.8491 66.6151 15.1488C65.9264 14.2727 65.5902 13.1973 65.6662 12.112V7.34618H64.2179V4.35579H65.6662V1.41241L69.8614 0.804932V4.4492H72.5581V7.39259H69.8614V11.8781C69.9117 12.6725 70.313 12.9991 71.061 12.9991Z" fill="black"/>
<path d="M84.2501 5.52482C83.2503 4.5901 81.8527 4.17004 80.0547 4.17004C79.2352 4.12115 78.4143 4.23771 77.6473 4.5118C76.8803 4.78591 76.1853 5.21114 75.6094 5.75865C74.5606 6.83319 74.0634 8.32842 74.0634 10.2906C74.0634 12.1589 74.6129 13.6547 75.7113 14.6822C76.3468 15.2157 77.0887 15.6266 77.8944 15.8911C78.7002 16.1557 79.5539 16.2687 80.4064 16.2238C81.2434 16.243 82.0803 16.1805 82.9038 16.037C83.5993 15.9106 84.2724 15.6904 84.9009 15.3831L84.3014 12.7669C83.2478 13.1996 82.1051 13.4072 80.9553 13.3744C80.2793 13.4039 79.6119 13.2232 79.0574 12.8604C78.8271 12.6671 78.6452 12.4288 78.5244 12.1624C78.4037 11.896 78.3469 11.608 78.3584 11.3188H85.7998V9.4963C85.8395 8.03724 85.2871 6.61821 84.2534 5.52482M78.3603 8.74847C78.3695 8.23659 78.5632 7.74273 78.9098 7.34665C79.0758 7.19986 79.2724 7.08665 79.4871 7.01406C79.702 6.94148 79.9305 6.91109 80.1584 6.92479C80.3978 6.91221 80.6374 6.94733 80.8613 7.02785C81.0852 7.10836 81.2883 7.23243 81.4571 7.39185C81.7784 7.77979 81.9538 8.25593 81.9564 8.74662L78.3603 8.74847Z" fill="black"/>
<path d="M26.1633 5.52599C24.9229 4.60972 23.3774 4.13102 21.7976 4.17378C20.2178 4.21653 18.7045 4.77801 17.5228 5.75982C16.4741 6.83436 15.9767 8.32957 15.9767 10.2918C15.9767 12.1601 16.5262 13.6559 17.6246 14.6834C18.2601 15.2169 19.0021 15.6277 19.8078 15.8923C20.6135 16.1569 21.4672 16.2699 22.3198 16.225C23.1568 16.2442 23.9937 16.1816 24.8168 16.0382C25.5129 15.9118 26.1856 15.6915 26.8139 15.3843L26.2148 12.7211C25.1616 13.1538 24.0184 13.3614 22.8686 13.3286C22.1927 13.3581 21.5253 13.1773 20.9708 12.8145C20.7406 12.6213 20.5585 12.3829 20.4378 12.1166C20.317 11.8502 20.2604 11.5621 20.2718 11.2729H27.7094V9.49753C27.7493 8.03839 27.1969 6.61935 26.1633 5.52599ZM20.2196 8.74963C20.2288 8.23782 20.4224 7.74389 20.7692 7.34783C20.9351 7.20104 21.1316 7.08782 21.3464 7.01524C21.5612 6.94266 21.7897 6.91226 22.0176 6.92596C22.2576 6.90899 22.4986 6.94208 22.7232 7.02285C22.9478 7.10363 23.1504 7.23007 23.3164 7.39302C23.6376 7.78094 23.8132 8.25708 23.8156 8.74777L20.2196 8.74963Z" fill="black"/>
<path d="M26.5912 25.1152V40.5595" stroke="black" stroke-width="0.60128" stroke-miterlimit="10"/>
<mask id="mask1_17131_335" style="mask-type:luminance" maskUnits="userSpaceOnUse" x="31" y="37" width="48" height="3">
<path d="M78.9683 37.5051H31.0621V39.4535H78.9683V37.5051Z" fill="white"/>
</mask>
<g mask="url(#mask1_17131_335)">
<path d="M31.7063 38.7105C32.0622 38.7105 32.3506 38.4406 32.3506 38.1077C32.3506 37.775 32.0622 37.5051 31.7063 37.5051C31.3506 37.5051 31.0621 37.775 31.0621 38.1077C31.0621 38.4406 31.3506 38.7105 31.7063 38.7105Z" fill="#86BC41"/>
<path d="M34.9304 38.7105C35.2862 38.7105 35.5746 38.4406 35.5746 38.1077C35.5746 37.775 35.2862 37.5051 34.9304 37.5051C34.5746 37.5051 34.2861 37.775 34.2861 38.1077C34.2861 38.4406 34.5746 38.7105 34.9304 38.7105Z" fill="#86BC41"/>
<path d="M38.1533 38.7105C38.5092 38.7105 38.7976 38.4406 38.7976 38.1077C38.7976 37.775 38.5092 37.5051 38.1533 37.5051C37.7976 37.5051 37.5092 37.775 37.5092 38.1077C37.5092 38.4406 37.7976 38.7105 38.1533 38.7105Z" fill="#86BC41"/>
<path d="M41.3775 38.7105C41.7333 38.7105 42.0217 38.4406 42.0217 38.1077C42.0217 37.775 41.7333 37.5051 41.3775 37.5051C41.0217 37.5051 40.7333 37.775 40.7333 38.1077C40.7333 38.4406 41.0217 38.7105 41.3775 38.7105Z" fill="#86BC41"/>
<path d="M44.5956 38.7105C44.9513 38.7105 45.2398 38.4406 45.2398 38.1077C45.2398 37.775 44.9513 37.5051 44.5956 37.5051C44.2397 37.5051 43.9513 37.775 43.9513 38.1077C43.9513 38.4406 44.2397 38.7105 44.5956 38.7105Z" fill="#86BC41"/>
<path d="M47.8185 38.7105C48.1743 38.7105 48.4628 38.4406 48.4628 38.1077C48.4628 37.775 48.1743 37.5051 47.8185 37.5051C47.4628 37.5051 47.1743 37.775 47.1743 38.1077C47.1743 38.4406 47.4628 38.7105 47.8185 38.7105Z" fill="#86BC41"/>
<path d="M51.0357 38.7105C51.3915 38.7105 51.6799 38.4406 51.6799 38.1077C51.6799 37.775 51.3915 37.5051 51.0357 37.5051C50.6799 37.5051 50.3915 37.775 50.3915 38.1077C50.3915 38.4406 50.6799 38.7105 51.0357 38.7105Z" fill="#86BC41"/>
<path d="M54.2607 38.7105C54.6165 38.7105 54.9049 38.4406 54.9049 38.1077C54.9049 37.775 54.6165 37.5051 54.2607 37.5051C53.9049 37.5051 53.6165 37.775 53.6165 38.1077C53.6165 38.4406 53.9049 38.7105 54.2607 38.7105Z" fill="#86BC41"/>
<path d="M57.4767 38.7105C57.8325 38.7105 58.121 38.4406 58.121 38.1077C58.121 37.775 57.8325 37.5051 57.4767 37.5051C57.121 37.5051 56.8325 37.775 56.8325 38.1077C56.8325 38.4406 57.121 38.7105 57.4767 38.7105Z" fill="#86BC41"/>
<path d="M60.7008 38.7105C61.0567 38.7105 61.3451 38.4406 61.3451 38.1077C61.3451 37.775 61.0567 37.5051 60.7008 37.5051C60.3451 37.5051 60.0566 37.775 60.0566 38.1077C60.0566 38.4406 60.3451 38.7105 60.7008 38.7105Z" fill="#86BC41"/>
<path d="M63.9178 38.7105C64.2736 38.7105 64.562 38.4406 64.562 38.1077C64.562 37.775 64.2736 37.5051 63.9178 37.5051C63.562 37.5051 63.2736 37.775 63.2736 38.1077C63.2736 38.4406 63.562 38.7105 63.9178 38.7105Z" fill="#86BC41"/>
<path d="M67.1419 38.7105C67.4977 38.7105 67.7861 38.4406 67.7861 38.1077C67.7861 37.775 67.4977 37.5051 67.1419 37.5051C66.7861 37.5051 66.4977 37.775 66.4977 38.1077C66.4977 38.4406 66.7861 38.7105 67.1419 38.7105Z" fill="#86BC41"/>
<path d="M70.3599 38.7105C70.7157 38.7105 71.0042 38.4406 71.0042 38.1077C71.0042 37.775 70.7157 37.5051 70.3599 37.5051C70.0041 37.5051 69.7157 37.775 69.7157 38.1077C69.7157 38.4406 70.0041 38.7105 70.3599 38.7105Z" fill="#86BC41"/>
<path d="M73.583 38.7105C73.9387 38.7105 74.2272 38.4406 74.2272 38.1077C74.2272 37.775 73.9387 37.5051 73.583 37.5051C73.2272 37.5051 72.9387 37.775 72.9387 38.1077C72.9387 38.4406 73.2272 38.7105 73.583 38.7105Z" fill="#86BC41"/>
<path d="M76.807 38.7105C77.1629 38.7105 77.4513 38.4406 77.4513 38.1077C77.4513 37.775 77.1629 37.5051 76.807 37.5051C76.4513 37.5051 76.1628 37.775 76.1628 38.1077C76.1628 38.4406 76.4513 38.7105 76.807 38.7105Z" fill="#86BC41"/>
</g>
</g>
</g>
<defs>
<clipPath id="clip0_17131_335">
<rect width="91.791" height="41" fill="white"/>
</clipPath>
</defs>
</svg>
