<svg width="142" height="67" viewBox="0 0 142 67" fill="none" xmlns="http://www.w3.org/2000/svg">
<g clip-path="url(#clip0_6378_439)">
<path d="M32.6259 45.1878C32.2327 44.2366 31.6442 43.3785 30.8985 42.6689C30.1528 41.9594 29.2665 41.4143 28.2969 41.0688C26.9743 40.6436 25.5721 40.5253 24.1969 40.7228C23.2926 40.8052 22.4134 41.0652 21.6098 41.488C20.8062 41.9109 20.0939 42.4882 19.5139 43.1868C18.66 44.2682 18.0442 45.5179 17.7069 46.8538C17.1494 49.065 16.8842 51.3397 16.9179 53.6198C16.9182 54.8192 16.985 56.0178 17.1179 57.2098C17.285 58.9044 17.7239 60.5609 18.4179 62.1158C19.1305 63.8016 20.4311 65.1712 22.0779 65.9698C23.3736 66.5355 24.7906 66.7666 26.1989 66.6418C27.9511 66.6054 29.6307 65.9354 30.9269 64.7559C31.9351 63.7654 32.6841 62.5421 33.1079 61.1938C33.8376 58.837 34.185 56.3785 34.1369 53.9118C34.155 52.7015 34.0945 51.4913 33.9559 50.2888C33.7983 48.5278 33.3516 46.8047 32.6339 45.1888M29.4339 59.5798C29.2438 60.4569 28.8574 61.2795 28.3039 61.9858C27.9321 62.4159 27.4656 62.7539 26.9412 62.9733C26.4168 63.1928 25.8487 63.2877 25.2814 63.2507C24.7141 63.2137 24.1631 63.0457 23.6717 62.76C23.1802 62.4743 22.7617 62.0785 22.4489 61.6038C21.8689 60.6373 21.5071 59.5558 21.3889 58.4348C20.914 55.1709 20.9326 51.8542 21.4439 48.5958C21.5886 47.6013 21.9168 46.6424 22.4119 45.7678C22.7437 45.2441 23.2025 44.8127 23.7457 44.5138C24.2889 44.2149 24.8989 44.0582 25.5189 44.0582C26.1389 44.0582 26.7489 44.2149 27.2921 44.5138C27.8353 44.8127 28.2941 45.2441 28.6259 45.7678C29.1828 46.7706 29.5455 47.8695 29.6949 49.0068C29.9236 50.5709 30.0329 52.1501 30.0219 53.7308C30.0544 55.6954 29.8574 57.6569 29.4349 59.5758" fill="#86BC41"/>
<path d="M11.192 50.9281C9.15113 50.4237 7.02203 50.3919 4.967 50.8352C4.499 50.9212 4.5 50.9241 4.55 50.4481C4.55 50.4261 4.55 50.4051 4.557 50.3831C4.723 48.5921 4.898 46.8021 5.045 45.0101C5.07 44.7101 5.154 44.6391 5.445 44.6401C8.404 44.6511 11.363 44.6401 14.322 44.6521C14.57 44.6521 14.659 44.6001 14.655 44.3321C14.6383 43.3608 14.6383 42.3894 14.655 41.4181C14.66 41.1271 14.592 41.0361 14.283 41.0371C10.833 41.0491 7.383 41.0451 3.932 41.0451C3.2 41.0451 2.469 41.0501 1.737 41.0451C1.546 41.0451 1.471 41.0961 1.458 41.2981C1.376 42.4981 1.283 43.6901 1.188 44.8861C1.065 46.4401 0.937 47.9941 0.814 49.5481C0.719 50.7481 0.63 51.9391 0.537 53.1351C0.524 53.3041 0.526 53.4431 0.711 53.5451C1.211 53.8191 1.692 54.1151 2.178 54.4071C2.22815 54.4397 2.28455 54.4616 2.34361 54.4713C2.40266 54.4809 2.46307 54.4781 2.521 54.4631C3.179 54.3051 3.848 54.2081 4.521 54.1121C5.96637 53.8674 7.44538 53.9037 8.877 54.2191C9.55413 54.3291 10.1912 54.6126 10.7263 55.0419C11.2613 55.4713 11.676 56.0319 11.93 56.6691C12.2001 57.4454 12.2897 58.273 12.192 59.0891C12.168 59.6524 12.0289 60.2049 11.7833 60.7124C11.5378 61.2199 11.1909 61.6717 10.764 62.0401C9.90945 62.7139 8.87004 63.1115 7.784 63.1801C5.09029 63.4119 2.38702 62.8598 0 61.5902C0 62.8122 0 63.9901 0 65.1641C0 65.3071 0.1 65.3461 0.193 65.3961C0.656027 65.6398 1.14038 65.8406 1.64 65.9961C2.84212 66.3591 4.08531 66.5688 5.34 66.6201C7.07184 66.7624 8.81527 66.6157 10.499 66.1861C11.5425 65.9355 12.522 65.4692 13.3744 64.8171C14.2267 64.1651 14.9331 63.3418 15.448 62.4002C16.1962 60.8989 16.5267 59.2241 16.405 57.5512C16.3923 56.0259 15.8737 54.5481 14.9306 53.3493C13.9876 52.1505 12.6733 51.2986 11.194 50.9271" fill="#86BC41"/>
<path d="M114.779 41.2168C114.365 41.2134 113.962 41.3552 113.642 41.6175C113.321 41.8798 113.102 42.2461 113.024 42.6528C112.739 43.6775 112.739 44.7601 113.024 45.7848C113.12 46.2399 113.384 46.6423 113.763 46.9123C114.142 47.1823 114.608 47.3002 115.07 47.2428C115.5 47.2565 115.922 47.1146 116.256 46.8429C116.591 46.5713 116.816 46.1881 116.891 45.7638C117.015 45.278 117.076 44.7782 117.072 44.2768C117.086 43.6988 117.004 43.1225 116.832 42.5708C116.713 42.1332 116.439 41.754 116.06 41.5047C115.681 41.2553 115.225 41.1529 114.776 41.2168M115.376 45.4928C115.332 45.7378 115.241 45.9828 114.941 45.9808C114.641 45.9788 114.566 45.7288 114.508 45.4868C114.436 45.0682 114.405 44.6434 114.418 44.2188C114.403 43.7831 114.436 43.3471 114.518 42.9188C114.574 42.7028 114.663 42.4818 114.93 42.4778C115.197 42.4738 115.319 42.6918 115.364 42.9288C115.525 43.7756 115.528 44.6448 115.374 45.4928" fill="#86BC41"/>
<path d="M111.118 43.4323C110.799 43.3541 110.467 43.3448 110.144 43.4052C109.967 43.4332 109.926 43.3892 109.954 43.2282C109.976 43.1325 109.987 43.0345 109.986 42.9363C109.969 42.7033 110.071 42.6443 110.293 42.6513C110.784 42.6673 111.276 42.6513 111.767 42.6613C111.975 42.6673 112.032 42.5953 112.021 42.3983C112.007 42.1258 112.007 41.8528 112.021 41.5803C112.031 41.3883 111.957 41.3393 111.776 41.3433C111.296 41.3533 110.815 41.3433 110.335 41.3433C109.855 41.3433 109.396 41.3553 108.927 41.3433C108.696 41.3353 108.634 41.4183 108.627 41.6433C108.588 42.4383 108.521 43.2313 108.479 44.0263C108.469 44.2173 108.304 44.4613 108.629 44.5793C108.838 44.6553 109.008 44.8003 109.271 44.7123C109.615 44.593 109.989 44.5902 110.334 44.7043C110.478 44.7434 110.603 44.8333 110.686 44.9574C110.768 45.0815 110.803 45.2313 110.784 45.3792C110.751 45.7342 110.465 45.9663 110.015 45.9893C109.523 45.9976 109.034 45.9043 108.579 45.7153C108.379 45.6393 108.329 45.6973 108.335 45.8903C108.343 46.1523 108.35 46.4153 108.335 46.6753C108.328 46.7175 108.328 46.7609 108.338 46.8028C108.347 46.8447 108.365 46.8843 108.39 46.9193C108.415 46.9544 108.446 46.984 108.483 47.0067C108.519 47.0293 108.56 47.0445 108.602 47.0513C109.158 47.2154 109.738 47.2807 110.316 47.2443C110.618 47.2735 110.923 47.2305 111.206 47.1189C111.488 47.0073 111.74 46.8302 111.941 46.6023C112.142 46.3744 112.286 46.1021 112.361 45.8078C112.436 45.5135 112.44 45.2055 112.373 44.9093C112.346 44.5639 112.211 44.2358 111.987 43.9713C111.764 43.7068 111.462 43.5193 111.126 43.4353" fill="#86BC41"/>
<path d="M98.0019 44.078C98.0095 43.7626 97.9094 43.4539 97.7182 43.2029C97.527 42.9519 97.2561 42.7735 96.9499 42.6971C96.0742 42.4844 95.1532 42.5601 94.3239 42.9131C94.1949 42.9641 94.1618 43.026 94.2238 43.156C94.3338 43.381 94.4359 43.61 94.5239 43.843C94.5839 43.995 94.6539 44.032 94.8139 43.964C95.1605 43.8018 95.5382 43.7172 95.9209 43.716C96.0254 43.7081 96.1294 43.7362 96.2157 43.7957C96.3019 43.8553 96.3652 43.9425 96.3949 44.0431C96.4479 44.2111 96.4309 44.309 96.2129 44.297C95.8528 44.2803 95.4921 44.3028 95.1369 44.364C94.8896 44.3592 94.6452 44.4181 94.4272 44.5351C94.2092 44.652 94.0251 44.8231 93.8923 45.0318C93.7595 45.2405 93.6827 45.4798 93.6692 45.7268C93.6556 45.9738 93.7058 46.2201 93.8149 46.442C93.8646 46.6285 93.9662 46.7972 94.1078 46.9283C94.2494 47.0595 94.4252 47.1477 94.615 47.183C94.9651 47.2941 95.3408 47.2954 95.6917 47.1867C96.0426 47.078 96.3518 46.8646 96.5779 46.575C96.9409 47.175 96.9409 47.175 97.6139 47.175C97.6685 47.1715 97.7233 47.1715 97.7779 47.175C97.9489 47.197 98.0029 47.129 98.0009 46.956C97.9929 45.996 98.0079 45.036 97.9929 44.076M96.4249 45.435C96.4358 45.5971 96.3844 45.7573 96.281 45.8826C96.1776 46.0079 96.0301 46.089 95.8689 46.109C95.6419 46.142 95.4129 46.119 95.3319 45.857C95.291 45.7475 95.2938 45.6265 95.3396 45.5189C95.3853 45.4114 95.4706 45.3255 95.5779 45.279C95.797 45.1794 96.0379 45.1368 96.2779 45.1551C96.5069 45.1551 96.3919 45.342 96.4249 45.435Z" fill="#86BC41"/>
<path d="M83.0318 42.8922C83.0588 42.7732 83.0039 42.7142 82.8719 42.7212C82.0869 42.7652 81.3039 42.6421 80.5209 42.6621C80.3288 42.6532 80.1369 42.6833 79.9568 42.7504C79.7766 42.8176 79.6118 42.9205 79.4725 43.053C79.3331 43.1855 79.222 43.3447 79.1457 43.5213C79.0695 43.6978 79.0297 43.8879 79.0289 44.0802C78.9982 44.3526 79.0482 44.628 79.1726 44.8722C79.2971 45.1165 79.4905 45.3188 79.7289 45.4542C79.1179 46.0372 79.0928 46.2542 79.5788 46.8032C78.9408 47.0552 78.6648 47.4132 78.6878 47.9372C78.6957 48.2078 78.7987 48.4671 78.9789 48.6692C79.1591 48.8713 79.4049 49.0034 79.6729 49.0421C80.461 49.2437 81.2925 49.1923 82.0498 48.8952C82.3851 48.7807 82.664 48.5425 82.8294 48.2293C82.9948 47.9161 83.0343 47.5516 82.9399 47.2102C82.8179 46.6402 82.3259 46.3281 81.5539 46.3231C81.1619 46.3231 80.7688 46.3232 80.3778 46.2932C80.2198 46.2832 80.0239 46.2312 80.0609 46.0042C80.0675 45.9105 80.1099 45.8229 80.1794 45.7596C80.2488 45.6963 80.34 45.6621 80.4339 45.6641C80.6189 45.6641 80.8048 45.6751 80.9898 45.6641C81.2149 45.6737 81.4392 45.6311 81.6451 45.5396C81.851 45.4482 82.0329 45.3104 82.1768 45.137C82.3207 44.9636 82.4225 44.7594 82.4744 44.5401C82.5263 44.3209 82.5268 44.0926 82.4759 43.8731C82.4333 43.7062 82.3798 43.5422 82.3158 43.3822C82.5098 43.3412 82.7009 43.3002 82.8929 43.2622C83.1419 43.2122 82.9999 43.0182 83.0289 42.8892M81.7809 47.2002C82.1809 47.3002 82.2099 47.8512 81.8499 48.1532C81.5537 48.3606 81.2005 48.4714 80.8388 48.4702C80.7738 48.4772 80.7078 48.4702 80.6148 48.4702C80.4275 48.4838 80.2392 48.462 80.0599 48.4061C79.9238 48.3828 79.7994 48.3147 79.7063 48.2128C79.6133 48.1108 79.5568 47.9808 79.5459 47.8432C79.5392 47.6938 79.5838 47.5467 79.6722 47.4261C79.7605 47.3055 79.8874 47.2187 80.0318 47.1801C80.6081 47.0458 81.2083 47.0516 81.7818 47.1972M80.7818 45.0631C80.6639 45.0717 80.5455 45.0535 80.4356 45.0098C80.3256 44.9662 80.227 44.8983 80.147 44.8112C80.0669 44.7241 80.0077 44.62 79.9736 44.5067C79.9394 44.3935 79.9313 44.274 79.9499 44.1572C79.9569 43.5672 80.2499 43.2452 80.7849 43.2512C81.2999 43.2572 81.5648 43.5662 81.5658 44.1632C81.5668 44.7602 81.3118 45.0631 80.7818 45.0631Z" fill="white"/>
<path d="M93.1824 41.343C92.7024 41.354 92.2213 41.343 91.7413 41.343C91.2413 41.343 90.7414 41.349 90.2354 41.343C90.0594 41.343 89.9854 41.382 89.9854 41.577C89.992 43.367 89.992 45.1567 89.9854 46.946C89.9854 47.146 90.0613 47.184 90.2363 47.179C90.5853 47.169 90.9364 47.162 91.2844 47.179C91.5144 47.192 91.5544 47.095 91.5504 46.894C91.5394 46.36 91.5614 45.824 91.5404 45.294C91.5294 45.028 91.5943 44.928 91.8763 44.945C92.2763 44.969 92.6834 44.952 93.0874 44.95C93.1814 44.95 93.3004 44.975 93.2964 44.82C93.2874 44.462 93.4163 44.051 93.2423 43.765C93.1293 43.58 92.7133 43.7271 92.4333 43.7061C92.4113 43.7061 92.3893 43.7061 92.3673 43.7061C91.5143 43.7061 91.5223 43.706 91.5393 42.84C91.5393 42.632 91.6114 42.583 91.8064 42.588C92.2644 42.601 92.7234 42.588 93.1814 42.596C93.3714 42.596 93.4633 42.56 93.4493 42.346C93.4321 42.0956 93.4321 41.8444 93.4493 41.5941C93.4643 41.3801 93.3704 41.34 93.1814 41.345" fill="#86BC41"/>
<path d="M101.298 44.4121C101.01 44.2821 100.717 44.1631 100.428 44.0361C100.335 43.9951 100.243 43.9361 100.258 43.8201C100.276 43.6871 100.401 43.6671 100.508 43.6521C100.715 43.645 100.922 43.6696 101.122 43.7251C101.38 43.7671 101.655 44.0461 101.862 43.8871C102.05 43.7421 102.083 43.4041 102.207 43.1621C102.293 42.9941 102.232 42.9391 102.083 42.8781C101.477 42.6214 100.814 42.529 100.16 42.6101C99.8685 42.6038 99.5818 42.6866 99.3385 42.8474C99.0951 43.0082 98.9066 43.2394 98.798 43.5101C98.7396 43.6789 98.7152 43.8577 98.7264 44.036C98.7376 44.2143 98.784 44.3886 98.8631 44.5488C98.9422 44.709 99.0523 44.8519 99.1871 44.9692C99.3218 45.0865 99.4784 45.1759 99.648 45.2321C99.953 45.3761 100.269 45.4971 100.577 45.6321C100.694 45.6851 100.839 45.7541 100.811 45.9101C100.783 46.0661 100.611 46.0941 100.472 46.1101C100.178 46.1228 99.8832 46.0936 99.5971 46.0231C99.3131 45.9691 98.9241 45.6971 98.7911 45.8481C98.6371 46.0241 98.757 46.4281 98.732 46.7321C98.713 46.9561 98.8161 47.0391 99.0111 47.0881C99.4226 47.1986 99.8482 47.2481 100.274 47.2351C100.426 47.2351 100.58 47.2421 100.732 47.2351C101.084 47.2625 101.434 47.1624 101.719 46.9532C102.003 46.7439 102.203 46.4394 102.282 46.0951C102.329 45.9198 102.341 45.7369 102.316 45.5571C102.292 45.3772 102.233 45.2039 102.141 45.0472C102.05 44.8904 101.928 44.7534 101.783 44.6439C101.639 44.5343 101.474 44.4546 101.298 44.4091" fill="#86BC41"/>
<path d="M60.6213 42.6671C60.3085 42.601 59.9835 42.6239 59.683 42.7331C59.3825 42.8423 59.1187 43.0335 58.9213 43.2851C58.9773 42.7171 58.9503 42.1601 58.9523 41.6051C58.9523 40.9481 58.9523 40.9621 58.2863 40.9461C58.0323 40.9401 57.9863 41.0201 57.9863 41.2571C57.9963 42.9921 57.9923 44.7271 57.9923 46.4621C57.9923 47.2031 57.9923 47.1951 58.7283 47.1811C58.9283 47.1811 58.9593 47.1081 58.9573 46.9331C58.9483 46.3331 58.9573 45.7331 58.9573 45.1331C58.9398 44.8169 58.9671 44.4997 59.0383 44.1911C59.1078 43.9349 59.2738 43.7156 59.5013 43.5789C59.7289 43.4423 60.0006 43.399 60.2593 43.4581C60.7093 43.5241 60.9313 43.8391 60.9333 44.4221C60.9333 45.2731 60.9433 46.1221 60.9283 46.9751C60.9283 47.2121 61.0643 47.2051 61.1943 47.1691C61.4303 47.1031 61.8593 47.3822 61.8853 46.9912C61.9385 46.0323 61.9422 45.0713 61.8963 44.1121C61.9114 43.9335 61.8904 43.7537 61.8345 43.5834C61.7785 43.4131 61.6889 43.2558 61.5708 43.1209C61.4527 42.986 61.3087 42.8763 61.1473 42.7983C60.9859 42.7204 60.8104 42.6758 60.6313 42.6671" fill="white"/>
<path d="M105.47 45.9659C105.428 45.9747 105.384 45.9814 105.341 45.9859C104.966 46.0149 104.817 45.8859 104.812 45.5069C104.812 45.2129 104.812 44.9179 104.812 44.6239C104.812 43.8409 104.812 43.8409 105.612 43.8359C105.656 43.8337 105.699 43.8337 105.743 43.8359C105.885 43.8499 105.937 43.7859 105.931 43.6459C105.918 43.3319 106.016 42.9539 105.874 42.7229C105.755 42.5299 105.348 42.6809 105.074 42.6569C105.063 42.6556 105.052 42.6556 105.041 42.6569C104.872 42.6809 104.815 42.6119 104.814 42.4389C104.814 42.2149 104.924 41.9019 104.76 41.7879C104.596 41.6739 104.3 41.7479 104.06 41.7399C104.027 41.7399 103.994 41.7399 103.96 41.7399C103.931 41.7332 103.901 41.7325 103.872 41.7378C103.842 41.7431 103.814 41.7544 103.789 41.7709C103.764 41.7873 103.743 41.8087 103.727 41.8336C103.71 41.8585 103.699 41.8866 103.694 41.9159C103.629 42.1681 103.515 42.4048 103.357 42.6121C103.199 42.8194 103.002 42.993 102.776 43.1229C102.54 43.2509 102.668 43.5229 102.676 43.7229C102.684 43.9229 102.884 43.8229 102.991 43.8229C103.178 43.8229 103.239 43.8839 103.232 44.0679C103.22 44.3839 103.232 44.6999 103.232 45.0159H103.252C103.252 45.3749 103.228 45.7369 103.257 46.0939C103.259 46.3878 103.374 46.6695 103.58 46.8799C103.785 47.0902 104.063 47.2128 104.357 47.2219C104.693 47.2641 105.034 47.2523 105.366 47.1869C105.995 47.0499 105.996 47.0559 105.996 46.4159C105.996 45.8659 105.996 45.8659 105.475 45.9609" fill="#86BC41"/>
<path d="M86.8329 42.7211C86.7755 42.709 86.7155 42.72 86.6663 42.7518C86.617 42.7837 86.5823 42.8338 86.5698 42.8911C86.2328 43.9251 85.8898 44.9581 85.5488 45.9911C85.5522 46.0333 85.5471 46.0758 85.5337 46.116C85.5203 46.1562 85.4989 46.1933 85.4708 46.2251C85.4048 46.1781 85.4309 46.1171 85.4369 46.0601C85.1589 44.9601 84.7039 43.9221 84.3489 42.8501C84.3395 42.8084 84.3145 42.7718 84.2789 42.748C84.2434 42.7242 84.2 42.7149 84.1578 42.7221C83.8688 42.7281 83.5798 42.7221 83.2578 42.7221C83.8278 44.1551 84.3828 45.5471 84.9348 46.9401C84.9962 47.0414 85.017 47.1621 84.9929 47.2781C84.7499 48.1021 84.4339 48.3491 83.5929 48.3211C83.4789 48.3211 83.4289 48.3331 83.4309 48.4481C83.4409 49.1331 83.3098 49.1291 84.0078 49.1391C84.1601 49.1472 84.3128 49.1351 84.4619 49.1031C84.7733 49.0147 85.0566 48.8474 85.2843 48.6173C85.5121 48.3873 85.6765 48.1024 85.7618 47.7901C86.2898 46.3974 86.8145 45.0031 87.3358 43.6071L87.6688 42.7211C87.3548 42.7211 87.0939 42.7291 86.8329 42.7211Z" fill="white"/>
<path d="M71.6671 44.1858C71.5806 43.7719 71.3601 43.3982 71.0398 43.1223C70.7195 42.8464 70.3171 42.6838 69.895 42.6598C69.4341 42.5755 68.9582 42.6599 68.5543 42.8974C68.1503 43.135 67.8453 43.5099 67.695 43.9538C67.5194 44.4954 67.4925 45.0742 67.617 45.6298C67.72 46.0762 67.9666 46.4766 68.3189 46.7695C68.6713 47.0623 69.1099 47.2315 69.5677 47.2511C70.0254 47.2708 70.477 47.1398 70.8531 46.8782C71.2292 46.6165 71.5092 46.2388 71.65 45.8028C71.7273 45.5298 71.761 45.2463 71.75 44.9628C71.7599 44.7015 71.734 44.4401 71.673 44.1858M70.673 45.7158C70.6031 45.9291 70.4676 46.1148 70.2859 46.2464C70.1042 46.3781 69.8854 46.449 69.661 46.449C69.4366 46.449 69.2179 46.3781 69.0362 46.2464C68.8545 46.1148 68.719 45.9291 68.649 45.7158C68.4786 45.1821 68.4909 44.6067 68.684 44.0808C68.7486 43.8873 68.876 43.721 69.046 43.6083C69.2159 43.4956 69.4187 43.4429 69.622 43.4588C69.8304 43.4351 70.0409 43.4801 70.2214 43.587C70.4019 43.6938 70.5425 43.8567 70.622 44.0508C70.7391 44.3336 70.7907 44.6392 70.773 44.9448C70.784 45.2066 70.7502 45.4684 70.673 45.7188" fill="white"/>
<path d="M78.4141 44.1872C78.3276 43.7733 78.1071 43.3996 77.7868 43.1237C77.4665 42.8478 77.0641 42.6852 76.642 42.6612C76.1812 42.577 75.7055 42.6614 75.3017 42.8987C74.8978 43.1361 74.5928 43.5106 74.4421 43.9542C74.2665 44.4958 74.2396 45.0746 74.3641 45.6302C74.4669 46.0767 74.7134 46.4771 75.0657 46.77C75.4179 47.063 75.8566 47.2323 76.3143 47.2521C76.7721 47.2718 77.2237 47.1409 77.5999 46.8794C77.9761 46.6178 78.2561 46.2401 78.397 45.8042C78.4743 45.5312 78.5081 45.2477 78.4971 44.9642C78.5068 44.7029 78.4809 44.4415 78.42 44.1872M77.431 45.6772C77.3674 45.8984 77.2339 46.093 77.0505 46.232C76.8671 46.371 76.6435 46.4469 76.4134 46.4483C76.1833 46.4498 75.9589 46.3767 75.7737 46.2401C75.5885 46.1034 75.4525 45.9105 75.386 45.6902C75.2297 45.1756 75.2399 44.6247 75.415 44.1162C75.4757 43.9097 75.6065 43.7308 75.7848 43.6104C75.9631 43.4899 76.1778 43.4354 76.392 43.4562C76.6057 43.4361 76.82 43.4888 77.0001 43.6057C77.1801 43.7226 77.3154 43.8968 77.384 44.1002C77.4865 44.3765 77.5312 44.6709 77.5151 44.9652C77.524 45.2051 77.4956 45.4449 77.431 45.6762" fill="white"/>
<path d="M66.8016 44.1359C66.8187 43.9295 66.7892 43.7218 66.7152 43.5284C66.6412 43.3349 66.5247 43.1606 66.3742 43.0182C66.2237 42.8759 66.0432 42.7693 65.8459 42.7062C65.6487 42.6431 65.4397 42.6253 65.2345 42.6539C64.9619 42.6392 64.6895 42.6891 64.4398 42.7996C64.1901 42.9101 63.97 43.0781 63.7975 43.2898C63.6295 42.7178 63.6296 42.7318 63.1816 42.7168C62.9496 42.7088 62.8926 42.7788 62.8946 43.0068C62.9066 44.1628 62.8996 45.3199 62.8996 46.4769C62.8996 47.2119 62.8995 47.2048 63.6485 47.1818C63.8255 47.1768 63.8666 47.1208 63.8636 46.9548C63.8546 46.3218 63.8636 45.6889 63.8636 45.0549C63.8504 44.7714 63.876 44.4874 63.9396 44.2108C64.0006 43.9527 64.1606 43.729 64.3851 43.5878C64.6095 43.4465 64.8805 43.3992 65.1396 43.4559C65.6066 43.5129 65.8336 43.8299 65.8396 44.4329C65.8396 45.2619 65.8396 46.0908 65.8396 46.9208C65.8396 47.0088 65.7576 47.1648 65.9396 47.1728C66.1906 47.1828 66.4396 47.1728 66.6926 47.1728C66.8316 47.1728 66.8025 47.0629 66.8025 46.9819C66.8025 46.0329 66.8276 45.0818 66.7956 44.1348" fill="white"/>
<path d="M52.0512 42.7131C51.6253 42.5794 51.1664 42.5958 50.7511 42.7596C50.3358 42.9234 49.9893 43.2246 49.7693 43.6131C49.4669 44.2122 49.3774 44.8963 49.5153 45.5531C49.5667 45.9626 49.75 46.3443 50.0376 46.6404C50.3252 46.9364 50.7014 47.1308 51.1093 47.1941C51.539 47.2732 51.9795 47.2732 52.4093 47.1941C53.2013 47.0601 53.2093 47.0521 53.1703 46.2021C52.7229 46.3957 52.2426 46.502 51.7553 46.5151C51.5967 46.5292 51.437 46.5113 51.2855 46.4624C51.134 46.4136 50.9939 46.3349 50.8734 46.2309C50.7529 46.1269 50.6545 45.9998 50.5841 45.8571C50.5136 45.7144 50.4726 45.559 50.4633 45.4001C50.4283 45.1911 50.4853 45.1411 50.6913 45.1441C51.3683 45.1561 52.0453 45.1441 52.7223 45.1441C53.3993 45.1441 53.4023 45.1441 53.3883 44.4651C53.4023 44.0631 53.2767 43.6688 53.0327 43.349C52.7888 43.0292 52.4416 42.8038 52.0503 42.7111M52.2823 44.4911C52.0103 44.4841 51.7372 44.4911 51.4652 44.4911C51.1932 44.4911 50.9203 44.4851 50.6483 44.4911C50.5013 44.4911 50.4713 44.4551 50.4923 44.3041C50.5107 44.0514 50.6252 43.8154 50.8123 43.6446C50.9995 43.4739 51.245 43.3813 51.4983 43.3861C51.6214 43.3823 51.7441 43.4033 51.859 43.4478C51.9739 43.4923 52.0788 43.5593 52.1673 43.645C52.2559 43.7307 52.3263 43.8332 52.3746 43.9466C52.4229 44.06 52.4479 44.1819 52.4483 44.3051C52.4663 44.4581 52.4223 44.4941 52.2823 44.4911Z" fill="white"/>
<path d="M49.8575 41.6279C49.8635 41.3999 49.8055 41.3379 49.5735 41.3409C48.4065 41.3539 47.2385 41.3469 46.0735 41.3469C45.4325 41.3469 45.4425 41.3469 45.4485 41.9759C45.4485 42.1759 45.5225 42.2059 45.6945 42.2019C46.1085 42.1919 46.5245 42.2079 46.9385 42.1939C47.1255 42.1879 47.1755 42.2459 47.1725 42.4299C47.1625 43.1829 47.1725 43.9349 47.1725 44.6879V46.5529C47.1725 47.1769 47.1725 47.1589 47.7965 47.1829C48.0865 47.1939 48.1555 47.1149 48.1525 46.8269C48.1355 45.3759 48.1525 43.9269 48.1385 42.4749C48.1385 42.2389 48.2035 42.1749 48.4295 42.1929C48.7115 42.2129 48.9965 42.1929 49.2805 42.1929C49.8635 42.1929 49.8515 42.1929 49.8655 41.6229" fill="white"/>
<path d="M57.139 42.8329C56.7259 42.6923 56.2897 42.6322 55.854 42.6559C55.436 42.6472 55.0276 42.7819 54.697 43.0378C54.3664 43.2936 54.1334 43.6551 54.037 44.0619C53.9067 44.5247 53.8788 45.0102 53.955 45.4849C53.9634 45.7378 54.0237 45.9863 54.1324 46.2148C54.241 46.4434 54.3956 46.6471 54.5864 46.8133C54.7772 46.9794 55.0003 47.1045 55.2416 47.1806C55.4829 47.2568 55.7373 47.2824 55.989 47.2559C56.184 47.2389 56.382 47.2369 56.573 47.2009C57.21 47.0809 57.239 47.0319 57.224 46.4009C57.224 46.2119 57.193 46.1339 56.988 46.2389C56.7614 46.3478 56.5172 46.4155 56.2669 46.4389C56.1283 46.4729 55.9841 46.4785 55.8432 46.4554C55.7023 46.4323 55.5676 46.3809 55.447 46.3044C55.3264 46.2279 55.2226 46.1279 55.1416 46.0102C55.0607 45.8926 55.0044 45.7599 54.976 45.6199C54.8919 45.2804 54.8759 44.9276 54.929 44.5819C54.9238 44.3909 54.9672 44.2017 55.055 44.032C55.1429 43.8623 55.2723 43.7176 55.4312 43.6116C55.5901 43.5055 55.7734 43.4414 55.9638 43.4254C56.1542 43.4094 56.3456 43.4419 56.52 43.5199C57.079 43.6539 57.072 43.6519 57.262 43.0909C57.313 42.9399 57.287 42.8909 57.14 42.8359" fill="white"/>
<path d="M73.493 41.6453C73.493 40.9453 73.4929 40.9523 72.8009 40.9453C72.5909 40.9453 72.523 40.9933 72.526 41.2133C72.539 42.1513 72.531 43.0893 72.531 44.0273V46.5143C72.531 47.1773 72.531 47.1653 73.19 47.1793C73.431 47.1843 73.4999 47.1283 73.4989 46.8793C73.4869 45.1343 73.493 43.3903 73.493 41.6453Z" fill="white"/>
<path d="M85.4536 46.176C85.491 46.1179 85.521 46.0555 85.5427 45.99L85.4316 46.059C85.4676 46.106 85.4786 46.152 85.4536 46.176Z" fill="white"/>
<path d="M49.9766 56.77H46.4834V56.0352L47.7378 54.7671C47.9907 54.5073 48.1935 54.2909 48.3462 54.1177C48.5011 53.9422 48.6128 53.7827 48.6812 53.6392C48.7518 53.4956 48.7871 53.3418 48.7871 53.1777C48.7871 52.9795 48.7313 52.8314 48.6196 52.7334C48.5103 52.6331 48.3633 52.583 48.1787 52.583C47.985 52.583 47.797 52.6274 47.6147 52.7163C47.4325 52.8052 47.2422 52.9316 47.0439 53.0957L46.4697 52.4155C46.6133 52.2925 46.7648 52.1763 46.9243 52.0669C47.0861 51.9575 47.2729 51.8698 47.4849 51.8037C47.6991 51.7354 47.9554 51.7012 48.2539 51.7012C48.582 51.7012 48.8634 51.7604 49.0981 51.8789C49.3351 51.9974 49.5174 52.1592 49.645 52.3643C49.7726 52.5671 49.8364 52.7972 49.8364 53.0547C49.8364 53.3304 49.7817 53.5822 49.6724 53.8101C49.563 54.0379 49.4035 54.2635 49.1938 54.4868C48.9865 54.7101 48.7358 54.9574 48.4419 55.2285L47.7993 55.8335V55.8813H49.9766V56.77ZM53.9551 54.2715C53.9551 54.6748 53.9232 55.0348 53.8594 55.3516C53.7979 55.6683 53.6976 55.9372 53.5586 56.1582C53.4219 56.3792 53.2419 56.5479 53.0186 56.6641C52.7952 56.7803 52.5241 56.8384 52.2051 56.8384C51.804 56.8384 51.4748 56.737 51.2173 56.5342C50.9598 56.3291 50.7695 56.0352 50.6465 55.6523C50.5234 55.2673 50.4619 54.807 50.4619 54.2715C50.4619 53.7314 50.5177 53.27 50.6294 52.8872C50.7433 52.5021 50.9279 52.207 51.1831 52.002C51.4383 51.7969 51.779 51.6943 52.2051 51.6943C52.6038 51.6943 52.932 51.7969 53.1895 52.002C53.4492 52.2048 53.6418 52.4987 53.7671 52.8838C53.8924 53.2666 53.9551 53.7292 53.9551 54.2715ZM51.5112 54.2715C51.5112 54.652 51.5317 54.9699 51.5728 55.2251C51.616 55.478 51.6878 55.6683 51.7881 55.7959C51.8883 55.9235 52.0273 55.9873 52.2051 55.9873C52.3805 55.9873 52.5184 55.9246 52.6187 55.7993C52.7212 55.6717 52.7941 55.4814 52.8374 55.2285C52.8807 54.9733 52.9023 54.6543 52.9023 54.2715C52.9023 53.891 52.8807 53.5731 52.8374 53.3179C52.7941 53.0627 52.7212 52.8713 52.6187 52.7437C52.5184 52.6138 52.3805 52.5488 52.2051 52.5488C52.0273 52.5488 51.8883 52.6138 51.7881 52.7437C51.6878 52.8713 51.616 53.0627 51.5728 53.3179C51.5317 53.5731 51.5112 53.891 51.5112 54.2715ZM57.9883 56.77H54.4951V56.0352L55.7495 54.7671C56.0024 54.5073 56.2052 54.2909 56.3579 54.1177C56.5129 53.9422 56.6245 53.7827 56.6929 53.6392C56.7635 53.4956 56.7988 53.3418 56.7988 53.1777C56.7988 52.9795 56.743 52.8314 56.6313 52.7334C56.522 52.6331 56.375 52.583 56.1904 52.583C55.9967 52.583 55.8088 52.6274 55.6265 52.7163C55.4442 52.8052 55.2539 52.9316 55.0557 53.0957L54.4814 52.4155C54.625 52.2925 54.7765 52.1763 54.936 52.0669C55.0978 51.9575 55.2847 51.8698 55.4966 51.8037C55.7108 51.7354 55.9671 51.7012 56.2656 51.7012C56.5938 51.7012 56.8752 51.7604 57.1099 51.8789C57.3468 51.9974 57.5291 52.1592 57.6567 52.3643C57.7843 52.5671 57.8481 52.7972 57.8481 53.0547C57.8481 53.3304 57.7935 53.5822 57.6841 53.8101C57.5747 54.0379 57.4152 54.2635 57.2056 54.4868C56.9982 54.7101 56.7476 54.9574 56.4536 55.2285L55.811 55.8335V55.8813H57.9883V56.77ZM62.1069 55.7344H61.5054V56.77H60.4731V55.7344H58.3403V54.9995L60.5312 51.7729H61.5054V54.9141H62.1069V55.7344ZM60.4731 54.9141V54.0664C60.4731 53.9867 60.4743 53.8921 60.4766 53.7827C60.4811 53.6733 60.4857 53.564 60.4902 53.4546C60.4948 53.3452 60.4993 53.2484 60.5039 53.1641C60.5107 53.0775 60.5153 53.0171 60.5176 52.9829H60.4902C60.4469 53.0763 60.4014 53.1675 60.3535 53.2563C60.3057 53.3429 60.2498 53.4341 60.186 53.5298L59.27 54.9141H60.4731Z" fill="white"/>
<path d="M67.7871 56V51.7168H68.0889V56H67.7871ZM72.416 56H72.1084L69.5771 52.2119H69.5625C69.5664 52.3174 69.5693 52.4248 69.5713 52.5342C69.5752 52.6416 69.5781 52.7529 69.5801 52.8682C69.584 52.9814 69.5859 53.0986 69.5859 53.2197V56H69.2988V51.7168H69.6094L72.1318 55.4932H72.1465C72.1445 55.4072 72.1416 55.3076 72.1377 55.1943C72.1357 55.0811 72.1328 54.9648 72.1289 54.8457C72.127 54.7266 72.126 54.6143 72.126 54.5088V51.7168H72.416V56ZM76.8867 53.8174C76.8867 54.2959 76.8018 54.6973 76.6318 55.0215C76.4639 55.3457 76.2139 55.5898 75.8818 55.7539C75.5518 55.918 75.1426 56 74.6543 56H73.6289V51.7168H74.7891C75.2461 51.7168 75.6299 51.7969 75.9404 51.957C76.251 52.1172 76.4863 52.3535 76.6465 52.666C76.8066 52.9766 76.8867 53.3604 76.8867 53.8174ZM76.5703 53.8291C76.5703 53.4209 76.5039 53.0801 76.3711 52.8066C76.2383 52.5332 76.0352 52.3281 75.7617 52.1914C75.4883 52.0527 75.1416 51.9834 74.7217 51.9834H73.9307V55.7334H74.6396C75.2861 55.7334 75.7695 55.5752 76.0898 55.2588C76.4102 54.9404 76.5703 54.4639 76.5703 53.8291ZM77.8652 56V51.7168H78.167V56H77.8652ZM82.0576 56L81.4746 54.4854H79.6758L79.0811 56H78.7734L80.458 51.7021H80.7334L82.374 56H82.0576ZM81.3779 54.2129L80.7861 52.6074C80.7705 52.5664 80.751 52.5137 80.7275 52.4492C80.7061 52.3848 80.6826 52.3164 80.6572 52.2441C80.6338 52.1719 80.6104 52.1035 80.5869 52.0391C80.5674 52.1074 80.5459 52.1758 80.5225 52.2441C80.499 52.3125 80.4766 52.3789 80.4551 52.4434C80.4336 52.5059 80.4131 52.5625 80.3936 52.6133L79.7783 54.2129H81.3779Z" fill="white"/>
<path d="M133.654 22.4832C133.654 21.4962 134.046 20.5496 134.744 19.8517C135.442 19.1538 136.389 18.7617 137.376 18.7617C138.363 18.7617 139.309 19.1538 140.007 19.8517C140.705 20.5496 141.097 21.4962 141.097 22.4832C141.084 23.4659 140.687 24.4046 139.993 25.0995C139.298 25.7944 138.359 26.1908 137.376 26.2042C136.389 26.2039 135.443 25.8118 134.745 25.1141C134.048 24.4163 133.655 23.47 133.654 22.4832Z" fill="#96BA3A"/>
<path d="M21.8609 12.4821C21.8609 16.8231 20.7759 20.0821 18.4499 22.4051C16.1239 24.7281 12.8679 25.8941 8.68187 25.8941H0.463867V0.078125H9.14687C13.2559 0.078125 16.3569 1.08613 18.5279 3.25713C20.7759 5.35013 21.8619 8.45112 21.8619 12.4831M14.7299 12.7161C14.7299 10.3161 14.2649 8.60713 13.3299 7.44413C12.8081 6.85973 12.1598 6.40224 11.4343 6.10658C10.7089 5.81092 9.92546 5.68489 9.14387 5.73813H7.28587V20.1581H8.83587C9.69123 20.2281 10.5511 20.0962 11.3461 19.773C12.1411 19.4497 12.8491 18.9442 13.4129 18.2971C14.3946 16.6078 14.8533 14.6652 14.7309 12.7151" fill="white"/>
<path d="M50.8569 0H44.4219V25.894H50.8569V0Z" fill="white"/>
<path d="M72.0989 16.2081C72.0989 19.3081 71.3238 21.7901 69.6178 23.5731C68.7042 24.4763 67.611 25.1775 66.4091 25.6314C65.2072 26.0853 63.9235 26.2818 62.6409 26.2081C61.3749 26.2793 60.1085 26.0734 58.9303 25.6048C57.752 25.1362 56.6902 24.4163 55.8188 23.4951C54.0547 21.4889 53.1375 18.8768 53.2599 16.2081C53.2599 13.1081 54.0348 10.6261 55.7408 8.92109C56.6544 8.0177 57.7475 7.31625 58.9494 6.86216C60.1513 6.40807 61.4351 6.21148 62.7178 6.28509C64.4187 6.24639 66.1009 6.64695 67.6019 7.44809C69.0172 8.2166 70.1559 9.40956 70.8578 10.8591C71.7479 12.4969 72.1768 14.3456 72.0989 16.2081ZM59.9228 16.2081C59.8632 17.4784 60.0746 18.7468 60.5428 19.9291C60.7261 20.3396 61.0353 20.6811 61.4256 20.904C61.816 21.127 62.2672 21.2198 62.7139 21.1691C63.1592 21.2098 63.6062 21.1126 63.9946 20.8909C64.3829 20.6691 64.6937 20.3333 64.8849 19.9291C65.3384 18.7427 65.5492 17.4774 65.5049 16.2081C65.5644 14.9378 65.3531 13.6694 64.8849 12.4871C64.6885 12.087 64.3767 11.7549 63.9897 11.5339C63.6027 11.3128 63.1582 11.2129 62.7139 11.2471C62.2715 11.2258 61.8322 11.3311 61.4477 11.5508C61.0631 11.7704 60.7492 12.0952 60.5428 12.4871C60.0746 13.6694 59.8632 14.9378 59.9228 16.2081Z" fill="white"/>
<path d="M81.1704 6.58984H74.7354V25.8158H81.1704V6.58984Z" fill="white"/>
<path d="M81.1704 0H74.7354V4.341H81.1704V0Z" fill="white"/>
<path d="M94.271 20.932C95.3299 20.8843 96.3752 20.6752 97.371 20.312V25.196C96.5764 25.5486 95.7439 25.8086 94.8899 25.971C93.9693 26.1389 93.0347 26.2169 92.099 26.204C89.928 26.204 88.378 25.661 87.37 24.499C86.3007 23.0453 85.779 21.2607 85.897 19.46V11.552H83.646V6.59H85.8939V1.783L92.406 0.697998V6.745H96.5919V11.629H92.406V19.072C92.561 20.39 93.106 20.933 94.267 20.933" fill="white"/>
<path d="M109.311 20.932C110.37 20.8843 111.415 20.6752 112.411 20.312V25.196C111.616 25.5486 110.784 25.8086 109.93 25.971C109.009 26.1389 108.075 26.217 107.139 26.204C104.968 26.204 103.418 25.661 102.41 24.499C101.341 23.0453 100.819 21.2607 100.937 19.46V11.552H98.689V6.59H100.937V1.706L107.449 0.697998V6.745H111.635V11.629H107.449V19.072C107.527 20.39 108.149 20.933 109.31 20.933" fill="white"/>
<path d="M129.778 8.52799C128.227 6.97699 126.057 6.27999 123.266 6.27999C121.994 6.19885 120.72 6.39226 119.529 6.84708C118.339 7.3019 117.26 8.0075 116.366 8.91599C114.738 10.699 113.966 13.18 113.966 16.436C113.966 19.536 114.819 22.018 116.524 23.723C117.511 24.6083 118.662 25.29 119.913 25.729C121.164 26.168 122.489 26.3556 123.812 26.281C125.112 26.3129 126.411 26.209 127.688 25.971C128.769 25.7614 129.813 25.3959 130.788 24.886L129.858 20.545C128.223 21.2629 126.449 21.6072 124.664 21.553C123.615 21.6019 122.579 21.302 121.718 20.7C121.361 20.3793 121.078 19.9839 120.891 19.5418C120.703 19.0997 120.616 18.6218 120.633 18.142H132.184V15.118C132.246 12.6969 131.389 10.3423 129.784 8.52799M120.636 13.877C120.651 13.0277 120.951 12.2082 121.489 11.551C121.747 11.3074 122.052 11.1196 122.385 10.9991C122.719 10.8787 123.073 10.8283 123.427 10.851C123.799 10.8301 124.171 10.8884 124.518 11.022C124.866 11.1556 125.181 11.3615 125.443 11.626C125.942 12.2696 126.214 13.0598 126.218 13.874L120.636 13.877Z" fill="white"/>
<path d="M39.6147 8.52815C37.6894 7.00778 35.2904 6.21346 32.8382 6.2844C30.386 6.35534 28.037 7.28702 26.2028 8.91615C24.5748 10.6992 23.8027 13.1801 23.8027 16.4361C23.8027 19.5361 24.6557 22.0182 26.3607 23.7232C27.3472 24.6085 28.4989 25.2902 29.7496 25.7291C31.0003 26.1681 32.3254 26.3557 33.6487 26.2812C34.948 26.3131 36.2471 26.2092 37.5247 25.9712C38.6052 25.7615 39.6494 25.396 40.6248 24.8862L39.6947 20.4672C38.0599 21.1851 36.2855 21.5294 34.5007 21.4752C33.4515 21.5241 32.4155 21.2241 31.5547 20.6222C31.1974 20.3014 30.9149 19.906 30.7274 19.464C30.5399 19.0219 30.452 18.544 30.4698 18.0642H42.0147V15.1181C42.0767 12.6971 41.2191 10.3424 39.6147 8.52815ZM30.3887 13.8772C30.4031 13.0279 30.7037 12.2083 31.2418 11.5512C31.4994 11.3076 31.8044 11.1197 32.1378 10.9993C32.4713 10.8788 32.826 10.8284 33.1797 10.8512C33.5522 10.823 33.9263 10.8779 34.2749 11.0119C34.6235 11.146 34.9381 11.3557 35.1957 11.6262C35.6944 12.2698 35.9668 13.06 35.9707 13.8742L30.3887 13.8772Z" fill="white"/>
<path d="M40.2803 41.0361V66.6631" stroke="white" stroke-miterlimit="10"/>
<mask id="mask0_6378_439" style="mask-type:luminance" maskUnits="userSpaceOnUse" x="47" y="61" width="75" height="4">
<path d="M121.597 61.593H47.2354V64.826H121.597V61.593Z" fill="white"/>
</mask>
<g mask="url(#mask0_6378_439)">
<path d="M48.2354 63.593C48.7876 63.593 49.2354 63.1453 49.2354 62.593C49.2354 62.0407 48.7876 61.593 48.2354 61.593C47.6831 61.593 47.2354 62.0407 47.2354 62.593C47.2354 63.1453 47.6831 63.593 48.2354 63.593Z" fill="#86BC41"/>
<path d="M53.2354 63.593C53.7876 63.593 54.2354 63.1453 54.2354 62.593C54.2354 62.0407 53.7876 61.593 53.2354 61.593C52.6831 61.593 52.2354 62.0407 52.2354 62.593C52.2354 63.1453 52.6831 63.593 53.2354 63.593Z" fill="#86BC41"/>
<path d="M58.2354 63.593C58.7876 63.593 59.2354 63.1453 59.2354 62.593C59.2354 62.0407 58.7876 61.593 58.2354 61.593C57.6831 61.593 57.2354 62.0407 57.2354 62.593C57.2354 63.1453 57.6831 63.593 58.2354 63.593Z" fill="#86BC41"/>
<path d="M63.2354 63.593C63.7876 63.593 64.2354 63.1453 64.2354 62.593C64.2354 62.0407 63.7876 61.593 63.2354 61.593C62.6831 61.593 62.2354 62.0407 62.2354 62.593C62.2354 63.1453 62.6831 63.593 63.2354 63.593Z" fill="#86BC41"/>
<path d="M68.2354 63.593C68.7876 63.593 69.2354 63.1453 69.2354 62.593C69.2354 62.0407 68.7876 61.593 68.2354 61.593C67.6831 61.593 67.2354 62.0407 67.2354 62.593C67.2354 63.1453 67.6831 63.593 68.2354 63.593Z" fill="#86BC41"/>
<path d="M73.2354 63.593C73.7876 63.593 74.2354 63.1453 74.2354 62.593C74.2354 62.0407 73.7876 61.593 73.2354 61.593C72.6831 61.593 72.2354 62.0407 72.2354 62.593C72.2354 63.1453 72.6831 63.593 73.2354 63.593Z" fill="#86BC41"/>
<path d="M78.2354 63.593C78.7876 63.593 79.2354 63.1453 79.2354 62.593C79.2354 62.0407 78.7876 61.593 78.2354 61.593C77.6831 61.593 77.2354 62.0407 77.2354 62.593C77.2354 63.1453 77.6831 63.593 78.2354 63.593Z" fill="#86BC41"/>
<path d="M83.2354 63.593C83.7876 63.593 84.2354 63.1453 84.2354 62.593C84.2354 62.0407 83.7876 61.593 83.2354 61.593C82.6831 61.593 82.2354 62.0407 82.2354 62.593C82.2354 63.1453 82.6831 63.593 83.2354 63.593Z" fill="#86BC41"/>
<path d="M88.2354 63.593C88.7876 63.593 89.2354 63.1453 89.2354 62.593C89.2354 62.0407 88.7876 61.593 88.2354 61.593C87.6831 61.593 87.2354 62.0407 87.2354 62.593C87.2354 63.1453 87.6831 63.593 88.2354 63.593Z" fill="#86BC41"/>
<path d="M93.2354 63.593C93.7876 63.593 94.2354 63.1453 94.2354 62.593C94.2354 62.0407 93.7876 61.593 93.2354 61.593C92.6831 61.593 92.2354 62.0407 92.2354 62.593C92.2354 63.1453 92.6831 63.593 93.2354 63.593Z" fill="#86BC41"/>
<path d="M98.2354 63.593C98.7876 63.593 99.2354 63.1453 99.2354 62.593C99.2354 62.0407 98.7876 61.593 98.2354 61.593C97.6831 61.593 97.2354 62.0407 97.2354 62.593C97.2354 63.1453 97.6831 63.593 98.2354 63.593Z" fill="#86BC41"/>
<path d="M103.235 63.593C103.788 63.593 104.235 63.1453 104.235 62.593C104.235 62.0407 103.788 61.593 103.235 61.593C102.683 61.593 102.235 62.0407 102.235 62.593C102.235 63.1453 102.683 63.593 103.235 63.593Z" fill="#86BC41"/>
<path d="M108.235 63.593C108.788 63.593 109.235 63.1453 109.235 62.593C109.235 62.0407 108.788 61.593 108.235 61.593C107.683 61.593 107.235 62.0407 107.235 62.593C107.235 63.1453 107.683 63.593 108.235 63.593Z" fill="#86BC41"/>
<path d="M113.235 63.593C113.788 63.593 114.235 63.1453 114.235 62.593C114.235 62.0407 113.788 61.593 113.235 61.593C112.683 61.593 112.235 62.0407 112.235 62.593C112.235 63.1453 112.683 63.593 113.235 63.593Z" fill="#86BC41"/>
<path d="M118.235 63.593C118.788 63.593 119.235 63.1453 119.235 62.593C119.235 62.0407 118.788 61.593 118.235 61.593C117.683 61.593 117.235 62.0407 117.235 62.593C117.235 63.1453 117.683 63.593 118.235 63.593Z" fill="#86BC41"/>
</g>
</g>
<defs>
<clipPath id="clip0_6378_439">
<rect width="141.097" height="66.663" fill="white"/>
</clipPath>
</defs>
</svg>
