<svg xmlns="http://www.w3.org/2000/svg" width="94.815" height="17.719" viewBox="0 0 94.815 17.719">
  <g id="Group_104151" data-name="Group 104151" transform="translate(-1249.78 -632.983)">
    <path id="Path_3274" data-name="Path 3274" d="M1682.947,238.747a2.509,2.509,0,0,1,5.018,0,2.544,2.544,0,0,1-2.509,2.509,2.509,2.509,0,0,1-2.509-2.509" transform="translate(-343.37 409.394)" fill="#96ba3a"/>
    <path id="Path_3275" data-name="Path 3275" d="M20.277,9.339c0,2.927-.732,5.122-2.3,6.69a8.9,8.9,0,0,1-6.586,2.352H5.851V.976h5.854c2.77,0,4.861.679,6.325,2.143,1.516,1.411,2.248,3.5,2.248,6.22M15.468,9.5a5.556,5.556,0,0,0-.941-3.554,3.468,3.468,0,0,0-2.823-1.15H10.451v9.722H11.5a3.693,3.693,0,0,0,3.084-1.254A6.66,6.66,0,0,0,15.468,9.5" transform="translate(1243.929 632.059)"/>
    <rect id="Rectangle_4496" data-name="Rectangle 4496" width="4.338" height="17.458" transform="translate(1279.416 632.983)"/>
    <path id="Path_3276" data-name="Path 3276" d="M683.338,85.762a6.893,6.893,0,0,1-1.672,4.966,6.186,6.186,0,0,1-4.7,1.777,5.877,5.877,0,0,1-4.6-1.829,6.957,6.957,0,0,1-1.725-4.913,6.679,6.679,0,0,1,1.673-4.913,6.186,6.186,0,0,1,4.7-1.777,6.671,6.671,0,0,1,3.293.784,5.191,5.191,0,0,1,2.2,2.3,6.94,6.94,0,0,1,.836,3.607m-8.206,0a6.044,6.044,0,0,0,.418,2.509,1.427,1.427,0,0,0,1.463.836,1.472,1.472,0,0,0,1.464-.836,6.4,6.4,0,0,0,.418-2.509,6.046,6.046,0,0,0-.418-2.509,1.5,1.5,0,0,0-1.464-.836,1.569,1.569,0,0,0-1.463.836,6.044,6.044,0,0,0-.418,2.509" transform="translate(614.738 558.145)"/>
    <rect id="Rectangle_4497" data-name="Rectangle 4497" width="4.338" height="12.963" transform="translate(1299.853 637.426)"/>
    <rect id="Rectangle_4498" data-name="Rectangle 4498" width="4.338" height="2.927" transform="translate(1299.853 632.983)"/>
    <path id="Path_3277" data-name="Path 3277" d="M1060.465,22.428a7.021,7.021,0,0,0,2.091-.418V25.3a7.642,7.642,0,0,1-1.673.523,9.737,9.737,0,0,1-1.882.157,3.966,3.966,0,0,1-3.188-1.15,5.164,5.164,0,0,1-.993-3.4V16.1H1053.3V12.758h1.516V9.518l4.391-.732v4.077h2.822v3.293h-2.822v5.018c.1.889.47,1.254,1.254,1.254" transform="translate(252.56 624.667)"/>
    <path id="Path_3278" data-name="Path 3278" d="M1249.846,22.428a7.022,7.022,0,0,0,2.091-.418V25.3a7.645,7.645,0,0,1-1.673.523,9.735,9.735,0,0,1-1.882.157,3.967,3.967,0,0,1-3.188-1.15,5.165,5.165,0,0,1-.993-3.4V16.1h-1.516V12.758h1.516V9.466l4.391-.68v4.077h2.823v3.293h-2.823v5.018c.052.889.47,1.254,1.255,1.254" transform="translate(73.319 624.667)"/>
    <path id="Path_3279" data-name="Path 3279" d="M1445.658,80.587a5.912,5.912,0,0,0-4.391-1.516,5.991,5.991,0,0,0-4.652,1.777,7.212,7.212,0,0,0-1.62,5.07,6.7,6.7,0,0,0,1.725,4.913,6.786,6.786,0,0,0,4.914,1.725,12.58,12.58,0,0,0,2.613-.209,7.66,7.66,0,0,0,2.091-.732l-.627-2.927a8.1,8.1,0,0,1-3.5.68,3.2,3.2,0,0,1-1.986-.575,2.206,2.206,0,0,1-.732-1.725h7.788V85.03a6.459,6.459,0,0,0-1.62-4.443m-6.168,3.607a2.544,2.544,0,0,1,.575-1.568,1.74,1.74,0,0,1,1.307-.47,1.773,1.773,0,0,1,1.359.523,2.5,2.5,0,0,1,.523,1.516Z" transform="translate(-108.694 558.146)"/>
    <path id="Path_3280" data-name="Path 3280" d="M310.348,80.587a7.043,7.043,0,0,0-9.043.261,7.211,7.211,0,0,0-1.62,5.07,6.7,6.7,0,0,0,1.725,4.913,6.785,6.785,0,0,0,4.913,1.725,12.582,12.582,0,0,0,2.614-.209,7.663,7.663,0,0,0,2.091-.732l-.627-2.979a8.1,8.1,0,0,1-3.5.68,3.206,3.206,0,0,1-1.986-.575,2.207,2.207,0,0,1-.732-1.725h7.788V85.03a6.458,6.458,0,0,0-1.62-4.443m-6.22,3.607a2.543,2.543,0,0,1,.575-1.568,1.739,1.739,0,0,1,1.307-.47,1.7,1.7,0,0,1,1.359.523,2.5,2.5,0,0,1,.523,1.516Z" transform="translate(965.827 558.146)"/>
  </g>
</svg>
