<svg width="24" height="24" viewBox="0 0 24 24" fill="none" xmlns="http://www.w3.org/2000/svg">
<path d="M11.9963 0C5.36136 0 0 5.36137 0 11.9963C0 18.6311 5.36137 24 11.9963 24C18.6311 24 24 18.6311 24 11.9963C24 5.36137 18.6311 0 11.9963 0ZM8.45305 6.93079L10.7214 8.61616C11.108 8.90406 11.108 9.48308 10.7214 9.77098L8.45305 11.4582C8.13443 11.6938 7.68532 11.6276 7.44821 11.3101C7.21131 10.9912 7.27761 10.5406 7.59631 10.3034L8.12123 9.91345H7.89439C6.71631 9.90656 5.78613 10.8351 5.77597 11.9888C5.78225 13.1489 6.70902 14.0866 7.89439 14.0866C8.73802 14.1222 9.33792 13.9834 9.87033 13.6404C10.399 13.2935 10.8677 12.7124 11.3101 11.7132C12.3695 9.54862 14.1222 8.49042 16.1056 8.47555C18.0652 8.47555 19.6769 10.0671 19.6769 12.0187C19.6653 13.9612 18.0503 15.5357 16.1 15.5244H15.8694L16.3962 15.9144C16.7155 16.151 16.7827 16.6017 16.5462 16.9211C16.3089 17.2398 15.8584 17.3061 15.5394 17.0692L13.2654 15.3838C12.8789 15.0959 12.8789 14.5169 13.2654 14.229L15.5394 12.5418C15.8952 12.3007 16.2639 12.3494 16.5462 12.6918C16.7814 13.0109 16.7143 13.4601 16.3962 13.6966L15.8731 14.0865H16.1056C17.2837 14.0935 18.2139 13.1649 18.224 12.0112C18.2177 10.8511 17.291 9.91345 16.1056 9.91345C14.5896 9.92645 13.4969 10.5373 12.613 12.3224C12.1147 13.4673 11.4752 14.311 10.6577 14.8458C9.84656 15.3765 8.89336 15.5615 7.88689 15.5188C5.93178 15.5134 4.32307 13.9314 4.32307 11.9831C4.33468 10.043 5.94722 8.46793 7.89439 8.47555H8.11936L7.59631 8.08561C7.27761 7.84839 7.21132 7.39785 7.44821 7.07889C7.68642 6.71247 8.22442 6.74234 8.45305 6.93079Z" fill="white"/>
</svg>
