<svg width="32" height="32" viewBox="0 0 32 32" fill="none" xmlns="http://www.w3.org/2000/svg">
<path fill-rule="evenodd" clip-rule="evenodd" d="M16 31C24.2843 31 31 24.2843 31 16C31 7.71573 24.2843 1 16 1C7.71573 1 1 7.71573 1 16C1 24.2843 7.71573 31 16 31ZM20.4854 12.4866L20.8136 12.9943L17.7441 12.3666L18.5145 9.4375L19.0177 10.2159C19.0833 10.3175 19.21 10.3602 19.3235 10.3276C19.6075 10.2453 19.9003 10.1822 20.1998 10.14C23.9131 9.61641 27.25 12.3815 27.25 16C27.25 19.2709 24.5006 21.9225 21.0994 21.9225C17.6981 21.9225 14.9811 19.2694 14.9811 16C14.9811 13.8301 13.1541 12.071 10.9007 12.071C8.64723 12.071 6.8203 13.8301 6.8203 16C6.8203 18.3217 8.89989 20.1391 11.3121 19.9085C11.5119 19.8894 11.6173 19.6728 11.5143 19.5136L11.5145 19.5134L11.1864 19.0057L14.2559 19.6334L13.4855 22.5625L12.9823 21.7841C12.9167 21.6825 12.79 21.6398 12.6764 21.6724C12.3924 21.7547 12.0997 21.8178 11.8001 21.86C8.08697 22.3836 4.75 19.6186 4.75 16C4.75 12.729 7.4994 10.0775 10.9006 10.0775C14.3018 10.0775 17.0189 12.7306 17.0189 16C17.0189 18.1699 18.8458 19.929 21.0993 19.929C23.3527 19.929 25.1796 18.1699 25.1796 16C25.1796 13.679 23.1032 11.8606 20.6879 12.0915C20.488 12.1106 20.3826 12.3272 20.4857 12.4864L20.4854 12.4866Z" fill="white"/>
</svg>
