<svg width="32" height="32" viewBox="0 0 32 32" fill="none" xmlns="http://www.w3.org/2000/svg">
<path d="M21.139 19.9757C20.7511 19.9757 20.4117 20.0727 20.1693 20.2666C19.8784 19.7818 19.345 19.4424 18.7147 19.4424C18.3269 19.4424 17.9875 19.5394 17.745 19.7818C17.4541 19.2969 16.9208 18.9575 16.2905 18.9575C16.0481 18.9575 15.8056 19.006 15.5632 19.103V15.3697C15.5632 13.1394 12.1693 13.0909 12.1693 15.4181V26.3757L10.7632 24.9697C10.0359 24.2424 8.87231 24.3394 8.29049 25.0666C7.70867 25.7454 7.75716 26.7636 8.43595 27.4424L11.9269 30.9333C12.2663 31.3212 12.7511 31.5151 13.2844 31.5151H21.042C22.1087 31.5151 22.9329 30.6424 22.9329 29.6242V21.6727C22.8359 20.7515 22.1087 19.9757 21.139 19.9757Z" fill="white"/>
<path d="M28.3634 12.1697C27.0543 12.1697 25.9877 13.0909 25.7937 14.303H18.6665C18.7149 13.8182 18.7149 13.3333 18.6665 12.9454L26.2786 8.72726C26.6665 9.21211 27.2483 9.55151 27.9756 9.55151C29.1392 9.55151 30.0604 8.58181 30.0604 7.46666C30.0604 6.30302 29.0907 5.38181 27.9756 5.38181C26.6665 5.38181 25.6483 6.59393 25.8907 7.85454L18.424 11.9757C18.3271 11.6848 18.1816 11.3939 18.0362 11.1515L20.6059 5.81817C21.818 6.15757 23.224 5.18787 23.224 3.78181C23.224 2.61817 22.2543 1.69696 21.1392 1.69696C19.9755 1.69696 19.0543 2.61817 19.0543 3.78181C19.0543 4.41211 19.3452 4.99393 19.7816 5.38181L17.4543 10.2788C16.6786 9.45454 15.6119 8.87272 14.3998 8.77575V4.65454C15.321 4.4606 16.0483 3.58787 16.0483 2.61817C16.0483 1.45454 15.1271 0.533325 13.9634 0.533325C12.7998 0.533325 11.8786 1.45454 11.8786 2.61817C11.8786 3.58787 12.5574 4.4606 13.4786 4.65454V8.82423C12.9452 8.87272 12.4604 9.01817 11.9756 9.21211L8.6301 5.96363C8.82404 5.62423 8.96949 5.23636 8.96949 4.84848C8.96949 3.68484 8.04828 2.76363 6.88464 2.76363C5.721 2.76363 4.79979 3.68484 4.79979 4.84848C4.79979 6.01211 5.721 6.93333 6.88464 6.93333C7.27252 6.93333 7.6604 6.83636 7.95131 6.64242L11.1513 9.74545C10.3271 10.3273 9.69676 11.2 9.35737 12.1697L6.0604 11.2485C6.0604 9.8909 4.94525 8.82423 3.63616 8.82423C2.27858 8.82423 1.21191 9.93939 1.21191 11.2485C1.21191 12.6061 2.32707 13.6727 3.63616 13.6727C4.65434 13.6727 5.52707 13.0424 5.86646 12.1697L9.16343 13.0909C9.11494 13.7212 9.16343 14.3515 9.30888 14.8848L5.62404 18.4727C5.18767 18.1818 4.70282 18.0364 4.16949 18.0364C2.71494 18.0364 1.55131 19.2 1.55131 20.6545C1.55131 22.1091 2.71494 23.2727 4.16949 23.2727C5.62404 23.2727 6.78767 22.1091 6.78767 20.6545C6.78767 20.1212 6.64222 19.5879 6.30282 19.1515L9.69676 15.8545C10.0846 16.5818 10.618 17.2121 11.2968 17.6485V15.4182C11.2968 12.9939 14.2059 11.7818 15.8543 13.4788C16.3392 13.9636 16.6301 14.6424 16.6301 15.3697V17.6485C17.5028 17.0667 18.1816 16.2424 18.521 15.2727H25.8907C26.1331 16.4848 27.1998 17.4061 28.4604 17.4061C29.9149 17.4061 31.0786 16.2424 31.0786 14.7879C30.9816 13.3818 29.818 12.1697 28.3634 12.1697Z" fill="white"/>
</svg>
