<svg width="21" height="20" viewBox="0 0 21 20" fill="none" xmlns="http://www.w3.org/2000/svg">
<g clip-path="url(#clip0_12140_514)">
<path d="M6.34712 5.68022L6.86141 4.35165C6.94836 4.1266 7.10127 3.93307 7.30011 3.79643C7.49895 3.6598 7.73443 3.58642 7.9757 3.58594H8.95712C9.19814 3.58671 9.43331 3.66022 9.63187 3.79684C9.83043 3.93346 9.98312 4.12683 10.07 4.35165L10.5843 5.68022L12.3314 6.68594L13.7457 6.47022C13.9806 6.43851 14.2196 6.47724 14.4325 6.58151C14.6454 6.68579 14.8225 6.8509 14.9414 7.05594L15.42 7.89451C15.5429 8.10317 15.5996 8.34424 15.5825 8.58582C15.5654 8.8274 15.4753 9.05809 15.3243 9.24737L14.45 10.3602V12.3702L15.3486 13.4845C15.4991 13.6737 15.5889 13.9041 15.606 14.1454C15.6231 14.3866 15.5667 14.6274 15.4443 14.8359L14.9657 15.6745C14.8468 15.8799 14.6695 16.0453 14.4563 16.1496C14.2431 16.2539 14.0037 16.2924 13.7686 16.2602L12.3557 16.0459L10.6086 17.0502L10.0943 18.3788C10.0073 18.6038 9.85441 18.7974 9.65557 18.934C9.45673 19.0707 9.22124 19.144 8.97998 19.1445H7.9757C7.73443 19.144 7.49895 19.0707 7.30011 18.934C7.10127 18.7974 6.94836 18.6038 6.86141 18.3788L6.34712 17.0502L4.59998 16.0445L3.18855 16.2602C2.95343 16.2922 2.71409 16.2536 2.50094 16.1494C2.28779 16.0451 2.11044 15.8798 1.99141 15.6745L1.51284 14.8359C1.39042 14.6274 1.33404 14.3866 1.35113 14.1454C1.36822 13.9041 1.45796 13.6737 1.60855 13.4845L2.48141 12.3702V10.3602L1.58427 9.24594C1.43368 9.05671 1.34393 8.8263 1.32684 8.58507C1.30976 8.34383 1.36614 8.10308 1.48855 7.89451L1.96712 7.05737C2.08595 6.85182 2.26322 6.68625 2.47639 6.5817C2.68955 6.47715 2.92899 6.43835 3.16427 6.47022L4.5757 6.68451L6.34712 5.68022ZM6.07284 11.3659C6.06504 11.6852 6.12118 12.0028 6.23797 12.3C6.35475 12.5972 6.52981 12.8681 6.75284 13.0966C6.97588 13.3252 7.24238 13.5068 7.53667 13.6308C7.83095 13.7548 8.14707 13.8187 8.46641 13.8187C8.78575 13.8187 9.10187 13.7548 9.39615 13.6308C9.69044 13.5068 9.95694 13.3252 10.18 13.0966C10.403 12.8681 10.5781 12.5972 10.6949 12.3C10.8116 12.0028 10.8678 11.6852 10.86 11.3659C10.8447 10.7412 10.5858 10.1473 10.1386 9.71085C9.6914 9.27443 9.09129 9.03013 8.46641 9.03013C7.84153 9.03013 7.24142 9.27443 6.7942 9.71085C6.34698 10.1473 6.0881 10.7412 6.07284 11.3659Z" fill="#ECF3FF"/>
<path d="M8.95712 3.58594H7.97569C7.73443 3.58642 7.49895 3.6598 7.30011 3.79643C7.10127 3.93307 6.94835 4.1266 6.86141 4.35165L6.34712 5.68022L4.57569 6.68594L3.16426 6.47022C2.92914 6.43821 2.6898 6.4768 2.47665 6.58109C2.2635 6.68537 2.08615 6.85065 1.96712 7.05594L1.48855 7.89451C1.36582 8.10323 1.30926 8.34427 1.32635 8.5858C1.34344 8.82733 1.43337 9.058 1.58426 9.24737L2.48141 10.3602V12.3702L1.60855 13.4845C1.45796 13.6737 1.36821 13.9041 1.35112 14.1454C1.33404 14.3866 1.39042 14.6274 1.51283 14.8359L1.99141 15.6745C2.11029 15.8799 2.28762 16.0453 2.50081 16.1496C2.714 16.2539 2.9534 16.2924 3.18855 16.2602L4.59998 16.0459L6.34712 17.0502L6.86141 18.3788C6.94835 18.6038 7.10127 18.7974 7.30011 18.934C7.49895 19.0707 7.73443 19.144 7.97569 19.1445H8.98141C9.22242 19.1437 9.45759 19.0702 9.65615 18.9336C9.85471 18.797 10.0074 18.6036 10.0943 18.3788L10.6085 17.0502L12.3557 16.0445L13.7685 16.2602C14.0037 16.2922 14.243 16.2536 14.4562 16.1494C14.6693 16.0451 14.8467 15.8798 14.9657 15.6745L15.4443 14.8359C15.5667 14.6274 15.6231 14.3866 15.606 14.1454C15.5889 13.9041 15.4991 13.6737 15.3485 13.4845L14.45 12.3702V11.0745M6.07283 11.3659C6.06503 11.6852 6.12118 12.0028 6.23796 12.3C6.35474 12.5972 6.5298 12.8681 6.75284 13.0966C6.97587 13.3252 7.24238 13.5068 7.53666 13.6308C7.83094 13.7548 8.14706 13.8187 8.46641 13.8187C8.78575 13.8187 9.10187 13.7548 9.39615 13.6308C9.69043 13.5068 9.95694 13.3252 10.18 13.0966C10.403 12.8681 10.5781 12.5972 10.6949 12.3C10.8116 12.0028 10.8678 11.6852 10.86 11.3659C10.8447 10.7412 10.5858 10.1473 10.1386 9.71085C9.6914 9.27443 9.09128 9.03013 8.46641 9.03013C7.84153 9.03013 7.24141 9.27443 6.79419 9.71085C6.34698 10.1473 6.0881 10.7412 6.07283 11.3659Z" stroke="#1163FB" stroke-width="1.5" stroke-linecap="round" stroke-linejoin="round"/>
<path d="M12.0714 5.14726C11.6342 5.07154 11.6342 4.44154 12.0714 4.3644C12.8486 4.22972 13.568 3.8666 14.1379 3.32134C14.7079 2.77609 15.1025 2.07342 15.2714 1.30297L15.2971 1.18154C15.3928 0.748687 16.01 0.745829 16.1085 1.17869L16.1414 1.31869C16.3164 2.08534 16.7141 2.78318 17.2844 3.32455C17.8548 3.86593 18.5724 4.2267 19.3471 4.36154C19.7885 4.44012 19.7885 5.07297 19.3471 5.14869C18.5722 5.28364 17.8544 5.64462 17.2841 6.18626C16.7137 6.72791 16.3162 7.42606 16.1414 8.19297L16.1085 8.3344C16.01 8.76583 15.3928 8.76297 15.2971 8.33011L15.2714 8.21012C15.1029 7.4398 14.7088 6.7371 14.1394 6.19161C13.57 5.64612 12.8511 5.28255 12.0742 5.14726H12.0714Z" fill="white"/>
<path d="M12.0714 5.14726C11.6342 5.07154 11.6342 4.44154 12.0714 4.3644C12.8486 4.22972 13.568 3.8666 14.1379 3.32134C14.7079 2.77609 15.1025 2.07342 15.2714 1.30297L15.2971 1.18154C15.3928 0.748687 16.01 0.745829 16.1085 1.17869L16.1414 1.31869C16.3164 2.08534 16.7141 2.78318 17.2844 3.32455C17.8548 3.86593 18.5724 4.2267 19.3471 4.36154C19.7885 4.44012 19.7885 5.07297 19.3471 5.14869C18.5722 5.28364 17.8544 5.64462 17.2841 6.18626C16.7137 6.72791 16.3162 7.42606 16.1414 8.19297L16.1085 8.3344C16.01 8.76583 15.3928 8.76297 15.2971 8.33011L15.2714 8.21012C15.1029 7.4398 14.7088 6.7371 14.1394 6.19161C13.57 5.64612 12.8511 5.28255 12.0742 5.14726H12.0714Z" stroke="#1163FB" stroke-width="1.5" stroke-linecap="round" stroke-linejoin="round"/>
</g>
<defs>
<clipPath id="clip0_12140_514">
<rect width="20" height="20" fill="white" transform="translate(0.5)"/>
</clipPath>
</defs>
</svg>
