<svg width="107" height="57" viewBox="0 0 107 57" fill="none" xmlns="http://www.w3.org/2000/svg">
<path d="M102.143 56.04H5.31419C2.93153 56.04 1 54.1088 1 51.7257V5.31437C1 2.93128 2.93153 1 5.31419 1H102.143C104.525 1 106.457 2.93128 106.457 5.31437V51.7257C106.457 54.1088 104.525 56.04 102.143 56.04Z" stroke="white" stroke-width="0.925831" stroke-miterlimit="10"/>
<path d="M52.4795 40.9702V39.4497H52.4824V39.4458H53.3711C53.7064 39.4458 53.9855 39.3842 54.207 39.2612C54.4287 39.1381 54.5959 38.9707 54.7061 38.7583C54.8168 38.5466 54.8711 38.3075 54.8711 38.0415C54.8711 37.7765 54.8166 37.5375 54.707 37.3257C54.5975 37.1142 54.4317 36.9472 54.2109 36.8247C53.99 36.7029 53.7105 36.6412 53.374 36.6411H51.8311V40.9702H52.4795ZM52.4824 38.894H52.4795V37.1987H52.4824V37.1958H53.3027C53.5208 37.1958 53.6969 37.2318 53.8311 37.3042C53.9648 37.3767 54.0633 37.4763 54.126 37.604C54.1879 37.731 54.2197 37.8775 54.2197 38.0415C54.2197 38.1645 54.2021 38.278 54.167 38.3813L54.126 38.481C54.0634 38.6098 53.9654 38.7113 53.833 38.7856C53.6988 38.86 53.5247 38.897 53.3115 38.897H52.4824V38.894Z" fill="white" stroke="white" stroke-width="0.00617221"/>
<path d="M58.8457 40.9702L57.8896 39.2251C57.7028 39.2951 57.4826 39.332 57.2295 39.3354L58.1074 40.9702H58.8457Z" fill="white" stroke="white" stroke-width="0.00617221"/>
<path d="M56.29 40.9702V39.3325H56.293V39.3296H57.1826C57.1967 39.3296 57.2112 39.3292 57.2246 39.3286C57.4802 39.3255 57.7019 39.289 57.8896 39.2183C57.9339 39.2023 57.977 39.1835 58.0176 39.1626C58.2391 39.0518 58.4058 38.8957 58.5166 38.6958C58.6268 38.4951 58.6826 38.2615 58.6826 37.9966C58.6826 37.7306 58.6271 37.4962 58.5176 37.2925C58.4074 37.0894 58.2421 36.9297 58.0205 36.814C57.799 36.6989 57.5198 36.6412 57.1846 36.6411H55.6416V40.9702H56.29ZM56.293 38.77H56.29V37.1987H56.293V37.1958H57.1143C57.3305 37.1958 57.5058 37.228 57.6396 37.2925C57.7734 37.3569 57.8722 37.449 57.9355 37.5698C57.9981 37.69 58.0302 37.8328 58.0303 37.9966C58.0303 38.1592 57.9991 38.299 57.9365 38.4155C57.89 38.5026 57.8225 38.5744 57.7354 38.6304L57.6416 38.6812C57.5077 38.7425 57.335 38.7729 57.123 38.7729H56.293V38.77Z" fill="white" stroke="white" stroke-width="0.00617221"/>
<path d="M61.2979 41.0293C61.6714 41.0293 62.0049 40.9404 62.2988 40.7617C62.5926 40.5837 62.8237 40.3286 62.9932 39.9971C63.162 39.665 63.246 39.2681 63.2461 38.8057C63.2461 38.3431 63.162 37.9454 62.9932 37.6133C62.8237 37.2818 62.5926 37.0266 62.2988 36.8486C62.0049 36.67 61.6714 36.5811 61.2979 36.5811C60.9231 36.5811 60.5882 36.67 60.2949 36.8486C60.0012 37.0267 59.7694 37.2818 59.6006 37.6133C59.4311 37.9454 59.3467 38.3431 59.3467 38.8057C59.3467 39.2668 59.4312 39.6634 59.6006 39.9961C59.7694 40.3287 60.0012 40.5837 60.2949 40.7617C60.5882 40.9404 60.9231 41.0293 61.2979 41.0293ZM61.2979 40.4385C61.0473 40.4385 60.8238 40.3756 60.627 40.25C60.4303 40.125 60.2749 39.9415 60.1611 39.6992C60.0474 39.4568 59.9903 39.1589 59.9902 38.8057C59.9902 38.4523 60.0473 38.1536 60.1611 37.9111C60.2749 37.6689 60.4303 37.4853 60.627 37.3604C60.8238 37.2347 61.0473 37.1719 61.2979 37.1719C61.5471 37.1719 61.7704 37.2347 61.9678 37.3604C62.165 37.4853 62.3209 37.669 62.4346 37.9111C62.5484 38.1536 62.6055 38.4523 62.6055 38.8057C62.6054 39.1589 62.5483 39.4568 62.4346 39.6992C62.3209 39.9414 62.165 40.125 61.9678 40.25C61.7704 40.3756 61.5471 40.4385 61.2979 40.4385Z" fill="white" stroke="white" stroke-width="0.00617221"/>
<path d="M65.666 40.9702V37.2007H65.6689V37.1978H67.0186V36.6411H63.6689V37.1978H65.0166V37.2007H65.0195V40.9702H65.666Z" fill="white" stroke="white" stroke-width="0.00617221"/>
<path d="M70.502 40.9702V40.4136H68.416V40.4106H68.4131V39.0825H68.416V39.0796H70.335V38.5249H68.416V38.522H68.4131V37.2007H68.416V37.1978H70.4766V36.6411H67.7646V40.9702H70.502Z" fill="white" stroke="white" stroke-width="0.00617221"/>
<path d="M73.167 41.0293C73.4048 41.0293 73.6248 40.994 73.8262 40.9238C74.0276 40.853 74.2072 40.7534 74.3643 40.624C74.5212 40.4953 74.65 40.342 74.751 40.1641C74.8508 39.9864 74.9178 39.7922 74.9531 39.5811L74.2988 39.5801C74.2721 39.7173 74.2243 39.839 74.1543 39.9453C74.0844 40.0517 73.9987 40.1422 73.8984 40.2158C73.7982 40.2894 73.6858 40.3447 73.5615 40.3818C73.4378 40.4195 73.3075 40.4385 73.1709 40.4385C72.9229 40.4385 72.7 40.3763 72.502 40.252C72.304 40.1276 72.1479 39.9437 72.0342 39.7002C71.9204 39.4572 71.8633 39.1589 71.8633 38.8057C71.8633 38.4556 71.9205 38.1587 72.0342 37.915C72.1479 37.6722 72.3038 37.4876 72.501 37.3613C72.6978 37.2357 72.9223 37.1719 73.1729 37.1719C73.3114 37.1719 73.4427 37.1911 73.5664 37.2295C73.6901 37.2672 73.8031 37.3245 73.9033 37.3994C74.0035 37.4743 74.0883 37.5659 74.1582 37.6729C74.2271 37.7799 74.2733 37.9035 74.2988 38.0439H74.9531C74.9166 37.8134 74.8471 37.6077 74.7432 37.4277C74.639 37.2472 74.5066 37.0925 74.3477 36.9668C74.1888 36.8406 74.0091 36.7456 73.8096 36.6797C73.6108 36.6145 73.396 36.5811 73.167 36.5811C72.7935 36.5811 72.4593 36.67 72.166 36.8486C71.8736 37.0266 71.6431 37.282 71.4736 37.6133C71.3048 37.9454 71.2197 38.3431 71.2197 38.8057C71.2198 39.2668 71.3038 39.6634 71.4727 39.9961C71.6409 40.3288 71.8719 40.5837 72.165 40.7617C72.4582 40.9403 72.7918 41.0293 73.167 41.0293Z" fill="white" stroke="white" stroke-width="0.00617221"/>
<path d="M77.5254 40.9702V37.2007H77.5283V37.1978H78.8779V36.6411H75.5283V37.1978H76.876V37.2007H76.8789V40.9702H77.5254Z" fill="white" stroke="white" stroke-width="0.00617221"/>
<path d="M82.3594 40.9702V40.4136H80.2734V40.4106H80.2705V39.0825H80.2734V39.0796H82.1924V38.5249H80.2734V38.522H80.2705V37.2007H80.2734V37.1978H82.334V36.6411H79.6221V40.9702H82.3594Z" fill="white" stroke="white" stroke-width="0.00617221"/>
<path d="M84.6182 40.9702C85.0584 40.9702 85.4333 40.8832 85.7432 40.7095C86.0529 40.5352 86.2902 40.2863 86.4541 39.9624C86.618 39.6383 86.7002 39.2501 86.7002 38.7993C86.7002 38.3491 86.6187 37.9628 86.4561 37.6411C86.2934 37.3191 86.06 37.0723 85.7559 36.8999C85.4516 36.7274 85.0872 36.6411 84.6631 36.6411H83.2178V40.9702H84.6182ZM83.8691 40.4019H83.8662V37.2095H83.8691V37.2065H84.623C84.9392 37.2066 85.2046 37.2671 85.418 37.3901C85.6315 37.5133 85.7927 37.6946 85.9004 37.9321C86.0086 38.1696 86.0635 38.4589 86.0635 38.7993C86.0635 39.1421 86.0092 39.4333 85.9004 39.6714C85.7915 39.9096 85.6263 40.0917 85.4072 40.2173C85.1883 40.3422 84.9133 40.4047 84.583 40.4048H83.8691V40.4019Z" fill="white" stroke="white" stroke-width="0.00617221"/>
<path d="M76.1221 32.6118C80.6988 32.6117 84.4219 28.8878 84.4219 24.311C84.4217 19.7344 80.6987 16.0114 76.1221 16.0112C71.5453 16.0112 67.8214 19.7343 67.8213 24.311C67.8213 28.8879 71.5452 32.6118 76.1221 32.6118ZM76.1221 31.6919C72.0523 31.6919 68.7412 28.3808 68.7412 24.311C68.7413 20.2413 72.0523 16.9302 76.1221 16.9302C80.1917 16.9303 83.5028 20.2414 83.5029 24.311C83.5029 28.3808 80.1918 31.6918 76.1221 31.6919Z" fill="white" stroke="white" stroke-width="0.00617221"/>
<path d="M46.8311 29.8799C47.9624 29.8799 48.9351 29.6569 49.749 29.2109C50.5626 28.765 51.1881 28.1257 51.625 27.292C52.0618 26.458 52.2803 25.4604 52.2803 24.2998C52.2802 23.143 52.0617 22.1495 51.625 21.3193C51.1881 20.4892 50.5651 19.8523 49.7568 19.4082C48.9485 18.9649 47.9844 18.7422 46.8643 18.7422H42.8838V29.8799H46.8311ZM45.2373 27.8643H45.2334V20.7578H45.2373V20.7549H46.7383C47.4351 20.7549 48.0222 20.8784 48.498 21.125C48.9737 21.3722 49.3317 21.7577 49.5732 22.2803C49.8146 22.8035 49.9355 23.4764 49.9355 24.2998C49.9355 25.1308 49.8146 25.8088 49.5732 26.334C49.3317 26.8583 48.9725 27.2451 48.4951 27.4941C48.0176 27.7425 47.4302 27.8672 46.7334 27.8672H45.2373V27.8643Z" fill="white" stroke="white" stroke-width="0.00617221"/>
<path d="M56.3076 29.8799V22.6025H56.3105V22.5996H56.4033V22.5947L56.4062 22.6016L59.2891 29.8252H60.8418L63.7236 22.6289L63.7266 22.6299L63.7188 22.627H63.8193V22.6299H63.8223V29.8799H66.1016V18.7422H63.2012L60.1328 26.2275L60.1299 26.2266L60.1377 26.2295H59.999V26.2344L59.9971 26.2275L56.9297 18.7422H54.0283V29.8799H56.3076Z" fill="white" stroke="white" stroke-width="0.00617221"/>
<path d="M76.1221 30.0322C76.8365 30.0322 77.4775 29.9239 78.0449 29.708C78.6123 29.4927 79.1014 29.199 79.5127 28.8271C79.924 28.4559 80.2522 28.0335 80.4971 27.5605C80.7414 27.0885 80.8941 26.5974 80.9561 26.0879L78.5781 26.0781C78.523 26.3744 78.4272 26.6387 78.2881 26.8701C78.1484 27.1024 77.9724 27.299 77.7617 27.4609C77.551 27.6223 77.3107 27.7457 77.04 27.8291C76.7694 27.9125 76.4764 27.9541 76.1602 27.9541C75.598 27.9541 75.1021 27.8156 74.6738 27.54C74.2449 27.2638 73.9117 26.8556 73.6738 26.3145C73.436 25.7734 73.3174 25.106 73.3174 24.3115C73.3174 23.5385 73.4349 22.8799 73.6709 22.3369C73.9069 21.794 74.2391 21.3806 74.668 21.0957C75.0963 20.8108 75.5991 20.668 76.1768 20.668C76.4962 20.668 76.793 20.7135 77.0674 20.8037C77.3417 20.8945 77.5842 21.0257 77.7949 21.1963C78.0055 21.3668 78.1779 21.573 78.3125 21.8145C78.4462 22.0553 78.5341 22.3297 78.5781 22.6367H80.9561C80.8799 21.9931 80.707 21.422 80.4375 20.9229C80.1673 20.422 79.8186 19.9983 79.3906 19.6523C78.9627 19.3065 78.473 19.0426 77.9199 18.8613C77.3672 18.6806 76.7674 18.5898 76.1221 18.5898C75.1434 18.5899 74.2627 18.8138 73.4795 19.2607C72.6968 19.7085 72.0762 20.359 71.6191 21.2109C71.1627 22.0627 70.9346 23.0966 70.9346 24.3115C70.9346 25.5224 71.16 26.5536 71.6113 27.4053C72.0629 28.2572 72.6795 28.9078 73.4609 29.3574C74.2417 29.807 75.1284 30.0322 76.1221 30.0322Z" fill="white" stroke="white" stroke-width="0.00617221"/>
<path d="M87.4502 29.8799L88.2754 27.3408L88.2695 27.3389H92.3027V27.332L92.3057 27.3408L93.1299 29.8799H95.6484L91.8086 18.7422H88.7764L84.9316 29.8799H87.4502ZM90.2451 21.2852L90.2393 21.2822H90.3359V21.2754L90.3389 21.2842L91.708 25.502L91.6963 25.5059H88.877V25.4932L90.2451 21.2852Z" fill="white" stroke="white" stroke-width="0.00617221"/>
<path d="M15.7188 45.231H32.5449C33.7446 45.2309 34.9381 45.0604 36.0898 44.7241C36.306 44.6597 36.4549 44.4612 36.4551 44.2368V25.7886C36.4551 25.5628 36.3066 25.3635 36.0898 25.3003L35.8984 25.2446C34.874 24.946 33.8121 24.7945 32.7451 24.7944H32.2891V24.7915H32.2852V16.0913C32.2852 13.7266 30.3686 11.8091 28.0039 11.8091H20.2598C17.8951 11.8091 15.9775 13.7266 15.9775 16.0913V24.7915H15.9746V24.7944H15.5195C14.4536 24.7944 13.3926 24.9457 12.3691 25.2437L12.1738 25.3003C11.9571 25.3635 11.8076 25.5628 11.8076 25.7886V44.2368C11.8078 44.4612 11.9577 44.6597 12.1738 44.7241L12.1768 44.7261C13.3273 45.0611 14.5203 45.231 15.7188 45.231ZM18.877 24.7915H18.874V16.0913C18.874 15.328 19.4965 14.7056 20.2598 14.7056H28.0039C28.7692 14.7056 29.3916 15.328 29.3916 16.0913V24.7915H29.3887V24.7944H18.877V24.7915ZM22.5742 38.189C22.4178 38.189 22.3151 38.0264 22.3828 37.8862L23.4297 35.7173C23.4802 35.614 23.4334 35.4915 23.3281 35.4429C22.6862 35.14 22.2383 34.4857 22.2383 33.729C22.2383 33.169 22.483 32.665 22.8721 32.3179L23.0469 32.1792C23.4076 31.9239 23.8632 31.7925 24.3486 31.8481C24.6677 31.884 24.9671 32.003 25.2188 32.1792C25.6407 32.4766 25.9375 32.9421 26.0088 33.4712C26.1237 34.3348 25.6526 35.104 24.9375 35.4429C24.8322 35.4915 24.7854 35.614 24.834 35.7173L25.8818 37.8862C25.9498 38.0265 25.8459 38.189 25.6914 38.189H22.5742Z" fill="white" stroke="white" stroke-width="0.00617221"/>
</svg>
