<svg xmlns="http://www.w3.org/2000/svg" width="120.286" height="25.021" viewBox="0 0 120.286 25.021">
  <g id="Group_104842" data-name="Group 104842" transform="translate(-9592.472 -1795.38)">
    <path id="Path_17971" data-name="Path 17971" d="M551.393,187.466a2.189,2.189,0,1,1-2.189,2.189,2.189,2.189,0,0,1,2.189-2.189Zm29.511,8.041c.111-3.672,6.011-4.008,9.431-1.937l-1.264,2.484a5.036,5.036,0,0,0-3.494-1.095c-1.231.1-1.363,1.44.632,1.389,3.115-.079,4.8,1.559,4.631,3.663-.267,3.4-5.62,4.789-10.315,1.81l1.726-2.526a6.675,6.675,0,0,0,3.915,1.263c1.359-.162,2.046-1.258-.379-1.515-3.3-.35-4.949-1.407-4.884-3.537Zm-25.74,7.948V192.991h3.81v1.471c1.478-2.452,7.226-2.488,7.226,1.343v7.655h-3.8l-.042-5.261c-.017-2.1-.782-2.3-1.814-2.186-.856.1-1.622.407-1.622,2.186v5.261ZM549.409,192.8h3.957v10.652h-3.957V192.8Zm-19.3,10.652V192.991h3.809v1.471c1.141-1.9,5.541-2.833,6.8.12,1.8-2.686,7.048-2.561,7.046,1.087l0,7.791h-4.038v-5.725c0-1.538-.262-1.686-1.554-1.628-1.058.047-1.3.924-1.3,1.918l-.026,5.435h-3.8l-.042-5.261c-.017-2.1-.478-2.283-1.512-2.186s-1.471.239-1.471,2.186v5.261Zm-6.869-11.241a5.621,5.621,0,1,1-5.621,5.62,5.621,5.621,0,0,1,5.621-5.62Zm0,3.621a2,2,0,1,1-2,2,2,2,0,0,1,2-2Zm-21.066,7.621V188.639h4.406a24.039,24.039,0,0,1,3.581.228,8,8,0,0,1,2.414.7,7.537,7.537,0,0,1,3.019,2.681,7.4,7.4,0,0,1,0,7.59,7.553,7.553,0,0,1-3.022,2.681,8.089,8.089,0,0,1-2.439.712,27.888,27.888,0,0,1-3.961.221Zm4.4-3.914v-6.989h1.8a8.527,8.527,0,0,1,1.464.107,2.951,2.951,0,0,1,.987.333,3.278,3.278,0,0,1,1.233,1.265,3.964,3.964,0,0,1,0,3.581,3.287,3.287,0,0,1-1.234,1.265,2.98,2.98,0,0,1-1,.336,9.887,9.887,0,0,1-1.618.1Zm66.292-7.327a5.621,5.621,0,1,1-5.62,5.621A5.62,5.62,0,0,1,572.867,192.215Zm0,3.621a2,2,0,1,1-2,2,2,2,0,0,1,2-2Zm6.793-8.344a2.126,2.126,0,0,1,1.943,1.262,3.048,3.048,0,0,1,.121,1.91c-.238.937-1.028,1.854-2.693,2.723l-.46-.622a4.792,4.792,0,0,0,.8-.757c.242-.366-.074-.276-.341-.359a2.127,2.127,0,0,1,.634-4.156Z" transform="translate(9121.906 1616.545)" fill="#006491" fill-rule="evenodd"/>
    <path id="Path_17973" data-name="Path 17973" d="M213.8,56.656l7.743-7.716a.831.831,0,0,1,1.175,0l7.3,7.331a.831.831,0,0,1,0,1.175l-7.745,7.718Zm6.938-1.371a2.078,2.078,0,1,1-.612,1.47,2.078,2.078,0,0,1,.612-1.47Z" transform="translate(9387.22 1746.684)" fill="#e31937" fill-rule="evenodd"/>
    <path id="Path_17974" data-name="Path 17974" d="M95.024,183.566a2.078,2.078,0,1,1-.612,1.47,2.078,2.078,0,0,1,.612-1.47Zm-6.083.019a2.078,2.078,0,1,1-.612,1.47A2.078,2.078,0,0,1,88.94,183.585Zm-3.308.773,7.743-7.716,8.479,8.508-7.743,7.716a.831.831,0,0,1-1.175,0l-7.3-7.333a.831.831,0,0,1,0-1.175Z" transform="translate(9507.084 1627.255)" fill="#006491" fill-rule="evenodd"/>
    <path id="Path_17975" data-name="Path 17975" d="M251.349,407.511v-1.038h-.4v-.181h1v.181h-.4v1.038Zm.738,0V406.29h.3l.308.974.3-.974h.294v1.221H253.1v-1.023l-.314,1.023H252.6l-.328-1.038v1.038Z" transform="translate(9352.538 1412.89)" fill="#006491"/>
  </g>
</svg>
