<svg width="100" height="100" viewBox="0 0 100 100" fill="none" xmlns="http://www.w3.org/2000/svg">
<rect x="0.5" y="0.5" width="99" height="99" rx="3.5" fill="white"/>
<rect x="0.5" y="0.5" width="99" height="99" rx="3.5" stroke="#0C6A93"/>
<g clip-path="url(#clip0_11777_497)">
<path fill-rule="evenodd" clip-rule="evenodd" d="M52.5242 65.8037C53.5531 65.8037 54.3785 66.6292 54.3785 67.658C54.3785 68.6868 53.5531 69.5123 52.5242 69.5123C51.4954 69.5123 50.658 68.6868 50.658 67.658C50.658 66.6292 51.4954 65.8037 52.5242 65.8037ZM77.5871 72.6347C77.6828 69.5123 82.6954 69.2252 85.6025 70.9838L84.5258 73.1013C83.5209 72.4074 82.6595 72.0844 81.5589 72.1681C80.5061 72.2519 80.3985 73.3884 82.0972 73.3525C84.7411 73.2807 86.1767 74.6804 86.0331 76.4629C85.8058 79.346 81.2598 80.5304 77.2761 78.0062L78.7476 75.8528C79.8601 76.4988 80.9607 77.0611 82.0733 76.9295C83.2337 76.7979 83.808 75.8648 81.7503 75.6494C78.939 75.3503 77.5393 74.4531 77.5871 72.6347ZM55.7304 79.3819V70.4933H58.9724V71.7375C60.2285 69.6559 65.1095 69.62 65.1095 72.874L65.1215 79.37H61.8914L61.8555 74.9077C61.8436 73.1132 61.1856 72.9457 60.3123 73.0534C59.5825 73.1371 58.9365 73.4003 58.9365 74.9077V79.37H55.7304V79.3819ZM54.1991 70.3378V79.3819H50.8374V70.3378H54.1991ZM34.4479 79.3819V70.4933H37.6899V71.7375C38.6589 70.1224 42.3914 69.3329 43.4681 71.8332C44.9994 69.5602 49.4497 69.6559 49.4497 72.7543V79.37H46.0163V74.5249C46.0163 73.2209 45.789 73.1013 44.6884 73.1491C43.7911 73.185 43.5877 73.9387 43.5877 74.7761L43.5638 79.3939H40.3457L40.3098 74.9316C40.2859 73.1371 39.9031 72.9936 39.0178 73.0773C38.1565 73.1611 37.7736 73.2807 37.7736 74.9316V79.3939H34.4479V79.3819ZM28.6098 69.8353C31.2537 69.8353 33.3831 71.9648 33.3831 74.6086C33.3831 77.2525 31.2537 79.3819 28.6098 79.3819C25.9779 79.3819 23.8365 77.2525 23.8365 74.6086C23.8485 71.9767 25.9779 69.8353 28.6098 69.8353ZM28.6098 72.9098C29.5549 72.9098 30.3086 73.6755 30.3086 74.6086C30.3086 75.5537 29.543 76.3074 28.6098 76.3074C27.6647 76.3074 26.9111 75.5417 26.9111 74.6086C26.923 73.6755 27.6767 72.9098 28.6098 72.9098ZM10.7249 79.3819V66.7967H14.4693C15.6537 66.7967 16.6706 66.8684 17.508 66.9881C18.3454 67.1197 19.0393 67.323 19.5657 67.5862C20.6782 68.1485 21.5276 68.9141 22.1258 69.8592C22.7239 70.8043 23.023 71.881 23.023 73.0893C23.023 74.2976 22.7239 75.3623 22.1377 76.3074C21.5396 77.2525 20.6902 78.0062 19.5657 78.5804C19.0153 78.8556 18.3334 79.0589 17.496 79.1786C16.6586 79.3102 15.5341 79.37 14.1344 79.37H10.7249V79.3819ZM14.4574 76.0681V70.1344H15.9887C16.4791 70.1344 16.8859 70.1703 17.2328 70.2301C17.5798 70.2899 17.8549 70.3856 18.0703 70.5172C18.5249 70.7924 18.8718 71.1513 19.123 71.5939C19.3623 72.0365 19.4819 72.551 19.4819 73.1132C19.4819 73.6755 19.3623 74.1899 19.123 74.6325C18.8837 75.0752 18.5368 75.4341 18.0703 75.7092C17.843 75.8408 17.5678 75.9365 17.2209 75.9963C16.8739 76.0562 16.4193 76.0801 15.8451 76.0801H14.4574V76.0681ZM70.7681 69.8353C73.4 69.8353 75.5414 71.9648 75.5414 74.6086C75.5414 77.2525 73.4 79.3819 70.7681 79.3819C68.1362 79.3819 65.9948 77.2525 65.9948 74.6086C65.9948 71.9767 68.1362 69.8353 70.7681 69.8353ZM70.7681 72.9098C71.7132 72.9098 72.4669 73.6755 72.4669 74.6086C72.4669 75.5537 71.7132 76.3074 70.7681 76.3074C69.823 76.3074 69.0693 75.5417 69.0693 74.6086C69.0693 73.6755 69.823 72.9098 70.7681 72.9098ZM76.5344 65.8276C77.2761 65.8276 77.9101 66.2703 78.1853 66.9043C78.4006 67.3948 78.4246 68.0049 78.281 68.5313C78.0896 69.3329 77.4077 70.1105 75.996 70.8402L75.6012 70.3138C75.8764 70.0865 76.1635 69.8353 76.2712 69.6678C76.4865 69.3568 76.2114 69.4286 75.9841 69.3568C75.2543 69.1295 74.716 68.4476 74.716 67.6341C74.7279 66.6411 75.5414 65.8276 76.5344 65.8276Z" fill="#0C6A93"/>
<path d="M87.1696 70.2539C87.3012 70.2539 87.4209 70.2898 87.5525 70.3496C87.6721 70.4214 87.7798 70.5171 87.8396 70.6367C87.9114 70.7564 87.9472 70.888 87.9472 71.0315C87.9472 71.1631 87.9114 71.2947 87.8515 71.4263C87.7798 71.5459 87.6841 71.6536 87.5644 71.7134C87.4328 71.7852 87.3132 71.8091 87.1696 71.8091C87.038 71.8091 86.8945 71.7732 86.7749 71.7134C86.6552 71.6416 86.5475 71.5459 86.4877 71.4263C86.416 71.2947 86.392 71.1751 86.392 71.0315C86.392 70.8999 86.4279 70.7564 86.4877 70.6367C86.5595 70.5051 86.6552 70.4094 86.7868 70.3496C86.9064 70.2898 87.038 70.2539 87.1696 70.2539ZM87.1696 70.3855C87.05 70.3855 86.9543 70.4094 86.8466 70.4692C86.7509 70.5291 86.6672 70.6008 86.6074 70.7085C86.5475 70.8042 86.5236 70.9238 86.5236 71.0315C86.5236 71.1511 86.5475 71.2588 86.6074 71.3545C86.6672 71.4622 86.739 71.5459 86.8466 71.5938C86.9423 71.6536 87.062 71.6775 87.1696 71.6775C87.2893 71.6775 87.3969 71.6536 87.4926 71.5938C87.5883 71.534 87.6721 71.4622 87.7319 71.3545C87.7917 71.2588 87.8156 71.1392 87.8156 71.0315C87.8156 70.9119 87.7798 70.8042 87.7319 70.7085C87.6721 70.6008 87.5883 70.5171 87.4807 70.4692C87.385 70.4094 87.2773 70.3855 87.1696 70.3855ZM86.8227 71.4742V70.6248H87.1098C87.2055 70.6248 87.2773 70.6367 87.3252 70.6487C87.361 70.6607 87.3969 70.6846 87.4209 70.7324C87.4448 70.7683 87.4567 70.8162 87.4567 70.8521C87.4567 70.9119 87.4328 70.9717 87.385 71.0196C87.3491 71.0674 87.2893 71.0913 87.2055 71.0913C87.2414 71.1033 87.2653 71.1153 87.2773 71.1392C87.3132 71.1751 87.3491 71.2229 87.4089 71.3067L87.5046 71.4742H87.3371L87.2653 71.3426C87.2055 71.2349 87.1577 71.1631 87.1218 71.1511C87.0979 71.1272 87.062 71.1153 87.0141 71.1153H86.9304V71.4742H86.8227ZM86.9543 70.9956H87.1218C87.1936 70.9956 87.2534 70.9837 87.2773 70.9597C87.3132 70.9358 87.3252 70.8999 87.3252 70.864C87.3252 70.8401 87.3132 70.8162 87.3012 70.7922C87.2893 70.7683 87.2653 70.7564 87.2414 70.7444C87.2175 70.7324 87.1696 70.7324 87.1098 70.7324H86.9543V70.9956Z" fill="#0074AD"/>
<path fill-rule="evenodd" clip-rule="evenodd" d="M42.7982 31.6248L54.5221 19.9367C55.0126 19.4462 55.8141 19.4462 56.3046 19.9367L67.3706 31.0386C67.861 31.529 67.861 32.3306 67.3706 32.8211L55.6347 44.5091L42.7982 31.6248ZM53.3138 29.5551C54.546 28.3229 56.5319 28.3349 57.7641 29.5671C58.9963 30.7993 58.9844 32.7971 57.7521 34.0174C56.5199 35.2496 54.5221 35.2376 53.3018 34.0054C52.0696 32.7732 52.0816 30.7873 53.3138 29.5551Z" fill="#E92944"/>
<path fill-rule="evenodd" clip-rule="evenodd" d="M44.4491 42.9539C45.6813 41.7336 47.6672 41.7336 48.8994 42.9658C50.1316 44.198 50.1196 46.1839 48.8874 47.4161C47.6552 48.6364 45.6574 48.6364 44.4371 47.4042C43.2169 46.1839 43.2169 44.1861 44.4491 42.9539ZM35.2374 42.9898C36.4696 41.7576 38.4555 41.7695 39.6877 43.0017C40.908 44.2339 40.908 46.2198 39.6758 47.452C38.4436 48.6723 36.4457 48.6723 35.2255 47.4401C34.0052 46.2079 34.0052 44.21 35.2374 42.9898ZM30.2249 44.1622L41.9488 32.4741L54.7973 45.3704L43.0733 57.0585C42.5828 57.549 41.7813 57.549 41.2908 57.0465L30.2249 45.9447C29.7344 45.4542 29.7344 44.6527 30.2249 44.1622Z" fill="#0C6A93"/>
<path d="M47.1528 57.4773V55.8982H46.5546V55.623H48.062V55.8982H47.4638V57.4773H47.1528ZM48.2653 57.4773V55.623H48.7199L49.1865 57.1065L49.6411 55.623H50.0838V57.4773H49.7966V55.9221L49.3181 57.4773H49.043L48.5525 55.8982V57.4773H48.2653Z" fill="#0C6A93"/>
</g>
<defs>
<clipPath id="clip0_11777_497">
<rect width="78" height="78" fill="white" transform="translate(11 11)"/>
</clipPath>
</defs>
</svg>
