<svg xmlns="http://www.w3.org/2000/svg" width="26.801" height="24.093" viewBox="0 0 26.801 24.093">
  <g id="Building_an_MVP" data-name="Building an MVP" transform="translate(-451.092 -1077.443)">
    <g id="Mobile_Commerce_App_Development" data-name="Mobile Commerce App Development" transform="translate(451.092 1077.443)">
      <g id="Group_1036" data-name="Group 1036" transform="translate(0 0)">
        <circle id="Ellipse_3" data-name="Ellipse 3" cx="1.657" cy="1.657" r="1.657" transform="translate(8.21 20.779)" fill="#fff"/>
        <circle id="Ellipse_4" data-name="Ellipse 4" cx="1.657" cy="1.657" r="1.657" transform="translate(17.87 20.779)" fill="#fff"/>
        <path id="Path_1927" data-name="Path 1927" d="M275.174,115.1h-19.86l-.84-3.246h-5.133c-.656,0-.969.672-.969,1.328s.363,1.268,1.019,1.268H252.5L256.8,131.06h13.734c.66,0,1.211-.2,1.19-1.436a1.266,1.266,0,0,0-1.241-1.268h-11.71l-.29-1.488H271.72Zm-17.437,9.39-1.578-6.345h15.559l-1.792,6.345Z" transform="translate(-248.373 -111.854)" fill="#fff"/>
      </g>
    </g>
  </g>
</svg>
