<svg width="20" height="20" viewBox="0 0 20 20" fill="none" xmlns="http://www.w3.org/2000/svg">
<g clip-path="url(#clip0_12166_555)">
<path d="M5.94394 13.9457C5.68141 13.7226 5.50838 13.4121 5.45672 13.0715L4.71387 5.71432H17.7853C18.0239 5.70365 18.2614 5.75297 18.476 5.8578C18.6906 5.96262 18.8756 6.11957 19.0139 6.31432C19.1466 6.49749 19.234 6.70956 19.2687 6.93309C19.3036 7.15662 19.2847 7.3852 19.2139 7.60003L17.3139 13.3143C17.2144 13.61 17.021 13.865 16.763 14.0404C16.5052 14.2159 16.1969 14.302 15.8853 14.2857H6.8853C6.54078 14.2896 6.20645 14.1689 5.94394 13.9457Z" fill="#ECF3FF"/>
<path d="M0.725037 0.714355H4.21385L5.45671 13.0715C5.50837 13.4121 5.6814 13.7226 5.94392 13.9458C6.20644 14.1689 6.54077 14.2896 6.88528 14.2858H15.8853C16.1969 14.3021 16.5051 14.2159 16.763 14.0405C17.021 13.8651 17.2144 13.61 17.3139 13.3144L19.2139 7.60007C19.2847 7.38524 19.3036 7.15664 19.2687 6.93313C19.234 6.7096 19.1466 6.49753 19.0139 6.31436C18.8756 6.11961 18.6906 5.96266 18.476 5.85783C18.2614 5.75301 18.0239 5.70368 17.7853 5.71436H4.71385" stroke="#1163FB" stroke-width="1.5" stroke-linecap="round" stroke-linejoin="round"/>
<path d="M15.6424 19.286C15.248 19.286 14.9281 18.9661 14.9281 18.5717C14.9281 18.1773 15.248 17.8574 15.6424 17.8574C16.0368 17.8574 16.3567 18.1773 16.3567 18.5717C16.3567 18.9661 16.0368 19.286 15.6424 19.286Z" stroke="#1163FB" stroke-width="1.5" stroke-linecap="round" stroke-linejoin="round"/>
<path d="M6.35671 19.286C5.96223 19.286 5.64243 18.9661 5.64243 18.5717C5.64243 18.1773 5.96223 17.8574 6.35671 17.8574C6.7512 17.8574 7.071 18.1773 7.071 18.5717C7.071 18.9661 6.7512 19.286 6.35671 19.286Z" stroke="#1163FB" stroke-width="1.5" stroke-linecap="round" stroke-linejoin="round"/>
<path d="M9.55356 8.57129V11.4284" stroke="#1163FB" stroke-width="1.5" stroke-linecap="round" stroke-linejoin="round"/>
<path d="M13.8393 8.57129V11.4284" stroke="#1163FB" stroke-width="1.5" stroke-linecap="round" stroke-linejoin="round"/>
</g>
<defs>
<clipPath id="clip0_12166_555">
<rect width="20" height="20" fill="white"/>
</clipPath>
</defs>
</svg>
