<svg xmlns="http://www.w3.org/2000/svg" width="123.25" height="25.413" viewBox="0 0 123.25 25.413">
  <g id="Group_104419" data-name="Group 104419" transform="translate(-6452.852 -9938.943)">
    <path id="Path_74626" data-name="Path 74626" d="M200.182,29.432a5.718,5.718,0,0,0-4.7,2.168V29.833H193a2.433,2.433,0,0,0-2.449,2.449V47.016h2.489a2.433,2.433,0,0,0,2.449-2.449V37.3a3.157,3.157,0,0,1,3.172-3.292,3.125,3.125,0,0,1,3.131,3.292v9.716h2.489a2.433,2.433,0,0,0,2.449-2.449V35.976a6.387,6.387,0,0,0-1.887-4.7A6.555,6.555,0,0,0,200.182,29.432Z" transform="translate(6329.914 9916.657)" fill="#fff"/>
    <path id="Path_74627" data-name="Path 74627" d="M266.175,32.041a8.837,8.837,0,0,0-6.544-2.61,8.927,8.927,0,0,0-6.584,2.61,8.566,8.566,0,0,0-2.609,6.424,8.717,8.717,0,0,0,2.609,6.464,9.053,9.053,0,0,0,6.584,2.569,8.9,8.9,0,0,0,6.544-2.569,8.752,8.752,0,0,0,2.65-6.464A8.6,8.6,0,0,0,266.175,32.041Zm-3.694,9.394a4.023,4.023,0,0,1-5.741,0,4.162,4.162,0,0,1-1.164-2.931,4.027,4.027,0,0,1,1.164-2.931,3.816,3.816,0,0,1,2.89-1.2,3.689,3.689,0,0,1,2.851,1.245,3.967,3.967,0,0,1,1.2,2.931A4.074,4.074,0,0,1,262.482,41.436Z" transform="translate(6307.276 9916.657)" fill="#fff"/>
    <path id="Path_74628" data-name="Path 74628" d="M126.662,20.715v6.3a7.874,7.874,0,0,0-4.778-1.606,7.5,7.5,0,0,0-5.821,2.569,9.2,9.2,0,0,0-2.329,6.464,9.408,9.408,0,0,0,2.329,6.464,7.893,7.893,0,0,0,10.6.963v1.2h2.449a2.433,2.433,0,0,0,2.449-2.449V18.266h-2.449A2.433,2.433,0,0,0,126.662,20.715ZM122.767,38.58a3.96,3.96,0,0,1-3.854-4.175,3.938,3.938,0,0,1,3.854-4.095,3.658,3.658,0,0,1,2.73,1.2,4.06,4.06,0,0,1,1.124,2.931A3.95,3.95,0,0,1,122.767,38.58Z" transform="translate(6358.949 9920.879)" fill="#fff"/>
    <path id="Path_74629" data-name="Path 74629" d="M97.589,40.321a2.433,2.433,0,0,0,2.449-2.449v-.241a8.614,8.614,0,0,0-2.57-5.46,9.409,9.409,0,0,0-13.008,0,8.566,8.566,0,0,0-2.61,6.423,8.575,8.575,0,0,0,2.69,6.464,9.336,9.336,0,0,0,6.7,2.569,9.1,9.1,0,0,0,8.23-4.657l-3.532-.8a2.711,2.711,0,0,0-.562-.08,2.621,2.621,0,0,0-1.485.482,4.416,4.416,0,0,1-2.65.8,4.3,4.3,0,0,1-4.215-3.011H97.469ZM87.111,36.627A4.1,4.1,0,0,1,90.965,33.7a4.3,4.3,0,0,1,4.055,2.931Z" transform="translate(6371 9916.608)" fill="#fff"/>
    <path id="Path_74630" data-name="Path 74630" d="M173.062,32.592v7.267a3.158,3.158,0,0,1-3.172,3.292,3.126,3.126,0,0,1-3.132-3.292V30.143h-2.489a2.433,2.433,0,0,0-2.449,2.449v8.591a6.385,6.385,0,0,0,1.887,4.7,6.516,6.516,0,0,0,4.7,1.887,5.718,5.718,0,0,0,4.7-2.168v1.767h2.489a2.433,2.433,0,0,0,2.449-2.449V30.183H175.55A2.434,2.434,0,0,0,173.062,32.592Z" transform="translate(6340.772 9916.389)" fill="#fff"/>
    <path id="Path_74631" data-name="Path 74631" d="M232,20.392v6.3a7.872,7.872,0,0,0-4.777-1.606,7.5,7.5,0,0,0-5.821,2.569,9.2,9.2,0,0,0-2.329,6.464,9.408,9.408,0,0,0,2.329,6.464,7.892,7.892,0,0,0,10.6.964v1.2h2.449a2.433,2.433,0,0,0,2.449-2.449V17.943h-2.449A2.459,2.459,0,0,0,232,20.392ZM228.1,38.258a3.961,3.961,0,0,1-3.855-4.175,3.938,3.938,0,0,1,3.855-4.095,3.658,3.658,0,0,1,2.73,1.2,4.06,4.06,0,0,1,1.124,2.931A3.95,3.95,0,0,1,228.1,38.258Z" transform="translate(6319.133 9921)" fill="#fff"/>
    <path id="Path_74632" data-name="Path 74632" d="M152.84,18.2h-1.285a6.71,6.71,0,0,0-4.577,1.606,5.251,5.251,0,0,0-1.806,4.055V40.523a2.433,2.433,0,0,0,2.449,2.449h2.489V29.964h3.733V28.238a2.433,2.433,0,0,0-2.449-2.449H150.11V24.544a1.752,1.752,0,0,1,1.847-1.766h3.332V20.69A2.468,2.468,0,0,0,152.84,18.2Z" transform="translate(6347.065 9920.902)" fill="#fff"/>
  </g>
</svg>
