<svg xmlns="http://www.w3.org/2000/svg" width="19.758" height="20.129" viewBox="0 0 19.758 20.129">
  <g id="Building_an_MVP" data-name="Building an MVP" transform="translate(-451.552 -1080.06)">
    <g id="Group_1019" data-name="Group 1019" transform="translate(451.552 1080.06)">
      <g id="Group_651" data-name="Group 651" transform="translate(0 0)">
        <g id="Group_1027" data-name="Group 1027">
          <path id="Path_2495" data-name="Path 2495" d="M184.766,127.647V143.7l9.839,4.073,9.919-4.071V127.653l-9.916,4.069Zm17.708,3.062v11.622l-6.842,2.81V133.518Zm-15.659,0,6.766,2.8v11.62l-6.766-2.8Z" transform="translate(-184.766 -127.647)" fill="#fff"/>
          <g id="Group_1026" data-name="Group 1026" transform="translate(2.497 6.019)">
            <g id="Group_1020" data-name="Group 1020" transform="translate(0 0)">
              <path id="Path_2496" data-name="Path 2496" d="M193.654,140.4a.814.814,0,0,1-.277-.048l-4.061-1.454a.82.82,0,1,1,.553-1.544l4.062,1.455a.82.82,0,0,1-.277,1.592Z" transform="translate(-188.773 -137.301)" fill="#fff"/>
            </g>
            <g id="Group_1021" data-name="Group 1021" transform="translate(0 2.68)">
              <path id="Path_2497" data-name="Path 2497" d="M193.654,144.695a.814.814,0,0,1-.277-.048l-4.061-1.454a.82.82,0,1,1,.553-1.544l4.062,1.455a.82.82,0,0,1-.277,1.592Z" transform="translate(-188.773 -141.6)" fill="#fff"/>
            </g>
            <g id="Group_1022" data-name="Group 1022" transform="translate(0 5.358)">
              <path id="Path_2498" data-name="Path 2498" d="M193.654,148.992a.815.815,0,0,1-.277-.051l-4.061-1.454a.82.82,0,1,1,.553-1.544l4.062,1.454a.821.821,0,0,1-.277,1.593Z" transform="translate(-188.773 -145.895)" fill="#fff"/>
            </g>
            <g id="Group_1023" data-name="Group 1023" transform="translate(9.061 0)">
              <path id="Path_2499" data-name="Path 2499" d="M204.125,140.4a.82.82,0,0,1-.277-1.592l4.062-1.454a.82.82,0,1,1,.553,1.544l-4.061,1.454A.814.814,0,0,1,204.125,140.4Z" transform="translate(-203.305 -137.301)" fill="#fff"/>
            </g>
            <g id="Group_1024" data-name="Group 1024" transform="translate(9.061 2.68)">
              <path id="Path_2500" data-name="Path 2500" d="M204.125,144.695a.82.82,0,0,1-.277-1.592l4.062-1.454a.82.82,0,1,1,.553,1.544l-4.061,1.454A.814.814,0,0,1,204.125,144.695Z" transform="translate(-203.305 -141.6)" fill="#fff"/>
            </g>
            <g id="Group_1025" data-name="Group 1025" transform="translate(9.062 5.361)">
              <path id="Path_2501" data-name="Path 2501" d="M204.126,148.994a.821.821,0,0,1-.277-1.593l4.062-1.454a.82.82,0,1,1,.553,1.544l-4.061,1.454A.814.814,0,0,1,204.126,148.994Z" transform="translate(-203.307 -145.899)" fill="#fff"/>
            </g>
          </g>
        </g>
      </g>
    </g>
  </g>
</svg>
