<svg width="25" height="24" viewBox="0 0 25 24" fill="none" xmlns="http://www.w3.org/2000/svg">
<path d="M6.3168 10.025L8.2668 10.85C8.50013 10.3833 8.7418 9.93335 8.9918 9.50001C9.2418 9.06668 9.5168 8.63335 9.8168 8.20001L8.4168 7.92501L6.3168 10.025ZM9.8668 12.1L12.7168 14.925C13.4168 14.6583 14.1668 14.25 14.9668 13.7C15.7668 13.15 16.5168 12.525 17.2168 11.825C18.3835 10.6583 19.296 9.36251 19.9543 7.93751C20.6126 6.51251 20.9001 5.20001 20.8168 4.00001C19.6168 3.91668 18.3001 4.20418 16.8668 4.86251C15.4335 5.52085 14.1335 6.43335 12.9668 7.60001C12.2668 8.30001 11.6418 9.05001 11.0918 9.85001C10.5418 10.65 10.1335 11.4 9.8668 12.1ZM14.3168 10.475C13.9335 10.0917 13.7418 9.62085 13.7418 9.06251C13.7418 8.50418 13.9335 8.03335 14.3168 7.65001C14.7001 7.26668 15.1751 7.07501 15.7418 7.07501C16.3085 7.07501 16.7835 7.26668 17.1668 7.65001C17.5501 8.03335 17.7418 8.50418 17.7418 9.06251C17.7418 9.62085 17.5501 10.0917 17.1668 10.475C16.7835 10.8583 16.3085 11.05 15.7418 11.05C15.1751 11.05 14.7001 10.8583 14.3168 10.475ZM14.7918 18.5L16.8918 16.4L16.6168 15C16.1835 15.3 15.7501 15.5708 15.3168 15.8125C14.8835 16.0542 14.4335 16.2917 13.9668 16.525L14.7918 18.5ZM22.6168 2.17501C22.9335 4.19168 22.7376 6.15418 22.0293 8.06251C21.321 9.97085 20.1001 11.7917 18.3668 13.525L18.8668 16C18.9335 16.3333 18.9168 16.6583 18.8168 16.975C18.7168 17.2917 18.5501 17.5667 18.3168 17.8L14.1168 22L12.0168 17.075L7.7418 12.8L2.8168 10.7L6.9918 6.50001C7.22513 6.26668 7.5043 6.10001 7.8293 6.00001C8.1543 5.90001 8.48346 5.88335 8.8168 5.95001L11.2918 6.45001C13.0251 4.71668 14.8418 3.49168 16.7418 2.77501C18.6418 2.05835 20.6001 1.85835 22.6168 2.17501ZM4.5918 15.975C5.17513 15.3917 5.88763 15.0958 6.7293 15.0875C7.57096 15.0792 8.28346 15.3667 8.8668 15.95C9.45013 16.5333 9.73763 17.2458 9.7293 18.0875C9.72096 18.9292 9.42513 19.6417 8.8418 20.225C8.42513 20.6417 7.7293 21 6.7543 21.3C5.7793 21.6 4.43346 21.8667 2.7168 22.1C2.95013 20.3833 3.2168 19.0375 3.5168 18.0625C3.8168 17.0875 4.17513 16.3917 4.5918 15.975ZM6.0168 17.375C5.85013 17.5417 5.68346 17.8458 5.5168 18.2875C5.35013 18.7292 5.23346 19.175 5.1668 19.625C5.6168 19.5583 6.06263 19.4458 6.5043 19.2875C6.94596 19.1292 7.25013 18.9667 7.4168 18.8C7.6168 18.6 7.72513 18.3583 7.7418 18.075C7.75846 17.7917 7.6668 17.55 7.4668 17.35C7.2668 17.15 7.02513 17.0542 6.7418 17.0625C6.45846 17.0708 6.2168 17.175 6.0168 17.375Z" fill="white"/>
</svg>
