<svg width="20" height="20" viewBox="0 0 20 20" fill="none" xmlns="http://www.w3.org/2000/svg">
<path d="M6.18301 8.27246H13.8175V10.3279C13.8175 12.4361 12.1084 14.1451 10.0002 14.1451C7.89205 14.1451 6.18301 12.4361 6.18301 10.3279V8.27246Z" fill="#ECF3FF"/>
<path d="M6.18283 8.27246H13.8173V10.3279C13.8173 12.4361 12.1083 14.1451 10.0001 14.1451C7.89185 14.1451 6.18283 12.4361 6.18283 10.3279V8.27246Z" stroke="#1163FB" stroke-width="1.5" stroke-linecap="round" stroke-linejoin="round"/>
<path d="M7.92731 8.27263V5.16357" stroke="#1163FB" stroke-width="1.5" stroke-linecap="round" stroke-linejoin="round"/>
<path d="M12.0727 8.27263V5.16357" stroke="#1163FB" stroke-width="1.5" stroke-linecap="round" stroke-linejoin="round"/>
<path d="M10 14.1452V16.9641C10 17.6967 10.5979 18.3018 11.3214 18.186C15.2722 17.5532 18.2908 14.129 18.2908 9.9998C18.2908 5.42091 14.5789 1.70898 10 1.70898C5.42112 1.70898 1.7092 5.42091 1.7092 9.9998C1.7092 13.0686 3.37647 15.7479 5.85461 17.1815" stroke="#1163FB" stroke-width="1.5" stroke-linecap="round" stroke-linejoin="round"/>
</svg>
