<svg id="Group_2112" data-name="Group 2112" xmlns="http://www.w3.org/2000/svg" xmlns:xlink="http://www.w3.org/1999/xlink" width="149.149" height="19.196" viewBox="0 0 149.149 19.196">
  <defs>
    <clipPath id="clip-path">
      <path id="Path_17976" data-name="Path 17976" d="M5.98,17.556l-.058.087-.087.1-.068.077-.01.039H5.484l-.242-.106L5.165,17.7s-.019,0-.039-.049a.362.362,0,0,1-.029-.145l-.077-.581L4.952,16.4l-.1-.688-.019-.232-.049-1.356L4.7,11.619h.242a2.06,2.06,0,0,1,.184.128c.128.087.242.164.368.252a.156.156,0,0,1,.077.106.036.036,0,0,0,.01.029l.029.145c.01.068.068.29.1.436.019.068.039.164.068.29.01.019.039.164.039.164l.029.128-.01.213-.019.213-.019.2.01.136-.019.223-.01.223-.019.164-.01.136-.01.174-.019.29-.019.174-.01.116-.01.128-.01.1V15.9l-.019.213-.019.106-.01.077-.019.077-.029.164v.068l.039.077.349.63.049.107.01.058-.039.077ZM11.6,14.128l-.051,1.356-.019.232-.1.688-.077.523-.087.581a.362.362,0,0,1-.029.145c-.029.049-.049.049-.049.049l-.068.049-.242.106H10.6l-.01-.039-.066-.075-.087-.1-.068-.087-.029-.077.01-.058.049-.106.358-.63.039-.077v-.07l-.029-.164-.01-.068-.019-.087-.019-.106L10.7,15.9l-.01-.128-.01-.1-.01-.128-.01-.116-.01-.164-.019-.29-.01-.174-.01-.136-.019-.164-.01-.223-.019-.223-.01-.136-.019-.2-.019-.213-.01-.213.029-.128s.029-.145.039-.164c.029-.128.058-.223.068-.29.029-.145.087-.368.1-.436l.029-.145c0-.019.01-.019.01-.029a.2.2,0,0,1,.087-.106c.128-.087.252-.164.378-.252.068-.039.128-.087.192-.128h.252L11.6,14.122ZM6.714,17.605a1.419,1.419,0,0,0,.164.145c.01.01.107.1.1.106s-.029,0-.039,0H5.852l.019-.058.068-.068a1.177,1.177,0,0,0,.116-.155c0-.01.01-.019.019-.039s.01-.029.019-.049.01-.039,0-.058-.01-.019-.01-.029-.029-.058-.049-.107l-.378-.678v-.038l.1-.627.232-3.109.2-.01.368,3.1v.019l.049.192v.01l.31.436a5.272,5.272,0,0,1-.252.688.277.277,0,0,0-.039.192c.01.058.039.077.087.136ZM7.4,15.126a1.122,1.122,0,0,1-.039.271c-.058.192-.164.448-.3.768-.058.136-.087.213-.136.349L6.675,16.1v-.01L6.627,15.9v-.015l-.368-3.041h.164l.358.32c.174.63.562,1.6.62,1.889v.077ZM9.6,17.46a.157.157,0,0,1-.029.058c0,.01-.01.019-.019.029L9.5,17.6l-.049.049c-.077.068-.145.136-.223.2l-2.072.01c-.106-.1-.242-.223-.339-.32a.244.244,0,0,1-.058-.164.6.6,0,0,1,.039-.136c.068-.184.61-1.685.649-1.811L7.983,11.6H8.39l.532,3.826.552,1.549.128.358.019.077a.164.164,0,0,1-.019.049Zm1.094-.843-.368.678c-.019.049-.039.077-.049.107a.042.042,0,0,0-.01.029c-.01.019,0,.049,0,.058a.074.074,0,0,0,.019.049c.01.019.019.029.019.039a1.177,1.177,0,0,0,.116.155l.068.068.019.058H9.446c-.01,0-.029.01-.039,0s.087-.1.1-.106c.087-.077.116-.1.164-.145a.33.33,0,0,0,.087-.128.264.264,0,0,0-.039-.192,4.13,4.13,0,0,1-.242-.688l.3-.436v-.01l.049-.192v-.019l.358-3.1.192.01.232,3.109.1.63c-.01-.01-.01.029-.01.029Zm-.94-.736v.01l-.049.192v.01l-.252.417c-.049-.145-.077-.223-.136-.358a7.477,7.477,0,0,1-.3-.768,1.255,1.255,0,0,1-.039-.281v-.087c.058-.29.455-1.259.63-1.889l.368-.32h.164l-.387,3.071ZM5.98,20.626l.658-.368.571.039.039.33Zm.678-.436-.049-.32.562-.1v.33l-.512.087Zm-.1-.378L6.1,19.242l.768-.1.31.571-.61.1Zm.678-.068.116-.192H9.02l.116.192Zm-2.394-.019.891.668L7.963,30.8Zm1.056,1H7.208l.823,10.062L5.9,20.723Zm0-.184-.1-.33.658-.32.068.32-.63.33ZM8.109,30.786,7.238,19.881H9.146ZM5.746,20.174,4.855,19.5l1.162-.262.465.571Zm3.391.349.039-.33.571-.039.658.368Zm.581-.436L9.206,20v-.33l.562.1-.049.32Zm0,0L9.206,20v-.33l.562.1-.049.32Zm.1-.378-.6-.1.31-.571.768.1-.475.571ZM8.235,30.786l2.4-10.508.891-.668Zm-.058,0,.978-10.169h1.307L8.177,30.786Zm2.3-10.356-.64-.33.068-.32.658.32-.087.33Zm.164-.368L9.9,19.7l.465-.571,1.162.262Z" transform="translate(-4.7 -11.6)" fill="#c67572"/>
    </clipPath>
    <clipPath id="clip-path-2">
      <path id="Path_17977" data-name="Path 17977" d="M152.438,34.932h-4.409v2.344h4.058c1.017,0,1.52.417,1.52,1.239a1.1,1.1,0,0,1-.387.911,1.755,1.755,0,0,1-1.133.32h-4.058V42.3h4.407c1.017,0,1.52.417,1.52,1.259a1.1,1.1,0,0,1-.387.911,1.755,1.755,0,0,1-1.133.32h-6.053a1.491,1.491,0,0,1-1.1-.387,1.475,1.475,0,0,1-.387-1.1V33.925a1.351,1.351,0,0,1,1.491-1.492h6.053a1.719,1.719,0,0,1,1.133.32,1.128,1.128,0,0,1,.387.911c0,.843-.5,1.269-1.52,1.269Zm15.5,9.569a1.516,1.516,0,0,1-2.024,0,1.4,1.4,0,0,1-.4-1.046V38.3l-2,3.68a2.127,2.127,0,0,1-.63.794,1.44,1.44,0,0,1-1.569,0,2.21,2.21,0,0,1-.63-.794l-1.975-3.574v5.036a1.432,1.432,0,0,1-.4,1.046,1.387,1.387,0,0,1-1.024.4,1.365,1.365,0,0,1-1.007-.387,1.4,1.4,0,0,1-.4-1.046V33.925a1.565,1.565,0,0,1,.426-1.133,1.459,1.459,0,0,1,1.094-.436,1.4,1.4,0,0,1,.852.271,2.166,2.166,0,0,1,.649.775l3.215,6.053,3.206-6.053a1.637,1.637,0,0,1,1.472-1.046,1.437,1.437,0,0,1,1.088.436,1.559,1.559,0,0,1,.417,1.133v9.52a1.324,1.324,0,0,1-.368,1.056Zm12.329-5.229a4.536,4.536,0,0,1-3.177,1.046h-2.751V43.29a1.541,1.541,0,0,1-.436,1.162,1.6,1.6,0,0,1-1.191.426,1.472,1.472,0,0,1-1.588-1.588V33.925a1.351,1.351,0,0,1,1.492-1.492h4.474a4.543,4.543,0,0,1,3.186,1.046,3.736,3.736,0,0,1,1.133,2.9,3.737,3.737,0,0,1-1.143,2.9Zm-3.613-4.4h-2.3v3.032h2.3a2,2,0,0,0,1.317-.368,1.419,1.419,0,0,0,.426-1.133C178.395,35.382,177.814,34.875,176.651,34.875Zm9.617,9.588a1.6,1.6,0,0,1-1.191.426,1.472,1.472,0,0,1-1.588-1.588V33.925a1.472,1.472,0,0,1,1.588-1.569,1.644,1.644,0,0,1,1.191.426,1.54,1.54,0,0,1,.436,1.143V43.29a1.579,1.579,0,0,1-.436,1.172Zm12.494-3.283,1.088,1.559a1.617,1.617,0,0,1,.32.891,1.16,1.16,0,0,1-.465.939,1.655,1.655,0,0,1-1.075.378,1.68,1.68,0,0,1-.784-.192,1.705,1.705,0,0,1-.63-.581l-2.276-3.322a1.837,1.837,0,0,0-.512-.512,1.255,1.255,0,0,0-.64-.164h-1.133v3.135a1.568,1.568,0,0,1-.417,1.162,1.527,1.527,0,0,1-1.152.426,1.472,1.472,0,0,1-1.595-1.59V33.925a1.351,1.351,0,0,1,1.492-1.492h4.387a5.055,5.055,0,0,1,3.37.969,3.5,3.5,0,0,1,1.133,2.809,3.583,3.583,0,0,1-2.934,3.68,2.309,2.309,0,0,1,1.007.387,4.51,4.51,0,0,1,.813.9Zm-2.392-5.966a2.687,2.687,0,0,0-1.531-.339H192.6v2.867h2.239a2.7,2.7,0,0,0,1.531-.33,1.24,1.24,0,0,0,.465-1.088,1.3,1.3,0,0,0-.465-1.114Zm13.53-.281h-4.407v2.343h4.058c1.017,0,1.52.417,1.52,1.239a1.1,1.1,0,0,1-.387.911,1.755,1.755,0,0,1-1.133.32h-4.058V42.3H209.9c1.017,0,1.52.417,1.52,1.259a1.1,1.1,0,0,1-.387.911,1.737,1.737,0,0,1-1.133.32h-6.053a1.491,1.491,0,0,1-1.1-.387,1.475,1.475,0,0,1-.387-1.1V33.925a1.351,1.351,0,0,1,1.492-1.492H209.9a1.719,1.719,0,0,1,1.133.32,1.129,1.129,0,0,1,.387.911c0,.843-.5,1.269-1.52,1.269Zm13.859,9.733a.657.657,0,0,1-.512.2.679.679,0,0,1-.523-.2.749.749,0,0,1-.192-.533V39.125H215.15v5.009a.749.749,0,0,1-.192.533.678.678,0,0,1-.523.2.64.64,0,0,1-.512-.2.743.743,0,0,1-.184-.533V33.092a.744.744,0,0,1,.184-.532.657.657,0,0,1,.512-.2.678.678,0,0,1,.523.2.749.749,0,0,1,.192.532v4.814h7.38V33.092a.749.749,0,0,1,.192-.532.678.678,0,0,1,.523-.2.64.64,0,0,1,.512.2.743.743,0,0,1,.184.532V44.135a.744.744,0,0,1-.184.533Zm13.85-2.713a5.071,5.071,0,0,1-1.946,2.2,5.631,5.631,0,0,1-2.983.775,5.544,5.544,0,0,1-2.983-.775,5.046,5.046,0,0,1-1.946-2.189,7.651,7.651,0,0,1-.678-3.341,7.723,7.723,0,0,1,.678-3.37,4.915,4.915,0,0,1,1.937-2.189,5.764,5.764,0,0,1,3-.768,5.7,5.7,0,0,1,3,.768,4.915,4.915,0,0,1,1.937,2.189,7.837,7.837,0,0,1,.678,3.351,7.947,7.947,0,0,1-.7,3.351Zm-1.869-7.118a4.2,4.2,0,0,0-6.111,0,5.755,5.755,0,0,0-1.094,3.758,5.823,5.823,0,0,0,1.094,3.767,4.181,4.181,0,0,0,6.1.01,5.784,5.784,0,0,0,1.094-3.767,5.823,5.823,0,0,0-1.088-3.767Zm13.569-1.327a.7.7,0,0,1-.494.155h-3.758V44.135a.749.749,0,0,1-.192.533.678.678,0,0,1-.523.2.7.7,0,0,1-.736-.736V33.663h-3.758a.7.7,0,0,1-.494-.155.681.681,0,0,1,0-.911.7.7,0,0,1,.494-.155h8.978a.7.7,0,0,1,.494.155.591.591,0,0,1,.174.455.617.617,0,0,1-.184.455Zm9.588.128h-5.859v4.29h5.511a.7.7,0,0,1,.494.155.632.632,0,0,1,0,.871.7.7,0,0,1-.494.155h-5.511v4.484H258.9a.751.751,0,0,1,.494.145.556.556,0,0,1,.174.448.562.562,0,0,1-.174.436.7.7,0,0,1-.494.155h-6.537a.749.749,0,0,1-.533-.192.664.664,0,0,1-.2-.5V33.14a.65.65,0,0,1,.2-.5.749.749,0,0,1,.533-.192H258.9a.7.7,0,0,1,.494.155.632.632,0,0,1,0,.871.741.741,0,0,1-.494.164Zm11,10.993a.7.7,0,0,1-.494.155h-6.383a.68.68,0,0,1-.494-.184.622.622,0,0,1-.2-.484V33.092a.749.749,0,0,1,.192-.532.774.774,0,0,1,1.046,0,.749.749,0,0,1,.192.532V43.559H269.4a.7.7,0,0,1,.494.155.681.681,0,0,1,0,.91Zm9.985-9.648a1.071,1.071,0,0,1-.5-.192,5.985,5.985,0,0,0-1.588-.978,5.022,5.022,0,0,0-1.763-.281,3.723,3.723,0,0,0-2.257.6,2.007,2.007,0,0,0-.8,1.685,1.551,1.551,0,0,0,.7,1.395,7.151,7.151,0,0,0,2.179.813c1.065.262,1.9.494,2.5.7a3.7,3.7,0,0,1,1.511.969,2.423,2.423,0,0,1,.6,1.733,3.039,3.039,0,0,1-.571,1.821,3.771,3.771,0,0,1-1.6,1.23,6.015,6.015,0,0,1-2.363.436,8,8,0,0,1-2.508-.4,5.322,5.322,0,0,1-1.92-1.056.806.806,0,0,1-.262-.61.7.7,0,0,1,.136-.426.4.4,0,0,1,.329-.184.866.866,0,0,1,.494.192,5.887,5.887,0,0,0,3.711,1.259,3.875,3.875,0,0,0,2.3-.581,1.911,1.911,0,0,0,.8-1.646,1.306,1.306,0,0,0-.387-.988,2.675,2.675,0,0,0-1.017-.6,14.76,14.76,0,0,0-1.695-.475,16.924,16.924,0,0,1-2.348-.694,3.711,3.711,0,0,1-1.492-1.046,2.7,2.7,0,0,1-.571-1.782,3.179,3.179,0,0,1,.571-1.859,3.707,3.707,0,0,1,1.588-1.259A5.734,5.734,0,0,1,276,32.314a6.777,6.777,0,0,1,2.286.378,4.784,4.784,0,0,1,1.772,1.075.853.853,0,0,1,.281.61.7.7,0,0,1-.136.426.376.376,0,0,1-.32.174Z" transform="translate(-144.883 -32.293)" fill="#c67572"/>
    </clipPath>
  </defs>
  <g id="Group_2109" data-name="Group 2109" transform="translate(0 0)">
    <g id="Group_2108" data-name="Group 2108" clip-path="url(#clip-path)">
      <rect id="Rectangle_3499" data-name="Rectangle 3499" width="149.149" height="19.176" transform="translate(-0.003 0.007)" fill="#c67572"/>
    </g>
  </g>
  <g id="Group_2111" data-name="Group 2111" transform="translate(13.567 2)">
    <g id="Group_2110" data-name="Group 2110" transform="translate(0 0)" clip-path="url(#clip-path-2)">
      <rect id="Rectangle_3500" data-name="Rectangle 3500" width="149.149" height="19.176" transform="translate(-13.57 -1.993)" fill="#c67572"/>
    </g>
  </g>
</svg>
