<svg width="21" height="20" viewBox="0 0 21 20" fill="none" xmlns="http://www.w3.org/2000/svg">
<g clip-path="url(#clip0_12173_829)">
<path d="M15.5 19.2859H5.5C5.5 14.2859 8.35714 7.14307 8.35714 7.14307H12.6429C12.6429 7.14307 15.5 14.2859 15.5 19.2859Z" fill="#ECF3FF"/>
<path d="M10.5 7.85721V0.714355H11.2143C12.7922 0.714355 14.0714 1.99354 14.0714 3.5715V5.00007C14.0714 6.57803 12.7922 7.85721 11.2143 7.85721H10.5Z" fill="white"/>
<path d="M6.92857 12.1431V10.7146C6.92857 9.13661 8.20776 7.85742 9.78572 7.85742H10.5V15.0003H9.78572C8.20776 15.0003 6.92857 13.7211 6.92857 12.1431Z" fill="white"/>
<path d="M17.6429 7.85742H10.5V8.57171C10.5 10.1497 11.7792 11.4289 13.3571 11.4289H14.7857C16.3637 11.4289 17.6429 10.1497 17.6429 8.57171V7.85742Z" fill="white"/>
<path d="M10.5 7.14279V7.85707H3.35715V7.14279C3.35715 5.56483 4.63633 4.28564 6.21429 4.28564H7.64286C9.22082 4.28564 10.5 5.56483 10.5 7.14279Z" fill="white"/>
<path d="M6.9291 11.3374C6.21463 13.7484 5.5 16.785 5.5 19.2856H15.5C15.5 16.8149 14.8024 13.821 14.0965 11.4242" stroke="#1163FB" stroke-width="1.5" stroke-linecap="round" stroke-linejoin="round"/>
<path d="M10.5 7.85721V0.714355H11.2143C12.7922 0.714355 14.0714 1.99354 14.0714 3.5715V5.00007C14.0714 6.57803 12.7922 7.85721 11.2143 7.85721H10.5Z" stroke="#1163FB" stroke-width="1.5" stroke-linecap="round" stroke-linejoin="round"/>
<path d="M6.92857 12.1431V10.7146C6.92857 9.13661 8.20776 7.85742 9.78572 7.85742H10.5V15.0003H9.78572C8.20776 15.0003 6.92857 13.7211 6.92857 12.1431Z" stroke="#1163FB" stroke-width="1.5" stroke-linecap="round" stroke-linejoin="round"/>
<path d="M17.6429 7.85742H10.5V8.57171C10.5 10.1497 11.7792 11.4289 13.3571 11.4289H14.7857C16.3637 11.4289 17.6429 10.1497 17.6429 8.57171V7.85742Z" stroke="#1163FB" stroke-width="1.5" stroke-linecap="round" stroke-linejoin="round"/>
<path d="M10.5 7.14279V7.85707H3.35715V7.14279C3.35715 5.56483 4.63633 4.28564 6.21429 4.28564H7.64286C9.22082 4.28564 10.5 5.56483 10.5 7.14279Z" stroke="#1163FB" stroke-width="1.5" stroke-linecap="round" stroke-linejoin="round"/>
</g>
<defs>
<clipPath id="clip0_12173_829">
<rect width="20" height="20" fill="white" transform="translate(0.5)"/>
</clipPath>
</defs>
</svg>
