<svg xmlns="http://www.w3.org/2000/svg" width="18.693" height="20.462" viewBox="0 0 18.693 20.462">
  <g id="Building_an_MVP" data-name="Building an MVP" transform="translate(-451.43 -1080.179)">
    <path id="Path_2527" data-name="Path 2527" d="M3393.7,51.621a3.6,3.6,0,1,1-.127-7.206h.127a.871.871,0,0,1,0,1.741,1.861,1.861,0,1,0,1.861,1.861h0V36.182a.866.866,0,0,1,.591-.826l10.925-3.645a.87.87,0,0,1,1.147.826V44.374a3.6,3.6,0,1,1-3.606-3.6h.008a.872.872,0,1,1,.062,1.742h-.062a1.861,1.861,0,1,0,1.861,1.861h0V33.75l-9.186,3.059V48.017A3.606,3.606,0,0,1,3393.7,51.621Z" transform="translate(-2938.347 1048.77)" fill="#fff" stroke="#fff" stroke-miterlimit="10" stroke-width="0.5"/>
  </g>
</svg>
