<svg width="21" height="20" viewBox="0 0 21 20" fill="none" xmlns="http://www.w3.org/2000/svg">
<g clip-path="url(#clip0_12173_709)">
<path d="M6.71428 12.1428C7.22577 12.1428 7.71631 11.9396 8.07798 11.5779C8.43966 11.2162 8.64285 10.7257 8.64285 10.2142C8.64285 9.70273 8.43966 9.21219 8.07798 8.85051C7.71631 8.48883 7.22577 8.28564 6.71428 8.28564C6.20279 8.28564 5.71225 8.48883 5.35057 8.85051C4.98889 9.21219 4.78571 9.70273 4.78571 10.2142C4.78571 10.7257 4.98889 11.2162 5.35057 11.5779C5.71225 11.9396 6.20279 12.1428 6.71428 12.1428Z" fill="white"/>
<path fill-rule="evenodd" clip-rule="evenodd" d="M2.64285 0.714355H14.7857C15.1646 0.714355 15.528 0.864865 15.7959 1.13277C16.0638 1.40068 16.2143 1.76405 16.2143 2.14293V14.2858C16.2143 14.6647 16.0638 15.028 15.7959 15.2959C15.528 15.5638 15.1646 15.7144 14.7857 15.7144H2.64285C2.26397 15.7144 1.90061 15.5638 1.6327 15.2959C1.36479 15.028 1.21428 14.6647 1.21428 14.2858V2.14293C1.21428 1.76405 1.36479 1.40068 1.6327 1.13277C1.90061 0.864865 2.26397 0.714355 2.64285 0.714355ZM8.64285 10.2144C8.64285 10.7258 8.43966 11.2164 8.07799 11.5781C7.71631 11.9397 7.22577 12.1429 6.71428 12.1429C6.20279 12.1429 5.71225 11.9397 5.35057 11.5781C4.9889 11.2164 4.78571 10.7258 4.78571 10.2144C4.78571 9.70287 4.9889 9.21233 5.35057 8.85065C5.71225 8.48897 6.20279 8.28578 6.71428 8.28578C7.22577 8.28578 7.71631 8.48897 8.07799 8.85065C8.43966 9.21233 8.64285 9.70287 8.64285 10.2144Z" fill="#ECF3FF"/>
<path d="M6.71428 12.1428C7.22577 12.1428 7.71631 11.9396 8.07798 11.5779C8.43966 11.2162 8.64285 10.7257 8.64285 10.2142C8.64285 9.70273 8.43966 9.21219 8.07798 8.85051C7.71631 8.48883 7.22577 8.28564 6.71428 8.28564C6.20279 8.28564 5.71225 8.48883 5.35057 8.85051C4.98889 9.21219 4.78571 9.70273 4.78571 10.2142C4.78571 10.7257 4.98889 11.2162 5.35057 11.5779C5.71225 11.9396 6.20279 12.1428 6.71428 12.1428Z" stroke="#1163FB" stroke-width="1.5" stroke-linecap="round" stroke-linejoin="round"/>
<path d="M14.7857 0.714355H2.64285C2.26397 0.714355 1.90061 0.864865 1.6327 1.13277C1.36479 1.40068 1.21428 1.76405 1.21428 2.14293V14.2858C1.21428 14.6647 1.36479 15.028 1.6327 15.2959C1.90061 15.5638 2.26397 15.7144 2.64285 15.7144H14.7857C15.1646 15.7144 15.528 15.5638 15.7959 15.2959C16.0638 15.028 16.2143 14.6647 16.2143 14.2858V2.14293C16.2143 1.76405 16.0638 1.40068 15.7959 1.13277C15.528 0.864865 15.1646 0.714355 14.7857 0.714355Z" stroke="#1163FB" stroke-width="1.5" stroke-linecap="round" stroke-linejoin="round"/>
<path d="M12.6286 7.14279C12.3355 6.31371 11.7945 5.59485 11.0789 5.08374C10.3634 4.57262 9.50789 4.29399 8.62857 4.28564V10.2142" stroke="#1163FB" stroke-width="1.5" stroke-linecap="round" stroke-linejoin="round"/>
<path d="M19.7857 5V17.8571C19.7857 18.236 19.6352 18.5994 19.3673 18.8673C19.0994 19.1352 18.736 19.2857 18.3571 19.2857H5.5" stroke="#1163FB" stroke-width="1.5" stroke-linecap="round" stroke-linejoin="round"/>
</g>
<defs>
<clipPath id="clip0_12173_709">
<rect width="20" height="20" fill="white" transform="translate(0.5)"/>
</clipPath>
</defs>
</svg>
