<svg id="Group_104139" data-name="Group 104139" xmlns="http://www.w3.org/2000/svg" xmlns:xlink="http://www.w3.org/1999/xlink" width="90.77" height="17.719" viewBox="0 0 90.77 17.719">
  <defs>
    <clipPath id="clip-path">
      <rect id="Rectangle_1723" data-name="Rectangle 1723" width="90.77" height="17.719" fill="none"/>
    </clipPath>
  </defs>
  <g id="Group_26358" data-name="Group 26358" clip-path="url(#clip-path)">
    <path id="Path_25198" data-name="Path 25198" d="M8.052,0c-.061,1.055-.122,2.11-.186,3.2L6.285,3.143,6.176,1.171H3.716V5.887H4.782l.249-1.039h1.1V8.092H5.051L4.78,7.02H3.721v5.005H6.194L6.433,9.86,8.1,9.915c.043,1.113.086,2.2.129,3.316H.133V12.07l1.136-.2V1.289L0,1.15V0Z" fill="#e50019" fill-rule="evenodd"/>
    <path id="Path_25199" data-name="Path 25199" d="M302.317,45.518l.061-.909.858-.19V33.129l-1.018-.154v-.943l2.693-.374.282,1.009a1.138,1.138,0,0,0,.108-.1,2.738,2.738,0,0,1,2.472-.923,2.485,2.485,0,0,1,2.218,1.977,7,7,0,0,1,.288,1.509,11.667,11.667,0,0,1-.105,3.135,5.613,5.613,0,0,1-.333,1.126,2.8,2.8,0,0,1-2.5,1.771,3.476,3.476,0,0,1-1.747-.254.965.965,0,0,0-.132-.035V44.42l.915.189c-.02.3-.04.595-.061.909Zm3.132-5.9a2.811,2.811,0,0,0,2.114.073.357.357,0,0,0,.255-.267c.085-.351.192-.7.243-1.055a15.044,15.044,0,0,0,.054-3.256,4.926,4.926,0,0,0-.206-1.094,1.237,1.237,0,0,0-1.558-.933c-.04.007-.078.019-.118.026a.925.925,0,0,0-.783.946q0,2.645,0,5.289Z" transform="translate(-265.626 -27.799)" fill="#e50019" fill-rule="evenodd"/>
    <path id="Path_25200" data-name="Path 25200" d="M494.9,39.888l.948.19c-.018.327-.034.635-.052.96h-3.082c0-.069-.009-.137-.009-.2,0-2.048.006-4.1-.005-6.144a2.8,2.8,0,0,0-.15-.823.852.852,0,0,0-.69-.567,1.5,1.5,0,0,0-.92.078.672.672,0,0,0-.461.613c-.006,1.937,0,3.874,0,5.811a.517.517,0,0,0,.022.089l.906.185-.059.963h-3.973v-.958l.886-.19V33.229l-1.013-.116v-.981l2.619-.375.234.853c.2-.15.4-.328.63-.472a3,3,0,0,1,2.751-.3,2.084,2.084,0,0,1,1.36,1.749,4.246,4.246,0,0,1,.054.692q.007,2.633,0,5.266Z" transform="translate(-428.251 -27.806)" fill="#e50019" fill-rule="evenodd"/>
    <path id="Path_25201" data-name="Path 25201" d="M76.461,39.964l.913.186c-.019.325-.038.634-.057.961H73.3c.017-.316.033-.622.051-.957l.851-.185c.063-.216.08-6.327.013-6.668l-1.011-.113v-.98l2.625-.376.238.872c.073-.065.157-.142.243-.214a3.085,3.085,0,0,1,2.858-.664A2.091,2.091,0,0,1,80.8,33.581a3.7,3.7,0,0,1,.065.721c.005,1.765,0,3.53,0,5.3v.364l.944.185c-.008.162-.018.318-.022.474s0,.318,0,.492h-3.1v-.35q0-2.9,0-5.81a4.6,4.6,0,0,0-.055-.692.977.977,0,0,0-.941-.905,1.116,1.116,0,0,0-1.076.325.689.689,0,0,0-.167.466c.007,1.473,0,2.945,0,4.418,0,.363,0,.726,0,1.089,0,.1.009.2.014.31" transform="translate(-64.344 -27.878)" fill="#e50019" fill-rule="evenodd"/>
    <path id="Path_25202" data-name="Path 25202" d="M626.709,33.246l-1.018-.1V32.28l3-.342a3.477,3.477,0,0,1,.252,1.1c-.009,2.249,0,4.5,0,6.749v.364l.931.191-.1.958h-2.58l-.243-.744c-.084.066-.147.109-.2.16a3.051,3.051,0,0,1-3.366.429,2.161,2.161,0,0,1-1.2-1.675,4.451,4.451,0,0,1-.062-.752c-.005-1.695,0-3.39,0-5.084v-.38l-1.021-.111v-.861l2.983-.346a4.157,4.157,0,0,1,.227,1q-.007,2.663,0,5.326a5.6,5.6,0,0,0,.047.722,1.112,1.112,0,0,0,1.157,1.049,2.747,2.747,0,0,0,.685-.1.961.961,0,0,0,.555-.726q0-2.935,0-5.871a.492.492,0,0,0-.029-.093" transform="translate(-545.884 -28.069)" fill="#e50019" fill-rule="evenodd"/>
    <path id="Path_25203" data-name="Path 25203" d="M244.836,36.868a3.4,3.4,0,0,0,.518,2.009,1.759,1.759,0,0,0,1.5.811,4.215,4.215,0,0,0,1.735-.345c.073-.031.148-.058.249-.1l.376.861a5.894,5.894,0,0,1-.492.33,4.525,4.525,0,0,1-3.53.451,3.416,3.416,0,0,1-2.162-1.973,6.385,6.385,0,0,1-.508-3.308,5.885,5.885,0,0,1,.506-2.012,3.307,3.307,0,0,1,2.381-2,3.074,3.074,0,0,1,2.951.719,3.836,3.836,0,0,1,.966,1.752,7.4,7.4,0,0,1,.267,2.061,2.455,2.455,0,0,1-.206.685l-4.556.056m2.751-1.192c-.024-.28-.038-.51-.066-.739a4.09,4.09,0,0,0-.442-1.557,1.028,1.028,0,0,0-1.332-.508.693.693,0,0,0-.468.425,6.985,6.985,0,0,0-.488,2.321.935.935,0,0,0,.033.187l2.762-.129" transform="translate(-213.133 -27.682)" fill="#e50019" fill-rule="evenodd"/>
    <path id="Path_25204" data-name="Path 25204" d="M567.63,36.807l-4.553.055a3.073,3.073,0,0,0,.076.934,2.683,2.683,0,0,0,.566,1.251,1.721,1.721,0,0,0,1.317.635,4,4,0,0,0,1.683-.3c.11-.045.223-.086.359-.139l.376.874c-.05.033-.1.065-.149.1a4.594,4.594,0,0,1-3.213.812,3.4,3.4,0,0,1-2.9-2.3,6.554,6.554,0,0,1,.048-5.068,3.242,3.242,0,0,1,2.393-2.069,3.2,3.2,0,0,1,2.607.416A3.281,3.281,0,0,1,567.4,33.59a6.452,6.452,0,0,1,.417,2.519,3.007,3.007,0,0,1-.189.7m-1.817-1.135a6.847,6.847,0,0,0-.278-1.788,2.525,2.525,0,0,0-.423-.791c-.358-.463-1.468-.369-1.639.265a12.258,12.258,0,0,0-.383,1.546,2.827,2.827,0,0,0-.036.9l2.758-.128" transform="translate(-492.814 -27.677)" fill="#e50019" fill-rule="evenodd"/>
    <path id="Path_25205" data-name="Path 25205" d="M434.013,36.765l-4.558.056A3.286,3.286,0,0,0,430.111,39a1.692,1.692,0,0,0,1.287.633,4.038,4.038,0,0,0,1.713-.3c.111-.045.222-.089.355-.142l.37.857c-.106.078-.2.16-.311.228a4.572,4.572,0,0,1-3.391.647A3.362,3.362,0,0,1,427.719,39a6.186,6.186,0,0,1-.583-3.263,6.121,6.121,0,0,1,.52-2.192,3.314,3.314,0,0,1,1.783-1.806,3.389,3.389,0,0,1,2.977.094,3.038,3.038,0,0,1,1.319,1.565,6.672,6.672,0,0,1,.484,2.659,2.612,2.612,0,0,1-.205.708m-1.8-1.137c-.027-.3-.042-.572-.078-.838a3.877,3.877,0,0,0-.419-1.439,1.042,1.042,0,0,0-1.436-.494.589.589,0,0,0-.337.319,6.241,6.241,0,0,0-.479,1.861c-.027.225-.04.452-.064.722l2.812-.131" transform="translate(-375.401 -27.635)" fill="#e50019" fill-rule="evenodd"/>
    <path id="Path_25206" data-name="Path 25206" d="M192.737,32.546l.205.82c.107-.065.214-.132.324-.2a5.12,5.12,0,0,1,2.065-.631.788.788,0,0,1,.808.372l-.276,2.469-1.484-.061L194.215,34a1.915,1.915,0,0,0-.946.33v6.357l.919.209c-.017.31-.034.607-.052.927h-3.965V40.9l.829-.212V34.014l-.954-.111v-.984l2.69-.373" transform="translate(-167.036 -28.593)" fill="#e50019" fill-rule="evenodd"/>
    <path id="Path_25207" data-name="Path 25207" d="M697.452,41.79c.015-.325.028-.625.043-.937l.822-.2V33.978l-.971-.118v-.98l2.7-.372.2.779a11.444,11.444,0,0,1,1.146-.516,10.012,10.012,0,0,1,1.206-.263.749.749,0,0,1,.848.369l-.275,2.461-1.48-.055c-.057-.453-.112-.888-.173-1.371l-.933.325v6.411l.917.208-.059.935Z" transform="translate(-612.912 -28.554)" fill="#e50019" fill-rule="evenodd"/>
    <path id="Path_25208" data-name="Path 25208" d="M378.823,33.942l-.945.347v6.4l.937.209-.078.929h-3.955V40.9l.84-.213V34.014l-.966-.111v-.981l2.682-.376.228.8c.26-.136.514-.279.777-.4a5.189,5.189,0,0,1,1.545-.394.82.82,0,0,1,.862.36l-.271,2.472-1.486-.054-.17-1.38" transform="translate(-329.294 -28.593)" fill="#e50019" fill-rule="evenodd"/>
    <path id="Path_25209" data-name="Path 25209" d="M146.826,18.059v1.876h1.65l-.1,1.178-1.483.17a1.961,1.961,0,0,0-.029.24q0,2.707.007,5.413a2.692,2.692,0,0,0,.017.362.683.683,0,0,0,.695.626c.3.009.6,0,.939,0l.1.972a1.894,1.894,0,0,1-.748.251,4.664,4.664,0,0,1-1.682.049,1.75,1.75,0,0,1-1.524-1.6,4.755,4.755,0,0,1-.022-.543q0-2.722,0-5.444c0-.108-.014-.215-.022-.328l-1.041-.174c.017-.376.034-.744.052-1.148L144.8,19.9l.523-1.768,1.5-.078" transform="translate(-126.19 -15.872)" fill="#e50019" fill-rule="evenodd"/>
    <path id="Path_25210" data-name="Path 25210" d="M738.441,99.832a.784.784,0,1,1-.772-.656.718.718,0,0,1,.772.656m-1.317,0a.548.548,0,1,0,.541-.5.511.511,0,0,0-.541.5m.449.309h-.214v-.607a2.166,2.166,0,0,1,.305-.019.58.58,0,0,1,.279.046.152.152,0,0,1,.074.134c0,.061-.065.114-.161.137v.008A.191.191,0,0,1,738,100a.584.584,0,0,0,.048.145h-.24a.337.337,0,0,1-.048-.13.1.1,0,0,0-.118-.092h-.07Zm.009-.347h.061c.078,0,.131-.027.131-.072s-.048-.076-.122-.076c-.026,0-.052,0-.07,0Z" transform="translate(-647.67 -87.168)" fill="#e50019"/>
  </g>
</svg>
