<svg id="Group_105252" data-name="Group 105252" xmlns="http://www.w3.org/2000/svg" xmlns:xlink="http://www.w3.org/1999/xlink" width="181" height="35.333" viewBox="0 0 181 35.333">
  <defs>
    <clipPath id="clip-path">
      <rect id="Rectangle_1723" data-name="Rectangle 1723" width="181" height="35.333" fill="none"/>
    </clipPath>
  </defs>
  <g id="Group_26358" data-name="Group 26358" clip-path="url(#clip-path)">
    <path id="Path_25198" data-name="Path 25198" d="M16.056,0c-.122,2.1-.244,4.207-.37,6.379l-3.152-.112-.218-3.933H7.41v9.4H9.535l.5-2.071h2.19v6.468H10.072L9.532,14H7.42v9.981h4.932c.157-1.418.313-2.83.477-4.316l3.319.11c.087,2.219.171,4.4.258,6.613H.266V24.068l2.266-.39V2.571L0,2.294V0Z" fill="#e50019" fill-rule="evenodd"/>
    <path id="Path_25199" data-name="Path 25199" d="M302.415,59.325l.121-1.813,1.712-.378V34.621l-2.03-.307v-1.88l5.371-.746.562,2.011a2.265,2.265,0,0,0,.216-.194,5.459,5.459,0,0,1,4.929-1.84c2.421.233,3.754,1.761,4.422,3.942a13.966,13.966,0,0,1,.575,3.01,23.266,23.266,0,0,1-.21,6.251,11.2,11.2,0,0,1-.664,2.245,5.577,5.577,0,0,1-4.981,3.531,6.932,6.932,0,0,1-3.483-.506,1.924,1.924,0,0,0-.262-.07v7.068l1.825.377c-.04.6-.079,1.186-.122,1.813Zm6.246-11.768a5.6,5.6,0,0,0,4.216.146.712.712,0,0,0,.508-.533c.17-.7.382-1.394.484-2.1a30,30,0,0,0,.109-6.493,9.822,9.822,0,0,0-.411-2.181,2.467,2.467,0,0,0-3.107-1.861c-.079.013-.156.037-.235.052a1.844,1.844,0,0,0-1.562,1.886q0,5.273,0,10.546Z" transform="translate(-229.251 -23.993)" fill="#e50019" fill-rule="evenodd"/>
    <path id="Path_25200" data-name="Path 25200" d="M502.505,48.091l1.89.378c-.035.653-.068,1.265-.1,1.914h-6.146c-.007-.138-.019-.272-.019-.406,0-4.084.012-8.168-.011-12.252a5.591,5.591,0,0,0-.3-1.642,1.7,1.7,0,0,0-1.375-1.13,3,3,0,0,0-1.835.156,1.339,1.339,0,0,0-.92,1.223c-.011,3.863,0,7.725,0,11.588a1.03,1.03,0,0,0,.045.177l1.807.369c-.039.632-.077,1.261-.117,1.921H487.5V48.475l1.767-.38V34.812l-2.02-.231V32.623l5.223-.747.467,1.7c.4-.3.8-.653,1.256-.94a5.99,5.99,0,0,1,5.485-.6,4.156,4.156,0,0,1,2.712,3.487,8.475,8.475,0,0,1,.108,1.381q.013,5.251.006,10.5Z" transform="translate(-369.607 -23.998)" fill="#e50019" fill-rule="evenodd"/>
    <path id="Path_25201" data-name="Path 25201" d="M79.7,48.159l1.821.37c-.039.649-.076,1.265-.114,1.916h-8c.034-.63.066-1.24.1-1.909l1.7-.37c.126-.431.159-12.617.025-13.3l-2.015-.226V32.692l5.235-.75.475,1.74c.147-.13.312-.282.484-.428a6.152,6.152,0,0,1,5.7-1.325,4.169,4.169,0,0,1,3.24,3.5,7.383,7.383,0,0,1,.129,1.437c.01,3.519.005,7.039.005,10.559v.726l1.883.37c-.015.322-.036.633-.044.945s0,.634,0,.981H84.129v-.7q0-5.792-.006-11.585a9.175,9.175,0,0,0-.11-1.38,1.949,1.949,0,0,0-1.876-1.805,2.226,2.226,0,0,0-2.145.649,1.373,1.373,0,0,0-.333.929c.014,2.936.007,5.873.007,8.809,0,.724,0,1.448,0,2.172,0,.2.017.394.028.619" transform="translate(-55.533 -24.061)" fill="#e50019" fill-rule="evenodd"/>
    <path id="Path_25202" data-name="Path 25202" d="M632.3,34.548l-2.03-.2V32.622l5.976-.681a6.936,6.936,0,0,1,.5,2.192c-.018,4.485-.009,8.971-.009,13.457v.726l1.857.381c-.066.648-.129,1.26-.2,1.91h-5.144l-.484-1.484c-.168.132-.294.217-.4.318a6.084,6.084,0,0,1-6.712.855,4.309,4.309,0,0,1-2.4-3.34,8.862,8.862,0,0,1-.124-1.5c-.01-3.379-.005-6.759-.005-10.138v-.758l-2.037-.22V32.626l5.948-.69a8.3,8.3,0,0,1,.453,1.989q-.014,5.311,0,10.621a11.17,11.17,0,0,0,.095,1.441,2.217,2.217,0,0,0,2.308,2.092,5.477,5.477,0,0,0,1.365-.191,1.917,1.917,0,0,0,1.106-1.447q0-5.853,0-11.707a.982.982,0,0,0-.057-.186" transform="translate(-471.131 -24.225)" fill="#e50019" fill-rule="evenodd"/>
    <path id="Path_25203" data-name="Path 25203" d="M247.164,42.209a6.789,6.789,0,0,0,1.033,4.007,3.508,3.508,0,0,0,3,1.617,8.4,8.4,0,0,0,3.459-.687c.146-.062.295-.116.5-.2l.751,1.718a11.755,11.755,0,0,1-.981.659,9.024,9.024,0,0,1-7.038.9,6.812,6.812,0,0,1-4.311-3.934,12.732,12.732,0,0,1-1.013-6.6,11.736,11.736,0,0,1,1.008-4.012,6.594,6.594,0,0,1,4.748-3.989,6.13,6.13,0,0,1,5.885,1.434,7.648,7.648,0,0,1,1.927,3.494,14.76,14.76,0,0,1,.533,4.109,4.9,4.9,0,0,1-.411,1.366l-9.084.112m5.486-2.376c-.049-.559-.076-1.018-.132-1.474a8.156,8.156,0,0,0-.881-3.1,2.049,2.049,0,0,0-2.656-1.013,1.382,1.382,0,0,0-.933.846,13.929,13.929,0,0,0-.973,4.629,1.863,1.863,0,0,0,.067.373l5.508-.257" transform="translate(-183.947 -23.891)" fill="#e50019" fill-rule="evenodd"/>
    <path id="Path_25204" data-name="Path 25204" d="M574.515,42.093l-9.079.11a6.129,6.129,0,0,0,.151,1.863,5.35,5.35,0,0,0,1.129,2.495,3.433,3.433,0,0,0,2.627,1.265,7.984,7.984,0,0,0,3.355-.6c.22-.091.444-.172.715-.276l.75,1.743c-.1.065-.2.129-.3.2a9.161,9.161,0,0,1-6.407,1.619,6.774,6.774,0,0,1-5.785-4.584,13.068,13.068,0,0,1,.1-10.106,6.464,6.464,0,0,1,4.772-4.125,6.387,6.387,0,0,1,5.2.83,6.544,6.544,0,0,1,2.321,3.154,12.868,12.868,0,0,1,.832,5.023,6,6,0,0,1-.378,1.393m-3.624-2.263a13.652,13.652,0,0,0-.555-3.565,5.033,5.033,0,0,0-.843-1.578c-.714-.923-2.928-.737-3.268.529a24.417,24.417,0,0,0-.763,3.082,5.639,5.639,0,0,0-.071,1.786l5.5-.255" transform="translate(-425.328 -23.887)" fill="#e50019" fill-rule="evenodd"/>
    <path id="Path_25205" data-name="Path 25205" d="M440.869,42.057l-9.088.112a6.553,6.553,0,0,0,1.307,4.354,3.375,3.375,0,0,0,2.566,1.263,8.052,8.052,0,0,0,3.416-.6c.22-.09.442-.177.708-.283l.738,1.709c-.211.155-.406.32-.621.454a9.117,9.117,0,0,1-6.761,1.29,6.7,6.7,0,0,1-4.817-3.847,12.336,12.336,0,0,1-1.163-6.506,12.208,12.208,0,0,1,1.037-4.371,6.609,6.609,0,0,1,3.555-3.6,6.759,6.759,0,0,1,5.936.187,6.059,6.059,0,0,1,2.63,3.121,13.305,13.305,0,0,1,.965,5.3,5.21,5.21,0,0,1-.409,1.411m-3.6-2.266c-.055-.606-.085-1.141-.155-1.671a7.73,7.73,0,0,0-.836-2.869,2.078,2.078,0,0,0-2.864-.984,1.174,1.174,0,0,0-.672.635,12.444,12.444,0,0,0-.954,3.711c-.054.449-.08.9-.127,1.441l5.608-.262" transform="translate(-323.994 -23.851)" fill="#e50019" fill-rule="evenodd"/>
    <path id="Path_25206" data-name="Path 25206" d="M195.412,32.56l.409,1.636c.213-.129.427-.263.646-.391a10.209,10.209,0,0,1,4.117-1.258,1.571,1.571,0,0,1,1.61.741c-.18,1.6-.362,3.236-.551,4.923l-2.959-.122-.325-2.636a3.818,3.818,0,0,0-1.886.658V48.788l1.833.416c-.035.618-.068,1.211-.1,1.849H190.3V49.216l1.652-.422V35.486l-1.9-.221V33.3l5.365-.744" transform="translate(-144.162 -24.678)" fill="#e50019" fill-rule="evenodd"/>
    <path id="Path_25207" data-name="Path 25207" d="M697.557,51.038c.029-.649.056-1.246.085-1.869l1.639-.4V35.46l-1.936-.235V33.272l5.388-.743.4,1.554a22.83,22.83,0,0,1,2.285-1.03,19.968,19.968,0,0,1,2.405-.524,1.494,1.494,0,0,1,1.691.735l-.548,4.907-2.952-.11c-.114-.9-.223-1.77-.345-2.734l-1.861.649V48.759l1.829.415c-.039.621-.078,1.232-.119,1.865Z" transform="translate(-528.98 -24.643)" fill="#e50019" fill-rule="evenodd"/>
    <path id="Path_25208" data-name="Path 25208" d="M382.965,35.344l-1.884.692V48.793l1.868.417c-.053.633-.1,1.226-.155,1.853h-7.887V49.219l1.676-.424V35.487l-1.926-.222V33.309l5.348-.75.454,1.59c.519-.271,1.025-.556,1.549-.8a10.345,10.345,0,0,1,3.08-.786,1.635,1.635,0,0,1,1.719.718c-.172,1.572-.351,3.2-.54,4.929L383.3,38.1c-.112-.9-.216-1.754-.339-2.752" transform="translate(-284.2 -24.678)" fill="#e50019" fill-rule="evenodd"/>
    <path id="Path_25209" data-name="Path 25209" d="M150.059,18.059V21.8h3.289l-.206,2.348-2.956.338a3.909,3.909,0,0,0-.058.478q0,5.4.013,10.794a5.366,5.366,0,0,0,.034.721,1.362,1.362,0,0,0,1.385,1.248c.6.018,1.2,0,1.872,0l.2,1.937a3.777,3.777,0,0,1-1.492.5,9.3,9.3,0,0,1-3.354.1,3.489,3.489,0,0,1-3.038-3.184A9.485,9.485,0,0,1,145.7,36q-.005-5.427,0-10.855c0-.215-.029-.43-.045-.654l-2.077-.346c.034-.749.067-1.483.1-2.29l2.341-.114,1.043-3.526,3-.155" transform="translate(-108.91 -13.699)" fill="#e50019" fill-rule="evenodd"/>
    <path id="Path_25210" data-name="Path 25210" d="M739.979,100.485a1.564,1.564,0,1,1-1.539-1.309,1.431,1.431,0,0,1,1.539,1.309m-2.625.007a1.092,1.092,0,1,0,1.078-.989,1.019,1.019,0,0,0-1.078.989m.9.617h-.426V99.9a4.321,4.321,0,0,1,.609-.038,1.158,1.158,0,0,1,.556.091.3.3,0,0,1,.148.267c0,.122-.13.228-.322.274v.015a.382.382,0,0,1,.287.312,1.167,1.167,0,0,0,.1.289h-.478a.673.673,0,0,1-.1-.259.209.209,0,0,0-.235-.183h-.139Zm.017-.693h.122c.156,0,.261-.053.261-.144s-.1-.152-.244-.152c-.052,0-.1.008-.139.008Z" transform="translate(-558.979 -75.231)" fill="#e50019"/>
  </g>
</svg>
