<svg width="180" height="97" viewBox="0 0 180 97" fill="none" xmlns="http://www.w3.org/2000/svg">
<g clip-path="url(#clip0_17130_92)">
<path d="M112.869 4.83594H67.1348V29.3853H112.869V4.83594Z" fill="#DE1E35"/>
<path d="M89.1321 6.55744V14.7842C88.9539 14.7737 88.6281 14.8555 88.5631 14.647C88.2781 12.5449 87.9103 9.3521 85.9675 8.102C84.3905 7.08662 80.7209 6.90219 78.8714 7.05728C78.1725 7.11596 77.6884 7.16416 77.592 7.93748C77.4033 9.4485 77.4358 11.1398 77.4128 12.6613C77.395 13.8391 77.4337 15.02 77.4159 16.1967H79.6185C79.9863 16.1967 80.8728 15.9694 81.2375 15.8216C83.4265 14.9341 83.2295 12.5313 83.3992 10.5456C83.5166 10.5309 83.9808 10.5247 83.9808 10.6703V22.7197C83.9808 22.8528 83.5218 22.8968 83.394 22.8077C83.2347 22.6966 83.3426 21.5168 83.3196 21.2202C83.1645 19.157 82.3618 16.7783 79.8679 16.7783H77.417C77.4369 18.2045 77.3908 19.6348 77.4138 21.0609C77.4379 22.5751 77.3918 24.6603 77.5909 26.119C77.6726 26.7121 78.1054 26.7383 78.6304 26.8242C79.936 27.039 82.3545 26.995 83.68 26.8221C87.2103 26.3621 88.3472 24.6174 89.1761 21.3491C89.2756 20.9561 89.5449 18.9474 89.6361 18.8604C89.6791 18.8185 90.093 18.8793 90.2135 18.8562V27.6646H69.1891C69.2132 27.4613 69.0948 27.0044 69.3254 26.9279C69.6387 26.8252 70.5629 26.9499 70.9789 26.9195C71.6118 26.8734 73.1406 26.799 73.2559 26.0393C73.3984 25.1036 73.3083 24.0756 73.3397 23.1315C73.4728 19.1811 73.4518 15.2044 73.3397 11.255C73.3104 10.2218 73.4571 8.84493 73.2423 7.86204C73.1438 7.40831 72.5035 7.31819 72.1137 7.24589C71.1748 7.0709 70.1406 7.06566 69.1881 7.05518V6.5564H89.1321V6.55744Z" fill="white"/>
<path d="M110.822 6.55737V12.2902C110.57 12.3311 110.689 12.2284 110.654 12.088C110.335 10.8044 110.487 9.65905 109.574 8.51164C108.931 7.70478 107.565 7.13894 106.542 7.13894H103.592L103.522 26.3631C103.622 26.6523 104.846 26.9279 105.153 26.9761C105.584 27.0452 107.676 27.0787 107.794 27.2433C107.853 27.325 107.829 27.4088 107.831 27.4979H94.9506L95.09 27.1615C95.9356 27.0442 96.8054 27.1448 97.6499 27.0808C98.0785 27.0484 98.812 26.954 99.1054 26.625C99.6325 26.0351 99.4114 23.7444 99.4334 22.882C99.5497 18.3521 99.5717 13.7908 99.4334 9.26086C99.4114 8.55565 99.4565 7.8431 99.4365 7.13894H97.1512C96.7551 7.13894 95.7868 7.38728 95.3907 7.53922C93.0813 8.43095 92.7711 10.8557 92.5385 13.0395H92.2891V6.55737H110.819H110.822Z" fill="white"/>
<path d="M52.1596 44.8672V47.1317H43.2129V34.7197H46.5241V44.8672H52.1596Z" fill="white"/>
<path d="M56.0838 42.9634V44.3277C56.0838 44.8946 56.2169 45.4154 57.4334 45.4154C58.5358 45.4154 58.7831 45.1377 58.7831 44.6211V43.9756H62.0419V44.5802C62.0419 46.4329 61.0559 47.3822 57.4324 47.3822C53.4924 47.3822 52.7715 46.0294 52.7715 44.0668V41.0259C52.7715 39.0632 53.4924 37.7104 57.4324 37.7104C61.0559 37.7104 62.0419 38.7153 62.0419 40.5617V42.9644H56.0827L56.0838 42.9634ZM56.0838 40.7639V41.6316H58.7841V40.5198C58.7841 40.0021 58.5368 39.6762 57.4345 39.6762C56.2179 39.6762 56.0848 40.1981 56.0848 40.765L56.0838 40.7639Z" fill="white"/>
<path d="M72.475 41.0248V47.1317H69.584L69.4425 46.4056C68.9647 46.9662 67.8561 47.3811 66.301 47.3811C63.8407 47.3811 63.1543 46.394 63.1543 45.036V44.0814C63.1543 42.7234 63.8417 41.8023 66.301 41.8023C67.6329 41.8023 68.6084 42.0496 69.1648 42.453V40.7649C69.1648 40.198 69.0569 39.6772 67.8634 39.6772C66.8218 39.6772 66.5997 39.9549 66.5997 40.4725V41.2815H63.3744V40.4463C63.3744 38.5937 64.3258 37.7114 67.8623 37.7114C71.7541 37.7114 72.475 39.0642 72.475 41.0269V41.0248ZM69.1638 44.9867V44.1296C69.1638 43.7586 68.84 43.481 67.6999 43.481C66.6741 43.481 66.4645 43.7586 66.4645 44.1296V44.9867C66.4645 45.3577 66.6741 45.6354 67.6999 45.6354C68.84 45.6354 69.1638 45.3577 69.1638 44.9867Z" fill="white"/>
<path d="M79.7293 38.7111V34.7188H83.0406V47.1307H80.1495L79.9913 46.0724C79.5753 46.7503 78.6364 47.3811 77.0321 47.3811C74.382 47.3811 73.7188 46.1069 73.7188 44.2878V40.8037C73.7188 38.9836 74.382 37.7104 77.0321 37.7104C78.4226 37.7104 79.2483 38.1819 79.7293 38.7122V38.7111ZM78.3796 45.2812C79.5574 45.2812 79.7293 44.7845 79.7293 44.2176V40.8718C79.7293 40.3049 79.5574 39.8082 78.3796 39.8082C77.2018 39.8082 77.03 40.3049 77.03 40.8718V44.2176C77.03 44.7845 77.2018 45.2812 78.3796 45.2812Z" fill="white"/>
<path d="M87.5955 42.9634V44.3277C87.5955 44.8946 87.7286 45.4154 88.9451 45.4154C90.0475 45.4154 90.2948 45.1377 90.2948 44.6211V43.9756H93.5537V44.5802C93.5537 46.4329 92.5676 47.3822 88.9441 47.3822C85.0041 47.3822 84.2832 46.0294 84.2832 44.0668V41.0259C84.2832 39.0632 85.0041 37.7104 88.9441 37.7104C92.5676 37.7104 93.5537 38.7153 93.5537 40.5617V42.9644H87.5945L87.5955 42.9634ZM87.5955 40.7639V41.6316H90.2958V40.5198C90.2958 40.0021 90.0486 39.6762 88.9462 39.6762C87.7296 39.6762 87.5965 40.1981 87.5965 40.765L87.5955 40.7639Z" fill="white"/>
<path d="M101.001 37.7095V41.6684H99.5004C98.4976 41.6684 98.112 42.0624 98.112 42.9279V47.1309H94.8008V37.9589H97.6918L97.8878 40.1532C98.4149 38.6547 99.4575 37.7085 101 37.7085L101.001 37.7095Z" fill="white"/>
<path d="M107.531 41.2545V40.4214C107.531 40.0012 107.284 39.6753 106.219 39.6753C105.154 39.6753 104.907 39.953 104.907 40.3722V40.8406C104.907 42.3076 110.828 41.2367 110.828 44.1361V44.8099C110.828 46.565 109.791 47.3813 106.219 47.3813C102.647 47.3813 101.609 46.3838 101.609 44.6286V43.8364H104.868V44.6684C104.868 45.0886 105.116 45.4145 106.218 45.4145C107.32 45.4145 107.568 45.1368 107.568 44.7177V44.2493C107.568 42.7823 101.698 43.8532 101.698 40.9537V40.28C101.698 38.5311 102.684 37.7085 106.218 37.7085C109.751 37.7085 110.737 38.7134 110.737 40.4612V41.2534H107.53L107.531 41.2545Z" fill="white"/>
<path d="M121.401 40.7963V47.1317H118.09V40.9954C118.09 40.2137 117.705 39.8092 116.778 39.8092C115.85 39.8092 115.389 40.2524 115.389 41.0195V47.1317H112.078V34.7197H115.389V38.7823C115.896 38.1609 116.76 37.7103 118.124 37.7103C120.467 37.7103 121.4 38.9038 121.4 40.7973L121.401 40.7963Z" fill="white"/>
<path d="M122.807 34.8489H126.118V36.8178H122.807V34.8489ZM122.807 37.96H126.118V47.1319H122.807V37.96Z" fill="white"/>
<path d="M127.467 37.9599H130.358L130.516 39.0183C130.932 38.3413 131.871 37.7095 133.475 37.7095C136.125 37.7095 136.789 38.9837 136.789 40.8028V44.2869C136.789 46.1071 136.125 47.3802 133.475 47.3802C132.085 47.3802 131.259 46.9076 130.778 46.3785V50.3132H127.467V37.9599ZM133.477 44.2188V40.873C133.477 40.3061 133.306 39.8094 132.128 39.8094C130.95 39.8094 130.778 40.3061 130.778 40.873V44.2188C130.778 44.7857 130.95 45.2824 132.128 45.2824C133.306 45.2824 133.477 44.7857 133.477 44.2188Z" fill="white"/>
<path d="M43.6367 51.2461H53.1681V53.5556H47.014V56.3869H52.8118V58.425H47.014V61.5969H53.3179V63.9064H43.6367V51.2471V51.2461Z" fill="white"/>
<path d="M61.1924 59.2275L63.5983 63.9051H59.98L58.5706 60.9208L57.1424 63.9051H53.543L55.9478 59.2275L53.543 54.5498H57.1623L58.5717 57.4241L59.9999 54.5498H63.5993L61.1934 59.2275H61.1924Z" fill="white"/>
<path d="M64.0762 60.7793V57.6776C64.0762 55.6762 64.8118 54.2961 68.8303 54.2961C72.4738 54.2961 73.5321 55.321 73.5321 57.204V58.2414H70.2072V57.1621C70.2072 56.6339 69.9547 56.3018 68.8303 56.3018C67.5897 56.3018 67.4534 56.833 67.4534 57.4114V61.0454C67.4534 61.6228 67.5897 62.1551 68.8303 62.1551C69.9547 62.1551 70.2072 61.8219 70.2072 61.2948V60.2155H73.5321V61.2529C73.5321 63.1433 72.4738 64.1607 68.8303 64.1607C64.8118 64.1607 64.0762 62.7807 64.0762 60.7793Z" fill="white"/>
<path d="M78.0413 59.6539V61.0455C78.0413 61.6229 78.1776 62.1552 79.4182 62.1552C80.5426 62.1552 80.7951 61.8723 80.7951 61.3441V60.6861H84.12V61.3022C84.12 63.1926 83.114 64.1598 79.4182 64.1598C75.3997 64.1598 74.6641 62.7797 74.6641 60.7783V57.6766C74.6641 55.6752 75.3997 54.2952 79.4182 54.2952C83.114 54.2952 84.12 55.32 84.12 57.203V59.6539H78.0424H78.0413ZM78.0413 57.4115V58.297H80.7951V57.1621C80.7951 56.634 80.5426 56.3018 79.4182 56.3018C78.1776 56.3018 78.0413 56.8331 78.0413 57.4115Z" fill="white"/>
<path d="M88.7698 51.2461V63.9064H85.3926V51.2461H88.7698Z" fill="white"/>
<path d="M93.553 51.2461V63.9064H90.1758V51.2461H93.553Z" fill="white"/>
<path d="M98.1937 59.6539V61.0455C98.1937 61.6229 98.3299 62.1552 99.5706 62.1552C100.695 62.1552 100.947 61.8723 100.947 61.3441V60.6861H104.272V61.3022C104.272 63.1926 103.266 64.1598 99.5706 64.1598C95.552 64.1598 94.8164 62.7797 94.8164 60.7783V57.6766C94.8164 55.6752 95.552 54.2952 99.5706 54.2952C103.266 54.2952 104.272 55.32 104.272 57.203V59.6539H98.1947H98.1937ZM98.1937 57.4115V58.297H100.947V57.1621C100.947 56.634 100.695 56.3018 99.5706 56.3018C98.3299 56.3018 98.1937 56.8331 98.1937 57.4115Z" fill="white"/>
<path d="M105.543 54.5508H108.493L108.658 55.693C109.27 54.8401 110.164 54.2952 111.701 54.2952C114.105 54.2952 115.052 55.5128 115.052 57.4429V63.9041H111.675V57.6452C111.675 56.8478 111.282 56.436 110.337 56.436C109.392 56.436 108.921 56.8886 108.921 57.6703V63.9051H105.544V54.5498L105.543 54.5508Z" fill="white"/>
<path d="M116.318 60.7793V57.6776C116.318 55.6762 117.054 54.2961 121.073 54.2961C124.716 54.2961 125.774 55.321 125.774 57.204V58.2414H122.449V57.1621C122.449 56.6339 122.197 56.3018 121.073 56.3018C119.832 56.3018 119.696 56.833 119.696 57.4114V61.0454C119.696 61.6228 119.832 62.1551 121.073 62.1551C122.197 62.1551 122.449 61.8219 122.449 61.2948V60.2155H125.774V61.2529C125.774 63.1433 124.716 64.1607 121.073 64.1607C117.054 64.1607 116.318 62.7807 116.318 60.7793Z" fill="white"/>
<path d="M130.284 59.6539V61.0455C130.284 61.6229 130.42 62.1552 131.66 62.1552C132.785 62.1552 133.037 61.8723 133.037 61.3441V60.6861H136.362V61.3022C136.362 63.1926 135.356 64.1598 131.66 64.1598C127.642 64.1598 126.906 62.7797 126.906 60.7783V57.6766C126.906 55.6752 127.642 54.2952 131.66 54.2952C135.356 54.2952 136.362 55.32 136.362 57.203V59.6539H130.285H130.284ZM130.284 57.4115V58.297H133.037V57.1621C133.037 56.634 132.785 56.3018 131.66 56.3018C130.42 56.3018 130.284 56.8331 130.284 57.4115Z" fill="white"/>
<path d="M64.0936 86.1817L64.0685 86.2068L64.2707 91.4944H62.1582V82.0081H64.4478L66.1684 87.3082H66.2061L65.9913 82.0081H68.1038V91.4944H65.8268L64.0936 86.1817Z" fill="white"/>
<path d="M69.1797 86.6365C69.1797 84.8153 70.2548 84.2075 71.8109 84.2075C73.5818 84.2075 74.4421 85.0427 74.4421 86.6365V89.5202C74.3404 91.1266 73.3418 91.7207 71.8109 91.7207C70.369 91.7207 69.1797 91.1391 69.1797 89.5202V86.6365ZM71.1905 89.647C71.2283 90.0515 71.3928 90.2673 71.8109 90.2673C72.229 90.2673 72.3924 90.0525 72.4302 89.647V86.4845C72.4302 86.0287 72.2782 85.662 71.8109 85.662C71.3435 85.662 71.1905 86.0287 71.1905 86.4845V89.647Z" fill="white"/>
<path d="M77.3773 84.411V85.4861H77.4025C77.6299 84.7274 78.1234 84.2087 78.9586 84.2087V86.4857C78.7563 86.448 78.5541 86.4355 78.3519 86.4355C77.7829 86.4355 77.5555 86.5497 77.5167 87.1312V91.4956H75.5059V84.412H77.3784L77.3773 84.411Z" fill="white"/>
<path d="M79.3379 85.8653V84.4109H80.1343V82.3875H82.1451V84.4109H83.106V85.8653H82.1451V89.5968C82.1451 90.0012 82.3222 90.0903 82.5884 90.0903C82.8158 90.0526 82.8922 90.0652 83.1071 90.0652V91.4819C82.6774 91.5447 82.2593 91.5961 81.8171 91.5961C80.7295 91.5961 80.1353 91.0397 80.1353 89.9646V85.8664H79.3389L79.3379 85.8653Z" fill="white"/>
<path d="M85.9903 84.9674H86.0154C86.4838 84.3733 86.9763 84.2087 87.5463 84.2087C88.5198 84.2087 89.1527 84.9045 89.1527 85.8151V91.4945H87.1419V86.4606C87.1419 86.0561 87.0402 85.8539 86.5729 85.8539C86.1296 85.8539 85.9913 86.2458 85.9913 86.6V91.4956H83.9805V82.0093H85.9913V84.9695L85.9903 84.9674Z" fill="white"/>
<path d="M93.1865 85.4356V84.9421C93.1865 83.0695 94.1862 82.0081 96.0954 82.0081C97.8034 82.0081 98.8398 82.8558 98.8398 84.6141C98.8398 85.8034 98.4604 86.4866 97.6504 87.3333L96.8279 88.1297C96.4863 88.4587 95.6899 89.2551 95.5757 89.7863H98.8513V91.4944H93.1719V91.1779C93.1719 89.6093 94.1453 88.2565 95.1576 87.1426L96.1185 86.1304C96.5743 85.6242 96.7252 85.2198 96.7252 84.524C96.7252 84.043 96.5104 83.5369 95.9288 83.5882C95.2582 83.626 95.1953 84.4988 95.1953 84.9798V85.4356H93.1844H93.1865Z" fill="white"/>
<path d="M99.5625 84.6886C99.5625 82.7909 100.575 82.0071 102.383 82.0071C104.66 82.0071 105.217 83.1073 105.179 85.2324V88.6474C105.179 90.7222 104.521 91.7208 102.358 91.7208C100.587 91.7208 99.5625 90.937 99.5625 89.1022V84.6875V84.6886ZM103.067 84.6886C103.067 84.5492 103.142 83.5883 102.383 83.5883C101.7 83.5883 101.675 84.1573 101.675 84.6886V88.9513C101.675 89.5077 101.675 90.1406 102.383 90.1406C103.104 90.1155 103.067 89.2803 103.067 88.9513V84.6886Z" fill="white"/>
<path d="M105.837 85.4356V84.9421C105.837 83.0695 106.837 82.0081 108.746 82.0081C110.454 82.0081 111.49 82.8558 111.49 84.6141C111.49 85.8034 111.111 86.4866 110.301 87.3333L109.478 88.1297C109.137 88.4587 108.34 89.2551 108.226 89.7863H111.502V91.4944H105.822V91.1779C105.822 89.6093 106.796 88.2565 107.808 87.1426L108.769 86.1304C109.225 85.6242 109.376 85.2198 109.376 84.524C109.376 84.043 109.161 83.5369 108.579 83.5882C107.909 83.626 107.846 84.4988 107.846 84.9798V85.4356H105.835H105.837Z" fill="white"/>
<path d="M112.302 87.3828L112.542 82.2095H117.45V83.9175H114.149L114.059 85.6884C114.503 85.2965 114.945 85.1068 115.539 85.1068C117.512 85.1068 117.841 86.7761 117.841 88.3824C117.841 90.4321 117.158 91.722 114.932 91.722C113.301 91.722 112.529 90.9633 112.238 89.4198V88.6989H114.237C114.287 89.1547 114.186 90.0653 114.895 90.1408C115.73 90.2288 115.73 89.0657 115.73 88.5721C115.73 87.978 115.818 86.687 114.907 86.687C114.464 86.687 114.199 86.9406 114.161 87.3828H112.302Z" fill="white"/>
<path d="M61.2564 76.9093H57.2305L56.4834 79.0627H53.125L57.4317 67.6902H61.203L65.4825 79.0627H61.9574L61.2564 76.9093ZM60.5806 74.8356L59.3074 70.9218L57.9494 74.8356H60.5806Z" fill="#EBBB67"/>
<path d="M64.4062 67.6912H67.8317L69.3385 75.0388L71.0948 68.2664H73.355L75.1186 75.0388L76.638 67.6912H80.0561L77.0393 79.0636H74.0518L72.2359 72.635L70.4105 79.0636H67.4189L64.4062 67.6912Z" fill="#EBBB67"/>
<path d="M87.0728 76.9093H83.0469L82.2998 79.0627H78.9414L83.2481 67.6902H87.0194L91.2989 79.0627H87.7739L87.0728 76.9093ZM86.398 74.8356L85.1249 70.9218L83.7668 74.8356H86.398Z" fill="#EBBB67"/>
<path d="M99.0053 79.0636L96.9264 75.0325H95.2718V79.0636H91.8945V67.6912H97.5404C101.528 67.6912 102.625 68.6615 102.625 70.4711V72.2525C102.625 73.5288 102.079 74.387 100.358 74.7831L102.63 79.0636H99.0053ZM95.2718 72.9577H97.5404C98.9247 72.9577 99.2474 72.6277 99.2474 71.9759V70.7488C99.2474 70.1432 98.9247 69.767 97.5404 69.767H95.2718V72.9588V72.9577Z" fill="#EBBB67"/>
<path d="M114.821 70.7949V75.9599C114.821 77.8544 113.595 79.0636 109.15 79.0636H103.914V67.6912H109.15C113.595 67.6912 114.821 68.9004 114.821 70.7949ZM109.149 69.7659H107.29V76.9889H109.149C111.043 76.9889 111.443 76.4356 111.443 75.6822V71.0726C111.443 70.3192 111.043 69.7659 109.149 69.7659Z" fill="#EBBB67"/>
<path d="M123.46 71.7422V70.491C123.46 69.9556 123.024 69.5679 121.415 69.5679C119.805 69.5679 119.369 69.9105 119.369 70.446V71.2801C119.369 73.1317 126.875 71.5483 126.875 75.3427V76.4523C126.875 78.2117 125.739 79.2921 121.414 79.2921C117.088 79.2921 115.953 77.9843 115.953 76.2857V75.0115H119.33V76.2627C119.33 76.7981 119.766 77.1858 121.414 77.1858C123.061 77.1858 123.498 76.8432 123.498 76.3077V75.4736C123.498 73.6231 116.044 75.2054 116.044 71.4111V70.3014C116.044 68.5483 117.391 67.4617 121.414 67.4617C125.436 67.4617 126.783 68.7757 126.783 70.468V71.7422H123.458H123.46Z" fill="#EBBB67"/>
<path d="M39.595 92.0518C39.3069 92.0497 39.0051 92.0675 38.6792 92.1116C38.5943 92.1252 38.5105 92.1378 38.4287 92.1535C38.3449 92.165 38.2663 92.1807 38.1762 92.1943C38.0075 92.2279 37.8336 92.2677 37.6565 92.3138C36.945 92.5066 36.1727 92.821 35.3931 93.1783C34.6292 93.5136 33.859 93.8898 33.1695 94.245C32.48 94.5981 31.8723 94.9366 31.4395 95.1661C31.0099 95.3935 30.75 95.5412 30.75 95.5412C30.75 95.5412 30.8181 95.5664 30.9522 95.6167C31.0843 95.6596 31.2708 95.7351 31.5118 95.8011C31.997 95.9394 32.6749 96.1196 33.4451 96.2758C33.64 96.3156 33.8318 96.3554 34.0351 96.3868C34.2436 96.4151 34.4542 96.4382 34.6669 96.4623C35.0923 96.5063 35.5251 96.5419 35.9547 96.5514C36.8171 96.5859 37.6795 96.4801 38.4256 96.2758C39.9157 95.8682 40.9258 94.9523 41.5503 94.1905C42.1822 93.4235 42.4504 92.7811 42.4504 92.7811C42.4504 92.7811 41.9391 92.45 41.0903 92.253C40.667 92.1514 40.164 92.0508 39.5908 92.0508L39.595 92.0518Z" fill="#FFCD4F"/>
<path d="M41.8739 86.1315C41.527 85.5782 41.066 85.0962 40.5944 84.6225C40.3597 84.3889 40.1093 84.1741 39.8609 83.975C39.731 83.8702 39.6105 83.7769 39.4963 83.6836C39.3799 83.5862 39.2594 83.4929 39.1494 83.4039C38.6863 83.0486 38.2692 82.7636 37.9664 82.574C37.6635 82.3654 37.477 82.2512 37.477 82.2512C37.477 82.2512 37.4728 82.5195 37.4896 82.9638C37.5032 83.4123 37.5462 84.0064 37.6457 84.6875C37.7442 85.3718 37.8888 86.1367 38.1089 86.8828C38.33 87.6048 38.6339 88.3089 38.9975 88.8894C39.0813 89.0382 39.1798 89.1755 39.2804 89.3054C39.3265 89.3715 39.3789 89.4312 39.4323 89.4899C39.4826 89.5465 39.5308 89.603 39.5843 89.6586C39.797 89.8713 40.0254 90.0536 40.2465 90.2097C40.4676 90.3659 40.6919 90.499 40.914 90.6027C41.1309 90.7085 41.3395 90.8018 41.5438 90.8542C42.3496 91.0858 42.9395 91.0459 42.9395 91.0459C42.9395 91.0459 43.038 90.3523 42.9354 89.4008C42.8872 88.9219 42.7991 88.3802 42.6304 87.8269C42.5843 87.6865 42.5403 87.5461 42.4879 87.4088C42.4397 87.2642 42.38 87.1175 42.3192 86.975C42.1893 86.691 42.0468 86.4029 41.8739 86.1304V86.1315Z" fill="#FFCD4F"/>
<path d="M30.3564 87.7713C30.304 87.722 30.2264 87.6602 30.1353 87.5732C29.9446 87.4087 29.6543 87.1855 29.2813 86.9728C29.0906 86.8659 28.8862 86.7632 28.6494 86.6679C28.4147 86.5725 28.1559 86.4876 27.8855 86.4007C27.3385 86.2403 26.6983 86.1429 25.9522 86.1534C25.5697 86.1659 25.182 86.1848 24.7776 86.2246C24.3783 86.2634 23.955 86.32 23.5421 86.3891C23.1146 86.4583 22.6933 86.5358 22.2805 86.6165C21.8739 86.7014 21.4705 86.781 21.0933 86.8575C20.3315 87.0178 19.6619 87.174 19.182 87.2892C18.6926 87.4077 18.4023 87.4883 18.4023 87.4883C18.4023 87.4883 18.6528 87.6591 19.074 87.9242C19.2784 88.0552 19.5414 88.2082 19.8264 88.3748C19.9668 88.4566 20.1229 88.5435 20.2833 88.6326C20.4436 88.7175 20.6165 88.7992 20.7946 88.8841C21.1457 89.0507 21.5281 89.2152 21.9158 89.3745C22.1149 89.452 22.3109 89.5285 22.5152 89.5998C22.6179 89.6396 22.7143 89.6752 22.818 89.7088C22.9239 89.736 23.0224 89.7685 23.1272 89.7978C23.9676 90.0273 24.8132 90.1761 25.5834 90.174C27.152 90.129 28.3571 89.5422 29.1733 88.9732C29.5841 88.6955 29.8974 88.4042 30.1122 88.1904C30.3208 87.9808 30.4308 87.8415 30.4308 87.8415C30.4308 87.8415 30.4046 87.8163 30.3564 87.7702V87.7713Z" fill="#FFCD4F"/>
<path d="M28.1939 83.2039C28.3888 83.8441 28.6895 84.3733 29.028 84.7977C29.1925 85.0177 29.3748 85.1927 29.5634 85.3447C29.7458 85.4987 29.9323 85.6286 30.1104 85.7428C30.4615 85.965 30.78 86.1075 31.0126 86.1934C31.1269 86.2374 31.2295 86.2605 31.2914 86.2762C31.3637 86.294 31.3941 86.3003 31.3941 86.3003C31.3941 86.3003 31.4685 86.14 31.5586 85.8644C31.6487 85.5867 31.7587 85.1948 31.8478 84.718C32.0259 83.7666 32.1045 82.5154 31.7315 81.2926C31.5586 80.6638 31.2641 80.0592 30.9173 79.5018C30.5841 78.937 30.2194 78.3963 29.8589 77.952C29.6766 77.7351 29.5205 77.5119 29.3654 77.3233C29.2208 77.1346 29.0783 76.9722 28.962 76.8339C28.7272 76.5646 28.5711 76.4116 28.5711 76.4116C28.5711 76.4116 28.4904 76.6673 28.393 77.0938C28.2851 77.5182 28.1604 78.1165 28.0598 78.8018C28.0116 79.1486 27.9613 79.5175 27.9351 79.8926C27.9131 80.2625 27.9005 80.6439 27.9089 81.0243C27.9131 81.4057 27.9351 81.7893 27.9791 82.1581C28.0294 82.5259 28.0912 82.8885 28.1939 83.2049V83.2039Z" fill="#FFCD4F"/>
<path d="M19.5977 79.2145C19.4552 79.007 19.2551 78.7167 18.9543 78.4086C18.6557 78.1048 18.2648 77.7841 17.7755 77.4886C17.2945 77.1858 16.7088 76.9165 15.9931 76.7279C15.7468 76.6629 15.4953 76.6105 15.2313 76.5592C14.9745 76.5057 14.7115 76.4617 14.437 76.4188C13.0758 76.2144 11.5334 76.1348 10.3723 76.0635C9.19871 75.9975 8.35938 75.9839 8.35938 75.9839C8.35938 75.9839 8.6423 76.3444 9.13165 76.8756C9.60738 77.4132 10.3367 78.0754 11.1509 78.7199C11.2735 78.8173 11.4034 78.9106 11.5281 79.0059C11.5941 79.0552 11.6581 79.1013 11.7272 79.1505C11.789 79.1945 11.8613 79.2375 11.9274 79.2836C12.204 79.4597 12.4827 79.6284 12.7677 79.7813C13.0528 79.9354 13.3315 80.0747 13.6217 80.1932C13.9068 80.3147 14.1813 80.4216 14.4758 80.4908C15.9962 80.869 17.3155 80.6333 18.268 80.3042C19.2268 79.9637 19.8041 79.5487 19.8041 79.5487C19.8041 79.5487 19.7381 79.4177 19.5956 79.2145H19.5977Z" fill="#FFCD4F"/>
<path d="M20.1012 77.4466C20.3778 77.7558 20.6345 77.9842 20.8431 78.1225C21.0495 78.2608 21.1815 78.3226 21.1815 78.3226C21.1815 78.3226 21.6363 77.7872 22.0701 76.9332C22.5154 76.0687 22.9608 74.8804 22.9524 73.6083C22.9566 73.1399 22.9063 72.6506 22.8099 72.1843C22.7638 71.9485 22.702 71.7169 22.6412 71.4864C22.5731 71.2632 22.5165 71.0274 22.4463 70.8105C22.33 70.4291 22.1958 70.0697 22.0617 69.748C22.0271 69.6652 21.9915 69.5876 21.9653 69.5101C21.9307 69.4347 21.9035 69.3561 21.871 69.2827C21.8186 69.135 21.761 69.0008 21.7065 68.8751C21.4938 68.3774 21.3293 68.0735 21.3293 68.0735C21.3293 68.0735 20.9164 68.7012 20.4312 69.6547C20.3065 69.8915 20.1829 70.1472 20.0582 70.4228C19.9943 70.5611 19.9335 70.7036 19.8717 70.843C19.812 70.9834 19.7596 71.1301 19.703 71.2768C19.4861 71.8615 19.288 72.4902 19.1612 73.1127C19.1067 73.3526 19.0711 73.5915 19.0365 73.8231C19.0103 74.0557 19.002 74.2789 19.002 74.4937C19.002 75.1696 19.1403 75.7543 19.3404 76.2552C19.5489 76.7477 19.834 77.1396 20.1043 77.4477L20.1012 77.4466Z" fill="#FFCD4F"/>
<path d="M9.48852 69.0586C9.78297 69.0723 10.0607 69.067 10.3205 69.0523C11.3338 68.9832 12.0107 68.7432 12.0107 68.7432C12.0107 68.7432 11.9824 68.5976 11.908 68.3618C11.8682 68.2434 11.8158 68.1061 11.7477 67.9479C11.6911 67.7834 11.6094 67.6073 11.5172 67.4208C11.317 67.0457 11.0415 66.6318 10.6506 66.2179C10.5605 66.1246 10.4599 66.0219 10.3478 65.9046C10.2398 65.7987 10.1267 65.6971 10.0051 65.5954C9.75677 65.3911 9.48014 65.191 9.16473 65.0044C8.84828 64.8158 8.49724 64.6377 8.12001 64.4669C7.76478 64.2908 7.38231 64.1221 6.99146 63.9597C6.2129 63.6401 5.39556 63.3436 4.65158 63.0931C3.92751 62.8354 3.28202 62.6185 2.81258 62.4665C2.34104 62.3104 2.05078 62.2266 2.05078 62.2266C2.05078 62.2266 2.1629 62.5021 2.36724 62.9422C2.46993 63.1654 2.58834 63.4316 2.74447 63.7198C2.90479 64.0079 3.08712 64.316 3.28621 64.645C3.49264 64.9699 3.71374 65.3104 3.9537 65.6499C4.01238 65.7306 4.07421 65.8144 4.13603 65.8983C4.20414 65.9779 4.27016 66.0607 4.33617 66.1445C4.47449 66.3069 4.61281 66.4673 4.75532 66.6255C5.04453 66.9399 5.34107 67.2395 5.64915 67.5078C5.80528 67.6461 5.95617 67.7719 6.12069 67.8924C6.2852 68.0045 6.44971 68.1124 6.61947 68.2109C7.29115 68.5986 7.96073 68.8239 8.58841 68.9497C8.90486 69.0115 9.20455 69.0429 9.49062 69.0607L9.48852 69.0586Z" fill="#FFCD4F"/>
<path d="M12.5157 65.4529C12.5817 65.9737 12.7284 66.4316 12.8971 66.8047C12.9809 66.9891 13.0752 67.1536 13.158 67.2961C13.2481 67.4397 13.3403 67.556 13.4168 67.6472C13.5772 67.8358 13.683 67.9332 13.683 67.9332C13.683 67.9332 14.2761 67.5392 14.9404 66.833C15.1091 66.659 15.2789 66.4662 15.4476 66.2535C15.6257 66.0355 15.7986 65.7987 15.9631 65.5535C16.2838 65.0558 16.573 64.4973 16.7553 63.8832C16.7993 63.7302 16.8339 63.5773 16.8758 63.4169C16.9104 63.2566 16.946 63.0942 16.9722 62.9318C17.0204 62.608 17.0571 62.279 17.0665 61.9541C17.0749 61.3097 17.0885 60.6621 17.0403 60.1046C17.0204 59.8228 16.99 59.5587 16.9597 59.325C16.9418 59.0872 16.9198 58.8765 16.8978 58.7026C16.8559 58.3495 16.8119 58.1399 16.8119 58.1399C16.8119 58.1399 16.6034 58.3159 16.2785 58.623C15.9537 58.9268 15.5063 59.3669 15.0295 59.8993C14.5705 60.4242 14.0927 61.0372 13.6736 61.688C13.4608 62.0128 13.2701 62.3492 13.0962 62.6845C12.9317 63.0167 12.8017 63.3488 12.7053 63.6726C12.6026 63.9933 12.545 64.3055 12.5146 64.6042C12.4947 64.7519 12.4863 64.8997 12.4863 65.0401C12.4863 65.1103 12.4863 65.1815 12.4905 65.2507C12.4947 65.3178 12.5041 65.3848 12.5146 65.4529H12.5157Z" fill="#FFCD4F"/>
<path d="M3.56379 55.645C3.853 55.8472 4.14116 56.0117 4.43561 56.1532C5.01298 56.4319 5.57883 56.5985 6.07028 56.7033C7.0626 56.9024 7.77725 56.8469 7.77725 56.8469C7.77725 56.8469 7.86317 56.2611 7.67665 55.4427C7.63055 55.2363 7.55615 55.0162 7.48594 54.7857C7.41364 54.5541 7.31723 54.3089 7.19673 54.0585C7.07203 53.8091 6.92009 53.5524 6.73357 53.2946C6.64136 53.1626 6.53867 53.0347 6.42655 52.9027C6.37416 52.8377 6.31652 52.7717 6.25994 52.7047C6.20021 52.6397 6.14363 52.5747 6.0818 52.5097C5.10729 51.4577 3.5334 50.3794 2.29377 49.5045C1.66191 49.0707 1.09292 48.6976 0.673777 48.4294C0.256727 48.1632 0 48.0071 0 48.0071C0 48.0071 0.0345795 48.2952 0.118409 48.7762C0.204333 49.254 0.322742 49.9142 0.519741 50.6456C0.741888 51.3781 1.02691 52.1776 1.38213 52.9299C1.47015 53.1196 1.56865 53.3061 1.67868 53.4864C1.78661 53.6645 1.89139 53.8395 2.00771 54.0092C2.23405 54.3477 2.48344 54.6621 2.74016 54.9335C3.00842 55.2122 3.26934 55.4469 3.56274 55.6481L3.56379 55.645Z" fill="#FFCD4F"/>
<path d="M9.6192 56.4988C9.6192 56.4988 10.3035 56.2724 11.1491 55.7663C11.5745 55.5106 12.0377 55.1879 12.4809 54.7949C12.7052 54.5969 12.9179 54.3831 13.1222 54.1495C13.3307 53.9168 13.5351 53.6632 13.7163 53.3919C13.8945 53.1184 14.0548 52.8271 14.1879 52.5295C14.3262 52.2308 14.4268 51.9248 14.5431 51.6105C14.7736 50.9922 14.9203 50.3688 15.0283 49.8197C15.1666 49.2612 15.2452 48.7729 15.2955 48.4218C15.3395 48.0729 15.3521 47.8591 15.3521 47.8591C15.3521 47.8591 15.1069 47.9765 14.7118 48.1861C14.3168 48.3988 13.775 48.7079 13.1736 49.0967C12.5836 49.4865 11.9161 49.9549 11.3524 50.4746C10.775 50.9922 10.2437 51.5623 9.8623 52.1365C9.66216 52.4215 9.53327 52.7055 9.42325 52.9853C9.32056 53.263 9.24511 53.5365 9.19481 53.7984C9.14661 54.0583 9.12461 54.3119 9.12042 54.5497C9.11203 54.7813 9.14661 55.0035 9.177 55.2036C9.31951 56.0042 9.61815 56.4967 9.61815 56.4967L9.6192 56.4988Z" fill="#FFCD4F"/>
<path d="M2.00799 37.8912C2.052 38.2024 2.11068 38.5147 2.18088 38.8206C2.32339 39.4295 2.49734 40.0079 2.78236 40.515C3.14178 41.1857 3.58502 41.719 4.05342 42.1413C4.52496 42.5636 5.00383 42.8738 5.46279 43.1012C6.3692 43.5643 7.07127 43.6995 7.07127 43.6995C7.07127 43.6995 7.13519 43.5643 7.19177 43.3244C7.24836 43.0823 7.34371 42.7417 7.37829 42.3237C7.41811 41.9066 7.40868 41.4131 7.30389 40.8661C7.20539 40.318 7.03145 39.7197 6.69823 39.0784C6.58191 38.8678 6.45931 38.6446 6.3168 38.4256C6.25079 38.3177 6.17849 38.2076 6.10409 38.0924C6.03179 37.9865 5.96158 37.8671 5.88928 37.7592C5.51204 37.2038 5.0908 36.639 4.66223 36.1035C4.23679 35.566 3.81031 35.0525 3.44461 34.6145C2.71634 33.7322 2.16517 33.1182 2.16517 33.1182C2.16517 33.1182 2.07715 33.5667 1.99122 34.2698C1.93883 34.6208 1.92101 35.041 1.90739 35.4947C1.89167 35.9505 1.89167 36.4441 1.91577 36.9513C1.92416 37.2572 1.96398 37.5779 2.00799 37.8933V37.8912Z" fill="#FFCD4F"/>
<path d="M13.7627 41.965C13.8549 41.8916 13.9408 41.8078 14.0236 41.7229C14.1137 41.638 14.2017 41.5521 14.2866 41.463C14.4605 41.287 14.6198 41.0994 14.7655 40.9087C14.9174 40.718 15.0599 40.5231 15.193 40.3219C15.3313 40.1134 15.4591 39.9153 15.5797 39.732C15.7966 39.3935 15.9904 39.0582 16.1486 38.7512C16.2335 38.594 16.309 38.4431 16.3771 38.3027C16.4389 38.1591 16.5196 38.0313 16.5772 37.9118C16.8256 37.4288 16.9503 37.1123 16.9503 37.1123C16.9503 37.1123 16.1906 37.2318 15.1175 37.5199C14.8566 37.5891 14.5622 37.6687 14.2793 37.7672C13.9942 37.8605 13.6914 37.9695 13.3949 38.0879C12.7892 38.3205 12.172 38.6013 11.5978 38.923C11.1545 39.1672 10.7773 39.4448 10.4346 39.7372C9.91909 40.1857 9.54396 40.674 9.2998 41.155C9.06927 41.6338 8.94877 42.1001 8.89218 42.4973C8.83665 42.9038 8.82826 43.2423 8.87018 43.4823C8.90057 43.7222 8.94039 43.8616 8.94039 43.8616C8.94039 43.8616 9.65608 43.827 10.6128 43.5619C11.5632 43.2999 12.7944 42.8211 13.7648 41.965H13.7627Z" fill="#FFCD4F"/>
<path d="M7.74826 28.5714C8.08672 29.1047 8.46814 29.5385 8.83279 29.8822C9.56316 30.5644 10.2024 30.885 10.2024 30.885C10.2024 30.885 10.2967 30.7719 10.4308 30.5602C10.567 30.3517 10.7273 30.031 10.8877 29.6454C11.048 29.2556 11.1905 28.783 11.2523 28.2287C11.2827 27.9552 11.2827 27.6534 11.2827 27.3443C11.2827 27.0352 11.2523 26.702 11.1905 26.3509C11.1245 25.9999 11.0302 25.6311 10.918 25.2507C10.8615 25.0621 10.7996 24.8661 10.7315 24.6733C10.6655 24.4836 10.6016 24.2908 10.5366 24.097C10.2715 23.3258 9.95506 22.5493 9.65642 21.8514C9.50971 21.5067 9.36721 21.1755 9.23937 20.88C9.10943 20.5887 8.99312 20.3247 8.90091 20.1067C8.706 19.6666 8.58026 19.4067 8.58026 19.4067C8.58026 19.4067 8.43775 19.6666 8.23342 20.1067C8.1171 20.3226 8.01651 20.5982 7.89496 20.8999C7.77864 21.207 7.65604 21.5454 7.53973 21.9048C7.48315 22.0872 7.41923 22.2737 7.36159 22.4602C7.3092 22.6509 7.24947 22.8458 7.20965 23.0512C7.11535 23.4483 7.04514 23.8664 6.98855 24.2783C6.93406 24.6922 6.89844 25.1061 6.89844 25.5032C6.90263 25.9108 6.93826 26.3006 7.01056 26.6705C7.15726 27.4082 7.42342 28.0369 7.74826 28.5703V28.5714Z" fill="#FFCD4F"/>
<path d="M17.9937 30.5519C18.2829 30.3737 18.5669 30.1767 18.8299 29.9714C19.0908 29.7649 19.3371 29.5501 19.5676 29.3343C19.8023 29.1236 20.035 28.9162 20.2393 28.7118C20.4436 28.5096 20.6302 28.3116 20.7947 28.1376C20.8764 28.0443 20.9508 27.9595 21.021 27.8819C21.0933 27.8033 21.1593 27.7331 21.2232 27.6671C21.4716 27.4031 21.6047 27.2364 21.6047 27.2364C21.6047 27.2364 21.328 27.2029 20.8712 27.1736C20.4174 27.1453 19.7678 27.1117 19.0605 27.139C18.349 27.161 17.5442 27.2281 16.7583 27.3559C16.5592 27.3926 16.3632 27.4272 16.1663 27.468C15.9797 27.5162 15.7932 27.5634 15.6109 27.6158C15.2462 27.7216 14.8994 27.8473 14.5798 27.994C14.2665 28.1376 13.9804 28.3 13.7258 28.4761C13.4732 28.6542 13.2741 28.8522 13.0824 29.0482C12.7219 29.4453 12.4631 29.8551 12.2808 30.2239C12.1079 30.5938 12.0377 30.9302 11.9916 31.1659C11.9476 31.4038 11.9434 31.5442 11.9434 31.5442C11.9434 31.5442 12.6412 31.7077 13.6378 31.7119C14.1355 31.7171 14.7003 31.6836 15.2965 31.5788C15.9001 31.4813 16.5278 31.3116 17.1313 31.0391C17.43 30.9008 17.7171 30.7342 17.9937 30.5519Z" fill="#FFCD4F"/>
<path d="M14.8536 17.0486C15.0265 17.647 15.2707 18.1625 15.5253 18.5848C16.0325 19.4241 16.5522 19.9009 16.5522 19.9009C16.5522 19.9009 17.0636 19.5677 17.5749 18.8918C17.7017 18.721 17.8317 18.5293 17.9522 18.3134C18.0769 18.1049 18.2089 17.8733 18.3168 17.6197C18.5379 17.1115 18.6982 16.4985 18.7705 15.7839C18.8449 15.0818 18.8324 14.277 18.7747 13.4555C18.7108 12.6235 18.6406 11.8124 18.5463 11.0653C18.4583 10.3213 18.364 9.66328 18.2938 9.18231C18.2173 8.71182 18.1733 8.42261 18.1733 8.42261C18.1733 8.42261 18.1167 8.47291 18.0266 8.57874C17.9427 8.68038 17.8138 8.83127 17.6535 9.01884C17.3423 9.40026 16.9158 9.93572 16.4799 10.5655C16.0671 11.2131 15.6416 11.9529 15.299 12.7105C14.9699 13.4817 14.7373 14.2865 14.6629 15.0221C14.6451 15.2086 14.6367 15.3888 14.6367 15.5638C14.6367 15.7388 14.6493 15.919 14.6671 16.0888C14.7027 16.4314 14.7688 16.7479 14.8536 17.0486Z" fill="#FFCD4F"/>
<path d="M24.1835 21.5955C24.348 21.5452 24.5021 21.4865 24.6624 21.4247C24.7389 21.3943 24.8143 21.3618 24.895 21.3314C24.9788 21.2968 25.0553 21.2665 25.1297 21.2361C25.7658 20.9846 26.339 20.6744 26.8419 20.38C27.3617 20.1065 27.7882 19.8361 28.091 19.6381C28.2377 19.5354 28.3592 19.4484 28.4378 19.3929C28.5279 19.3373 28.572 19.308 28.572 19.308C28.572 19.308 28.5038 19.2818 28.3896 19.2367C28.2649 19.1927 28.0952 19.1299 27.8825 19.0607C27.4539 18.9203 26.8514 18.738 26.1524 18.5734C25.8014 18.4928 25.4326 18.4121 25.0417 18.3429C24.8489 18.3094 24.6529 18.2758 24.458 18.2497C24.2631 18.2266 24.063 18.2046 23.8723 18.191C23.0801 18.1218 22.29 18.1239 21.5879 18.2381C20.8984 18.3555 20.3326 18.5954 19.8632 18.8752C19.6263 19.0156 19.4136 19.1665 19.2313 19.3237C19.0532 19.484 18.9023 19.6486 18.7681 19.8047C18.2348 20.4376 18.0566 20.9793 18.0566 20.9793C18.0566 20.9793 18.6885 21.3178 19.6546 21.584C20.1293 21.7202 20.6931 21.8354 21.2945 21.8931C21.9044 21.9497 22.53 21.9277 23.2017 21.8302C23.5349 21.7768 23.865 21.694 24.1845 21.5923L24.1835 21.5955Z" fill="#FFCD4F"/>
<path d="M26.0141 10.1758C26.1388 10.443 26.2268 10.5918 26.2268 10.5918C26.2268 10.5918 26.2687 10.5771 26.3295 10.5509C26.3955 10.5247 26.4898 10.4881 26.6041 10.4315C26.8409 10.3246 27.1615 10.1559 27.5084 9.89603C28.1801 9.36476 29.0142 8.57991 29.5475 7.23026C29.7257 6.78806 29.8902 6.30081 30.0327 5.78107C30.2108 5.13663 30.3533 4.44818 30.4822 3.78069C30.6163 3.12787 30.7347 2.49287 30.8291 1.92912C31.0166 0.806855 31.1172 0.00209573 31.1172 0C31.1172 0 30.7138 0.242057 30.1186 0.659107C29.8242 0.864488 29.4773 1.11598 29.1095 1.40204C28.749 1.70173 28.3718 2.03705 28.003 2.39751C27.7703 2.62071 27.5482 2.84705 27.3355 3.08177C27.2757 3.1415 27.2234 3.20018 27.171 3.262C27.1228 3.32173 27.0725 3.3846 27.0201 3.44957C26.9216 3.57531 26.8252 3.7021 26.7309 3.83099C26.3578 4.34235 26.0372 4.87362 25.8203 5.39545C25.6736 5.73391 25.5855 6.09123 25.5216 6.42446C25.4598 6.75977 25.4294 7.08566 25.4252 7.39792C25.4116 8.01826 25.4996 8.57677 25.6254 9.04726C25.7459 9.52194 25.8957 9.90336 26.0162 10.1737L26.0141 10.1758Z" fill="#FFCD4F"/>
<path d="M34.9943 14.0363C35.3977 13.9566 35.7802 13.8634 36.1312 13.7701C36.4822 13.6894 36.8029 13.6056 37.0701 13.5302C37.6034 13.3751 37.9325 13.2441 37.9325 13.2441C37.9325 13.2441 37.3268 12.7841 36.3942 12.2235C35.9352 11.9437 35.3893 11.6398 34.7941 11.3569C34.2063 11.0813 33.5849 10.835 32.9572 10.6485C32.4762 10.505 31.9942 10.3929 31.5394 10.3446C30.1521 10.22 29.0592 10.6181 28.3791 11.097C28.0322 11.3307 27.7776 11.5644 27.6047 11.7404C27.5167 11.8253 27.4528 11.9007 27.414 11.951C27.3742 12.0045 27.3574 12.0359 27.3574 12.0359C27.3574 12.0359 27.4821 12.1585 27.7126 12.345C27.9432 12.5315 28.2848 12.783 28.7134 13.0387C29.1346 13.2986 29.6418 13.5637 30.2013 13.7764C30.4863 13.8833 30.7787 13.9839 31.0857 14.0541C31.3927 14.1316 31.7092 14.184 32.0477 14.2301C33.0285 14.3506 34.047 14.1903 34.9953 14.0394L34.9943 14.0363Z" fill="#FFCD4F"/>
<path d="M49.4754 93.0883C49.2124 93.0559 48.8812 93.015 48.5051 92.971C48.3185 92.9437 48.1184 92.9301 47.9099 92.8903C47.7013 92.8536 47.4844 92.8169 47.256 92.774C46.7991 92.6975 46.3056 92.6147 45.7764 92.5215C45.2567 92.4072 44.7097 92.2857 44.1438 92.1631C43.8609 92.0971 43.5707 92.0436 43.2815 91.9629C42.9985 91.8854 42.7041 91.8047 42.4096 91.7251C41.8239 91.5616 41.2203 91.417 40.6366 91.2148C38.2685 90.5022 36.0019 89.5225 34.3296 88.7397C33.9167 88.5375 33.5332 88.3489 33.1989 88.1864C33.026 88.1016 32.872 88.0219 32.7295 87.9507C32.587 87.8773 32.457 87.8019 32.3386 87.74C31.8671 87.4802 31.5988 87.3282 31.5988 87.3282C31.5988 87.3282 31.3337 87.1815 30.8611 86.9206C30.3896 86.6513 29.7504 86.2364 28.9624 85.7585C27.4283 84.7484 25.4248 83.338 23.5879 81.7316C21.7489 80.1263 20.0587 78.3742 18.8631 77.0005C18.7069 76.836 18.5781 76.662 18.446 76.5028C18.3119 76.3435 18.1914 76.1926 18.073 76.049C17.8362 75.7651 17.636 75.5136 17.4673 75.3071C17.2944 75.1039 17.1781 74.931 17.0985 74.8178C17.0125 74.7025 16.9643 74.6438 16.9643 74.6438C16.9643 74.6438 16.7862 74.4039 16.4708 73.9743C16.3189 73.7615 16.1198 73.508 15.9112 73.203C15.7069 72.8991 15.4764 72.5523 15.227 72.1772C15.1023 71.9906 14.9703 71.7947 14.8361 71.5883C14.6978 71.386 14.5773 71.1681 14.4453 70.9428C14.1781 70.4985 13.8993 70.0301 13.6091 69.5449C13.3461 69.0482 13.0715 68.5316 12.7949 68.0119C12.7205 67.8778 12.6524 67.7499 12.5822 67.6158C12.5204 67.4806 12.4575 67.3444 12.3915 67.2124C12.2668 66.9399 12.1368 66.6696 12.009 66.3961C11.0041 64.2155 10.1721 61.9615 9.69531 60.2305C9.63349 60.0157 9.57271 59.8082 9.50879 59.6122C9.4564 59.4173 9.39877 59.2329 9.35685 59.0548C9.27302 58.7016 9.19653 58.3894 9.13994 58.1347C9.01525 57.6276 8.94399 57.3342 8.94399 57.3342C8.94399 57.3342 8.92618 57.2629 8.89579 57.1277C8.8654 56.9936 8.82768 56.7872 8.77948 56.5294C8.73128 56.2737 8.67888 55.9646 8.61077 55.6041C8.54895 55.2489 8.45464 54.8434 8.40644 54.397C8.34985 53.9548 8.28174 53.4728 8.21573 52.9656C8.20315 52.8378 8.18115 52.7099 8.16753 52.58C8.14762 52.4469 8.14343 52.3159 8.1298 52.1808C8.11199 51.9115 8.08579 51.639 8.06379 51.3582C7.94747 50.2454 7.94747 49.0518 7.9129 47.8573C7.94747 46.6638 7.94747 45.4703 8.06379 44.3543C8.08579 44.0766 8.11199 43.8021 8.1298 43.5338C8.14343 43.3986 8.14762 43.2666 8.16753 43.1367C8.18115 43.0046 8.20315 42.8768 8.21573 42.7469C8.28174 42.2428 8.34985 41.7577 8.40644 41.3155C8.45464 40.8712 8.54895 40.4709 8.61077 40.1104C8.67888 39.7531 8.73128 39.4408 8.77948 39.1831C8.82768 38.9274 8.8654 38.7231 8.89579 38.5889C8.92618 38.4506 8.94399 38.3773 8.94399 38.3773C8.94399 38.3773 9.0142 38.0891 9.13994 37.5798C9.19653 37.3263 9.27407 37.0171 9.35685 36.663C9.39877 36.4848 9.45535 36.2962 9.50879 36.1013C9.57271 35.9064 9.63349 35.701 9.69531 35.4831C10.171 33.7541 11.003 31.5001 12.009 29.3174C12.1368 29.0481 12.2657 28.7736 12.3915 28.5043C12.4575 28.366 12.5214 28.235 12.5822 28.0998C12.6524 27.9678 12.7205 27.8378 12.7949 27.7037C13.0715 27.1819 13.3461 26.6653 13.6091 26.1707C13.8993 25.6855 14.1781 25.2171 14.4453 24.7728C14.5773 24.5528 14.6978 24.3306 14.8361 24.1253C14.9703 23.923 15.1023 23.7281 15.227 23.5395C15.4774 23.1633 15.708 22.8165 15.9112 22.5126C16.1198 22.2077 16.3189 21.9541 16.4708 21.7414C16.7873 21.3149 16.9643 21.0718 16.9643 21.0718C16.9643 21.0718 17.0125 21.011 17.0985 20.8957C17.1771 20.7826 17.2934 20.6118 17.4673 20.4095C17.636 20.2042 17.8362 19.9527 18.073 19.6666C18.1914 19.5241 18.3119 19.3732 18.446 19.2087C18.5781 19.0525 18.7069 18.8797 18.8631 18.713C20.0597 17.3414 21.7489 15.5904 23.5879 13.9861C25.4248 12.3787 27.4283 10.9672 28.9624 9.95814C29.7504 9.47926 30.3885 9.06536 30.8611 8.79815C31.3327 8.53828 31.5988 8.38634 31.5988 8.38634C31.5988 8.38634 31.8671 8.23859 32.3386 7.97872C32.457 7.91375 32.587 7.84459 32.7295 7.76496C32.872 7.6937 33.026 7.61616 33.1989 7.53443C33.311 7.47889 33.4273 7.42021 33.5499 7.36363H33.5782C33.879 7.38773 34.3023 7.40344 34.8011 7.3741C35.7997 7.32905 37.0991 7.12262 38.2402 6.49809C38.8333 6.19316 39.3876 5.78135 39.8728 5.33915C40.1075 5.11281 40.3579 4.88857 40.5843 4.66433C40.8106 4.44113 41.0191 4.21479 41.2056 4.00208C41.5724 3.56617 41.9129 3.18893 42.1361 2.90601C42.3489 2.62623 42.4788 2.4481 42.4788 2.4481C42.4788 2.4481 42.2022 2.43762 41.7505 2.43238C41.2916 2.42819 40.6555 2.44076 39.9356 2.49944C39.7533 2.51516 39.5668 2.52983 39.3803 2.55183C39.1937 2.57489 39.003 2.60108 38.8123 2.63252C38.433 2.6912 38.0421 2.76665 37.6555 2.85571C36.8916 3.03804 36.1078 3.27381 35.5178 3.60808C34.908 3.93711 34.4375 4.33949 34.0823 4.7492C33.7396 5.16416 33.5248 5.59483 33.3687 5.97625C33.2282 6.35348 33.1518 6.68775 33.1203 6.92771C33.1119 6.97592 33.1119 7.01678 33.1067 7.0587C33.0627 7.0828 33.0166 7.10585 32.9726 7.12366C32.8039 7.20854 32.6435 7.28818 32.4958 7.35943C32.3554 7.43802 32.2212 7.50928 32.1007 7.57634C31.6292 7.83831 31.3589 7.99025 31.3589 7.99025C31.3589 7.99025 31.0822 8.138 30.6128 8.40415C30.1412 8.67346 29.4916 9.09051 28.6962 9.57776C27.1443 10.5942 25.1167 12.0203 23.262 13.6456C21.4052 15.2635 19.6982 17.0354 18.4932 18.4196C18.337 18.5883 18.204 18.7644 18.0719 18.9205C17.9378 19.0829 17.8131 19.237 17.6968 19.3837C17.4579 19.6718 17.2536 19.9233 17.0848 20.1298C16.912 20.3351 16.7956 20.5122 16.7076 20.6233C16.6217 20.7365 16.5735 20.7993 16.5735 20.7993C16.5735 20.7993 16.3954 21.0456 16.0799 21.4731C15.9238 21.6921 15.7195 21.9478 15.511 22.2527C15.3024 22.5629 15.074 22.9118 14.8215 23.2933C14.6873 23.484 14.5585 23.682 14.4201 23.8874C14.2881 24.0917 14.1634 24.3149 14.0251 24.5381C13.7589 24.9845 13.4739 25.4613 13.1847 25.9538C12.9185 26.4547 12.6377 26.9723 12.3642 27.5036C12.2919 27.6377 12.2217 27.7676 12.1494 27.9018C12.0876 28.0348 12.0226 28.1732 11.9587 28.3083C11.8309 28.585 11.702 28.8606 11.572 29.1361C10.5535 31.3367 9.70893 33.6126 9.23425 35.3615C9.16614 35.5795 9.10432 35.7859 9.05192 35.9892C8.988 36.1872 8.92723 36.3706 8.8916 36.5508C8.80568 36.9082 8.73128 37.2225 8.66736 37.4803C8.54895 37.9916 8.47246 38.285 8.47246 38.285C8.47246 38.285 8.45464 38.3605 8.42425 38.4957C8.38967 38.6361 8.35824 38.8404 8.30794 39.0982C8.26393 39.3581 8.20315 39.6745 8.13504 40.0339C8.07322 40.3986 7.98101 40.8031 7.93071 41.2516C7.87412 41.7 7.80601 42.1852 7.74 42.7007C7.72742 42.8286 7.70542 42.9606 7.6918 43.0895C7.67398 43.2257 7.6656 43.3588 7.65198 43.494C7.62788 43.7633 7.61006 44.0378 7.58806 44.3249C7.46965 45.4472 7.46965 46.6522 7.42773 47.8594C7.46965 49.0665 7.46965 50.2716 7.58806 51.3959C7.61006 51.6799 7.62788 51.9534 7.65198 52.2269C7.66455 52.3631 7.67398 52.4983 7.6918 52.6272C7.70542 52.7581 7.72742 52.8912 7.74 53.018C7.80601 53.5294 7.87412 54.0208 7.93071 54.4672C7.98101 54.9136 8.07322 55.3212 8.13504 55.6848C8.20315 56.0453 8.26498 56.3586 8.30794 56.6185C8.35824 56.8763 8.38967 57.0827 8.42425 57.2231C8.45464 57.3583 8.47246 57.4316 8.47246 57.4316C8.47246 57.4316 8.54895 57.7261 8.66736 58.2385C8.73128 58.4984 8.80568 58.8096 8.8916 59.1658C8.92618 59.3461 8.988 59.5347 9.05192 59.7327C9.10432 59.9308 9.16614 60.1393 9.23425 60.3594C9.70789 62.1061 10.5535 64.38 11.572 66.5847C11.702 66.8614 11.8309 67.1369 11.9587 67.4073C12.0226 67.5446 12.0886 67.6808 12.1494 67.817C12.2217 67.948 12.2919 68.0832 12.3642 68.2162C12.6388 68.7433 12.9196 69.2631 13.1847 69.7639C13.4739 70.2554 13.76 70.7301 14.0251 71.1775C14.1634 71.4007 14.2881 71.6239 14.4201 71.8314C14.5585 72.0336 14.6873 72.2348 14.8215 72.4255C15.074 72.8048 15.3024 73.1538 15.511 73.4629C15.7195 73.772 15.9238 74.0277 16.0799 74.2425C16.3964 74.6721 16.5735 74.9163 16.5735 74.9163C16.5735 74.9163 16.6217 74.9792 16.7076 75.0965C16.7956 75.2107 16.912 75.3815 17.0848 75.588C17.2536 75.7944 17.4579 76.048 17.6968 76.3361C17.8131 76.4807 17.9378 76.6348 18.0719 76.7951C18.204 76.9533 18.337 77.1336 18.4932 77.3002C19.6982 78.6875 21.4052 80.4563 23.262 82.0732C25.1167 83.6963 27.1443 85.1235 28.6962 86.1431C29.4905 86.6304 30.1402 87.0464 30.6128 87.3167C31.0822 87.5808 31.3589 87.7275 31.3589 87.7275C31.3589 87.7275 31.6292 87.8815 32.1007 88.1414C32.2212 88.2084 32.3554 88.2797 32.4958 88.3593C32.6425 88.4327 32.8028 88.5092 32.9726 88.592C33.31 88.7586 33.6924 88.9514 34.1158 89.1547C35.8039 89.9437 38.0998 90.9318 40.4889 91.6507C41.082 91.8571 41.6845 91.9996 42.2818 92.1673C42.5741 92.248 42.8717 92.3297 43.162 92.4072C43.4502 92.49 43.7436 92.5435 44.0286 92.6126C44.6018 92.7363 45.1519 92.8557 45.6811 92.9752C46.206 93.0663 46.708 93.1512 47.1711 93.2309C47.4017 93.2707 47.6238 93.3105 47.8334 93.3461C48.0461 93.3859 48.2462 93.3996 48.4369 93.4278C48.8142 93.4729 49.1432 93.5127 49.4198 93.5452C49.9616 93.6123 50.2739 93.6531 50.2739 93.6531L50.3221 93.19C50.3221 93.19 50.0108 93.1502 49.4722 93.0852L49.4754 93.0883Z" fill="#FFCD4F"/>
<path d="M140.406 92.0518C140.694 92.0497 140.996 92.0675 141.322 92.1116C141.407 92.1252 141.491 92.1378 141.572 92.1535C141.656 92.165 141.735 92.1807 141.825 92.1943C141.994 92.2279 142.168 92.2677 142.345 92.3138C143.056 92.5066 143.829 92.821 144.608 93.1783C145.372 93.5136 146.142 93.8898 146.832 94.245C147.521 94.5981 148.129 94.9366 148.562 95.1661C148.991 95.3935 149.251 95.5412 149.251 95.5412C149.251 95.5412 149.183 95.5664 149.049 95.6167C148.917 95.6596 148.73 95.7351 148.489 95.8011C148.004 95.9394 147.326 96.1196 146.556 96.2758C146.361 96.3156 146.169 96.3554 145.966 96.3868C145.758 96.4151 145.547 96.4382 145.334 96.4623C144.909 96.5063 144.476 96.5419 144.046 96.5514C143.184 96.5859 142.322 96.4801 141.576 96.2758C140.086 95.8682 139.075 94.9523 138.451 94.1905C137.819 93.4235 137.551 92.7811 137.551 92.7811C137.551 92.7811 138.062 92.45 138.911 92.253C139.334 92.1514 139.837 92.0508 140.41 92.0508L140.406 92.0518Z" fill="#FFCD4F"/>
<path d="M138.126 86.1315C138.473 85.5782 138.934 85.0962 139.405 84.6225C139.64 84.3889 139.89 84.1741 140.139 83.975C140.269 83.8702 140.389 83.7769 140.503 83.6836C140.62 83.5862 140.74 83.4929 140.85 83.4039C141.313 83.0486 141.73 82.7636 142.033 82.574C142.336 82.3654 142.523 82.2512 142.523 82.2512C142.523 82.2512 142.527 82.5195 142.51 82.9638C142.496 83.4123 142.453 84.0064 142.354 84.6875C142.255 85.3718 142.111 86.1367 141.891 86.8828C141.67 87.6048 141.366 88.3089 141.002 88.8894C140.918 89.0382 140.82 89.1755 140.719 89.3054C140.673 89.3715 140.621 89.4312 140.567 89.4899C140.517 89.5465 140.469 89.603 140.415 89.6586C140.203 89.8713 139.974 90.0536 139.753 90.2097C139.532 90.3659 139.308 90.499 139.086 90.6027C138.869 90.7085 138.66 90.8018 138.456 90.8542C137.65 91.0858 137.06 91.0459 137.06 91.0459C137.06 91.0459 136.962 90.3523 137.064 89.4008C137.113 88.9219 137.201 88.3802 137.369 87.8269C137.415 87.6865 137.459 87.5461 137.512 87.4088C137.56 87.2642 137.62 87.1175 137.68 86.975C137.81 86.691 137.953 86.4029 138.126 86.1304V86.1315Z" fill="#FFCD4F"/>
<path d="M149.643 87.7713C149.695 87.722 149.773 87.6602 149.864 87.5732C150.055 87.4087 150.345 87.1855 150.718 86.9728C150.909 86.8659 151.113 86.7632 151.35 86.6679C151.584 86.5725 151.843 86.4876 152.114 86.4007C152.661 86.2403 153.301 86.1429 154.047 86.1534C154.429 86.1659 154.817 86.1848 155.222 86.2246C155.621 86.2634 156.044 86.32 156.457 86.3891C156.885 86.4583 157.306 86.5358 157.719 86.6165C158.125 86.7014 158.529 86.781 158.906 86.8575C159.668 87.0178 160.337 87.174 160.817 87.2892C161.307 87.4077 161.597 87.4883 161.597 87.4883C161.597 87.4883 161.346 87.6591 160.925 87.9242C160.721 88.0552 160.458 88.2082 160.173 88.3748C160.032 88.4566 159.876 88.5435 159.716 88.6326C159.556 88.7175 159.383 88.7992 159.205 88.8841C158.853 89.0507 158.471 89.2152 158.083 89.3745C157.884 89.452 157.688 89.5285 157.484 89.5998C157.381 89.6396 157.285 89.6752 157.181 89.7088C157.075 89.736 156.977 89.7685 156.872 89.7978C156.032 90.0273 155.186 90.1761 154.416 90.174C152.847 90.129 151.642 89.5422 150.826 88.9732C150.415 88.6955 150.102 88.4042 149.887 88.1904C149.678 87.9808 149.568 87.8415 149.568 87.8415C149.568 87.8415 149.595 87.8163 149.643 87.7702V87.7713Z" fill="#FFCD4F"/>
<path d="M151.807 83.2039C151.612 83.8441 151.311 84.3733 150.972 84.7977C150.808 85.0177 150.626 85.1927 150.437 85.3447C150.255 85.4987 150.068 85.6286 149.89 85.7428C149.539 85.965 149.22 86.1075 148.988 86.1934C148.874 86.2374 148.771 86.2605 148.709 86.2762C148.637 86.294 148.606 86.3003 148.606 86.3003C148.606 86.3003 148.532 86.14 148.442 85.8644C148.352 85.5867 148.242 85.1948 148.153 84.718C147.975 83.7666 147.896 82.5154 148.269 81.2926C148.442 80.6638 148.736 80.0592 149.083 79.5018C149.416 78.937 149.781 78.3963 150.142 77.952C150.324 77.7351 150.48 77.5119 150.635 77.3233C150.78 77.1346 150.922 76.9722 151.039 76.8339C151.273 76.5646 151.429 76.4116 151.429 76.4116C151.429 76.4116 151.51 76.6673 151.607 77.0938C151.715 77.5182 151.84 78.1165 151.941 78.8018C151.989 79.1486 152.039 79.5175 152.065 79.8926C152.087 80.2625 152.1 80.6439 152.092 81.0243C152.087 81.4057 152.065 81.7893 152.021 82.1581C151.971 82.5259 151.909 82.8885 151.807 83.2049V83.2039Z" fill="#FFCD4F"/>
<path d="M160.402 79.2145C160.544 79.007 160.744 78.7167 161.045 78.4086C161.344 78.1048 161.735 77.7841 162.224 77.4886C162.705 77.1858 163.291 76.9165 164.006 76.7279C164.253 76.6629 164.504 76.6105 164.768 76.5592C165.025 76.5057 165.288 76.4617 165.562 76.4188C166.924 76.2144 168.466 76.1348 169.627 76.0635C170.801 75.9975 171.64 75.9839 171.64 75.9839C171.64 75.9839 171.357 76.3444 170.868 76.8756C170.392 77.4132 169.663 78.0754 168.849 78.7199C168.726 78.8173 168.596 78.9106 168.471 79.0059C168.405 79.0552 168.341 79.1013 168.272 79.1505C168.21 79.1945 168.138 79.2375 168.072 79.2836C167.795 79.4597 167.517 79.6284 167.232 79.7813C166.947 79.9354 166.668 80.0747 166.378 80.1932C166.093 80.3147 165.818 80.4216 165.524 80.4908C164.003 80.869 162.684 80.6333 161.731 80.3042C160.773 79.9637 160.195 79.5487 160.195 79.5487C160.195 79.5487 160.261 79.4177 160.404 79.2145H160.402Z" fill="#FFCD4F"/>
<path d="M159.898 77.4466C159.622 77.7558 159.365 77.9842 159.156 78.1225C158.95 78.2608 158.818 78.3226 158.818 78.3226C158.818 78.3226 158.363 77.7872 157.929 76.9332C157.484 76.0687 157.039 74.8804 157.047 73.6083C157.043 73.1399 157.093 72.6506 157.19 72.1843C157.236 71.9485 157.298 71.7169 157.358 71.4864C157.426 71.2632 157.483 71.0274 157.553 70.8105C157.67 70.4291 157.804 70.0697 157.938 69.748C157.972 69.6652 158.008 69.5876 158.034 69.5101C158.069 69.4347 158.096 69.3561 158.129 69.2827C158.181 69.135 158.239 69.0008 158.293 68.8751C158.506 68.3774 158.67 68.0735 158.67 68.0735C158.67 68.0735 159.083 68.7012 159.568 69.6547C159.693 69.8915 159.817 70.1472 159.941 70.4228C160.005 70.5611 160.066 70.7036 160.128 70.843C160.188 70.9834 160.24 71.1301 160.297 71.2768C160.513 71.8615 160.712 72.4902 160.838 73.1127C160.893 73.3526 160.928 73.5915 160.963 73.8231C160.989 74.0557 160.998 74.2789 160.998 74.4937C160.998 75.1696 160.859 75.7543 160.659 76.2552C160.451 76.7477 160.166 77.1396 159.895 77.4477L159.898 77.4466Z" fill="#FFCD4F"/>
<path d="M170.51 69.0586C170.216 69.0723 169.938 69.067 169.678 69.0523C168.665 68.9832 167.988 68.7432 167.988 68.7432C167.988 68.7432 168.017 68.5976 168.091 68.3618C168.131 68.2434 168.183 68.1061 168.251 67.9479C168.308 67.7834 168.39 67.6073 168.482 67.4208C168.682 67.0457 168.958 66.6318 169.348 66.2179C169.439 66.1246 169.539 66.0219 169.651 65.9046C169.759 65.7987 169.872 65.6971 169.994 65.5954C170.242 65.3911 170.519 65.191 170.834 65.0044C171.151 64.8158 171.502 64.6377 171.879 64.4669C172.234 64.2908 172.617 64.1221 173.008 63.9597C173.786 63.6401 174.603 63.3436 175.347 63.0931C176.072 62.8354 176.717 62.6185 177.186 62.4665C177.658 62.3104 177.948 62.2266 177.948 62.2266C177.948 62.2266 177.836 62.5021 177.632 62.9422C177.529 63.1654 177.411 63.4316 177.255 63.7198C177.094 64.0079 176.912 64.316 176.713 64.645C176.506 64.9699 176.285 65.3104 176.045 65.6499C175.987 65.7306 175.925 65.8144 175.863 65.8983C175.795 65.9779 175.729 66.0607 175.663 66.1445C175.525 66.3069 175.386 66.4673 175.244 66.6255C174.954 66.9399 174.658 67.2395 174.35 67.5078C174.194 67.6461 174.043 67.7719 173.878 67.8924C173.714 68.0045 173.549 68.1124 173.38 68.2109C172.708 68.5986 172.038 68.8239 171.411 68.9497C171.094 69.0115 170.794 69.0429 170.508 69.0607L170.51 69.0586Z" fill="#FFCD4F"/>
<path d="M167.485 65.4529C167.419 65.9737 167.272 66.4316 167.104 66.8047C167.02 66.9891 166.925 67.1536 166.843 67.2961C166.753 67.4397 166.66 67.556 166.584 67.6472C166.424 67.8358 166.318 67.9332 166.318 67.9332C166.318 67.9332 165.725 67.5392 165.06 66.833C164.892 66.659 164.722 66.4662 164.553 66.2535C164.375 66.0355 164.202 65.7987 164.038 65.5535C163.717 65.0558 163.428 64.4973 163.245 63.8832C163.201 63.7302 163.167 63.5773 163.125 63.4169C163.09 63.2566 163.055 63.0942 163.028 62.9318C162.98 62.608 162.944 62.279 162.934 61.9541C162.926 61.3097 162.912 60.6621 162.96 60.1046C162.98 59.8228 163.011 59.5587 163.041 59.325C163.059 59.0872 163.081 58.8765 163.103 58.7026C163.145 58.3495 163.189 58.1399 163.189 58.1399C163.189 58.1399 163.397 58.3159 163.722 58.623C164.047 58.9268 164.494 59.3669 164.971 59.8993C165.43 60.4242 165.908 61.0372 166.327 61.688C166.54 62.0128 166.731 62.3492 166.905 62.6845C167.069 63.0167 167.199 63.3488 167.295 63.6726C167.398 63.9933 167.456 64.3055 167.486 64.6042C167.506 64.7519 167.514 64.8997 167.514 65.0401C167.514 65.1103 167.514 65.1815 167.51 65.2507C167.506 65.3178 167.497 65.3848 167.486 65.4529H167.485Z" fill="#FFCD4F"/>
<path d="M176.436 55.645C176.147 55.8472 175.859 56.0117 175.565 56.1532C174.987 56.4319 174.421 56.5985 173.93 56.7033C172.938 56.9024 172.223 56.8469 172.223 56.8469C172.223 56.8469 172.137 56.2611 172.323 55.4427C172.37 55.2363 172.444 55.0162 172.514 54.7857C172.586 54.5541 172.683 54.3089 172.803 54.0585C172.928 53.8091 173.08 53.5524 173.267 53.2946C173.359 53.1626 173.461 53.0347 173.574 52.9027C173.626 52.8377 173.684 52.7717 173.74 52.7047C173.8 52.6397 173.856 52.5747 173.918 52.5097C174.893 51.4577 176.467 50.3794 177.706 49.5045C178.338 49.0707 178.907 48.6976 179.326 48.4294C179.743 48.1632 180 48.0071 180 48.0071C180 48.0071 179.966 48.2952 179.882 48.7762C179.796 49.254 179.677 49.9142 179.48 50.6456C179.258 51.3781 178.973 52.1776 178.618 52.9299C178.53 53.1196 178.431 53.3061 178.321 53.4864C178.214 53.6645 178.109 53.8395 177.992 54.0092C177.766 54.3477 177.517 54.6621 177.26 54.9335C176.992 55.2122 176.731 55.4469 176.437 55.6481L176.436 55.645Z" fill="#FFCD4F"/>
<path d="M170.379 56.4988C170.379 56.4988 169.695 56.2724 168.849 55.7663C168.424 55.5106 167.961 55.1879 167.518 54.7949C167.293 54.5969 167.081 54.3831 166.876 54.1495C166.668 53.9168 166.463 53.6632 166.282 53.3919C166.104 53.1184 165.944 52.8271 165.811 52.5295C165.672 52.2308 165.572 51.9248 165.455 51.6105C165.225 50.9922 165.078 50.3688 164.97 49.8197C164.832 49.2612 164.753 48.7729 164.703 48.4218C164.659 48.0729 164.646 47.8591 164.646 47.8591C164.646 47.8591 164.892 47.9765 165.287 48.1861C165.682 48.3988 166.224 48.7079 166.825 49.0967C167.415 49.4865 168.082 49.9549 168.646 50.4746C169.224 50.9922 169.755 51.5623 170.136 52.1365C170.336 52.4215 170.465 52.7055 170.575 52.9853C170.678 53.263 170.753 53.5365 170.804 53.7984C170.852 54.0583 170.874 54.3119 170.878 54.5497C170.887 54.7813 170.852 55.0035 170.822 55.2036C170.679 56.0042 170.38 56.4967 170.38 56.4967L170.379 56.4988Z" fill="#FFCD4F"/>
<path d="M177.992 37.8912C177.948 38.2024 177.889 38.5147 177.819 38.8206C177.676 39.4295 177.502 40.0079 177.217 40.515C176.858 41.1857 176.415 41.719 175.946 42.1413C175.475 42.5636 174.996 42.8738 174.537 43.1012C173.63 43.5643 172.928 43.6995 172.928 43.6995C172.928 43.6995 172.864 43.5643 172.808 43.3244C172.751 43.0823 172.656 42.7417 172.621 42.3237C172.582 41.9066 172.591 41.4131 172.696 40.8661C172.794 40.318 172.968 39.7197 173.301 39.0784C173.418 38.8678 173.54 38.6446 173.683 38.4256C173.749 38.3177 173.821 38.2076 173.896 38.0924C173.968 37.9865 174.038 37.8671 174.11 37.7592C174.488 37.2038 174.909 36.639 175.337 36.1035C175.763 35.566 176.189 35.0525 176.555 34.6145C177.283 33.7322 177.834 33.1182 177.834 33.1182C177.834 33.1182 177.922 33.5667 178.008 34.2698C178.061 34.6208 178.079 35.041 178.092 35.4947C178.108 35.9505 178.108 36.4441 178.084 36.9513C178.075 37.2572 178.036 37.5779 177.992 37.8933V37.8912Z" fill="#FFCD4F"/>
<path d="M166.236 41.965C166.144 41.8916 166.058 41.8078 165.976 41.7229C165.885 41.638 165.797 41.5521 165.712 41.463C165.539 41.287 165.379 41.0994 165.234 40.9087C165.082 40.718 164.939 40.5231 164.806 40.3219C164.668 40.1134 164.54 39.9153 164.419 39.732C164.203 39.3935 164.009 39.0582 163.85 38.7512C163.766 38.594 163.69 38.4431 163.622 38.3027C163.56 38.1591 163.479 38.0313 163.422 37.9118C163.174 37.4288 163.049 37.1123 163.049 37.1123C163.049 37.1123 163.809 37.2318 164.882 37.5199C165.142 37.5891 165.437 37.6687 165.72 37.7672C166.005 37.8605 166.308 37.9695 166.604 38.0879C167.21 38.3205 167.827 38.6013 168.401 38.923C168.845 39.1672 169.222 39.4448 169.564 39.7372C170.08 40.1857 170.455 40.674 170.699 41.155C170.93 41.6338 171.05 42.1001 171.107 42.4973C171.162 42.9038 171.171 43.2423 171.129 43.4823C171.099 43.7222 171.059 43.8616 171.059 43.8616C171.059 43.8616 170.343 43.827 169.386 43.5619C168.436 43.2999 167.205 42.8211 166.234 41.965H166.236Z" fill="#FFCD4F"/>
<path d="M172.253 28.5714C171.915 29.1047 171.533 29.5385 171.169 29.8822C170.438 30.5644 169.799 30.885 169.799 30.885C169.799 30.885 169.705 30.7719 169.571 30.5602C169.434 30.3517 169.274 30.031 169.114 29.6454C168.953 29.2556 168.811 28.783 168.749 28.2287C168.719 27.9552 168.719 27.6534 168.719 27.3443C168.719 27.0352 168.749 26.702 168.811 26.3509C168.877 25.9999 168.971 25.6311 169.083 25.2507C169.14 25.0621 169.202 24.8661 169.27 24.6733C169.336 24.4836 169.4 24.2908 169.465 24.097C169.73 23.3258 170.046 22.5493 170.345 21.8514C170.492 21.5067 170.634 21.1755 170.762 20.88C170.892 20.5887 171.008 20.3247 171.101 20.1067C171.295 19.6666 171.421 19.4067 171.421 19.4067C171.421 19.4067 171.564 19.6666 171.768 20.1067C171.884 20.3226 171.985 20.5982 172.106 20.8999C172.223 21.207 172.345 21.5454 172.462 21.9048C172.518 22.0872 172.582 22.2737 172.64 22.4602C172.692 22.6509 172.752 22.8458 172.792 23.0512C172.886 23.4483 172.956 23.8664 173.013 24.2783C173.067 24.6922 173.103 25.1061 173.103 25.5032C173.099 25.9108 173.063 26.3006 172.991 26.6705C172.844 27.4082 172.578 28.0369 172.253 28.5703V28.5714Z" fill="#FFCD4F"/>
<path d="M162.005 30.5519C161.716 30.3737 161.432 30.1767 161.169 29.9714C160.908 29.7649 160.662 29.5501 160.432 29.3343C160.197 29.1236 159.964 28.9162 159.76 28.7118C159.556 28.5096 159.369 28.3116 159.205 28.1376C159.123 28.0443 159.048 27.9595 158.978 27.8819C158.906 27.8033 158.84 27.7331 158.776 27.6671C158.528 27.4031 158.395 27.2364 158.395 27.2364C158.395 27.2364 158.671 27.2029 159.128 27.1736C159.582 27.1453 160.231 27.1117 160.939 27.139C161.65 27.161 162.455 27.2281 163.241 27.3559C163.44 27.3926 163.636 27.4272 163.833 27.468C164.019 27.5162 164.206 27.5634 164.388 27.6158C164.753 27.7216 165.1 27.8473 165.419 27.994C165.733 28.1376 166.019 28.3 166.273 28.4761C166.526 28.6542 166.725 28.8522 166.917 29.0482C167.277 29.4453 167.536 29.8551 167.718 30.2239C167.891 30.5938 167.962 30.9302 168.008 31.1659C168.052 31.4038 168.056 31.5442 168.056 31.5442C168.056 31.5442 167.358 31.7077 166.361 31.7119C165.864 31.7171 165.299 31.6836 164.703 31.5788C164.099 31.4813 163.471 31.3116 162.868 31.0391C162.569 30.9008 162.282 30.7342 162.005 30.5519Z" fill="#FFCD4F"/>
<path d="M165.144 17.0486C164.971 17.647 164.727 18.1625 164.473 18.5848C163.966 19.4241 163.446 19.9009 163.446 19.9009C163.446 19.9009 162.934 19.5677 162.423 18.8918C162.296 18.721 162.166 18.5293 162.046 18.3134C161.921 18.1049 161.789 17.8733 161.681 17.6197C161.46 17.1115 161.3 16.4985 161.227 15.7839C161.153 15.0818 161.166 14.277 161.223 13.4555C161.287 12.6235 161.357 11.8124 161.452 11.0653C161.54 10.3213 161.634 9.66328 161.704 9.18231C161.781 8.71182 161.825 8.42261 161.825 8.42261C161.825 8.42261 161.881 8.47291 161.971 8.57874C162.055 8.68038 162.184 8.83127 162.344 9.01884C162.656 9.40026 163.082 9.93572 163.518 10.5655C163.931 11.2131 164.356 11.9529 164.699 12.7105C165.028 13.4817 165.261 14.2865 165.335 15.0221C165.353 15.2086 165.361 15.3888 165.361 15.5638C165.361 15.7388 165.349 15.919 165.331 16.0888C165.295 16.4314 165.229 16.7479 165.144 17.0486Z" fill="#FFCD4F"/>
<path d="M155.816 21.5955C155.652 21.5452 155.498 21.4865 155.337 21.4247C155.261 21.3943 155.185 21.3618 155.105 21.3314C155.021 21.2968 154.944 21.2665 154.87 21.2361C154.234 20.9846 153.661 20.6744 153.158 20.38C152.638 20.1065 152.212 19.8361 151.909 19.6381C151.762 19.5354 151.64 19.4484 151.562 19.3929C151.472 19.3373 151.428 19.308 151.428 19.308C151.428 19.308 151.496 19.2818 151.61 19.2367C151.735 19.1927 151.905 19.1299 152.117 19.0607C152.546 18.9203 153.148 18.738 153.847 18.5734C154.198 18.4928 154.567 18.4121 154.958 18.3429C155.151 18.3094 155.347 18.2758 155.542 18.2497C155.737 18.2266 155.937 18.2046 156.127 18.191C156.92 18.1218 157.71 18.1239 158.412 18.2381C159.101 18.3555 159.667 18.5954 160.137 18.8752C160.373 19.0156 160.586 19.1665 160.768 19.3237C160.947 19.484 161.097 19.6486 161.232 19.8047C161.765 20.4376 161.943 20.9793 161.943 20.9793C161.943 20.9793 161.311 21.3178 160.345 21.584C159.87 21.7202 159.307 21.8354 158.705 21.8931C158.095 21.9497 157.47 21.9277 156.798 21.8302C156.465 21.7768 156.135 21.694 155.815 21.5923L155.816 21.5955Z" fill="#FFCD4F"/>
<path d="M153.987 10.1758C153.862 10.443 153.774 10.5918 153.774 10.5918C153.774 10.5918 153.732 10.5771 153.671 10.5509C153.605 10.5247 153.511 10.4881 153.397 10.4315C153.16 10.3246 152.839 10.1559 152.493 9.89603C151.821 9.36476 150.987 8.57991 150.453 7.23026C150.275 6.78806 150.111 6.30081 149.968 5.78107C149.79 5.13663 149.648 4.44818 149.519 3.78069C149.385 3.12787 149.266 2.49287 149.172 1.92912C148.985 0.806855 148.885 0.00209573 148.885 0C148.885 0 149.288 0.242057 149.883 0.659107C150.178 0.864488 150.525 1.11598 150.892 1.40204C151.253 1.70173 151.63 2.03705 151.999 2.39751C152.232 2.62071 152.454 2.84705 152.667 3.08177C152.726 3.1415 152.779 3.20018 152.831 3.262C152.879 3.32173 152.93 3.3846 152.982 3.44957C153.08 3.57531 153.177 3.7021 153.271 3.83099C153.644 4.34235 153.965 4.87362 154.182 5.39545C154.328 5.73391 154.416 6.09123 154.48 6.42446C154.542 6.75977 154.573 7.08566 154.577 7.39792C154.59 8.01826 154.502 8.57677 154.377 9.04726C154.256 9.52194 154.106 9.90336 153.986 10.1737L153.987 10.1758Z" fill="#FFCD4F"/>
<path d="M145.007 14.0363C144.603 13.9566 144.221 13.8634 143.87 13.7701C143.519 13.6894 143.198 13.6056 142.931 13.5302C142.397 13.3751 142.068 13.2441 142.068 13.2441C142.068 13.2441 142.674 12.7841 143.607 12.2235C144.066 11.9437 144.612 11.6398 145.207 11.3569C145.795 11.0813 146.416 10.835 147.044 10.6485C147.525 10.505 148.007 10.3929 148.461 10.3446C149.849 10.22 150.942 10.6181 151.622 11.097C151.969 11.3307 152.223 11.5644 152.396 11.7404C152.484 11.8253 152.548 11.9007 152.587 11.951C152.627 12.0045 152.643 12.0359 152.643 12.0359C152.643 12.0359 152.519 12.1585 152.288 12.345C152.058 12.5315 151.716 12.783 151.287 13.0387C150.866 13.2986 150.359 13.5637 149.8 13.7764C149.514 13.8833 149.222 13.9839 148.915 14.0541C148.608 14.1316 148.292 14.184 147.953 14.2301C146.972 14.3506 145.954 14.1903 145.006 14.0394L145.007 14.0363Z" fill="#FFCD4F"/>
<path d="M130.522 93.0883C130.785 93.0559 131.117 93.015 131.493 92.971C131.679 92.9437 131.879 92.9301 132.088 92.8903C132.296 92.8536 132.513 92.8169 132.742 92.774C133.199 92.6975 133.692 92.6147 134.221 92.5215C134.741 92.4072 135.288 92.2857 135.854 92.1631C136.137 92.0971 136.427 92.0436 136.716 91.9629C136.999 91.8854 137.294 91.8047 137.588 91.7251C138.174 91.5616 138.778 91.417 139.361 91.2148C141.729 90.5022 143.996 89.5225 145.668 88.7397C146.081 88.5375 146.465 88.3489 146.799 88.1864C146.972 88.1016 147.126 88.0219 147.268 87.9507C147.411 87.8773 147.541 87.8019 147.659 87.74C148.131 87.4802 148.399 87.3282 148.399 87.3282C148.399 87.3282 148.664 87.1815 149.137 86.9206C149.608 86.6513 150.247 86.2364 151.035 85.7585C152.57 84.7484 154.573 83.338 156.41 81.7316C158.249 80.1263 159.939 78.3742 161.135 77.0005C161.291 76.836 161.42 76.662 161.552 76.5028C161.686 76.3435 161.806 76.1926 161.925 76.049C162.162 75.7651 162.362 75.5136 162.531 75.3071C162.703 75.1039 162.82 74.931 162.899 74.8178C162.985 74.7025 163.033 74.6438 163.033 74.6438C163.033 74.6438 163.212 74.4039 163.527 73.9743C163.679 73.7615 163.878 73.508 164.087 73.203C164.291 72.8991 164.521 72.5523 164.771 72.1772C164.896 71.9906 165.028 71.7947 165.162 71.5883C165.3 71.386 165.421 71.1681 165.553 70.9428C165.82 70.4985 166.098 70.0301 166.389 69.5449C166.652 69.0482 166.926 68.5316 167.203 68.0119C167.277 67.8778 167.345 67.7499 167.416 67.6158C167.477 67.4806 167.54 67.3444 167.606 67.2124C167.731 66.9399 167.861 66.6696 167.989 66.3961C168.994 64.2155 169.826 61.9615 170.303 60.2305C170.364 60.0157 170.425 59.8082 170.489 59.6122C170.541 59.4173 170.599 59.2329 170.641 59.0548C170.725 58.7016 170.801 58.3894 170.858 58.1347C170.983 57.6276 171.054 57.3342 171.054 57.3342C171.054 57.3342 171.072 57.2629 171.102 57.1277C171.132 56.9936 171.17 56.7872 171.218 56.5294C171.267 56.2737 171.319 55.9646 171.387 55.6041C171.449 55.2489 171.543 54.8434 171.591 54.397C171.648 53.9548 171.716 53.4728 171.782 52.9656C171.795 52.8378 171.817 52.7099 171.83 52.58C171.85 52.4469 171.854 52.3159 171.868 52.1808C171.886 51.9115 171.912 51.639 171.934 51.3582C172.05 50.2454 172.05 49.0518 172.085 47.8573C172.05 46.6638 172.05 45.4703 171.934 44.3543C171.912 44.0766 171.886 43.8021 171.868 43.5338C171.854 43.3986 171.85 43.2666 171.83 43.1367C171.817 43.0046 171.795 42.8768 171.782 42.7469C171.716 42.2428 171.648 41.7577 171.591 41.3155C171.543 40.8712 171.449 40.4709 171.387 40.1104C171.319 39.7531 171.267 39.4408 171.218 39.1831C171.17 38.9274 171.132 38.7231 171.102 38.5889C171.072 38.4506 171.054 38.3773 171.054 38.3773C171.054 38.3773 170.984 38.0891 170.858 37.5798C170.801 37.3263 170.724 37.0171 170.641 36.663C170.599 36.4848 170.542 36.2962 170.489 36.1013C170.425 35.9064 170.364 35.701 170.303 35.4831C169.827 33.7541 168.995 31.5001 167.989 29.3174C167.861 29.0481 167.732 28.7736 167.606 28.5043C167.54 28.366 167.476 28.235 167.416 28.0998C167.345 27.9678 167.277 27.8378 167.203 27.7037C166.926 27.1819 166.652 26.6653 166.389 26.1707C166.098 25.6855 165.82 25.2171 165.553 24.7728C165.421 24.5528 165.3 24.3306 165.162 24.1253C165.028 23.923 164.896 23.7281 164.771 23.5395C164.52 23.1633 164.29 22.8165 164.087 22.5126C163.878 22.2077 163.679 21.9541 163.527 21.7414C163.211 21.3149 163.033 21.0718 163.033 21.0718C163.033 21.0718 162.985 21.011 162.899 20.8957C162.821 20.7826 162.704 20.6118 162.531 20.4095C162.362 20.2042 162.162 19.9527 161.925 19.6666C161.806 19.5241 161.686 19.3732 161.552 19.2087C161.42 19.0525 161.291 18.8797 161.135 18.713C159.938 17.3414 158.249 15.5904 156.41 13.9861C154.573 12.3787 152.57 10.9672 151.035 9.95814C150.247 9.47926 149.609 9.06536 149.137 8.79815C148.665 8.53828 148.399 8.38634 148.399 8.38634C148.399 8.38634 148.131 8.23859 147.659 7.97872C147.541 7.91375 147.411 7.84459 147.268 7.76496C147.126 7.6937 146.972 7.61616 146.799 7.53443C146.687 7.47889 146.57 7.42021 146.448 7.36363H146.42C146.119 7.38773 145.696 7.40344 145.197 7.3741C144.198 7.32905 142.899 7.12262 141.758 6.49809C141.165 6.19316 140.61 5.78135 140.125 5.33915C139.89 5.11281 139.64 4.88857 139.414 4.66433C139.187 4.44113 138.979 4.21479 138.792 4.00208C138.425 3.56617 138.085 3.18893 137.862 2.90601C137.649 2.62623 137.519 2.4481 137.519 2.4481C137.519 2.4481 137.796 2.43762 138.247 2.43238C138.706 2.42819 139.342 2.44076 140.062 2.49944C140.245 2.51516 140.431 2.52983 140.618 2.55183C140.804 2.57489 140.995 2.60108 141.186 2.63252C141.565 2.6912 141.956 2.76665 142.342 2.85571C143.106 3.03804 143.89 3.27381 144.48 3.60808C145.09 3.93711 145.56 4.33949 145.916 4.7492C146.258 5.16416 146.473 5.59483 146.629 5.97625C146.77 6.35348 146.846 6.68775 146.878 6.92771C146.886 6.97592 146.886 7.01678 146.891 7.0587C146.935 7.0828 146.981 7.10585 147.025 7.12366C147.194 7.20854 147.354 7.28818 147.502 7.35943C147.642 7.43802 147.777 7.50928 147.897 7.57634C148.369 7.83831 148.639 7.99025 148.639 7.99025C148.639 7.99025 148.916 8.138 149.385 8.40415C149.857 8.67346 150.506 9.09051 151.302 9.57776C152.853 10.5942 154.881 12.0203 156.736 13.6456C158.593 15.2635 160.3 17.0354 161.505 18.4196C161.661 18.5883 161.794 18.7644 161.926 18.9205C162.06 19.0829 162.185 19.237 162.301 19.3837C162.54 19.6718 162.744 19.9233 162.913 20.1298C163.086 20.3351 163.202 20.5122 163.29 20.6233C163.376 20.7365 163.424 20.7993 163.424 20.7993C163.424 20.7993 163.602 21.0456 163.918 21.4731C164.074 21.6921 164.278 21.9478 164.487 22.2527C164.695 22.5629 164.924 22.9118 165.176 23.2933C165.31 23.484 165.439 23.682 165.578 23.8874C165.71 24.0917 165.834 24.3149 165.973 24.5381C166.239 24.9845 166.524 25.4613 166.813 25.9538C167.079 26.4547 167.36 26.9723 167.634 27.5036C167.706 27.6377 167.776 27.7676 167.848 27.9018C167.91 28.0348 167.975 28.1732 168.039 28.3083C168.167 28.585 168.296 28.8606 168.426 29.1361C169.444 31.3367 170.289 33.6126 170.764 35.3615C170.832 35.5795 170.894 35.7859 170.946 35.9892C171.01 36.1872 171.071 36.3706 171.106 36.5508C171.192 36.9082 171.267 37.2225 171.33 37.4803C171.449 37.9916 171.525 38.285 171.525 38.285C171.525 38.285 171.543 38.3605 171.574 38.4957C171.608 38.6361 171.64 38.8404 171.69 39.0982C171.734 39.3581 171.795 39.6745 171.863 40.0339C171.925 40.3986 172.017 40.8031 172.067 41.2516C172.124 41.7 172.192 42.1852 172.258 42.7007C172.27 42.8286 172.292 42.9606 172.306 43.0895C172.324 43.2257 172.332 43.3588 172.346 43.494C172.37 43.7633 172.388 44.0378 172.41 44.3249C172.528 45.4472 172.528 46.6522 172.57 47.8594C172.528 49.0665 172.528 50.2716 172.41 51.3959C172.388 51.6799 172.37 51.9534 172.346 52.2269C172.333 52.3631 172.324 52.4983 172.306 52.6272C172.292 52.7581 172.27 52.8912 172.258 53.018C172.192 53.5294 172.124 54.0208 172.067 54.4672C172.017 54.9136 171.925 55.3212 171.863 55.6848C171.795 56.0453 171.733 56.3586 171.69 56.6185C171.64 56.8763 171.608 57.0827 171.574 57.2231C171.543 57.3583 171.525 57.4316 171.525 57.4316C171.525 57.4316 171.449 57.7261 171.33 58.2385C171.267 58.4984 171.192 58.8096 171.106 59.1658C171.072 59.3461 171.01 59.5347 170.946 59.7327C170.894 59.9308 170.832 60.1393 170.764 60.3594C170.29 62.1061 169.444 64.38 168.426 66.5847C168.296 66.8614 168.167 67.1369 168.039 67.4073C167.975 67.5446 167.909 67.6808 167.848 67.817C167.776 67.948 167.706 68.0832 167.634 68.2162C167.359 68.7433 167.078 69.2631 166.813 69.7639C166.524 70.2554 166.238 70.7301 165.973 71.1775C165.834 71.4007 165.71 71.6239 165.578 71.8314C165.439 72.0336 165.31 72.2348 165.176 72.4255C164.924 72.8048 164.695 73.1538 164.487 73.4629C164.278 73.772 164.074 74.0277 163.918 74.2425C163.601 74.6721 163.424 74.9163 163.424 74.9163C163.424 74.9163 163.376 74.9792 163.29 75.0965C163.202 75.2107 163.086 75.3815 162.913 75.588C162.744 75.7944 162.54 76.048 162.301 76.3361C162.185 76.4807 162.06 76.6348 161.926 76.7951C161.794 76.9533 161.661 77.1336 161.505 77.3002C160.3 78.6875 158.593 80.4563 156.736 82.0732C154.881 83.6963 152.853 85.1235 151.302 86.1431C150.507 86.6304 149.858 87.0464 149.385 87.3167C148.916 87.5808 148.639 87.7275 148.639 87.7275C148.639 87.7275 148.369 87.8815 147.897 88.1414C147.777 88.2084 147.642 88.2797 147.502 88.3593C147.355 88.4327 147.195 88.5092 147.025 88.592C146.688 88.7586 146.305 88.9514 145.882 89.1547C144.194 89.9437 141.898 90.9318 139.509 91.6507C138.916 91.8571 138.313 91.9996 137.716 92.1673C137.424 92.248 137.126 92.3297 136.836 92.4072C136.548 92.49 136.254 92.5435 135.969 92.6126C135.396 92.7363 134.846 92.8557 134.317 92.9752C133.792 93.0663 133.29 93.1512 132.827 93.2309C132.596 93.2707 132.374 93.3105 132.164 93.3461C131.952 93.3859 131.752 93.3996 131.561 93.4278C131.184 93.4729 130.855 93.5127 130.578 93.5452C130.036 93.6123 129.724 93.6531 129.724 93.6531L129.676 93.19C129.676 93.19 129.987 93.1502 130.526 93.0852L130.522 93.0883Z" fill="#FFCD4F"/>
</g>
<defs>
<clipPath id="clip0_17130_92">
<rect width="180" height="96.5575" fill="white"/>
</clipPath>
</defs>
</svg>
