<svg xmlns="http://www.w3.org/2000/svg" width="13.35" height="21" viewBox="0 0 13.35 21">
  <g id="Group_105071" data-name="Group 105071" transform="translate(-3438.347 -979)">
    <path id="Path_75000" data-name="Path 75000" d="M288.287,185.186h-2.5l1.238-3.381a.79.79,0,0,0-1.481-.552l-1.635,4.442a.851.851,0,0,0,.089.729.78.78,0,0,0,.638.331h2.5l-1.238,3.381a.8.8,0,0,0,.465,1.017,1.111,1.111,0,0,0,.265.044.764.764,0,0,0,.729-.509l1.635-4.442a.851.851,0,0,0-.089-.729.709.709,0,0,0-.618-.332Z" transform="translate(3158.544 804.842)" fill="#fff"/>
    <path id="Path_75001" data-name="Path 75001" d="M191.863,81.2h-8.62a2.367,2.367,0,0,0-2.365,2.365V97.182a2.367,2.367,0,0,0,2.365,2.365h8.62a2.367,2.367,0,0,0,2.365-2.365V83.565A2.367,2.367,0,0,0,191.863,81.2Zm.774,15.98a.792.792,0,0,1-.8.8h-8.62a.792.792,0,0,1-.8-.8V83.563a.792.792,0,0,1,.8-.8h8.62a.792.792,0,0,1,.8.8Z" transform="translate(3257.469 900.453)" fill="#fff"/>
    <path id="Path_75002" data-name="Path 75002" d="M290.951,15.569h4.042a.3.3,0,0,0,.309-.309v-.95A.3.3,0,0,0,295,14h-4.042a.3.3,0,0,0-.309.309v.95a.3.3,0,0,0,.307.31Z" transform="translate(3152.037 965)" fill="#fff"/>
  </g>
</svg>
