<svg width="21" height="20" viewBox="0 0 21 20" fill="none" xmlns="http://www.w3.org/2000/svg">
<g clip-path="url(#clip0_12173_755)">
<path d="M17.4286 18.8571L7.88569 15.2999C7.60322 15.2001 7.35038 15.0309 7.15045 14.8078C6.95054 14.5846 6.80995 14.3149 6.74165 14.0232C6.67335 13.7315 6.67954 13.4273 6.75964 13.1387C6.83972 12.85 6.99115 12.5861 7.19998 12.3713L13.1857 6.3856C13.4068 6.17836 13.6767 6.0303 13.9703 5.95515C14.2638 5.88 14.5716 5.88019 14.8651 5.95569C15.1586 6.0312 15.4283 6.17959 15.6491 6.3871C15.87 6.59462 16.0349 6.85453 16.1286 7.14275L19.6714 16.6856C19.7699 16.9948 19.78 17.3252 19.7007 17.6399C19.6216 17.9545 19.456 18.2408 19.223 18.4664C18.9899 18.6921 18.6984 18.8482 18.3814 18.9172C18.0644 18.9862 17.7344 18.9654 17.4286 18.8571Z" fill="#ECF3FF"/>
<path d="M17.4286 18.8571L7.88569 15.2999C7.60322 15.2001 7.35038 15.0309 7.15045 14.8078C6.95054 14.5846 6.80995 14.3149 6.74165 14.0232C6.67335 13.7315 6.67954 13.4273 6.75964 13.1387C6.83972 12.85 6.99115 12.5861 7.19998 12.3713L13.1857 6.3856C13.4068 6.17836 13.6767 6.0303 13.9703 5.95515C14.2638 5.88 14.5716 5.88019 14.8651 5.95569C15.1586 6.0312 15.4283 6.17959 15.6491 6.3871C15.87 6.59462 16.0349 6.85453 16.1286 7.14275L19.6714 16.6856C19.7699 16.9948 19.78 17.3252 19.7007 17.6399C19.6216 17.9545 19.456 18.2408 19.223 18.4664C18.9899 18.6921 18.6984 18.8482 18.3814 18.9172C18.0644 18.9862 17.7344 18.9654 17.4286 18.8571Z" stroke="#1163FB" stroke-width="1.5" stroke-linecap="round" stroke-linejoin="round"/>
<path d="M3.42854 10.1856C4.06291 9.83155 4.80581 9.72469 5.51426 9.88557" stroke="#1163FB" stroke-width="1.5" stroke-linecap="round" stroke-linejoin="round"/>
<path d="M6.6857 6.1144C6.28116 5.50454 6.1135 4.76783 6.21427 4.04297" stroke="#1163FB" stroke-width="1.5" stroke-linecap="round" stroke-linejoin="round"/>
<path d="M9.97143 1.02832C9.47073 2.56213 9.53661 4.22465 10.1571 5.71403" stroke="#1163FB" stroke-width="1.5" stroke-linecap="round" stroke-linejoin="round"/>
<path d="M1.92856 5.39976C2.32305 5.39976 2.64285 5.07996 2.64285 4.68548C2.64285 4.29099 2.32305 3.97119 1.92856 3.97119C1.53408 3.97119 1.21428 4.29099 1.21428 4.68548C1.21428 5.07996 1.53408 5.39976 1.92856 5.39976Z" stroke="#1163FB" stroke-width="1.5" stroke-linecap="round" stroke-linejoin="round"/>
</g>
<defs>
<clipPath id="clip0_12173_755">
<rect width="20" height="20" fill="white" transform="translate(0.5)"/>
</clipPath>
</defs>
</svg>
