<svg xmlns="http://www.w3.org/2000/svg" width="21.346" height="21.345" viewBox="0 0 21.346 21.345">
  <g id="Automated_payments" data-name="Automated payments" transform="translate(-2324.008 -924.161)">
    <path id="Path_1721" data-name="Path 1721" d="M2341.119,969.763a8.82,8.82,0,0,1-6.437,2.755,8.914,8.914,0,0,1-8.69-6.982l1.8,1.335a.888.888,0,1,0,1.056-1.427l-3.428-2.537a.888.888,0,0,0-1.416.712,10.674,10.674,0,0,0,18.4,7.369.888.888,0,1,0-1.284-1.227Z" transform="translate(0 -28.786)" fill="#fff"/>
    <path id="Path_1722" data-name="Path 1722" d="M2343.687,924.161a10.631,10.631,0,0,0-7.335,2.919.888.888,0,1,0,1.22,1.29,8.9,8.9,0,0,1,14.834,4.692l-2.267-1.5a.888.888,0,0,0-.983,1.478l3.823,2.537a.888.888,0,0,0,1.379-.74A10.686,10.686,0,0,0,2343.687,924.161Z" transform="translate(-9.006)" fill="#fff"/>
    <path id="Path_1723" data-name="Path 1723" d="M2358.307,951.216h-2.121a.888.888,0,0,0,0,1.776h1.143v1.428a.888.888,0,1,0,1.776,0v-1.544a1.578,1.578,0,0,0,1.245-1.447v-1.623c0-.891-.876-1.563-2.043-1.563h-.967a.951.951,0,0,1-.267-.035v-1.282a.946.946,0,0,1,.267-.036h2.121a.888.888,0,1,0,0-1.776h-.357v-1.284a.888.888,0,1,0-1.776,0v1.284c-1.159,0-2.031.674-2.031,1.562v1.779c0,.891.876,1.563,2.042,1.563h.967a.952.952,0,0,1,.267.035v1.125A.951.951,0,0,1,2358.307,951.216Z" transform="translate(-23.352 -14.018)" fill="#fff"/>
  </g>
</svg>
