<svg width="21" height="20" viewBox="0 0 21 20" fill="none" xmlns="http://www.w3.org/2000/svg">
<g clip-path="url(#clip0_12172_546)">
<path d="M1.25858 7.18841C1.25858 8.90531 1.94061 10.5519 3.15464 11.7659C4.36867 12.98 6.01525 13.662 7.73215 13.662C9.44904 13.662 11.0956 12.98 12.3097 11.7659C13.5237 10.5519 14.2057 8.90531 14.2057 7.18841C14.2057 5.47152 13.5237 3.82494 12.3097 2.61091C11.0956 1.39688 9.44904 0.714844 7.73215 0.714844C6.01525 0.714844 4.36867 1.39688 3.15464 2.61091C1.94061 3.82494 1.25858 5.47152 1.25858 7.18841Z" fill="#ECF3FF"/>
<path d="M10.4557 19.9985V11.7842C10.4557 11.3106 10.6439 10.8564 10.9787 10.5216C11.3136 10.1867 11.7678 9.99854 12.2414 9.99854C12.715 9.99854 13.1692 10.1867 13.5041 10.5216C13.839 10.8564 14.0271 11.3106 14.0271 11.7842V15.7128H16.8843C17.6421 15.7128 18.3688 16.0138 18.9046 16.5497C19.4404 17.0855 19.7414 17.8122 19.7414 18.57V19.9985" fill="white"/>
<path d="M10.4557 19.2842V11.7842C10.4557 11.5497 10.5019 11.3175 10.5916 11.1009C10.6814 10.8842 10.8129 10.6874 10.9787 10.5216C11.1446 10.3557 11.3414 10.2242 11.5581 10.1345C11.7747 10.0447 12.0069 9.99854 12.2414 9.99854C12.715 9.99854 13.1692 10.1867 13.5041 10.5216C13.839 10.8564 14.0271 11.3106 14.0271 11.7842V15.7128H16.8843C17.6421 15.7128 18.3688 16.0138 18.9046 16.5497C19.4404 17.0855 19.7414 17.8122 19.7414 18.57V19.2842" stroke="#1163FB" stroke-width="1.5" stroke-linecap="round" stroke-linejoin="round"/>
<path d="M7.73287 13.6625C6.41484 13.6623 5.12827 13.2598 4.04518 12.5087C2.96209 11.7576 2.1341 10.6938 1.67191 9.45946C1.20973 8.22512 1.13537 6.8791 1.45879 5.60136C1.7822 4.32363 2.48798 3.17507 3.48175 2.30926C4.47552 1.44344 5.70992 0.901641 7.01991 0.756285C8.3299 0.610929 9.65305 0.868949 10.8125 1.49585C11.9719 2.12275 12.9122 3.08865 13.5079 4.2644C14.1036 5.44016 14.3261 6.76974 14.1457 8.07537" stroke="#1163FB" stroke-width="1.5" stroke-linecap="round"/>
<path d="M9.55429 5.28534C9.45612 5.00642 9.27381 4.76483 9.03252 4.5939C8.79123 4.42298 8.50284 4.33114 8.20714 4.33105H7.1C6.78592 4.33194 6.4832 4.44865 6.24983 4.65885C6.01645 4.86904 5.86881 5.15795 5.8352 5.47022C5.80158 5.7825 5.88435 6.09621 6.06764 6.35126C6.25093 6.60631 6.52188 6.78478 6.82857 6.85248L8.51143 7.22105C8.85577 7.29621 9.16018 7.49601 9.36612 7.78203C9.57207 8.06805 9.66501 8.4201 9.62708 8.77051C9.58915 9.12091 9.42303 9.44492 9.16065 9.68025C8.89827 9.91558 8.55817 10.0456 8.20572 10.0453H7.25286C6.95751 10.0455 6.66938 9.95405 6.42812 9.78366C6.18687 9.61328 6.00436 9.3723 5.90572 9.09391" stroke="#1163FB" stroke-width="1.5" stroke-linecap="round" stroke-linejoin="round"/>
<path d="M7.73143 4.3314V2.90283" stroke="#1163FB" stroke-width="1.5" stroke-linecap="round" stroke-linejoin="round"/>
<path d="M7.73143 11.474V10.0454" stroke="#1163FB" stroke-width="1.5" stroke-linecap="round" stroke-linejoin="round"/>
</g>
<defs>
<clipPath id="clip0_12172_546">
<rect width="20" height="20" fill="white" transform="translate(0.5)"/>
</clipPath>
</defs>
</svg>
