<svg width="32" height="33" viewBox="0 0 32 33" fill="none" xmlns="http://www.w3.org/2000/svg">
<path d="M20.4755 32.0142H11.5354C10.6735 32.0139 9.81508 31.906 8.97996 31.693C7.46089 31.3216 6.03836 30.6309 4.80704 29.6669C3.57572 28.7029 2.56386 27.4877 1.83881 26.1021C1.07897 24.6864 0.646267 23.1183 0.572547 21.5133C0.53454 20.7572 0.574228 19.9992 0.690987 19.2512C0.70463 19.16 0.721993 19.0794 0.737495 18.9802L0.774082 18.7737L0.836092 18.8357C0.860746 18.861 0.878101 18.8925 0.886321 18.9268C0.917326 19.0279 0.948332 19.1296 0.975616 19.2307C1.03763 19.4422 1.09964 19.6648 1.17157 19.8682C1.7471 21.4699 2.59391 22.9607 3.67494 24.2753C3.71795 24.3263 3.75173 24.3844 3.77478 24.447C4.1568 25.6323 4.84951 26.6935 5.78082 27.5203C6.72647 28.3575 7.84093 28.9818 9.04879 29.3508C8.2542 29.0127 7.50775 28.5711 6.8288 28.0375C5.77406 27.2281 4.96334 26.1431 4.48604 24.9022C4.4236 24.7656 4.41562 24.6104 4.46372 24.4681C4.48339 24.4118 4.50015 24.3544 4.51395 24.2964C4.52449 24.2567 4.53441 24.2176 4.54681 24.1723C4.7512 23.4356 5.14801 22.7665 5.69649 22.2339C6.24089 21.7428 6.89493 21.3892 7.60394 21.2026C8.34533 21.0066 9.10115 20.87 9.86423 20.794L10.1854 20.7524C10.6046 20.6979 11.0294 20.6284 11.4381 20.5664L11.6861 20.5286C11.7773 20.5149 11.8721 20.4939 11.9645 20.474L12.1952 20.4256L12.1332 20.5286C12.129 20.5372 12.1238 20.5454 12.1177 20.5528C11.7281 20.9881 11.4005 21.4752 11.1441 22.0001C11.1207 22.0462 11.0809 22.0818 11.0325 22.0999L10.8607 22.1545C10.6847 22.2174 10.505 22.2692 10.3225 22.3095C10.1247 22.3492 9.92376 22.3765 9.72718 22.4038C9.5703 22.4261 9.41713 22.4484 9.25776 22.4757C8.80847 22.536 8.38304 22.7138 8.02437 22.991C8.09134 22.9755 8.16203 22.965 8.22901 22.9544C8.32446 22.9438 8.41871 22.9243 8.51053 22.8961C9.04877 22.7189 9.61335 22.635 10.1799 22.6481H10.2673C10.3855 22.6462 10.5036 22.6504 10.6214 22.6605L10.8521 22.671L10.8347 22.7275C10.3639 24.1891 10.3772 25.7636 10.8725 27.2171C10.6684 26.3079 10.6287 25.3696 10.7553 24.4464C10.9371 23.1344 11.5581 21.9228 12.517 21.0092C13.2531 20.3222 14.1051 19.7711 15.0334 19.3814C15.9132 19.0137 16.8249 18.7274 17.757 18.5263L17.9287 18.4847C18.5594 18.3334 19.2111 18.1747 19.843 17.9886C20.7531 17.7338 21.5913 17.2706 22.2912 16.6355C22.403 16.5388 22.5067 16.433 22.6012 16.3193C23.1962 15.5231 23.99 14.8971 24.9031 14.5042C24.9339 14.4884 24.9595 14.4641 24.9769 14.4342C25.2382 13.986 25.6101 13.6124 26.0571 13.349C26.1437 13.2961 26.2427 13.267 26.3442 13.2646C26.4732 13.2691 26.5971 13.3162 26.6964 13.3986C26.7383 13.4307 26.7778 13.4658 26.8148 13.5034C26.9805 13.675 27.1122 13.8763 27.203 14.0968C27.2069 14.1093 27.2147 14.1202 27.2252 14.128C27.2356 14.1358 27.2483 14.1401 27.2613 14.1402C27.3711 14.1539 27.4846 14.1694 27.6055 14.1923C28.4915 14.3577 29.2988 14.8091 29.9037 15.4774C30.5085 16.1456 30.8775 16.9938 30.9541 17.8919C30.9541 17.944 30.9646 17.9948 30.9677 18.0469C30.9728 18.169 30.9917 18.29 31.0241 18.4078C31.0755 18.552 31.1377 18.6922 31.2102 18.827C31.2393 18.889 31.2722 18.951 31.2976 19.013C31.323 19.075 31.346 19.1178 31.3714 19.1699C31.4297 19.2939 31.4898 19.418 31.5432 19.5482C31.619 19.7412 31.6282 19.954 31.5692 20.1528C31.5432 20.2402 31.4905 20.2539 31.4607 20.2539C31.4357 20.253 31.4115 20.2453 31.3906 20.2315C31.3407 20.1985 31.2924 20.1629 31.2461 20.1249L31.1792 20.0728L31.1035 20.0145C31.0497 19.9687 30.9922 19.9272 30.9317 19.8905C30.9114 19.8786 30.8883 19.872 30.8648 19.8713C30.8409 19.8715 30.8177 19.8786 30.7978 19.8917L30.8852 19.9686C31.0403 20.1063 31.1953 20.2433 31.3478 20.3847C31.3641 20.401 31.3769 20.4203 31.3855 20.4416C31.3941 20.4629 31.3984 20.4858 31.3981 20.5087C31.3895 20.774 31.283 21.0267 31.0992 21.2181C31.013 21.3166 30.9074 21.3962 30.7891 21.4521C30.6708 21.508 30.5423 21.539 30.4115 21.5431C30.3568 21.5427 30.3022 21.5376 30.2484 21.5276C30.2507 21.5644 30.2411 21.601 30.221 21.6319C30.2009 21.6629 30.1713 21.6865 30.1368 21.6993C29.6741 21.963 29.1518 22.1043 28.6194 22.1099H28.5356C28.1582 22.1175 27.7895 22.2244 27.4666 22.4199C27.3553 22.4849 27.2364 22.5357 27.1125 22.5712C26.7996 22.6496 26.4793 22.6945 26.1569 22.7052C26.2914 22.723 26.4268 22.7317 26.5625 22.7312C26.6587 22.7326 26.7549 22.7291 26.8508 22.7207H27.0368C27.0851 22.7193 27.1332 22.7275 27.1782 22.7448C27.4449 22.8534 27.7059 22.9854 27.9503 23.1113C27.9853 23.1322 28.0249 23.1441 28.0656 23.1461C28.0839 23.1459 28.102 23.1424 28.1189 23.1355L28.1909 23.1095C28.3248 23.0592 28.4619 23.0065 28.5927 22.9476C28.8578 22.8196 29.1473 22.7498 29.4416 22.743C29.513 22.7432 29.5843 22.7484 29.6549 22.7585C29.8618 22.7785 30.0621 22.8419 30.2428 22.9445C30.3079 22.9771 30.3636 23.0259 30.4046 23.0861C30.4455 23.1464 30.4703 23.2161 30.4766 23.2887C30.4818 23.2995 30.4895 23.3091 30.4989 23.3166L30.5708 23.3786L30.6446 23.4406C30.7165 23.5042 30.7719 23.5844 30.8061 23.6741C30.8402 23.7639 30.852 23.8606 30.8406 23.9559C30.8406 24.0123 30.8214 24.1481 30.7066 24.1481C30.6598 24.1448 30.6143 24.1306 30.5739 24.1066C30.5532 24.0952 30.5314 24.0859 30.5088 24.0787C30.5653 24.1134 30.6186 24.1469 30.6806 24.1835C30.7439 24.2264 30.7946 24.2855 30.8273 24.3547C30.86 24.4238 30.8736 24.5005 30.8666 24.5766C30.8409 24.7784 30.7434 24.9642 30.592 25.1001C30.4405 25.2359 30.2453 25.3127 30.0419 25.3164C29.9939 25.3163 29.9461 25.3111 29.8993 25.3009C29.8253 25.2903 29.7546 25.2637 29.692 25.223C29.6293 25.1823 29.5763 25.1285 29.5365 25.0653C29.5321 25.0602 29.5269 25.056 29.521 25.0529H29.4509C29.3677 25.0533 29.2846 25.0614 29.2029 25.0771H29.1806C29.0453 25.1133 28.9063 25.1341 28.7663 25.1391C28.712 25.1391 28.6578 25.1339 28.6045 25.1236C28.5425 25.1112 28.4805 25.0957 28.4153 25.0802L28.3688 25.0696C28.2958 25.31 28.1792 25.535 28.0247 25.7331C27.6485 26.2009 27.139 26.5433 26.5637 26.7148C26.0962 26.8656 25.6076 26.9409 25.1164 26.938C24.8381 26.9369 24.5602 26.9162 24.2848 26.876C23.7658 26.8219 23.2724 26.6236 22.8602 26.3036C22.448 25.9836 22.1337 25.5547 21.9526 25.0653C21.8835 24.8888 21.8261 24.708 21.7808 24.5239C21.7585 24.4365 21.7343 24.3522 21.7107 24.261C21.588 23.834 21.415 23.4231 21.1954 23.0369C20.8628 22.4166 20.3561 21.907 19.7376 21.571C19.2607 21.3199 18.7293 21.19 18.1904 21.1927C17.9496 21.1932 17.7093 21.215 17.4723 21.2578L17.3223 21.2888C18.234 21.3094 19.1251 21.5649 19.9093 22.0305C20.6754 22.4695 21.2381 23.1923 21.4757 24.0427C21.6008 24.5138 21.7734 24.9709 21.991 25.407C22.1266 25.6996 22.3037 25.9711 22.5169 26.2131C22.8843 26.5886 23.3503 26.8526 23.8613 26.9746C24.0213 27.0192 24.1806 27.0688 24.3394 27.1191C24.3829 27.1331 24.4225 27.1573 24.4549 27.1896C24.4872 27.222 24.5114 27.2616 24.5254 27.3051C24.6162 27.5337 24.6394 27.7836 24.5924 28.0251C24.5121 28.3958 24.3342 28.7384 24.0771 29.0172C23.8554 29.2528 23.6035 29.458 23.328 29.6274C23.2005 29.7123 23.0781 29.8047 22.9615 29.904C22.9158 29.94 22.8792 29.9863 22.8547 30.0391C22.8301 30.0919 22.8183 30.1497 22.8201 30.2078C22.8201 30.3939 22.8424 30.4019 22.8766 30.4019C22.9279 30.3972 22.9784 30.3856 23.0266 30.3672C23.0637 30.355 23.0999 30.3405 23.1351 30.3238L23.3534 30.2295L23.7255 30.0695C23.9773 29.9601 24.2484 29.9017 24.5229 29.8978C24.6605 29.8977 24.7977 29.9137 24.9316 29.9455C25.1526 29.9877 25.3575 30.0904 25.5236 30.2421C25.6897 30.3938 25.8104 30.5887 25.8723 30.805C25.8919 30.8549 25.9005 30.9084 25.8975 30.9619C25.8945 31.0154 25.88 31.0677 25.8549 31.115C25.8362 31.1444 25.8109 31.1692 25.7812 31.1873C25.7514 31.2055 25.7179 31.2166 25.6832 31.2198C25.6209 31.2082 25.5654 31.1731 25.5281 31.1219C25.5077 31.0963 25.4956 31.0652 25.4934 31.0326C25.4934 31.022 25.4934 31.0133 25.4934 31.0047C25.4693 30.8747 25.4022 30.7566 25.303 30.6692C25.4579 30.871 25.5353 31.1215 25.5213 31.3755C25.5184 31.4365 25.503 31.4963 25.4761 31.5511C25.4491 31.6059 25.4113 31.6547 25.3648 31.6943C25.3183 31.7339 25.2642 31.7636 25.2058 31.7815C25.1474 31.7994 25.0859 31.8052 25.0252 31.7984H24.9924C24.9506 31.7988 24.9101 31.784 24.8785 31.7567C24.8469 31.7294 24.8263 31.6916 24.8206 31.6502C24.8172 31.5882 24.8172 31.5261 24.8206 31.4642V31.2899C24.8252 31.2224 24.8252 31.1547 24.8206 31.0871C24.8127 31.0206 24.7848 30.958 24.7405 30.9077C24.6962 30.8574 24.6376 30.8218 24.5725 30.8056H24.5415C24.5875 30.831 24.6252 30.8691 24.6501 30.9154C24.7031 31.006 24.7447 31.1029 24.7741 31.2037C24.8083 31.3077 24.8077 31.42 24.7723 31.5237C24.7369 31.6273 24.6688 31.7165 24.5781 31.7779C24.4777 31.8359 24.3657 31.871 24.2501 31.8809C24.2065 31.8839 24.1628 31.8839 24.1192 31.8809C23.9592 31.8747 23.8004 31.85 23.6461 31.8071L23.5692 31.7879C23.3351 31.7244 23.0888 31.7208 22.853 31.7773L22.8028 31.786C22.075 31.9233 21.3364 31.9951 20.5958 32.0006L20.4755 32.0142Z" fill="#E65270"/>
<path opacity="0.2" d="M27.0133 22.6415C26.6109 23.064 26.086 23.3494 25.5127 23.4575C24.9393 23.5657 24.3465 23.4911 23.8179 23.2442C21.9756 22.5045 22.6465 20.46 22.6465 20.46C22.8395 21.1819 23.2965 21.8051 23.927 22.2062C24.8974 22.628 25.9641 22.7785 27.0133 22.6415Z" fill="#430A1D"/>
<path opacity="0.2" d="M21.1776 23.2467C21.3767 23.4918 21.4967 23.7915 21.5218 24.1062C21.6424 24.7009 21.891 25.2623 22.2504 25.7513C22.6085 26.2264 23.0944 26.5898 23.6512 26.7993C24.1529 26.9916 24.7972 26.9351 24.6992 27.6811L24.5274 28.3099C23.9005 28.3492 23.277 28.1912 22.7443 27.8583C22.2116 27.5254 21.7965 27.0341 21.5571 26.4533C21.1292 25.3371 21.6328 23.9902 20.333 22.1045C20.4421 22.2223 21.0449 23.1115 21.1776 23.2467Z" fill="#430A1D"/>
<g opacity="0.2">
<path d="M20.6692 22.6885C20.6885 22.7672 20.7071 22.8485 20.7238 22.9291C20.6973 22.8956 20.6786 22.8566 20.6692 22.815C20.6597 22.7733 20.6598 22.7301 20.6692 22.6885Z" fill="#2B2B2B"/>
</g>
<path d="M5.74552 27.5659C0.912402 27.0878 0.350585 22.2788 0.350585 22.2788C0.210274 20.7977 0.326703 19.3034 0.694744 17.8618C1.08789 21.8404 4.28144 24.5962 4.28144 24.5962C4.28144 24.5962 4.9803 26.8633 5.74552 27.5659Z" fill="url(#paint0_linear_23_264)"/>
<path opacity="0.2" d="M4.53794 25.7337C4.53794 25.7337 3.52344 25.8298 2.17285 24.1865C3.47508 26.5516 5.16673 26.5913 5.16673 26.5913L4.53794 25.7337Z" fill="#2B2B2B"/>
<path d="M7.14926 28.4962C6.89625 24.0482 9.50566 26.1125 10.8569 23.7524C11.0812 22.522 11.6034 21.3653 12.378 20.3834C12.378 20.3834 4.29118 18.8691 4.16406 24.765C4.44559 26.0418 5.68332 27.2765 6.45846 27.945C6.30715 27.6008 4.37676 22.2902 10.8054 22.723C8.58542 22.5339 5.38257 24.8525 6.90866 28.3263C6.98519 28.388 7.06556 28.4447 7.14926 28.4962Z" fill="url(#paint1_linear_23_264)"/>
<path opacity="0.2" d="M9.33524 22.0815C7.66095 22.7103 4.8252 22.7072 5.63568 26.9736C5.5067 27.0697 4.86055 26.0695 5.0193 26.1674C4.27641 22.3482 7.61382 22.5708 9.33524 22.0815Z" fill="white"/>
<path opacity="0.6" d="M11.4535 20.5535C13.0795 19.9105 11.7636 21.7317 11.5292 22.0244C10.9965 22.7028 9.63848 22.4802 8.92474 22.7121C8.51051 22.8411 6.85172 23.0842 6.30355 24.6543C5.98816 25.7155 6.05398 26.8536 6.48958 27.8714C6.3606 27.9694 5.50299 27.033 5.6667 27.1316C4.29999 20.9938 10.764 23.1933 11.4535 20.5535Z" fill="#8B4FBA"/>
<path d="M27.6162 18.0473C27.6609 17.9096 27.734 17.7829 27.8308 17.6753C27.8519 17.6815 27.8726 17.6889 27.8928 17.6976C28.0842 17.6149 28.294 17.5841 28.5011 17.6083C28.6367 17.5901 28.7743 17.5943 28.9086 17.6207C29.0803 17.6858 29.0568 17.8613 29.1268 17.9928C29.2577 18.2408 29.6632 18.2458 29.6651 18.5974C29.6871 18.7817 29.6871 18.968 29.6651 19.1524C29.6341 19.2764 29.4933 19.2367 29.3836 19.2367C29.0394 19.2367 28.6804 19.2472 28.3294 19.2472L27.8475 18.8863C27.7167 18.9279 27.6156 18.6557 27.5995 18.5633C27.5622 18.3909 27.5679 18.212 27.6162 18.0424V18.0473Z" fill="#F9E0E7"/>
<path d="M29.24 18.5329C29.3142 18.4904 29.3778 18.4317 29.4261 18.3611C29.4521 18.3214 29.4453 18.296 29.5017 18.2991C29.6518 18.2991 29.6518 18.5037 29.6444 18.6091C29.6357 18.7418 29.5823 18.864 29.5619 18.9936C29.5135 18.9812 29.4862 18.9217 29.4329 18.9062C29.3831 18.8988 29.3326 18.8988 29.2828 18.9062C29.2177 18.9062 29.1247 18.9527 29.0664 18.9285L29.24 18.5329Z" fill="white"/>
<path d="M9.97308 12.0127L10.0078 11.9711C10.6257 11.3776 11.0384 10.6026 11.186 9.75856C11.281 9.23233 11.1802 8.68952 10.9026 8.23248C10.8964 8.22331 10.8896 8.21461 10.8822 8.20643C10.8319 8.36332 10.786 8.51649 10.7321 8.66903C10.6137 9.04556 10.4305 9.39853 10.1907 9.71205C10.0909 9.83607 5.8748 12.1695 6.30639 17.3394C6.30465 17.3725 6.30885 17.4057 6.31879 17.4373C6.39569 17.3654 6.46514 17.2891 6.54389 17.2277C6.82495 17.0159 7.14505 16.8617 7.48583 16.7738C8.10594 16.6019 8.7277 16.4408 9.35112 16.2908C10.0657 16.1365 10.7699 15.9374 11.4595 15.6948C11.8445 15.5476 12.2108 15.3555 12.5509 15.1225C13.0573 14.7753 13.5072 14.3522 13.8847 13.868C14.0831 13.6244 14.2279 13.3417 14.3095 13.0383C14.3632 13.3559 14.3409 13.6817 14.2444 13.9889C14.1409 14.2972 13.9745 14.5806 13.7557 14.8211C13.8097 14.8091 13.8622 14.7917 13.9126 14.769C14.5205 14.4443 15.0448 13.9831 15.4443 13.4215C15.7102 13.0439 15.8647 12.5991 15.8901 12.1379C15.8896 12.1299 15.8896 12.1218 15.8901 12.1137C15.9817 12.5092 15.9797 12.9205 15.8843 13.3151C15.7889 13.7096 15.6028 14.0765 15.3407 14.3864C15.5726 14.3039 15.781 14.2147 15.9956 14.1595C16.1614 14.1107 16.3018 13.9995 16.3875 13.8494C16.8304 13.1805 17.1614 12.4439 17.3672 11.6685C17.5318 11.0709 17.5384 10.4408 17.3865 9.8398C17.1959 9.17396 16.7823 8.59382 16.2151 8.19651C15.82 7.91064 15.3883 7.67933 14.9315 7.50881L14.849 7.47595L14.8248 7.4499C14.9829 7.49331 15.1237 7.53052 15.2651 7.57393C15.9213 7.75235 16.5417 8.04314 17.0987 8.43339C17.5962 8.77411 17.9691 9.26761 18.161 9.83918C18.3168 10.3607 18.3281 10.9147 18.1938 11.4422C18.001 12.2101 17.6664 12.9352 17.2072 13.5803L17.1676 13.6423C17.167 13.6491 17.167 13.6559 17.1676 13.6628L17.2141 13.6435C18.1417 13.1874 18.9618 12.5393 19.6201 11.7423C20.2649 10.9662 20.7187 10.0498 20.9453 9.06652C21.0846 8.47812 21.0807 7.86485 20.9339 7.27827C20.787 6.69169 20.5015 6.14893 20.1013 5.69562C19.5823 5.08601 18.9507 4.58217 18.241 4.21171C17.3409 3.71577 16.3596 3.38441 15.3432 3.23318C14.7624 3.13801 14.1698 3.14157 13.5902 3.24372C13.2757 3.30069 12.9751 3.41752 12.7047 3.58788C12.7493 3.55005 12.7921 3.50913 12.8405 3.4744C13.1597 3.24547 13.5271 3.09255 13.9145 3.0273C14.5504 2.90741 15.2014 2.88941 15.843 2.97397C16.8352 3.08645 17.8003 3.37011 18.6955 3.81236L18.9684 3.95188V3.72554C18.9643 3.68112 18.9777 3.63686 19.0057 3.60214C19.0337 3.56743 19.0741 3.54496 19.1184 3.53951C19.1348 3.53488 19.1519 3.53392 19.1687 3.5367C19.1855 3.53948 19.2014 3.54592 19.2154 3.55558C19.2294 3.56524 19.2411 3.57787 19.2496 3.59256C19.2581 3.60726 19.2633 3.62366 19.2648 3.64059C19.2784 3.70942 19.2821 3.77825 19.2908 3.84708C19.3141 3.99874 19.3844 4.13928 19.4917 4.24891C19.5026 4.26068 19.5149 4.2711 19.5283 4.27992C19.5413 4.28081 19.5541 4.28374 19.5661 4.2886V3.82042C19.5661 3.79437 19.5854 3.75345 19.6027 3.74849C19.6178 3.74593 19.6333 3.74695 19.648 3.75147C19.6626 3.756 19.676 3.76389 19.6871 3.77453C19.7311 3.82538 19.7659 3.8835 19.79 3.9463C19.8315 4.0821 19.8483 4.22473 19.8911 4.35867C19.9181 4.44778 19.96 4.53166 20.0151 4.60671C20.0771 4.68547 20.1391 4.66872 20.1614 4.57199C20.1805 4.48059 20.195 4.38828 20.2048 4.29542C20.2074 4.26363 20.2126 4.2321 20.2204 4.20116C20.2315 4.17631 20.2454 4.1528 20.2619 4.13109C20.2824 4.15032 20.314 4.16582 20.3239 4.18938C20.3481 4.2438 20.3632 4.30183 20.3686 4.36115V4.73942C20.3749 4.80843 20.396 4.87527 20.4306 4.93537C20.4672 4.99738 20.5248 4.9918 20.544 4.91987C20.5732 4.81693 20.5875 4.71027 20.6061 4.60547L20.6526 4.37665C20.6859 4.40505 20.7131 4.44004 20.7323 4.47941C20.7515 4.51879 20.7623 4.5617 20.7642 4.60547C20.7865 4.81011 20.797 5.01599 20.8144 5.22186C20.8288 5.37376 20.8834 5.51909 20.9725 5.64291C21.1443 5.88165 21.2826 6.139 21.4314 6.38704C21.5071 6.51602 21.5778 6.52843 21.6497 6.38704C21.7216 6.24566 21.7911 6.07699 21.8574 5.91762C21.8866 5.84879 21.912 5.7781 21.943 5.71112C21.9611 5.67808 21.9818 5.64656 22.005 5.61687C22.0391 5.63914 22.0656 5.6714 22.0807 5.70925C22.0957 5.7471 22.0988 5.78868 22.0894 5.82832C22.067 5.94366 22.0242 6.05342 21.9951 6.17248C21.9603 6.29499 21.9318 6.41917 21.9095 6.54455C21.9077 6.60111 21.9215 6.65708 21.9492 6.7064C21.9821 6.77647 22.0335 6.78515 22.0906 6.73058C22.1476 6.67601 22.1917 6.60656 22.2475 6.54455C22.2819 6.51457 22.3193 6.48819 22.3591 6.46579C22.3796 6.5123 22.4211 6.56005 22.4211 6.60532C22.4128 6.70076 22.3909 6.79453 22.356 6.88375C22.271 7.05628 22.1958 7.2335 22.1309 7.41456C22.0936 7.55044 22.0712 7.68994 22.0639 7.83065C22.0633 7.85106 22.0677 7.8713 22.0768 7.88958C22.0859 7.90786 22.0994 7.92362 22.116 7.93545C22.1363 7.93659 22.1566 7.93318 22.1753 7.92545C22.1941 7.91772 22.2109 7.90588 22.2245 7.8908C22.3399 7.76678 22.4478 7.63098 22.5687 7.50075C22.5986 7.47088 22.6307 7.44331 22.6648 7.41828L22.6977 7.43378C22.6944 7.50884 22.6827 7.5833 22.663 7.65578C22.6156 7.77005 22.5582 7.87984 22.4912 7.98382C22.3882 8.15559 22.271 8.30193 22.1662 8.46378C21.9744 8.76531 21.8378 9.09853 21.7626 9.44789C21.7043 9.69593 21.6212 9.94397 21.5492 10.1877C21.5386 10.2181 21.5317 10.2498 21.5288 10.2819C21.5908 10.1809 21.6528 10.0792 21.7191 9.97808C21.8479 9.76375 22.02 9.57872 22.2245 9.43487C22.3324 9.36476 22.4478 9.30713 22.5687 9.2631C23.1876 9.05484 23.7943 8.81158 24.3856 8.53447C24.5519 8.44881 24.7111 8.35012 24.8619 8.2393C24.9524 8.17928 25.0212 8.09168 25.0581 7.98948C25.095 7.88727 25.0979 7.77591 25.0665 7.6719L24.9425 7.17582C24.8426 7.33394 24.7564 7.48587 24.6572 7.62788C24.5567 7.77882 24.4154 7.89816 24.2498 7.97203C24.2585 7.95271 24.2682 7.93387 24.2789 7.9156C24.5207 7.55735 24.6953 7.15813 24.7943 6.7374C24.8009 6.69017 24.7979 6.64209 24.7856 6.59602C24.7479 6.29253 24.7433 5.98584 24.7719 5.68136C24.7779 5.61949 24.7779 5.55719 24.7719 5.49533C24.7696 5.48005 24.7639 5.46548 24.7552 5.4527C24.7465 5.43993 24.7351 5.42928 24.7217 5.42153C24.6943 5.42401 24.6687 5.43635 24.6498 5.45626C24.5837 5.53538 24.5261 5.62122 24.478 5.71236C24.318 6.08443 24.1679 6.45649 24.0135 6.82856C23.8403 7.2994 23.5944 7.74024 23.2849 8.13512C23.1435 8.31239 22.9683 8.45992 22.7696 8.5692C22.7298 8.5894 22.6883 8.6062 22.6456 8.61943C22.9258 8.29544 23.0704 7.8759 23.0493 7.44804C23.0685 6.90173 23.0493 6.3548 23.0629 5.80848C23.0551 5.21987 23.1332 4.63326 23.2948 4.06722C23.298 4.04036 23.2919 4.01322 23.2775 3.99033C23.2209 3.8969 23.1692 3.80066 23.1224 3.70198C23.0369 3.49238 22.9643 3.27596 22.8744 3.06451C22.8242 2.94049 22.8074 2.93057 22.6754 2.94049C22.614 2.94155 22.5535 2.92618 22.5 2.89598C22.4466 2.86578 22.4022 2.82184 22.3715 2.76872C22.3132 2.69182 22.289 2.69306 22.2475 2.78422C22.2059 2.87538 22.1706 2.98327 22.1235 3.07939C22.108 3.11226 22.067 3.13396 22.036 3.16001C22.0137 3.12528 21.974 3.09303 21.9709 3.05707C21.9585 2.93987 21.9622 2.82143 21.9535 2.71291C21.9513 2.65448 21.9409 2.59666 21.9225 2.54114C21.9152 2.5264 21.9044 2.5136 21.8912 2.5038C21.8779 2.49399 21.8625 2.48745 21.8463 2.48471C21.8258 2.48471 21.7917 2.51757 21.7843 2.543C21.7551 2.62733 21.7378 2.71477 21.7123 2.79786C21.6869 2.88096 21.6602 2.87352 21.6212 2.81709C21.3194 2.43507 20.9441 2.1175 20.5174 1.8832C20.3934 1.80941 20.2693 1.7319 20.1453 1.65625H20.1255L20.1689 2.06862L20.136 2.08598C20.0949 2.05589 20.0563 2.0225 20.0207 1.98614C19.9401 1.89003 19.8656 1.78833 19.7832 1.69221C19.638 1.51233 19.4403 1.38226 19.2176 1.32015L19.3981 1.94025L19.3689 1.95266C19.3466 1.92885 19.3259 1.90357 19.3069 1.877C19.2586 1.80011 19.2127 1.72198 19.1674 1.64136C19.0834 1.47986 18.9612 1.34135 18.8114 1.23791C18.6616 1.13448 18.4887 1.06925 18.3079 1.04792C18.0481 1.01009 17.7926 0.98591 17.526 0.969167C17.3358 0.963489 17.1484 0.921389 16.9741 0.845146C16.8483 0.792791 16.72 0.746844 16.5896 0.707482C16.5646 0.702975 16.539 0.702975 16.514 0.707482C16.5092 0.734769 16.5092 0.76267 16.514 0.789956C16.576 0.908397 16.638 1.0256 16.7031 1.14404C16.7238 1.18827 16.742 1.2336 16.7577 1.27984L16.7403 1.29906C16.7005 1.28657 16.6615 1.27145 16.6237 1.2538C16.452 1.17132 16.2796 1.09567 16.1202 1.00575C15.9545 0.928093 15.7736 0.888069 15.5906 0.888553C15.0361 0.830168 14.4755 0.877514 13.9387 1.02808C13.6075 1.12306 13.3003 1.28753 13.0377 1.51052C13.0717 1.51218 13.1058 1.50862 13.1387 1.49998C13.4634 1.41983 13.7965 1.3782 14.1309 1.37596C14.3583 1.37559 14.5822 1.43162 14.7826 1.53905C14.813 1.56353 14.8395 1.59237 14.8614 1.62462C14.8195 1.64776 14.7732 1.66191 14.7256 1.66617C14.6208 1.65377 14.5178 1.61408 14.4155 1.60416C14.0828 1.59006 13.7503 1.63607 13.4339 1.73996C12.6662 1.96067 11.944 2.31661 11.3014 2.79104C11.1414 2.90452 10.9764 3.00932 10.8121 3.11412C10.4941 3.31653 10.2246 3.58646 10.0227 3.90475C9.99754 3.9437 9.97674 3.98529 9.96068 4.02877C9.94934 4.05328 9.94302 4.0798 9.94207 4.10679C9.94112 4.13377 9.94557 4.16068 9.95516 4.18592C9.96475 4.21116 9.97928 4.23423 9.9979 4.25378C10.0165 4.27333 10.0389 4.28896 10.0636 4.29976C10.1444 4.34115 10.23 4.37239 10.3185 4.39278C10.8847 4.52654 11.3957 4.83179 11.782 5.26685C12.1682 5.70191 12.4107 6.24556 12.4765 6.8236C12.5425 7.26629 12.5724 7.71362 12.5658 8.16117C12.527 9.16471 12.1337 10.122 11.4558 10.863C11.0433 11.3119 10.5618 11.692 10.0295 11.9891L9.97308 12.0127Z" fill="url(#paint2_linear_23_264)"/>
<path opacity="0.2" d="M24.8458 5.15625C24.3497 9.00463 22.6457 8.13276 21.527 10.2821C21.465 10.2014 21.3242 10.8581 21.6057 9.63776C21.8873 8.41739 22.6953 8.96743 23.4605 7.57529C24.4291 5.80798 24.2387 5.65234 24.8458 5.15625Z" fill="#8B4FBA"/>
<path opacity="0.3" d="M19.7436 5.23272C19.5576 6.33465 18.0023 6.2869 16.6703 5.81748C15.2211 5.30217 12.2136 5.14715 11.9712 5.75237C11.8471 5.8919 11.6084 5.3183 11.6084 5.3183C11.6084 5.3183 13.8947 2.82423 17.7189 5.45596C17.562 5.2135 19.0937 4.50534 19.0937 4.50534C19.0937 4.50534 19.5501 4.36457 19.7436 5.23272Z" fill="white"/>
<path opacity="0.2" d="M11.8174 15.8126C11.8999 16.0191 12.577 15.8795 12.6403 15.5577C11.6413 14.4198 14.2699 12.3418 11.8459 9.62451C13.4328 13.8177 10.0551 13.9857 11.8174 15.8126Z" fill="#8B4FBA"/>
<path opacity="0.6" d="M11.8174 15.8127C11.8999 16.0192 11.8856 15.9609 11.9501 15.6409C10.9511 14.5098 13.6107 12.8616 11.8471 9.64014C13.4328 13.8153 10.055 13.9877 11.8174 15.8127Z" fill="#8B4FBA"/>
<path d="M15.4538 14.9799C20.2509 9.93224 14.1875 10.7774 12.2069 7.35259V7.18082C12.2068 6.72161 12.0984 6.26888 11.8906 5.85938C13.7509 8.59343 18.4408 6.17873 17.5336 11.787C17.4474 12.0759 16.7963 14.9179 15.4538 14.9799Z" fill="url(#paint3_linear_23_264)"/>
<path d="M15.4539 14.9805C13.4807 15.9498 11.7543 15.9845 11.8337 15.6899C15.7577 13.0278 12.5902 10.2845 11.8511 7.69923C11.9013 7.49149 12.2175 7.41212 12.2175 7.18392V7.10889C12.2668 7.29978 12.3802 7.46792 12.5388 7.58513C14.3606 9.41506 20.158 10.0315 15.4539 14.9805Z" fill="url(#paint4_linear_23_264)"/>
<path d="M14.8349 14.9057C17.879 10.3696 12.2069 9.50701 12.2453 8.06836C11.7933 11.0281 17.2298 12.2931 12.1213 15.8333C12.0351 16.1211 12.8599 15.8743 14.8349 14.9057Z" fill="#E65271"/>
<path d="M23.3222 7.02418C23.5628 7.42601 23.2961 7.90225 23.0121 8.34749C22.7523 8.758 22.1266 8.62406 21.7024 9.61561L21.7403 8.84295C22.2115 8.02317 21.4153 6.89396 21.194 6.12999C20.8157 4.82776 20.4064 3.63095 20.9068 2.31075C20.9416 2.22145 20.9689 2.12472 21.003 2.03418C21.2534 2.21639 21.4748 2.4355 21.6597 2.68405C21.801 2.87008 21.7527 2.20409 21.9381 2.33989C22.0757 2.44097 21.9381 2.91225 22.0621 3.02759C22.1861 3.14293 22.2977 2.43415 22.4063 2.59352C22.6543 2.96558 22.7963 2.72932 22.9023 2.84156C23.0084 2.9538 23.2205 3.72149 23.311 3.82815C23.4015 3.93481 23.4828 4.03589 23.5671 4.14254C23.522 4.72728 23.4064 5.30444 23.2229 5.86148C23.1229 6.04332 23.0791 6.25079 23.0971 6.45756C23.1151 6.66434 23.194 6.86111 23.324 7.02294L23.3222 7.02418Z" fill="url(#paint5_linear_23_264)"/>
<path d="M16.5708 1.09881C16.5823 1.10067 16.5941 1.10067 16.6056 1.09881C16.7383 1.09881 16.2478 0.482422 16.3891 0.482422C16.6279 0.482422 16.9634 0.730465 17.1953 0.747208C17.6844 0.738348 18.1713 0.81516 18.6339 0.974167C19.068 1.17508 19.2367 1.75984 19.3322 1.78589C19.4277 1.81193 19.1052 1.09819 19.1964 1.13105C19.3368 1.17798 19.4672 1.25075 19.5808 1.34561C19.9932 1.93533 20.1272 4.86038 19.5225 4.78286C18.8869 4.70411 20.5246 5.00796 20.5315 4.98192C20.702 4.42812 20.735 3.8411 20.6276 3.27167C20.5202 2.70225 20.2756 2.16758 19.9151 1.71395C19.9634 1.79542 20.0314 1.86344 20.1129 1.91177C20.2437 1.962 20.0323 1.41568 20.1507 1.48575C20.4467 1.65668 20.7336 1.84296 21.0102 2.04385C21.0102 2.05439 21.0102 2.07672 21.0294 2.07176C21.1913 2.00478 22.1927 1.76914 21.4312 5.36886C22.5896 3.0261 21.6793 2.1009 21.7754 2.20074C22.1859 2.64411 22.2715 3.72868 22.3236 4.37111C22.3231 5.24955 22.0352 6.1037 21.5038 6.80317C21.1596 7.12253 21.1596 6.72752 21.0344 6.42181C20.7841 5.93539 20.4607 5.49016 20.0757 5.1016C19.7977 4.81776 19.505 4.54868 19.1988 4.29546C18.9259 3.95922 18.6701 3.60945 18.4324 3.24748C18.1794 2.95355 17.8687 2.71791 17.6306 2.41219C17.3602 2.06804 17.1804 1.67241 16.8815 1.35801C16.7851 1.264 16.6814 1.17775 16.5715 1.10005L16.5708 1.09881Z" fill="#E65271"/>
<path d="M18.7931 0.769906C19.4212 0.827544 20.0216 1.05569 20.5294 1.4297C21.0144 1.70007 21.6103 1.70069 22.0214 2.07399C22.5252 2.50721 22.8413 3.11897 22.9032 3.78052C23.0314 4.67491 23.0232 5.58356 22.879 6.47551C22.7685 7.04955 22.5328 7.59219 22.1888 8.06484L21.8106 7.82424C21.0664 5.89571 18.813 5.10507 17.9628 3.20941C17.7265 2.60746 17.6096 1.96529 17.6186 1.3187C17.5976 0.687432 18.2753 0.771766 18.7931 0.769906Z" fill="url(#paint6_linear_23_264)"/>
<path d="M11.748 5.58609C11.3304 4.9355 10.6735 4.47549 9.91933 4.30557C9.72524 4.26216 9.37612 4.1338 9.72152 3.72453C10.0377 3.30512 10.4426 2.96063 10.9072 2.71561C12.055 1.85614 11.5812 1.77553 12.2516 1.69802C12.5132 1.66701 12.4438 1.64469 12.5765 1.69802C12.7092 1.75135 12.4754 1.66019 12.3905 1.605C11.6426 1.10892 11.7028 2.10109 12.0184 1.88343C13.1506 1.16156 14.4587 0.762931 15.801 0.73065C15.8903 0.746153 16.5123 1.10271 16.6072 1.10271C16.7399 1.10271 16.2494 0.486328 16.3908 0.486328C16.6295 0.486328 16.965 0.734371 17.1969 0.751114C17.7609 0.868347 18.2649 1.18209 18.619 1.6364C18.9731 2.0907 19.1544 2.65602 19.1304 3.23154C19.1566 3.65652 19.142 4.08303 19.087 4.50524C18.5574 7.09419 13.1433 3.45912 11.748 5.58609Z" fill="#F6E8A0"/>
<path d="M18.223 3.99238C17.6369 3.61925 17.0047 3.32408 16.3423 3.11431C16.3423 3.11431 13.6349 2.18105 11.1377 4.83325C12.4145 3.81875 14.6562 4.24539 16.279 4.43266C16.5041 4.46925 15.8164 4.24663 15.9993 4.17966C16.6021 3.9527 17.1596 4.58149 17.7598 4.46801C17.8809 4.45616 17.9939 4.40185 18.0788 4.31468C18.1637 4.22752 18.215 4.11313 18.2237 3.99176L18.223 3.99238Z" fill="white"/>
<path d="M16.1601 3.55269C15.4333 3.42426 14.6864 3.46973 13.9805 3.68539C14.0698 3.54959 14.218 3.2383 14.9534 3.1304C15.1825 3.11799 15.4121 3.11799 15.6411 3.1304C15.9207 3.13145 16.1952 3.20426 16.4386 3.34185C16.6761 3.44106 16.9303 3.4943 17.1877 3.49874C17.1877 3.49874 18.7125 3.61408 18.2071 4.12939C17.7017 4.6447 16.9669 3.46215 15.3546 3.84104C15.4601 3.73759 15.5867 3.65823 15.7257 3.60845C15.8648 3.55867 16.013 3.53964 16.1601 3.55269Z" fill="#F6E8A0"/>
<path d="M14.646 1.41088C14.0172 0.994786 12.9271 1.35259 12.7758 1.34887C12.7749 1.33874 12.7775 1.32862 12.7831 1.32016C12.7887 1.31171 12.7971 1.30543 12.8068 1.30236C13.6958 0.736907 14.7675 0.533215 15.8019 0.733101H15.831C15.965 0.78519 16.4015 1.03013 16.5615 1.07726C17.4917 1.60497 18.9663 2.72054 19.0953 4.48785C18.6687 4.30661 18.2649 4.07579 17.8923 3.80015C17.7943 3.7245 15.5663 1.39538 9.67462 4.1933C9.62582 4.16239 9.59112 4.11353 9.57801 4.05727C9.5649 4.00101 9.57443 3.94184 9.60455 3.89255C10.9353 1.75442 13.3655 1.14237 17.2319 3.16578C16.6308 2.26683 15.7026 1.63805 14.6448 1.41336L14.646 1.41088Z" fill="#F8D285"/>
<path d="M18.4119 13.4294C20.5946 11.1971 21.4888 9.52959 20.4278 7.73562C18.7089 4.82608 13.4473 7.85964 11.1572 4.92529C11.5167 5.35433 11.9412 5.72429 12.4154 6.02164C14.1133 7.13163 17.3105 6.77445 18.3294 7.63392C19.639 8.73337 19.9745 10.9589 18.4119 13.4294Z" fill="url(#paint7_linear_23_264)"/>
<path d="M11.3009 8.76611C11.4289 9.16167 11.5249 9.56687 11.588 9.9778C11.1291 11.6738 9.13545 12.506 9.13545 12.506C9.13545 12.506 6.90307 13.4033 6.55767 17.5078C6.15026 17.7998 6.21351 17.1779 6.21351 16.8994C6.46652 11.5163 10.9431 12.1197 11.3009 8.76611Z" fill="url(#paint8_linear_23_264)"/>
<path d="M18.8928 17.657C18.8575 17.6376 18.8208 17.6208 18.783 17.6068C18.5871 17.5522 18.3911 17.502 18.1952 17.4468C18.1332 17.4294 18.0712 17.4003 18.0091 17.3779V17.3383C18.0779 17.3204 18.148 17.3082 18.2187 17.3017H19.0671C19.4634 17.3213 19.8605 17.2818 20.2453 17.1845C20.4336 17.1241 20.615 17.0441 20.7866 16.9457C22.5545 15.981 23.9234 14.4211 24.6505 12.543C24.8061 12.1524 24.9305 11.7502 25.0226 11.34C25.0216 11.3107 25.0268 11.2815 25.0381 11.2544L24.9711 11.2941C23.8784 12.0509 22.6393 12.5703 21.3335 12.8189C20.8615 12.906 20.3834 12.9556 19.9036 12.9671C19.8652 12.9683 19.8283 12.9822 19.7988 13.0068C19.0757 13.7166 18.2368 14.2979 17.3183 14.7258C16.5873 15.0678 15.8138 15.3105 15.0184 15.4476C14.0008 15.6454 12.9838 15.832 11.9637 16.0286C10.7112 16.2489 9.4751 16.5545 8.26417 16.9433C7.49491 17.187 6.76008 17.5283 6.07767 17.959C5.55958 18.2778 5.11966 18.7088 4.79033 19.2203C4.67685 19.4063 4.5981 19.6134 4.50012 19.81C4.48487 19.8464 4.46394 19.8801 4.43811 19.9098C4.11772 20.2121 3.87463 20.5869 3.72927 21.0027C3.58391 21.4185 3.54055 21.8631 3.60282 22.2991C3.68655 22.9769 3.91563 23.6286 4.2744 24.2097C4.31595 24.2779 4.35129 24.3523 4.38292 24.4124C4.40028 24.2624 4.41392 24.0943 4.43625 23.9275C4.49445 23.4304 4.6724 22.9548 4.95484 22.5415C5.23728 22.1283 5.61577 21.7898 6.05783 21.555C6.59528 21.2553 7.17473 21.0381 7.77676 20.9107C8.43656 20.7644 9.10379 20.6422 9.77103 20.5225C10.5827 20.4017 11.3859 20.2296 12.1758 20.0072C12.329 19.9588 12.4797 19.9043 12.6297 19.8472C12.8235 19.7764 13.0064 19.6787 13.1729 19.557C13.7312 19.1535 14.3402 18.8254 14.9843 18.581L15.0364 18.5605V18.5481H12.8461C12.2024 18.5372 11.5586 18.5706 10.9195 18.6479C10.0368 18.7673 9.17108 18.9891 8.33982 19.309C7.36195 19.6914 6.41932 20.1585 5.52268 20.7048C5.49827 20.7214 5.47091 20.7332 5.44206 20.7395L5.49229 20.698C6.47252 19.9349 7.55585 19.3144 8.71002 18.855C9.51486 18.5428 10.3574 18.3382 11.2159 18.2467C11.9743 18.1732 12.7378 18.1674 13.4972 18.2294C14.155 18.2773 14.8127 18.3244 15.4704 18.3707C15.5287 18.3741 15.5872 18.3667 15.6428 18.349C16.2928 18.1619 16.9562 18.0253 17.6272 17.9404C18.024 17.884 18.4166 17.7891 18.8054 17.7097C18.8319 17.7017 18.8576 17.6913 18.8823 17.6787L18.8928 17.657Z" fill="url(#paint9_linear_23_264)"/>
<path opacity="0.2" d="M6.78613 19.8748C9.36392 16.7978 16.0456 18.4107 18.8931 17.6548C17.9131 18.2589 16.7756 18.558 15.6251 18.5143C15.6251 18.5143 9.46872 17.8359 6.78613 19.8748Z" fill="white"/>
<path d="M26.482 8.19629C26.4114 8.20441 26.3414 8.21705 26.2725 8.23412C26.038 8.2949 25.8082 8.3724 25.5848 8.46604C25.3779 8.57218 25.184 8.70181 25.0068 8.85236C24.6627 9.13389 24.3191 9.43526 23.9756 9.72051C23.6282 10.0651 23.1772 10.2861 22.692 10.3493C23.1168 10.0914 23.4606 9.7192 23.6841 9.27528C23.6715 9.27435 23.6589 9.27435 23.6463 9.27528C22.9341 9.60525 22.256 10.0042 21.6217 10.4665C21.4538 10.5888 21.3187 10.7507 21.2285 10.9378C21.0772 11.2522 20.8843 11.5492 20.7132 11.8543L20.6754 11.9163C20.8285 11.8853 20.9606 11.863 21.0915 11.8307C21.6382 11.677 22.1657 11.4619 22.664 11.1895C23.4482 10.7785 24.2049 10.317 24.9293 9.80795C24.9516 9.79078 24.9765 9.77737 25.0031 9.76826C24.9971 9.77816 24.9903 9.7875 24.9826 9.79617C24.1392 10.667 23.1318 11.3625 22.0185 11.8425C21.5318 12.048 21.0177 12.1811 20.4924 12.2375C20.4717 12.2385 20.4518 12.2463 20.436 12.2599C20.3188 12.4025 20.2041 12.547 20.0732 12.7069C20.3945 12.6381 20.6989 12.578 20.9978 12.5079C21.8421 12.3228 22.666 12.0542 23.4572 11.7061C24.0458 11.4581 24.5888 11.1136 25.0639 10.6866C25.68 10.1149 26.1413 9.39639 26.4045 8.59812C26.4385 8.46646 26.4646 8.3329 26.4827 8.19815L26.482 8.19629Z" fill="#E65271"/>
<path opacity="0.6" d="M11.8906 16.0289C12.1387 15.9446 12.4252 15.8429 12.729 15.7251C16.3145 14.6089 17.4989 13.6744 17.4989 13.6744L21.1085 11.0079C21.3165 11.1386 21.5623 11.196 21.8067 11.1709C22.0511 11.1459 22.2801 11.0398 22.4572 10.8696C21.9419 11.4897 20.3445 11.9796 20.3445 11.9796C20.2616 12.3328 20.05 12.6423 19.7511 12.8478C21.1693 12.3659 23.5499 12.5036 25.2018 11.0172C23.9436 14.5518 20.8412 11.8575 17.8418 14.0557C17.4976 14.2635 12.9225 15.4305 15.1946 15.3505C17.4666 15.2705 18.9636 16.8214 20.8673 16.3129C19.0845 16.9591 17.5107 15.9229 15.0234 15.7492C15.4556 15.8205 15.8552 16.0237 16.1675 16.3309C15.2321 15.809 14.1454 15.6257 13.0905 15.8119C12.6868 15.8618 12.2862 15.9343 11.8906 16.0289Z" fill="#8B4FBA"/>
<path opacity="0.2" d="M20.4877 17.1193C17.8752 18.1506 8.64369 15.1517 4.50261 19.8143C4.50261 19.8143 4.19256 19.6748 5.84328 17.8256C12.3277 14.7232 17.1646 17.6576 20.4877 17.1193Z" fill="#2B2B2B"/>
<path opacity="0.7" d="M24.5278 12.9867C25.3011 12.5526 24.6723 13.6136 23.9009 14.2412C20.8587 16.365 19.4839 13.9491 16.4658 15.1093C21.0813 12.5675 21.5333 15.7412 24.5278 12.9867Z" fill="url(#paint10_radial_23_264)"/>
<path opacity="0.2" d="M24.2899 13.5896C25.0632 13.1555 24.6712 13.6138 23.898 14.2426C20.8557 16.3665 19.481 13.9505 16.4629 15.1107C19.4344 13.4594 21.296 16.3417 24.2899 13.5896Z" fill="#8B4FBA"/>
<path opacity="0.7" d="M9.27271 12.4507C7.86507 13.738 8.96885 16.5583 8.96885 16.5583L7.96676 16.7728C7.96676 16.7728 6.95537 14.0475 9.27271 12.4507Z" fill="url(#paint11_radial_23_264)"/>
<path opacity="0.7" d="M11.702 10.29C12.7623 12.1807 9.95016 14.7747 11.4595 15.6937C11.4353 15.8177 10.6 16.2387 10.6348 16.1166C8.76948 13.256 11.8378 12.5745 11.4409 10.788C9.28292 13.7273 9.26308 14.3083 10.3166 16.1693C10.303 16.1798 10.1877 16.3293 10.0742 16.2449C8.42594 15.0215 7.96892 13.638 11.702 10.29Z" fill="url(#paint12_radial_23_264)"/>
<path opacity="0.2" d="M15.1675 14.1271C15.2345 15.0108 15.8552 13.5752 15.9464 12.58C16.027 8.87049 12.2667 9.76779 12.0949 6.76709C11.7266 10.1839 15.7969 10.1082 15.1675 14.1271Z" fill="#8B4FBA"/>
<path opacity="0.3" d="M18.8135 12.6553C18.8805 13.539 20.6546 11.265 20.7488 10.2729C20.1535 3.91367 13.604 7.7788 11.8906 5.43604C13.3045 8.00266 22.4566 4.43022 18.8135 12.6553Z" fill="white"/>
<path d="M30.796 25.0464C30.6998 25.1307 30.6242 25.2076 30.5343 25.2733C30.4639 25.3269 30.3885 25.3736 30.3092 25.4129C30.2204 25.461 30.1211 25.4861 30.0202 25.4861C29.9193 25.4861 29.82 25.461 29.7312 25.4129C29.4342 25.2705 29.1006 25.2231 28.7756 25.2771C28.7316 25.2802 28.6893 25.2955 28.6534 25.3214C28.6176 25.3472 28.5897 25.3826 28.5729 25.4234C28.2478 26.0733 27.6845 26.5726 27.0003 26.8174C26.9648 26.826 26.9331 26.8457 26.9095 26.8735C26.886 26.9014 26.872 26.9361 26.8694 26.9724C26.8261 27.1856 26.8261 27.4054 26.8694 27.6186C26.9547 27.947 27.1659 28.2286 27.4573 28.4024C27.7626 28.593 28.0981 28.7301 28.4495 28.808C28.8664 28.9176 29.2952 28.9753 29.7263 28.9797C29.9461 28.9819 30.1651 28.9519 30.3761 28.8904C30.5951 28.8324 30.7931 28.7137 30.9476 28.548C31.1021 28.3824 31.2066 28.1765 31.2493 27.9541C31.3252 27.6444 31.3826 27.3305 31.421 27.014C31.4626 26.6685 31.4307 26.3182 31.3276 25.9859C31.2245 25.6535 31.0524 25.3467 30.8226 25.0855C30.8132 25.0733 30.8047 25.0604 30.7972 25.047L30.796 25.0464Z" fill="url(#paint13_linear_23_264)"/>
<path opacity="0.3" d="M29.4313 25.0938C29.4679 25.3102 29.8747 25.3704 30.0638 25.3642C30.2172 25.3486 30.3652 25.2994 30.4973 25.2201C30.6295 25.1408 30.7425 25.0333 30.8284 24.9053C30.8606 24.8666 30.8893 24.8251 30.914 24.7812C31.093 24.9053 31.2361 25.0743 31.3291 25.2712C31.422 25.4681 31.4615 25.686 31.4435 25.903C31.3406 26.6354 30.4377 27.106 29.4294 26.9721C29.1231 26.9426 28.8276 26.8435 28.5654 26.6823C28.3033 26.5211 28.0815 26.302 27.917 26.0419C28.103 25.8063 28.1731 25.5055 28.4168 25.3021C28.7255 25.13 29.0795 25.0564 29.4313 25.0913V25.0938Z" fill="#F6E8A0"/>
<path d="M4.88844 18.2168C4.96227 18.265 5.04537 18.2972 5.13241 18.3114C5.21944 18.3256 5.30849 18.3215 5.39382 18.2993C5.23273 17.5083 5.16303 16.7014 5.18609 15.8945C5.1965 15.0077 5.39275 14.1329 5.76217 13.3266C5.81105 13.2224 5.8685 13.1224 5.93394 13.0277C5.93079 13.0435 5.92665 13.059 5.92153 13.0742C5.71721 13.6007 5.60013 14.157 5.57489 14.7212C5.53731 15.5967 5.62077 16.4731 5.82294 17.3257C5.82654 17.3503 5.83299 17.3745 5.84216 17.3976C5.96618 17.3133 6.0902 17.2258 6.20678 17.1496C6.22043 17.139 6.22043 17.1012 6.21919 17.0758C6.16084 16.5559 6.16084 16.0311 6.21919 15.5112C6.30504 14.7709 6.48401 14.0444 6.75186 13.3489C7.11876 12.3791 7.61163 11.4618 8.21779 10.6205L8.25934 10.5622C8.26025 10.5535 8.26025 10.5448 8.25934 10.5361L8.00633 10.6254C7.44798 10.8245 6.90373 11.0611 6.37731 11.3336C6.2943 11.3768 6.21683 11.4299 6.14663 11.4917C5.42969 12.1303 4.94596 12.9895 4.77186 13.9337C4.74271 14.0763 4.72163 14.222 4.68256 14.3678C4.69124 14.2078 4.6962 14.0484 4.71046 13.8897C4.76922 13.133 4.92469 12.3869 5.17306 11.6697C5.21895 11.501 5.21895 11.3231 5.17306 11.1544C5.15689 11.1003 5.1333 11.0488 5.10299 11.0012C5.05683 11.0374 5.01519 11.0791 4.97897 11.1252C4.77845 11.4614 4.62529 11.8237 4.52381 12.2017C4.36265 12.7795 4.24431 13.3683 4.16973 13.9635C4.08847 14.5179 4.04702 15.0774 4.04571 15.6378C4.0308 16.204 4.11044 16.7689 4.28135 17.3089C4.36616 17.5665 4.49636 17.8067 4.66582 18.0183C4.72783 18.094 4.80534 18.1579 4.87355 18.2279L4.88844 18.2168Z" fill="url(#paint14_linear_23_264)"/>
<path opacity="0.2" d="M7.45869 10.5586C6.66492 10.674 5.94666 11.0923 5.4545 11.7256C5.04267 12.5516 4.78304 13.4449 4.68805 14.363C4.68805 14.363 4.38544 16.8434 5.39435 18.2957C4.75502 12.9876 7.45869 10.5586 7.45869 10.5586Z" fill="#2B2B2B"/>
<path d="M4.8908 18.2194H4.8753C4.59327 18.1044 4.34949 17.912 4.1721 17.6644C3.91671 17.3063 3.74583 16.895 3.67229 16.4614C3.55103 15.8178 3.52221 15.1603 3.58672 14.5087C3.61772 14.1366 3.67229 13.7645 3.71942 13.3925V13.3379C3.70113 13.3516 3.68373 13.3666 3.66733 13.3825C2.5974 14.4831 1.77311 15.7982 1.24892 17.2408C1.23604 17.2829 1.23604 17.3278 1.24892 17.3698C1.5697 18.3761 2.01862 19.3369 2.58463 20.2285C2.82213 20.6068 3.08071 20.9683 3.33372 21.3385C3.35294 21.3677 3.37712 21.3931 3.41247 21.4414C3.42115 21.2554 3.52099 21.0973 3.44347 20.9261C3.33904 20.696 3.28836 20.4452 3.29527 20.1926C3.29796 20.0947 3.33089 20 3.38953 19.9216C3.43413 20.1122 3.52459 20.2891 3.65307 20.4369C3.67395 20.4037 3.68698 20.3661 3.69118 20.3271C3.69537 20.2881 3.69061 20.2487 3.67725 20.2118C3.56624 19.9125 3.51423 19.5945 3.52409 19.2754C3.53223 19.1754 3.55051 19.0765 3.57866 18.9802C3.67444 19.2095 3.81267 19.4187 3.98607 19.5966C3.99495 19.585 4.00303 19.5728 4.01025 19.56C4.23619 19.0972 4.52546 18.6681 4.86972 18.2851C4.88336 18.2708 4.8815 18.2367 4.8908 18.2194Z" fill="url(#paint15_linear_23_264)"/>
<path opacity="0.2" d="M3.7989 19.4574C3.7989 19.4574 2.21453 16.3569 2.95494 13.6904C2.80279 13.8314 2.65791 13.98 2.52086 14.1357C2.47746 14.1859 1.94479 17.7038 3.02439 19.2534C1.57334 17.5345 2.26104 14.4594 2.19965 14.5487C2.06553 14.7418 1.95693 14.9515 1.87657 15.1725C1.66579 16.1785 1.72315 17.2222 2.04291 18.199C2.36268 19.1758 2.9336 20.0514 3.69845 20.7379L3.7989 19.4574Z" fill="#2B2B2B"/>
<path d="M28.059 30.6271C27.9939 30.7269 27.9176 30.8261 27.8581 30.9371C27.8306 30.9865 27.8138 31.0412 27.8088 31.0975C27.8038 31.1537 27.8106 31.2105 27.8289 31.2639C27.8358 31.2941 27.8487 31.3225 27.8668 31.3476C27.8849 31.3727 27.9078 31.3938 27.9342 31.4098C27.9607 31.4259 27.9901 31.4364 28.0206 31.4409C28.0512 31.4453 28.0824 31.4436 28.1123 31.4357C28.2262 31.4159 28.3411 31.4027 28.4565 31.396C28.5805 31.396 28.5892 31.4084 28.6047 31.53C28.6068 31.5621 28.6133 31.5938 28.6239 31.6242C28.6392 31.6846 28.6715 31.7393 28.7169 31.7819C28.7622 31.8245 28.8188 31.8533 28.88 31.8648C28.9408 31.8706 29.0019 31.8584 29.0557 31.8296C29.1096 31.8008 29.1537 31.7568 29.1826 31.703C29.2333 31.6336 29.2647 31.5522 29.2738 31.4668C29.2829 31.3814 29.2693 31.2952 29.2344 31.2167C29.1994 31.1383 29.1445 31.0704 29.0749 31.0201C29.0054 30.9697 28.9239 30.9385 28.8385 30.9297C28.7188 30.9202 28.5985 30.9202 28.4788 30.9297H28.4106L28.3932 30.9092C28.4198 30.8671 28.4529 30.8294 28.4912 30.7976C28.5769 30.7483 28.6765 30.7285 28.7746 30.7412C29.4054 30.8477 30.0531 30.708 30.5841 30.3511C30.8804 30.1364 31.1207 29.8535 31.2848 29.5264C31.3071 29.4644 31.3499 29.3937 31.2848 29.3546C31.2577 29.3428 31.2284 29.3367 31.1989 29.3367C31.1693 29.3367 31.1401 29.3428 31.113 29.3546C30.8724 29.4334 30.6368 29.5264 30.3931 29.6027C30.0354 29.6882 29.6662 29.7154 29.2998 29.6833C28.8039 29.6645 28.3139 29.5696 27.8469 29.4018C27.3242 29.2114 26.8445 28.9193 26.4355 28.5423C26.3895 28.4971 26.34 28.4556 26.2873 28.4183C26.198 28.3563 26.136 28.3873 26.1323 28.497C26.1298 28.5746 26.1373 28.6521 26.1546 28.7277C26.2347 29.0881 26.3961 29.4255 26.6264 29.714C26.8567 30.0026 27.1498 30.2347 27.4835 30.3927C27.69 30.4863 27.8841 30.5533 28.059 30.6271Z" fill="#E65270"/>
<path d="M0.773352 16.3608C0.700402 19.0233 1.67445 21.6081 3.48632 23.5603C3.46028 23.3742 3.42431 23.1882 3.41067 22.9978C3.38462 22.6785 3.36726 22.3567 3.35238 22.0354C3.35151 21.9738 3.33182 21.9138 3.29595 21.8637C2.59164 20.8733 1.97656 19.8225 1.45795 18.7234C1.1903 18.1665 0.990037 17.5797 0.861407 16.9754C0.824821 16.7769 0.804978 16.5754 0.773352 16.3608Z" fill="url(#paint16_linear_23_264)"/>
<path d="M23.3871 7.26896C23.7557 6.73152 24.0253 6.13261 24.1833 5.50041C24.1975 5.38613 24.1975 5.27054 24.1833 5.15626C24.1401 4.53453 24.2189 3.91036 24.4153 3.31888C24.4377 3.26717 24.4511 3.21201 24.4549 3.15579C24.452 3.10707 24.4335 3.06057 24.4022 3.02309C24.3644 2.97844 24.3129 2.99394 24.2627 3.02309C24.1118 3.1132 23.9873 3.24154 23.9018 3.39515C23.7276 3.70078 23.6088 4.03477 23.5508 4.38174C23.3808 5.32388 23.3232 6.28286 23.3791 7.23857C23.3811 7.24887 23.3838 7.25902 23.3871 7.26896Z" fill="url(#paint17_linear_23_264)"/>
<path opacity="0.4" d="M23.5831 3.60943C23.695 3.42784 23.8322 3.2631 23.9905 3.12016L24.2138 2.97754C23.999 3.54264 23.8937 4.14348 23.9037 4.74795C23.9037 5.26325 24.0619 5.74012 24.0898 6.25542C24.0801 6.6167 23.9446 6.96326 23.7065 7.23519C23.6067 7.39022 23.4728 7.72446 23.2576 7.73128C23.1803 7.46746 23.1513 7.19183 23.172 6.9177C23.172 6.60764 23.1193 6.30131 23.1305 5.9832C23.2064 5.18149 23.3571 4.38865 23.5807 3.61501L23.5831 3.60943Z" fill="#8B4FBA"/>
<path d="M31.3013 28.3298L31.287 28.3391C31.1765 28.5651 31.0056 28.7561 30.7933 28.891C30.581 29.0259 30.3355 29.0995 30.084 29.1037C29.231 29.174 28.3745 29.0188 27.6005 28.6535C27.2641 28.5162 26.9887 28.2618 26.8253 27.9373C26.7637 27.7826 26.7119 27.6241 26.6703 27.4629C26.5764 27.4689 26.4871 27.506 26.4165 27.5683C26.3458 27.6306 26.2979 27.7146 26.2803 27.807C26.2803 27.8722 26.297 27.9362 26.3286 27.9931C26.4438 28.2095 26.6058 28.3974 26.803 28.5431C27.29 28.9284 27.8573 29.1995 28.463 29.3362C29.2477 29.5398 30.073 29.526 30.8505 29.2965C31.0375 29.2315 31.2177 29.1484 31.3887 29.0485C31.4542 29.0174 31.5077 28.9659 31.5413 28.9017C31.5748 28.8374 31.5866 28.764 31.5747 28.6926C31.5662 28.6134 31.5366 28.5381 31.4891 28.4743C31.4415 28.4105 31.3777 28.3606 31.3044 28.3298H31.3013Z" fill="#E65270"/>
<path opacity="0.4" d="M31.3013 28.3298L31.287 28.3391C31.1765 28.5651 31.0056 28.7561 30.7933 28.891C30.581 29.0259 30.3355 29.0995 30.084 29.1037C29.231 29.174 28.3745 29.0188 27.6005 28.6535C27.2641 28.5162 26.9887 28.2618 26.8253 27.9373C26.7637 27.7826 26.7119 27.6241 26.6703 27.4629C26.5764 27.4689 26.4871 27.506 26.4165 27.5683C26.3458 27.6306 26.2979 27.7146 26.2803 27.807C26.2803 27.8722 26.297 27.9362 26.3286 27.9931C26.4438 28.2095 26.6058 28.3974 26.803 28.5431C27.29 28.9284 27.8573 29.1995 28.463 29.3362C29.2477 29.5398 30.073 29.526 30.8505 29.2965C31.0375 29.2315 31.2177 29.1484 31.3887 29.0485C31.4542 29.0174 31.5077 28.9659 31.5413 28.9017C31.5748 28.8374 31.5866 28.764 31.5747 28.6926C31.5662 28.6134 31.5366 28.5381 31.4891 28.4743C31.4415 28.4105 31.3777 28.3606 31.3044 28.3298H31.3013Z" fill="#2B2B2B"/>
<path d="M22.6118 20.3731C22.605 20.6765 22.6709 20.9772 22.804 21.2499C23.0698 21.7805 23.524 22.1929 24.0777 22.4064C24.56 22.6058 25.082 22.6907 25.6026 22.6545L25.6392 22.6439C25.2826 22.5908 24.9332 22.4969 24.598 22.3642C24.0248 22.1514 23.5171 21.7925 23.1253 21.3231C22.9166 21.0669 22.7547 20.776 22.6472 20.4636C22.6373 20.4319 22.6255 20.4009 22.6118 20.3706V20.3731Z" fill="#0D0D0D"/>
<path d="M26.9102 15.9402C27.0402 15.8569 27.1521 15.7482 27.2393 15.6207C27.3265 15.4932 27.3871 15.3495 27.4176 15.1981C27.4481 15.0467 27.4478 14.8907 27.4168 14.7394C27.3857 14.5881 27.3246 14.4446 27.2369 14.3174C27.321 14.8799 27.2053 15.4541 26.9102 15.9402Z" fill="#0D0D0D"/>
<path d="M27.8475 19.1301C28.1215 19.338 28.462 19.4388 28.805 19.4135C28.9445 19.4135 29.0816 19.3874 29.2211 19.3806C29.2972 19.3766 29.3734 19.3824 29.448 19.398C29.5894 19.429 29.6508 19.4085 29.6961 19.2739C29.8093 18.9713 29.8517 18.6467 29.8201 18.3252C29.8053 18.168 29.7677 18.0138 29.7085 17.8675C29.6449 17.7322 29.5542 17.6114 29.4419 17.5126C29.3296 17.4139 29.1982 17.3393 29.0559 17.2935C28.9136 17.2478 28.7633 17.2318 28.6145 17.2466C28.4658 17.2613 28.3216 17.3066 28.1911 17.3795C28.1214 17.4198 28.0552 17.4658 27.9933 17.5172C27.9281 17.5705 27.8692 17.6325 27.7992 17.6889C27.8302 17.7255 27.8537 17.7571 27.8835 17.7869C27.9147 17.8167 27.9375 17.8541 27.9498 17.8954C27.9621 17.9368 27.9634 17.9806 27.9536 18.0226C27.9211 18.1423 27.9329 18.2698 27.9869 18.3816C28.0409 18.4934 28.1335 18.5819 28.2475 18.6309C28.4182 18.7193 28.5965 18.7923 28.7802 18.8492C28.8746 18.8805 28.9709 18.9058 29.0685 18.9248C29.0807 18.9255 29.093 18.9237 29.1045 18.9195C29.116 18.9154 29.1265 18.9089 29.1355 18.9006C29.2791 18.8107 29.3899 18.677 29.4518 18.5193C29.4844 18.6411 29.4844 18.7695 29.4518 18.8913C29.433 18.9935 29.4438 19.0989 29.4828 19.1952V19.2057L29.4307 19.1778C29.2417 19.077 29.0331 19.0184 28.8192 19.006C28.5538 18.984 28.2974 18.899 28.0714 18.758C27.9416 18.6758 27.8341 18.5628 27.7584 18.4291C27.6827 18.2954 27.6411 18.1451 27.6373 17.9916V17.945C27.5716 18.0357 27.5246 18.1387 27.4993 18.2478C27.4739 18.3569 27.4707 18.47 27.4898 18.5804C27.5089 18.6908 27.5499 18.7963 27.6103 18.8906C27.6708 18.9848 27.7496 19.0661 27.842 19.1294L27.8475 19.1301Z" fill="#0D0D0D"/>
<path d="M28.2051 18.0971C28.2051 18.2038 28.2367 18.3081 28.296 18.3968C28.3553 18.4856 28.4395 18.5547 28.5381 18.5955C28.6367 18.6364 28.7452 18.6471 28.8498 18.6262C28.9545 18.6054 29.0506 18.554 29.1261 18.4786C29.2015 18.4031 29.2529 18.307 29.2737 18.2024C29.2945 18.0977 29.2838 17.9892 29.243 17.8907C29.2022 17.7921 29.133 17.7078 29.0443 17.6485C28.9556 17.5893 28.8513 17.5576 28.7446 17.5576C28.6737 17.5576 28.6036 17.5716 28.5381 17.5987C28.4727 17.6258 28.4132 17.6655 28.3631 17.7156C28.313 17.7657 28.2733 17.8252 28.2461 17.8907C28.219 17.9561 28.2051 18.0263 28.2051 18.0971Z" fill="url(#paint18_linear_23_264)"/>
<path d="M30.6201 27.2002C30.6694 27.2303 30.7286 27.2398 30.7848 27.2267C30.8411 27.2136 30.89 27.1789 30.9209 27.1301C31.0305 26.9155 31.0864 26.6774 31.0837 26.4365C31.081 26.1955 31.0198 25.9588 30.9054 25.7466C30.8769 25.6985 30.8311 25.6631 30.7774 25.6477C30.7236 25.6322 30.666 25.6379 30.6163 25.6637C30.5667 25.6894 30.5287 25.7331 30.5103 25.7859C30.4918 25.8387 30.4943 25.8965 30.5172 25.9476C30.5976 26.093 30.6425 26.2553 30.6482 26.4214C30.6539 26.5875 30.6203 26.7525 30.55 26.9031C30.5211 26.9521 30.5122 27.0104 30.5253 27.0658C30.5383 27.1211 30.5723 27.1693 30.6201 27.2002Z" fill="white"/>
<path opacity="0.2" d="M7.16178 28.4622C7.02597 24.5555 9.43385 25.8255 10.5048 24.1772C10.5768 24.0828 10.6346 23.9783 10.6765 23.8672C9.48098 24.5326 6.10884 24.0892 7.16178 28.4622Z" fill="#430A1D"/>
<path opacity="0.2" d="M5.33201 20.8473C8.63841 17.9991 15.1688 18.3098 15.645 18.3513C12.9054 20.3059 4.68957 18.4685 4.38882 24.4154C4.15723 23.7962 4.12358 23.1203 4.29253 22.4812C4.46148 21.8421 4.82469 21.2711 5.33201 20.8473Z" fill="#2B2B2B"/>
<path opacity="0.2" d="M10.614 24.0249V25.4977C10.614 26.114 9.84755 25.7742 9.55176 24.9396C9.99747 24.7619 10.3713 24.4407 10.614 24.0268V24.0249Z" fill="#430A1D"/>
<path opacity="0.2" d="M10.2039 24.3139C10.3813 24.0313 10.4667 23.7006 10.4483 23.3674C10.4299 23.0342 10.3085 22.7149 10.1009 22.4536C10.4153 22.4363 11.0205 21.8472 11.165 21.6518C11.3539 21.3095 11.4432 20.9211 11.423 20.5307C11.8244 20.4412 12.2155 20.3105 12.59 20.1406C12.1854 20.4619 11.8369 20.8481 11.5588 21.2835C11.371 21.6865 11.2135 22.1029 11.0875 22.5293C10.9828 22.8633 10.8973 23.2031 10.8314 23.5469C10.7396 23.8254 10.682 24.114 10.6596 24.4063C10.621 25.5521 10.7554 26.697 11.0584 27.8027C10.4313 27.5683 9.9088 27.1171 9.58561 26.5308C9.41384 26.2208 9.0703 25.4549 9.48763 24.9663C9.78907 24.8296 10.0397 24.6013 10.2039 24.3139Z" fill="#430A1D"/>
<path d="M2.11653 27.2686C3.7808 29.6159 6.26085 31.2579 9.07165 31.8735C10.0315 32.0795 11.0121 32.1734 11.9936 32.1532C14.4089 32.1426 16.823 32.1532 19.2402 32.1532H24.1148C24.5012 32.1658 24.8869 32.1134 25.2558 31.9981C25.4328 31.9455 25.5962 31.8549 25.7347 31.7327C25.8732 31.6105 25.9833 31.4597 26.0576 31.2906C26.1618 31.0225 26.1744 30.7275 26.0933 30.4515C26.0122 30.1755 25.842 29.9342 25.6093 29.7651C25.2624 29.5247 24.8422 29.4134 24.4218 29.4507C24.3064 29.4507 24.1911 29.4749 24.0776 29.4855C24.0515 29.4897 24.0249 29.4897 23.9989 29.4855C23.9625 29.4747 23.9268 29.4614 23.8922 29.4458C23.9089 29.414 23.9297 29.3846 23.9542 29.3583C24.392 28.9972 24.7043 28.5069 24.8465 27.9575C24.899 27.7553 24.916 27.5455 24.8968 27.3374V27.2847C24.8968 27.1762 24.9296 27.1421 25.0363 27.1365C25.3526 27.1229 25.6669 27.1086 25.9832 27.0844C26.1345 27.072 26.2821 27.036 26.4526 27.0261C26.4322 27.0522 26.4179 27.0881 26.3906 27.1018C26.2718 27.1553 26.1659 27.2339 26.0803 27.3321C25.9947 27.4304 25.9313 27.546 25.8945 27.671C25.7892 27.9724 25.738 28.29 25.7432 28.6093C25.7662 29.1174 25.962 29.6024 26.2982 29.984C26.5946 30.3319 26.9612 30.6129 27.3741 30.8088C27.4274 30.8348 27.4411 30.8571 27.4225 30.9173C27.3702 31.0859 27.375 31.267 27.4361 31.4326C27.4703 31.533 27.5415 31.6166 27.6352 31.6664C27.7417 31.7269 27.8607 31.762 27.983 31.7689C28.1054 31.7758 28.2276 31.7543 28.3402 31.7061C28.3427 31.7417 28.3496 31.7769 28.3607 31.8109C28.4289 32.0707 28.5963 32.1736 28.85 32.3262H29.0217C29.0217 32.3262 29.0354 32.3069 29.0422 32.3057C29.1379 32.2879 29.2292 32.2512 29.3106 32.1977C29.392 32.1442 29.4618 32.075 29.5161 31.9942C29.5704 31.9133 29.608 31.8224 29.6267 31.7268C29.6454 31.6313 29.6449 31.5329 29.6251 31.4376C29.6114 31.3377 29.5817 31.2397 29.5631 31.1504C29.769 31.1051 29.9721 31.0477 30.1714 30.9787C30.606 30.8441 30.9983 30.5992 31.31 30.2678C31.6217 29.9365 31.8421 29.53 31.9499 29.088C32.0087 28.915 32.0159 28.7286 31.9707 28.5515C31.9254 28.3745 31.8296 28.2144 31.695 28.0908C31.6778 28.0631 31.6722 28.0297 31.6795 27.9978C31.7359 27.64 31.824 27.2866 31.8513 26.9288C31.8846 26.5229 31.8303 26.1146 31.692 25.7315C31.5536 25.3485 31.3345 24.9997 31.0495 24.7088C31.0348 24.6947 31.0244 24.6767 31.0195 24.657C31.0146 24.6372 31.0153 24.6165 31.0216 24.5972C31.0613 24.4068 31.1059 24.2158 31.1282 24.0229C31.1483 23.8415 31.1269 23.6579 31.0656 23.486C31.0042 23.3141 30.9046 23.1585 30.7741 23.0308C30.7496 23.0073 30.7298 22.9793 30.7159 22.9483C30.6809 22.8464 30.6255 22.7526 30.5531 22.6728C30.4807 22.5929 30.3928 22.5286 30.2948 22.4838C29.9048 22.2912 29.4627 22.2309 29.0354 22.3121C28.7545 22.3709 28.4832 22.4686 28.2292 22.6023C28.1813 22.6363 28.1234 22.6536 28.0647 22.6513C28.0059 22.6491 27.9495 22.6275 27.9043 22.5899C27.8869 22.5744 27.8578 22.5707 27.8423 22.5551C27.8268 22.5396 27.7635 22.49 27.7704 22.4659C27.7774 22.4455 27.7887 22.4269 27.8034 22.4111C27.8182 22.3954 27.8361 22.383 27.8559 22.3747C28.0551 22.2939 28.2679 22.2518 28.4829 22.2507C28.6463 22.2523 28.8097 22.2442 28.9721 22.2265C29.481 22.1578 29.9696 21.9822 30.4058 21.7112C30.4352 21.6927 30.4678 21.6798 30.5019 21.6734C30.783 21.6287 31.0432 21.498 31.2468 21.2992C31.4504 21.1004 31.5873 20.8433 31.6386 20.5634C31.6408 20.5041 31.6543 20.4458 31.6783 20.3916C31.7918 20.2181 31.8623 20.02 31.8839 19.8138C31.9055 19.6076 31.8775 19.3992 31.8023 19.2059C31.713 18.9461 31.589 18.6906 31.4922 18.4414C31.4341 18.3063 31.3943 18.1641 31.3738 18.0184C31.3449 17.6122 31.2787 17.2095 31.176 16.8154C30.9689 15.9793 30.5036 15.2296 29.8461 14.673C29.1887 14.1164 28.3725 13.7812 27.5136 13.7149C27.4802 13.7149 27.4477 13.7044 27.4206 13.6849C27.3934 13.6655 27.3731 13.638 27.3623 13.6064C27.2746 13.398 27.1432 13.2109 26.9769 13.0577C26.8107 12.9045 26.6135 12.7888 26.3987 12.7184C26.2884 12.673 26.1647 12.673 26.0545 12.7184C25.8943 12.787 25.7408 12.87 25.5956 12.9664C25.2333 13.2231 24.925 13.5487 24.6884 13.9245C24.6692 13.9536 24.6487 13.9896 24.6196 14.0002C24.6 14.0084 24.5789 14.0127 24.5576 14.0127C24.5363 14.0127 24.5152 14.0084 24.4956 14.0002C24.4732 13.9846 24.4677 13.9233 24.4763 13.8885C24.4917 13.8459 24.5144 13.8062 24.5433 13.7713C25.1764 12.8538 25.5977 11.8071 25.7767 10.7068C25.7869 10.6675 25.8085 10.6321 25.8387 10.6051C25.9968 10.4432 26.1599 10.2888 26.3168 10.127C26.5637 9.87245 26.7354 9.55461 26.8129 9.20859C26.8329 9.11756 26.8455 9.02507 26.8507 8.93202C26.8507 8.90411 26.8247 8.87373 26.811 8.84458C26.78 8.86195 26.7422 8.87249 26.7236 8.89791C26.6802 8.9562 26.6517 9.02194 26.612 9.08395C26.5835 9.12267 26.5531 9.15993 26.5208 9.19557C26.5175 9.18828 26.5157 9.18034 26.5157 9.17231C26.5157 9.16428 26.5175 9.15634 26.5208 9.14906C26.691 8.72364 26.8067 8.27837 26.865 7.82389C26.8805 7.69987 26.891 7.56778 26.8941 7.43942C26.8941 7.34641 26.8358 7.28626 26.7701 7.3154C26.7369 7.33179 26.7072 7.35455 26.6827 7.38237C26.4282 7.61978 26.1439 7.82302 25.8369 7.98698C25.8369 7.97643 25.8245 7.97333 25.8245 7.96775C25.8195 7.92272 25.8121 7.87801 25.8021 7.83381C25.7149 7.30906 25.5874 6.79181 25.4208 6.28664C25.2833 5.90145 25.2407 5.48878 25.2967 5.08364C25.3198 4.84568 25.4351 4.62621 25.618 4.47221C25.6345 4.45638 25.6495 4.43893 25.6626 4.42012C25.6455 4.4088 25.6272 4.39944 25.608 4.39222C25.4623 4.33977 25.3024 4.34306 25.1589 4.40144C25.0155 4.45982 24.8987 4.56918 24.831 4.70847C24.8118 4.7463 24.7864 4.78226 24.7523 4.83931C24.7181 4.78529 24.6894 4.72795 24.6667 4.66816C24.6077 4.39787 24.591 4.12008 24.6171 3.84466C24.6576 3.50439 24.7606 3.17454 24.921 2.87172C24.961 2.79192 24.9944 2.70895 25.0208 2.62367C25.0339 2.59295 25.0386 2.5593 25.0345 2.52615C25.0304 2.493 25.0176 2.46153 24.9974 2.43494C24.9771 2.40836 24.9502 2.3876 24.9194 2.37479C24.8885 2.36197 24.8549 2.35755 24.8217 2.36199C24.7371 2.36169 24.6532 2.37639 24.5737 2.40539C24.1947 2.54589 23.8818 2.82274 23.6962 3.18177L23.6479 3.27788C23.4866 3.14036 23.3592 2.96739 23.2758 2.7725C23.2272 2.64265 23.1698 2.51627 23.104 2.39423C23.0575 2.3068 23.0216 2.30866 22.9645 2.39423C22.949 2.41656 22.9354 2.43888 22.918 2.45934C22.8746 2.51267 22.8411 2.51267 22.8064 2.45934C22.7761 2.40447 22.7508 2.34698 22.7307 2.28757C22.6313 2.01886 22.4597 1.78282 22.2347 1.60546C22.2121 1.58974 22.1887 1.57525 22.1646 1.56205C22.1782 1.64948 22.1888 1.71708 22.1975 1.78529C22.2061 1.8535 22.2148 1.92481 22.2235 1.99674C22.2132 1.99812 22.2028 1.99812 22.1925 1.99674L22.1255 1.9521C21.2073 1.31063 20.1765 0.847818 19.087 0.587861C18.7421 0.546131 18.4068 0.446111 18.0954 0.29207L18.0737 0.281529C18.0483 0.269755 18.0196 0.266963 17.9923 0.273608C17.9651 0.280253 17.9409 0.295943 17.9237 0.318115C17.8887 0.346519 17.8447 0.361281 17.7997 0.359662C17.6657 0.359662 17.5311 0.326796 17.3991 0.316254C17.2761 0.303173 17.1544 0.280365 17.0351 0.248043C16.8372 0.193473 16.6413 0 16.441 0H16.2965C16.25 0 16.1954 0.132703 16.157 0.17177C16.1 0.262202 16.0117 0.328441 15.9089 0.357802C15.2265 0.400847 14.5495 0.506082 13.8862 0.672196C12.8777 0.904968 11.9234 1.32938 11.0752 1.92233C10.4479 2.35412 9.92376 2.9193 9.54045 3.5774C9.46602 3.71612 9.39956 3.85898 9.34139 4.00527C9.29322 4.11381 9.28639 4.23621 9.32217 4.34943C9.32668 4.37154 9.33551 4.39255 9.34814 4.41125C9.36077 4.42995 9.37697 4.44598 9.3958 4.45842C9.41463 4.47086 9.43573 4.47947 9.45789 4.48375C9.48005 4.48803 9.50284 4.4879 9.52495 4.48337C9.78523 4.45134 10.0493 4.47335 10.3007 4.54804C10.5521 4.62273 10.7854 4.74849 10.9859 4.91745C11.4171 5.22073 11.7476 5.64622 11.9347 6.13906C12.0715 6.47503 12.1068 6.84371 12.0364 7.19956C11.966 7.55541 11.7929 7.88283 11.5384 8.14138C11.4851 8.20339 11.4268 8.25486 11.3667 8.31315C11.3425 8.222 11.322 8.14138 11.2997 8.05829C11.196 7.65453 11 7.28032 10.7273 6.96504C10.5556 6.77901 10.4954 6.99977 10.537 7.33152C10.5845 7.66199 10.5535 7.999 10.4464 8.31522C10.3393 8.63145 10.1591 8.91797 9.92057 9.15154C9.8869 9.18178 9.84684 9.20404 9.80337 9.21665C9.28806 9.40268 8.77214 9.57445 8.25621 9.76482C7.33784 10.1001 6.45264 10.5201 5.61207 11.0193L5.57549 11.0385C5.5383 11.0176 5.50766 10.9867 5.48696 10.9494C5.46627 10.912 5.45634 10.8697 5.45828 10.8271C5.4639 10.7113 5.47632 10.596 5.49549 10.4817V10.4445C5.5234 10.2435 5.4434 10.1778 5.25799 10.2727C5.16258 10.3214 5.07816 10.3891 5.00995 10.4717C4.81006 10.7329 4.65056 11.0226 4.53681 11.3312C4.46983 11.4912 4.41279 11.658 4.34767 11.818C4.32284 11.8784 4.28469 11.9325 4.23605 11.9761C3.50366 12.5855 2.84181 13.2751 2.26287 14.0318C1.77173 14.6849 1.35239 15.3891 1.01212 16.1321C1.01212 16.1513 0.992895 16.1718 0.984214 16.1885C0.975532 16.2053 0.984214 16.1885 0.964991 16.2059C0.854035 15.5577 0.831298 14.8975 0.897399 14.2432C0.84531 14.4392 0.78764 14.6333 0.740512 14.8299C0.557458 15.6175 0.493703 16.4281 0.551379 17.2346C0.552229 17.2769 0.545293 17.3189 0.530916 17.3587C-0.00197787 19.0181 -0.136119 20.7798 0.139379 22.5007C0.414877 24.2217 1.09225 25.8535 2.11653 27.2636V27.2686ZM1.45798 18.7272C1.97613 19.8266 2.59079 20.8779 3.29473 21.8687C3.33019 21.9191 3.34983 21.9789 3.35116 22.0405C3.36666 22.3617 3.38403 22.6835 3.40945 23.0029C3.42495 23.192 3.45968 23.3793 3.48511 23.5653C1.67315 21.6107 0.699216 19.0239 0.772137 16.3597C0.803143 16.5742 0.824226 16.7739 0.861433 16.9711C0.98941 17.5766 1.18926 18.1647 1.45674 18.7229L1.45798 18.7272ZM8.26241 10.5418C8.26332 10.5505 8.26332 10.5592 8.26241 10.5679L8.22086 10.6262C7.61269 11.4685 7.11813 12.3874 6.74997 13.359C6.48449 14.0548 6.30781 14.7813 6.22412 15.5213C6.16577 16.0412 6.16577 16.5659 6.22412 17.0858C6.22412 17.11 6.22412 17.1478 6.21171 17.1596C6.09327 17.2439 5.97111 17.3314 5.84709 17.4076C5.84336 17.383 5.83692 17.3589 5.82787 17.3357C5.62541 16.4832 5.54193 15.6067 5.57983 14.7313C5.60539 14.168 5.72226 13.6126 5.92585 13.0867C5.93089 13.0715 5.93503 13.056 5.93825 13.0402C5.87295 13.135 5.8155 13.235 5.76648 13.3391C5.3955 14.145 5.19776 15.0198 5.18606 15.907C5.16545 16.7078 5.23618 17.5084 5.39689 18.2932C5.31155 18.3153 5.22253 18.3194 5.13551 18.3052C5.04849 18.291 4.96539 18.2588 4.89151 18.2107C4.89151 18.2367 4.89151 18.2727 4.87104 18.2876C4.5269 18.6707 4.23764 19.0998 4.01158 19.5625C4.0043 19.5752 3.99622 19.5874 3.98739 19.5991C3.81425 19.4164 3.67746 19.2023 3.58432 18.9685C3.55609 19.0647 3.53781 19.1636 3.52975 19.2636C3.51989 19.5827 3.57191 19.9007 3.68292 20.2C3.69627 20.2369 3.70103 20.2763 3.69684 20.3153C3.69265 20.3543 3.67962 20.3919 3.65874 20.4251C3.53026 20.2773 3.43979 20.1004 3.39519 19.9098C3.33655 19.9882 3.30363 20.0829 3.30093 20.1808C3.29403 20.4334 3.34471 20.6842 3.44914 20.9143C3.52479 21.1004 3.42682 21.248 3.41813 21.4297C3.38155 21.3831 3.35984 21.3559 3.33938 21.3267C3.09134 20.9547 2.82407 20.5931 2.59029 20.2167C2.02381 19.3267 1.57406 18.3676 1.2521 17.363C1.23922 17.321 1.23922 17.276 1.2521 17.234C1.77669 15.7925 2.60095 14.4785 3.67052 13.3788C3.68416 13.3652 3.69966 13.3546 3.72261 13.3342V13.3875C3.67796 13.7596 3.62277 14.1316 3.5899 14.5037C3.52539 15.1553 3.55421 15.8129 3.67548 16.4564C3.74943 16.8899 3.92028 17.3011 4.17528 17.6594C4.35289 17.9073 4.59715 18.0997 4.87973 18.2144C4.80703 18.148 4.7377 18.0781 4.67199 18.0048C4.5026 17.7931 4.3724 17.5529 4.28752 17.2954C4.11643 16.7554 4.03679 16.1905 4.05188 15.6242C4.05288 15.0639 4.09433 14.5043 4.1759 13.9499C4.25008 13.3559 4.36781 12.7681 4.52812 12.1913C4.63245 11.8129 4.78876 11.4508 4.99258 11.1154C5.02889 11.0693 5.07052 11.0277 5.11661 10.9914C5.14667 11.0391 5.17023 11.0906 5.18668 11.1446C5.23266 11.3133 5.23266 11.4912 5.18668 11.6599C4.9383 12.3771 4.78284 13.1231 4.72408 13.8799C4.71044 14.0398 4.70486 14.1998 4.69617 14.358C4.73586 14.2153 4.75818 14.0696 4.78547 13.9239C4.95957 12.9797 5.44331 12.1205 6.16025 11.4819C6.23045 11.42 6.30791 11.3669 6.39093 11.3238C6.91709 11.0525 7.46091 10.8169 8.01871 10.6187L8.26241 10.5418ZM24.4627 3.16254C24.4588 3.21877 24.4454 3.27392 24.423 3.32563C24.2277 3.91499 24.1494 4.53681 24.1923 5.15619C24.2064 5.27047 24.2064 5.38606 24.1923 5.50035C24.0307 6.13361 23.7614 6.73436 23.3961 7.27633C23.3911 7.26572 23.387 7.25473 23.3837 7.24347C23.3281 6.28775 23.3858 5.32881 23.5555 4.38664C23.6139 4.03961 23.7332 3.70563 23.9077 3.40005C23.9934 3.24657 24.1178 3.11827 24.2686 3.02798C24.317 3.00008 24.3684 2.98457 24.4081 3.02798C24.4385 3.0628 24.4576 3.10607 24.4627 3.152V3.16254ZM24.8577 8.24122C24.7069 8.35194 24.5477 8.45063 24.3815 8.53639C23.79 8.81324 23.1834 9.0565 22.5646 9.26502C22.4437 9.30905 22.3282 9.36668 22.2204 9.43679C22.0158 9.58052 21.8436 9.76558 21.715 9.98C21.6499 10.0798 21.591 10.1828 21.5246 10.2839C21.5277 10.2517 21.5346 10.2201 21.5451 10.1896C21.617 9.94155 21.7001 9.70033 21.7584 9.44981C21.8343 9.10445 21.9703 8.77512 22.1602 8.47686C22.265 8.31501 22.3822 8.16061 22.4852 7.9969C22.5523 7.893 22.6098 7.7832 22.6569 7.66886C22.6772 7.59458 22.6888 7.51822 22.6917 7.44128L22.6588 7.42578C22.6247 7.45081 22.5926 7.47837 22.5627 7.50825C22.4511 7.63724 22.3426 7.7718 22.2185 7.8983C22.205 7.91349 22.1882 7.92541 22.1694 7.93314C22.1506 7.94088 22.1303 7.94423 22.11 7.94295C22.0934 7.93112 22.0799 7.91536 22.0708 7.89708C22.0617 7.8788 22.0573 7.85856 22.0579 7.83815C22.0652 7.69745 22.0876 7.55794 22.1249 7.42206C22.1869 7.23603 22.2799 7.0779 22.35 6.89125C22.3849 6.80203 22.4068 6.70826 22.4151 6.61282C22.4036 6.56275 22.3826 6.51538 22.3531 6.4733C22.3133 6.49561 22.2759 6.52201 22.2415 6.55205C22.1869 6.61034 22.1416 6.67607 22.0846 6.73808C22.0275 6.80009 21.9761 6.78459 21.9432 6.7139C21.9158 6.66513 21.9021 6.60984 21.9035 6.55391C21.9293 6.43081 21.9614 6.30911 21.9996 6.18929C22.0288 6.07581 22.0716 5.96419 22.0939 5.84513C22.1036 5.80549 22.1007 5.7638 22.0856 5.7259C22.0705 5.68799 22.0439 5.65575 22.0096 5.63367C21.9862 5.66326 21.9655 5.69479 21.9475 5.72793C21.9165 5.7949 21.8911 5.86745 21.862 5.93442C21.7931 6.09131 21.733 6.25254 21.6542 6.40384C21.5755 6.55515 21.5129 6.52786 21.436 6.40384C21.2878 6.1558 21.142 5.90032 20.9771 5.65972C20.8879 5.53589 20.8334 5.39056 20.819 5.23866C20.7997 5.03403 20.7898 4.82815 20.7687 4.62228C20.7668 4.57852 20.7559 4.53563 20.7367 4.49626C20.7175 4.4569 20.6904 4.42191 20.6571 4.39346C20.6397 4.47903 20.6242 4.55158 20.6106 4.62228C20.5901 4.72707 20.5759 4.83373 20.5486 4.93667C20.5281 5.0086 20.4717 5.01542 20.4351 4.95217C20.4008 4.89264 20.3797 4.82646 20.3731 4.75808C20.3644 4.63406 20.3731 4.51004 20.3731 4.37982C20.3679 4.32047 20.3528 4.26241 20.3284 4.20805C20.3198 4.18386 20.2888 4.16836 20.2664 4.14976C20.2499 4.17138 20.2359 4.1949 20.2249 4.21983C20.2171 4.25076 20.2119 4.28229 20.2094 4.31408C20.1957 4.4071 20.1889 4.50012 20.166 4.59065C20.143 4.68119 20.0816 4.70599 20.0196 4.62538C19.9645 4.55035 19.9225 4.46647 19.8956 4.37733C19.8522 4.24339 19.8336 4.10077 19.7945 3.96496C19.7702 3.90229 19.7354 3.84421 19.6916 3.79319C19.6807 3.7823 19.6674 3.77423 19.6527 3.76969C19.638 3.76515 19.6224 3.76428 19.6073 3.76715C19.588 3.76715 19.5707 3.81366 19.5707 3.83908V4.31222C19.5581 4.31362 19.5454 4.31362 19.5329 4.31222C19.5195 4.30339 19.5072 4.29298 19.4963 4.28122C19.3888 4.17163 19.3186 4.03107 19.2954 3.87939C19.2848 3.81056 19.2817 3.73986 19.2693 3.67289C19.2678 3.65596 19.2627 3.63956 19.2541 3.62487C19.2456 3.61017 19.2339 3.59754 19.2199 3.58789C19.206 3.57823 19.19 3.57178 19.1732 3.569C19.1565 3.56622 19.1393 3.56718 19.123 3.57182C19.0788 3.57742 19.0384 3.59992 19.0105 3.6346C18.9825 3.66929 18.969 3.71346 18.9729 3.75785V3.98109L18.7 3.84156C17.8063 3.39801 16.8425 3.11267 15.8513 2.99822C15.2097 2.91346 14.5587 2.93147 13.9227 3.05155C13.5353 3.11679 13.168 3.26972 12.8487 3.49864C12.8022 3.53337 12.7594 3.5743 12.7129 3.61212C12.9832 3.44142 13.2839 3.32437 13.5984 3.26734C14.178 3.16536 14.7707 3.1618 15.3515 3.2568C16.3727 3.40427 17.3593 3.73381 18.2641 4.22975C18.968 4.59418 19.5958 5.08962 20.1139 5.68948C20.1536 5.73599 20.1895 5.78374 20.2255 5.83211C19.1713 5.32672 17.9739 6.27734 16.7796 5.85629C18.4179 6.70025 19.384 5.61383 20.3098 6.31703C20.5455 6.4888 20.5864 6.95636 20.05 6.87947C19.5136 6.80257 20.8221 7.05124 21.0521 8.39377C21.0386 8.61827 21.0075 8.84137 20.9591 9.061C20.7328 10.0443 20.2789 10.9608 19.6339 11.7368C18.9757 12.5327 18.156 13.1799 17.2292 13.6355L17.1826 13.651C17.1821 13.6446 17.1821 13.6382 17.1826 13.6318L17.2223 13.5698C17.6814 12.9247 18.016 12.1996 18.2089 11.4317C18.3436 10.9043 18.3322 10.3501 18.1761 9.82869C17.9837 9.256 17.6096 8.76176 17.1107 8.42105C16.5537 8.03087 15.9333 7.74008 15.2771 7.56158C15.1375 7.52004 14.9955 7.48283 14.8368 7.43756C14.8541 7.45679 14.856 7.46175 14.861 7.46361L14.9434 7.49647C15.3993 7.66749 15.83 7.89923 16.224 8.18541C16.7912 8.58272 17.2048 9.16286 17.3953 9.82869C17.5473 10.4297 17.5407 11.0598 17.3761 11.6574C17.1703 12.4324 16.8394 13.1687 16.3964 13.8371C16.3106 13.9871 16.1702 14.0981 16.0044 14.1471C15.7899 14.2091 15.5815 14.2916 15.3496 14.3741C15.6113 14.0636 15.797 13.6965 15.8922 13.3018C15.9873 12.9071 15.9893 12.4957 15.8978 12.1001C15.8972 12.1082 15.8972 12.1163 15.8978 12.1243C15.8721 12.5871 15.7165 13.0333 15.4488 13.4117C15.049 13.9729 14.5248 14.4341 13.9172 14.7592C13.8668 14.7818 13.8142 14.7993 13.7603 14.8113C13.9781 14.5686 14.1426 14.283 14.2433 13.9729C14.3401 13.6656 14.3626 13.3399 14.3091 13.0222C14.2274 13.3256 14.0827 13.6083 13.8843 13.8519C13.5067 14.3424 13.0548 14.7709 12.5449 15.1219C12.2058 15.3569 11.8401 15.5509 11.4553 15.6999C10.7658 15.9427 10.0616 16.1417 9.34698 16.2958C8.72315 16.449 8.10056 16.6058 7.48169 16.7789C7.14087 16.8666 6.82076 17.0209 6.53975 17.2328C6.44919 16.9686 6.39922 16.6922 6.39155 16.413C6.35496 12.7134 9.28931 10.7403 10.1829 9.70653C10.4276 9.39616 10.6113 9.04225 10.7242 8.66351C10.7776 8.51221 10.8241 8.35966 10.8743 8.20091C10.8818 8.20906 10.8886 8.21777 10.8948 8.22696C11.1722 8.68404 11.273 9.22681 11.1782 9.75304C11.0311 10.5962 10.6216 11.3714 10.008 11.9681L9.97328 12.0096L10.0266 11.9817C10.5592 11.6843 11.0407 11.3035 11.4529 10.8537C12.1304 10.1133 12.5236 9.15668 12.5628 8.15379C12.5687 7.70787 12.5385 7.2622 12.4723 6.82118C12.405 6.24379 12.1612 5.70122 11.7743 5.26744C11.3873 4.83365 10.876 4.52976 10.31 4.39718C10.2236 4.3739 10.1404 4.34038 10.062 4.29734C10.0148 4.27371 9.97877 4.23265 9.9614 4.18287C9.94404 4.13309 9.94674 4.07851 9.96894 4.03069C9.98501 3.98721 10.0058 3.94562 10.031 3.90667C10.2331 3.58859 10.5026 3.31871 10.8203 3.11604C10.9921 3.01124 11.1502 2.90644 11.3096 2.79296C11.9525 2.32197 12.6742 1.9694 13.4409 1.7518C13.756 1.64738 14.0871 1.60013 14.4188 1.61228C14.5236 1.62096 14.6266 1.66065 14.7289 1.67429C14.7769 1.66992 14.8236 1.65645 14.8665 1.6346C14.8417 1.59861 14.8109 1.56714 14.7754 1.54159C14.575 1.43661 14.3518 1.38272 14.1255 1.3847C13.7911 1.38696 13.4581 1.42859 13.1333 1.50872C13.0993 1.51467 13.0649 1.51881 13.0304 1.52112C13.2954 1.29419 13.6064 1.12728 13.942 1.03186C14.482 0.874294 15.0472 0.82167 15.607 0.876831C15.79 0.87612 15.9709 0.916155 16.1365 0.994031C16.2996 1.08519 16.4701 1.1658 16.6401 1.24207C16.6782 1.25785 16.7174 1.27111 16.7573 1.28176L16.7746 1.26254C16.7589 1.21631 16.7407 1.17097 16.72 1.12673C16.658 1.00829 16.596 0.891094 16.5309 0.772653C16.526 0.745383 16.526 0.71745 16.5309 0.690179C16.5559 0.68585 16.5815 0.68585 16.6066 0.690179C16.7374 0.729034 16.8658 0.775624 16.991 0.829703C17.1654 0.905946 17.3527 0.948046 17.5429 0.953724C17.8046 0.972948 18.0582 0.997132 18.3249 1.03248C18.5057 1.05381 18.6785 1.11903 18.8283 1.22247C18.9781 1.32591 19.1003 1.46441 19.1844 1.62592C19.229 1.70467 19.2755 1.78405 19.3239 1.86156C19.3429 1.88812 19.3636 1.91339 19.3859 1.93721L19.415 1.92481L19.2315 1.31029C19.4543 1.37209 19.6521 1.50222 19.797 1.68235C19.8795 1.77847 19.9539 1.88016 20.0345 1.97628C20.0703 2.01247 20.1089 2.04585 20.1499 2.07612L20.1827 2.05875C20.1672 1.92295 20.1499 1.78777 20.1362 1.65134H20.1616L20.5337 1.8783C20.9605 2.11278 21.3358 2.43056 21.6375 2.8128C21.6772 2.86737 21.7076 2.86117 21.7286 2.79358C21.7497 2.72599 21.7721 2.62181 21.8006 2.53872C21.8006 2.51267 21.844 2.47671 21.8626 2.48043C21.8788 2.48288 21.8942 2.4891 21.9075 2.49858C21.9209 2.50805 21.9318 2.52053 21.9395 2.535C21.9578 2.59052 21.9683 2.64834 21.9705 2.70677C21.9675 2.82176 21.9733 2.93682 21.9879 3.05093C21.9879 3.08751 22.0294 3.11976 22.053 3.15386C22.084 3.12782 22.1249 3.1055 22.1404 3.07325C22.1869 2.97713 22.221 2.87544 22.2644 2.77808C22.3078 2.68072 22.3264 2.68506 22.3884 2.76258C22.4192 2.8157 22.4636 2.85964 22.517 2.88984C22.5704 2.92004 22.6309 2.93541 22.6923 2.93435C22.825 2.9238 22.8424 2.93435 22.8913 3.05837C22.9757 3.26982 23.0482 3.48438 23.1394 3.69584C23.1809 3.79567 23.2442 3.88621 23.2944 3.98419C23.3084 4.00725 23.3145 4.03424 23.3118 4.06108C23.1501 4.62877 23.0723 5.21709 23.0811 5.8073C23.0811 6.35361 23.0811 6.90055 23.0675 7.44686C23.0886 7.87472 22.944 8.29426 22.6638 8.61825C22.7064 8.60502 22.7479 8.58822 22.7878 8.56802C22.9867 8.45901 23.1619 8.31144 23.3031 8.13394C23.6123 7.737 23.8573 7.29403 24.0292 6.82118C24.1806 6.44911 24.3331 6.07333 24.4937 5.70498C24.5418 5.61383 24.5994 5.52799 24.6655 5.44888C24.6791 5.42966 24.7219 5.40547 24.7374 5.41415C24.7507 5.422 24.7621 5.43268 24.7708 5.44543C24.7795 5.45819 24.7852 5.47271 24.7876 5.48795C24.7933 5.54983 24.7933 5.6121 24.7876 5.67398C24.759 5.97846 24.7636 6.28514 24.8013 6.58864C24.8136 6.63471 24.8166 6.68279 24.81 6.73002C24.7112 7.1508 24.5366 7.55005 24.2947 7.90822C24.2947 7.91877 24.281 7.93241 24.2655 7.96465C24.4298 7.89124 24.5703 7.77331 24.6711 7.62421C24.7709 7.48159 24.8571 7.32904 24.9563 7.17216L25.0803 7.66824C25.1092 7.77401 25.1037 7.88624 25.0644 7.98861C25.0252 8.09099 24.9543 8.17818 24.8621 8.2375L24.8577 8.24122ZM25.0654 10.6888C24.5902 11.1155 24.0472 11.46 23.4587 11.7082C22.6676 12.0563 21.8437 12.3249 20.9994 12.51C20.6987 12.5801 20.3948 12.6409 20.0748 12.7091C20.2038 12.5472 20.3229 12.4052 20.4376 12.262C20.4534 12.2485 20.4732 12.2406 20.494 12.2397C21.0192 12.1831 21.5334 12.05 22.0201 11.8447C23.1318 11.3638 24.1376 10.6681 24.9799 9.79769C24.9875 9.78898 24.9943 9.77965 25.0003 9.76978C24.9737 9.77882 24.9488 9.79223 24.9265 9.80947C24.2015 10.3202 23.4442 10.7835 22.6594 11.1966C22.1611 11.469 21.6335 11.6841 21.0868 11.8378C20.956 11.8707 20.8233 11.8924 20.6707 11.9234L20.7086 11.8614C20.8803 11.5576 21.0732 11.2618 21.2239 10.9449C21.3141 10.7578 21.4492 10.5959 21.617 10.4736C22.2513 10.0113 22.9295 9.61229 23.6417 9.28238C23.6543 9.28149 23.6669 9.28149 23.6795 9.28238C23.4571 9.7255 23.1148 10.0974 22.6917 10.3558C23.178 10.2938 23.6304 10.0735 23.979 9.72886C24.3232 9.44175 24.6574 9.141 25.0103 8.86071C25.1876 8.71037 25.3815 8.58076 25.5882 8.47438C25.8115 8.38043 26.0413 8.30291 26.2759 8.24246C26.3449 8.22543 26.4149 8.2128 26.4855 8.20463C26.4669 8.33772 26.4406 8.46961 26.4067 8.59964C26.1429 9.39658 25.6817 10.1138 25.0661 10.6844L25.0654 10.6888ZM20.7867 16.9519C20.6151 17.0502 20.4337 17.1302 20.2454 17.1906C19.8606 17.2879 19.4635 17.3274 19.0672 17.3078H18.2244C18.1537 17.3143 18.0836 17.3265 18.0148 17.3444V17.3841C18.0755 17.4104 18.1376 17.4334 18.2009 17.4529C18.3968 17.5075 18.594 17.5596 18.7887 17.6129C18.8265 17.627 18.8632 17.6438 18.8985 17.6631V17.6854C18.8738 17.6979 18.848 17.7083 18.8216 17.7165C18.4284 17.7933 18.0359 17.8882 17.6434 17.9471C16.9697 18.0319 16.3036 18.1685 15.651 18.3558C15.5953 18.3725 15.5372 18.3794 15.4792 18.3762L13.5017 18.2311C12.7422 18.169 11.9787 18.1748 11.2203 18.2485C10.3618 18.3395 9.51916 18.5441 8.71447 18.8568C7.56477 19.3156 6.48549 19.9341 5.50851 20.6942L5.45828 20.7358C5.48708 20.7293 5.51442 20.7175 5.5389 20.701C6.43549 20.1546 7.37813 19.6875 8.35604 19.3052C9.18661 18.9846 10.0517 18.7619 10.9338 18.6417C11.573 18.5641 12.2167 18.5308 12.8605 18.5418H15.052V18.5524L14.9999 18.5747C14.3559 18.8191 13.7468 19.1473 13.1885 19.5507C13.0223 19.6733 12.8396 19.7718 12.6459 19.8434C12.4959 19.8998 12.3452 19.955 12.192 20.0034C11.4022 20.226 10.599 20.3981 9.78725 20.5187C9.12002 20.6427 8.45526 20.7612 7.79299 20.9069C7.18894 21.0341 6.60755 21.2517 6.06847 21.5524C5.62633 21.7873 5.2478 22.1259 4.96535 22.5393C4.68291 22.9526 4.505 23.4283 4.44689 23.9256C4.42271 24.0974 4.4103 24.2611 4.39356 24.4105C4.3607 24.3485 4.32659 24.2778 4.28504 24.2077C3.92577 23.6278 3.69585 22.9772 3.61099 22.3003C3.54912 21.8646 3.59269 21.4205 3.73804 21.0052C3.88338 20.5899 4.12626 20.2155 4.44627 19.9135C4.4721 19.8837 4.49303 19.85 4.50828 19.8137C4.59463 19.6117 4.69193 19.4146 4.79973 19.2233C5.12825 18.7112 5.56755 18.2793 6.08521 17.9595C6.76456 17.5309 7.49577 17.1906 8.26117 16.9469C9.4721 16.5582 10.7082 16.2526 11.9607 16.0322C12.9783 15.8363 13.9953 15.6403 15.0154 15.4512C15.8094 15.3114 16.5811 15.0658 17.3098 14.7207C18.2283 14.2929 19.0671 13.7115 19.7902 13.0018C19.8197 12.9772 19.8566 12.9632 19.895 12.9621C20.3748 12.9507 20.853 12.9011 21.325 12.8139C22.6306 12.5651 23.8697 12.0457 24.9625 11.289L25.0295 11.2494C25.0284 11.2785 25.0231 11.3073 25.014 11.3349C24.922 11.7452 24.7976 12.1474 24.6419 12.5379C23.917 14.4177 22.5493 15.9796 20.7817 16.9463L20.7867 16.9519ZM31.4197 27.0125C31.381 27.3289 31.3236 27.6428 31.2479 27.9526C31.2053 28.175 31.1007 28.3809 30.9463 28.5465C30.7918 28.7122 30.5937 28.8309 30.3748 28.8889C30.1645 28.9502 29.9464 28.9805 29.7274 28.9788C29.2964 28.9742 28.8675 28.9165 28.4506 28.8071C28.0992 28.7293 27.7637 28.5922 27.4584 28.4015C27.1671 28.2276 26.9559 27.9461 26.8706 27.6177C26.8272 27.4045 26.8272 27.1847 26.8706 26.9715C26.8731 26.9352 26.8871 26.9005 26.9107 26.8727C26.9342 26.8448 26.966 26.8251 27.0014 26.8165C27.6862 26.5729 28.2503 26.0741 28.5759 25.4244C28.5925 25.3834 28.6204 25.348 28.6562 25.3221C28.6921 25.2962 28.7345 25.2809 28.7786 25.278C29.1036 25.2237 29.4373 25.2712 29.7342 25.4138C29.823 25.4619 29.9223 25.4871 30.0232 25.4871C30.1241 25.4871 30.2234 25.4619 30.3122 25.4138C30.3915 25.3747 30.4669 25.328 30.5373 25.2743C30.6283 25.2032 30.7157 25.1274 30.799 25.0474C30.8054 25.0601 30.8129 25.0723 30.8213 25.0839C31.0518 25.3452 31.2245 25.6523 31.3282 25.9849C31.4318 26.3176 31.4641 26.6684 31.4228 27.0143L31.4197 27.0125ZM26.315 28.4245C26.3676 28.4618 26.4172 28.5032 26.4632 28.5485C26.8722 28.9255 27.3519 29.2176 27.8745 29.4079C28.3415 29.5758 28.8316 29.6707 29.3274 29.6895C29.6938 29.7213 30.0629 29.694 30.4207 29.6089C30.6687 29.5419 30.8988 29.4371 31.1406 29.3608C31.1677 29.349 31.197 29.3429 31.2265 29.3429C31.2561 29.3429 31.2853 29.349 31.3124 29.3608C31.3707 29.4055 31.326 29.478 31.3124 29.5326C31.1482 29.8598 30.9076 30.1427 30.6111 30.3573C30.0794 30.7127 29.4324 30.8522 28.8016 30.7474C28.7035 30.7345 28.6039 30.7544 28.5182 30.8038C28.4767 30.8261 28.4531 30.8776 28.4202 30.9154L28.4376 30.9359H28.5058C28.6255 30.9262 28.7458 30.9262 28.8655 30.9359C28.9509 30.9447 29.0324 30.9758 29.1019 31.0262C29.1715 31.0766 29.2264 31.1445 29.2614 31.2229C29.2963 31.3014 29.3099 31.3876 29.3008 31.473C29.2917 31.5584 29.2603 31.6398 29.2096 31.7092C29.1803 31.7626 29.1361 31.8063 29.0823 31.835C29.0286 31.8638 28.9677 31.8763 28.907 31.871C28.8458 31.8595 28.7892 31.8307 28.7439 31.7881C28.6985 31.7454 28.6662 31.6907 28.6509 31.6304C28.6404 31.6 28.634 31.5683 28.6317 31.5362C28.618 31.4121 28.6094 31.3985 28.4835 31.4022C28.3681 31.4087 28.2532 31.422 28.1393 31.4419C28.1094 31.4497 28.0782 31.4515 28.0477 31.447C28.0171 31.4426 27.9877 31.4321 27.9612 31.416C27.9348 31.4 27.9119 31.3788 27.8938 31.3538C27.8757 31.3287 27.8628 31.3003 27.8559 31.2701C27.8376 31.2167 27.8308 31.1599 27.8358 31.1036C27.8408 31.0473 27.8576 30.9927 27.8851 30.9433C27.9471 30.8336 28.0209 30.7337 28.086 30.6333C27.9142 30.5595 27.7139 30.4938 27.5378 30.3995C27.2041 30.2416 26.9108 30.0095 26.6805 29.7209C26.4502 29.4324 26.2889 29.095 26.2089 28.7345C26.1914 28.6589 26.1839 28.5814 26.1866 28.5038C26.1637 28.3928 26.2257 28.3624 26.315 28.4245ZM26.6728 27.4658C26.7145 27.627 26.7662 27.7854 26.8278 27.9402C26.9913 28.2646 27.2666 28.519 27.6029 28.6564C28.3761 29.021 29.2314 29.1763 30.0833 29.1066C30.3346 29.1011 30.5795 29.027 30.7916 28.8922C31.0036 28.7574 31.1748 28.5671 31.2864 28.342L31.3 28.3314C31.3748 28.3629 31.4395 28.4142 31.4873 28.4797C31.5351 28.5453 31.564 28.6227 31.571 28.7035C31.5809 28.7736 31.5681 28.8451 31.5347 28.9075C31.5013 28.97 31.4488 29.0201 31.385 29.0508C31.214 29.1507 31.0337 29.2337 30.8467 29.2988C30.0692 29.5283 29.244 29.542 28.4593 29.3385C27.854 29.2018 27.2872 28.931 26.8005 28.546C26.6032 28.4005 26.4411 28.2125 26.3261 27.996C26.2945 27.939 26.2779 27.875 26.2778 27.8099C26.2958 27.7178 26.3439 27.6342 26.4144 27.5723C26.485 27.5104 26.5741 27.4736 26.6678 27.4676L26.6728 27.4658ZM1.57766 23.44C1.12214 22.6706 0.792627 21.8332 0.601608 20.9596C0.59937 20.3913 0.640833 19.8237 0.725629 19.2618C0.744853 19.1309 0.772137 19.0019 0.794461 18.8717C0.814071 18.8916 0.827806 18.9165 0.834148 18.9436C0.928404 19.258 1.00592 19.578 1.1194 19.8868C1.6994 21.4931 2.5496 22.9884 3.63331 24.3082C3.67378 24.3595 3.70466 24.4177 3.72447 24.48C3.95071 25.183 4.28706 25.8456 4.72098 26.4432C4.07139 26.2719 3.48655 25.9132 3.03925 25.412C3.66404 26.4221 4.61941 27.1846 5.74291 27.57C6.79094 28.4963 8.04208 29.1633 9.39534 29.5171C9.5051 29.5481 9.61734 29.5723 9.72896 29.5977C9.70607 29.5778 9.67923 29.563 9.65021 29.5543C8.64033 29.1964 7.69582 28.6757 6.85415 28.0127C5.80453 27.2099 4.99878 26.131 4.52688 24.8967C4.46808 24.7706 4.46009 24.6267 4.50456 24.4948C4.54115 24.4006 4.55789 24.2989 4.5889 24.2009C4.79147 23.4708 5.18413 22.8074 5.72679 22.2786C6.26549 21.7886 6.91386 21.4349 7.6175 21.2473C8.46328 21.0279 9.32531 20.8768 10.1953 20.7953C10.6969 20.7302 11.1974 20.6508 11.6972 20.5733C11.8311 20.5528 11.9657 20.52 12.1077 20.4908C12.102 20.5015 12.0955 20.5119 12.0885 20.5218C11.6987 20.958 11.3707 21.4456 11.1137 21.971C11.0956 22.006 11.065 22.033 11.0281 22.0467C10.7992 22.1281 10.5662 22.197 10.3298 22.2532C9.98569 22.3232 9.61858 22.3493 9.2676 22.4249C7.3769 22.797 6.80144 23.8102 6.81012 23.7997C7.30133 23.3666 7.89848 23.0714 8.54084 22.944C9.10244 22.7608 9.69168 22.6768 10.2821 22.6959C10.4539 22.6959 10.6263 22.7083 10.7974 22.7151C10.2527 24.3867 10.3452 26.2006 11.0572 27.8081C11.0574 27.7779 11.0537 27.7479 11.0461 27.7188C10.7468 26.6609 10.6666 25.5531 10.8104 24.4632C10.9862 23.1593 11.601 21.9541 12.5535 21.0464C13.2881 20.3618 14.1382 19.8127 15.0644 19.4248C15.9406 19.0564 16.8487 18.7687 17.7773 18.5654C18.4737 18.3936 19.1732 18.2336 19.8609 18.0308C20.779 17.7713 21.6236 17.3005 22.3271 16.6561C22.4394 16.5574 22.5431 16.4493 22.6371 16.333C23.2162 15.5617 23.9821 14.9505 24.8627 14.557C24.9305 14.3407 25.0354 14.1378 25.1727 13.9574C25.397 13.6743 25.661 13.4252 25.9565 13.2176C26.0455 13.158 26.1461 13.1181 26.2517 13.1004C26.275 13.0931 26.2995 13.0909 26.3237 13.0939C26.3479 13.0969 26.3712 13.105 26.392 13.1177C26.4128 13.1303 26.4307 13.1473 26.4445 13.1674C26.4583 13.1875 26.4676 13.2103 26.4718 13.2343C26.4813 13.2648 26.4888 13.2959 26.4942 13.3273C26.5563 13.3507 26.6143 13.3837 26.6659 13.4253C26.7065 13.4561 26.745 13.4894 26.7813 13.5252C26.9426 13.6941 27.0709 13.8918 27.1595 14.1081C27.1658 14.13 27.179 14.1494 27.1973 14.1632C27.2155 14.177 27.2378 14.1844 27.2606 14.1843C27.3722 14.198 27.4839 14.2135 27.5942 14.2364C28.4716 14.3973 29.2714 14.8429 29.8698 15.5044C30.4682 16.1658 30.8318 17.006 30.9044 17.895C30.9122 18.0687 30.9363 18.2412 30.9763 18.4104C31.0545 18.6177 31.145 18.8202 31.2473 19.0168C31.3279 19.1886 31.4191 19.361 31.4879 19.5495C31.5609 19.7332 31.5701 19.9361 31.5139 20.1256C31.4947 20.1925 31.4556 20.2099 31.4023 20.1777C31.349 20.1454 31.2628 20.0729 31.1927 20.0208C31.1112 19.9528 31.025 19.8906 30.9348 19.8347C30.8982 19.8126 30.8546 19.8049 30.8126 19.8131C30.7707 19.8214 30.7333 19.845 30.7078 19.8794C30.7216 19.889 30.7348 19.8994 30.7475 19.9104C30.9335 20.0822 31.1195 20.2372 31.2975 20.4065C31.3092 20.4185 31.3183 20.4328 31.3242 20.4485C31.3302 20.4642 31.3329 20.4809 31.3322 20.4976C31.3256 20.7546 31.2232 20.9999 31.0451 21.1853C30.9417 21.3071 30.807 21.3982 30.6555 21.4488C30.504 21.4994 30.3415 21.5076 30.1857 21.4724C30.177 21.6014 30.1683 21.6237 30.0945 21.6628C29.6231 21.9306 29.0895 22.0698 28.5473 22.0665C28.1515 22.0688 27.7637 22.1781 27.425 22.3828C27.3167 22.4455 27.2011 22.4947 27.0808 22.5291C26.7033 22.6204 26.3164 22.6672 25.928 22.6686H25.8338C25.8498 22.6871 25.8717 22.6994 25.8958 22.7034C26.2051 22.7722 26.5232 22.7931 26.839 22.7654C26.9411 22.7432 27.0468 22.7432 27.149 22.7654C27.4107 22.872 27.6643 22.9991 27.9173 23.13C27.9471 23.1497 27.981 23.1625 28.0164 23.1673C28.0519 23.1722 28.0879 23.1689 28.122 23.1579C28.2819 23.0959 28.4432 23.0395 28.5982 22.9688C28.9175 22.8108 29.275 22.7463 29.6294 22.7827C29.8295 22.7995 30.0238 22.8581 30.1999 22.9545C30.2581 22.9826 30.3081 23.0252 30.3452 23.0782C30.3822 23.1312 30.405 23.1928 30.4114 23.2571C30.4165 23.2802 30.4295 23.3007 30.448 23.3154C30.4945 23.3588 30.5478 23.3979 30.5943 23.4394C30.6618 23.498 30.7141 23.5721 30.7465 23.6555C30.7789 23.7388 30.7905 23.8287 30.7803 23.9175C30.7648 24.0756 30.7183 24.1036 30.5813 24.0329C30.5515 24.0105 30.5153 23.9984 30.478 23.9984C30.4408 23.9984 30.4046 24.0105 30.3748 24.0329C30.4622 24.0893 30.5466 24.1395 30.6328 24.2046C30.6907 24.2426 30.7373 24.2956 30.7676 24.3579C30.7978 24.4203 30.8106 24.4897 30.8045 24.5587C30.7909 24.6649 30.7559 24.7672 30.7016 24.8595C30.6473 24.9517 30.5749 25.032 30.4887 25.0956C30.4025 25.1591 30.3044 25.2045 30.2002 25.229C30.096 25.2536 29.9879 25.2567 29.8824 25.2383C29.8145 25.2291 29.7495 25.2051 29.6919 25.168C29.6342 25.131 29.5854 25.0817 29.5488 25.0238C29.5427 25.0141 29.5344 25.0059 29.5246 24.9999C29.5148 24.9939 29.5038 24.9902 29.4924 24.9891C29.3841 24.9898 29.276 24.9996 29.1693 25.0182C28.982 25.0759 28.7847 25.0936 28.5901 25.0703C28.499 25.0529 28.4097 25.0269 28.3154 25.0083C28.2426 25.2585 28.1217 25.4921 27.9595 25.696C27.5881 26.1568 27.0859 26.4945 26.519 26.6646C25.7889 26.893 25.0155 26.9478 24.2605 26.8246C23.7477 26.7716 23.2601 26.5756 22.8533 26.2588C22.4465 25.9421 22.1369 25.5173 21.9599 25.0331C21.8673 24.7702 21.7887 24.5025 21.7243 24.2313C21.6016 23.8013 21.4286 23.3874 21.209 22.9979C20.869 22.3714 20.3543 21.8572 19.7276 21.5177C19.0213 21.1533 18.2116 21.0417 17.4332 21.2015C17.2819 21.2294 17.1324 21.2666 16.9656 21.3044C17.2577 21.3218 17.5237 21.3286 17.7922 21.3565C18.5261 21.4225 19.234 21.6609 19.8584 22.0522C20.6138 22.4858 21.1693 23.1982 21.4056 24.0366C21.5299 24.5112 21.7026 24.9719 21.9209 25.4114C22.0583 25.7091 22.2386 25.9851 22.456 26.2305C22.8294 26.6113 23.302 26.8799 23.8203 27.0057C23.9803 27.0503 24.1384 27.0999 24.2965 27.1501C24.3336 27.1625 24.3673 27.1834 24.3948 27.2112C24.4222 27.239 24.4428 27.2729 24.4546 27.3101C24.5414 27.5285 24.564 27.7671 24.5198 27.9978C24.4429 28.3614 24.2703 28.698 24.0199 28.9726C23.801 29.205 23.5523 29.4072 23.2802 29.5741C23.1507 29.6599 23.0264 29.7533 22.9081 29.8538C22.8567 29.8948 22.8157 29.9473 22.7884 30.0071C22.7612 30.0669 22.7484 30.1323 22.7512 30.198C22.7617 30.4404 22.7773 30.4776 23.0179 30.397C23.0557 30.3846 23.0935 30.3691 23.1295 30.3536C23.3273 30.2693 23.5226 30.1818 23.7211 30.0987C24.0899 29.9306 24.5035 29.887 24.8993 29.9747C25.1116 30.0146 25.3087 30.1123 25.4689 30.2572C25.6292 30.4021 25.7462 30.5885 25.8071 30.7957C25.8244 30.8396 25.8322 30.8866 25.8298 30.9336C25.8275 30.9807 25.8151 31.0267 25.7934 31.0686C25.7788 31.0909 25.7596 31.1098 25.737 31.1241C25.7144 31.1383 25.6891 31.1475 25.6626 31.1511C25.6211 31.1511 25.5733 31.1064 25.5386 31.0686C25.5039 31.0308 25.5181 31.0035 25.5094 30.9706C25.4946 30.8847 25.4606 30.8032 25.41 30.7322C25.3595 30.6611 25.2937 30.6023 25.2174 30.5601C25.1834 30.5466 25.1484 30.5363 25.1126 30.5291C25.224 30.6346 25.3115 30.7629 25.3691 30.9052C25.4266 31.0475 25.4529 31.2005 25.4462 31.3538C25.4447 31.4099 25.4315 31.4649 25.4075 31.5156C25.3836 31.5662 25.3493 31.6113 25.307 31.648C25.2646 31.6847 25.2151 31.7122 25.1616 31.7287C25.108 31.7452 25.0516 31.7504 24.996 31.7439C24.9645 31.7459 24.9334 31.7357 24.9091 31.7156C24.8847 31.6954 24.869 31.6667 24.8651 31.6354C24.86 31.5501 24.86 31.4646 24.8651 31.3793C24.8659 31.2782 24.8609 31.1772 24.8503 31.0767C24.8412 31.0015 24.8096 30.9308 24.7597 30.8738C24.7099 30.8168 24.6439 30.7762 24.5706 30.7573C24.5345 30.7464 24.4965 30.7429 24.459 30.7471C24.4215 30.7512 24.3852 30.7629 24.3523 30.7815C24.4009 30.7852 24.448 30.8 24.4901 30.8247C24.5321 30.8494 24.5679 30.8834 24.5948 30.9241C24.6475 31.0114 24.6891 31.105 24.7188 31.2025C24.754 31.2986 24.7562 31.4036 24.7251 31.5011C24.694 31.5985 24.6314 31.6829 24.547 31.7408C24.4519 31.7949 24.3461 31.8277 24.237 31.8369C24.0119 31.8503 23.7863 31.8217 23.5716 31.7526C23.44 31.7204 23.3052 31.7029 23.1698 31.7005C23.0414 31.7057 22.9138 31.7225 22.7884 31.7507C22.0193 31.8473 21.2428 31.8707 20.4692 31.8208C19.6252 31.8102 18.78 31.8208 17.9355 31.8208H11.5384C10.6809 31.8206 9.82674 31.7129 8.996 31.5002C7.4895 31.1602 6.07404 30.4994 4.84616 29.5627C3.61828 28.626 2.60686 27.4355 1.88089 26.0724C1.20328 24.8174 0.787474 23.4379 0.658658 22.0175C0.641295 21.8457 1.58882 23.6124 1.58014 23.4407L1.57766 23.44Z" fill="#0D0D0D"/>
<path d="M26.3743 15.9639C26.241 15.7639 26.1721 15.5279 26.1767 15.2876C26.1814 15.0473 26.2594 14.8142 26.4004 14.6195C26.6224 14.214 27.2121 14.5749 27.1327 14.1234C27.0431 13.7784 26.8653 13.4626 26.6168 13.2069C26.5467 13.1127 26.4705 12.9868 26.3316 13.0147C26.2065 13.0439 26.0892 13.0995 25.9874 13.1778C25.6191 13.4353 25.2903 13.7451 25.0114 14.0974C24.5221 14.7504 24.7242 15.1454 25.2966 15.6669C25.6197 15.8677 25.994 15.9709 26.3743 15.9639Z" fill="#E65270"/>
<path opacity="0.2" d="M25.8433 13.8105C26.0222 13.6371 26.2201 13.4842 26.433 13.3547C26.557 13.2741 26.1924 14.2644 26.0889 14.5261C25.9425 14.9584 25.9365 15.4259 26.0715 15.8618C25.7265 15.6388 25.4804 15.2919 25.3838 14.8926C25.4015 14.4883 25.5647 14.104 25.8433 13.8105Z" fill="#2B2B2B"/>
<path d="M26.2668 15.91C26.1335 15.71 26.0646 15.474 26.0692 15.2337C26.0739 14.9934 26.1519 14.7603 26.2929 14.5656C26.5229 14.1862 26.6108 13.7375 26.5409 13.2993C26.5331 13.2481 26.5215 13.1975 26.5062 13.148C26.5012 13.1182 26.49 13.0898 26.4733 13.0646C26.4566 13.0394 26.4348 13.018 26.4093 13.0018C26.3838 12.9856 26.3552 12.975 26.3253 12.9706C26.2954 12.9662 26.2649 12.9681 26.2358 12.9763C26.1054 12.998 25.9811 13.0472 25.8712 13.1207C25.5057 13.3823 25.1803 13.6956 24.9051 14.0509C24.7402 14.2086 24.6429 14.424 24.6336 14.6519C24.6242 14.8798 24.7035 15.1025 24.8548 15.2731C24.881 15.3119 24.9164 15.3436 24.9579 15.3652C24.9994 15.3869 25.0456 15.3978 25.0923 15.3972C25.2281 15.4232 25.2641 15.2254 25.2164 15.1584C25.1263 15.0063 25.0679 14.8376 25.0446 14.6623C25.0436 14.3011 25.1849 13.9541 25.4377 13.6962C25.7007 13.3999 26.0257 13.1651 26.3896 13.0085C26.4134 13.3817 26.3548 13.7556 26.2178 14.1036C26.0994 14.4304 25.7397 15.0282 25.8315 15.4151C25.8859 15.582 25.9751 15.7355 26.0932 15.8653C26.2061 15.9546 26.2668 15.91 26.2668 15.91Z" fill="#0D0D0D"/>
<g opacity="0.2">
<path d="M10.1009 22.4546C10.0673 22.4578 10.0334 22.4518 10.0029 22.4373C10.0365 22.4357 10.07 22.4416 10.1009 22.4546Z" fill="#8B4FBA"/>
</g>
<path opacity="0.2" d="M26.4917 27.2085C26.7973 26.8275 27.1532 26.4898 27.5496 26.2045C27.9446 25.8324 28.2131 25.4257 28.5808 25.0784C28.8879 25.1111 29.197 25.1204 29.5054 25.1063C29.72 25.6371 30.7636 25.1323 30.8616 24.79L31.0011 24.9978C31.3019 25.5912 30.2223 25.6303 29.609 25.5683C29.1749 25.5249 27.3146 26.0154 27.3766 28.4146C27.167 28.7358 26.6734 28.4146 26.6721 28.8406C26.6709 29.2666 26.6721 30.0262 27.0504 30.3003C26.9438 30.6724 26.576 30.278 26.4725 30.1285C26.1917 29.7231 25.9799 29.2741 25.8455 28.7997C25.7234 28.12 26.1513 27.7238 26.4917 27.2085Z" fill="#430A1D"/>
<defs>
<linearGradient id="paint0_linear_23_264" x1="4955.08" y1="-122.43" x2="4977.52" y2="-89.4142" gradientUnits="userSpaceOnUse">
<stop offset="0.38" stop-color="#FAA100"/>
<stop offset="0.66" stop-color="#C370E6"/>
<stop offset="0.69" stop-color="#CC68C7"/>
<stop offset="0.71" stop-color="#D461AB"/>
<stop offset="0.73" stop-color="#DB5B95"/>
<stop offset="0.76" stop-color="#E05784"/>
<stop offset="0.8" stop-color="#E35479"/>
<stop offset="0.85" stop-color="#E55272"/>
<stop offset="1" stop-color="#E65270"/>
</linearGradient>
<linearGradient id="paint1_linear_23_264" x1="4951.89" y1="-122.986" x2="4961.67" y2="-78.1551" gradientUnits="userSpaceOnUse">
<stop offset="0.38" stop-color="#FAA100"/>
<stop offset="0.66" stop-color="#C370E6"/>
<stop offset="0.69" stop-color="#CC68C7"/>
<stop offset="0.71" stop-color="#D461AB"/>
<stop offset="0.73" stop-color="#DB5B95"/>
<stop offset="0.76" stop-color="#E05784"/>
<stop offset="0.8" stop-color="#E35479"/>
<stop offset="0.85" stop-color="#E55272"/>
<stop offset="1" stop-color="#E65270"/>
</linearGradient>
<linearGradient id="paint2_linear_23_264" x1="4951.11" y1="-120.127" x2="4951.59" y2="-93.5185" gradientUnits="userSpaceOnUse">
<stop stop-color="#FAA7B5"/>
<stop offset="0.38" stop-color="#FAA100"/>
<stop offset="0.73" stop-color="#BF73F2"/>
</linearGradient>
<linearGradient id="paint3_linear_23_264" x1="4956.6" y1="-117.405" x2="4947.08" y2="-110.849" gradientUnits="userSpaceOnUse">
<stop stop-color="#F6E8A0"/>
<stop offset="1" stop-color="#E65271"/>
</linearGradient>
<linearGradient id="paint4_linear_23_264" x1="4956.59" y1="-110.753" x2="4948.33" y2="-105.294" gradientUnits="userSpaceOnUse">
<stop stop-color="#F6E8A0"/>
<stop offset="1" stop-color="#E65271"/>
</linearGradient>
<linearGradient id="paint5_linear_23_264" x1="4946.4" y1="-117.813" x2="4950.28" y2="-107.93" gradientUnits="userSpaceOnUse">
<stop stop-color="#F6E8A0"/>
<stop offset="1" stop-color="#E65271"/>
</linearGradient>
<linearGradient id="paint6_linear_23_264" x1="4946.94" y1="-106.627" x2="4953.26" y2="-121.844" gradientUnits="userSpaceOnUse">
<stop stop-color="#E65271"/>
<stop offset="0.38" stop-color="#FAA100"/>
</linearGradient>
<linearGradient id="paint7_linear_23_264" x1="4957.23" y1="-114.839" x2="4945.35" y2="-101.635" gradientUnits="userSpaceOnUse">
<stop stop-color="#F6E8A0"/>
<stop offset="1" stop-color="#E65271"/>
</linearGradient>
<linearGradient id="paint8_linear_23_264" x1="4939.07" y1="-106.704" x2="4952.53" y2="-105.339" gradientUnits="userSpaceOnUse">
<stop stop-color="#FAA7B5"/>
<stop offset="0.38" stop-color="#FAA100"/>
<stop offset="0.73" stop-color="#BF73F2"/>
</linearGradient>
<linearGradient id="paint9_linear_23_264" x1="4909.45" y1="-122.247" x2="4945.64" y2="-70.6069" gradientUnits="userSpaceOnUse">
<stop stop-color="#FAA7B5"/>
<stop offset="0.38" stop-color="#FAA100"/>
<stop offset="0.73" stop-color="#BF73F2"/>
</linearGradient>
<radialGradient id="paint10_radial_23_264" cx="0" cy="0" r="1" gradientUnits="userSpaceOnUse" gradientTransform="translate(790.433 812.826) rotate(-131.56) scale(3.27258 3.00831)">
<stop offset="0.01" stop-color="white"/>
<stop offset="1" stop-color="white" stop-opacity="0"/>
</radialGradient>
<radialGradient id="paint11_radial_23_264" cx="0" cy="0" r="1" gradientUnits="userSpaceOnUse" gradientTransform="translate(14538.2 5.0771) rotate(180) scale(3.53983 3.53984)">
<stop offset="0.01" stop-color="white"/>
<stop offset="1" stop-color="white" stop-opacity="0"/>
</radialGradient>
<radialGradient id="paint12_radial_23_264" cx="0" cy="0" r="1" gradientUnits="userSpaceOnUse" gradientTransform="translate(5427.08 5.08096) rotate(180) scale(3.54018 3.5405)">
<stop offset="0.01" stop-color="white"/>
<stop offset="1" stop-color="white" stop-opacity="0"/>
</radialGradient>
<linearGradient id="paint13_linear_23_264" x1="4937.43" y1="-93.4882" x2="4940.08" y2="-85.3355" gradientUnits="userSpaceOnUse">
<stop stop-color="#FAA7B5"/>
<stop offset="0.38" stop-color="#FAA100"/>
</linearGradient>
<linearGradient id="paint14_linear_23_264" x1="4963.71" y1="-116.212" x2="4972.35" y2="-97.0498" gradientUnits="userSpaceOnUse">
<stop stop-color="#FAA7B5"/>
<stop offset="0.38" stop-color="#FAA100"/>
<stop offset="0.73" stop-color="#BF73F2"/>
</linearGradient>
<linearGradient id="paint15_linear_23_264" x1="4960.73" y1="-116.465" x2="4971.52" y2="-99.871" gradientUnits="userSpaceOnUse">
<stop stop-color="#FAA7B5"/>
<stop offset="0.38" stop-color="#FAA100"/>
<stop offset="0.73" stop-color="#BF73F2"/>
</linearGradient>
<linearGradient id="paint16_linear_23_264" x1="4969.26" y1="-107.189" x2="4962.25" y2="-95.4811" gradientUnits="userSpaceOnUse">
<stop stop-color="#FAA7B5"/>
<stop offset="0.38" stop-color="#FAA100"/>
<stop offset="0.73" stop-color="#BF73F2"/>
</linearGradient>
<linearGradient id="paint17_linear_23_264" x1="4942.18" y1="-119.989" x2="4950.03" y2="-95.7231" gradientUnits="userSpaceOnUse">
<stop stop-color="#FAA7B5"/>
<stop offset="0.38" stop-color="#FAA100"/>
<stop offset="0.73" stop-color="#BF73F2"/>
</linearGradient>
<linearGradient id="paint18_linear_23_264" x1="4935.05" y1="-99.5649" x2="4936.48" y2="-97.2289" gradientUnits="userSpaceOnUse">
<stop stop-color="#FAA7B5"/>
<stop offset="0.38" stop-color="#FAA100"/>
<stop offset="0.73" stop-color="#BF73F2"/>
</linearGradient>
</defs>
</svg>
