<svg width="36" height="36" viewBox="0 0 36 36" fill="none" xmlns="http://www.w3.org/2000/svg">
<g clip-path="url(#clip0_1628_4703)">
<mask id="mask0_1628_4703" style="mask-type:luminance" maskUnits="userSpaceOnUse" x="0" y="0" width="36" height="36">
<path d="M18 36C27.9411 36 36 27.9411 36 18C36 8.05887 27.9411 0 18 0C8.05887 0 0 8.05887 0 18C0 27.9411 8.05887 36 18 36Z" fill="white"/>
</mask>
<g mask="url(#mask0_1628_4703)">
<path d="M-9.05469 0H45.0533V36.072H-9.05469V0Z" fill="#F89939"/>
</g>
<mask id="mask1_1628_4703" style="mask-type:luminance" maskUnits="userSpaceOnUse" x="0" y="0" width="36" height="36">
<path d="M18 36C27.9411 36 36 27.9411 36 18C36 8.05887 27.9411 0 18 0C8.05887 0 0 8.05887 0 18C0 27.9411 8.05887 36 18 36Z" fill="white"/>
</mask>
<g mask="url(#mask1_1628_4703)">
<path d="M-9.05469 12.0239H45.0533V24.0479H-9.05469V12.0239Z" fill="white"/>
</g>
<mask id="mask2_1628_4703" style="mask-type:luminance" maskUnits="userSpaceOnUse" x="0" y="0" width="36" height="36">
<path d="M18 36C27.9411 36 36 27.9411 36 18C36 8.05887 27.9411 0 18 0C8.05887 0 0 8.05887 0 18C0 27.9411 8.05887 36 18 36Z" fill="white"/>
</mask>
<g mask="url(#mask2_1628_4703)">
<path d="M-9.05469 24.0479H45.0533V36.0719H-9.05469V24.0479Z" fill="#1E8943"/>
</g>
<mask id="mask3_1628_4703" style="mask-type:luminance" maskUnits="userSpaceOnUse" x="0" y="0" width="36" height="36">
<path d="M18 36C27.9411 36 36 27.9411 36 18C36 8.05887 27.9411 0 18 0C8.05887 0 0 8.05887 0 18C0 27.9411 8.05887 36 18 36Z" fill="white"/>
</mask>
<g mask="url(#mask3_1628_4703)">
<path d="M17.9991 22.8458C20.6553 22.8458 22.8087 20.6924 22.8087 18.0362C22.8087 15.3799 20.6553 13.2266 17.9991 13.2266C15.3428 13.2266 13.1895 15.3799 13.1895 18.0362C13.1895 20.6924 15.3428 22.8458 17.9991 22.8458Z" fill="#2A2C7A"/>
</g>
<mask id="mask4_1628_4703" style="mask-type:luminance" maskUnits="userSpaceOnUse" x="0" y="0" width="36" height="36">
<path d="M18 36C27.9411 36 36 27.9411 36 18C36 8.05887 27.9411 0 18 0C8.05887 0 0 8.05887 0 18C0 27.9411 8.05887 36 18 36Z" fill="white"/>
</mask>
<g mask="url(#mask4_1628_4703)">
<path d="M21.203 15.3118C21.1294 15.2252 21.053 15.1409 20.9727 15.0605L19.2893 16.948L18.6211 17.4731C18.651 17.5061 18.6785 17.5413 18.7028 17.5789L19.3827 17.0697L21.641 15.9323C21.584 15.8338 21.5234 15.7376 21.4588 15.6443C21.3669 15.711 21.2383 15.6931 21.1686 15.6025C21.0993 15.5121 21.1153 15.3835 21.203 15.3118Z" fill="white"/>
<path d="M17.4767 14.0728C17.3634 14.0876 17.2599 14.0093 17.2418 13.8973C17.0157 13.9384 16.7957 13.9969 16.5837 14.0726C16.6248 14.1789 16.5743 14.2991 16.4684 14.3428C16.3627 14.3866 16.242 14.3376 16.1958 14.2333C16.0929 14.2821 15.9926 14.3357 15.8945 14.3924L17.2818 16.5066L17.6157 17.2875C17.6553 17.2673 17.6965 17.2498 17.7393 17.2359L17.4235 16.4478L16.9092 13.9715L17.7021 16.3733L17.8226 17.2135C17.8657 17.2043 17.9102 17.1993 17.9554 17.197L17.8542 16.3531L17.9984 13.8281C17.8837 13.8281 17.7703 13.834 17.6579 13.843C17.6694 13.9556 17.5897 14.0578 17.4767 14.0728Z" fill="white"/>
<path d="M20.4335 14.8644C20.3429 14.7947 20.325 14.6662 20.3916 14.5743C20.2984 14.5097 20.2022 14.4491 20.1037 14.3921L18.9663 16.6504L18.457 17.3302C18.4946 17.3546 18.5298 17.3821 18.5629 17.412L19.088 16.7438L20.9755 15.0604C20.8952 14.9801 20.8109 14.9037 20.7243 14.8301C20.6526 14.9178 20.5239 14.9338 20.4335 14.8644Z" fill="white"/>
<path d="M19.088 19.3284L18.5629 18.6602C18.5298 18.69 18.4946 18.7176 18.457 18.7419L18.9663 19.4218L20.1037 21.6801C20.2022 21.6231 20.2983 21.5624 20.3916 21.4979C20.325 21.4059 20.3429 21.2773 20.4335 21.2077C20.5239 21.1384 20.6526 21.1543 20.7243 21.242C20.8108 21.1683 20.8951 21.092 20.9755 21.0117L19.088 19.3284Z" fill="white"/>
<path d="M19.6844 18.1803L18.8406 18.0791C18.8383 18.1244 18.8332 18.1688 18.8241 18.2119L19.6643 18.3324L22.066 19.1253L19.5897 18.6111L18.8016 18.2952C18.7878 18.3381 18.7703 18.3792 18.75 18.4188L19.531 18.7527L21.6452 20.14C21.7019 20.0418 21.7554 19.9416 21.8043 19.8387C21.7 19.7925 21.6509 19.6718 21.6947 19.5661C21.7385 19.4603 21.8587 19.4097 21.965 19.4508C22.0406 19.2388 22.0992 19.0188 22.1402 18.7927C22.0282 18.7746 21.95 18.6711 21.9648 18.5579C21.9797 18.4449 22.0819 18.3651 22.1945 18.3767C22.2036 18.2642 22.2094 18.1509 22.2094 18.0361L19.6844 18.1803Z" fill="white"/>
<path d="M21.9647 17.5148C21.9499 17.4015 22.0282 17.298 22.1402 17.28C22.0991 17.0538 22.0405 16.8338 21.9649 16.6218C21.8586 16.6629 21.7385 16.6124 21.6947 16.5065C21.6509 16.4008 21.6999 16.2801 21.8043 16.2339C21.7554 16.131 21.7019 16.0307 21.6451 15.9326L19.531 17.3198L18.75 17.6538C18.7702 17.6934 18.7878 17.7346 18.8016 17.7774L19.5897 17.4615L22.066 16.9472L19.6643 17.7402L18.8241 17.8607C18.8332 17.9038 18.8383 17.9483 18.8406 17.9935L19.6844 17.8923L22.2094 18.0365C22.2094 17.9218 22.2035 17.8084 22.1944 17.696C22.0819 17.7075 21.9797 17.6277 21.9647 17.5148Z" fill="white"/>
<path d="M19.3827 19.0029L18.7028 18.4937C18.6785 18.5312 18.651 18.5664 18.6211 18.5996L19.2893 19.1246L20.9727 21.0121C21.053 20.9318 21.1294 20.8474 21.203 20.7609C21.1153 20.6891 21.0993 20.5605 21.1687 20.4701C21.2383 20.3794 21.3669 20.3616 21.4588 20.4282C21.5234 20.3349 21.584 20.2388 21.641 20.1403L19.3827 19.0029Z" fill="white"/>
<path d="M18.0429 17.197C18.0882 17.1993 18.1327 17.2043 18.1758 17.2135L18.2962 16.3732L19.0892 13.9715L18.5749 16.4478L18.2591 17.2359C18.302 17.2497 18.3431 17.2672 18.3827 17.2875L18.7166 16.5065L20.1038 14.3924C20.0057 14.3356 19.9055 14.2822 19.8026 14.2333C19.7564 14.3376 19.6356 14.3866 19.53 14.3428C19.4241 14.2991 19.3735 14.1789 19.4147 14.0726C19.2027 13.9969 18.9827 13.9384 18.7566 13.8973C18.7386 14.0093 18.635 14.0876 18.5217 14.0728C18.4088 14.0578 18.329 13.9556 18.3405 13.843C18.2281 13.834 18.1148 13.8281 18 13.8281L18.1443 16.3531L18.0429 17.197Z" fill="white"/>
<path d="M16.9109 16.7438L17.436 17.4121C17.4691 17.3822 17.5043 17.3547 17.5419 17.3303L17.0326 16.6504L15.8952 14.3921C15.7967 14.4491 15.7005 14.5097 15.6072 14.5743C15.6739 14.6662 15.6561 14.7948 15.5655 14.8644C15.475 14.9339 15.3464 14.9179 15.2746 14.8301C15.1881 14.9038 15.1038 14.9801 15.0234 15.0604L16.9109 16.7438Z" fill="white"/>
<path d="M16.6138 17.0697L17.2936 17.5789C17.318 17.5413 17.3455 17.5062 17.3754 17.4731L16.7072 16.948L15.0238 15.0605C14.9435 15.1409 14.8671 15.2252 14.7935 15.3118C14.8812 15.3835 14.8972 15.5121 14.8278 15.6026C14.7582 15.6932 14.6296 15.711 14.5377 15.6444C14.4731 15.7376 14.4125 15.8338 14.3555 15.9324L16.6138 17.0697Z" fill="white"/>
<path d="M17.9574 18.8762C17.9121 18.874 17.8676 18.8688 17.8245 18.8597L17.7041 19.6999L16.9111 22.1016L17.4254 19.6254L17.7413 18.8373C17.6984 18.8234 17.6572 18.8059 17.6177 18.7856L17.2837 19.5666L15.8965 21.6808C15.9946 21.7375 16.0948 21.791 16.1978 21.84C16.2439 21.7357 16.3647 21.6866 16.4704 21.7303C16.5763 21.7741 16.6268 21.8943 16.5857 22.0006C16.7977 22.0763 17.0177 22.1348 17.2438 22.1759C17.2619 22.0638 17.3654 21.9856 17.4786 22.0004C17.5916 22.0154 17.6714 22.1176 17.6598 22.2301C17.7723 22.2392 17.8856 22.2451 18.0004 22.2451L17.8561 19.7201L17.9574 18.8762Z" fill="white"/>
<path d="M15.8953 21.6801L17.0326 19.4218L17.5419 18.7419C17.5043 18.7175 17.4691 18.69 17.436 18.6602L16.9109 19.3284L15.0234 21.0117C15.1038 21.092 15.1881 21.1685 15.2746 21.242C15.3464 21.1543 15.475 21.1384 15.5655 21.2077C15.6561 21.2773 15.6739 21.4059 15.6072 21.4979C15.7005 21.5624 15.7967 21.6231 15.8953 21.6801Z" fill="white"/>
<path d="M18.5217 22.0004C18.635 21.9856 18.7385 22.0638 18.7566 22.1758C18.9827 22.1348 19.2027 22.0762 19.4147 22.0006C19.3735 21.8943 19.4241 21.7741 19.53 21.7303C19.6357 21.6865 19.7564 21.7356 19.8026 21.8399C19.9055 21.791 20.0057 21.7375 20.1038 21.6808L18.7167 19.5666L18.3827 18.7856C18.3432 18.8059 18.302 18.8234 18.2591 18.8373L18.575 19.6254L19.0893 22.1016L18.2963 19.6999L18.1758 18.8597C18.1327 18.8688 18.0882 18.874 18.043 18.8762L18.1442 19.7201L18 22.245C18.1148 22.245 18.2281 22.2392 18.3405 22.2301C18.329 22.1175 18.4088 22.0154 18.5217 22.0004Z" fill="white"/>
<path d="M14.1981 19.8388C14.247 19.9417 14.3005 20.0419 14.3572 20.14L16.4714 18.7528L17.2524 18.4188C17.2321 18.3793 17.2146 18.3382 17.2007 18.2953L16.4126 18.6111L13.9364 19.1254L16.3381 18.3324L17.1783 18.212C17.1692 18.1689 17.1641 18.1244 17.1618 18.0791L16.3179 18.1803L13.793 18.0361C13.793 18.1509 13.7989 18.2642 13.8079 18.3767C13.9204 18.3652 14.0226 18.4449 14.0376 18.5579C14.0525 18.6711 13.9742 18.7747 13.8621 18.7927C13.9032 19.0188 13.9617 19.2388 14.0374 19.4508C14.1438 19.4097 14.2639 19.4603 14.3077 19.5661C14.3515 19.6718 14.3024 19.7926 14.1981 19.8388Z" fill="white"/>
<path d="M17.3754 18.5996C17.3455 18.5664 17.318 18.5312 17.2936 18.4937L16.6138 19.0029L14.3555 20.1403C14.4125 20.2388 14.4731 20.335 14.5377 20.4283C14.6296 20.3616 14.7582 20.3795 14.8278 20.4701C14.8972 20.5606 14.8812 20.6892 14.7934 20.7609C14.8671 20.8475 14.9435 20.9318 15.0238 21.0121L16.7071 19.1246L17.3754 18.5996Z" fill="white"/>
<path d="M17.1618 17.9935C17.1642 17.9483 17.1692 17.9038 17.1784 17.8607L16.3381 17.7402L13.9364 16.9472L16.4127 17.4615L17.2008 17.7774C17.2146 17.7346 17.2321 17.6934 17.2524 17.6538L16.4714 17.3198L14.3573 15.9326C14.3005 16.0308 14.247 16.131 14.1981 16.2339C14.3024 16.2801 14.3515 16.4008 14.3077 16.5065C14.2639 16.6124 14.1438 16.6629 14.0374 16.6218C13.9617 16.8338 13.9032 17.0538 13.8621 17.2799C13.9742 17.298 14.0524 17.4015 14.0376 17.5148C14.0226 17.6277 13.9205 17.7075 13.8079 17.696C13.7989 17.8084 13.793 17.9218 13.793 18.0365L16.3179 17.8923L17.1618 17.9935Z" fill="white"/>
</g>
</g>
<defs>
<clipPath id="clip0_1628_4703">
<rect width="36" height="36" fill="white"/>
</clipPath>
</defs>
</svg>
