<svg width="37" height="36" viewBox="0 0 37 36" fill="none" xmlns="http://www.w3.org/2000/svg">
<mask id="mask0_1628_4883" style="mask-type:luminance" maskUnits="userSpaceOnUse" x="1" y="1" width="35" height="34">
<path d="M35.2057 18.0013C35.2057 22.4774 33.4275 26.7702 30.2624 29.9353C27.0973 33.1004 22.8045 34.8785 18.3284 34.8785C13.8523 34.8785 9.5595 33.1004 6.39441 29.9353C3.22931 26.7702 1.45117 22.4774 1.45117 18.0013C1.45117 13.5251 3.22931 9.23235 6.39441 6.06726C9.5595 2.90216 13.8523 1.12402 18.3284 1.12402C22.8045 1.12402 27.0973 2.90216 30.2624 6.06726C33.4275 9.23235 35.2057 13.5251 35.2057 18.0013Z" fill="white"/>
</mask>
<g mask="url(#mask0_1628_4883)">
<path d="M1.45898 1.125H35.209V34.875H1.45898V1.125Z" fill="#2B4896"/>
<mask id="mask1_1628_4883" style="mask-type:luminance" maskUnits="userSpaceOnUse" x="1" y="1" width="18" height="17">
<path d="M1.45898 1.125H18.334V18H1.45898V1.125Z" fill="white"/>
</mask>
<g mask="url(#mask1_1628_4883)">
<path d="M1.45898 1.125H18.334V18H1.45898V1.125Z" fill="#2B4896"/>
<path d="M8.9176 8.60205L-0.105469 18.6106H1.66113V19.1698L10.1349 9.66223L8.9176 8.60205Z" fill="white"/>
<path d="M0.44751 19.9287L9.17238 10.2119L8.50708 10.2772V10.2464L0.0410156 19.5595L0.44751 19.9287Z" fill="#E74C3C"/>
<path d="M18.2906 -0.081543L9.26758 9.927H11.0342V10.4862L19.5431 1.04895L18.2906 -0.081543Z" fill="white"/>
<path d="M18.6582 0.0517578L9.88672 9.70325H10.5986V9.73401L19.0647 0.420898L18.6582 0.0517578Z" fill="#E74C3C"/>
<path d="M8.49842 10.7694L-0.145309 0.43701L1.61953 0.502374L1.64022 -0.0562703L9.79144 9.68638L8.49842 10.7694Z" fill="white"/>
<path d="M8.87013 10.6497L0.464527 0.683357L1.17573 0.709698L1.17687 0.678967L9.28988 10.296L8.87013 10.6497Z" fill="#E74C3C"/>
<path d="M8.49023 1.125H11.3027V18H8.49023V1.125Z" fill="white"/>
<path d="M11.2504 8.93262L20.2734 18.9412H18.5068V19.5004L9.99792 10.0631L11.2504 8.93262Z" fill="white"/>
<path d="M10.8828 9.06592L19.6543 18.7174H18.9424V18.7482L10.4763 9.43506L10.8828 9.06592Z" fill="#E74C3C"/>
<path d="M18.334 8.15625V10.9688H1.45898V8.15625L18.334 8.15625Z" fill="white"/>
<path d="M9.05273 1.125H10.7402V18H9.05273V1.125Z" fill="#E74C3C"/>
<path d="M18.334 8.71875V10.4062L1.45898 10.4063V8.71875L18.334 8.71875Z" fill="#E74C3C"/>
</g>
<path d="M27.7611 23.9399L28.0755 24.9173L29.0356 24.5537L28.4675 25.4089L29.3504 25.9328L28.3276 26.0218L28.4684 27.0388L27.7611 26.2946L27.0538 27.0388L27.1947 26.0218L26.1719 25.9328L27.0548 25.4089L26.4866 24.5537L27.4468 24.9173L27.7611 23.9399Z" fill="white"/>
<path d="M22.0561 14.9072L22.3704 15.8846L23.3305 15.521L22.7624 16.3761L23.6453 16.9001L22.6225 16.9891L22.7633 18.006L22.0561 17.2619L21.3488 18.006L21.4896 16.9891L20.4668 16.9001L21.3497 16.3761L20.7816 15.521L21.7417 15.8846L22.0561 14.9072Z" fill="white"/>
<path d="M27.7611 8.72705L28.0755 9.70442L29.0356 9.34081L28.4675 10.196L29.3504 10.7199L28.3276 10.8089L28.4684 11.8259L27.7611 11.0817L27.0538 11.8259L27.1947 10.8089L26.1719 10.7199L27.0548 10.196L26.4866 9.34081L27.4468 9.70442L27.7611 8.72705Z" fill="white"/>
<path d="M32.8334 13.3857L33.1477 14.3631L34.1079 13.9995L33.5397 14.8547L34.4226 15.3786L33.3998 15.4676L33.5407 16.4846L32.8334 15.7404L32.1261 16.4846L32.267 15.4676L31.2441 15.3786L32.1271 14.8547L31.5589 13.9995L32.519 14.3631L32.8334 13.3857Z" fill="white"/>
<path d="M30.0432 17.9634L30.2917 18.5725L30.9478 18.6206L30.4453 19.0451L30.6023 19.684L30.0432 19.3372L29.4842 19.684L29.6412 19.0451L29.1387 18.6206L29.7948 18.5725L30.0432 17.9634Z" fill="white"/>
<path d="M9.89658 20.5415L10.5557 22.5907L12.5687 21.8283L11.3775 23.6213L13.2287 24.7199L11.0842 24.9064L11.3795 27.0387L9.89658 25.4784L8.41364 27.0387L8.70895 24.9064L6.56445 24.7199L8.41564 23.6213L7.22442 21.8283L9.2375 22.5907L9.89658 20.5415Z" fill="white"/>
</g>
</svg>
