<svg width="36" height="36" viewBox="0 0 36 36" fill="none" xmlns="http://www.w3.org/2000/svg">
<g clip-path="url(#clip0_1628_4952)">
<path d="M18 36C27.9411 36 36 27.9411 36 18C36 8.05887 27.9411 0 18 0C8.05887 0 0 8.05887 0 18C0 27.9411 8.05887 36 18 36Z" fill="#F0F0F0"/>
<path d="M3.71999 7.04102C2.30608 8.8806 1.23993 11.0009 0.619141 13.3042H9.98322L3.71999 7.04102Z" fill="#0052B4"/>
<path d="M35.3796 13.3047C34.7588 11.0014 33.6926 8.88109 32.2787 7.0415L26.0156 13.3047H35.3796Z" fill="#0052B4"/>
<path d="M0.619141 22.6958C1.24 24.9991 2.30615 27.1194 3.71999 28.9589L9.98301 22.6958H0.619141Z" fill="#0052B4"/>
<path d="M28.9585 3.72104C27.1189 2.30713 24.9987 1.24098 22.6953 0.620117V9.98413L28.9585 3.72104Z" fill="#0052B4"/>
<path d="M7.04102 32.2791C8.8806 33.693 11.0009 34.7592 13.3042 35.3801V26.0161L7.04102 32.2791Z" fill="#0052B4"/>
<path d="M13.3041 0.620117C11.0008 1.24098 8.88053 2.30712 7.04102 3.72097L13.3041 9.98405V0.620117Z" fill="#0052B4"/>
<path d="M22.6953 35.3801C24.9986 34.7592 27.1189 33.693 28.9584 32.2792L22.6953 26.0161V35.3801Z" fill="#0052B4"/>
<path d="M26.0156 22.6958L32.2787 28.959C33.6926 27.1194 34.7588 24.9991 35.3796 22.6958H26.0156Z" fill="#0052B4"/>
<path d="M35.8476 15.6522H20.3479H20.3479V0.152367C19.5793 0.0523125 18.7957 0 18 0C17.2041 0 16.4207 0.0523125 15.6522 0.152367V15.6521V15.6521H0.152367C0.0523125 16.4207 0 17.2043 0 18C0 18.7959 0.0523125 19.5793 0.152367 20.3478H15.6521H15.6521V35.8476C16.4207 35.9477 17.2041 36 18 36C18.7957 36 19.5793 35.9478 20.3478 35.8476V20.3479V20.3479H35.8476C35.9477 19.5793 36 18.7959 36 18C36 17.2043 35.9477 16.4207 35.8476 15.6522Z" fill="#D80027"/>
<path d="M22.6953 22.6959L30.7275 30.7281C31.097 30.3588 31.4494 29.9727 31.7856 29.5725L24.9089 22.6958H22.6953V22.6959Z" fill="#D80027"/>
<path d="M13.3038 22.6958H13.3036L5.27148 30.728C5.64077 31.0974 6.02685 31.4498 6.42707 31.786L13.3038 24.9092V22.6958Z" fill="#D80027"/>
<path d="M13.3051 13.3044V13.3043L5.27291 5.27197C4.90348 5.64125 4.55108 6.02734 4.21484 6.42756L11.0916 13.3043L13.3051 13.3044Z" fill="#D80027"/>
<path d="M22.6953 13.3047L30.7276 5.27235C30.3583 4.90293 29.9722 4.55052 29.572 4.21436L22.6953 11.0911V13.3047Z" fill="#D80027"/>
</g>
<defs>
<clipPath id="clip0_1628_4952">
<rect width="36" height="36" fill="white"/>
</clipPath>
</defs>
</svg>
