<svg width="37" height="36" viewBox="0 0 37 36" fill="none" xmlns="http://www.w3.org/2000/svg">
<g clip-path="url(#clip0_1628_4743)">
<mask id="mask0_1628_4743" style="mask-type:luminance" maskUnits="userSpaceOnUse" x="0" y="0" width="37" height="36">
<path d="M18.666 36C28.6071 36 36.666 27.9411 36.666 18C36.666 8.05887 28.6071 0 18.666 0C8.72489 0 0.666016 8.05887 0.666016 18C0.666016 27.9411 8.72489 36 18.666 36Z" fill="white"/>
</mask>
<g mask="url(#mask0_1628_4743)">
<path d="M-19.1582 0H79.6417V36H-19.1582V0Z" fill="white"/>
</g>
<mask id="mask1_1628_4743" style="mask-type:luminance" maskUnits="userSpaceOnUse" x="0" y="0" width="37" height="36">
<path d="M18.666 36C28.6071 36 36.666 27.9411 36.666 18C36.666 8.05887 28.6071 0 18.666 0C8.72489 0 0.666016 8.05887 0.666016 18C0.666016 27.9411 8.72489 36 18.666 36Z" fill="white"/>
</mask>
<g mask="url(#mask1_1628_4743)">
<path d="M-19.1582 0H79.6417V4H-19.1582V0Z" fill="#B22234"/>
</g>
<mask id="mask2_1628_4743" style="mask-type:luminance" maskUnits="userSpaceOnUse" x="0" y="0" width="37" height="36">
<path d="M18.666 36C28.6071 36 36.666 27.9411 36.666 18C36.666 8.05887 28.6071 0 18.666 0C8.72489 0 0.666016 8.05887 0.666016 18C0.666016 27.9411 8.72489 36 18.666 36Z" fill="white"/>
</mask>
<g mask="url(#mask2_1628_4743)">
<path d="M-19.1582 8H79.6417V12H-19.1582V8Z" fill="#B22234"/>
</g>
<mask id="mask3_1628_4743" style="mask-type:luminance" maskUnits="userSpaceOnUse" x="0" y="0" width="37" height="36">
<path d="M18.666 36C28.6071 36 36.666 27.9411 36.666 18C36.666 8.05887 28.6071 0 18.666 0C8.72489 0 0.666016 8.05887 0.666016 18C0.666016 27.9411 8.72489 36 18.666 36Z" fill="white"/>
</mask>
<g mask="url(#mask3_1628_4743)">
<path d="M-19.1582 16H79.6417V20.0001H-19.1582V16Z" fill="#B22234"/>
</g>
<mask id="mask4_1628_4743" style="mask-type:luminance" maskUnits="userSpaceOnUse" x="0" y="0" width="37" height="36">
<path d="M18.666 36C28.6071 36 36.666 27.9411 36.666 18C36.666 8.05887 28.6071 0 18.666 0C8.72489 0 0.666016 8.05887 0.666016 18C0.666016 27.9411 8.72489 36 18.666 36Z" fill="white"/>
</mask>
<g mask="url(#mask4_1628_4743)">
<path d="M-19.1582 24.001H79.6417V28.001H-19.1582V24.001Z" fill="#B22234"/>
</g>
<mask id="mask5_1628_4743" style="mask-type:luminance" maskUnits="userSpaceOnUse" x="0" y="0" width="37" height="36">
<path d="M18.666 36C28.6071 36 36.666 27.9411 36.666 18C36.666 8.05887 28.6071 0 18.666 0C8.72489 0 0.666016 8.05887 0.666016 18C0.666016 27.9411 8.72489 36 18.666 36Z" fill="white"/>
</mask>
<g mask="url(#mask5_1628_4743)">
<path d="M-19.1582 32.0005H79.6417V36.0005H-19.1582V32.0005Z" fill="#B22234"/>
</g>
<mask id="mask6_1628_4743" style="mask-type:luminance" maskUnits="userSpaceOnUse" x="0" y="0" width="37" height="36">
<path d="M18.666 36C28.6071 36 36.666 27.9411 36.666 18C36.666 8.05887 28.6071 0 18.666 0C8.72489 0 0.666016 8.05887 0.666016 18C0.666016 27.9411 8.72489 36 18.666 36Z" fill="white"/>
</mask>
<g mask="url(#mask6_1628_4743)">
<path d="M-19.1582 0H20.3617V20.0001H-19.1582V0Z" fill="#3C3B6E"/>
</g>
<mask id="mask7_1628_4743" style="mask-type:luminance" maskUnits="userSpaceOnUse" x="0" y="0" width="37" height="36">
<path d="M18.666 36C28.6071 36 36.666 27.9411 36.666 18C36.666 8.05887 28.6071 0 18.666 0C8.72489 0 0.666016 8.05887 0.666016 18C0.666016 27.9411 8.72489 36 18.666 36Z" fill="white"/>
</mask>
<g mask="url(#mask7_1628_4743)">
<path d="M13.7071 1.59082L13.3475 2.69796H12.1836L13.1251 3.38189L12.7657 4.48853L13.7071 3.8046L14.6485 4.48853L14.289 3.38178L15.2301 2.69796H14.0667L13.7071 1.59082Z" fill="white"/>
</g>
<mask id="mask8_1628_4743" style="mask-type:luminance" maskUnits="userSpaceOnUse" x="0" y="0" width="37" height="36">
<path d="M18.666 36C28.6071 36 36.666 27.9411 36.666 18C36.666 8.05887 28.6071 0 18.666 0C8.72489 0 0.666016 8.05887 0.666016 18C0.666016 27.9411 8.72489 36 18.666 36Z" fill="white"/>
</mask>
<g mask="url(#mask8_1628_4743)">
<path d="M10.4313 4.39893L10.0718 5.5056H8.9082L9.84968 6.18957L9.48989 7.29624L10.4314 6.61224L11.3727 7.29624L11.0132 6.18957L11.9547 5.5056H10.7908L10.4313 4.39893Z" fill="white"/>
</g>
<mask id="mask9_1628_4743" style="mask-type:luminance" maskUnits="userSpaceOnUse" x="0" y="0" width="37" height="36">
<path d="M18.666 36C28.6071 36 36.666 27.9411 36.666 18C36.666 8.05887 28.6071 0 18.666 0C8.72489 0 0.666016 8.05887 0.666016 18C0.666016 27.9411 8.72489 36 18.666 36Z" fill="white"/>
</mask>
<g mask="url(#mask9_1628_4743)">
<path d="M16.98 4.39893L16.6205 5.5056H15.457L16.3984 6.18953L16.0386 7.29624L16.9802 6.61224L17.9214 7.29624L17.562 6.18964L18.5035 5.5056H17.3399L16.98 4.39893Z" fill="white"/>
</g>
<mask id="mask10_1628_4743" style="mask-type:luminance" maskUnits="userSpaceOnUse" x="0" y="0" width="37" height="36">
<path d="M18.666 36C28.6071 36 36.666 27.9411 36.666 18C36.666 8.05887 28.6071 0 18.666 0C8.72489 0 0.666016 8.05887 0.666016 18C0.666016 27.9411 8.72489 36 18.666 36Z" fill="white"/>
</mask>
<g mask="url(#mask10_1628_4743)">
<path d="M7.15622 7.20654L6.79669 8.31322H5.63281L6.57439 8.99722L6.21482 10.1042L7.15608 9.42026L8.09759 10.1042L7.73773 8.99722L8.67928 8.31322H7.51568L7.15622 7.20654ZM7.15601 8.80836H7.15597L7.15608 8.80818L7.15612 8.80829L7.15601 8.80836Z" fill="white"/>
</g>
<mask id="mask11_1628_4743" style="mask-type:luminance" maskUnits="userSpaceOnUse" x="0" y="0" width="37" height="36">
<path d="M18.666 36C28.6071 36 36.666 27.9411 36.666 18C36.666 8.05887 28.6071 0 18.666 0C8.72489 0 0.666016 8.05887 0.666016 18C0.666016 27.9411 8.72489 36 18.666 36Z" fill="white"/>
</mask>
<g mask="url(#mask11_1628_4743)">
<path d="M13.7071 7.20654L13.3476 8.31322H12.1836L13.1252 8.99725L12.7657 10.1042L13.7071 9.42033L14.6485 10.1042L14.2888 8.99715L15.2301 8.31322H14.0666L13.7071 7.20654ZM13.7071 8.80836L13.707 8.80829L13.7071 8.80818L13.7072 8.80836H13.7071Z" fill="white"/>
</g>
<mask id="mask12_1628_4743" style="mask-type:luminance" maskUnits="userSpaceOnUse" x="0" y="0" width="37" height="36">
<path d="M18.666 36C28.6071 36 36.666 27.9411 36.666 18C36.666 8.05887 28.6071 0 18.666 0C8.72489 0 0.666016 8.05887 0.666016 18C0.666016 27.9411 8.72489 36 18.666 36Z" fill="white"/>
</mask>
<g mask="url(#mask12_1628_4743)">
<path d="M3.8765 10.0151L3.51704 11.1217H2.35352L3.29466 11.8056L2.9351 12.9123L3.8765 12.2284L4.8179 12.9123L4.4584 11.8057L5.39998 11.1217H4.23603L3.8765 10.0151Z" fill="white"/>
</g>
<mask id="mask13_1628_4743" style="mask-type:luminance" maskUnits="userSpaceOnUse" x="0" y="0" width="37" height="36">
<path d="M18.666 36C28.6071 36 36.666 27.9411 36.666 18C36.666 8.05887 28.6071 0 18.666 0C8.72489 0 0.666016 8.05887 0.666016 18C0.666016 27.9411 8.72489 36 18.666 36Z" fill="white"/>
</mask>
<g mask="url(#mask13_1628_4743)">
<path d="M10.4313 10.0151L10.0718 11.1217H8.9082L9.84971 11.8057L9.48989 12.9123L10.4314 12.2283L11.3727 12.9123L11.0132 11.8057L11.9547 11.1217H10.7908L10.4313 10.0151Z" fill="white"/>
</g>
<mask id="mask14_1628_4743" style="mask-type:luminance" maskUnits="userSpaceOnUse" x="0" y="0" width="37" height="36">
<path d="M18.666 36C28.6071 36 36.666 27.9411 36.666 18C36.666 8.05887 28.6071 0 18.666 0C8.72489 0 0.666016 8.05887 0.666016 18C0.666016 27.9411 8.72489 36 18.666 36Z" fill="white"/>
</mask>
<g mask="url(#mask14_1628_4743)">
<path d="M16.98 10.0151L16.6205 11.1217H15.457L16.3984 11.8056L16.0386 12.9123L16.9802 12.2283L17.9214 12.9123L17.5619 11.8057L18.5035 11.1217H17.3399L16.98 10.0151Z" fill="white"/>
</g>
<mask id="mask15_1628_4743" style="mask-type:luminance" maskUnits="userSpaceOnUse" x="0" y="0" width="37" height="36">
<path d="M18.666 36C28.6071 36 36.666 27.9411 36.666 18C36.666 8.05887 28.6071 0 18.666 0C8.72489 0 0.666016 8.05887 0.666016 18C0.666016 27.9411 8.72489 36 18.666 36Z" fill="white"/>
</mask>
<g mask="url(#mask15_1628_4743)">
<path d="M7.51572 13.9294L7.15622 12.8228L6.79669 13.9294H5.63281L6.57432 14.6134L6.21479 15.7199L7.15608 15.0359L8.09759 15.7199L7.73784 14.6133L8.67928 13.9294H7.51572Z" fill="white"/>
</g>
<mask id="mask16_1628_4743" style="mask-type:luminance" maskUnits="userSpaceOnUse" x="0" y="0" width="37" height="36">
<path d="M18.666 36C28.6071 36 36.666 27.9411 36.666 18C36.666 8.05887 28.6071 0 18.666 0C8.72489 0 0.666016 8.05887 0.666016 18C0.666016 27.9411 8.72489 36 18.666 36Z" fill="white"/>
</mask>
<g mask="url(#mask16_1628_4743)">
<path d="M14.0666 13.9294L13.7071 12.8228L13.3476 13.9294H12.1836L13.1252 14.6134L12.7657 15.7199L13.7071 15.036L14.6485 15.7199L14.289 14.6132L15.2301 13.9294H14.0666Z" fill="white"/>
</g>
<mask id="mask17_1628_4743" style="mask-type:luminance" maskUnits="userSpaceOnUse" x="0" y="0" width="37" height="36">
<path d="M18.666 36C28.6071 36 36.666 27.9411 36.666 18C36.666 8.05887 28.6071 0 18.666 0C8.72489 0 0.666016 8.05887 0.666016 18C0.666016 27.9411 8.72489 36 18.666 36Z" fill="white"/>
</mask>
<g mask="url(#mask17_1628_4743)">
<path d="M4.23603 16.7374L3.8765 15.6309L3.517 16.7374H2.35352L3.29463 17.4214L2.9351 18.5281L3.8765 17.8441L4.8179 18.5281L4.4584 17.4215L5.39998 16.7374H4.23603Z" fill="white"/>
</g>
<mask id="mask18_1628_4743" style="mask-type:luminance" maskUnits="userSpaceOnUse" x="0" y="0" width="37" height="36">
<path d="M18.666 36C28.6071 36 36.666 27.9411 36.666 18C36.666 8.05887 28.6071 0 18.666 0C8.72489 0 0.666016 8.05887 0.666016 18C0.666016 27.9411 8.72489 36 18.666 36Z" fill="white"/>
</mask>
<g mask="url(#mask18_1628_4743)">
<path d="M10.7908 16.7374L10.4313 15.6309L10.0718 16.7374H8.9082L9.84971 17.4215L9.48989 18.5281L10.4314 17.844L11.3727 18.5281L11.0132 17.4215L11.9547 16.7374H10.7908Z" fill="white"/>
</g>
<mask id="mask19_1628_4743" style="mask-type:luminance" maskUnits="userSpaceOnUse" x="0" y="0" width="37" height="36">
<path d="M18.666 36C28.6071 36 36.666 27.9411 36.666 18C36.666 8.05887 28.6071 0 18.666 0C8.72489 0 0.666016 8.05887 0.666016 18C0.666016 27.9411 8.72489 36 18.666 36Z" fill="white"/>
</mask>
<g mask="url(#mask19_1628_4743)">
<path d="M17.3399 16.7374L16.98 15.6309L16.6205 16.7374H15.457L16.3984 17.4214L16.0386 18.5281L16.9802 17.844L17.9214 18.5281L17.5619 17.4215L18.5035 16.7374H17.3399Z" fill="white"/>
</g>
</g>
<defs>
<clipPath id="clip0_1628_4743">
<rect width="36" height="36" fill="white" transform="translate(0.666016)"/>
</clipPath>
</defs>
</svg>
