<svg width="137" height="36" viewBox="0 0 137 36" fill="none" xmlns="http://www.w3.org/2000/svg">
<path d="M37.7937 19.5403V18.4271C37.3668 18.8804 36.8479 19.2372 36.2718 19.4734C35.6958 19.7097 35.0758 19.82 34.4536 19.797C32.7626 19.797 30.8574 18.6623 30.8574 16.3719C30.8574 13.9954 32.7626 13.0108 34.4536 13.0108C35.0733 12.9762 35.6931 13.077 36.2699 13.3062C36.8467 13.5353 37.3667 13.8873 37.7937 14.3376V12.7948C37.7937 11.5955 36.8086 10.8676 35.3747 10.8676C34.8026 10.8672 34.2363 10.9827 33.7101 11.2071C33.1839 11.4316 32.7086 11.7603 32.3129 12.1734L31.3922 10.6109C32.5665 9.50575 34.128 8.90602 35.7403 8.94089C38.0312 8.94089 40.0415 9.90401 40.0415 12.6877V19.5403H37.7937ZM37.7937 17.1854V15.6224C37.4933 15.2666 37.1149 14.985 36.6879 14.7993C36.2609 14.6136 35.7967 14.5289 35.3316 14.5518C34.0693 14.5518 33.1264 15.2802 33.1264 16.4144C33.1264 17.5281 34.0684 18.2555 35.3316 18.2555C35.7968 18.2783 36.261 18.1935 36.688 18.0077C37.115 17.8218 37.4934 17.5399 37.7937 17.184V17.1854Z" fill="white"/>
<path d="M44.7747 18.1046V23.4784H42.5273V9.19854H44.7747V10.6114C45.1589 10.0929 45.6594 9.67171 46.2359 9.38167C46.8124 9.09164 47.4489 8.94085 48.0942 8.94141C50.7699 8.94141 52.6761 10.9518 52.6761 14.3578C52.6761 17.7637 50.7699 19.7956 48.0942 19.7956C47.4461 19.7991 46.8066 19.6474 46.2291 19.3532C45.6517 19.059 45.1529 18.6309 44.7747 18.1046ZM50.3412 14.3578C50.3412 12.367 49.2064 10.9326 47.4298 10.9326C46.9097 10.943 46.3992 11.074 45.9384 11.3155C45.4776 11.557 45.0792 11.9022 44.7747 12.324V16.413C45.0824 16.8316 45.4815 17.1744 45.9416 17.4156C46.4017 17.6568 46.9106 17.7899 47.4298 17.8049C49.2064 17.8049 50.3412 16.3705 50.3412 14.3578Z" fill="white"/>
<path d="M56.7226 18.1046V23.4784H54.4746V9.19855H56.7226V10.6114C57.1067 10.0929 57.6071 9.67162 58.1836 9.38157C58.7601 9.09153 59.3966 8.94077 60.042 8.94141C62.7177 8.94141 64.6238 10.9518 64.6238 14.3578C64.6238 17.7637 62.7181 19.7956 60.042 19.7956C59.3939 19.7991 58.7544 19.6475 58.1769 19.3533C57.5994 19.0591 57.1007 18.6309 56.7226 18.1046ZM62.289 14.3578C62.289 12.367 61.1538 10.9326 59.3777 10.9326C58.8575 10.9429 58.3469 11.074 57.8861 11.3154C57.4253 11.5569 57.027 11.9022 56.7226 12.324V16.413C57.0302 16.8316 57.4291 17.1745 57.8892 17.4157C58.3493 17.6569 58.8584 17.79 59.3777 17.8049C61.1538 17.8049 62.289 16.3705 62.289 14.3578Z" fill="white"/>
<path d="M66.1426 6.54372C66.1455 6.17553 66.2931 5.82326 66.5535 5.56295C66.8139 5.30264 67.1663 5.15516 67.5344 5.15235C67.7173 5.15198 67.8983 5.18771 68.0673 5.2575C68.2362 5.32729 68.3899 5.42977 68.5192 5.55905C68.6484 5.68832 68.7508 5.84185 68.8206 6.01083C68.8904 6.1798 68.9262 6.3609 68.9259 6.54372C68.9262 6.72657 68.8904 6.90768 68.8206 7.07669C68.7508 7.24569 68.6484 7.39925 68.5192 7.52856C68.3899 7.65787 68.2364 7.76039 68.0674 7.83024C67.8984 7.90008 67.7173 7.93588 67.5344 7.93557C67.1662 7.93276 66.8138 7.78521 66.5534 7.52479C66.293 7.26438 66.1454 6.91199 66.1426 6.54372ZM66.4231 19.5411V9.1993H68.671V19.5411H66.4231Z" fill="white"/>
<path d="M78.1332 19.5404V13.0749C78.1332 11.4689 77.3197 10.934 76.0564 10.934C75.5371 10.9479 75.0278 11.0806 74.5676 11.3217C74.1075 11.5629 73.7086 11.9062 73.4017 12.3254V19.5404H71.1543V9.19854H73.4022V10.6114C73.8567 10.0921 74.416 9.67486 75.0432 9.38704C75.6704 9.09921 76.3514 8.94735 77.0415 8.94141C79.2683 8.94141 80.3811 10.1402 80.3811 12.2609V19.5404H78.1332Z" fill="white"/>
<path d="M85.5848 19.5416L81.3672 9.20117H83.7651L86.784 16.951L89.8024 9.20117H92.2219L88.0038 19.5416H85.5848Z" fill="white"/>
<path d="M92.5684 14.3578C92.5684 11.3609 94.7522 8.94141 97.8136 8.94141C100.918 8.94141 102.91 11.3179 102.91 14.5719V15.1072H94.9243C94.997 15.9169 95.3815 16.6665 95.9968 17.1978C96.612 17.7291 97.4097 18.0005 98.2213 17.9545C99.3058 17.9528 100.351 17.5484 101.154 16.8198L102.183 18.2972C101.026 19.3136 99.525 19.8489 97.9865 19.7933C94.8784 19.7956 92.5684 17.6333 92.5684 14.3578ZM97.8136 10.7825C97.0659 10.7663 96.3417 11.0444 95.797 11.5569C95.2524 12.0695 94.9309 12.7754 94.9018 13.5228H100.725C100.722 13.1489 100.643 12.7796 100.494 12.437C100.344 12.0945 100.127 11.7858 99.8543 11.5297C99.582 11.2736 99.2606 11.0753 98.9095 10.9469C98.5584 10.8185 98.1849 10.7626 97.8117 10.7825H97.8136Z" fill="white"/>
<path d="M111.684 19.5404V13.0749C111.684 11.4689 110.87 10.934 109.608 10.934C109.088 10.9479 108.579 11.0805 108.119 11.3217C107.658 11.5629 107.26 11.9062 106.953 12.3254V19.5404H104.705V9.19854H106.953V10.6114C107.407 10.0922 107.966 9.67494 108.593 9.38712C109.221 9.0993 109.902 8.94741 110.592 8.94141C112.819 8.94141 113.932 10.1402 113.932 12.2609V19.5404H111.684Z" fill="white"/>
<path d="M116.867 17.1417V11.169H115.154V9.19928H116.867V6.37305H119.115V9.19928H121.213V11.169H119.115V16.5854C119.115 17.2918 119.457 17.8056 120.1 17.8056C120.469 17.8167 120.829 17.6865 121.106 17.4414L121.641 19.1329C121.047 19.6201 120.288 19.858 119.522 19.7964C117.788 19.7964 116.867 18.8548 116.867 17.1417Z" fill="white"/>
<path d="M122.541 6.54372C122.544 6.17553 122.692 5.82326 122.952 5.56295C123.212 5.30264 123.565 5.15516 123.933 5.15235C124.116 5.15198 124.297 5.18771 124.466 5.2575C124.635 5.32729 124.788 5.42977 124.918 5.55905C125.047 5.68832 125.149 5.84185 125.219 6.01083C125.289 6.1798 125.325 6.3609 125.324 6.54372C125.325 6.72657 125.289 6.90768 125.219 7.07669C125.149 7.24569 125.047 7.39925 124.918 7.52856C124.788 7.65787 124.635 7.76039 124.466 7.83024C124.297 7.90008 124.116 7.93588 123.933 7.93557C123.565 7.93276 123.212 7.78521 122.952 7.52479C122.691 7.26438 122.544 6.91199 122.541 6.54372ZM122.822 19.5411V9.1993H125.069V19.5411H122.822Z" fill="white"/>
<path d="M130.27 19.5416L126.053 9.20117H128.451L131.47 16.951L134.488 9.20117H136.907L132.689 19.5416H130.27Z" fill="white"/>
<path d="M27.9467 29.8127C27.5735 29.8131 27.2075 29.7104 26.889 29.5158C26.5705 29.3213 26.312 29.0425 26.142 28.7102L14.7903 6.5174L6.29805 23.6394L14.1765 20.2152C14.6686 20.0008 15.2258 19.9906 15.7255 20.1868C16.2252 20.383 16.6266 20.7695 16.8414 21.2615C16.9475 21.505 17.0045 21.767 17.0092 22.0325C17.0139 22.298 16.9663 22.5619 16.8689 22.809C16.7715 23.0561 16.6263 23.2815 16.4418 23.4725C16.2572 23.6634 16.0368 23.8161 15.7932 23.9218L2.83225 29.5555C2.45166 29.7209 2.02949 29.7656 1.62273 29.6834C1.21597 29.6012 0.84422 29.3961 0.557708 29.0959C0.271717 28.7959 0.0849757 28.4151 0.0228312 28.0053C-0.0393133 27.5954 0.0261295 27.1764 0.210312 26.805L12.9497 1.12208C13.1167 0.786549 13.3736 0.503981 13.6917 0.305862C14.0099 0.107744 14.3767 0.00186045 14.7515 1.06815e-07H14.7636C15.1365 -0.000120977 15.5023 0.102704 15.8205 0.297145C16.1387 0.491585 16.397 0.770089 16.567 1.10197L29.749 26.8738C29.8698 27.1102 29.9428 27.3682 29.9638 27.6329C29.9848 27.8976 29.9535 28.1639 29.8716 28.4164C29.7896 28.669 29.6587 28.903 29.4863 29.1049C29.3139 29.3069 29.1034 29.4729 28.8668 29.5934C28.5823 29.739 28.2673 29.815 27.9477 29.815" fill="white"/>
<path d="M52.7373 32.8438V27.6074H55.0338C56.5673 27.6074 57.5697 28.4976 57.5697 30.2256C57.5697 31.9536 56.5673 32.8438 55.0338 32.8438H52.7373ZM53.4629 32.1705H55.0862C56.0886 32.1705 56.8067 31.5122 56.8067 30.2181C56.8067 28.9389 56.0886 28.2806 55.0862 28.2806H53.4629V32.1705ZM64.1495 32.8438V27.6074H64.8751V32.8438H64.1495ZM73.7191 32.956C72.2753 32.956 71.4599 32.0583 71.4599 30.2181C71.4599 28.3779 72.2454 27.4952 73.8687 27.4952C75.3199 27.4952 76.1652 28.0338 76.1652 29.4252H75.4695C75.4695 28.3704 74.6242 28.1834 73.8836 28.1834C72.6568 28.1834 72.2229 28.7968 72.2229 30.2106C72.2229 31.6543 72.8214 32.2677 73.8462 32.2677C74.6392 32.2677 75.1329 31.5496 75.4022 30.8165H73.9285V30.1732H76.2549V32.8438H75.5817V31.3476C75.2152 32.178 74.6915 32.956 73.7191 32.956ZM82.9121 32.8438V27.6074H83.6378V32.8438H82.9121ZM91.8159 32.8438V28.2806H90.1253V27.6074H94.2396V28.2806H92.5416V32.8438H91.8159ZM99.4856 32.8438L101.707 27.6074H102.448L104.714 32.8438H103.899L103.473 31.8638H100.675L100.256 32.8438H99.4856ZM100.862 31.1906H103.293L102.074 28.4901L100.862 31.1906ZM110.925 32.8438V27.6074H111.65V32.1705H114.889V32.8438H110.925Z" fill="white"/>
</svg>
