<svg width="37" height="36" viewBox="0 0 37 36" fill="none" xmlns="http://www.w3.org/2000/svg">
<g clip-path="url(#clip0_1628_5010)">
<path d="M18.334 36C28.2751 36 36.334 27.9411 36.334 18C36.334 8.05887 28.2751 0 18.334 0C8.39286 0 0.333984 8.05887 0.333984 18C0.333984 27.9411 8.39286 36 18.334 36Z" fill="#F0F0F0"/>
<path d="M36.3341 18.0001C36.3341 10.8638 32.1811 4.69763 26.1602 1.78613V34.2139C32.1811 31.3025 36.3341 25.1364 36.3341 18.0001Z" fill="#D80027"/>
<path d="M0.333984 18.0001C0.333984 25.1364 4.48699 31.3025 10.5079 34.214V1.78613C4.48699 4.69763 0.333984 10.8638 0.333984 18.0001Z" fill="#D80027"/>
<path d="M21.4636 20.348L24.5939 18.7828L23.0288 18.0002V16.435L19.8983 18.0002L21.4636 14.8698H19.8983L18.3331 12.522L16.7679 14.8698H15.2026L16.7679 18.0002L13.6374 16.435V18.0002L12.0723 18.7828L15.2026 20.348L14.4201 21.9133H17.5505V24.2611H19.1157V21.9133H22.2461L21.4636 20.348Z" fill="#D80027"/>
</g>
<defs>
<clipPath id="clip0_1628_5010">
<rect width="36" height="36" fill="white" transform="translate(0.333984)"/>
</clipPath>
</defs>
</svg>
