<svg width="97" height="18" viewBox="0 0 97 18" fill="none" xmlns="http://www.w3.org/2000/svg">
<g clip-path="url(#clip0_1752_663)">
<path d="M0.970703 17.7531V2.55762H3.37863V17.7531H0.970703Z" fill="white"/>
<path d="M6.29385 17.7536V6.7196H8.49781V8.88108L8.23152 8.59496C8.50348 7.90091 8.93974 7.37399 9.53747 7.01422C10.1352 6.65445 10.8293 6.47314 11.6168 6.47314C12.4043 6.47314 13.1522 6.64878 13.7783 7.00289C14.4043 7.357 14.8944 7.84708 15.2457 8.47031C15.5998 9.09637 15.7754 9.81592 15.7754 10.6318V17.7508H13.4921V11.2437C13.4921 10.6856 13.3902 10.2125 13.1862 9.82725C12.9822 9.43915 12.6933 9.1417 12.3193 8.92923C11.9454 8.7196 11.5205 8.61195 11.0446 8.61195C10.5686 8.61195 10.1437 8.71677 9.76977 8.92923C9.39583 9.1417 9.10688 9.44198 8.90291 9.83575C8.69895 10.2295 8.59696 10.6998 8.59696 11.2437V17.7508H6.29102L6.29385 17.7536Z" fill="white"/>
<path d="M21.2468 17.7532L16.9238 6.71924H19.4337L22.7595 15.7136H21.8417L25.1675 6.71924H27.6972L23.3516 17.7532H21.2496H21.2468Z" fill="white"/>
<path d="M34.2383 17.9998C33.1363 17.9998 32.1618 17.7448 31.3119 17.2349C30.4621 16.725 29.7992 16.0309 29.3233 15.1556C28.8473 14.2774 28.6094 13.2972 28.6094 12.2094C28.6094 11.1216 28.8502 10.1074 29.3346 9.25189C29.819 8.39636 30.4677 7.71931 31.2836 7.22356C32.0995 6.72781 33.023 6.47852 34.057 6.47852C34.887 6.47852 35.6264 6.62016 36.2808 6.90628C36.9323 7.1924 37.4847 7.58333 37.9323 8.07908C38.3799 8.57483 38.7227 9.14424 38.9635 9.78163C39.2014 10.4219 39.3204 11.1017 39.3204 11.8213C39.3204 11.9969 39.3148 12.1811 39.3006 12.3709C39.2864 12.5607 39.2609 12.7391 39.2184 12.9006H30.4281V11.0649H37.9125L36.8105 11.9006C36.9465 11.2349 36.9012 10.64 36.6774 10.1159C36.4536 9.59183 36.1136 9.17823 35.6575 8.87228C35.2014 8.56633 34.6689 8.41336 34.057 8.41336C33.4451 8.41336 32.9012 8.56633 32.4252 8.87228C31.9493 9.17823 31.581 9.61449 31.3233 10.1782C31.0655 10.742 30.9635 11.4247 31.0173 12.2292C30.9493 12.9771 31.0541 13.6287 31.3346 14.1867C31.6122 14.7448 32.0088 15.1782 32.5187 15.4927C33.0286 15.8043 33.6094 15.9629 34.2638 15.9629C34.9182 15.9629 35.4989 15.8128 35.9663 15.5153C36.4366 15.2151 36.8048 14.8298 37.0768 14.3539L38.9522 15.2717C38.734 15.7873 38.3969 16.2547 37.9437 16.6683C37.4876 17.0819 36.9437 17.4105 36.3119 17.6485C35.6802 17.8864 34.989 18.0054 34.2411 18.0054L34.2383 17.9998Z" fill="white"/>
<path d="M41.5595 17.7536V6.7196H43.7634V8.88108L43.4971 8.59496C43.7691 7.90091 44.2054 7.37399 44.8031 7.01422C45.4008 6.65445 46.0949 6.47314 46.8824 6.47314C47.67 6.47314 48.4178 6.64878 49.0439 7.00289C49.67 7.357 50.16 7.84708 50.5113 8.47031C50.8654 9.09637 51.0411 9.81592 51.0411 10.6318V17.7508H48.7578V11.2437C48.7578 10.6856 48.6558 10.2125 48.4518 9.82725C48.2479 9.43915 47.9589 9.1417 47.585 8.92923C47.211 8.7196 46.7861 8.61195 46.3102 8.61195C45.8343 8.61195 45.4093 8.71677 45.0354 8.92923C44.6615 9.1417 44.3725 9.44198 44.1685 9.83575C43.9646 10.2295 43.8626 10.6998 43.8626 11.2437V17.7508H41.5566L41.5595 17.7536Z" fill="white"/>
<path d="M58.2856 17.878C57.1298 17.878 56.2318 17.5523 55.5944 16.8979C54.9542 16.2463 54.6369 15.3285 54.6369 14.1443V8.80154H52.6992V6.72222H53.0052C53.5207 6.72222 53.923 6.57208 54.2091 6.27463C54.4952 5.97435 54.6369 5.56642 54.6369 5.05084V4.19531H56.9428V6.72506H59.4528V8.80438H56.9428V14.0452C56.9428 14.4248 57.0052 14.7477 57.127 15.014C57.2488 15.2803 57.4471 15.4843 57.719 15.6259C57.991 15.7675 58.3451 15.8412 58.7785 15.8412C58.8862 15.8412 59.0108 15.8355 59.1468 15.8214C59.2828 15.8072 59.4131 15.793 59.5349 15.7817V17.7591C59.3451 17.7874 59.1326 17.8129 58.9032 17.8412C58.6709 17.8695 58.4669 17.8809 58.2913 17.8809L58.2856 17.878Z" fill="white"/>
<path d="M61.7734 5.20918V2.55762H64.0794V5.20918H61.7734ZM61.7734 17.7531V6.71909H64.0794V17.7531H61.7734Z" fill="white"/>
<path d="M69.9714 17.7532L65.6484 6.71924H68.1584L71.4841 15.7136H70.5663L73.8921 6.71924H76.4218L72.0762 17.7532H69.9742H69.9714Z" fill="white"/>
<path d="M76.2148 17.7531L83.9259 2.55762H85.2913L88.7588 17.7531H87.3933L86.5378 13.8777H79.6426L77.7049 17.7531H76.2148ZM80.2517 12.6539H86.2687L84.2687 3.59728L84.7588 3.6596L80.2517 12.6539Z" fill="white"/>
<path d="M90.7969 17.7534L92.3266 6.92334H93.5504L92.0405 17.7534H90.7969Z" fill="white"/>
<path d="M94.0207 0C93.2559 2.23229 92.8706 2.56657 90.5703 2.97734C92.7375 3.3881 93.0207 3.72238 93.0774 5.95467C93.8423 3.72238 94.2275 3.3881 96.5278 2.97734C94.3607 2.56657 94.0774 2.23229 94.0207 0Z" fill="url(#paint0_linear_1752_663)"/>
</g>
<defs>
<linearGradient id="paint0_linear_1752_663" x1="93.5491" y1="0" x2="93.5491" y2="3.051" gradientUnits="userSpaceOnUse">
<stop stop-color="#1163FB"/>
<stop offset="1" stop-color="#79FFFF"/>
</linearGradient>
<clipPath id="clip0_1752_663">
<rect width="95.5581" height="18" fill="white" transform="translate(0.970703)"/>
</clipPath>
</defs>
</svg>
