<svg id="Group_2135" data-name="Group 2135" xmlns="http://www.w3.org/2000/svg" width="129.673" height="22.847" viewBox="0 0 129.673 22.847">
  <path id="Path_18206" data-name="Path 18206" d="M146.1,248.769h5.729v-8.208h8.428v-4.926h-8.426v-3.94h9.377V226.55H146.1Z" transform="translate(-130.797 -226.262)" fill="#d9003d"/>
  <path id="Path_18207" data-name="Path 18207" d="M193.107,234.557a2.777,2.777,0,0,1-.8,2.116,3.206,3.206,0,0,1-2.262.769h-2.809v-5.8h2.809a3.368,3.368,0,0,1,2.262.73,2.721,2.721,0,0,1,.839,2.153v.037Zm4.634,3.758a6.981,6.981,0,0,0,1.094-4.05v-.146a8.272,8.272,0,0,0-.513-2.992,5.7,5.7,0,0,0-1.423-2.189c-1.46-1.5-3.685-2.262-6.677-2.262H181.5V248.9h5.692V242h2.043l3.758,6.9h6.46l-4.561-8.063a7.907,7.907,0,0,0,2.846-2.518" transform="translate(-149.392 -226.328)" fill="#d9003d"/>
  <rect id="Rectangle_3503" data-name="Rectangle 3503" width="5.729" height="22.22" transform="translate(51.44 0.292)" fill="#d9003d"/>
  <path id="Path_18208" data-name="Path 18208" d="M252.761,237.876a5.859,5.859,0,0,1-1.459,4.415,5.294,5.294,0,0,1-3.831,1.423h-1.642v-12h1.642a5.236,5.236,0,0,1,3.831,1.423,5.952,5.952,0,0,1,1.459,4.451Zm5.835-.037v-.365a13.246,13.246,0,0,0-.73-4.451,9.076,9.076,0,0,0-2.189-3.43,9.387,9.387,0,0,0-3.539-2.189,13.763,13.763,0,0,0-4.745-.766H240.1v22.22h7.188a13.338,13.338,0,0,0,4.816-.8,9.461,9.461,0,0,0,3.539-2.226,9.7,9.7,0,0,0,2.189-3.466,12.943,12.943,0,0,0,.766-4.525" transform="translate(-180.172 -226.308)" fill="#d9003d"/>
  <path id="Path_18209" data-name="Path 18209" d="M285.314,240.1l2.08-6.494,2.081,6.494Zm-.766-13.756-7.809,22.33h5.874l1.277-4.013h6.969l1.314,4.013h5.984l-7.845-22.33Z" transform="translate(-199.418 -226.157)" fill="#d9003d"/>
  <path id="Path_18210" data-name="Path 18210" d="M326.232,226.614l-3.758,8.027-3.719-8.027H312.44l7.152,13.9v8.319h5.729v-8.392l7.152-13.829Z" transform="translate(-218.171 -226.295)" fill="#d9003d"/>
  <path id="Path_18211" data-name="Path 18211" d="M365.742,246.923a7.022,7.022,0,0,0,1.679-2.189,6.733,6.733,0,0,0,.62-2.919v-.072a5.793,5.793,0,0,0-.474-2.482,6.083,6.083,0,0,0-1.35-1.86,8.48,8.48,0,0,0-2.153-1.423,21.107,21.107,0,0,0-2.846-1.095,18.258,18.258,0,0,1-1.715-.693,7.365,7.365,0,0,1-1.095-.621,1.643,1.643,0,0,1-.548-.584,1.251,1.251,0,0,1-.146-.657v-.037a1.346,1.346,0,0,1,.513-1.058,2.282,2.282,0,0,1,1.5-.4,6.437,6.437,0,0,1,2.7.584,11.352,11.352,0,0,1,2.481,1.46l2.846-4.232a11.8,11.8,0,0,0-3.719-2.079,13.189,13.189,0,0,0-4.232-.621,10.331,10.331,0,0,0-3.284.513A7.076,7.076,0,0,0,354,227.881a6.075,6.075,0,0,0-1.569,2.153,6.838,6.838,0,0,0-.548,2.773v.109a6.062,6.062,0,0,0,.513,2.591,5.607,5.607,0,0,0,1.459,1.86,10.348,10.348,0,0,0,2.262,1.387c.876.4,1.824.766,2.885,1.131a16.9,16.9,0,0,1,1.6.62,3.954,3.954,0,0,1,.985.548,1.755,1.755,0,0,1,.513.548,1.2,1.2,0,0,1,.146.621v.037a1.372,1.372,0,0,1-.584,1.167,2.907,2.907,0,0,1-1.715.438,7.28,7.28,0,0,1-3.138-.694,12.769,12.769,0,0,1-2.885-1.824L350.9,245.5a12.686,12.686,0,0,0,4.269,2.482,15.069,15.069,0,0,0,4.773.762,10.666,10.666,0,0,0,3.284-.475,6.439,6.439,0,0,0,2.517-1.35" transform="translate(-238.371 -225.943)" fill="#d9003d"/>
  <path id="Path_18212" data-name="Path 18212" d="M116.831,256.469H114.24v8.356h2.591v-2.737h8.541v-2.846h-8.541Z" transform="translate(-114.061 -241.978)" fill="#d9003d"/>
  <path id="Path_18213" data-name="Path 18213" d="M118.681,236.4v4.451h2.226V239.1h1.642a2.207,2.207,0,0,1,.328,1.277c0,1.423-1.131,2.517-3.175,2.517h-.146c-1.86,0-3.065-1.095-3.065-2.481a3.171,3.171,0,0,1,.912-2.189l-2.189-1.6a5.707,5.707,0,0,0-1.35,3.831,5.334,5.334,0,0,0,5.656,5.363h.219c3.466,0,5.619-2.3,5.619-5.327a6.861,6.861,0,0,0-1.386-4.087Z" transform="translate(-113.863 -231.436)" fill="#d9003d"/>
  <rect id="Rectangle_3504" data-name="Rectangle 3504" width="11.128" height="2.846" transform="translate(0.212 0.329)" fill="#d9003d"/>
</svg>
