<svg width="27" height="24" viewBox="0 0 27 24" fill="none" xmlns="http://www.w3.org/2000/svg">
<path d="M24.3848 0H1.85423C0.830921 0 0 0.830912 0 1.86297V17.1603C0 18.1837 0.830912 19.0146 1.85423 19.0146H7.50439L4.86297 22.6006C4.66182 22.8717 4.63556 23.2216 4.78423 23.519C4.93295 23.8164 5.23906 24 5.56266 24H20.6764C21 24 21.3061 23.8164 21.4548 23.519C21.6035 23.2216 21.5772 22.8717 21.3761 22.6006L18.7347 19.0146H24.3848C25.4081 19.0146 26.2391 18.1837 26.2391 17.1603V1.86297C26.2391 0.830912 25.4081 0 24.3848 0ZM10.1545 12.3149C10.7143 12.8309 10.2857 13.828 9.54225 13.8018C9.31489 13.8018 9.08748 13.723 8.9213 13.5481L5.50145 10.1283C5.16038 9.80468 5.16038 9.21869 5.50145 8.89508L8.9213 5.47523C9.26241 5.12541 9.81339 5.12541 10.1545 5.47523C10.4956 5.81634 10.4956 6.36737 10.1545 6.70849L7.35567 9.50728L10.1545 12.3149ZM11.1779 14.2391L13.3469 4.4082C13.4519 3.93586 13.9154 3.63852 14.3965 3.74347C14.8688 3.84842 15.1662 4.31194 15.0612 4.78428L12.8921 14.6152C12.7872 15.0875 12.3061 15.3849 11.8425 15.2799C11.3703 15.1749 11.0729 14.7114 11.1779 14.2391ZM20.7376 10.1283L17.3178 13.5481C17.1516 13.723 16.9242 13.8018 16.6968 13.8018C15.9533 13.828 15.5248 12.8309 16.0846 12.3149L18.8834 9.50729L16.0846 6.7085C15.2799 5.89503 16.5044 4.67058 17.3178 5.47522L20.7376 8.89507C21.0787 9.21869 21.0787 9.80468 20.7376 10.1283ZM18.9446 22.2507H7.29449L9.68222 19.0146H16.5568L18.9446 22.2507Z" fill="white"/>
</svg>
