<svg width="20" height="20" viewBox="0 0 20 20" fill="none" xmlns="http://www.w3.org/2000/svg">
<g clip-path="url(#clip0_12181_490)">
<path d="M1.77587 10.2665L1.18457 15.5882C0.969392 17.5248 2.4853 19.2185 4.4338 19.2185C5.67208 19.2185 6.8041 18.5189 7.35787 17.4114L7.87256 16.3819H12.1274L12.642 17.4114C13.1958 18.5189 14.3278 19.2185 15.5661 19.2185C17.5147 19.2185 19.0305 17.5248 18.8154 15.5882L18.2241 10.2665C17.9828 8.0961 16.1484 6.4541 13.9645 6.4541H6.03537C3.85158 6.4541 2.01703 8.0961 1.77587 10.2665Z" fill="#ECF3FF"/>
<path d="M6.27704 10V13.3093" stroke="#1163FB" stroke-width="1.5" stroke-linecap="round" stroke-linejoin="round"/>
<path d="M7.9318 11.6548H4.6225" stroke="#1163FB" stroke-width="1.5" stroke-linecap="round" stroke-linejoin="round"/>
<path d="M1.77587 10.2665L1.18457 15.5882C0.969393 17.5248 2.4853 19.2185 4.4338 19.2185C5.67208 19.2185 6.8041 18.5189 7.35787 17.4114L7.87255 16.3819H12.1274L12.642 17.4114C13.1958 18.5189 14.3278 19.2185 15.5661 19.2185C17.5146 19.2185 19.0306 17.5248 18.8154 15.5882L18.224 10.2665C17.9828 8.0961 16.1483 6.4541 13.9645 6.4541H6.03537C3.8516 6.4541 2.01703 8.0961 1.77587 10.2665Z" stroke="#1163FB" stroke-width="1.5" stroke-linecap="round" stroke-linejoin="round"/>
<path d="M10 6.45433V5.04636C10 4.25739 10.6396 3.61779 11.4286 3.61779H13.5354C14.3243 3.61779 14.964 2.9782 14.964 2.18921V0.78125" stroke="#1163FB" stroke-width="1.5" stroke-linecap="round" stroke-linejoin="round"/>
<path d="M14.964 10.7091C14.7682 10.7091 14.6094 10.5504 14.6094 10.3546C14.6094 10.1587 14.7682 10 14.964 10" stroke="#1163FB" stroke-width="1.5" stroke-linecap="round" stroke-linejoin="round"/>
<path d="M14.964 10.7091C15.1597 10.7091 15.3186 10.5504 15.3186 10.3546C15.3186 10.1587 15.1597 10 14.964 10" stroke="#1163FB" stroke-width="1.5" stroke-linecap="round" stroke-linejoin="round"/>
<path d="M12.4819 12.482C12.4819 12.2862 12.6406 12.1274 12.8364 12.1274C13.0323 12.1274 13.191 12.2862 13.191 12.482" stroke="#1163FB" stroke-width="1.5" stroke-linecap="round" stroke-linejoin="round"/>
<path d="M12.4818 12.4819C12.4818 12.6777 12.6405 12.8365 12.8363 12.8365C13.0321 12.8365 13.1909 12.6777 13.1909 12.4819" stroke="#1163FB" stroke-width="1.5" stroke-linecap="round" stroke-linejoin="round"/>
</g>
<defs>
<clipPath id="clip0_12181_490">
<rect width="20" height="20" fill="white"/>
</clipPath>
</defs>
</svg>
