<svg width="32" height="32" viewBox="0 0 32 32" fill="none" xmlns="http://www.w3.org/2000/svg">
<path fill-rule="evenodd" clip-rule="evenodd" d="M26.38 4.52608C20.3453 -1.50869 10.5609 -1.50869 4.52608 4.52608C-1.50869 10.5609 -1.50869 20.3453 4.52608 26.38C10.3074 32.1613 19.5298 32.4042 25.6002 27.1087L30.1791 31.6876C30.5956 32.1041 31.271 32.1041 31.6876 31.6876C32.1041 31.271 32.1041 30.5956 31.6876 30.1791L27.1087 25.6002C32.4042 19.5298 32.1613 10.3074 26.38 4.52608ZM15.4667 6.4C15.9646 6.4 16.3964 6.74459 16.5068 7.23013L17.3934 11.1292C17.6663 12.3296 18.6037 13.267 19.8042 13.5399L23.7032 14.4266C24.1887 14.537 24.5333 14.9687 24.5333 15.4667C24.5333 15.9646 24.1887 16.3964 23.7032 16.5068L19.8042 17.3934C18.6037 17.6663 17.6663 18.6037 17.3934 19.8042L16.5068 23.7032C16.3964 24.1887 15.9646 24.5333 15.4667 24.5333C14.9687 24.5333 14.537 24.1887 14.4266 23.7032L13.5399 19.8042C13.267 18.6037 12.3296 17.6663 11.1292 17.3934L7.23013 16.5068C6.74459 16.3964 6.4 15.9646 6.4 15.4667C6.4 14.9687 6.74459 14.537 7.23013 14.4266L11.1292 13.5399C12.3296 13.267 13.267 12.3296 13.5399 11.1292L14.4266 7.23013C14.537 6.74459 14.9687 6.4 15.4667 6.4Z" fill="white"/>
</svg>
