<svg id="google-cloud-sql-1" xmlns="http://www.w3.org/2000/svg" width="68.637" height="89.722" viewBox="0 0 68.637 89.722">
  <g id="Group_2495" data-name="Group 2495" transform="translate(3.476)">
    <path id="Path_14650" data-name="Path 14650" d="M69.249,0H43.085a4.675,4.675,0,0,0-4.036,2.334L25.953,25a4.65,4.65,0,0,0,0,4.667L39.035,52.328a4.675,4.675,0,0,0,4.036,2.334H69.249a4.675,4.675,0,0,0,4.036-2.334L86.367,29.665a4.65,4.65,0,0,0,0-4.667L73.3,2.334A4.681,4.681,0,0,0,69.249,0Z" transform="translate(-25.325 0)" fill="#4683ed"/>
    <path id="Path_14651" data-name="Path 14651" d="M172.59,150.5l-2.663,5.134-4.173-4.173-3.665.824-2.855,1.222-3.006-3.006-6.164,2.155-.261,5.875,2.636,2.636-4.338,2.8L168.636,184.5h6.534a4.675,4.675,0,0,0,4.036-2.334l9.17-15.883Z" transform="translate(-131.246 -129.84)" fill="#417bdc"/>
    <g id="Group_2494" data-name="Group 2494" transform="translate(16.854 20.66)">
      <path id="Path_14652" data-name="Path 14652" d="M156.24,150.5h-5.766a2.376,2.376,0,0,0-2.375,2.375v3.363a2.376,2.376,0,0,0,2.375,2.375h3.047v2.553h-4.654l-.769,2.8h5.766a2.376,2.376,0,0,0,2.375-2.375V158.3a2.376,2.376,0,0,0-2.375-2.375h-2.924v-2.677H155.5Z" transform="translate(-148.1 -150.5)" fill="#fefffd"/>
      <path id="Path_14653" data-name="Path 14653" d="M230.1,161.248v-7.962a2.789,2.789,0,0,0-2.787-2.787h-2.622a2.789,2.789,0,0,0-2.787,2.787v7.879a2.789,2.789,0,0,0,2.787,2.787h6.672v-2.7Zm-2.7,0h-2.773V153.2h2.773Z" transform="translate(-211.769 -150.5)" fill="#fefffd"/>
      <path id="Path_14654" data-name="Path 14654" d="M315.072,161.248h-5.395V150.5H307v13.466h2.677v-.041h5.395Z" transform="translate(-285.187 -150.5)" fill="#fefffd"/>
    </g>
  </g>
  <g id="Group_2496" data-name="Group 2496" transform="translate(0 59.494)">
    <path id="Path_14655" data-name="Path 14655" d="M85.354,441.877h3.734v5.093a11.232,11.232,0,0,1-1.757.426,12.593,12.593,0,0,1-1.826.124,4.594,4.594,0,0,1-3.555-1.359,5.468,5.468,0,0,1-1.249-3.844,5.086,5.086,0,0,1,1.414-3.83,5.3,5.3,0,0,1,3.871-1.387,7.687,7.687,0,0,1,3.006.6l-.577,1.387a5.778,5.778,0,0,0-2.471-.563,3.349,3.349,0,0,0-2.567,1.016,3.941,3.941,0,0,0-.947,2.787,4.192,4.192,0,0,0,.851,2.828,3.077,3.077,0,0,0,2.443.961,7.785,7.785,0,0,0,1.716-.206V443.3h-2.1v-1.428Z" transform="translate(-69.622 -436.592)" fill="#7a7a7a"/>
    <path id="Path_14656" data-name="Path 14656" d="M162.248,459.153a4.186,4.186,0,0,1-.961,2.938,3.474,3.474,0,0,1-2.691,1.057,3.735,3.735,0,0,1-1.894-.481,3.136,3.136,0,0,1-1.263-1.4,4.656,4.656,0,0,1-.439-2.114,4.114,4.114,0,0,1,.961-2.91,3.457,3.457,0,0,1,2.7-1.043,3.375,3.375,0,0,1,2.636,1.071A4.147,4.147,0,0,1,162.248,459.153Zm-5.573,0c0,1.771.659,2.663,1.963,2.663s1.936-.879,1.936-2.663c0-1.757-.645-2.622-1.949-2.622a1.654,1.654,0,0,0-1.483.686A3.3,3.3,0,0,0,156.675,459.153Z" transform="translate(-133.723 -452.207)" fill="#7a7a7a"/>
    <path id="Path_14657" data-name="Path 14657" d="M225.448,459.153a4.186,4.186,0,0,1-.961,2.938,3.474,3.474,0,0,1-2.691,1.057,3.735,3.735,0,0,1-1.894-.481,3.136,3.136,0,0,1-1.263-1.4,4.656,4.656,0,0,1-.439-2.114,4.114,4.114,0,0,1,.961-2.91,3.457,3.457,0,0,1,2.7-1.043,3.375,3.375,0,0,1,2.636,1.071A4.146,4.146,0,0,1,225.448,459.153Zm-5.573,0c0,1.771.659,2.663,1.963,2.663s1.936-.879,1.936-2.663c0-1.757-.645-2.622-1.949-2.622a1.654,1.654,0,0,0-1.483.686A3.3,3.3,0,0,0,219.875,459.153Z" transform="translate(-188.247 -452.207)" fill="#7a7a7a"/>
    <path id="Path_14658" data-name="Path 14658" d="M285.054,455.41v.892l-1.3.247a2.165,2.165,0,0,1,.3.59,2.233,2.233,0,0,1,.124.755,2.284,2.284,0,0,1-.824,1.867,4.06,4.06,0,0,1-2.924.631.9.9,0,0,0-.522.769.433.433,0,0,0,.247.4,2.205,2.205,0,0,0,.906.137H282.4a2.97,2.97,0,0,1,1.922.535,1.9,1.9,0,0,1,.659,1.565,2.3,2.3,0,0,1-1.071,2.018,5.7,5.7,0,0,1-3.1.714,4.271,4.271,0,0,1-2.389-.549,1.789,1.789,0,0,1-.824-1.579,1.7,1.7,0,0,1,.453-1.194,2.441,2.441,0,0,1,1.249-.673,1.222,1.222,0,0,1-.535-.453,1.157,1.157,0,0,1-.206-.645,1.087,1.087,0,0,1,.247-.728,2.809,2.809,0,0,1,.728-.59,2.094,2.094,0,0,1-.961-.837,2.458,2.458,0,0,1-.371-1.359,2.426,2.426,0,0,1,.782-1.936,3.33,3.33,0,0,1,2.238-.686,6.113,6.113,0,0,1,.686.041,2.938,2.938,0,0,1,.535.1h2.608Zm-6.026,8.868a.9.9,0,0,0,.48.81,2.592,2.592,0,0,0,1.332.288,3.987,3.987,0,0,0,1.99-.384,1.134,1.134,0,0,0,.645-1.016.773.773,0,0,0-.357-.714,2.946,2.946,0,0,0-1.332-.206h-1.235a1.731,1.731,0,0,0-1.112.329A1.088,1.088,0,0,0,279.028,464.278Zm.7-6.383a1.554,1.554,0,0,0,.371,1.112,1.4,1.4,0,0,0,1.071.384c.947,0,1.414-.508,1.414-1.51a1.729,1.729,0,0,0-.357-1.153,1.328,1.328,0,0,0-1.071-.412,1.408,1.408,0,0,0-1.071.4A1.689,1.689,0,0,0,279.728,457.894Z" transform="translate(-239.493 -452.294)" fill="#7a7a7a"/>
    <path id="Path_14659" data-name="Path 14659" d="M343.834,444.19H342.2V433.4h1.634Z" transform="translate(-295.225 -433.4)" fill="#7a7a7a"/>
    <path id="Path_14660" data-name="Path 14660" d="M371.516,463.134a3.7,3.7,0,0,1-2.8-1.043,3.957,3.957,0,0,1-1.016-2.869,4.372,4.372,0,0,1,.933-2.951A3.228,3.228,0,0,1,371.2,455.2a3.155,3.155,0,0,1,2.4.92,3.507,3.507,0,0,1,.879,2.54v.879h-5.093a2.516,2.516,0,0,0,.6,1.716,2.132,2.132,0,0,0,1.606.6,6.061,6.061,0,0,0,1.263-.124,7.2,7.2,0,0,0,1.263-.426v1.332a4.452,4.452,0,0,1-1.208.4A10.514,10.514,0,0,1,371.516,463.134Zm-.3-6.713a1.644,1.644,0,0,0-1.249.494,2.392,2.392,0,0,0-.563,1.441h3.487a2.2,2.2,0,0,0-.453-1.441A1.543,1.543,0,0,0,371.214,456.422Z" transform="translate(-317.224 -452.207)" fill="#7a7a7a"/>
    <path id="Path_14661" data-name="Path 14661" d="M4.818,562.628a2.762,2.762,0,0,0-2.251,1.016,4.309,4.309,0,0,0-.824,2.8,4.395,4.395,0,0,0,.782,2.828,2.807,2.807,0,0,0,2.279.961,6.216,6.216,0,0,0,1.249-.124A12.082,12.082,0,0,0,7.3,569.78v1.428a7.6,7.6,0,0,1-2.7.453,4.346,4.346,0,0,1-3.418-1.345A5.878,5.878,0,0,1,0,566.416a6.294,6.294,0,0,1,.577-2.773,4.052,4.052,0,0,1,1.675-1.812,5.154,5.154,0,0,1,2.567-.631,6.512,6.512,0,0,1,2.869.645l-.59,1.386a8.48,8.48,0,0,0-1.084-.426A4.257,4.257,0,0,0,4.818,562.628Z" transform="translate(0 -543.656)" fill="#7a7a7a"/>
    <path id="Path_14662" data-name="Path 14662" d="M69.62,568.39H68V557.6h1.634v10.79Z" transform="translate(-58.665 -540.551)" fill="#7a7a7a"/>
    <path id="Path_14663" data-name="Path 14663" d="M100.848,583.253a4.186,4.186,0,0,1-.961,2.938,3.474,3.474,0,0,1-2.691,1.057,3.736,3.736,0,0,1-1.894-.48,3.136,3.136,0,0,1-1.263-1.4,4.656,4.656,0,0,1-.439-2.114,4.114,4.114,0,0,1,.961-2.91,3.457,3.457,0,0,1,2.7-1.043,3.374,3.374,0,0,1,2.636,1.071A4.262,4.262,0,0,1,100.848,583.253Zm-5.587,0c0,1.771.659,2.663,1.963,2.663s1.936-.879,1.936-2.663c0-1.757-.645-2.622-1.949-2.622a1.654,1.654,0,0,0-1.483.686A3.332,3.332,0,0,0,95.261,583.253Z" transform="translate(-80.751 -559.272)" fill="#7a7a7a"/>
    <path id="Path_14664" data-name="Path 14664" d="M164.977,587.974l-.233-1h-.082a2.387,2.387,0,0,1-.961.837,3.166,3.166,0,0,1-1.428.3,2.818,2.818,0,0,1-2.087-.7,2.908,2.908,0,0,1-.686-2.1V580.3h1.647v4.736a2.068,2.068,0,0,0,.357,1.318,1.4,1.4,0,0,0,1.126.439,1.805,1.805,0,0,0,1.51-.618,3.44,3.44,0,0,0,.48-2.059V580.3h1.634v7.674Z" transform="translate(-137.605 -560.135)" fill="#7a7a7a"/>
    <path id="Path_14665" data-name="Path 14665" d="M225.347,568.354a2.646,2.646,0,0,1-2.238-1.043,5.708,5.708,0,0,1,0-5.862,2.7,2.7,0,0,1,2.251-1.057,2.672,2.672,0,0,1,2.306,1.112h.082a9.371,9.371,0,0,1-.124-1.3v-2.8h1.634v10.79h-1.277l-.288-1h-.082A2.474,2.474,0,0,1,225.347,568.354Zm.439-1.318a1.815,1.815,0,0,0,1.469-.563,2.933,2.933,0,0,0,.467-1.84V564.4a3.451,3.451,0,0,0-.467-2.059,1.742,1.742,0,0,0-1.483-.6,1.512,1.512,0,0,0-1.332.7,4.449,4.449,0,0,0-.014,3.94A1.555,1.555,0,0,0,225.787,567.036Z" transform="translate(-191.784 -540.378)" fill="#7a7a7a"/>
    <path id="Path_14666" data-name="Path 14666" d="M320.093,568.909a2.584,2.584,0,0,1-.975,2.128,4.309,4.309,0,0,1-2.7.769,6.388,6.388,0,0,1-2.814-.535v-1.565a7.427,7.427,0,0,0,1.469.508,6.338,6.338,0,0,0,1.455.192,2.339,2.339,0,0,0,1.455-.371,1.212,1.212,0,0,0,.467-1,1.233,1.233,0,0,0-.426-.961,6.512,6.512,0,0,0-1.771-.933,4.609,4.609,0,0,1-1.949-1.277,2.673,2.673,0,0,1-.563-1.73,2.442,2.442,0,0,1,.906-2,3.781,3.781,0,0,1,2.416-.728,7.072,7.072,0,0,1,2.9.631l-.522,1.359a6.221,6.221,0,0,0-2.416-.563,1.853,1.853,0,0,0-1.222.357,1.142,1.142,0,0,0-.412.92,1.286,1.286,0,0,0,.165.673,1.579,1.579,0,0,0,.549.535,10.136,10.136,0,0,0,1.373.659,8.1,8.1,0,0,1,1.634.865,2.769,2.769,0,0,1,.769.906A2.948,2.948,0,0,1,320.093,568.909Z" transform="translate(-270.551 -543.829)" fill="#7a7a7a"/>
    <path id="Path_14667" data-name="Path 14667" d="M381.1,566.23a6.286,6.286,0,0,1-.7,3.1,3.864,3.864,0,0,1-2.045,1.771l2.43,2.608h-2.238l-1.908-2.279h-.275a4.532,4.532,0,0,1-3.528-1.359A5.556,5.556,0,0,1,371.6,566.2a5.5,5.5,0,0,1,1.235-3.857A4.572,4.572,0,0,1,376.363,561a4.451,4.451,0,0,1,3.5,1.373A5.589,5.589,0,0,1,381.1,566.23Zm-7.742,0a4.525,4.525,0,0,0,.755,2.842,2.665,2.665,0,0,0,2.238.961,2.621,2.621,0,0,0,2.224-.961,4.516,4.516,0,0,0,.755-2.855,4.572,4.572,0,0,0-.741-2.828,2.621,2.621,0,0,0-2.224-.961,2.693,2.693,0,0,0-2.251.961A4.579,4.579,0,0,0,373.357,566.23Z" transform="translate(-320.589 -543.484)" fill="#7a7a7a"/>
    <path id="Path_14668" data-name="Path 14668" d="M456.6,572.444V562.3h1.661v8.717h4.3v1.428Z" transform="translate(-393.921 -544.605)" fill="#7a7a7a"/>
  </g>
</svg>
