<svg xmlns="http://www.w3.org/2000/svg" width="106.331" height="77.075" viewBox="0 0 106.331 77.075">
  <g id="Group_105197" data-name="Group 105197" transform="translate(-4451.663 -6620)">
    <path id="Path_75564" data-name="Path 75564" d="M85.909,13.844h1.906l5.427-5.427.268-2.305a24.4,24.4,0,0,0-39.7,11.9,2.94,2.94,0,0,1,1.906-.115l10.859-1.791s.548-.914.838-.86a13.542,13.542,0,0,1,18.536-1.407Z" transform="translate(4427.319 6619.998)" fill="#ea4335"/>
    <path id="Path_75565" data-name="Path 75565" d="M119.342,23.083a24.439,24.439,0,0,0-7.37-11.883l-7.617,7.617a13.547,13.547,0,0,1,4.972,10.744v1.353a6.785,6.785,0,0,1,0,13.564H95.763L94.41,45.851v8.132l1.353,1.353h13.564a17.643,17.643,0,0,0,10.015-32.253Z" transform="translate(4408.951 6614.932)" fill="#4285f4"/>
    <path id="Path_75566" data-name="Path 75566" d="M63.284,82.172H76.848V71.313H63.284a6.752,6.752,0,0,1-2.776-.613l-1.906.591-5.476,5.427-.476,1.906a17.523,17.523,0,0,0,10.634,3.548Z" transform="translate(4427.844 6588.013)" fill="#34a853"/>
    <path id="Path_75567" data-name="Path 75567" d="M57.587,27.33A17.638,17.638,0,0,0,46.942,58.948l7.869-7.863a6.779,6.779,0,1,1,8.969-8.969l7.863-7.847A17.6,17.6,0,0,0,57.587,27.33Z" transform="translate(4433.542 6607.635)" fill="#fbbc05"/>
    <path id="Path_75568" data-name="Path 75568" d="M7.409,120.92A7.2,7.2,0,0,1,2.19,118.8a7.162,7.162,0,0,1,0-10.311,7.2,7.2,0,0,1,5.218-2.19,6.987,6.987,0,0,1,5,2.026L11,109.755a5.071,5.071,0,0,0-3.6-1.424,5.016,5.016,0,0,0-3.713,1.583,5.286,5.286,0,0,0,7.4,7.551,4.2,4.2,0,0,0,1.1-2.459H7.431v-2.021h6.708a6.571,6.571,0,0,1,.077,1.232,6.33,6.33,0,0,1-1.73,4.665,6.735,6.735,0,0,1-5.076,2.037ZM23,119.6a4.743,4.743,0,1,1,0-6.719A4.841,4.841,0,0,1,23,119.6Zm-5.218-1.32a2.563,2.563,0,0,0,3.62.12l.12-.12a3.039,3.039,0,0,0,0-4.085,2.6,2.6,0,0,0-3.68-.077l-.077.077a3.028,3.028,0,0,0,0,4.085h0Zm15.508,1.32a4.743,4.743,0,1,1,0-6.719,4.841,4.841,0,0,1,0,6.719Zm-5.218-1.32a2.563,2.563,0,0,0,3.62.12l.12-.12a3.039,3.039,0,0,0,0-4.085,2.6,2.6,0,0,0-3.674-.077l-.077.077a3.028,3.028,0,0,0,0,4.085h0Zm11.981,6.883a4.145,4.145,0,0,1-2.634-.838,4.851,4.851,0,0,1-1.533-1.944l1.8-.75a3.028,3.028,0,0,0,.893,1.177,2.251,2.251,0,0,0,1.478.5,2.377,2.377,0,0,0,1.84-.712,2.891,2.891,0,0,0,.657-2.053v-.679h-.071a3.017,3.017,0,0,1-2.453,1.057,4.293,4.293,0,0,1-3.16-1.374,4.764,4.764,0,0,1,0-6.648,4.282,4.282,0,0,1,3.16-1.385,3.406,3.406,0,0,1,1.457.323,2.924,2.924,0,0,1,1.029.75h.071v-.75h1.96v8.427a4.928,4.928,0,0,1-1.259,3.674,4.424,4.424,0,0,1-3.22,1.227Zm.142-6.073a2.3,2.3,0,0,0,1.785-.789,2.924,2.924,0,0,0,.717-2.026,2.984,2.984,0,0,0-.717-2.064,2.294,2.294,0,0,0-1.785-.789,2.448,2.448,0,0,0-1.851.789,2.886,2.886,0,0,0-.789,2.048,2.831,2.831,0,0,0,.789,2.026,2.448,2.448,0,0,0,1.873.81Zm7.82-12.249v13.816H45.97V106.842Zm5.651,14.078a4.485,4.485,0,0,1-3.286-1.325,4.578,4.578,0,0,1-1.336-3.351,4.643,4.643,0,0,1,1.287-3.384,4.244,4.244,0,0,1,3.16-1.32,3.992,3.992,0,0,1,1.583.307,3.723,3.723,0,0,1,1.21.789,5.475,5.475,0,0,1,.789.958,5.783,5.783,0,0,1,.465.925l.214.548-6.336,2.568a2.371,2.371,0,0,0,2.278,1.424,2.7,2.7,0,0,0,2.316-1.3l1.583,1.068a5.191,5.191,0,0,1-1.517,1.44A4.3,4.3,0,0,1,53.663,120.92Zm-2.639-4.846,4.205-1.747a1.446,1.446,0,0,0-.657-.717,2.141,2.141,0,0,0-1.1-.279,2.442,2.442,0,0,0-1.7.75,2.5,2.5,0,0,0-.728,2.021Z" transform="translate(4451.664 6571.908)" fill="#fff"/>
    <path id="Path_75569" data-name="Path 75569" d="M119.694,121.986a6.511,6.511,0,0,1-6.626-6.4q0-.131,0-.263a6.516,6.516,0,0,1,6.357-6.664h.263a5.9,5.9,0,0,1,4.687,2.086l-1.139,1.1a4.3,4.3,0,0,0-3.543-1.643,4.835,4.835,0,0,0-3.516,1.407,5.476,5.476,0,0,0,0,7.371,4.83,4.83,0,0,0,3.515,1.407,5.027,5.027,0,0,0,3.954-1.851l1.139,1.139a6.221,6.221,0,0,1-2.19,1.643,6.664,6.664,0,0,1-2.9.674Z" transform="translate(4400.511 6570.842)" fill="#fff"/>
    <path id="Path_75570" data-name="Path 75570" d="M138.713,121.98H137.07V109.21h1.643Z" transform="translate(4389.651 6570.591)" fill="#fff"/>
    <path id="Path_75571" data-name="Path 75571" d="M143.954,117.392a4.578,4.578,0,0,1,6.451,0,4.989,4.989,0,0,1,0,6.642,4.578,4.578,0,0,1-6.451,0A4.988,4.988,0,0,1,143.954,117.392ZM145.169,123a2.738,2.738,0,0,0,3.9.11l.11-.11a3.526,3.526,0,0,0,0-4.583,2.738,2.738,0,0,0-3.9-.11l-.11.11a3.5,3.5,0,0,0,0,4.578Z" transform="translate(4387.11 6567.49)" fill="#fff"/>
    <path id="Path_75572" data-name="Path 75572" d="M169.184,125.318H167.6v-1.21h-.049a3.05,3.05,0,0,1-1.155,1.1,3.22,3.22,0,0,1-1.643.433,3.077,3.077,0,0,1-2.481-1,3.959,3.959,0,0,1-.849-2.672V116.59h1.643v5.076q0,2.442,2.157,2.442a2.01,2.01,0,0,0,1.643-.789,2.979,2.979,0,0,0,.641-1.889V116.59h1.643v8.729Z" transform="translate(4378.635 6567.252)" fill="#fff"/>
    <path id="Path_75573" data-name="Path 75573" d="M182.321,122.214a3.833,3.833,0,0,1-2.924-1.336,5.087,5.087,0,0,1,0-6.626,3.833,3.833,0,0,1,2.924-1.336,3.712,3.712,0,0,1,1.785.427,3.017,3.017,0,0,1,1.188,1.068h.071l-.071-1.21V109.16h1.643v12.77h-1.583v-1.21h-.071a3.017,3.017,0,0,1-1.188,1.068A3.707,3.707,0,0,1,182.321,122.214Zm.268-1.495a2.607,2.607,0,0,0,1.966-.854,3.746,3.746,0,0,0,0-4.6,2.672,2.672,0,0,0-3.773-.175c-.06.055-.12.115-.175.175a3.718,3.718,0,0,0,0,4.583,2.6,2.6,0,0,0,1.982.9Z" transform="translate(4371.057 6570.614)" fill="#fff"/>
  </g>
</svg>
