<svg xmlns="http://www.w3.org/2000/svg" width="92.497" height="30.387" viewBox="0 0 92.497 30.387">
  <g id="Group_104835" data-name="Group 104835" transform="translate(-8960.748 -1705.837)">
    <path id="path2998" d="M192.178,389.593H181.363V392.8h7.669c-.379,4.5-4.123,6.419-7.657,6.419a8.571,8.571,0,1,1,.01-17.141,8.322,8.322,0,0,1,5.781,2.319l2.247-2.326a11.423,11.423,0,0,0-8.143-3.21,11.788,11.788,0,1,0,.171,23.576c6.311,0,10.93-4.323,10.93-10.716a9.61,9.61,0,0,0-.2-2.128Z" transform="translate(8791.18 1326.976)" fill="#396db4"/>
    <path id="path3000" d="M243.5,402.149a7.577,7.577,0,1,0,7.6,7.6,7.418,7.418,0,0,0-7.6-7.6Zm.044,2.977a4.374,4.374,0,1,1-3.145,1.369,4.356,4.356,0,0,1,3.145-1.369Z" transform="translate(8748.72 1312.096)" fill="#d01b28"/>
    <path id="path3005" d="M289.381,402.149a7.577,7.577,0,1,0,7.6,7.6A7.417,7.417,0,0,0,289.381,402.149Zm.044,2.977a4.374,4.374,0,1,1-3.145,1.369,4.356,4.356,0,0,1,3.145-1.369Z" transform="translate(8719.401 1312.096)" fill="#f7b301"/>
    <path id="path3007" d="M334.958,402.169a7.586,7.586,0,0,0-.07,15.156,5,5,0,0,0,4.155-1.841v1.494c0,2.614-1.587,4.179-3.983,4.179a4.2,4.2,0,0,1-3.879-2.7l-2.912,1.217a7.29,7.29,0,0,0,6.815,4.462c4.05,0,7.136-2.55,7.136-7.9V402.624h-3.177v1.281a5.361,5.361,0,0,0-4.086-1.739Zm.295,2.97c2,0,4.047,1.705,4.047,4.617,0,2.96-2.046,4.591-4.092,4.591a4.305,4.305,0,0,1-4.192-4.563,4.367,4.367,0,0,1,4.236-4.645Z" transform="translate(8690.073 1312.085)" fill="#396db4"/>
    <path id="path3011" d="M394.56,402.121c-3.844,0-7.068,3.057-7.068,7.567a7.328,7.328,0,0,0,7.435,7.6,7.688,7.688,0,0,0,6.347-3.326l-2.619-1.743a4.24,4.24,0,0,1-3.712,2.086,3.9,3.9,0,0,1-3.716-2.3l10.16-4.216-.527-1.235a6.86,6.86,0,0,0-6.3-4.44Zm.133,2.914a3.02,3.02,0,0,1,2.8,1.618l-6.785,2.836A4.209,4.209,0,0,1,394.693,405.035Z" transform="translate(8651.858 1312.115)" fill="#d01b28"/>
    <path id="path3015" d="M374.079,403.368h3.337V381.034h-3.337Z" transform="translate(8660.428 1325.588)" fill="#4ba93f"/>
  </g>
</svg>
