<svg id="google-cloud-datastore-1" xmlns="http://www.w3.org/2000/svg" width="112.785" height="89.722" viewBox="0 0 112.785 89.722">
  <g id="Group_2491" data-name="Group 2491" transform="translate(24.811)">
    <g id="Group_2490" data-name="Group 2490">
      <path id="Path_14622" data-name="Path 14622" d="M155.235,0H128.427a4.74,4.74,0,0,0-4.13,2.392l-13.4,23.22a4.77,4.77,0,0,0,0,4.784l13.4,23.22a4.815,4.815,0,0,0,4.13,2.392h26.808a4.74,4.74,0,0,0,4.13-2.392l13.4-23.22a4.77,4.77,0,0,0,0-4.784l-13.4-23.22A4.767,4.767,0,0,0,155.235,0Z" transform="translate(-110.25 0)" fill="#4683ed"/>
    </g>
    <path id="Path_14623" data-name="Path 14623" d="M225.815,97.135h-4.807l-.609,2.821-2.821-2.821L212.749,97l-.361,3.182-3.069-3.069-4.784,4.784,3.272,3.272-3.407.135.113,4.829,20.9,20.9h2.663a4.74,4.74,0,0,0,4.13-2.392l9.184-15.909Z" transform="translate(-183.154 -75.111)" fill="#417bdc"/>
    <path id="Path_14624" data-name="Path 14624" d="M207.184,100.316h-4.175a.607.607,0,0,1-.609-.609v-4.2a.607.607,0,0,1,.609-.609h4.175a.607.607,0,0,1,.609.609v4.175A.626.626,0,0,1,207.184,100.316Z" transform="translate(-181.605 -73.485)" fill="#fff"/>
    <path id="Path_14625" data-name="Path 14625" d="M243.684,94.9h-4.175a.607.607,0,0,0-.609.609v4.175a.607.607,0,0,0,.609.609h4.175a.607.607,0,0,0,.609-.609V95.509A.607.607,0,0,0,243.684,94.9Zm-.451,4.333h-3.249V95.983h3.249Z" transform="translate(-209.869 -73.485)" fill="#fff"/>
    <path id="Path_14626" data-name="Path 14626" d="M280.184,94.9h-4.175a.607.607,0,0,0-.609.609v4.175a.607.607,0,0,0,.609.609h4.175a.607.607,0,0,0,.609-.609V95.509A.607.607,0,0,0,280.184,94.9Zm-.451,4.333h-3.25V95.983h3.25Z" transform="translate(-238.132 -73.485)" fill="#fff"/>
    <path id="Path_14627" data-name="Path 14627" d="M207.184,131.4h-4.175a.607.607,0,0,0-.609.609v4.175a.607.607,0,0,0,.609.609h4.175a.607.607,0,0,0,.609-.609v-4.175A.607.607,0,0,0,207.184,131.4Zm-.451,4.333h-3.249v-3.249h3.249Z" transform="translate(-181.605 -101.748)" fill="#fff"/>
    <path id="Path_14628" data-name="Path 14628" d="M243.684,136.893h-4.175a.607.607,0,0,1-.609-.609v-4.175a.607.607,0,0,1,.609-.609h4.175a.607.607,0,0,1,.609.609v4.175A.621.621,0,0,1,243.684,136.893Z" transform="translate(-209.869 -101.826)" fill="#fff"/>
    <path id="Path_14629" data-name="Path 14629" d="M280.184,136.893h-4.175a.607.607,0,0,1-.609-.609v-4.175a.607.607,0,0,1,.609-.609h4.175a.607.607,0,0,1,.609.609v4.175A.621.621,0,0,1,280.184,136.893Z" transform="translate(-238.132 -101.826)" fill="#fff"/>
  </g>
  <g id="Group_2493" data-name="Group 2493" transform="translate(0 60.928)">
    <g id="Group_2492" data-name="Group 2492">
      <path id="Path_14630" data-name="Path 14630" d="M149.684,277.219h3.836v5.235a9.889,9.889,0,0,1-1.805.429,12.184,12.184,0,0,1-1.873.135,4.743,4.743,0,0,1-3.656-1.4,5.622,5.622,0,0,1-1.286-3.949,5.283,5.283,0,0,1,1.444-3.949,5.472,5.472,0,0,1,3.994-1.422,7.581,7.581,0,0,1,3.092.632l-.609,1.422a6.171,6.171,0,0,0-2.55-.587,3.517,3.517,0,0,0-2.64,1.038,4.011,4.011,0,0,0-.97,2.866,4.275,4.275,0,0,0,.88,2.911,3.2,3.2,0,0,0,2.5.993,8.27,8.27,0,0,0,1.76-.2v-2.685h-2.166v-1.467Z" transform="translate(-112.27 -271.781)" fill="#7a7a7a"/>
      <path id="Path_14631" data-name="Path 14631" d="M198.769,287.584a4.358,4.358,0,0,1-.993,3.024,3.537,3.537,0,0,1-2.753,1.083,3.736,3.736,0,0,1-1.963-.5,3.394,3.394,0,0,1-1.309-1.444,5.09,5.09,0,0,1-.451-2.166,4.3,4.3,0,0,1,.993-3,3.555,3.555,0,0,1,2.776-1.083,3.41,3.41,0,0,1,2.708,1.106A4.355,4.355,0,0,1,198.769,287.584Zm-5.754,0c0,1.828.677,2.73,2.031,2.73,1.331,0,2.008-.9,2.008-2.73,0-1.805-.677-2.708-2.008-2.708a1.71,1.71,0,0,0-1.534.7A3.435,3.435,0,0,0,193.015,287.584Z" transform="translate(-148.199 -280.454)" fill="#7a7a7a"/>
      <path id="Path_14632" data-name="Path 14632" d="M238.369,287.584a4.358,4.358,0,0,1-.993,3.024,3.537,3.537,0,0,1-2.753,1.083,3.736,3.736,0,0,1-1.963-.5,3.394,3.394,0,0,1-1.309-1.444,5.091,5.091,0,0,1-.451-2.166,4.3,4.3,0,0,1,.993-3,3.555,3.555,0,0,1,2.776-1.083,3.41,3.41,0,0,1,2.708,1.106A4.355,4.355,0,0,1,238.369,287.584Zm-5.754,0c0,1.828.677,2.73,2.031,2.73,1.331,0,2.008-.9,2.008-2.73,0-1.805-.677-2.708-2.008-2.708a1.71,1.71,0,0,0-1.534.7A3.435,3.435,0,0,0,232.615,287.584Z" transform="translate(-178.863 -280.454)" fill="#7a7a7a"/>
      <path id="Path_14633" data-name="Path 14633" d="M275.618,283.735v.925l-1.354.248a2.547,2.547,0,0,1,.316.609,2.183,2.183,0,0,1,.113.767,2.356,2.356,0,0,1-.835,1.918,3.487,3.487,0,0,1-2.324.7,3.125,3.125,0,0,1-.677-.068.962.962,0,0,0-.542.79.449.449,0,0,0,.248.406,2.129,2.129,0,0,0,.925.135h1.377a2.979,2.979,0,0,1,1.986.564,1.939,1.939,0,0,1,.677,1.6,2.333,2.333,0,0,1-1.106,2.076,5.763,5.763,0,0,1-3.2.722,4.36,4.36,0,0,1-2.46-.564,1.862,1.862,0,0,1-.858-1.625,1.727,1.727,0,0,1,.451-1.219,2.544,2.544,0,0,1,1.286-.7,1.358,1.358,0,0,1-.564-.451,1.216,1.216,0,0,1-.226-.677,1.184,1.184,0,0,1,.248-.745,2.69,2.69,0,0,1,.745-.609,2.281,2.281,0,0,1-.993-.857,2.6,2.6,0,0,1-.384-1.4,2.489,2.489,0,0,1,.812-1.986,3.383,3.383,0,0,1,2.3-.7c.226,0,.451.023.7.045s.429.068.564.09h2.776Zm-6.206,9.117a.915.915,0,0,0,.5.835,2.6,2.6,0,0,0,1.377.293,4.256,4.256,0,0,0,2.031-.384,1.185,1.185,0,0,0,.677-1.038.751.751,0,0,0-.361-.722,3.089,3.089,0,0,0-1.377-.226h-1.264a1.836,1.836,0,0,0-1.151.339A1.062,1.062,0,0,0,269.412,292.852Zm.722-6.567a1.646,1.646,0,0,0,.384,1.151,1.415,1.415,0,0,0,1.106.406c.97,0,1.467-.519,1.467-1.557a1.763,1.763,0,0,0-.361-1.2,1.673,1.673,0,0,0-2.211-.023A1.72,1.72,0,0,0,270.134,286.285Z" transform="translate(-207.513 -280.531)" fill="#7a7a7a"/>
      <path id="Path_14634" data-name="Path 14634" d="M310.27,281.1H308.6V270h1.67Z" transform="translate(-239.029 -270)" fill="#7a7a7a"/>
      <path id="Path_14635" data-name="Path 14635" d="M328.426,291.691a3.846,3.846,0,0,1-2.888-1.083,4.039,4.039,0,0,1-1.038-2.956,4.45,4.45,0,0,1,.97-3.046,3.3,3.3,0,0,1,2.64-1.106,3.213,3.213,0,0,1,2.46.948,3.621,3.621,0,0,1,.9,2.618v.9h-5.258a2.488,2.488,0,0,0,.632,1.76,2.18,2.18,0,0,0,1.647.609,5.976,5.976,0,0,0,1.309-.135,6.608,6.608,0,0,0,1.286-.429v1.354a4.214,4.214,0,0,1-1.241.406A5.368,5.368,0,0,1,328.426,291.691Zm-.316-6.905a1.667,1.667,0,0,0-1.286.5,2.351,2.351,0,0,0-.564,1.467h3.588a2.108,2.108,0,0,0-.474-1.489A1.776,1.776,0,0,0,328.111,284.786Z" transform="translate(-251.341 -280.454)" fill="#7a7a7a"/>
      <path id="Path_14636" data-name="Path 14636" d="M5.219,351.467a2.761,2.761,0,0,0-2.3,1.038,4.424,4.424,0,0,0-.835,2.866,4.478,4.478,0,0,0,.812,2.911,2.89,2.89,0,0,0,2.347.993,5.916,5.916,0,0,0,1.286-.135q.609-.135,1.286-.338v1.467a7.614,7.614,0,0,1-2.776.474,4.441,4.441,0,0,1-3.52-1.4A5.848,5.848,0,0,1,.3,355.371a6.593,6.593,0,0,1,.587-2.843A4.32,4.32,0,0,1,2.6,350.654,5.205,5.205,0,0,1,5.242,350a6.54,6.54,0,0,1,2.956.677L7.589,352.1a8.337,8.337,0,0,0-1.128-.429A3.766,3.766,0,0,0,5.219,351.467Z" transform="translate(-0.3 -331.947)" fill="#7a7a7a"/>
      <path id="Path_14637" data-name="Path 14637" d="M44.37,358.8H42.7V347.7h1.67Z" transform="translate(-33.132 -330.166)" fill="#7a7a7a"/>
      <path id="Path_14638" data-name="Path 14638" d="M66.169,365.384a4.358,4.358,0,0,1-.993,3.024,3.537,3.537,0,0,1-2.753,1.083,3.736,3.736,0,0,1-1.963-.5,3.4,3.4,0,0,1-1.309-1.444,5.091,5.091,0,0,1-.451-2.166,4.3,4.3,0,0,1,.993-3,3.554,3.554,0,0,1,2.776-1.083,3.41,3.41,0,0,1,2.708,1.106A4.316,4.316,0,0,1,66.169,365.384Zm-5.754,0c0,1.828.677,2.73,2.031,2.73,1.331,0,2.008-.9,2.008-2.73,0-1.805-.677-2.708-2.008-2.708a1.71,1.71,0,0,0-1.534.7A3.341,3.341,0,0,0,60.415,365.384Z" transform="translate(-45.521 -340.697)" fill="#7a7a7a"/>
      <path id="Path_14639" data-name="Path 14639" d="M105.719,369.721l-.226-1.038h-.09a2.32,2.32,0,0,1-.993.858,3.414,3.414,0,0,1-1.467.316,2.521,2.521,0,0,1-2.843-2.888V361.8h1.692v4.874a2.065,2.065,0,0,0,.361,1.354,1.448,1.448,0,0,0,1.173.451,1.856,1.856,0,0,0,1.557-.632,3.452,3.452,0,0,0,.5-2.121V361.8h1.692v7.9h-1.354Z" transform="translate(-77.579 -341.084)" fill="#7a7a7a"/>
      <path id="Path_14640" data-name="Path 14640" d="M142.537,359.115a2.749,2.749,0,0,1-2.3-1.061,4.891,4.891,0,0,1-.835-3,4.817,4.817,0,0,1,.835-3.024,2.778,2.778,0,0,1,2.324-1.083,2.718,2.718,0,0,1,2.369,1.151h.09a8.463,8.463,0,0,1-.113-1.331V347.9H146.6V359H145.29L145,357.964h-.068A2.871,2.871,0,0,1,142.537,359.115Zm.451-1.376a1.843,1.843,0,0,0,1.512-.587,3.13,3.13,0,0,0,.5-1.9v-.226a3.452,3.452,0,0,0-.5-2.121,1.765,1.765,0,0,0-1.512-.632,1.541,1.541,0,0,0-1.354.722,3.685,3.685,0,0,0-.474,2.053,3.57,3.57,0,0,0,.474,2.008A1.453,1.453,0,0,0,142.988,357.739Z" transform="translate(-108.011 -330.321)" fill="#7a7a7a"/>
      <path id="Path_14641" data-name="Path 14641" d="M207.885,355.9a5.148,5.148,0,0,1-1.444,3.949,5.771,5.771,0,0,1-4.13,1.376H199.4V350.8h3.227a5.4,5.4,0,0,1,3.881,1.331A4.96,4.96,0,0,1,207.885,355.9Zm-1.783.045c0-2.5-1.173-3.746-3.5-3.746h-1.489v7.582h1.219C204.838,359.781,206.1,358.495,206.1,355.945Z" transform="translate(-154.471 -332.567)" fill="#7a7a7a"/>
      <path id="Path_14642" data-name="Path 14642" d="M249.206,369.179l-.338-1.106H248.8a3.141,3.141,0,0,1-1.151.97,3.9,3.9,0,0,1-1.489.271,2.447,2.447,0,0,1-1.805-.632,2.4,2.4,0,0,1-.654-1.783,2.107,2.107,0,0,1,.9-1.85,5.4,5.4,0,0,1,2.753-.677l1.354-.045V363.9a1.543,1.543,0,0,0-.361-1.128,1.457,1.457,0,0,0-1.106-.384,4.109,4.109,0,0,0-1.173.181,6.142,6.142,0,0,0-1.061.429l-.542-1.2a6.4,6.4,0,0,1,2.843-.7,3.517,3.517,0,0,1,2.279.654,2.53,2.53,0,0,1,.767,2.053v5.326h-1.151Zm-2.5-1.128a2.077,2.077,0,0,0,1.467-.519,1.867,1.867,0,0,0,.564-1.422v-.677l-1.015.045a3.236,3.236,0,0,0-1.715.406,1.182,1.182,0,0,0-.542,1.083,1.036,1.036,0,0,0,.316.812A1.457,1.457,0,0,0,246.7,368.05Z" transform="translate(-188.774 -340.542)" fill="#7a7a7a"/>
      <path id="Path_14643" data-name="Path 14643" d="M283.481,362.54a3.834,3.834,0,0,0,1.219-.2V363.6a2.526,2.526,0,0,1-.722.2,5.824,5.824,0,0,1-.9.09c-1.58,0-2.392-.835-2.392-2.5v-4.265H279.6v-.745l1.151-.609.564-1.67h1.038v1.76h2.257v1.264h-2.257v4.22a1.034,1.034,0,0,0,1.128,1.2Z" transform="translate(-216.573 -335.122)" fill="#7a7a7a"/>
      <path id="Path_14644" data-name="Path 14644" d="M312.206,369.179l-.339-1.106H311.8a3.141,3.141,0,0,1-1.151.97,3.514,3.514,0,0,1-1.489.271,2.447,2.447,0,0,1-1.805-.632,2.4,2.4,0,0,1-.654-1.783,2.107,2.107,0,0,1,.9-1.85,5.4,5.4,0,0,1,2.753-.677l1.354-.045V363.9a1.543,1.543,0,0,0-.361-1.128,1.492,1.492,0,0,0-1.106-.384,4.109,4.109,0,0,0-1.173.181,6.14,6.14,0,0,0-1.061.429l-.542-1.2a6.4,6.4,0,0,1,2.843-.7,3.517,3.517,0,0,1,2.279.654,2.53,2.53,0,0,1,.767,2.053v5.326h-1.151Zm-2.5-1.128a2.077,2.077,0,0,0,1.467-.519,1.867,1.867,0,0,0,.564-1.422v-.677l-1.016.045a3.236,3.236,0,0,0-1.715.406,1.182,1.182,0,0,0-.542,1.083,1.036,1.036,0,0,0,.316.812A1.5,1.5,0,0,0,309.7,368.05Z" transform="translate(-237.558 -340.542)" fill="#7a7a7a"/>
      <path id="Path_14645" data-name="Path 14645" d="M350.477,367.022a2.1,2.1,0,0,1-.835,1.783,4.1,4.1,0,0,1-2.415.609,5.67,5.67,0,0,1-2.527-.474v-1.467a6.151,6.151,0,0,0,2.6.632c1.038,0,1.557-.316,1.557-.925a.744.744,0,0,0-.181-.5,1.73,1.73,0,0,0-.564-.406c-.271-.135-.632-.293-1.083-.5a5.089,5.089,0,0,1-1.85-1.061,2,2,0,0,1-.474-1.377,1.823,1.823,0,0,1,.812-1.58,3.809,3.809,0,0,1,2.234-.564,6.24,6.24,0,0,1,2.64.564l-.542,1.264a5.623,5.623,0,0,0-2.144-.519c-.88,0-1.331.248-1.331.767a.784.784,0,0,0,.338.632,6.992,6.992,0,0,0,1.512.7,5.889,5.889,0,0,1,1.422.7,1.975,1.975,0,0,1,.654.722A2.6,2.6,0,0,1,350.477,367.022Z" transform="translate(-266.983 -340.62)" fill="#7a7a7a"/>
      <path id="Path_14646" data-name="Path 14646" d="M378.081,362.54a3.834,3.834,0,0,0,1.219-.2V363.6a2.525,2.525,0,0,1-.722.2,5.824,5.824,0,0,1-.9.09c-1.58,0-2.392-.835-2.392-2.5v-4.265H374.2v-.745l1.151-.609.564-1.67h1.038v1.76h2.257v1.264h-2.257v4.22a1.21,1.21,0,0,0,.293.9A1.182,1.182,0,0,0,378.081,362.54Z" transform="translate(-289.826 -335.122)" fill="#7a7a7a"/>
      <path id="Path_14647" data-name="Path 14647" d="M409.169,365.384a4.358,4.358,0,0,1-.993,3.024,3.537,3.537,0,0,1-2.753,1.083,3.736,3.736,0,0,1-1.963-.5,3.394,3.394,0,0,1-1.309-1.444,5.09,5.09,0,0,1-.451-2.166,4.3,4.3,0,0,1,.993-3,3.555,3.555,0,0,1,2.776-1.083,3.41,3.41,0,0,1,2.708,1.106A4.315,4.315,0,0,1,409.169,365.384Zm-5.732,0c0,1.828.677,2.73,2.031,2.73,1.331,0,2.008-.9,2.008-2.73,0-1.805-.677-2.708-2.008-2.708a1.71,1.71,0,0,0-1.534.7A3.341,3.341,0,0,0,403.438,365.384Z" transform="translate(-311.12 -340.697)" fill="#7a7a7a"/>
      <path id="Path_14648" data-name="Path 14648" d="M447.394,361.3a4.294,4.294,0,0,1,.835.068l-.158,1.557a2.8,2.8,0,0,0-.745-.09,2.141,2.141,0,0,0-1.625.654,2.429,2.429,0,0,0-.632,1.715v4.13H443.4v-7.9h1.309l.226,1.4h.09a3.509,3.509,0,0,1,1.015-1.128A2.441,2.441,0,0,1,447.394,361.3Z" transform="translate(-343.41 -340.697)" fill="#7a7a7a"/>
      <path id="Path_14649" data-name="Path 14649" d="M473.126,369.491a3.846,3.846,0,0,1-2.888-1.083,4.039,4.039,0,0,1-1.038-2.956,4.45,4.45,0,0,1,.97-3.046,3.3,3.3,0,0,1,2.64-1.106,3.213,3.213,0,0,1,2.46.948,3.621,3.621,0,0,1,.9,2.618v.9h-5.258a2.488,2.488,0,0,0,.632,1.76,2.18,2.18,0,0,0,1.647.609A5.976,5.976,0,0,0,474.5,368a6.612,6.612,0,0,0,1.286-.429v1.354a4.216,4.216,0,0,1-1.241.406A5.369,5.369,0,0,1,473.126,369.491Zm-.316-6.928a1.667,1.667,0,0,0-1.286.5,2.351,2.351,0,0,0-.564,1.467h3.588a2.108,2.108,0,0,0-.474-1.489A1.776,1.776,0,0,0,472.811,362.564Z" transform="translate(-363.388 -340.697)" fill="#7a7a7a"/>
    </g>
  </g>
</svg>
