<svg id="google-developer-tools" xmlns="http://www.w3.org/2000/svg" width="180.26" height="45.68" viewBox="0 0 180.26 45.68">
  <g id="Group_2534" data-name="Group 2534" transform="translate(0 3.101)">
    <path id="Path_14869" data-name="Path 14869" d="M41.936,19.488l1.586.036,4.29-4.29.216-1.8A19.469,19.469,0,0,0,35.231,8.6,19.207,19.207,0,0,0,16.7,22.768c.469-.324,1.478-.072,1.478-.072l8.544-1.406s.433-.721.649-.685a10.642,10.642,0,0,1,14.565-1.118Z" transform="translate(-10.679 -8.6)" fill="#ea4335"/>
    <path id="Path_14870" data-name="Path 14870" d="M84.812,31.437a19.131,19.131,0,0,0-5.8-9.337l-6.057,6.021a10.617,10.617,0,0,1,3.966,8.292v1.082a5.336,5.336,0,1,1,0,10.671H66.282L65.2,49.247v6.417l1.082,1.046H76.953a13.848,13.848,0,0,0,7.859-25.272Z" transform="translate(-41.694 -17.233)" fill="#4285f4"/>
    <path id="Path_14871" data-name="Path 14871" d="M23.6,102.113H34.271V93.569H23.6a5.728,5.728,0,0,1-2.2-.469l-1.55.469-4.29,4.29L15.2,99.3a13.632,13.632,0,0,0,8.4,2.812Z" transform="translate(-9.72 -62.636)" fill="#34a853"/>
    <path id="Path_14872" data-name="Path 14872" d="M13.88,41.1A13.874,13.874,0,0,0,5.516,66.048l6.2-6.2a5.339,5.339,0,1,1,7.066-7.066l6.2-6.2a14.2,14.2,0,0,0-11.1-5.48Z" transform="translate(0 -29.383)" fill="#fbbc05"/>
  </g>
  <g id="Group_2537" data-name="Group 2537" transform="translate(62.875 0)">
    <g id="Group_2535" data-name="Group 2535">
      <path id="Path_14873" data-name="Path 14873" d="M185.107,21.053a10.461,10.461,0,0,1-7.535-3.1,10.09,10.09,0,0,1-3.173-7.427A9.955,9.955,0,0,1,177.573,3.1,10.461,10.461,0,0,1,185.107,0a10.106,10.106,0,0,1,7.21,2.884L190.3,4.9a7.579,7.579,0,0,0-10.563.18,7.458,7.458,0,0,0-2.2,5.408,7.342,7.342,0,0,0,2.2,5.408,7.214,7.214,0,0,0,5.372,2.235,7.313,7.313,0,0,0,5.336-2.091,5.959,5.959,0,0,0,1.55-3.605h-6.886V9.552h9.7a8.9,8.9,0,0,1,.144,1.8,9.147,9.147,0,0,1-2.488,6.742,9.7,9.7,0,0,1-7.355,2.956Zm22.532-1.911a6.605,6.605,0,0,1-4.831,1.911,6.752,6.752,0,0,1-4.831-1.911A6.417,6.417,0,0,1,196,14.311a6.472,6.472,0,0,1,1.983-4.831,6.605,6.605,0,0,1,4.831-1.911A6.752,6.752,0,0,1,207.64,9.48a6.417,6.417,0,0,1,1.983,4.831A6.61,6.61,0,0,1,207.64,19.142Zm-7.535-1.911a3.471,3.471,0,0,0,2.7,1.154,3.71,3.71,0,0,0,2.7-1.154,4.081,4.081,0,0,0,1.118-2.956,4.024,4.024,0,0,0-1.118-2.956,3.71,3.71,0,0,0-2.7-1.154,3.652,3.652,0,0,0-2.7,1.154,4.024,4.024,0,0,0-1.118,2.956,3.938,3.938,0,0,0,1.118,2.956Zm22.352,1.911a6.605,6.605,0,0,1-4.831,1.911,6.752,6.752,0,0,1-4.831-1.911,6.417,6.417,0,0,1-1.983-4.831A6.472,6.472,0,0,1,212.8,9.48a6.605,6.605,0,0,1,4.831-1.911,6.752,6.752,0,0,1,4.831,1.911,6.417,6.417,0,0,1,1.983,4.831A6.472,6.472,0,0,1,222.457,19.142Zm-7.5-1.911a3.47,3.47,0,0,0,2.7,1.154,3.71,3.71,0,0,0,2.7-1.154,4.081,4.081,0,0,0,1.118-2.956,4.024,4.024,0,0,0-1.118-2.956,3.71,3.71,0,0,0-2.7-1.154,3.652,3.652,0,0,0-2.7,1.154,4.024,4.024,0,0,0-1.118,2.956,3.938,3.938,0,0,0,1.118,2.956Zm17.269,9.914a5.756,5.756,0,0,1-3.785-1.226,6.835,6.835,0,0,1-2.2-2.812l2.6-1.082a4.2,4.2,0,0,0,1.3,1.694,3.371,3.371,0,0,0,2.127.721,3.645,3.645,0,0,0,2.668-1.009,4.117,4.117,0,0,0,.973-2.956V19.5H235.8a4.379,4.379,0,0,1-3.569,1.55,6.127,6.127,0,0,1-4.543-1.983,6.613,6.613,0,0,1-1.947-4.795,6.755,6.755,0,0,1,1.947-4.831,6.127,6.127,0,0,1,4.543-1.983,4.931,4.931,0,0,1,2.091.433A4.253,4.253,0,0,1,235.8,8.975h.108V7.894h2.812V20.079a7.084,7.084,0,0,1-1.8,5.3,6.246,6.246,0,0,1-4.687,1.767Zm.216-8.761a3.366,3.366,0,0,0,2.6-1.154,4.325,4.325,0,0,0,1.046-2.92,4.354,4.354,0,0,0-1.046-2.956,3.4,3.4,0,0,0-2.6-1.19,3.481,3.481,0,0,0-2.668,1.19,4.237,4.237,0,0,0-1.118,2.956,4.054,4.054,0,0,0,1.118,2.92,3.5,3.5,0,0,0,2.668,1.154ZM243.728.719V20.656h-2.992V.719Zm8.148,20.333a6.441,6.441,0,0,1-4.795-1.947,6.549,6.549,0,0,1-1.911-4.831,6.575,6.575,0,0,1,1.875-4.867A6.154,6.154,0,0,1,251.587,7.5a5.8,5.8,0,0,1,2.271.433,4.709,4.709,0,0,1,1.73,1.154,8.076,8.076,0,0,1,1.118,1.37c.252.433.469.865.685,1.334l.324.757-9.049,3.749a3.454,3.454,0,0,0,3.281,2.055,3.9,3.9,0,0,0,3.353-1.875l2.307,1.55a7.236,7.236,0,0,1-2.2,2.091,6.315,6.315,0,0,1-3.533.937Zm-3.785-6.994,6.057-2.524a1.952,1.952,0,0,0-.973-1.046,3.3,3.3,0,0,0-1.55-.4,3.525,3.525,0,0,0-2.452,1.082,3.7,3.7,0,0,0-1.082,2.884Z" transform="translate(-174.4 0.003)" fill="#5f6368"/>
    </g>
    <g id="Group_2536" data-name="Group 2536" transform="translate(1.514 30.465)">
      <path id="Path_14874" data-name="Path 14874" d="M187.4,91.736a5.454,5.454,0,0,1-1.478,4.11,6.031,6.031,0,0,1-4.29,1.406H178.6V86.4h3.353a5.56,5.56,0,0,1,4.038,1.406A5.442,5.442,0,0,1,187.4,91.736Zm-1.875.072c0-2.6-1.226-3.894-3.641-3.894h-1.55v7.9h1.262C184.188,95.773,185.522,94.44,185.522,91.808Z" transform="translate(-178.6 -85.715)" fill="#5f6368"/>
      <path id="Path_14875" data-name="Path 14875" d="M211.674,101.908a3.943,3.943,0,0,1-2.992-1.118,4.24,4.24,0,0,1-1.082-3.064,4.657,4.657,0,0,1,1.009-3.173,3.51,3.51,0,0,1,2.74-1.154,3.369,3.369,0,0,1,2.56.973,3.789,3.789,0,0,1,.937,2.7v.937h-5.48a2.823,2.823,0,0,0,.649,1.839,2.23,2.23,0,0,0,1.73.649,5.7,5.7,0,0,0,1.37-.144,7.4,7.4,0,0,0,1.334-.469V101.3a4.583,4.583,0,0,1-1.3.433A4.751,4.751,0,0,1,211.674,101.908Zm-.324-7.21a1.739,1.739,0,0,0-1.334.541,2.661,2.661,0,0,0-.613,1.55h3.749a2.225,2.225,0,0,0-.5-1.55A1.661,1.661,0,0,0,211.349,94.7Z" transform="translate(-197.145 -90.191)" fill="#5f6368"/>
      <path id="Path_14876" data-name="Path 14876" d="M232.837,102.02,229.7,93.8h1.839l1.658,4.795a7.748,7.748,0,0,1,.5,1.947h.072a12.84,12.84,0,0,1,.5-1.947l1.658-4.795h1.875l-3.137,8.22Z" transform="translate(-211.277 -90.447)" fill="#5f6368"/>
      <path id="Path_14877" data-name="Path 14877" d="M258.574,101.908a3.943,3.943,0,0,1-2.992-1.118,4.24,4.24,0,0,1-1.082-3.064,4.657,4.657,0,0,1,1.009-3.173,3.51,3.51,0,0,1,2.74-1.154,3.369,3.369,0,0,1,2.56.973,3.789,3.789,0,0,1,.937,2.7v.937h-5.48a2.823,2.823,0,0,0,.649,1.839,2.23,2.23,0,0,0,1.73.649,5.7,5.7,0,0,0,1.37-.144,7.4,7.4,0,0,0,1.334-.469V101.3a4.584,4.584,0,0,1-1.3.433A4.75,4.75,0,0,1,258.574,101.908Zm-.324-7.21a1.739,1.739,0,0,0-1.334.541,2.661,2.661,0,0,0-.613,1.55h3.713a2.225,2.225,0,0,0-.5-1.55A1.536,1.536,0,0,0,258.249,94.7Z" transform="translate(-227.137 -90.191)" fill="#5f6368"/>
      <path id="Path_14878" data-name="Path 14878" d="M281.93,96.073H280.2V84.5h1.73Z" transform="translate(-243.571 -84.5)" fill="#5f6368"/>
      <path id="Path_14879" data-name="Path 14879" d="M298.287,97.554a4.511,4.511,0,0,1-1.046,3.137,3.7,3.7,0,0,1-2.884,1.118,4.089,4.089,0,0,1-2.019-.5,3.623,3.623,0,0,1-1.37-1.478,5.016,5.016,0,0,1-.469-2.271,4.5,4.5,0,0,1,1.009-3.137,3.7,3.7,0,0,1,2.884-1.118,3.613,3.613,0,0,1,2.812,1.154A4.234,4.234,0,0,1,298.287,97.554Zm-5.985,0c0,1.911.685,2.848,2.091,2.848,1.37,0,2.091-.937,2.091-2.848,0-1.875-.685-2.812-2.091-2.812a1.816,1.816,0,0,0-1.586.721A3.811,3.811,0,0,0,292.3,97.554Z" transform="translate(-250.158 -90.127)" fill="#5f6368"/>
      <path id="Path_14880" data-name="Path 14880" d="M321.946,101.844a2.835,2.835,0,0,1-2.415-1.118h-.108c.072.685.108,1.118.108,1.262v3.353H317.8V93.48h1.406c.036.144.108.5.252,1.082h.072a3.05,3.05,0,0,1,4.831-.144,6.117,6.117,0,0,1,0,6.273A2.956,2.956,0,0,1,321.946,101.844Zm-.433-7.1a1.852,1.852,0,0,0-1.514.613,3.093,3.093,0,0,0-.469,1.947v.252A3.7,3.7,0,0,0,320,99.717a1.816,1.816,0,0,0,1.55.685,1.572,1.572,0,0,0,1.406-.757,3.859,3.859,0,0,0,.5-2.127,3.986,3.986,0,0,0-.469-2.091A1.92,1.92,0,0,0,321.513,94.742Z" transform="translate(-267.616 -90.127)" fill="#5f6368"/>
      <path id="Path_14881" data-name="Path 14881" d="M346.674,101.908a3.943,3.943,0,0,1-2.992-1.118,4.24,4.24,0,0,1-1.082-3.064,4.657,4.657,0,0,1,1.009-3.173,3.51,3.51,0,0,1,2.74-1.154,3.369,3.369,0,0,1,2.56.973,3.789,3.789,0,0,1,.937,2.7v.937h-5.48a2.823,2.823,0,0,0,.649,1.839,2.23,2.23,0,0,0,1.73.649,5.7,5.7,0,0,0,1.37-.144,7.4,7.4,0,0,0,1.334-.469V101.3a4.583,4.583,0,0,1-1.3.433A4.482,4.482,0,0,1,346.674,101.908Zm-.288-7.21a1.739,1.739,0,0,0-1.334.541,2.661,2.661,0,0,0-.613,1.55h3.713a2.225,2.225,0,0,0-.5-1.55A1.536,1.536,0,0,0,346.385,94.7Z" transform="translate(-283.475 -90.191)" fill="#5f6368"/>
      <path id="Path_14882" data-name="Path 14882" d="M372.546,93.4a5.177,5.177,0,0,1,.865.072l-.18,1.622a2.7,2.7,0,0,0-.757-.072,2.2,2.2,0,0,0-1.694.685,2.484,2.484,0,0,0-.649,1.767v4.29H368.4v-8.22h1.37l.216,1.442h.072a3.035,3.035,0,0,1,1.082-1.154A2.486,2.486,0,0,1,372.546,93.4Z" transform="translate(-299.973 -90.191)" fill="#5f6368"/>
      <path id="Path_14883" data-name="Path 14883" d="M399.575,97.352h-1.767V88.014H394.6V86.5h8.148v1.514h-3.209v9.337Z" transform="translate(-316.728 -85.779)" fill="#5f6368"/>
      <path id="Path_14884" data-name="Path 14884" d="M427.787,97.554a4.511,4.511,0,0,1-1.046,3.137,3.7,3.7,0,0,1-2.884,1.118,4.089,4.089,0,0,1-2.019-.5,3.623,3.623,0,0,1-1.37-1.478A5.016,5.016,0,0,1,420,97.554a4.5,4.5,0,0,1,1.009-3.137,3.7,3.7,0,0,1,2.884-1.118,3.613,3.613,0,0,1,2.812,1.154A4.39,4.39,0,0,1,427.787,97.554Zm-5.985,0c0,1.911.685,2.848,2.091,2.848,1.37,0,2.091-.937,2.091-2.848,0-1.875-.685-2.812-2.091-2.812a1.816,1.816,0,0,0-1.586.721A3.524,3.524,0,0,0,421.8,97.554Z" transform="translate(-332.971 -90.127)" fill="#5f6368"/>
      <path id="Path_14885" data-name="Path 14885" d="M453.587,97.554a4.511,4.511,0,0,1-1.045,3.137,3.7,3.7,0,0,1-2.884,1.118,4.089,4.089,0,0,1-2.019-.5,3.623,3.623,0,0,1-1.37-1.478,5.016,5.016,0,0,1-.469-2.271,4.5,4.5,0,0,1,1.009-3.137,3.7,3.7,0,0,1,2.884-1.118,3.613,3.613,0,0,1,2.812,1.154A4.39,4.39,0,0,1,453.587,97.554Zm-5.985,0c0,1.911.685,2.848,2.091,2.848,1.37,0,2.091-.937,2.091-2.848,0-1.875-.685-2.812-2.091-2.812a1.816,1.816,0,0,0-1.586.721A3.524,3.524,0,0,0,447.6,97.554Z" transform="translate(-349.469 -90.127)" fill="#5f6368"/>
      <path id="Path_14886" data-name="Path 14886" d="M474.73,96.073H473V84.5h1.73Z" transform="translate(-366.863 -84.5)" fill="#5f6368"/>
      <path id="Path_14887" data-name="Path 14887" d="M489.321,99.421a2.163,2.163,0,0,1-.865,1.839,4.136,4.136,0,0,1-2.524.649,6,6,0,0,1-2.632-.5V99.889a6.8,6.8,0,0,0,2.7.685q1.622,0,1.622-.973a.713.713,0,0,0-.18-.5,1.99,1.99,0,0,0-.577-.433,9.7,9.7,0,0,0-1.154-.5,4.72,4.72,0,0,1-1.911-1.118,2.062,2.062,0,0,1-.5-1.442,1.787,1.787,0,0,1,.865-1.622,3.98,3.98,0,0,1,2.307-.577,6.445,6.445,0,0,1,2.74.577l-.577,1.3a6.2,6.2,0,0,0-2.235-.541c-.937,0-1.37.252-1.37.793a.764.764,0,0,0,.361.649,6.813,6.813,0,0,0,1.586.721,7.027,7.027,0,0,1,1.478.721,1.938,1.938,0,0,1,.685.757A3.015,3.015,0,0,1,489.321,99.421Z" transform="translate(-373.45 -90.191)" fill="#5f6368"/>
    </g>
  </g>
</svg>
