<svg id="grafana-logo" xmlns="http://www.w3.org/2000/svg" xmlns:xlink="http://www.w3.org/1999/xlink" width="69.725" height="71.241" viewBox="0 0 69.725 71.241">
  <defs>
    <linearGradient id="linear-gradient" x1="0.5" y1="0.093" x2="0.5" y2="1.006" gradientUnits="objectBoundingBox">
      <stop offset="0" stop-color="#fcee1f"/>
      <stop offset="1" stop-color="#f15b2a"/>
    </linearGradient>
  </defs>
  <g id="Group_2542" data-name="Group 2542" transform="translate(0 56.856)">
    <path id="Path_14916" data-name="Path 14916" d="M14.043,123.686A7.081,7.081,0,0,1,7,130.585a7.009,7.009,0,0,1-7-7.193A7.2,7.2,0,0,1,7.193,116.2a7.414,7.414,0,0,1,4.991,2.153l-1.125,1.419a6.111,6.111,0,0,0-3.865-1.664,5.294,5.294,0,0,0-5.284,5.284A5.131,5.131,0,0,0,7,128.677a5.093,5.093,0,0,0,4.991-4.306H6.165v-1.713h7.878Z" transform="translate(0 -116.2)" fill="#565656"/>
    <path id="Path_14917" data-name="Path 14917" d="M36.938,127.559H35.861a2.172,2.172,0,0,0-2.153,2.153v5.578H31.8V125.7h1.566v.783a3.081,3.081,0,0,1,2.251-.783h2.055Z" transform="translate(-16.24 -121.052)" fill="#565656"/>
    <path id="Path_14918" data-name="Path 14918" d="M53.393,135.137H51.729v-1.223a4.688,4.688,0,0,1-5.235.93,4.964,4.964,0,0,1-2.887-3.621,4.913,4.913,0,0,1,4.844-5.823,4.664,4.664,0,0,1,3.278,1.37v-1.223h1.664Zm-1.957-4.061a3,3,0,1,0-2.4,2.251A3.124,3.124,0,0,0,51.436,131.076Z" transform="translate(-22.225 -120.898)" fill="#565656"/>
    <path id="Path_14919" data-name="Path 14919" d="M69.559,121.278v.538h3.034v1.664H69.559v7.878H67.7V121.327A3.209,3.209,0,0,1,71.125,118h2.3l-.783,1.81H71.125A1.467,1.467,0,0,0,69.559,121.278Z" transform="translate(-34.574 -117.119)" fill="#565656"/>
    <path id="Path_14920" data-name="Path 14920" d="M88.244,135.137H86.629v-1.223a4.688,4.688,0,0,1-5.235.93,4.964,4.964,0,0,1-2.887-3.621,4.913,4.913,0,0,1,4.844-5.823,4.664,4.664,0,0,1,3.278,1.37v-1.223h1.664v9.59Zm-1.957-4.061a3,3,0,1,0-2.4,2.251A3.055,3.055,0,0,0,86.287,131.076Z" transform="translate(-40.048 -120.898)" fill="#565656"/>
    <path id="Path_14921" data-name="Path 14921" d="M110.922,129.51v5.627h-1.908v-5.676a2.172,2.172,0,0,0-2.153-2.153,2.14,2.14,0,0,0-2.153,2.153v5.676H102.8v-9.59h1.566v.832a3.763,3.763,0,0,1,2.544-.979A4.083,4.083,0,0,1,110.922,129.51Z" transform="translate(-52.5 -120.898)" fill="#565656"/>
    <path id="Path_14922" data-name="Path 14922" d="M132.144,135.137h-1.615v-1.223a4.688,4.688,0,0,1-5.235.93,4.964,4.964,0,0,1-2.887-3.621,4.913,4.913,0,0,1,4.844-5.823,4.664,4.664,0,0,1,3.278,1.37v-1.223h1.664v9.59Zm-1.957-4.061a3,3,0,1,0-2.4,2.251A3.055,3.055,0,0,0,130.187,131.076Z" transform="translate(-62.468 -120.898)" fill="#565656"/>
  </g>
  <path id="Path_14923" data-name="Path 14923" d="M70.042,24.416a22.73,22.73,0,0,0-.538-3.18,21.837,21.837,0,0,0-1.419-3.817,21.238,21.238,0,0,0-2.642-4.061c-.44-.538-.93-1.028-1.419-1.566a8.073,8.073,0,0,0-.93-5.774,8.418,8.418,0,0,0-5.529,1.419c-.1-.049-.245-.1-.343-.147-.489-.2-1.028-.391-1.566-.587-.538-.147-1.076-.343-1.615-.44-.538-.147-1.125-.245-1.713-.343-.1,0-.2-.049-.294-.049A10.385,10.385,0,0,0,47.045,0a11.5,11.5,0,0,0-5.089,6.41.488.488,0,0,1-.049.2c-.245.049-.44.147-.685.2a7.134,7.134,0,0,0-.93.343c-.294.147-.636.245-.93.391-.636.294-1.223.587-1.859.93-.587.343-1.174.685-1.713,1.076a.606.606,0,0,1-.147-.1,14.218,14.218,0,0,0-10.813.44A15.709,15.709,0,0,0,27.669,20.5c-.147.391-.245.734-.391,1.125a24.4,24.4,0,0,0-.93,4.257c-.049.2-.049.44-.1.636A14.1,14.1,0,0,0,19.4,34.5a14.988,14.988,0,0,0,9.59,5.382h0A22.058,22.058,0,0,0,31.241,43.2c.343.44.734.832,1.125,1.272a11.912,11.912,0,0,0,.245,8.465,13.722,13.722,0,0,0,8.856-2.691l1.468.44a21.339,21.339,0,0,0,4.6.685h2.006a9.755,9.755,0,0,0,6.41,3.768,10.334,10.334,0,0,0,3.083-6.752h0v-.147h0V48.1c.587-.44,1.174-.881,1.761-1.37A18.927,18.927,0,0,0,63.828,43.2c.1-.1.147-.245.245-.343a7.983,7.983,0,0,0,5.578-2.055,8.415,8.415,0,0,0-2.887-5.382h0l-.049-.049-.049-.049h0l-.049-.049c0-.2.049-.391.049-.636a8.661,8.661,0,0,0,.049-1.125V32.1a.621.621,0,0,0-.049-.294l-.049-.294-.049-.294c-.049-.391-.147-.734-.2-1.125a14.5,14.5,0,0,0-1.664-4.11,15.269,15.269,0,0,0-2.789-3.327A13.466,13.466,0,0,0,58.4,20.4a12.351,12.351,0,0,0-3.865-1.076,13.115,13.115,0,0,0-1.957-.1H51.6c-.343.049-.685.1-.979.147A11.117,11.117,0,0,0,47,20.746a10.968,10.968,0,0,0-2.789,2.4,9.8,9.8,0,0,0-1.761,2.985,10.6,10.6,0,0,0-.685,3.18v1.174a1.077,1.077,0,0,0,.049.391,7.569,7.569,0,0,0,.294,1.517,8.373,8.373,0,0,0,1.321,2.642,7.791,7.791,0,0,0,1.957,1.859,8.623,8.623,0,0,0,2.251,1.076,5.955,5.955,0,0,0,2.2.294h1.028a2.119,2.119,0,0,0,.245-.049c.1,0,.147-.049.245-.049.147-.049.343-.1.489-.147.294-.1.587-.245.881-.343a4.834,4.834,0,0,0,.734-.44c.049-.049.147-.1.2-.147a.551.551,0,0,0,.1-.783.683.683,0,0,0-.734-.147c-.049.049-.1.049-.2.1a3.4,3.4,0,0,1-.636.245c-.245.049-.489.147-.734.2-.147,0-.245.049-.391.049H50.03a.294.294,0,0,1-.2-.049,7.142,7.142,0,0,1-1.664-.489,5.2,5.2,0,0,1-1.517-1.028,6.17,6.17,0,0,1-1.223-1.517,5.25,5.25,0,0,1-.636-1.859,3.627,3.627,0,0,1-.049-1.028v-.294h0v-.245a2.081,2.081,0,0,1,.1-.538,7.16,7.16,0,0,1,2.1-3.963,4.385,4.385,0,0,1,.93-.734,5.505,5.505,0,0,1,1.028-.587,7.606,7.606,0,0,1,1.125-.391,4.912,4.912,0,0,1,1.174-.2c.2,0,.391-.049.587-.049h.587a9.9,9.9,0,0,1,1.272.2,9.323,9.323,0,0,1,2.446.93,8.9,8.9,0,0,1,4.5,6.41c.049.245.049.44.1.685v1.272c0,.245-.049.489-.049.734-.049.245-.049.489-.1.734l-.147.734c-.1.489-.294.93-.44,1.419a10.271,10.271,0,0,1-1.419,2.593,11.665,11.665,0,0,1-7.437,4.648,7.468,7.468,0,0,1-1.468.147h-.783a4.209,4.209,0,0,1-.783-.049,16.84,16.84,0,0,1-3.132-.587,15.323,15.323,0,0,1-2.936-1.174,15.984,15.984,0,0,1-4.844-4.012,18.767,18.767,0,0,1-1.713-2.642,16.028,16.028,0,0,1-1.125-2.887,12.671,12.671,0,0,1-.489-3.034V28.869h0v-.489a8.888,8.888,0,0,1,.147-1.566c.049-.538.147-1.028.245-1.566s.245-1.028.391-1.566a19.033,19.033,0,0,1,1.076-2.936A17.355,17.355,0,0,1,39.021,15.9a9.784,9.784,0,0,1,1.076-.93,5.538,5.538,0,0,1,.881-.685A9.85,9.85,0,0,1,42.2,13.6c.2-.1.391-.2.636-.294a221778.393,221778.393,0,0,0,.685-.294c.44-.2.881-.343,1.321-.489.1-.049.245-.049.343-.1s.245-.049.343-.1a3.6,3.6,0,0,0,.685-.2c.1-.049.245-.049.343-.1.1,0,.245-.049.343-.049s.245-.049.343-.049l.2-.049.2-.049c.1,0,.245-.049.343-.049.147,0,.245-.049.391-.049.1,0,.294-.049.391-.049A.441.441,0,0,0,49,11.645h.343a1.077,1.077,0,0,0,.391-.049h2.006a22.115,22.115,0,0,1,2.593.294,16.594,16.594,0,0,1,4.7,1.566,17.735,17.735,0,0,1,3.817,2.5c.049.049.147.1.2.2.049.049.147.1.2.2.147.1.245.245.391.343s.245.245.391.343c.1.147.245.245.343.391a18.281,18.281,0,0,1,1.321,1.517A19.256,19.256,0,0,1,67.6,21.969c.049.049.049.1.1.2.049.049.049.1.1.2a1.226,1.226,0,0,0,.2.343c.049.1.1.245.147.343s.1.245.147.343c.2.44.343.881.489,1.321.245.685.391,1.272.538,1.761a.47.47,0,0,0,.44.343.4.4,0,0,0,.391-.44C70.091,25.786,70.091,25.15,70.042,24.416Z" transform="translate(-9.908 0)" fill="url(#linear-gradient)"/>
</svg>
