<svg xmlns="http://www.w3.org/2000/svg" width="111.449" height="24.029" viewBox="0 0 111.449 24.029">
  <path id="Path_17982" data-name="Path 17982" d="M78.623,349.391H84.1L79.86,360.282h5.024l8.478-22.5H88.471l-3.587,9.261H79.535l3.587-9.326H78.1l-3.652,9.391a33.1,33.1,0,0,0-3.346.193c-4.626.51-11.785,3.186-11.86,8.747-.064,4.492,3.279,5.98,6.995,5.655s7.8-2.466,9.232-5.231a49.358,49.358,0,0,0,3.156-7.084Zm-4.9.193a37.427,37.427,0,0,1-2.063,5.321c-1.306,2.593-3.684,5.36-6.913,3.947a3.089,3.089,0,0,1-1.01-3.812,9,9,0,0,1,2.789-3.73,8.165,8.165,0,0,1,4.3-1.7,11.775,11.775,0,0,1,2.9-.032Zm77.718,6.662a7.544,7.544,0,0,1-5.408,2.639c-3.583.193-5.147-1.3-5.213-3.845a11.925,11.925,0,0,1-7.167,3.812c-3.942.651-4.789-2.281-4.789-2.281-5.8,4.593-7.4.587-7.4.587-5.962,4.171-7.1-.782-7.1-.782-6.027,5.246-7.624.456-7.624.456a1.72,1.72,0,0,1,.064-.977c.193-.489,3.421-9.318,3.421-9.318l-1.271-.033a35.622,35.622,0,0,1-1.989,4.268,33.008,33.008,0,0,1-4.887,6.451c-1.694,1.531-4.138,2.867-6.06-.033-5.083,3.779-7.461.326-7.167-2.346s2.541-9.318,7.461-10.914,7.3.261,7.3.261l-.8,2.2s-3.337-.993-4.871.278A14.131,14.131,0,0,0,95.4,349.5s-1.792,3.388-1.955,4.92-.228,2.085.782,1.629a5.245,5.245,0,0,0,2.737-3.258c.619-1.824,2.02-5.669,2.02-5.669l4.364-.064-3.322,9.157a12.522,12.522,0,0,0,3.682-4.4c1.5-2.932,2.672-5.441,2.672-5.441s-.717-.359-.684-.912a4.5,4.5,0,0,1,2.085-4.107c2.246-1.5,2.411,2.085,2.215,2.411s3.193.1,3.193.1a1.626,1.626,0,0,1,1.629,2.346c-.815,2.346-3.779,9.937-3.779,9.937l3.421-2.215s.684-5.115,3.551-7.819,4.789-3,8.112-2.672l1.989-5.539,4.245.008-6.782,18.325,3.13-2.152a10.8,10.8,0,0,1,2.439-6.668c2.639-3.421,5.082-3.649,5.082-3.649l3.779-.359s3.454,1.206,1.466,4.757a8.957,8.957,0,0,1-8.242,4.5s-.193,2.281-.228,3.128,1.205.977,1.205.977a9.268,9.268,0,0,0,4.4-2.346c2.054-1.955,2.541-2.476,2.541-2.476a22.2,22.2,0,0,1,1.629-3.486,10.379,10.379,0,0,1,6.32-4.919s2.378-.619,3.714.128,1.955,3.225.587,5.147-2.737,3.714-7.721,3.746c0,0-.325,1.76-.424,2.932s1.271,1.173,1.271,1.173,2.346-.1,5.539-4.333,6.711-8.862,6.711-8.862h3.877l.554,8.342s4.659.064,6.157-1.075,1.564.684,1.01,1.173a5.86,5.86,0,0,1-4.235,2.118c-2.509.064-3.584.128-3.584.128a5.72,5.72,0,0,1-2.606,3.388c-2.02,1.043-6.744,2.672-8.5-1.3Zm-32.807-.814c.228-3,2.476-6.809,3.682-8.407a2.559,2.559,0,0,1,2.769-1.075l-2.606,6.744-1.205,2.118-1.824,1.271h-.717l-.1-.652Zm20-9.969s-1.205-.456-2.411,1.5-2.15,3.746-2.15,3.746a5.547,5.547,0,0,0,2.541-1.075,4.846,4.846,0,0,0,2.02-4.171Zm12.38-.033s-1.205-.456-2.411,1.5-2.15,3.746-2.15,3.746A5.547,5.547,0,0,0,149,349.6a4.846,4.846,0,0,0,2.02-4.171Zm7.819,1.889-3.486,4.756,3.388-.163s.193-2.835.1-4.594ZM158.186,354s-2.639-.521-3.649,1.368,1.89,1.3,1.89,1.3A5.848,5.848,0,0,0,158.186,354Zm-2.769-15.377,2.444.033s.684.75-.033,2.346-1.925,1.792-2.444,1.6-.717-.456-.358-.977,1.043-.814.814-1.694a8.59,8.59,0,0,0-.424-1.3Z" transform="translate(-59.241 -337.718)" fill="#cf1322" fill-rule="evenodd"/>
</svg>
