<svg width="20" height="20" viewBox="0 0 20 20" fill="none" xmlns="http://www.w3.org/2000/svg">
<path d="M0.832855 15.4013L4.3239 18.3106C4.83737 18.7385 5.4846 18.9728 6.153 18.9728H15.3567C16.0141 18.9728 16.5471 18.4398 16.5471 17.7823C16.5471 16.4673 15.4811 15.4013 14.1662 15.4013H7.76756C7.97397 15.3285 8.16773 15.2093 8.33286 15.0442C8.92459 14.4525 8.92459 13.4931 8.33286 12.9014L6.66969 11.2382C6.13387 10.7024 5.40714 10.4014 4.64939 10.4014H0.832855V15.4013Z" fill="#ECF3FF"/>
<path d="M11.8785 1.47314C11.484 1.47314 11.1642 1.79294 11.1642 2.18743V4.1964H9.15526C8.76078 4.1964 8.44098 4.51619 8.44098 4.91069V7.23212C8.44098 7.6266 8.76078 7.9464 9.15526 7.9464H11.1642V9.95529C11.1642 10.3498 11.484 10.6696 11.8785 10.6696H14.1999C14.5944 10.6696 14.9141 10.3498 14.9141 9.95529V7.9464H16.9231C17.3176 7.9464 17.6374 7.6266 17.6374 7.23212V4.91069C17.6374 4.51619 17.3176 4.1964 16.9231 4.1964H14.9141V2.18743C14.9141 1.79294 14.5944 1.47314 14.1999 1.47314H11.8785Z" fill="white"/>
<path d="M11.8785 1.47314C11.484 1.47314 11.1642 1.79294 11.1642 2.18743V4.1964H9.15526C8.76078 4.1964 8.44098 4.51619 8.44098 4.91069V7.23212C8.44098 7.6266 8.76078 7.9464 9.15526 7.9464H11.1642V9.95529C11.1642 10.3498 11.484 10.6696 11.8785 10.6696H14.1999C14.5944 10.6696 14.9141 10.3498 14.9141 9.95529V7.9464H16.9231C17.3176 7.9464 17.6374 7.6266 17.6374 7.23212V4.91069C17.6374 4.51619 17.3176 4.1964 16.9231 4.1964H14.9141V2.18743C14.9141 1.79294 14.5944 1.47314 14.1999 1.47314H11.8785Z" stroke="#1163FB" stroke-width="1.5" stroke-linecap="round" stroke-linejoin="round"/>
<path d="M0.832855 15.4014L4.3239 18.3107C4.83737 18.7385 5.4846 18.9728 6.153 18.9728H15.3567C16.0141 18.9728 16.5471 18.4398 16.5471 17.7824C16.5471 16.4674 15.4811 15.4014 14.1662 15.4014H7.76756" stroke="#1163FB" stroke-width="1.5" stroke-linecap="round" stroke-linejoin="round"/>
<path d="M5.11857 13.9728L6.19 15.0442C6.78173 15.6359 7.74112 15.6359 8.33286 15.0442C8.92459 14.4525 8.92459 13.4931 8.33286 12.9014L6.66969 11.2382C6.13387 10.7024 5.40714 10.4014 4.64939 10.4014H0.832855" stroke="#1163FB" stroke-width="1.5" stroke-linecap="round" stroke-linejoin="round"/>
</svg>
