<svg xmlns="http://www.w3.org/2000/svg" width="23.53" height="21.567" viewBox="0 0 23.53 21.567">
  <g id="noun_Heart_25955" transform="translate(-1 -5.088)">
    <path id="Path_13890" data-name="Path 13890" d="M12.765,26.655l-.533-.339C11.774,26.024,1,19.1,1,12.675,1,8.588,2.883,5.792,6.038,5.2a6.683,6.683,0,0,1,7.3,3.959.992.992,0,1,1-1.848.724A4.65,4.65,0,0,0,6.406,7.145c-2.175.411-3.422,2.427-3.422,5.531,0,4.176,6.621,9.493,9.781,11.617,3.16-2.125,9.781-7.441,9.781-11.617,0-2.524-.835-4.356-2.349-5.158a4.5,4.5,0,0,0-4.559.4.992.992,0,0,1-1.116-1.641,6.5,6.5,0,0,1,6.6-.509c1.272.673,3.405,2.467,3.405,6.912,0,6.421-10.774,13.349-11.232,13.64Z" transform="translate(0 0)" fill="#fff"/>
  </g>
</svg>
