<svg width="39" height="36" viewBox="0 0 39 36" fill="none" xmlns="http://www.w3.org/2000/svg">
<path d="M37.9543 0.263803C37.6207 -0.00501683 37.1599 -0.074622 36.7566 0.0837895L0.754034 14.4848C0.310002 14.6624 0.0123802 15.0873 0.000379321 15.5673C-0.0116216 16.0473 0.261998 16.4866 0.69883 16.6882L12.0013 21.9062L37.2031 1.19747L16.8016 24.1215V36L25.3174 28.053L31.8987 31.0892C32.0595 31.1612 32.2323 31.1996 32.4027 31.1996C32.5947 31.1996 32.7892 31.1516 32.962 31.0604C33.2956 30.8852 33.5236 30.566 33.586 30.1964L38.3864 1.39428C38.456 0.969454 38.2928 0.535022 37.9543 0.263803Z" fill="white"/>
</svg>
