<svg width="32" height="32" viewBox="0 0 32 32" fill="none" xmlns="http://www.w3.org/2000/svg">
<g clip-path="url(#clip0_3475_1730)">
<path d="M2.8125 11.3116H0.9375C0.419312 11.3116 0 11.7309 0 12.2491C0 12.7673 0.419312 13.1866 0.9375 13.1866H2.8125C3.33069 13.1866 3.75 12.7673 3.75 12.2491C3.75 11.7309 3.33069 11.3116 2.8125 11.3116Z" fill="white"/>
<path d="M3.26342 6.62407L1.93773 5.29844C1.57154 4.93226 0.978231 4.93226 0.612043 5.29844C0.245855 5.66463 0.245855 6.25794 0.612043 6.62413L1.93773 7.94976C2.30398 8.31601 2.89717 8.31601 3.26342 7.94976C3.62961 7.58357 3.62961 6.99026 3.26342 6.62407Z" fill="white"/>
<path d="M3.26342 16.5485C2.89723 16.1823 2.30392 16.1822 1.93773 16.5485L0.612043 17.8742C0.245855 18.2403 0.245855 18.8337 0.612043 19.1998C0.978293 19.5661 1.57148 19.5661 1.93773 19.1998L3.26342 17.8742C3.62961 17.508 3.62961 16.9147 3.26342 16.5485Z" fill="white"/>
<path d="M31.0625 11.3116H29.1875C28.6693 11.3116 28.25 11.7309 28.25 12.2491C28.25 12.7673 28.6693 13.1866 29.1875 13.1866H31.0625C31.5807 13.1866 32 12.7673 32 12.2491C32 11.7309 31.5807 11.3116 31.0625 11.3116Z" fill="white"/>
<path d="M31.3884 5.29838C31.0222 4.9322 30.4289 4.9322 30.0627 5.29838L28.737 6.62407C28.3709 6.99026 28.3709 7.58357 28.737 7.94976C29.1033 8.31601 29.6965 8.31601 30.0627 7.94976L31.3884 6.62407C31.7546 6.25788 31.7546 5.66457 31.3884 5.29838Z" fill="white"/>
<path d="M31.3884 17.8741L30.0627 16.5484C29.6965 16.1823 29.1032 16.1823 28.737 16.5484C28.3709 16.9146 28.3709 17.5079 28.737 17.8741L30.0627 19.1998C30.429 19.566 31.0222 19.566 31.3884 19.1998C31.7546 18.8336 31.7546 18.2403 31.3884 17.8741Z" fill="white"/>
<path d="M23.0909 2.51495C20.4469 0.365325 16.978 -0.4623 13.5841 0.251763C9.35255 1.13526 5.90648 4.63283 5.0093 8.86258C4.24667 12.4615 5.1878 16.0742 7.59017 18.775C8.56142 19.868 9.15392 21.1871 9.34823 22.5616H12.2502V14.1241C12.2502 13.7611 14.9992 8.40451 15.1615 8.07983C15.4802 7.44445 16.5202 7.44445 16.8388 8.07983C17.0089 8.41995 19.7502 13.7793 19.7502 14.1241V22.5616H22.6554C22.8563 21.1936 23.4662 19.8535 24.4651 18.7137C26.2614 16.6656 27.2502 14.0362 27.2502 11.3116C27.2502 7.90858 25.734 4.66276 23.0909 2.51495Z" fill="white"/>
<path d="M16 15.9167C15.3661 15.9167 14.7347 15.8062 14.125 15.6046V22.5616H17.875V15.6046C17.2652 15.8062 16.6339 15.9167 16 15.9167Z" fill="white"/>
<path d="M9.4375 24.4366V25.3741C9.4375 26.925 10.6991 28.1866 12.25 28.1866H19.75C21.3009 28.1866 22.5625 26.925 22.5625 25.3741V24.4366H9.4375Z" fill="white"/>
<path d="M16 10.5956L14.4507 13.6943C15.4519 14.1045 16.5481 14.1045 17.5493 13.6943L16 10.5956Z" fill="white"/>
<path d="M11.4854 30.0616C11.8737 31.1505 12.9045 31.9991 14.1252 31.9991H17.8752C19.0958 31.9991 20.1267 31.1505 20.515 30.0616H11.4854Z" fill="white"/>
</g>
<defs>
<clipPath id="clip0_3475_1730">
<rect width="32" height="32" fill="white"/>
</clipPath>
</defs>
</svg>
