<svg width="100" height="100" viewBox="0 0 100 100" fill="none" xmlns="http://www.w3.org/2000/svg">
<rect width="100" height="100" rx="4" fill="#2360A5"/>
<path fill-rule="evenodd" clip-rule="evenodd" d="M5 34H95.238V65.8127H5V34ZM5.91788 49.983C5.91788 41.916 25.7755 35.3766 50.2722 35.3766C74.7683 35.3766 94.626 41.916 94.626 49.983C94.626 58.05 74.7683 64.5895 50.2722 64.5895C25.776 64.5895 5.91788 58.05 5.91788 49.983Z" fill="#2360A5"/>
<path fill-rule="evenodd" clip-rule="evenodd" d="M5.91785 49.9829C5.91785 41.9159 25.7755 35.3765 50.2721 35.3765C74.7683 35.3765 94.6259 41.9159 94.6259 49.9829C94.6259 58.0499 74.7683 64.5894 50.2721 64.5894C25.7759 64.5894 5.91785 58.0499 5.91785 49.9829Z" fill="#F6D33C"/>
<path fill-rule="evenodd" clip-rule="evenodd" d="M18.0268 43.9612H25.911C25.911 43.9612 25.7007 44.2921 25.7007 44.7054V54.8551C25.7007 55.4064 25.9371 55.8753 25.9371 55.8753H18.0008C18.0008 55.8753 18.2371 55.406 18.2371 54.9371V44.7879C18.2371 44.402 18.0268 43.9612 18.0268 43.9612ZM29.8363 43.9882H37.3331C37.3331 43.9882 37.1228 44.3413 37.1228 44.6678V48.3094L39.7795 44.9123C39.7795 44.9123 39.9377 44.6678 39.9377 44.4233V44.0427H47.5658L44.3303 48.5539C44.3303 48.5539 44.1726 48.744 44.1726 48.88C44.1726 49.016 44.3043 49.2061 44.3043 49.2061L48.4605 55.8097H39.2793C39.2793 55.8097 39.4376 55.5656 39.4376 55.3206C39.4376 55.0765 39.2793 54.777 39.2793 54.777L37.0958 51.2169V55.0765C37.0958 55.4026 37.3327 55.8367 37.3327 55.8367H29.8363C29.8363 55.8367 30.0466 55.5381 30.0466 55.2121V44.6673C30.0466 44.3417 29.8363 43.9882 29.8363 43.9882ZM50.6933 44.0707H64.1035V47.6727C64.1035 47.6727 63.8141 47.406 63.4471 47.406H57.9509V48.3928H62.7366V51.568C62.7366 51.568 62.4212 51.3013 62.0792 51.3013H57.8983V52.3952H63.5252C63.8407 52.3952 64.0254 51.8883 64.0254 51.8883V55.8367H50.6933C50.6933 55.8367 50.9306 55.4899 50.9306 55.2497V44.9514C50.931 44.5241 50.6933 44.0707 50.6933 44.0707ZM70.0367 43.9414H80.7589C80.7589 43.9414 80.5486 44.4377 80.5486 44.7136C80.5486 44.9895 80.7324 45.4858 80.7324 45.4858L85.016 55.856H76.9746C76.9746 55.856 77.1583 55.5526 77.0527 55.3047C76.8313 54.7539 76.6124 54.2021 76.3962 53.6493H73.085C73.085 53.6493 72.4276 55.1112 72.4276 55.3876C72.4276 55.6626 72.6389 55.8839 72.6389 55.8839H66.0155L70.1679 45.0445C70.1679 45.0445 70.3261 44.8236 70.3261 44.5482C70.3261 44.2728 70.0367 43.9414 70.0367 43.9414ZM74.5832 49.2369L73.7945 51.3606H75.529L74.5832 49.2369Z" fill="#2360A5"/>
</svg>
