<svg id="ikea" xmlns="http://www.w3.org/2000/svg" width="111.307" height="19.467" viewBox="0 0 111.307 19.467">
  <path id="Path_21551" data-name="Path 21551" d="M12.812,19.467c.345,0,.49-.136.3-.345a6.3,6.3,0,0,1-.39-2.461V2.815a6.3,6.3,0,0,1,.39-2.461C13.3.145,13.157,0,12.812,0H.291c-.345,0-.481.145-.3.354a6.263,6.263,0,0,1,.39,2.461V16.652a6.3,6.3,0,0,1-.39,2.461c-.182.209-.045.345.3.345H12.812Z" transform="translate(0.089)" fill="#0057a4"/>
  <path id="Path_21552" data-name="Path 21552" d="M33.61,6.946,38.168.763c.182-.182.091-.445.091-.554s0-.209.091-.209H50.707c.163,0,.091.118.027.209L45.65,7.318a.647.647,0,0,0,.045.881l6.991,11.05c.073.091.136.209-.027.209H37.569c-.091,0-.091-.091-.091-.209s.236-1.117.045-1.3l-3.9-5.974v4.667a6.3,6.3,0,0,0,.39,2.461c.182.209.045.345-.3.345H21.561c-.345,0-.49-.136-.3-.345a6.3,6.3,0,0,0,.39-2.461V2.815a6.3,6.3,0,0,0-.39-2.461C21.08.145,21.216,0,21.561,0H33.71c.345,0,.49.136.3.345a6.3,6.3,0,0,0-.39,2.461l-.009,4.14Z" transform="translate(-1.868)" fill="#0057a4"/>
  <path id="Path_21553" data-name="Path 21553" d="M72.243,12.239a.322.322,0,0,1,.345-.345h4.8a11.73,11.73,0,0,1,2.433.091c.154.154.345.054.345-.236V7.082c0-.291-.191-.39-.345-.236a11.761,11.761,0,0,1-2.433.091h-4.8a.325.325,0,0,1-.345-.345V5.648a.322.322,0,0,1,.345-.345H79.5a6.163,6.163,0,0,1,2.433.39c.209.182.345.045.345-.3V0H60.521c-.345,0-.481.173-.3.381a6.162,6.162,0,0,1,.39,2.433V16.507a6.162,6.162,0,0,1-.39,2.433c-.182.209-.045.345.3.345H82.276V13.556c0-.345-.136-.481-.345-.3a6.162,6.162,0,0,1-2.433.39h-6.91a.325.325,0,0,1-.345-.345V12.239Z" transform="translate(-5.454)" fill="#0057a4"/>
  <path id="Path_21554" data-name="Path 21554" d="M119.32,19.3s-7.227-17.179-7.327-17.46a1.773,1.773,0,0,1-.027-1.217c.182-.445.027-.545-.281-.545H94.76c-.309,0-.463.1-.281.545a1.719,1.719,0,0,1-.027,1.217c-.1.281-6.5,17.46-6.5,17.46h10.4c.245,0,.3-.118.218-.281a1.246,1.246,0,0,1,.036-.844l.554-1.852a.768.768,0,0,1,.881-.6h4.576a.763.763,0,0,1,.881.6l.554,1.852a1.246,1.246,0,0,1,.036.844c-.082.173-.027.281.218.281h13.02ZM100.88,11.929c-.163-.009-.182-.182-.136-.3l1.126-2.669c.045-.082.073-.154.172-.154s.127.082.173.154l1.126,2.669c.045.118.027.281-.136.3H100.88Z" transform="translate(-8.013 -0.007)" fill="#0057a4"/>
</svg>
