<svg width="25" height="24" viewBox="0 0 25 24" fill="none" xmlns="http://www.w3.org/2000/svg">
<path d="M12.834 22C12.4007 22 12.009 21.8958 11.659 21.6875C11.309 21.4792 11.034 21.2 10.834 20.85C10.284 20.85 9.81315 20.6542 9.42148 20.2625C9.02982 19.8708 8.83398 19.4 8.83398 18.85V15.3C7.85065 14.65 7.06315 13.7917 6.47148 12.725C5.87982 11.6583 5.58398 10.5 5.58398 9.25C5.58398 7.23333 6.28815 5.52083 7.69648 4.1125C9.10482 2.70417 10.8173 2 12.834 2C14.8507 2 16.5632 2.70417 17.9715 4.1125C19.3798 5.52083 20.084 7.23333 20.084 9.25C20.084 10.5333 19.7882 11.7 19.1965 12.75C18.6048 13.8 17.8173 14.65 16.834 15.3V18.85C16.834 19.4 16.6382 19.8708 16.2465 20.2625C15.8548 20.6542 15.384 20.85 14.834 20.85C14.634 21.2 14.359 21.4792 14.009 21.6875C13.659 21.8958 13.2673 22 12.834 22ZM10.834 18.85H14.834V17.95H10.834V18.85ZM10.834 16.95H14.834V16H10.834V16.95ZM10.634 14H12.084V11.3L9.88398 9.1L10.934 8.05L12.834 9.95L14.734 8.05L15.784 9.1L13.584 11.3V14H15.034C15.934 13.5667 16.6673 12.9292 17.234 12.0875C17.8007 11.2458 18.084 10.3 18.084 9.25C18.084 7.78333 17.5757 6.54167 16.559 5.525C15.5423 4.50833 14.3007 4 12.834 4C11.3673 4 10.1257 4.50833 9.10898 5.525C8.09232 6.54167 7.58398 7.78333 7.58398 9.25C7.58398 10.3 7.86732 11.2458 8.43398 12.0875C9.00065 12.9292 9.73398 13.5667 10.634 14Z" fill="white"/>
</svg>
