<svg width="21" height="20" viewBox="0 0 21 20" fill="none" xmlns="http://www.w3.org/2000/svg">
<g clip-path="url(#clip0_12173_605)">
<path d="M1.5 13.8472V8.78968C1.5 8.4681 1.62775 8.15969 1.85514 7.93229C2.08254 7.7049 2.39095 7.57715 2.71253 7.57715C3.03412 7.57715 3.34253 7.7049 3.56993 7.93229C3.79732 8.15969 3.92507 8.4681 3.92507 8.78968V12.437C4.00498 12.2571 4.12747 12.0995 4.28195 11.9775C4.43644 11.8556 4.61828 11.7731 4.81177 11.7372C5.00526 11.7013 5.20459 11.713 5.39255 11.7713C5.58051 11.8296 5.75144 11.9328 5.89059 12.072L7.45961 13.6386C7.68474 13.864 7.86326 14.1315 7.98497 14.4259C8.10668 14.7203 8.16919 15.0358 8.16894 15.3543V18.49H4.53134V17.8837L2.21055 15.5617C1.75573 15.107 1.50014 14.4903 1.5 13.8472Z" fill="#ECF3FF"/>
<path d="M19.6371 13.8472V8.78968C19.6371 8.4681 19.5093 8.15969 19.2819 7.93229C19.0545 7.7049 18.7461 7.57715 18.4245 7.57715C18.103 7.57715 17.7945 7.7049 17.5671 7.93229C17.3398 8.15969 17.212 8.4681 17.212 8.78968V12.437C17.1321 12.2571 17.0096 12.0995 16.8551 11.9775C16.7006 11.8556 16.5188 11.7731 16.3253 11.7372C16.1318 11.7013 15.9325 11.713 15.7445 11.7713C15.5566 11.8296 15.3856 11.9328 15.2465 12.072L13.6763 13.6374C13.4511 13.8628 13.2726 14.1303 13.1509 14.4247C13.0292 14.7191 12.9667 15.0346 12.9669 15.3531V18.49H16.6045V17.8837L18.9253 15.5617C19.3797 15.1068 19.6348 14.4901 19.6346 13.8472H19.6371Z" fill="#ECF3FF"/>
<path d="M13.0626 5.11816C12.5664 5.11816 12.0906 5.31526 11.7398 5.6661C11.3889 6.01694 11.1918 6.49277 11.1918 6.98893V7.61252H14.9334V6.98893C14.9334 6.49277 14.7363 6.01694 14.3854 5.6661C14.0346 5.31526 13.5587 5.11816 13.0626 5.11816Z" fill="white"/>
<path d="M11.8153 3.24718C11.8153 3.57795 11.9467 3.89518 12.1806 4.12907C12.4145 4.36296 12.7317 4.49436 13.0625 4.49436C13.3933 4.49436 13.7105 4.36296 13.9444 4.12907C14.1783 3.89518 14.3097 3.57795 14.3097 3.24718C14.3097 2.91641 14.1783 2.59918 13.9444 2.36529C13.7105 2.1314 13.3933 2 13.0625 2C12.7317 2 12.4145 2.1314 12.1806 2.36529C11.9467 2.59918 11.8153 2.91641 11.8153 3.24718Z" fill="white"/>
<path d="M14.9335 7.61257V6.98898C14.9336 6.57413 14.7958 6.17101 14.5418 5.84301C14.2878 5.51502 13.932 5.28075 13.5303 5.17706C13.1286 5.07337 12.7039 5.10613 12.3229 5.27019C11.9418 5.43426 11.6261 5.72032 11.4254 6.08339" stroke="#1163FB" stroke-width="1.5" stroke-linecap="round" stroke-linejoin="round"/>
<path d="M6.82664 3.24718C6.82664 3.57795 6.95804 3.89518 7.19194 4.12907C7.42583 4.36296 7.74305 4.49436 8.07382 4.49436C8.4046 4.49436 8.72182 4.36296 8.95571 4.12907C9.1896 3.89518 9.321 3.57795 9.321 3.24718C9.321 2.91641 9.1896 2.59918 8.95571 2.36529C8.72182 2.1314 8.4046 2 8.07382 2C7.74305 2 7.42583 2.1314 7.19194 2.36529C6.95804 2.59918 6.82664 2.91641 6.82664 3.24718Z" fill="white"/>
<path d="M8.07389 5.11816C7.57773 5.11816 7.1019 5.31526 6.75106 5.6661C6.40022 6.01694 6.20312 6.49277 6.20312 6.98893V7.61252H9.94466V6.98893C9.94466 6.49277 9.74756 6.01694 9.39673 5.6661C9.04589 5.31526 8.57005 5.11816 8.07389 5.11816Z" fill="white"/>
<path d="M9.32181 6.98741C9.32181 7.31819 9.45321 7.63541 9.6871 7.8693C9.92099 8.10319 10.2382 8.23459 10.569 8.23459C10.8998 8.23459 11.217 8.10319 11.4509 7.8693C11.6848 7.63541 11.8162 7.31819 11.8162 6.98741C11.8162 6.65664 11.6848 6.33942 11.4509 6.10552C11.217 5.87163 10.8998 5.74023 10.569 5.74023C10.2382 5.74023 9.92099 5.87163 9.6871 6.10552C9.45321 6.33942 9.32181 6.65664 9.32181 6.98741Z" fill="white"/>
<path d="M11.8153 3.24718C11.8153 3.57795 11.9467 3.89518 12.1806 4.12907C12.4145 4.36296 12.7317 4.49436 13.0625 4.49436C13.3933 4.49436 13.7105 4.36296 13.9444 4.12907C14.1783 3.89518 14.3097 3.57795 14.3097 3.24718C14.3097 2.91641 14.1783 2.59918 13.9444 2.36529C13.7105 2.1314 13.3933 2 13.0625 2C12.7317 2 12.4145 2.1314 12.1806 2.36529C11.9467 2.59918 11.8153 2.91641 11.8153 3.24718Z" stroke="#1163FB" stroke-width="1.5" stroke-linecap="round" stroke-linejoin="round"/>
<path d="M6.82664 3.24718C6.82664 3.57795 6.95804 3.89518 7.19194 4.12907C7.42583 4.36296 7.74305 4.49436 8.07382 4.49436C8.4046 4.49436 8.72182 4.36296 8.95571 4.12907C9.1896 3.89518 9.321 3.57795 9.321 3.24718C9.321 2.91641 9.1896 2.59918 8.95571 2.36529C8.72182 2.1314 8.4046 2 8.07382 2C7.74305 2 7.42583 2.1314 7.19194 2.36529C6.95804 2.59918 6.82664 2.91641 6.82664 3.24718Z" stroke="#1163FB" stroke-width="1.5" stroke-linecap="round" stroke-linejoin="round"/>
<path d="M9.32181 6.98741C9.32181 7.31819 9.45321 7.63541 9.6871 7.8693C9.92099 8.10319 10.2382 8.23459 10.569 8.23459C10.8998 8.23459 11.217 8.10319 11.4509 7.8693C11.6848 7.63541 11.8162 7.31819 11.8162 6.98741C11.8162 6.65664 11.6848 6.33942 11.4509 6.10552C11.217 5.87163 10.8998 5.74023 10.569 5.74023C10.2382 5.74023 9.92099 5.87163 9.6871 6.10552C9.45321 6.33942 9.32181 6.65664 9.32181 6.98741Z" stroke="#1163FB" stroke-width="1.5" stroke-linecap="round" stroke-linejoin="round"/>
<path d="M10.5691 8.8584C10.0729 8.8584 9.59706 9.0555 9.24622 9.40633C8.89539 9.75717 8.69829 10.233 8.69829 10.7292H12.4398C12.4398 10.233 12.2427 9.75717 11.8919 9.40633C11.5411 9.0555 11.0652 8.8584 10.5691 8.8584Z" fill="white"/>
<path d="M12.4398 10.7292C12.4398 10.233 12.2427 9.75717 11.8919 9.40633C11.5411 9.0555 11.0652 8.8584 10.5691 8.8584C10.0729 8.8584 9.59706 9.0555 9.24622 9.40633C8.89539 9.75717 8.69829 10.233 8.69829 10.7292" stroke="#1163FB" stroke-width="1.5" stroke-linecap="round" stroke-linejoin="round"/>
<path d="M6.20313 7.61257V6.98898C6.20301 6.57413 6.34078 6.17101 6.59478 5.84301C6.84879 5.51502 7.20461 5.28075 7.60629 5.17706C8.00797 5.07337 8.43272 5.10613 8.81375 5.27019C9.19478 5.43426 9.51046 5.72032 9.71116 6.08339" stroke="#1163FB" stroke-width="1.5" stroke-linecap="round" stroke-linejoin="round"/>
<path d="M4.53134 17.8837L2.21055 15.5617C1.75573 15.107 1.50014 14.4903 1.5 13.8472V8.78968C1.5 8.4681 1.62775 8.15969 1.85514 7.93229C2.08254 7.7049 2.39095 7.57715 2.71253 7.57715C3.03412 7.57715 3.34253 7.7049 3.56993 7.93229C3.79732 8.15969 3.92507 8.4681 3.92507 8.78968V12.4273" stroke="#1163FB" stroke-width="1.5" stroke-linecap="round" stroke-linejoin="round"/>
<path d="M16.6057 17.8837L18.9265 15.5617C19.3809 15.1068 19.636 14.4901 19.6359 13.8472V8.78968C19.6359 8.4681 19.5081 8.15969 19.2807 7.93229C19.0533 7.7049 18.7449 7.57715 18.4233 7.57715C18.1017 7.57715 17.7933 7.7049 17.5659 7.93229C17.3385 8.15969 17.2108 8.4681 17.2108 8.78968V12.4273" stroke="#1163FB" stroke-width="1.5" stroke-linecap="round" stroke-linejoin="round"/>
<path d="M5.03457 14.6438L4.17731 13.7866C4.06457 13.674 3.97513 13.5402 3.91411 13.393C3.85309 13.2458 3.82169 13.088 3.82169 12.9287C3.82169 12.7694 3.85309 12.6116 3.91411 12.4644C3.97513 12.3172 4.06457 12.1834 4.17731 12.0708C4.40469 11.8435 4.71305 11.7158 5.03457 11.7158C5.35609 11.7158 5.66445 11.8435 5.89183 12.0708L7.45964 13.6399C7.68477 13.8652 7.86329 14.1328 7.985 14.4272C8.10671 14.7215 8.16922 15.037 8.16897 15.3556V17.8837" stroke="#1163FB" stroke-width="1.5" stroke-linecap="round" stroke-linejoin="round"/>
<path d="M16.1027 14.6438L16.9599 13.7866C17.0727 13.674 17.1621 13.5402 17.2231 13.393C17.2841 13.2458 17.3155 13.088 17.3155 12.9287C17.3155 12.7694 17.2841 12.6116 17.2231 12.4644C17.1621 12.3172 17.0727 12.1834 16.9599 12.0708C16.7325 11.8435 16.4242 11.7158 16.1027 11.7158C15.7811 11.7158 15.4728 11.8435 15.2454 12.0708L13.6776 13.6399C13.4525 13.8652 13.2739 14.1328 13.1522 14.4272C13.0305 14.7215 12.968 15.037 12.9683 15.3556V17.8837" stroke="#1163FB" stroke-width="1.5" stroke-linecap="round" stroke-linejoin="round"/>
</g>
<defs>
<clipPath id="clip0_12173_605">
<rect width="20" height="20" fill="white" transform="translate(0.5)"/>
</clipPath>
</defs>
</svg>
