<svg width="21" height="24" viewBox="0 0 21 24" fill="none" xmlns="http://www.w3.org/2000/svg">
<path fill-rule="evenodd" clip-rule="evenodd" d="M10.0781 0C12.7563 0 15.2776 0.941765 17.1776 2.65176C19.0984 4.38052 20.1563 6.68503 20.1563 9.14072C20.1563 9.78121 19.3696 10.0881 18.9359 9.61683C18.2357 8.85633 17.3097 8.43749 16.3281 8.43749C15.3465 8.43749 14.4205 8.85633 13.7204 9.61688C13.4419 9.91945 12.9644 9.91945 12.6858 9.61688C12.1559 9.04111 11.4963 8.66119 10.7813 8.51057V12.7391C11.5335 13.6304 12.6562 14.1563 13.8281 14.1563H14.2969C14.6852 14.1563 15 14.4711 15 14.8593V16.8052C15 19.8873 13.1802 22.6876 10.3637 23.9393C10.2728 23.9797 10.1754 24 10.0781 24C9.98081 24 9.8834 23.9797 9.79256 23.9393C6.97608 22.6876 5.15625 19.8873 5.15625 16.8052V14.8593C5.15625 14.4711 5.47107 14.1563 5.85937 14.1563H6.32812C7.50009 14.1563 8.62275 13.6304 9.375 12.739V8.51048C8.65992 8.66109 8.00039 9.04101 7.47043 9.61679C7.19189 9.91936 6.71428 9.91936 6.4358 9.61679C5.73576 8.85633 4.80971 8.43749 3.82815 8.43749C2.84657 8.43749 1.92042 8.85639 1.22039 9.61688C0.786609 10.0882 0 9.78112 0 9.14063C0 6.68493 1.05783 4.38052 2.97863 2.65176C4.87865 0.941765 7.39997 0 10.0781 0ZM13.5937 16.8052V15.5573C12.2761 15.4991 11.0199 14.9521 10.0781 14.0432C9.13636 14.9523 7.8802 15.4991 6.56251 15.5573V16.8052C6.56251 19.2264 7.93237 21.4355 10.0781 22.5189C12.2239 21.4355 13.5937 19.2264 13.5937 16.8052ZM13.2031 8.17219C14.0943 7.43203 15.1815 7.03125 16.328 7.03125C17.1199 7.03125 17.8835 7.22236 18.5736 7.58443C17.764 4.06289 14.2624 1.40625 10.0781 1.40625C5.89383 1.40625 2.39227 4.06293 1.58264 7.58447C2.27273 7.22236 3.03637 7.03125 3.82819 7.03125C4.97475 7.03125 6.06201 7.43203 6.95311 8.17219C7.84425 7.43203 8.93152 7.03125 10.0781 7.03125C11.2247 7.03125 12.312 7.43203 13.2031 8.17219ZM8.17469 17.6435C8.44929 17.3688 8.89446 17.3688 9.16905 17.6435L9.6094 18.0837L10.9872 16.706C11.2618 16.4313 11.707 16.4313 11.9816 16.706C12.2561 16.9805 12.2561 17.4257 11.9816 17.7003L10.1066 19.5753C9.83196 19.8499 9.38678 19.8499 9.1122 19.5753L8.17469 18.6379C7.9001 18.3632 7.9001 17.918 8.17469 17.6435Z" fill="white"/>
</svg>
