<svg width="32" height="30" viewBox="0 0 32 30" fill="none" xmlns="http://www.w3.org/2000/svg">
<path d="M4.64384 19.0369V10.9103C4.5296 7.83286 0.113178 7.83518 0 10.9103V19.037C0.114303 22.1144 4.53067 22.1121 4.64384 19.0369Z" fill="white"/>
<path d="M29.6926 8.58832H24.4683C21.2007 8.76421 21.4931 13.4216 24.7585 13.2322V19.0369C24.8726 22.1137 29.2888 22.1127 29.4024 19.0369C29.4024 16.6349 29.4024 13.2322 29.4024 13.2322H29.6926C32.7702 13.1169 32.7669 8.70187 29.6926 8.58832Z" fill="white"/>
<path d="M13.998 21.9392C17.8425 21.9392 20.9637 18.818 20.9637 14.9735C20.6186 5.74422 7.37595 5.74672 7.03223 14.9736C7.03223 18.818 10.1534 21.9392 13.998 21.9392ZM13.998 12.6516C15.2795 12.6516 16.3199 13.6919 16.3199 14.9735C16.205 18.0499 11.7904 18.0491 11.676 14.9735C11.676 13.6919 12.7164 12.6516 13.998 12.6516Z" fill="white"/>
<path d="M4.71834 5.69346C9.60836 0.598278 18.3888 0.598528 23.2787 5.69346C23.645 6.05975 24.2388 6.05969 24.6051 5.69346C24.9714 5.32716 24.9714 4.73332 24.6051 4.36703C19.0168 -1.4558 8.98007 -1.45555 3.39191 4.36703C3.02561 4.73332 3.02561 5.32716 3.39191 5.69346C3.75814 6.05969 4.35198 6.05969 4.71834 5.69346Z" fill="white"/>
<path d="M20.9065 6.43529C17.0226 3.19672 10.9745 3.19685 7.09073 6.43529C6.68823 6.76138 6.62627 7.35196 6.95229 7.75452C7.27838 8.15702 7.86897 8.21905 8.27153 7.89296C11.4913 5.20822 16.506 5.20822 19.7257 7.89303C20.1282 8.21899 20.7189 8.15702 21.045 7.75452C21.371 7.35196 21.309 6.76138 20.9065 6.43529Z" fill="white"/>
<path d="M23.2787 24.2538C18.3887 29.3489 9.60821 29.3487 4.71831 24.2538C4.35202 23.8875 3.75812 23.8875 3.39189 24.2538C3.02559 24.6201 3.02565 25.2139 3.39189 25.5802C8.98023 31.403 19.017 31.4028 24.6051 25.5802C24.9714 25.2139 24.9714 24.6201 24.6051 24.2538C24.2388 23.8875 23.645 23.8875 23.2787 24.2538Z" fill="white"/>
<path d="M6.95229 22.1927C6.62627 22.5953 6.68823 23.1859 7.09073 23.512C10.9746 26.7505 17.0227 26.7504 20.9065 23.512C21.309 23.1859 21.3709 22.5953 21.0449 22.1927C20.7189 21.7902 20.1282 21.7283 19.7257 22.0543C16.5061 24.739 11.491 24.739 8.27147 22.0543C7.86897 21.7282 7.27845 21.7903 6.95229 22.1927Z" fill="white"/>
</svg>
