<svg width="32" height="32" viewBox="0 0 32 32" fill="none" xmlns="http://www.w3.org/2000/svg">
<path fill-rule="evenodd" clip-rule="evenodd" d="M6.25231 6.1405V3.04443C6.25231 2.33875 6.82787 1.76318 7.53356 1.76318H30.0937C30.7994 1.76318 31.375 2.33875 31.375 3.04443V18.8796C31.375 19.5852 30.7994 20.1608 30.0937 20.1608H26.9977V8.67175C26.9977 7.27618 25.862 6.1405 24.4664 6.1405H6.25231ZM1.90625 7.3905C1.20056 7.3905 0.625 7.96606 0.625 8.67175V24.9681C0.625 25.6738 1.20056 26.2494 1.90625 26.2494H6.25231V29.9233C6.25231 30.0488 6.32156 30.1561 6.43594 30.2079C6.55031 30.2597 6.67669 30.2409 6.771 30.1581L11.2213 26.2494H24.4665C25.1722 26.2494 25.7477 25.6738 25.7477 24.9681V8.67175C25.7477 7.96606 25.1722 7.3905 24.4665 7.3905H1.90625ZM19.0258 17.8555C19.2526 17.8555 19.4364 17.6717 19.4364 17.4449V16.195C19.4364 15.9682 19.2526 15.7844 19.0258 15.7844C17.795 15.7844 17.1774 14.2934 18.0477 13.4231C18.208 13.2628 18.208 13.0028 18.0477 12.8425L17.1638 11.9586C17.0035 11.7983 16.7435 11.7983 16.5832 11.9586C15.7129 12.8289 14.2219 12.2114 14.2219 10.9806C14.2219 10.7537 14.038 10.57 13.8113 10.57H12.5614C12.3347 10.57 12.1508 10.7537 12.1508 10.9806C12.1508 12.2114 10.6597 12.8289 9.78944 11.9586C9.62912 11.7983 9.36912 11.7983 9.20881 11.9586L8.325 12.8425C8.16469 13.0028 8.16469 13.2628 8.325 13.4231C9.19525 14.2934 8.57769 15.7844 7.34694 15.7844C7.12012 15.7844 6.93637 15.9683 6.93637 16.195V17.4449C6.93637 17.6716 7.12012 17.8555 7.34694 17.8555C8.57769 17.8555 9.19525 19.3466 8.325 20.2168C8.16469 20.3771 8.16469 20.6371 8.325 20.7974L9.20887 21.6813C9.36919 21.8416 9.62919 21.8416 9.7895 21.6813C10.6609 20.8099 12.1509 21.4271 12.1509 22.6594C12.1509 22.8862 12.3347 23.0699 12.5614 23.0699H13.8114C14.0381 23.0699 14.2219 22.8862 14.2219 22.6594C14.2219 21.4286 15.713 20.8111 16.5832 21.6813C16.7436 21.8416 17.0036 21.8416 17.1639 21.6813L18.0477 20.7974C18.2081 20.6371 18.2081 20.3771 18.0477 20.2168C17.1774 19.3466 17.795 17.8555 19.0258 17.8555ZM13.1864 14.2018C11.7404 14.2018 10.5682 15.374 10.5682 16.8199C10.5682 18.2659 11.7404 19.4381 13.1864 19.4381C14.6323 19.4381 15.8045 18.2659 15.8045 16.8199C15.8045 15.374 14.6323 14.2018 13.1864 14.2018Z" fill="white"/>
</svg>
