<svg width="21" height="20" viewBox="0 0 21 20" fill="none" xmlns="http://www.w3.org/2000/svg">
<g clip-path="url(#clip0_12140_415)">
<path d="M5.85721 7.85721V2.14293C5.85721 1.35395 6.49681 0.714355 7.28578 0.714355H13.7144C14.5033 0.714355 15.1429 1.35395 15.1429 2.14293V7.85721C15.1429 8.64618 14.5033 9.28578 13.7144 9.28578H7.28578C6.49681 9.28578 5.85721 8.64618 5.85721 7.85721Z" fill="#ECF3FF"/>
<path d="M10.5001 9.28564V14.9999" stroke="#1163FB" stroke-width="1.5" stroke-linecap="round" stroke-linejoin="round"/>
<path d="M3.35721 15V13.5714C3.35721 12.7824 3.99681 12.1428 4.78578 12.1428H16.2144C17.0034 12.1428 17.6429 12.7824 17.6429 13.5714V15" stroke="#1163FB" stroke-width="1.5" stroke-linecap="round" stroke-linejoin="round"/>
<path d="M1.21436 17.8571V16.4286C1.21436 15.6396 1.85395 15 2.64293 15H4.0715C4.86047 15 5.50007 15.6396 5.50007 16.4286V17.8571C5.50007 18.6461 4.86047 19.2857 4.0715 19.2857H2.64293C1.85395 19.2857 1.21436 18.6461 1.21436 17.8571Z" fill="#ECF3FF"/>
<path d="M8.35721 17.8571V16.4286C8.35721 15.6396 8.99681 15 9.78578 15H11.2144C12.0033 15 12.6429 15.6396 12.6429 16.4286V17.8571C12.6429 18.6461 12.0033 19.2857 11.2144 19.2857H9.78578C8.99681 19.2857 8.35721 18.6461 8.35721 17.8571Z" fill="#ECF3FF"/>
<path d="M15.5001 17.8571V16.4286C15.5001 15.6396 16.1396 15 16.9286 15H18.3572C19.1462 15 19.7858 15.6396 19.7858 16.4286V17.8571C19.7858 18.6461 19.1462 19.2857 18.3572 19.2857H16.9286C16.1396 19.2857 15.5001 18.6461 15.5001 17.8571Z" fill="#ECF3FF"/>
<path d="M5.85721 7.85721V2.14293C5.85721 1.35395 6.49681 0.714355 7.28578 0.714355H13.7144C14.5033 0.714355 15.1429 1.35395 15.1429 2.14293V7.85721C15.1429 8.64618 14.5033 9.28578 13.7144 9.28578H7.28578C6.49681 9.28578 5.85721 8.64618 5.85721 7.85721Z" stroke="#1163FB" stroke-width="1.5" stroke-linecap="round" stroke-linejoin="round"/>
<path d="M1.21436 17.8571V16.4286C1.21436 15.6396 1.85395 15 2.64293 15H4.0715C4.86047 15 5.50007 15.6396 5.50007 16.4286V17.8571C5.50007 18.6461 4.86047 19.2857 4.0715 19.2857H2.64293C1.85395 19.2857 1.21436 18.6461 1.21436 17.8571Z" stroke="#1163FB" stroke-width="1.5" stroke-linecap="round" stroke-linejoin="round"/>
<path d="M8.35721 17.8571V16.4286C8.35721 15.6396 8.99681 15 9.78578 15H11.2144C12.0033 15 12.6429 15.6396 12.6429 16.4286V17.8571C12.6429 18.6461 12.0033 19.2857 11.2144 19.2857H9.78578C8.99681 19.2857 8.35721 18.6461 8.35721 17.8571Z" stroke="#1163FB" stroke-width="1.5" stroke-linecap="round" stroke-linejoin="round"/>
<path d="M15.5001 17.8571V16.4286C15.5001 15.6396 16.1396 15 16.9286 15H18.3572C19.1462 15 19.7858 15.6396 19.7858 16.4286V17.8571C19.7858 18.6461 19.1462 19.2857 18.3572 19.2857H16.9286C16.1396 19.2857 15.5001 18.6461 15.5001 17.8571Z" stroke="#1163FB" stroke-width="1.5" stroke-linecap="round" stroke-linejoin="round"/>
</g>
<defs>
<clipPath id="clip0_12140_415">
<rect width="20" height="20" fill="white" transform="translate(0.5)"/>
</clipPath>
</defs>
</svg>
