<svg id="Group_104415" data-name="Group 104415" xmlns="http://www.w3.org/2000/svg" xmlns:xlink="http://www.w3.org/1999/xlink" width="113.403" height="25.413" viewBox="0 0 113.403 25.413">
  <defs>
    <clipPath id="clip-path">
      <rect id="Rectangle_44350" data-name="Rectangle 44350" width="113.403" height="25.413" fill="#fff"/>
    </clipPath>
  </defs>
  <g id="Group_104414" data-name="Group 104414" clip-path="url(#clip-path)">
    <path id="Path_74610" data-name="Path 74610" d="M428.141,19.511c0,1.506-.017,3.012.011,4.517a1.114,1.114,0,0,1-.462.965,12.08,12.08,0,0,1-6.864,2.728c-4.151.356-7.875-.643-10.848-3.714-5.857-6.049-4.065-18.427,5.757-20.794,4.211-1.015,8.105-.326,11.387,2.741.35.327.411.545.058.914a26.739,26.739,0,0,0-1.84,2.1c-.321.414-.483.319-.789.009a7.957,7.957,0,0,0-11.84.544,9.4,9.4,0,0,0-1.261,9.245,7.456,7.456,0,0,0,5.453,4.919,8.685,8.685,0,0,0,6.577-.786.978.978,0,0,0,.608-1.005c-.047-1.169-.032-2.342-.006-3.513.009-.416-.132-.521-.529-.516-1.554.02-3.109-.008-4.663.019-.444.008-.581-.122-.565-.562.031-.859.022-1.721,0-2.581-.007-.338.1-.453.446-.451q4.448.018,8.9,0c.38,0,.486.115.481.489-.019,1.577-.008,3.155-.008,4.733" transform="translate(-348.275 -2.378)" fill="#fff"/>
    <path id="Path_74611" data-name="Path 74611" d="M280.327,10.034a7.1,7.1,0,0,1,7.766-1.264c2.851,1.152,4.154,3.541,4.551,6.456a9.665,9.665,0,0,1-1.564,7.1,7.255,7.255,0,0,1-10.906.875,3.005,3.005,0,0,0-.167,1.246c-.029.377-.149.541-.564.525-.836-.033-1.674-.026-2.51,0-.381.011-.538-.07-.537-.5q.019-11.975,0-23.949c0-.407.112-.527.516-.514.932.029,1.866.039,2.8,0,.5-.023.634.114.63.622-.026,3.1-.013,6.208-.013,9.41m0,6.62c0,.739,0,1.479,0,2.218a1.065,1.065,0,0,0,.108.619,4.423,4.423,0,0,0,4.024,2.277,4.032,4.032,0,0,0,3.749-2.412,6.174,6.174,0,0,0,.538-3.276c-.248-3.033-2.5-4.834-5.352-4.3a3.614,3.614,0,0,0-3.067,3.661v1.216" transform="translate(-236.727 0)" fill="#fff"/>
    <path id="Path_74612" data-name="Path 74612" d="M148.22,65.626a8.6,8.6,0,0,1-17.2,0c.006-5,3.652-8.566,8.759-8.558a8.275,8.275,0,0,1,8.445,8.562m-3.955-.122c-.02-.194-.041-.576-.1-.952a4.57,4.57,0,0,0-6.9-3.334,5.349,5.349,0,0,0-2.05,5.825,4.49,4.49,0,0,0,5.391,3.506c2.1-.373,3.611-2.378,3.659-5.044" transform="translate(-112.212 -48.874)" fill="#fff"/>
    <path id="Path_74613" data-name="Path 74613" d="M587.828,66.585c-1.7,0-3.4.031-5.093-.016-.659-.018-.748.214-.644.781.425,2.328,2.184,3.363,4.661,3.259a4.706,4.706,0,0,0,3.545-1.616c.217-.256.362-.212.581-.028.677.568,1.351,1.143,2.058,1.673.369.276.266.443.013.717a8.041,8.041,0,0,1-5.437,2.561,8.825,8.825,0,0,1-5.957-1.327c-2.874-1.984-3.81-4.855-3.5-8.194a7.9,7.9,0,0,1,5.77-7.234c5.411-1.405,9.763,1.939,9.884,7.6.039,1.828.039,1.828-1.789,1.828h-4.089m-1.958-2.826c1.17,0,2.34-.007,3.51,0,.319,0,.458-.034.409-.431a3.558,3.558,0,0,0-3.592-3.3,3.858,3.858,0,0,0-4.123,3.19c-.082.5.08.552.5.543,1.1-.024,2.2-.008,3.295-.008" transform="translate(-495.042 -48.684)" fill="#fff"/>
    <path id="Path_74614" data-name="Path 74614" d="M15.344,15.195c0,2.628-.017,5.255,0,7.883.04,5.062-4.046,8.028-8.8,7.317A7.434,7.434,0,0,1,0,22.826c-.011-.413.109-.531.517-.52,1,.027,2.007.024,3.011,0,.356-.008.5.08.527.459a6.837,6.837,0,0,0,.224,1.41,3.324,3.324,0,0,0,3.454,2.544,3.372,3.372,0,0,0,3.42-2.953,9.688,9.688,0,0,0,.108-1.5c.007-5.208.014-10.415-.009-15.622,0-.564.142-.73.7-.7a19.209,19.209,0,0,0,2.507,0c.684-.049.921.1.905.862-.057,2.794-.023,5.589-.023,8.384" transform="translate(0 -5.088)" fill="#fff"/>
    <path id="Path_74615" data-name="Path 74615" d="M703.177,33.145c0-1.218-.017-2.437.009-3.655.009-.438-.124-.588-.567-.567-.716.033-1.434,0-2.151.013-.306.007-.427-.1-.422-.411.014-.836.02-1.673,0-2.508-.01-.363.142-.439.466-.43.693.019,1.388-.021,2.079.015.46.024.611-.105.6-.586-.032-1.457.017-2.915-.026-4.372-.017-.561.165-.683.686-.658.882.043,1.769.039,2.652,0,.487-.021.658.1.645.62-.037,1.48.005,2.963-.024,4.443-.009.448.121.562.56.552,1.29-.03,2.582.013,3.871-.023.49-.014.609.151.588.607-.034.739-.03,1.482,0,2.221.016.408-.117.539-.527.532-1.219-.023-2.441.042-3.656-.027-.729-.041-.856.214-.841.878.045,1.934.084,3.873,0,5.8-.136,3.133,2.107,3.654,4.263,2.939.568-.189.723-.091.859.435a11.094,11.094,0,0,0,.632,1.821c.248.541.028.76-.43.955a7.443,7.443,0,0,1-6.177.015c-2.22-1-3-2.947-3.081-5.245-.037-1.122-.006-2.246-.007-3.369" transform="translate(-599.572 -17.115)" fill="#fff"/>
  </g>
</svg>
