<svg xmlns="http://www.w3.org/2000/svg" width="90.94" height="20.379" viewBox="0 0 90.94 20.379">
  <g id="Group_104843" data-name="Group 104843" transform="translate(-9394.541 -1898.028)">
    <path id="Path_74610" data-name="Path 74610" d="M423.881,16.2c0,1.208-.014,2.415.009,3.623a.893.893,0,0,1-.371.774,9.687,9.687,0,0,1-5.5,2.188,10.243,10.243,0,0,1-8.7-2.979c-4.7-4.851-3.26-14.777,4.616-16.675a9.391,9.391,0,0,1,9.132,2.2c.281.263.329.437.047.733a21.439,21.439,0,0,0-1.476,1.686c-.257.332-.387.256-.632.007a6.381,6.381,0,0,0-9.495.436A7.535,7.535,0,0,0,410.5,15.6a5.979,5.979,0,0,0,4.373,3.945,6.965,6.965,0,0,0,5.274-.63.784.784,0,0,0,.487-.806c-.038-.938-.026-1.878,0-2.817.007-.333-.105-.418-.424-.414-1.246.016-2.493-.007-3.739.015-.356.006-.466-.1-.454-.451.025-.689.017-1.38,0-2.07-.006-.271.077-.363.357-.362q3.567.015,7.134,0c.3,0,.389.092.386.392-.015,1.265-.006,2.53-.006,3.8" transform="translate(9034.706 1895.571)" fill="#003f80"/>
    <path id="Path_74611" data-name="Path 74611" d="M279.548,8.047a5.691,5.691,0,0,1,6.228-1.013,5.973,5.973,0,0,1,3.649,5.177,7.751,7.751,0,0,1-1.254,5.693,5.818,5.818,0,0,1-8.746.7,2.41,2.41,0,0,0-.134,1c-.023.3-.12.434-.452.421-.67-.026-1.342-.021-2.013,0-.306.009-.431-.056-.431-.4q.015-9.6,0-19.205c0-.327.09-.422.414-.412.747.023,1.5.032,2.243,0,.4-.018.509.091.505.5-.021,2.489-.01,4.978-.01,7.546m0,5.309c0,.593,0,1.186,0,1.779a.854.854,0,0,0,.086.5,3.547,3.547,0,0,0,3.227,1.826,3.233,3.233,0,0,0,3.007-1.934A4.951,4.951,0,0,0,286.3,12.9a3.521,3.521,0,0,0-4.292-3.451,2.9,2.9,0,0,0-2.46,2.936v.976" transform="translate(9149.956 1898.028)"/>
    <path id="Path_74612" data-name="Path 74612" d="M144.812,63.93a6.9,6.9,0,0,1-13.8,0,6.9,6.9,0,0,1,13.8,0m-3.172-.1c-.016-.155-.033-.462-.081-.764a3.665,3.665,0,0,0-5.533-2.674,4.29,4.29,0,0,0-1.644,4.671,3.6,3.6,0,0,0,4.323,2.811c1.685-.3,2.9-1.907,2.934-4.045" transform="translate(9278.604 1847.531)"/>
    <path id="Path_74613" data-name="Path 74613" d="M585.88,64.655c-1.362,0-2.724.025-4.084-.013-.529-.015-.6.171-.517.627.341,1.867,1.751,2.7,3.738,2.614a3.774,3.774,0,0,0,2.843-1.3c.174-.205.29-.17.466-.023.543.456,1.083.917,1.65,1.341.3.221.214.355.011.575a6.448,6.448,0,0,1-4.36,2.053,7.077,7.077,0,0,1-4.777-1.064,6.656,6.656,0,0,1-2.808-6.571,6.338,6.338,0,0,1,4.627-5.8c4.339-1.127,7.829,1.555,7.926,6.091.031,1.466.031,1.466-1.435,1.466H585.88m-1.57-2.267c.938,0,1.876-.005,2.815,0,.256,0,.367-.027.328-.346a2.854,2.854,0,0,0-2.881-2.645,3.093,3.093,0,0,0-3.306,2.558c-.066.4.064.443.4.436.88-.019,1.761-.006,2.642-.006" transform="translate(8883.067 1847.728)" fill="#003f80"/>
    <path id="Path_74614" data-name="Path 74614" d="M12.3,13.362c0,2.107-.014,4.214,0,6.321.032,4.059-3.244,6.438-7.058,5.867A5.962,5.962,0,0,1,0,19.481c-.009-.331.087-.426.414-.417.8.022,1.61.019,2.414,0,.285-.007.4.064.423.368a5.483,5.483,0,0,0,.18,1.131A2.666,2.666,0,0,0,6.2,22.6a2.7,2.7,0,0,0,2.743-2.368,7.769,7.769,0,0,0,.087-1.2c.006-4.176.011-8.352-.007-12.528,0-.452.114-.585.563-.558a15.4,15.4,0,0,0,2.011,0c.549-.039.738.081.726.691-.046,2.24-.018,4.482-.018,6.723" transform="translate(9394.541 1892.771)"/>
    <path id="Path_74615" data-name="Path 74615" d="M702.557,30.538c0-.977-.014-1.954.007-2.931.007-.351-.1-.471-.455-.455-.574.026-1.15,0-1.725.011-.246.005-.343-.078-.339-.33.011-.67.016-1.341,0-2.012-.008-.291.114-.352.374-.345.555.015,1.113-.017,1.667.012.369.02.49-.084.482-.47-.026-1.168.014-2.338-.021-3.506-.013-.45.133-.548.55-.528.707.035,1.419.031,2.127,0,.39-.017.528.079.517.5-.03,1.187,0,2.376-.019,3.563-.007.36.1.451.449.443,1.034-.024,2.07.011,3.1-.018.393-.011.488.121.472.487-.027.593-.024,1.188,0,1.781.013.327-.094.433-.422.427-.977-.018-1.957.034-2.932-.022-.585-.033-.687.172-.674.7.036,1.551.068,3.106,0,4.655-.109,2.513,1.69,2.93,3.419,2.357.456-.151.579-.073.689.349a8.9,8.9,0,0,0,.507,1.46c.2.434.023.609-.345.766a5.969,5.969,0,0,1-4.953.012,4.324,4.324,0,0,1-2.47-4.206c-.03-.9-.005-1.8-.005-2.7" transform="translate(8775.067 1880.345)" fill="#003f80"/>
  </g>
</svg>
