<svg xmlns="http://www.w3.org/2000/svg" width="58.787" height="27.066" viewBox="0 0 58.787 27.066">
  <g id="kafka-streams" transform="translate(0.002 0.041)">
    <path id="Path_78493" data-name="Path 78493" d="M8.888,12.907a4.9,4.9,0,0,1,.231,1.45,4.592,4.592,0,0,1-.227,1.47l1.527.884a3.663,3.663,0,0,1,2.975-1.08,3.569,3.569,0,0,1,2.156.98,3.649,3.649,0,1,1-6,1.654L8.069,17.4a4.953,4.953,0,0,1-2.5,1.5V20.6A3.673,3.673,0,0,1,4.4,27.8,3.616,3.616,0,0,1,.99,24.915a3.451,3.451,0,0,1,.494-2.693,3.82,3.82,0,0,1,2.252-1.631c0-.559,0-1.115,0-1.687A4.612,4.612,0,0,1,3.72,9.851V8.172l-.22-.08A3.619,3.619,0,0,1,.941,4.94a3.48,3.48,0,0,1,1.4-3.232A3.44,3.44,0,0,1,4.79.951,3.667,3.667,0,0,1,6.427,7.766a8.123,8.123,0,0,1-.874.392V9.8c.439.2.892.366,1.321.588a4.323,4.323,0,0,1,1.16.947L9.5,10.476a3.639,3.639,0,1,1,.88,1.568ZM1.893,14.365A2.642,2.642,0,1,0,4.569,11.73,2.651,2.651,0,0,0,1.893,14.365ZM6.227,4.609a1.7,1.7,0,1,0-1.7,1.7,1.7,1.7,0,0,0,1.7-1.7Zm-1.7,21.243a1.7,1.7,0,1,0-1.705-1.693A1.7,1.7,0,0,0,4.527,25.852ZM14.733,9.491a1.7,1.7,0,1,0-.492,1.2A1.693,1.693,0,0,0,14.733,9.491Zm-1.682,8.081a1.691,1.691,0,1,0,1.2.5A1.689,1.689,0,0,0,13.051,17.571Z" transform="translate(0 -0.98)"/>
    <path id="Path_78494" data-name="Path 78494" d="M101.75,48.875c-.067-.319-.057-12.823,0-13.035h1.736V43.7c.17-.155.306-.269.431-.392.6-.588,1.2-1.2,1.8-1.8a.623.623,0,0,1,.5-.208c.588.014,1.176,0,1.764,0a2.213,2.213,0,0,1,.323.02c-1.1,1.094-2.183,2.1-3.259,3.175,1.139,1.446,2.307,2.861,3.463,4.329a1.042,1.042,0,0,1-.2.049h-1.868a.463.463,0,0,1-.392-.241l-2.156-2.744c-.037-.049-.08-.092-.12-.139a.47.47,0,0,0-.274.486c.012.766,0,1.533,0,2.3v.317C102.9,48.895,102.33,48.867,101.75,48.875Z" transform="translate(-81.773 -29.04)"/>
    <path id="Path_78495" data-name="Path 78495" d="M211.187,43.685c.276-.27.508-.494.737-.723.5-.5,1-.992,1.49-1.493a.51.51,0,0,1,.4-.171H215.9a6.151,6.151,0,0,1-1.035,1.09c-.368.331-.711.69-1.068,1.035s-.725.7-1.1,1.056l3.481,4.349a1.06,1.06,0,0,1-.2.045h-1.893a.363.363,0,0,1-.319-.159q-1.07-1.372-2.156-2.744c-.061-.076-.123-.149-.186-.223a.421.421,0,0,0-.251.425v2.634a6.514,6.514,0,0,1-1.78.014V35.84h1.764c.035.655.012,1.3.016,1.946s0,1.3,0,1.948v1.948C211.187,42.339,211.187,42.98,211.187,43.685Z" transform="translate(-168.362 -29.04)"/>
    <path id="Path_78496" data-name="Path 78496" d="M250.665,70.437h-1.75c-.12-.206,0-.435-.088-.664-.061.041-.118.073-.169.114a3.3,3.3,0,0,1-4.208.055,3.794,3.794,0,0,1-1.4-2.562,4.539,4.539,0,0,1,.227-2.34,3.447,3.447,0,0,1,2.624-2.291,3.1,3.1,0,0,1,2.756.768l.2.176.018-.784c.608-.033,1.176-.012,1.782-.016a2.285,2.285,0,0,1,.035.272V70.2C250.684,70.26,250.673,70.331,250.665,70.437Zm-1.7-3.706a2.5,2.5,0,0,0-.5-1.682,2.03,2.03,0,0,0-2.656-.429,2.107,2.107,0,0,0-.784.98,2.993,2.993,0,0,0-.043,2.062,2.091,2.091,0,0,0,.784,1.07,2.06,2.06,0,0,0,2.771-.5A2.446,2.446,0,0,0,248.966,66.731Z" transform="translate(-195.365 -50.622)"/>
    <path id="Path_78497" data-name="Path 78497" d="M143.1,62.861v7.5a6.625,6.625,0,0,1-1.778.014v-.686c-.151.116-.263.2-.376.29a3.1,3.1,0,0,1-1.852.662,3.332,3.332,0,0,1-2.814-1.346,4.138,4.138,0,0,1-.827-2.248,4.492,4.492,0,0,1,.284-2.091,3.441,3.441,0,0,1,2.322-2.17,3.091,3.091,0,0,1,2.94.625l.308.253v-.8C141.918,62.851,142.5,62.861,143.1,62.861Zm-1.648,3.8a7.473,7.473,0,0,0-.157-.87,2.023,2.023,0,0,0-3.906-.025,3,3,0,0,0-.071,1.493,2.014,2.014,0,0,0,2.13,1.764,1.913,1.913,0,0,0,1.617-.968A2.916,2.916,0,0,0,141.453,66.663Z" transform="translate(-108.89 -50.599)"/>
    <path id="Path_78498" data-name="Path 78498" d="M185.307,34.913v1.809c-.118-.051-.2-.084-.288-.127a2.352,2.352,0,0,0-.713-.237.641.641,0,0,0-.8.561,3.92,3.92,0,0,0-.063.615v2.548a1.261,1.261,0,0,0,.018.241h1.8a5.633,5.633,0,0,1,.016,1.685h-1.825v5.821a6.557,6.557,0,0,1-1.789.037c-.027-.637,0-1.284-.012-1.927s0-1.3,0-1.948v-1.96L181.073,42a5.816,5.816,0,0,1,0-1.668h.557c0-.118.012-.212.012-.308,0-.98,0-1.96.01-2.94a4.621,4.621,0,0,1,.133-.9,1.764,1.764,0,0,1,.9-1.192A2.768,2.768,0,0,1,185.307,34.913Z" transform="translate(-145.539 -28.062)"/>
    <path id="Path_78499" data-name="Path 78499" d="M287.757,88.809a1.325,1.325,0,1,1-1.329,1.339,1.3,1.3,0,0,1,1.329-1.339Zm.01.276a1.017,1.017,0,0,0-1.064,1.043,1.047,1.047,0,0,0,1.033,1.07,1.058,1.058,0,0,0,1.08-1.043,1.025,1.025,0,0,0-1.047-1.07Z" transform="translate(-230.293 -71.628)"/>
    <path id="Path_78500" data-name="Path 78500" d="M159.33,38.7H159v-.98h-.853l-.022.98h-.357V36.528h.351c0,.143.014.276.016.408s0,.249,0,.4c.288.02.555,0,.855,0V36.52h.335A10.612,10.612,0,0,1,159.33,38.7Z" transform="translate(-126.851 -29.587)"/>
    <path id="Path_78501" data-name="Path 78501" d="M169.455,38.587h-1.2a13.088,13.088,0,0,1-.022-2.166,5.341,5.341,0,0,1,1.2-.014v.341h-.819v.433l.784.029v.355h-.745a1.192,1.192,0,0,0-.012.66h.794Z" transform="translate(-135.239 -29.475)"/>
    <path id="Path_78502" data-name="Path 78502" d="M118.863,36l1.023,2.283h-.4l-.233-.492h-.862c-.043.08-.09.165-.133.253-.139.29-.141.292-.5.221.341-.764.7-1.513,1.049-2.262Zm-.045.823a1.946,1.946,0,0,0-.245.588h.512c-.069-.163-.125-.3-.186-.441a1.621,1.621,0,0,0-.08-.155Z" transform="translate(-94.674 -29.169)"/>
    <path id="Path_78503" data-name="Path 78503" d="M136.152,37.982h-.392c.151-.421.347-.784.521-1.176s.347-.747.549-1.176c.376.784.708,1.54,1.054,2.334L137.5,38l-.251-.523H136.4Zm.954-.878-.269-.617-.282.61Z" transform="translate(-109.155 -28.871)"/>
    <path id="Path_78504" data-name="Path 78504" d="M129.843,36.426a1.744,1.744,0,0,1,.851.027.651.651,0,0,1-.022,1.231,4.339,4.339,0,0,1-.433.08l-.02.821h-.335a2.38,2.38,0,0,1-.039-.715v-.7Zm.392.359v.561c.174.022.335.039.451-.11a.265.265,0,0,0,.024-.3c-.094-.178-.255-.182-.466-.147Z" transform="translate(-104.39 -29.48)"/>
    <path id="Path_78505" data-name="Path 78505" d="M148.389,37.921v.392a1.109,1.109,0,0,1-1.423-.157,1.131,1.131,0,0,1-.061-1.482,1.105,1.105,0,0,1,1.486-.269v.366c-.116.018-.18-.073-.265-.11a.747.747,0,0,0-1.025.408.768.768,0,0,0,.433,1.023.711.711,0,0,0,.6-.035A2.113,2.113,0,0,0,148.389,37.921Z" transform="translate(-117.917 -29.353)"/>
    <path id="Path_78506" data-name="Path 78506" d="M291.327,92.823v.466H291.1V91.847a3.473,3.473,0,0,1,.472,0,.392.392,0,0,1,.351.294.416.416,0,0,1-.2.486c-.029.02-.061.037-.1.061l.433.576c-.163.071-.268.067-.361-.057s-.21-.267-.314-.392Zm.025-.392c.118.014.229.043.3-.067a.229.229,0,0,0,0-.2c-.067-.122-.182-.11-.3-.078Z" transform="translate(-234.05 -74.064)"/>
    <path id="Path_78507" data-name="Path 78507" d="M104.456,113.179l-.7.617a1,1,0,0,0-.753-.513.457.457,0,0,0-.3.1.29.29,0,0,0-.118.225.392.392,0,0,0,.084.237,6.4,6.4,0,0,0,.694.639q.541.453.657.57a1.981,1.981,0,0,1,.408.557,1.388,1.388,0,0,1,.12.588,1.329,1.329,0,0,1-.423,1,1.54,1.54,0,0,1-1.1.392,1.64,1.64,0,0,1-.925-.261,2.054,2.054,0,0,1-.674-.817l.8-.48q.359.659.825.659a.608.608,0,0,0,.41-.141.421.421,0,0,0,.167-.327.566.566,0,0,0-.125-.337,3.619,3.619,0,0,0-.551-.517,5.569,5.569,0,0,1-1.049-1.021,1.3,1.3,0,0,1-.237-.717,1.176,1.176,0,0,1,.392-.886,1.372,1.372,0,0,1,.98-.37,1.535,1.535,0,0,1,.709.172,2.585,2.585,0,0,1,.719.629Z" transform="translate(-81.545 -90.577)"/>
    <path id="Path_78508" data-name="Path 78508" d="M118.742,113h2.744v.933h-.905v4.037h-.958v-4.037h-.882Z" transform="translate(-95.47 -91.078)"/>
    <path id="Path_78509" data-name="Path 78509" d="M135.69,112.979h1a3.312,3.312,0,0,1,1.176.147,1.2,1.2,0,0,1,.562.488,1.5,1.5,0,0,1,.212.807,1.372,1.372,0,0,1-.235.819,1.425,1.425,0,0,1-.708.5l1.176,2.209H137.84l-1.109-2.1h-.086v2.1H135.7Zm.947,1.942h.29a1.158,1.158,0,0,0,.621-.12.445.445,0,0,0,.171-.392.48.48,0,0,0-.084-.282.466.466,0,0,0-.225-.172,1.711,1.711,0,0,0-.519-.053h-.259Z" transform="translate(-109.098 -91.057)"/>
    <path id="Path_78510" data-name="Path 78510" d="M155.15,113h2.714v.925H156.1v.9h1.764v.921H156.1v1.307h1.764v.929H155.15Z" transform="translate(-124.744 -91.078)"/>
    <path id="Path_78511" data-name="Path 78511" d="M172.673,113h.958l1.911,4.968h-.98l-.392-1.023h-2.026l-.4,1.023h-.98Zm.486,1.317-.666,1.705h1.329Z" transform="translate(-137.295 -91.078)"/>
    <path id="Path_78512" data-name="Path 78512" d="M197.112,113h.921l1.152,3.465L200.348,113h.921l.833,4.968h-.915l-.533-3.136-1.056,3.136h-.833l-1.047-3.136-.545,3.136h-.923Z" transform="translate(-157.789 -91.078)"/>
    <path id="Path_78513" data-name="Path 78513" d="M230.106,113.2l-.7.619a1,1,0,0,0-.755-.515.457.457,0,0,0-.3.1.29.29,0,0,0-.118.225.392.392,0,0,0,.084.237,6.424,6.424,0,0,0,.694.639q.541.453.657.57a1.976,1.976,0,0,1,.408.557,1.386,1.386,0,0,1,.12.588,1.327,1.327,0,0,1-.423,1.009,1.54,1.54,0,0,1-1.1.392,1.64,1.64,0,0,1-.925-.261,2.054,2.054,0,0,1-.674-.817l.8-.48q.359.659.825.659a.608.608,0,0,0,.41-.141.421.421,0,0,0,.167-.327.566.566,0,0,0-.125-.337,3.61,3.61,0,0,0-.551-.517,5.561,5.561,0,0,1-1.049-1.021,1.3,1.3,0,0,1-.237-.717,1.176,1.176,0,0,1,.392-.886,1.372,1.372,0,0,1,.98-.37,1.535,1.535,0,0,1,.709.172,2.587,2.587,0,0,1,.719.623Z" transform="translate(-182.569 -90.601)"/>
  </g>
</svg>
