<svg width="100" height="100" viewBox="0 0 100 100" fill="none" xmlns="http://www.w3.org/2000/svg">
<rect width="100" height="100" rx="4" fill="#A3080C"/>
<g clip-path="url(#clip0_11777_491)">
<path d="M50.0008 18.5249C49.2379 18.5249 47.7496 18.6047 47.6889 18.6083C47.9774 18.6853 25.4248 30.2555 25.4248 30.1342C25.4179 30.1734 25.4073 30.2059 25.3867 30.2315C20.9159 35.7005 18.2623 42.6481 18.2623 50.2632C18.2623 56.5393 20.0908 62.385 23.235 67.3105C23.2562 67.299 31.2406 75.0327 31.1429 75.7897C36.4166 79.6909 42.9373 81.9998 49.9999 81.9998C52.4665 81.9998 54.863 81.7085 57.1694 81.1773C57.1275 80.9289 57.0893 80.6799 57.0548 80.4304L56.6382 77.5045C56.5125 76.7041 55.8571 71.2641 55.8571 71.2641L55.8547 71.2481L56.5526 70.9802C56.5526 70.9802 57.4696 71.0181 57.4471 71.021C57.4471 71.021 58.377 76.4922 58.5387 77.4412L58.7139 78.446C58.7813 78.8504 58.8383 79.2518 58.9217 79.6675C58.9804 80.0132 59.0322 80.3446 59.0834 80.6744C59.8357 80.4484 60.5769 80.1976 61.304 79.9198C61.1935 79.298 61.0734 78.6571 61.0632 78.5622L60.6885 76.3363C60.1935 74.04 59.8781 72.3367 59.6465 71.2037C59.6137 71.0409 59.552 70.7516 59.552 70.7516L60.2683 70.465L61.2132 70.5387C61.2132 70.5387 62.4187 75.814 62.7197 77.4089L63.0635 79.1846C63.71 78.892 64.3502 78.5832 64.972 78.2488L64.773 77.3376C64.7518 77.2494 64.729 77.1434 64.702 77.0255C64.2969 75.2436 63.2221 70.2797 63.2221 70.2797L64.0843 69.9412L64.9265 70.0598H64.9304C64.9304 70.0598 66.0123 74.6358 66.7141 77.2403C67.9196 76.4922 69.0745 75.6705 70.1634 74.7724C70.1634 74.7724 80.2139 59.7277 80.2859 59.7773C81.228 56.7741 81.7382 53.5779 81.7382 50.263C81.7378 32.735 67.5284 18.5249 50.0008 18.5249Z" fill="#A3080C"/>
<path d="M57.9523 34.3249C57.9523 34.3249 53.9882 26.8498 52.3712 25.7278C50.7561 24.6058 48.094 23.9053 46.2485 24.1385C43.9119 24.4335 38.5677 27.2616 38.2125 27.355C38.2151 27.3823 36.2214 29.8416 35.7008 32.3743C35.585 32.9372 33.5334 41.9105 33.5334 41.9105L37.4346 53.1806L51.3371 59.8135L56.4349 54.2643C56.4349 54.2643 57.0853 48.7738 58.4579 44.6559C59.8305 40.538 59.397 38.2985 59.397 38.2985L57.9523 34.3249Z" fill="#FFF1E2"/>
<path d="M40.9251 41.5873C40.7044 41.713 40.5412 41.7425 40.4394 41.7966C40.3373 41.8523 40.1763 41.972 40.2161 42.1859C40.2582 42.4009 40.3171 42.4707 40.3377 42.6365C40.3572 42.8005 40.2783 43.0979 40.0876 43.4356C39.8999 43.7741 39.5995 44.0186 39.429 44.1176C39.2612 44.218 39.1583 44.2451 39.0629 44.2953C39.0412 44.3053 39.0217 44.3571 39.0022 44.4611L39.0003 44.4631C39.0136 44.4523 39.0285 44.4437 39.0445 44.4375C39.0811 44.4219 39.1565 44.42 39.2244 44.4074C39.29 44.3953 39.3384 44.3799 39.3624 44.3766C39.388 44.3736 39.5402 44.3521 39.5657 44.3465C39.5913 44.3415 40.0523 44.2451 40.3379 44.1135C40.6221 43.9813 41.121 43.7407 41.4069 43.3953C41.6169 43.1423 41.8698 42.6818 41.8945 42.2247C41.9004 42.1302 41.8993 42.0715 41.8993 42.0715C41.8993 42.0715 41.9004 42.0715 41.9004 42.0704C41.9036 42.0704 41.9064 42.0695 41.9095 42.0695C41.8649 42.0684 41.822 42.0525 41.7875 42.0244C41.7109 41.9646 41.6492 41.9204 41.4147 41.6699C41.2638 41.5082 41.2742 41.3896 41.3559 41.2542C41.354 41.2572 41.3505 41.2602 41.3484 41.2633C41.2786 41.3283 41.1429 41.4618 40.9251 41.5873ZM52.5805 40.0933C52.5805 40.0933 52.4518 40.1044 52.4076 40.1239C52.3725 40.1384 52.3061 40.1631 52.2608 40.2238C52.2155 40.2856 52.2054 40.3935 52.3001 40.5095C52.3963 40.625 52.5294 40.8409 52.5183 41.0257C52.5112 41.107 52.5229 41.3727 52.437 41.5641C52.3406 41.781 52.2292 41.995 52.1527 42.0914C52.1085 42.1482 51.9043 42.374 51.8744 42.534C51.8664 42.5676 51.8744 42.6048 51.8902 42.6399C51.8902 42.6399 51.8926 42.638 51.8926 42.6408C51.8915 42.6419 51.8926 42.6438 51.8915 42.6458C51.8954 42.6326 51.9019 42.6203 51.9106 42.6096C51.9613 42.5524 52.0653 42.4945 52.2461 42.4388C52.4858 42.363 52.6562 42.2726 52.7886 42.1716C52.7725 42.1902 52.7684 42.2119 52.7582 42.2334C52.7719 42.2002 52.7875 42.1675 52.8172 42.1415C52.8883 42.0801 53.8289 41.4488 53.8529 40.4295C53.8621 40.0467 53.3655 39.9962 53.1588 39.9893C53.0051 39.9828 52.7155 40.1237 52.5933 40.094C52.5911 40.0931 52.5877 40.0899 52.5831 40.089C52.5853 40.089 52.5853 40.0899 52.5853 40.0899C52.5851 40.0923 52.5814 40.0923 52.5805 40.0933ZM42.564 47.1302C42.564 47.1302 46.3026 48.2863 48.0907 46.2091C49.8787 44.1321 52.9672 47.311 53.1657 48.2501C53.3646 49.1892 48.5241 51.79 47.0612 51.8441C45.5983 51.8983 39.8007 51.1218 39.8007 50.5258C39.8007 49.9297 42.564 47.1302 42.564 47.1302ZM57.9069 32.2752C57.3124 25.97 54.4113 22.8098 52.3261 21.276C50.1347 19.8321 44.9216 18.5603 42.4647 18.6752C39.5659 18.8107 32.8715 21.9726 32.6125 22.2062C32.3657 22.4314 27.876 29.9386 28.4313 31.2797C28.9866 32.6208 29.7733 38.9548 30.0297 39.4635C30.1077 39.6159 31.3884 43.7425 32.2332 43.5905C33.0848 43.4373 33.8787 39.6737 33.8407 39.3822C33.7324 38.5515 32.2246 34.8079 32.3416 34.2799C32.4602 33.7535 36.4873 27.4485 36.7755 27.227C36.9788 27.0723 43.8867 26.2131 43.9268 26.2799C43.926 26.2779 43.9259 26.2758 43.9231 26.2738L43.9223 26.2727C44.4051 25.8519 45.525 24.7424 46.5257 24.7823C47.5254 24.8235 50.3839 25.1806 51.9988 26.304C53.6161 27.426 54.1154 28.5244 54.2524 28.8317C54.2515 28.8317 54.2494 28.8332 54.2483 28.8332C54.3025 28.8412 56.5519 33.9548 57.2112 33.973C57.6512 33.985 57.9793 33.0331 57.9069 32.2752ZM55.1085 36.4674C54.8686 36.4954 54.2125 36.5552 54.1401 36.5643C54.0112 36.581 54.0146 36.6538 54.0227 36.7084C54.0294 36.7648 54.0497 36.9806 54.0573 37.0736C54.0653 37.1659 54.1618 37.2201 54.2608 37.2121C54.3603 37.2052 54.9878 37.1484 55.0812 37.1339C55.1726 37.1189 55.2632 37.0415 55.2619 36.9676C55.26 36.8933 55.2611 36.6969 55.26 36.6176C55.2578 36.5376 55.1989 36.4572 55.1085 36.4674ZM29.0054 66.6186C29.1301 66.6457 29.2629 66.676 29.3912 66.7059C29.1045 66.6394 28.7926 66.5713 28.6138 66.5271C28.5254 66.5048 28.3862 66.492 28.2252 66.4953C27.9565 66.5011 27.6246 66.554 27.3568 66.6886C27.018 66.8568 24.8658 67.9482 23.9638 68.4038C24.9942 69.8812 26.1476 71.269 27.4116 72.5523C27.4905 72.227 28.9012 70.7467 29.0997 69.8791C29.3715 68.6901 28.6951 67.1207 29.0054 66.6186ZM64.9271 70.0607L63.2262 70.28C63.2262 70.28 64.4496 75.9287 64.7771 77.3377L64.9744 78.2489C65.566 77.9303 66.1447 77.5939 66.713 77.2404C66.0101 74.6359 64.9282 70.0607 64.9282 70.0607H64.9271Z" fill="white"/>
<path d="M74.7819 47.4601C73.923 48.109 73.4475 48.9855 73.4501 49.8626C73.454 51.1628 74.5056 52.4148 76.9421 52.4068C77.4861 52.402 78.0288 52.3527 78.5648 52.2592C78.7025 52.2369 78.8398 52.2117 78.9766 52.1836L79.2598 50.9733C78.7878 51.1311 78.1913 51.2616 77.713 51.2638C76.4156 51.2679 75.5457 50.4985 75.5435 49.4894C75.5413 48.9519 75.7624 48.4794 76.1621 48.1339C76.5903 47.7637 77.2212 47.5399 78.0101 47.5399C78.635 47.5399 79.0004 47.7126 79.2496 47.9592C79.2997 48.0076 79.3459 48.0583 79.3864 48.1114H79.5897L79.9874 46.6831C79.5773 46.5479 78.9701 46.4341 78.3292 46.4269C76.8372 46.4072 75.6248 46.8233 74.7819 47.4601ZM72.75 47.6586C72.9252 47.6586 73.0706 47.7224 73.1681 47.8058C73.2518 47.8767 73.3016 47.961 73.3016 48.0338H73.5017L73.8892 46.4829H68.6237L68.547 46.7863L68.5288 46.86C68.5288 46.86 69.105 46.9248 68.9284 47.5009L67.6141 52.2763L69.8495 52.2807H70.2418L70.3413 51.8706C70.3413 51.8706 69.8495 51.7521 69.9783 51.298C69.9841 51.2696 70.1694 50.5904 70.2799 50.1827C70.3294 50.0067 70.3645 49.8801 70.3645 49.8801L71.568 49.8793C71.7648 49.8793 71.9156 49.9155 72.0322 49.9605C72.2732 50.0529 72.3658 50.1929 72.3658 50.1929L72.7147 48.7737H70.6863L70.9057 47.9631L70.9878 47.6608L72.75 47.6586ZM66.3523 51.4239C66.1963 51.257 64.8434 49.1497 64.8434 49.1497L67.2359 47.2349L67.3153 47.1712C67.4064 47.0945 67.5056 47.0278 67.6111 46.9725C67.8655 46.8418 68.0294 46.8604 68.0294 46.8604L68.1254 46.4787L65.0502 46.4833L64.9735 46.7856L64.9553 46.8604C65.1644 46.8749 65.4561 47.0617 65.2177 47.2843C65.1863 47.311 62.7461 49.1758 62.7461 49.1758L62.7652 49.1099L63.2726 47.2718C63.3798 46.9046 63.7743 46.8604 63.7743 46.8604L63.8707 46.4822L60.9347 46.4831L60.8592 46.7856L60.8397 46.8604C60.9802 46.8966 61.3811 46.9744 61.2422 47.5013C60.2624 51.0423 60.3744 50.6918 60.3081 50.8847C60.0885 51.7241 59.7598 51.8396 59.5621 51.8611C59.519 51.8652 59.4817 51.8652 59.4546 51.8667L59.4141 52.0251L59.3519 52.2761H62.4225L62.5253 51.8604C62.5253 51.8604 62.038 51.764 62.1308 51.4124C62.223 51.0721 62.316 50.732 62.4097 50.3921C62.5151 50.0082 62.6083 49.6719 62.6083 49.6719C63.1408 50.5256 63.2635 50.6309 63.9061 51.513C64.4975 52.329 65.1297 52.2909 66.656 52.2802C66.7802 52.2794 66.9091 52.2783 67.0478 52.2783L67.1495 51.8704C66.7628 51.8728 66.5069 51.5904 66.3523 51.4239ZM80.8314 46.583C80.7955 46.5466 80.7526 46.518 80.7052 46.4987C80.6579 46.4794 80.6072 46.47 80.5561 46.4709C80.4499 46.4709 80.3593 46.5082 80.2828 46.583C80.2463 46.6185 80.2175 46.6611 80.1981 46.7082C80.1787 46.7553 80.1691 46.8058 80.1699 46.8567C80.1699 46.9647 80.208 47.0561 80.2828 47.1322C80.3574 47.2072 80.4499 47.2462 80.5561 47.2462C80.6647 47.2462 80.7551 47.207 80.8314 47.1322C80.9072 47.0559 80.9449 46.9644 80.9449 46.8567C80.9461 46.8057 80.9366 46.755 80.917 46.7079C80.8975 46.6607 80.8683 46.6182 80.8314 46.583ZM80.7939 47.0943C80.7632 47.1262 80.7263 47.1515 80.6855 47.1685C80.6447 47.1856 80.6008 47.194 80.5565 47.1933C80.4642 47.1933 80.3857 47.1601 80.3216 47.0943C80.2901 47.0634 80.2652 47.0264 80.2484 46.9855C80.2316 46.9447 80.2234 46.9009 80.2241 46.8567C80.2241 46.7653 80.2572 46.6859 80.3216 46.6211C80.3518 46.5894 80.3883 46.5642 80.4287 46.5472C80.4692 46.5302 80.5127 46.5217 80.5565 46.5223C80.6007 46.5218 80.6446 46.5303 80.6854 46.5473C80.7262 46.5643 80.7631 46.5894 80.7939 46.6211C80.8582 46.6859 80.8901 46.7653 80.8901 46.8567C80.8901 46.9499 80.858 47.0295 80.7939 47.0943Z" fill="white"/>
<path d="M80.7323 46.7653C80.7323 46.712 80.7094 46.676 80.6667 46.6574C80.6288 46.6467 80.5896 46.6419 80.5503 46.6433H80.4014V47.0687H80.4749V46.9006H80.5336C80.5746 46.9006 80.6017 46.9055 80.6194 46.9146C80.6446 46.9311 80.6587 46.9634 80.6578 47.0126V47.0453L80.6608 47.0599V47.0648C80.6608 47.0648 80.6608 47.0668 80.6632 47.069H80.7323L80.731 47.0629C80.7269 47.0599 80.7269 47.0529 80.7252 47.0412V46.9784C80.7252 46.9567 80.7174 46.9331 80.7016 46.9114C80.6877 46.8895 80.6608 46.8752 80.6292 46.8702C80.6509 46.8681 80.6718 46.861 80.6903 46.8496C80.704 46.8404 80.715 46.8278 80.7224 46.813C80.7298 46.7982 80.7332 46.7818 80.7323 46.7653ZM80.614 46.8399C80.5917 46.8466 80.5684 46.8493 80.5451 46.8479H80.4759V46.6947H80.5392C80.5811 46.6938 80.6125 46.6994 80.6316 46.7103C80.6498 46.7202 80.66 46.7419 80.66 46.7731C80.6603 46.7877 80.656 46.8019 80.6477 46.8139C80.6395 46.8259 80.6277 46.835 80.614 46.8399ZM76.5188 58.5274C72.4731 57.2992 64.1651 57.5883 64.1651 57.5883L70.956 73.5903C70.956 73.5903 71.5847 73.275 71.6636 73.447C75.3476 70.0027 78.2083 65.6958 79.9237 60.8449C79.7885 60.7409 80.5646 59.7556 76.5188 58.5274Z" fill="white"/>
<path d="M62.7221 77.4091C62.4191 75.8144 61.2123 70.5389 61.2123 70.5389C61.2123 70.5389 62.8144 70.118 63.1898 69.201C63.5652 68.2844 62.7154 66.8722 62.6751 66.3159C62.5015 64.6544 61.8489 57.8496 60.7787 56.4409C60.1556 55.6205 57.2901 54.002 57.0671 54.0117C56.0376 54.0568 53.9787 58.5406 52.2583 58.947C51.1115 59.2179 50.3014 58.1023 50.4871 58.1864C50.4837 58.1841 50.48 58.1821 50.4778 58.1804C50.4778 58.1804 50.48 58.0521 50.2882 57.4493C50.0961 56.8444 49.6943 56.2098 49.62 56.0664C49.5478 55.9225 49.3298 55.6093 49.3222 55.5733C49.3161 55.538 49.2368 55.3362 49.1807 54.9686C49.0738 54.2595 49.1228 53.7844 49.1269 53.7413C49.1291 53.6979 49.1488 53.5694 49.1547 53.5434C49.1592 53.5161 49.1486 53.4699 49.1159 53.4619C49.0816 53.456 48.9902 53.4337 48.8946 53.5321C48.6952 53.7332 48.6861 53.7714 48.6824 53.8054C48.6755 53.8373 48.6961 53.898 48.69 53.9682C48.6683 54.1912 48.6293 54.3618 48.5294 54.5245C48.4299 54.6892 48.3651 54.7458 48.2242 54.7324C48.081 54.7194 47.9618 54.6058 47.9444 54.3117C47.9258 54.0178 47.8679 53.917 47.809 53.8477C47.7502 53.7753 47.6163 53.7421 47.5706 53.7449C47.5255 53.7449 47.4878 53.7853 47.1778 53.8613C46.8705 53.9394 46.382 53.9656 46.31 53.9686C46.2366 53.9732 45.9685 54.0003 45.9665 54.0007C46.0227 54.2105 44.8399 53.8878 44.641 54.0475C44.2346 54.3726 44.0448 56.4836 43.8462 57.5783L43.8458 57.5818L37.1819 58.256L34.8521 63.6743C34.8521 63.6743 35.5564 74.4026 35.5564 74.5651C35.5564 74.7277 50.2942 71.3683 50.2942 71.3683L55.8543 71.248C55.8543 71.248 55.8558 71.2522 55.8569 71.2626C55.8963 71.5831 56.5125 76.7034 56.638 77.5053L57.055 80.429C57.0892 80.6774 57.1274 80.9286 57.1692 81.1761C57.8144 81.027 58.4531 80.8619 59.083 80.6733C59.0318 80.3437 58.9789 80.011 58.9213 79.6674C58.8385 79.2507 58.7813 78.8501 58.7143 78.4449L58.5379 77.4403C58.3771 76.4921 57.4451 71.0222 57.4451 71.0222L58.4219 70.4054L59.5526 70.7509C59.5827 70.8898 59.6126 71.04 59.6471 71.203C59.879 72.3378 60.1952 74.0396 60.6889 76.3337L61.0637 78.5612C61.0739 78.656 61.1946 79.2968 61.3058 79.9195C61.8987 79.6914 62.4848 79.4461 63.0635 79.1839L62.7221 77.4091Z" fill="white"/>
<path d="M51.6759 36.7636C50.4477 36.9442 48.6596 37.9465 48.7409 38.678C48.791 39.1314 51.3525 39.2008 52.5066 39.2831C53.6607 39.3655 53.8512 38.256 53.7892 37.6531C53.7273 37.0501 52.9685 36.5738 51.6759 36.7636ZM60.0574 56.4548C59.4479 56.3913 59.731 57.3799 59.7238 57.4798V57.4817C60.0184 58.5968 60.2727 59.7222 60.4863 60.8556C60.4889 60.9592 60.4965 61.05 60.5092 61.1237C60.5966 61.5812 60.7773 63.0609 61.125 66.4024C61.2054 67.5156 61.2756 68.6764 61.322 69.6528C61.3536 69.6506 63.4065 69.7696 63.4065 69.7696C63.4065 69.7696 63.3253 66.8979 62.6887 63.2947C62.0517 59.692 61.097 56.5632 60.0574 56.4548ZM54.522 47.4063C54.6146 46.898 54.5086 46.6468 54.3423 46.3497C54.1785 46.0534 53.8621 45.7762 53.4529 45.5075C53.0576 45.2444 52.1635 44.4555 52.0766 44.3809C51.9921 44.3081 51.5747 43.9134 51.478 43.8349C51.3774 43.7576 51.1826 43.5955 50.7548 43.3785C49.7181 42.8558 48.8846 43.247 48.8523 43.2649C48.8206 43.2827 48.6668 43.4071 48.5194 43.5471C48.3742 43.6848 48.4832 43.9509 48.5389 44.048C48.5389 44.048 54.0404 48.0807 54.0515 48.1748L54.0556 48.1778C54.0556 48.1778 54.4455 47.8215 54.522 47.4063ZM52.2459 42.4394C52.0651 42.4951 51.9613 42.5528 51.9104 42.6102C51.9004 42.6217 51.8965 42.6342 51.8924 42.6464C51.8878 42.6559 51.8878 42.6659 51.8878 42.6754V42.6975C51.89 42.7071 51.8937 42.7151 51.8959 42.7238C51.9006 42.7337 51.9061 42.7443 51.9119 42.7543C51.9162 42.7608 51.9199 42.768 51.9253 42.7749C51.9334 42.7875 51.9448 42.7994 51.9559 42.812C51.9605 42.818 51.9661 42.823 51.9719 42.8287C51.9908 42.8477 52.0106 42.8658 52.0313 42.8828C52.0508 42.8995 52.0708 42.9149 52.0905 42.9316C52.0948 42.9336 52.0963 42.9357 52.1007 42.9388C52.1247 42.9563 52.149 42.9724 52.1731 42.9888C52.1739 42.9899 52.1752 42.9899 52.1761 42.9908C52.2032 43.0083 52.2294 43.025 52.2543 43.0415C52.2814 43.0575 52.3196 43.066 52.3662 43.0671C52.4188 43.0677 52.4714 43.0628 52.5231 43.0525C52.716 43.0144 52.9626 42.9171 53.1718 42.817C53.1718 42.818 53.1696 42.817 53.1674 42.818C53.1553 42.8222 52.773 42.1908 52.7877 42.1722C52.6557 42.2732 52.4869 42.3636 52.2459 42.4394ZM44.8588 46.2121C44.874 46.2181 44.8874 46.227 44.903 46.2331C44.901 46.2311 44.8997 46.2301 44.8987 46.2281C44.8204 46.1468 44.8143 46.1286 44.787 46.0181C44.7573 45.903 44.6821 45.7619 44.6505 45.6822C44.6165 45.6018 44.4652 45.3291 44.4069 45.1525C44.3488 44.9756 44.3226 44.8677 44.3109 44.6904C44.2658 44.5567 44.2316 44.2905 44.2521 44.0499C44.2697 43.8371 44.3169 43.592 44.452 42.903C44.5434 42.4505 44.4002 41.9292 44.3952 41.4466C44.3909 41.0744 44.3542 40.1598 44.3642 39.2394V39.2363C44.3005 39.258 36.1073 37.5003 36.165 37.4916C36.1661 37.4916 36.1682 37.4905 36.17 37.4905C36.2348 36.8122 36.1955 35.8995 36.1589 35.2075C36.3711 33.1288 36.6906 30.7226 37.4251 29.1186C37.9927 27.8852 37.9168 28.2915 38.1973 27.7103C38.2129 27.6791 38.2335 27.6424 38.2367 27.5993C38.2398 27.5703 38.2159 27.4071 38.2112 27.3553V27.3533C38.1945 27.3583 36.1977 26.7991 33.7133 32.5011C32.6734 34.89 34.0573 40.8635 34.0573 40.8635L36.22 41.5816L37.6288 40.8163L40.9611 40.1323L42.3224 40.7961C42.3224 40.7961 41.903 42.0707 41.8997 42.0707C41.8997 42.0716 41.8986 42.0716 41.8986 42.0716C41.8986 42.0716 41.8997 42.1314 41.8928 42.2248C41.8694 42.6828 41.6162 43.1434 41.4051 43.3965C41.1206 43.7411 40.6219 43.9817 40.338 44.1145C40.0519 44.2452 39.5913 44.3425 39.5642 44.3471C39.5397 44.3529 39.3865 44.3737 39.3616 44.3776C39.3369 44.3796 39.2896 44.3952 39.224 44.4082C39.1557 44.4199 39.0809 44.4219 39.0436 44.4375C39.0273 44.4433 39.0122 44.4524 38.9994 44.4641C38.9783 44.4806 38.9643 44.5046 38.9604 44.5311C38.9563 44.5508 38.9559 44.5711 38.9593 44.5909C38.973 44.6585 39.0464 44.7532 39.0551 44.7697C39.0859 44.8284 39.2625 44.9962 39.5519 44.9314C39.8493 44.865 40.1432 44.7837 40.4325 44.6878C40.6886 44.6043 41.0282 44.4574 41.08 44.4121C41.1327 44.3683 41.2736 44.2608 41.2961 44.2485C41.2961 44.2474 41.297 44.2474 41.297 44.2474C41.3263 44.2207 41.354 44.1956 41.3815 44.172C41.3932 44.162 41.4049 44.1494 41.4169 44.1403L41.4247 44.1336C41.4695 44.6705 40.8256 46.2823 40.8256 46.2823C40.8256 46.2823 39.3254 46.8161 39.4205 46.7454C39.4205 46.7454 39.4188 46.7454 39.4188 46.7463C39.297 46.8061 39.1173 46.8709 38.9357 46.7288C38.9357 46.7288 38.7591 46.5224 38.5428 46.2487C38.4042 46.0746 38.2702 45.897 38.1407 45.716C38.0666 45.6132 37.9982 45.5064 37.9359 45.3961C37.8425 45.237 37.8052 45.1349 37.7888 45.0712C37.7868 45.0662 37.7844 45.0606 37.7844 45.0567C37.7441 44.9507 37.7105 44.779 37.7105 44.779C37.4398 44.7454 37.155 44.6837 36.8921 44.5877C36.8941 44.5885 36.8941 44.5911 36.8962 44.5931C36.9181 44.6126 35.0382 45.0226 35.0382 45.0226L36.9834 52.947C36.9834 52.947 40.6136 58.6543 42.8893 57.5526C43.2285 57.3883 43.8191 56.2316 43.5757 55.8367C43.3256 55.4321 39.4758 49.0458 39.4758 49.0458C39.4758 49.0458 44.807 46.1891 44.8588 46.2121ZM52.2381 67.7512C52.949 68.2234 53.1965 68.3337 53.9737 68.6588C54.2212 68.7754 54.8736 68.6428 55.1527 68.2249C55.1479 68.2271 55.1427 68.233 55.1391 68.2362C55.1369 68.2371 55.1369 68.2371 55.1347 68.2371C55.1165 68.2481 51.2637 65.2251 50.7615 65.0461C50.5827 64.9828 49.5987 65.3439 49.7253 65.5258C49.8386 65.6894 50.3146 66.1851 50.3256 66.2041C50.9973 66.7265 51.8423 67.4235 52.2381 67.7512ZM44.0452 62.1755L37.6019 58.4865C37.6019 58.4865 37.7898 60.3142 37.7888 60.3426L37.7907 60.345C38.2608 60.7654 38.997 61.2693 39.1134 61.3484C39.1563 61.3768 39.4559 61.5745 39.5198 61.646C39.5989 61.7318 40.3939 62.2975 40.4546 62.3396C40.5126 62.3792 41.3711 62.8528 41.8913 63.1298C41.9099 63.1194 41.5293 63.4312 41.5352 63.4213C41.3523 63.4334 41.2196 63.5173 41.0178 63.5819C40.1147 64.0893 40.6507 65.1447 40.7359 65.8801C40.9086 66.4997 41.1269 67.5756 41.9303 67.676C42.5419 67.7494 43.942 67.3667 44.6821 67.215C44.787 67.0297 45.8601 66.9629 45.8469 66.9779C46.0363 66.9211 46.2903 66.8318 46.3672 66.8463C46.4134 66.8543 46.1995 67.0815 46.0755 67.3134C45.9509 67.5474 45.1806 69.8214 44.4635 71.0327C44.2229 71.5288 44.3369 71.324 44.1904 71.6846V71.6857L45.6436 72.0184L47.9914 66.058L44.0452 62.1755ZM36.7361 66.8088C36.9862 67.2728 37.7068 68.2462 37.7422 68.3014C37.7773 68.3556 37.9324 68.5227 38.1154 68.7273C38.2987 68.9311 38.4559 69.1094 38.5001 69.1612C38.5443 69.2115 38.8878 69.568 38.9764 69.6497C39.0649 69.731 39.1674 69.897 39.2417 69.966C39.496 70.1944 40.432 71.008 40.5224 71.075C40.6128 71.1439 41.0592 71.4432 41.1397 71.4543C41.9437 71.5563 42.3384 71.1157 42.4199 70.9852C42.5022 70.8578 42.5179 70.8028 42.4671 70.6116C42.4661 70.6253 39.3631 68.2939 37.3041 63.8101C37.2244 63.6365 36.5102 62.7717 35.8546 63.2954C35.3163 63.7254 35.7055 64.7557 35.7055 64.7557V64.7616C35.9099 65.1837 36.5222 66.4131 36.7361 66.8088ZM30.6437 67.2507C30.8514 66.474 29.1294 66.6471 29.0052 66.619C28.4684 67.4878 27.8986 70.4389 27.6084 71.821C27.5581 71.9766 27.4905 72.2267 27.4109 72.5501C27.8054 72.9521 28.2104 73.3437 28.6255 73.7243C28.9253 72.5581 30.5887 67.4573 30.6437 67.2507Z" fill="#F5D4B7"/>
<path d="M80.6608 47.0591C80.6608 47.0608 80.662 47.0628 80.662 47.0636C80.662 47.0636 80.662 47.0654 80.663 47.0673C80.662 47.0656 80.662 47.0636 80.662 47.0636C80.6613 47.0622 80.6609 47.0607 80.6608 47.0591Z" fill="#A3080C"/>
<path d="M76.7479 58.1825C75.7876 57.9698 73.5138 57.5134 70.4484 57.2319C67.3849 56.9529 64.8771 56.7135 64.5322 56.6764C64.2169 56.6447 64.1027 56.3558 63.8159 56.2117C62.7776 55.6911 60.8146 55.2076 59.5847 54.7746C59.2806 54.6694 59.0806 54.3998 58.6605 53.8877C58.4052 53.5756 58.2323 53.4345 58.014 53.2366C57.8537 53.0927 57.6895 52.953 57.5218 52.8177C57.4473 52.7574 57.3952 52.5847 57.4596 52.2492C57.524 51.9124 57.7251 50.599 57.7084 49.0697C57.7041 48.6592 57.8848 48.3963 58.0771 48.3003C58.1805 48.2481 58.8534 47.9488 58.8081 47.2873C58.7607 46.6178 58.5537 45.6839 59.0925 44.3695C59.6135 43.0959 60.2643 40.8228 60.343 39.3233C60.4267 37.7303 60.0264 36.7028 59.3981 36.1464C59.1529 35.9314 58.8636 35.6065 59.0998 34.913C59.3519 34.1668 59.8096 32.1288 59.3599 30.7808C59.2589 30.4815 59.1449 30.4795 59.076 30.4433C59.0073 30.4082 58.6807 30.1581 58.5578 29.608C58.3929 28.8828 57.8627 26.3055 55.8638 23.6854C54.8046 22.2944 53.6739 21.4671 53.2223 21.1338C52.9126 20.9324 52.3692 20.5538 51.7192 20.2081C50.7892 19.7164 50.051 19.3412 48.5662 18.8607C48.2753 18.7699 47.9824 18.6853 47.6878 18.6071H47.683C47.683 18.6071 46.418 18.2686 45.0499 18.1089C44.8163 18.0872 44.4966 18.0577 44.1338 18.033C42.7255 17.9506 42.2114 18.0371 41.4791 18.1108C41.4008 18.1184 41.3211 18.1303 41.2424 18.1409C41.0963 18.1604 40.9453 18.183 40.7873 18.2077C38.6113 18.5802 36.3976 19.6008 35.3208 20.1143C34.7129 20.403 34.1752 20.7034 33.6806 20.9851C33.6669 20.9938 33.6494 21.0037 33.6403 21.0092C33.4684 21.1112 33.2944 21.2099 33.1186 21.305C32.8143 21.4767 32.5235 21.6375 32.2417 21.7751C31.3702 22.199 30.6036 22.416 30.0432 22.6104C29.9413 22.6485 29.8561 22.6808 29.79 22.7034C29.386 22.8607 29.1286 23.0233 29.0813 23.2914C28.9951 23.7725 29.5614 24.219 29.3592 24.9864C28.8613 26.8737 26.7311 28.6852 26.3895 28.8941C25.4001 29.4979 25.4619 29.9182 25.4237 30.1332C25.4237 30.333 25.4647 30.5549 25.5785 30.7946C25.9081 31.4932 26.518 32.0918 26.8165 32.7231C27.1158 33.3549 27.2863 34.4622 27.0625 35.7565C26.8488 37.0081 26.7818 37.2858 26.6706 37.5153C26.5601 37.7457 26.3371 38.1932 26.6446 38.7255C26.9534 39.2593 27.6043 39.804 28.0126 40.1172C28.2298 40.2849 28.3423 40.4371 28.1812 40.7394C27.916 41.2342 27.9838 42.4009 28.235 43.0537C28.6143 44.0496 29.0596 44.9988 29.473 45.6089C29.8867 46.2186 30.6249 47.2563 31.059 47.6317C31.4914 48.0095 31.5508 48.6642 31.5423 49.0706C31.5332 49.4748 31.4764 50.6209 32.6542 51.3381C33.2346 51.6948 33.2866 51.6051 33.4994 51.78C33.7122 51.9518 33.8124 52.0411 33.9595 52.5052C34.1067 52.9674 34.7762 54.5884 35.6979 55.7295C35.9669 56.0609 36.1162 56.2958 36.1483 56.3502C36.1808 56.4044 36.2309 56.4646 36.1143 56.7377C35.9983 57.011 35.533 58.5667 35.1617 60.1749C35.0939 60.4696 34.9942 60.8574 34.6243 61.0394C34.2536 61.218 33.4259 61.6755 33.1247 61.8418C32.8217 62.0087 32.6719 62.0993 32.3232 62.5327C32.168 62.7258 32.0551 62.8387 31.9571 62.9564C31.9008 63.0245 31.8759 63.0683 31.5811 63.2219C31.3258 63.3543 27.5369 64.6877 23.5191 67.1456C23.4251 67.2021 23.3301 67.257 23.2343 67.3104C23.4696 67.6799 23.7127 68.0443 23.9636 68.4033C24.8657 67.9473 27.0176 66.8565 27.3559 66.6879C27.6229 66.5533 27.9552 66.5011 28.2237 66.4944C28.3854 66.4913 28.5241 66.5048 28.6123 66.5264C28.7926 66.5707 29.103 66.6394 29.3912 66.7048C29.4179 66.7107 29.4446 66.7174 29.4721 66.723C29.4899 66.7274 29.5074 66.731 29.5258 66.7365C29.6448 66.7659 29.7549 66.7919 29.8438 66.8158C29.8488 66.8177 29.8529 66.8177 29.8579 66.8201C29.901 66.8325 29.9402 66.8429 29.9704 66.852C30.2263 66.9363 30.3624 67.4163 30.2239 67.8533C30.081 68.3441 29.9415 68.836 29.8054 69.3288C29.7322 69.5921 29.6522 69.8819 29.5679 70.1892C29.2436 71.3648 28.9292 72.5431 28.6244 73.7239C29.4264 74.4549 30.2677 75.1431 31.142 75.7896C31.24 75.0325 31.3429 74.2441 31.4227 73.6706C31.6316 72.1743 32.8269 66.6313 33.1643 65.371C33.4099 64.454 33.5376 64.0362 33.8603 63.8916C33.9572 63.8496 34.0672 63.7852 34.131 63.754C34.1947 63.7245 34.3343 63.6907 34.2911 63.9337C34.2417 64.2219 33.9929 65.3981 33.6268 69.2148C33.3726 71.8626 33.3666 74.2077 33.458 75.6182C33.4975 76.2187 33.5076 77.0677 34.4266 76.6994C35.5003 76.2705 39.1605 74.9582 41.1158 74.3557C44.2643 73.3845 50.1655 72.0874 55.8532 71.248L57.4436 71.0219C57.4436 71.0219 58.3749 76.4927 58.5353 77.4409L58.7117 78.4446L58.5368 77.4409C58.3751 76.4927 57.4451 71.0219 57.4451 71.0219C57.6677 70.9911 57.892 70.9627 58.1131 70.9346C58.6224 70.8702 59.1007 70.8102 59.5504 70.7514L61.2117 70.5388C61.9891 70.4393 62.656 70.3539 63.221 70.28C63.221 70.28 64.2949 75.2436 64.6985 77.0267C64.7267 77.1439 64.7507 77.2497 64.7709 77.3384L64.9696 78.2495H64.9726L64.775 77.3384C64.4473 75.9281 63.2245 70.2807 63.2245 70.2807L64.9254 70.0613C65.4282 69.9972 66.0691 69.9168 66.26 69.9077C66.6597 69.8912 66.8339 69.6649 66.529 69.5733C66.3086 69.5089 65.7999 69.4582 65.5424 69.4517L65.1586 69.4467C64.765 69.44 64.6525 69.3622 64.5661 68.7822C64.3209 67.0802 63.3732 62.8624 62.6922 60.6385C62.0333 58.493 61.8706 57.8754 61.7121 57.4029C61.5732 56.9961 61.8422 56.9711 61.9711 56.9768C62.4512 56.9998 63.1161 57.2492 63.3068 57.6597C63.7286 58.5747 66.6157 66.1355 67.7746 68.9543C68.5056 70.73 69.3576 72.8678 70.1621 74.772C70.6777 74.3483 71.1747 73.9018 71.6619 73.4463C70.1642 70.1541 66.8307 62.6955 65.0728 58.9207C65.0014 58.762 64.9374 58.6001 64.881 58.4356C64.8676 58.3985 64.8604 58.3595 64.8597 58.3201C64.8619 58.0793 65.1803 58.0457 65.3378 58.0611C65.9581 58.1233 71.5953 58.495 73.1346 58.6419C74.1502 58.7379 75.1632 58.8929 75.84 59.0138C75.997 59.0429 76.1348 59.0691 76.2516 59.0919C76.3601 59.1122 76.4679 59.1359 76.575 59.163C77.0769 59.2939 77.9627 59.6443 78.783 60.0841C79.122 60.2648 79.5082 60.5282 79.922 60.8457C80.0484 60.4921 80.1689 60.1364 80.2837 59.7789C79.9772 59.5653 79.6593 59.3687 79.3312 59.19C78.3949 58.6907 77.6047 58.3732 76.7479 58.1825ZM30.8481 39.4891C30.6949 39.555 30.5564 39.5725 30.4504 39.3636C30.1934 38.8553 29.9981 37.9503 29.9235 37.3623C29.8468 36.7747 29.7294 35.0209 29.7664 34.0627C29.8074 33.1039 29.6201 32.5682 29.2775 32.1096C28.9339 31.6516 28.7131 31.3336 28.6288 31.1793C28.5228 30.9869 28.5937 30.8553 28.7963 30.7084C28.8947 30.6395 29.0956 30.6809 29.251 30.6486C29.5583 30.5868 30.5846 30.2147 31.3492 29.615C32.1121 29.0153 33.328 27.8553 34.1531 27.4088C34.9756 26.9624 35.3408 26.7589 36.3035 26.6433C36.4743 26.6234 36.7305 26.7146 36.4413 26.9346C36.1524 27.1546 35.2259 27.483 34.1455 29.1132C33.4821 30.1106 33.3739 30.6867 33.1639 31.1343C32.9528 31.5816 32.751 31.7082 32.417 32.0703C32.2545 32.2431 31.9233 32.6061 31.8039 33.1325C31.688 33.6594 31.2083 35.5155 31.4901 38.3228C31.5232 38.6497 31.6578 39.0847 31.3514 39.2429C31.1622 39.341 30.9998 39.4243 30.8481 39.4891ZM32.1711 43.2717C32.0079 43.1558 31.3408 42.2526 31.0159 41.2489C30.9801 41.143 30.9411 40.8733 31.1169 40.7964C31.261 40.7346 31.4524 40.6237 31.5519 40.5764C31.6526 40.5257 31.9038 40.4598 31.9385 40.822C31.9736 41.185 32.0053 41.6128 32.419 42.6837C32.494 42.8751 32.5094 42.9349 32.5289 43.0116C32.5824 43.234 32.3221 43.3792 32.1711 43.2717ZM33.53 39.8612C33.4858 39.8688 33.028 39.9241 32.7812 39.9702C32.6279 39.9984 32.4701 40.0556 32.4526 39.908C32.4316 39.7571 32.4034 39.6072 32.3683 39.4589C32.3551 39.3967 32.385 39.3378 32.4591 39.3202C32.6409 39.2782 33.3436 39.1601 33.4114 39.1566C33.4793 39.1557 33.548 39.1787 33.5774 39.3194C33.6041 39.4605 33.6379 39.6107 33.6459 39.6718C33.6542 39.7346 33.6717 39.8395 33.53 39.8612ZM33.7796 37.5686C33.7374 37.3547 33.6782 36.9884 33.6973 36.7604C33.7038 36.6696 33.7313 36.4425 33.8403 36.32C33.9944 36.1453 34.1992 35.9865 34.3321 35.879C34.5738 35.6811 34.5235 35.1689 34.541 34.8751C34.5943 34.0213 34.5185 31.3254 36.2679 28.7461C36.3356 28.6481 36.4041 28.5577 36.4717 28.4723C36.4923 28.4468 36.5129 28.4231 36.5334 28.398C36.5835 28.3388 36.6338 28.2818 36.6856 28.2292C36.7656 28.1448 36.8501 28.0649 36.9387 27.9897C36.9478 27.9825 36.9559 27.9745 36.9643 27.9671C37.0352 27.9099 37.1063 27.8581 37.1769 27.8089C37.2025 27.7922 37.2281 27.7758 37.2536 27.7608C37.3024 27.7287 37.3516 27.6999 37.4008 27.672C37.4288 27.6568 37.4565 27.6412 37.4851 27.6267C37.5389 27.5991 37.5941 27.5733 37.6488 27.5489C37.6696 27.5402 37.6899 27.5302 37.7105 27.5207C37.7814 27.491 37.8542 27.4645 37.9264 27.4398C37.9574 27.4292 37.9873 27.4203 38.0178 27.4108C38.0664 27.3956 38.1147 27.3811 38.1631 27.3677C38.1795 27.3635 38.1947 27.3577 38.2114 27.3536V27.3555C38.5675 27.2606 38.9327 27.2073 39.3016 27.1446C40.343 26.9678 41.5569 27.1332 42.1813 27.3319C42.6776 27.489 42.929 27.6095 43.095 27.4528C43.2619 27.2968 43.6965 26.8039 43.8809 26.6293C43.9062 26.6045 43.9262 26.5775 43.9398 26.5508C43.9455 26.5417 43.9485 26.5324 43.9526 26.5233C43.9593 26.5057 43.9652 26.4871 43.968 26.4687C43.9691 26.4587 43.9713 26.4481 43.9713 26.437C43.9713 26.4195 43.9691 26.4019 43.9663 26.3833C43.9643 26.3742 43.9643 26.3638 43.9598 26.3547C43.9527 26.3284 43.9414 26.3034 43.9264 26.2807C43.8859 26.2133 43.8215 26.1533 43.7418 26.1054C43.5393 25.9864 41.5068 24.4949 38.7669 24.4281C36.0896 24.3611 33.9166 25.3085 33.3403 25.5068C33.2237 25.546 33.1639 25.5666 33.0954 25.5675C33.0276 25.5694 32.7939 25.4897 32.8804 25.3208C32.9754 25.1405 33.2129 24.8629 33.4597 24.6379C33.7187 24.4045 34.9855 23.212 36.2367 22.6598C36.4682 22.5584 36.5246 22.5161 36.6728 22.4585C36.8622 22.3867 36.9743 21.9598 36.5558 21.9587C36.1269 21.9556 35.9561 22.0038 35.7296 22.0391C35.5027 22.0768 35.378 21.9754 35.5213 21.781C35.6628 21.5872 35.9426 21.3722 36.4476 21.098C37.5441 20.5005 39.5497 19.8707 40.4979 19.6633C41.7344 19.3926 41.8854 19.375 42.706 19.3247C43.4734 19.2805 44.0872 19.3347 44.3776 19.3464C46.836 19.4398 49.6672 20.2534 51.8592 21.6966C53.9431 23.23 56.9427 25.7846 57.537 32.0909C57.6083 32.8477 57.5582 33.2767 57.529 33.4661C57.5032 33.6555 57.2882 34.0038 57.0994 33.6083C56.4776 32.305 55.5162 30.5996 54.4314 28.983C54.3671 28.887 54.3016 28.8408 54.2485 28.8339C54.2282 28.8298 54.2071 28.8323 54.1883 28.841C54.1837 28.844 54.1802 28.849 54.175 28.8525C54.1634 28.8611 54.1534 28.8718 54.1458 28.8841C54.1414 28.8937 54.1365 28.9036 54.1334 28.9138C54.1285 28.9282 54.1251 28.943 54.1234 28.958C54.1213 28.9715 54.1189 28.9843 54.1189 28.9984C54.1189 29.0304 54.1211 29.0658 54.1304 29.1043C54.1575 29.2188 54.5029 30.9288 54.5155 31.167C54.5305 31.4045 54.4143 31.9875 55.2999 33.0634C55.6618 33.5049 55.9828 33.882 56.1477 34.5333C56.3103 35.1822 56.3658 35.4598 56.3666 35.5287C56.3692 35.5966 56.447 35.7899 56.1339 35.7918C55.8222 35.7927 54.6332 35.7064 54.1243 35.7179C53.6148 35.7301 50.0998 36.0749 48.792 36.3527C47.4841 36.631 46.7803 36.9605 46.1087 37.6661C45.947 37.8358 45.721 37.9941 45.6696 38.0086C45.621 38.0222 45.4505 38.0185 45.1171 37.996C44.7851 37.9743 44.2095 38.0558 43.9069 38.1924C43.6026 38.3285 43.3857 38.455 43.0192 38.3057C42.4953 38.0938 41.5968 37.126 39.2636 37.24C37.8592 37.3087 37.1396 37.3471 36.165 37.4912C36.1082 37.5003 36.0495 37.5088 35.9912 37.5179C35.9541 37.524 35.9158 37.5298 35.8778 37.5363C35.8572 37.5393 35.8358 37.5424 35.8141 37.5463C35.4173 37.6111 34.9691 37.6945 34.4158 37.8025C34.339 37.817 34.2636 37.8326 34.1843 37.8475C33.9689 37.8907 33.8197 37.794 33.7796 37.5686ZM55.2635 36.967C55.2635 37.0413 55.1729 37.1182 55.0803 37.1338C54.9889 37.1484 54.3614 37.2058 54.2611 37.2132C54.1625 37.2201 54.066 37.1659 54.0578 37.0732C54.0498 36.9817 54.0294 36.7647 54.0238 36.708C54.0136 36.6546 54.0112 36.5803 54.1391 36.5638C54.2136 36.5547 54.8679 36.496 55.1098 36.4674C55.2 36.4568 55.2591 36.5383 55.2613 36.6174C55.2613 36.6967 55.2613 36.8933 55.2635 36.967ZM52.3274 37.6716C52.1332 37.535 51.7918 37.32 51.5851 37.2446C51.4425 37.1934 51.4921 37.0151 51.6956 36.9867C52.4028 36.8835 52.8564 36.8835 53.2082 37.1033C53.4655 37.2626 53.6362 37.5719 53.5573 37.8445C53.4648 38.1575 53.3423 38.0896 53.1887 38.087C53.035 38.084 52.5192 37.8087 52.3274 37.6716ZM52.7364 39.0513C52.612 39.1351 52.2052 39.0604 52.0573 39.0025C51.7539 38.8835 51.5387 38.8012 51.1169 38.5335C50.8415 38.3588 50.3629 38.2723 49.9438 38.3989C49.6676 38.4824 49.4457 38.5521 49.2025 38.646C48.9589 38.7394 48.9091 38.5175 48.9728 38.4225C49.0357 38.3276 49.4212 37.8762 49.9327 37.6843C50.0402 37.6432 50.2591 37.6206 50.3666 37.6185C50.6963 37.6089 51.1048 37.7697 51.4143 37.9956C51.7262 38.2231 52.2221 38.5942 52.5476 38.7333C52.7 38.799 53.0313 38.8473 52.7364 39.0513ZM42.5684 50.0294C41.3347 50.4614 40.9888 50.0275 40.8789 49.8987C40.7695 49.7702 40.9045 49.6447 41.0352 49.5838C41.3287 49.4473 41.7214 49.1499 41.9197 48.9562C42.1191 48.7628 42.5064 48.0899 42.786 47.8534C42.9186 47.7405 43.6351 47.4969 44.1741 47.7539C44.815 48.0593 45.8128 48.091 46.4255 48.0112C47.0378 47.9289 47.2712 47.4813 47.4041 47.2171C47.5365 46.9505 47.8614 46.853 48.0322 46.7828C48.5023 46.5905 49.1245 45.9455 49.1882 45.8799C49.252 45.812 49.4459 45.7167 49.7543 45.8974C50.3157 46.2273 50.6011 46.6638 51.1221 47.2559C51.6436 47.8484 52.2604 47.941 52.4412 47.9525C52.6219 47.964 52.7346 48.1735 52.7429 48.2312C52.7528 48.2888 52.6022 48.4893 52.4897 48.5736C52.3768 48.6579 52.3146 48.8073 51.3165 48.8309C46.3083 48.9546 44.0547 49.5093 42.5684 50.0294ZM49.3612 50.6322C49.0641 50.7858 48.1802 51.1189 47.7402 51.2037C47.2988 51.2884 45.898 51.5723 45.6616 51.5914C45.3672 51.6142 44.9548 51.526 44.5968 51.281C44.5248 51.2314 44.4271 51.039 44.6882 51.0004C45.1728 50.9284 45.9552 50.5645 48.8014 50.4195C49.1072 50.4039 49.2509 50.3974 49.3241 50.3959C49.3974 50.3944 49.6605 50.4785 49.3612 50.6322ZM42.7673 56.951C41.7734 57.1148 39.1273 56.3385 37.4069 52.0927C36.9634 51.0006 37.4498 49.9139 37.8765 49.6944C38.1297 49.5658 38.2667 49.5136 38.3529 49.4919C38.4465 49.4683 38.8969 49.4096 38.9481 49.9163C38.9886 50.3261 39.7842 53.6911 40.854 54.8038C41.1178 55.0795 41.3263 55.0626 41.3943 54.7778C41.4528 54.5166 41.5681 54.1731 41.6017 54.042C41.6254 53.9475 41.8835 53.6623 42.0298 54.026C42.3445 54.798 42.7242 55.8084 42.9736 56.213C43.2177 56.6077 43.1392 56.8894 42.7673 56.951ZM42.9635 45.8495C43.0569 45.9791 43.1147 46.2147 43.1076 46.3187C43.0981 46.4388 42.6876 46.6566 42.2608 46.1777C41.8339 45.6976 41.9173 45.0342 42.0939 44.7524C42.3757 44.3029 42.9292 44.5268 42.8757 44.6872C42.6908 45.2425 42.8685 45.719 42.9635 45.8495ZM39.7916 39.6321C39.4723 39.6217 39.1288 39.5825 38.546 39.7984C37.8937 40.0394 37.4743 40.3538 37.1709 40.54C36.8592 40.7344 36.5289 40.8179 36.4184 40.8259C36.3085 40.8354 35.908 40.7827 36.1839 40.4928C36.2571 40.4134 36.4329 40.3536 36.6997 40.1592C36.8904 40.0188 37.0317 39.9186 37.2487 39.7359C37.6353 39.4065 38.4234 38.9303 38.7669 38.8881C39.0189 38.8579 39.4645 38.9056 39.7296 39.1226C40.0055 39.3491 40.1115 39.6423 39.7916 39.6321ZM34.3024 40.1978C34.336 39.9889 34.5644 39.4379 35.0458 39.2782C35.1106 39.2587 35.3505 39.1807 35.551 39.1291C35.7564 39.0777 35.9632 39.0325 36.1713 38.9936C36.5196 38.9329 36.5931 39.198 36.3737 39.3707C36.23 39.4852 36.0005 39.6343 35.7976 39.7986C35.4892 40.0508 35.193 40.3313 34.9639 40.5218C34.6849 40.7541 34.233 40.6267 34.3024 40.1978ZM35.9377 46.1972C35.9369 46.1966 35.9363 46.1959 35.9357 46.1952L35.9307 46.1876C35.8442 46.0654 35.7634 45.9392 35.6886 45.8094C35.6728 45.7808 35.657 45.7513 35.6405 45.7229C35.5655 45.5838 35.4953 45.4431 35.44 45.2951C35.3321 45.0084 35.5129 44.9661 35.6334 45.0285C35.7536 45.0929 36.1056 45.2982 36.4816 45.3775C36.7114 45.4247 36.8477 45.3146 36.9017 45.149C36.9097 45.1243 36.9201 45.0938 36.9314 45.0606C36.9379 45.0461 36.9429 45.0305 36.9478 45.0145C36.9509 45.0049 36.9537 44.9949 36.9574 44.9843C36.9621 44.9663 36.9665 44.9488 36.9704 44.9301C36.9736 44.9206 36.9747 44.9106 36.9764 44.9011C36.981 44.882 36.983 44.8634 36.9851 44.8439C36.986 44.8343 36.986 44.8252 36.9871 44.8146C36.9871 44.7956 36.9851 44.7769 36.983 44.7574C36.9819 44.749 36.9808 44.7398 36.9786 44.7318C36.9736 44.7112 36.9663 44.6912 36.9569 44.6722C36.953 44.6662 36.9513 44.6597 36.9483 44.6547C36.9341 44.6312 36.9165 44.6101 36.896 44.5918C36.8642 44.564 36.8276 44.5421 36.7881 44.527C36.4606 44.3955 35.5321 44.1022 34.8349 42.8055C34.7975 42.7429 34.7833 42.6691 34.7947 42.5971C34.8061 42.525 34.8424 42.4593 34.8973 42.4113C34.9654 42.3571 35.2081 42.2023 35.3243 42.1306C35.4418 42.0587 35.6008 42.0669 35.7666 42.1813C35.9259 42.2953 36.2721 42.5474 36.5497 42.5229C36.8076 42.4978 36.8334 42.392 36.8794 42.325C37.0612 42.0597 37.5538 41.0961 38.8449 41.0805C39.3776 41.0736 39.8765 41.1228 40.0551 41.1117C40.2318 41.1003 40.8618 41.0435 41.2329 40.791C41.5983 40.5398 41.7541 40.7205 41.543 40.9954C41.5116 41.0365 41.4832 41.0727 41.4565 41.1089C41.4461 41.1219 41.4381 41.1334 41.4286 41.1456C41.402 41.1808 41.377 41.2172 41.3536 41.2546C41.2732 41.3907 41.2632 41.5086 41.4132 41.6703C41.6488 41.9208 41.7101 41.9657 41.7866 42.0248C41.8213 42.0528 41.8643 42.0684 41.9088 42.0691C41.9284 42.0691 41.95 42.0649 41.9717 42.0591C41.9808 42.0561 41.9897 42.0561 42.0003 42.0522C42.0383 42.0352 42.0736 42.0129 42.1052 41.9858C42.2398 41.8668 42.3302 41.796 42.4476 41.6443C42.535 41.5322 42.6089 41.6451 42.5872 41.8205C42.5701 41.957 42.6314 42.8335 41.6763 43.9111C41.6451 43.9473 41.5725 44.0071 41.4821 44.0838C41.4598 44.1019 41.4379 44.1205 41.4164 44.1395C41.4047 44.1495 41.3928 44.1612 41.3811 44.1711C41.3512 44.1972 41.3215 44.2249 41.2907 44.2535C41.2662 44.276 41.2413 44.3031 41.2164 44.3278C41.1908 44.3534 41.1663 44.377 41.1403 44.4046C41.1247 44.4213 41.1091 44.4408 41.0931 44.4594C41.061 44.4956 41.0283 44.5322 40.9962 44.5723C40.9862 44.5858 40.9767 44.5998 40.9676 44.6126C40.9311 44.6594 40.8967 44.7078 40.8644 44.7576C40.8232 44.8231 40.7861 44.8909 40.7532 44.9609C40.4875 45.5279 40.522 45.7149 40.4931 45.9217C40.4671 46.1265 40.3081 46.208 40.129 46.2908C40.0211 46.3404 39.735 46.5058 39.4179 46.7457L39.4197 46.7442C39.3247 46.8155 39.2281 46.8948 39.1323 46.9767C39.1139 46.9934 39.0961 47.0088 39.079 47.0255C38.9832 47.1098 38.8887 47.1993 38.8013 47.2925C38.7459 47.3506 38.6867 47.405 38.624 47.4553C38.6035 47.4713 38.5844 47.4839 38.564 47.4984C38.5225 47.5285 38.4796 47.5567 38.4355 47.5827C38.4131 47.5958 38.39 47.6077 38.3664 47.6185C38.323 47.6402 38.2799 47.6577 38.2354 47.6731C38.212 47.6811 38.1893 47.6909 38.1659 47.6967C38.1542 47.6998 38.1433 47.7047 38.1327 47.7082C38.1052 47.7143 38.0774 47.7152 38.0499 47.7193C38.0157 47.7253 37.9817 47.7318 37.9468 47.7338C37.9086 47.7357 37.8698 47.7338 37.8304 47.7318C37.7968 47.7282 37.7625 47.7282 37.7298 47.7243C37.6895 47.7182 37.6496 47.7056 37.6102 47.6946C37.5768 47.6859 37.5434 47.679 37.5094 47.667C37.4717 47.6525 37.4344 47.6317 37.3965 47.6133C37.3603 47.5957 37.3256 47.5816 37.2905 47.56C37.2872 47.5574 37.2836 47.5565 37.2805 47.5546C37.2131 47.5117 37.1484 47.4647 37.0868 47.4139C36.8977 47.2515 36.7152 47.0816 36.5397 46.9046C36.5346 46.8993 36.5298 46.8937 36.5252 46.8879C36.4293 46.7909 36.3367 46.6907 36.2476 46.5875C36.24 46.5777 36.028 46.3226 35.9377 46.1972ZM47.4171 66.3342C47.3584 66.6394 47.1093 67.6675 46.1952 69.7841C46.1334 69.9268 46.0734 70.0644 46.0148 70.1972C46.0008 70.2285 45.9862 70.2579 45.9726 70.2896C45.95 70.3403 45.9264 70.3921 45.9041 70.4398C45.9019 70.4441 45.9008 70.4478 45.8991 70.4521C45.8659 70.5258 45.8324 70.5947 45.7981 70.6634C45.7981 70.6634 45.7962 70.6654 45.7962 70.6678C45.7918 70.6758 45.7871 70.6847 45.7816 70.6936C45.7695 70.7176 45.7569 70.741 45.745 70.7638C45.7285 70.7943 45.7129 70.8271 45.6954 70.8565C45.6954 70.8598 45.6943 70.8609 45.6934 70.8622C45.689 70.8686 45.6849 70.8754 45.6813 70.8823L45.6421 70.9506C45.6399 70.9547 45.6371 70.9584 45.6349 70.9627V70.9649C45.6232 70.9818 45.613 70.9989 45.6028 71.015C45.5998 71.0206 45.597 71.0271 45.5937 71.0319C45.5918 71.034 45.5903 71.0364 45.5872 71.0397C45.5736 71.0624 45.5586 71.0841 45.5443 71.1077C45.5411 71.1112 45.5382 71.1136 45.5363 71.1168C45.5198 71.1409 45.5031 71.1645 45.4869 71.1871C45.486 71.1871 45.4834 71.1916 45.4806 71.1927C45.4667 71.2122 45.4518 71.2313 45.4375 71.2493C45.4331 71.2538 45.4305 71.2573 45.4275 71.2594C45.411 71.2818 45.3935 71.2991 45.3781 71.3182C45.3757 71.3182 45.3735 71.3212 45.3718 71.3236C45.3627 71.3327 45.3521 71.3418 45.343 71.3518H45.3421C45.3372 71.3578 45.3316 71.3631 45.3254 71.3678C45.3224 71.3711 45.3176 71.3734 45.3144 71.378C45.2968 71.3938 45.2801 71.4096 45.2626 71.4211C45.2606 71.4231 45.2595 71.4242 45.2567 71.4257C45.2413 71.438 45.2251 71.4492 45.2082 71.4593C45.2042 71.4623 45.2 71.465 45.1956 71.4673L45.1876 71.4718C45.1841 71.4749 45.1811 71.4764 45.178 71.4764C45.1659 71.4844 45.1533 71.4913 45.1408 71.4989C45.1408 71.4989 45.1388 71.4989 45.1366 71.4998C45.1206 71.5087 45.103 71.5145 45.0844 71.521C45.0801 71.5232 45.0757 71.5254 45.0708 71.5269C45.0512 71.5325 45.0326 71.5382 45.012 71.5429C44.8222 71.5837 44.6191 71.6129 44.5003 71.6335C44.4828 71.6353 44.3612 71.6556 44.3512 71.6591C44.3016 71.6663 44.248 71.6743 44.1906 71.6842V71.6832C42.8185 71.914 39.0861 72.5568 37.3549 72.9068C36.2064 73.1361 36.3193 72.5577 36.0311 71.5135C35.9099 71.0748 35.4834 67.1918 35.7051 64.7544C35.7794 63.9452 35.815 63.7081 35.9602 63.6188C36.1052 63.5293 36.3273 63.3847 36.3941 63.3656C36.4591 63.3485 36.657 63.2963 36.7493 63.4627C36.8397 63.6276 38.5159 67.0282 39.6115 68.2601C40.5835 69.3576 41.2669 70.1539 42.0863 70.6888C42.1405 70.725 42.1871 70.7473 42.2294 70.7612C42.2335 70.7631 42.2385 70.7657 42.2433 70.7668C42.2628 70.7727 42.2803 70.7757 42.297 70.7781C42.3135 70.7802 42.3287 70.7792 42.3432 70.7781C42.3475 70.777 42.3512 70.777 42.3555 70.7757C42.3804 70.7706 42.4031 70.758 42.4208 70.7397L42.4279 70.7317C42.4439 70.7115 42.4549 70.6879 42.4602 70.6628C42.4613 70.6584 42.4613 70.6537 42.4613 70.6493C42.4838 70.5228 42.4236 70.331 42.3033 70.2009C42.1225 70.0061 41.3737 69.2356 40.3874 67.8323C39.1115 66.0215 38.2469 63.3485 38.0144 62.4924C37.8622 61.9319 37.7768 61.0481 37.7909 60.3428H37.789C37.7901 60.3116 37.7909 60.2845 37.7927 60.2546L37.7959 60.1872C37.799 60.0766 37.8072 59.9662 37.8204 59.8563C37.8237 59.8303 37.8273 59.8069 37.8304 59.7817L37.8492 59.6621C37.8533 59.6396 37.8577 59.619 37.8629 59.5988C37.8739 59.5446 37.8865 59.4946 37.9021 59.4508C38.1006 58.8836 38.2664 58.9445 38.442 59.1346C38.618 59.3264 40.2019 60.764 42.8133 61.9339C43.3679 62.1823 43.6986 62.2963 43.7743 62.378C43.849 62.4571 43.9685 62.6253 43.7311 62.681C43.4966 62.7364 42.8 62.7612 42.0707 63.0494C42.0285 63.0665 41.9895 63.0836 41.9537 63.0995C41.6986 63.2137 41.579 63.3288 41.5248 63.4521C41.5143 63.4761 41.5061 63.5011 41.5003 63.5266C41.4958 63.5436 41.4916 63.5637 41.4897 63.5819C41.4864 63.6099 41.4853 63.6381 41.4864 63.6662C41.4864 63.6846 41.4853 63.7037 41.4873 63.7228C41.4895 63.7588 41.4934 63.7952 41.4973 63.8335C41.5059 63.8979 41.5148 63.9642 41.5213 64.0368C41.5599 64.4326 41.6284 64.715 41.6787 65.2443C41.7279 65.7755 41.6973 66.2555 41.9563 66.4796C42.2144 66.7007 42.5668 66.832 43.5081 66.6493C44.4011 66.4751 44.6984 66.3992 44.8042 66.3962C44.908 66.3927 45.1587 66.3509 45.0055 66.6433C44.991 66.6714 44.9719 66.7055 44.9494 66.7469C44.7435 67.1134 44.2448 67.9393 44.0749 68.4896C43.8865 69.0962 43.8484 69.264 43.8319 69.3676C43.8167 69.4718 43.8887 69.6727 44.074 69.448C44.2589 69.2228 44.6249 68.3843 45.5445 67.3167C45.6569 67.187 45.7711 67.0591 45.8872 66.9328C45.8881 66.9328 45.8891 66.9306 45.8913 66.9283C45.9745 66.839 46.0519 66.7577 46.1258 66.6831C46.1464 66.6619 46.1659 66.6428 46.1856 66.6244L46.362 66.4536C46.489 66.3343 46.623 66.2226 46.7632 66.1192C46.7736 66.1133 46.7827 66.1066 46.7923 66.1001C46.8319 66.0707 46.8712 66.0444 46.9073 66.0228C46.9173 66.0171 46.9279 66.0098 46.9379 66.0026C46.9741 65.9801 47.0083 65.9619 47.04 65.9441C47.045 65.9398 47.0528 65.9361 47.0584 65.933C47.0627 65.9317 47.0656 65.9287 47.0684 65.9272C47.1057 65.9103 47.1366 65.8921 47.1683 65.8775C47.4251 65.7518 47.4949 65.9274 47.4171 66.3342ZM48.9394 71.007C48.792 71.041 48.1555 71.1376 48.0571 71.1392C47.9602 71.1415 47.8779 71.0509 47.9191 70.9812C47.96 70.9131 48.3982 70.3429 48.639 69.3502C48.6798 69.1886 48.7808 69.0759 48.8465 69.3084C48.8972 69.4781 49.0937 70.3219 49.139 70.6394C49.1458 70.6949 49.1798 70.9506 48.9394 71.007ZM49.2064 62.9131C48.7881 63.07 48.323 62.5999 47.9466 62.3487C47.1005 61.7702 46.322 61.2128 45.6832 60.4324C44.7049 59.2379 44.7964 58.4053 45.0805 56.8623C45.278 55.7661 44.9199 54.7358 44.8419 54.5906C44.7645 54.4449 44.8519 54.2971 45.0833 54.4055C45.3146 54.5143 45.5359 54.8517 45.7734 55.1411C46.009 55.4304 46.0612 55.2247 46.0807 55.0281C46.1258 54.5743 46.0235 54.2108 45.9669 54H45.9656C45.9625 53.9887 45.9599 53.9774 45.9578 53.9659C45.9247 53.8402 45.8076 53.56 45.5614 53.5091C45.2316 53.4397 44.9073 53.4104 44.7313 53.2839C44.6494 53.2251 44.5562 53.1044 44.6486 53.0162C44.8165 52.8534 45.0606 52.6376 45.2925 52.5583C45.6078 52.4499 45.911 52.285 46.3105 52.2871C49.0062 52.3042 49.7331 51.6805 50.7637 51.2531C50.9657 51.1681 51.0866 51.1306 51.2598 51.1848C51.4338 51.2371 51.905 51.4141 52.0237 51.6235C52.1432 51.8337 52.1642 52.7095 52.3946 53.3413C52.6215 53.975 53.0079 53.3183 53.0929 53.0472C53.1742 52.7748 53.206 52.1272 53.2104 51.9633C53.2147 51.7995 53.2624 51.1085 53.4791 50.8755C53.91 50.4154 54.0116 49.871 54.0636 49.6582C54.1098 49.4672 54.1462 48.9334 54.0515 48.1751C54.0413 48.0816 54.0277 47.9837 54.011 47.8833C53.8653 46.9687 53.6813 46.8914 53.4332 46.7251C53.1846 46.5593 52.9238 46.6313 52.2908 46.1974C51.7244 45.8077 51.2101 45.1267 50.781 44.7112C50.3536 44.2964 49.6783 43.8792 48.9657 43.8057C48.9255 43.8022 48.8852 43.8005 48.8449 43.8007H48.8369C48.8053 43.8027 48.7754 43.8051 48.7498 43.8103C48.7448 43.8112 48.7418 43.8133 48.7361 43.8146C48.7154 43.8182 48.695 43.824 48.6754 43.8317C48.6709 43.8354 48.6659 43.8383 48.6605 43.8404C48.6468 43.8484 48.6334 43.856 48.6223 43.8649C48.6174 43.8699 48.6132 43.8749 48.6078 43.8805C48.5994 43.8884 48.5922 43.8973 48.5862 43.9072C48.5812 43.9141 48.5781 43.9228 48.5738 43.9308C48.5708 43.9395 48.5662 43.9464 48.5643 43.9544C48.5605 43.9669 48.5578 43.9796 48.5562 43.9926C48.5562 43.9975 48.5554 44.0017 48.5554 44.0071C48.5543 44.0246 48.5543 44.0428 48.5562 44.0613H48.5554C48.5699 44.2375 48.6969 44.4525 48.7292 44.5409C48.7743 44.661 48.8883 45.0281 48.6861 45.242C48.4823 45.4559 47.2912 46.5216 46.1757 46.4949C45.6715 46.4835 45.2509 46.3799 44.8978 46.2292C44.8995 46.2308 44.901 46.2326 44.9021 46.2347C44.8872 46.2281 44.8746 46.2201 44.859 46.213C44.777 46.1768 44.6967 46.1369 44.6184 46.0933C44.6063 46.0864 44.5918 46.0803 44.5781 46.0728C44.4961 46.0253 44.4164 45.9738 44.3393 45.9187L44.2734 45.8692C44.2178 45.8272 44.1638 45.7829 44.1117 45.7366C44.0968 45.7229 44.0794 45.7095 44.0645 45.6963C44.0038 45.6384 43.9474 45.5819 43.8948 45.5255C43.8818 45.5099 43.8703 45.4954 43.8571 45.4813C43.8165 45.4347 43.7799 45.3883 43.7441 45.3432C43.7331 45.3287 43.7225 45.3157 43.7125 45.301C43.6743 45.2479 43.638 45.1935 43.6037 45.1378C43.5994 45.1313 43.5972 45.1263 43.5931 45.1202C43.5655 45.0725 43.5419 45.0272 43.5211 44.9861C43.5161 44.975 43.5107 44.965 43.5055 44.9533C43.4865 44.9131 43.4698 44.8719 43.4554 44.8298C43.2927 44.3402 43.6969 43.1831 43.6826 42.3545C43.6776 41.9915 43.6026 41.2949 43.5469 40.8116C43.4914 40.328 43.7463 39.6772 43.8649 39.5194C43.8974 39.4807 43.9355 39.4469 43.9778 39.4191C43.9895 39.4104 44.0025 39.4035 44.0148 39.3954C44.058 39.3673 44.1074 39.3406 44.1633 39.3161L44.188 39.3036C44.2426 39.281 44.3009 39.2574 44.3644 39.2368V39.2398C44.4685 39.2041 44.5805 39.1709 44.7032 39.1434C45.1004 39.055 45.5649 39.2515 45.6843 39.5795C46.0996 40.7234 46.5597 40.965 46.7138 41.0398C46.8703 41.1161 47.1161 40.8896 47.2125 40.8062C47.3094 40.7253 47.5428 40.4184 47.4392 40.2838C47.2795 40.0795 47.1919 39.954 47.1458 39.8263C47.0675 39.6104 47.3497 39.6059 47.4164 39.636C48.2667 39.9962 48.6739 40.0719 49.4971 40.0443C50.3189 40.0188 51.5968 39.4774 51.755 39.4743C51.884 39.4713 52.1388 39.5506 52.2344 39.6833C52.2502 39.7058 52.2717 39.7379 52.2918 39.7695C52.3744 39.892 52.485 40.0563 52.5831 40.0905C52.5877 40.0914 52.5903 40.0935 52.5942 40.0946C52.716 40.1248 53.006 40.1026 53.1596 40.1091C53.3675 40.1163 53.7281 40.0443 53.7179 40.426C53.6952 41.4451 52.8896 42.0808 52.8163 42.1425C52.7879 42.1681 52.7719 42.2008 52.7576 42.234C52.7533 42.2431 52.7457 42.2526 52.7442 42.2626C52.7341 42.2964 52.7334 42.3324 52.742 42.3666C52.7611 42.4273 52.8482 42.6473 52.8855 42.7071C52.8987 42.7288 52.9147 42.7494 52.9353 42.7689C52.9401 42.7739 52.9488 42.778 52.9544 42.7834C52.9704 42.7955 52.9863 42.807 53.0045 42.815C53.0136 42.82 53.0259 42.8211 53.0363 42.8246C53.0544 42.8296 53.0731 42.8319 53.0918 42.8315C53.1039 42.8315 53.1189 42.8274 53.131 42.8246C53.1614 42.8181 53.1893 42.812 53.2214 42.7925C53.9041 42.3842 54.182 41.9015 54.4791 41.2949C54.7754 40.6911 54.9312 38.6969 54.9481 38.3699C54.965 38.0404 55.0688 37.838 55.2305 37.7056C55.3909 37.5725 56.1885 37.0617 56.301 37.0357C56.4154 37.009 56.5461 36.998 56.6748 37.2953C56.8057 37.5946 57.0905 39.4332 57.1447 39.7158C57.206 40.0162 57.3619 39.9804 57.4401 39.9228C57.6107 39.7981 57.7342 39.6449 57.8864 39.384C58.0433 39.1228 57.9282 38.7626 57.7758 38.5948C57.6254 38.4262 57.3868 38.1568 57.4884 37.8894C57.7195 37.2817 58.205 37.3122 58.335 37.3339C58.4629 37.3556 58.9546 37.5771 59.0437 38.9013C59.1722 40.8629 58.3723 42.8913 58.1813 43.4056C57.7598 44.5491 57.6711 45.3276 57.6061 45.6982C57.5426 46.0673 57.2624 46.0006 57.1952 45.9408C57.1271 45.8812 57.0394 45.5953 56.9962 45.553C56.9522 45.5108 56.8415 45.5324 56.7691 45.8473C56.6969 46.1616 56.4561 46.5981 56.3146 46.8357C56.2201 46.9897 56.2379 47.2108 56.2604 47.3825C56.3027 47.716 56.4763 48.9921 56.4234 50.4429C56.3272 53.0242 55.4642 54.6502 54.8205 55.5013C53.3059 57.5041 51.8857 58.3411 51.7151 58.4599C51.4958 58.6127 51.1293 58.5888 51.0066 58.5483C50.882 58.5132 50.7726 58.3842 50.5396 58.2182C50.5205 58.2033 50.5014 58.1952 50.4854 58.1866C50.3003 58.101 50.2725 58.3617 50.2743 58.4295C50.2765 58.5019 50.3883 58.77 50.4518 59.0301C50.5727 59.5204 50.3003 60.1127 50.0201 60.5804C49.6202 61.2416 49.1739 61.9686 49.2671 62.7672C49.2663 62.8383 49.2663 62.8901 49.2064 62.9131ZM62.0409 63.6766C62.2691 64.9887 62.5259 66.5876 62.8159 68.5475C62.8311 68.6511 62.8422 68.7395 62.8502 68.8219C62.8523 68.832 62.8545 68.8435 62.8545 68.8533C62.8625 68.9304 62.8669 69.0013 62.8669 69.059C62.8669 69.065 62.8658 69.0704 62.8658 69.075C62.8658 69.101 62.8658 69.1292 62.8636 69.1517C62.8607 69.1719 62.8569 69.1919 62.8523 69.2118C62.8523 69.2196 62.8502 69.2276 62.8502 69.2347C62.8417 69.2712 62.8276 69.306 62.8083 69.3381C62.8062 69.3427 62.8025 69.3461 62.7982 69.352C62.7819 69.3742 62.7625 69.3939 62.7405 69.4105L62.7193 69.4265C62.6896 69.4451 62.6577 69.46 62.6243 69.4708C62.6155 69.4749 62.6022 69.4762 62.5905 69.4807C62.5621 69.4898 62.5316 69.4978 62.4978 69.5069C62.4767 69.5115 62.4559 69.515 62.4347 69.5206L62.2934 69.5486C62.2006 69.5676 62.0652 69.5871 61.9711 69.5947C61.8083 69.6108 61.6185 69.6268 61.4117 69.645C59.4128 69.8279 55.5008 70.2245 52.3671 70.6192C52.3081 70.6249 52.2476 70.6314 52.1833 70.6415C51.939 70.6758 51.7977 70.637 51.7782 70.3973C51.7635 70.1773 51.3965 68.0017 50.289 66.1485C50.1874 65.9772 50.0798 65.8095 49.9665 65.6456C49.8402 65.4636 50.0279 65.3251 50.2064 65.3882C50.7084 65.5644 52.0985 66.2007 54.0814 67.6199C54.5877 67.9816 54.7192 68.0941 54.8328 68.1905C54.848 68.2037 54.8714 68.2165 54.892 68.2267C54.9 68.2308 54.9091 68.2326 54.9191 68.2367C54.9325 68.2417 54.9505 68.2469 54.9674 68.2508C54.9767 68.2527 54.9856 68.2549 54.9945 68.2553C55.0136 68.2577 55.0326 68.2586 55.05 68.2577H55.0714C55.0938 68.2548 55.1153 68.2474 55.1347 68.236C55.1809 68.207 55.2021 68.1506 55.1661 68.0533C55.0428 67.7057 54.3796 67.0228 52.683 65.4484C52.441 65.2247 52.4371 65.13 52.6878 65.1038C52.9377 65.0802 53.618 65.1107 53.9795 65.0958C54.3423 65.0802 55.1516 65.0574 54.993 63.9983C54.8714 63.1777 54.7762 62.329 54.7611 62.075C54.7476 61.8218 54.703 61.3483 54.1104 61.2815C53.5216 61.2139 52.5346 61.3507 51.649 61.661C51.4048 61.746 51.3185 61.6331 51.4993 61.4681C51.6791 61.3043 53.234 60.2926 54.5589 58.7713C56.0155 57.0962 56.656 55.8636 57.0196 54.7427C57.0855 54.5437 57.1694 54.6116 57.2507 54.6569C57.3311 54.7046 57.8777 55.1463 58.0714 56.2327C58.2611 57.3214 58.6378 58.8322 57.9741 62.7997C57.6092 64.9731 57.1636 66.2568 57.0597 66.5633C56.9557 66.8665 57.1343 67.0375 57.335 66.7655C57.8031 66.1264 58.4223 64.3548 58.9447 62.3179C59.459 60.3082 59.6454 58.5849 59.7242 57.4807V57.4796C59.7323 57.3782 59.7392 57.2828 59.7442 57.1913L59.7477 57.1543C59.752 57.065 59.7565 56.9789 59.7624 56.9022C59.7624 56.855 59.7682 56.8177 59.7763 56.7837C59.7784 56.7735 59.7821 56.7655 59.7854 56.7566C59.7901 56.7414 59.7945 56.7247 59.7999 56.7124C59.7999 56.7102 59.8025 56.7102 59.8025 56.708C59.8116 56.6911 59.8225 56.6752 59.835 56.6606C59.8387 56.6564 59.8411 56.6525 59.8443 56.6504C59.8541 56.6415 59.8634 56.6374 59.8723 56.6326C59.8794 56.6294 59.8861 56.6246 59.8929 56.6222C59.8985 56.6213 59.9028 56.6213 59.9087 56.6203C59.92 56.6181 59.931 56.6159 59.9408 56.6159C59.9447 56.6159 59.9486 56.6159 59.9535 56.6181H59.9687C59.9726 56.6181 59.9746 56.6213 59.9765 56.6213C60.0171 56.6283 60.0537 56.6443 60.0821 56.6564C60.1859 56.697 60.6436 56.8292 60.882 57.928C60.8922 57.9722 60.9024 58.0203 60.9141 58.068C60.9163 58.0841 60.9195 58.1021 60.9241 58.1181C60.9353 58.1623 60.9455 58.2065 60.9559 58.2548L60.9583 58.2629C61.1562 59.1274 61.5147 60.6222 62.0409 63.6766Z" fill="black"/>
<path d="M53.5898 65.5488H53.8126V66.1173H53.9472V65.5488H54.1694V65.4346H53.5898V65.5488ZM54.6525 65.9227L54.4806 65.4346H54.2869V66.1173H54.4115V65.5679L54.6013 66.1173H54.7108L54.8976 65.5679V66.1173H55.022V65.4346H54.8283L54.6525 65.9227Z" fill="black"/>
</g>
<defs>
<clipPath id="clip0_11777_491">
<rect width="64" height="64" fill="white" transform="translate(18 18)"/>
</clipPath>
</defs>
</svg>
