<svg id="Group_2148" data-name="Group 2148" xmlns="http://www.w3.org/2000/svg" width="71.36" height="20.551" viewBox="0 0 71.36 20.551">
  <path id="Path_18146" data-name="Path 18146" d="M336.241,553.746a18.629,18.629,0,0,0,5.315-1l-.968,4.164a35.622,35.622,0,0,1-7,.756c-8.379.042-11.985-4.264-12.006-8.735-.017-5.985,6.416-11.954,16.774-11.813a20.744,20.744,0,0,1,5.7.885l-1.37,4.914h-.7c-.853-1.121-2.155-1.966-4.725-1.966-5.242,0-8.494,2.872-8.479,6.707.013,3.462,3,6.106,7.462,6.084" transform="translate(-275.061 -537.12)" fill="red"/>
  <path id="Path_18147" data-name="Path 18147" d="M258.358,537.818l-.321,1.3a1.58,1.58,0,0,1,1.373,2.189l-4.516,16.422,9.031.013.338-1.413a1.588,1.588,0,0,1-1.247-1.962c.033-.137,1.323-4.869,1.323-4.869l4.145-.013a3.165,3.165,0,0,1,2.734,1.082l1.2-4.875h-6.972l1.034-3.831,6.06,0c1.111,0,1.9.744,1.9,1.294h.684l1.336-5.334h-18.1" transform="translate(-227.465 -537.618)" fill="red"/>
  <path id="Path_18148" data-name="Path 18148" d="M183.128,554.777c-.537-.567-5.187-7.812-5.187-7.812l8.5-6.8a3.516,3.516,0,0,1,2.447-1.061l.336-1.31-10.567.008-.331,1.3c.721.042,1.727.684.9,1.449-.1.095-8.49,6.5-8.49,6.5l1.809-6.547a2.088,2.088,0,0,1,1.725-1.4l.331-1.307-10.087,0-.327,1.3a1.581,1.581,0,0,1,1.386,2.2c-3.372,12.165-2.982,10.962-3.2,11.628-.923,3.508-2.409,3.335-2.946,3.372l-.348,1.413h10.551l.357-1.422s-1.68-.336-1.357-1.549c.315-1.2,1.644-5.985,1.644-5.985a75.065,75.065,0,0,0,4.458,6.328c2.2,3.036,4.556,2.642,10.8,2.642l.348-1.413a3.827,3.827,0,0,1-2.74-1.533" transform="translate(-159.075 -537.597)" fill="red"/>
  <path id="Path_18149" data-name="Path 18149" d="M402.166,537.527a.814.814,0,0,0,0,1.141.769.769,0,0,0,.575.252.786.786,0,0,0,.581-.252.822.822,0,0,0-.581-1.393.8.8,0,0,0-.575.252m1.245,1.237a.909.909,0,0,1-.671.279.945.945,0,0,1,0-1.885.921.921,0,0,1,.671.275.908.908,0,0,1,.275.669.9.9,0,0,1-.275.663m-.5-1.024a.465.465,0,0,0-.218-.033h-.155v.369h.164a.377.377,0,0,0,.172-.025.15.15,0,0,0,.107-.156.159.159,0,0,0-.069-.155m-.193-.164a.762.762,0,0,1,.283.04.245.245,0,0,1,.159.255.21.21,0,0,1-.1.2.3.3,0,0,1-.151.054.239.239,0,0,1,.176.1.3.3,0,0,1,.063.158v.082a.384.384,0,0,0,0,.073c0,.033,0,.053,0,.063l.008,0H403l0,0v-.013l0-.044v-.076a.271.271,0,0,0-.1-.246.471.471,0,0,0-.2-.032h-.142v.413h-.185v-1.036Z" transform="translate(-332.326 -537.147)" fill="red" fill-rule="evenodd"/>
</svg>
