<svg xmlns="http://www.w3.org/2000/svg" width="121.868" height="34.82" viewBox="0 0 121.868 34.82">
  <g id="Group_104839" data-name="Group 104839" transform="translate(-8924.27 -1790.787)">
    <path id="Path_18165" data-name="Path 18165" d="M368.708,442.184a1.791,1.791,0,1,0,1.791,1.791,1.763,1.763,0,0,0-1.791-1.791Zm0,.312h0a1.48,1.48,0,1,1,0,2.959,1.416,1.416,0,0,1-1.4-1.48,1.46,1.46,0,0,1,1.4-1.479Zm-.623.468v2.025h.311v-.858h.312l.545.857h.389l-.623-.857c.39-.078.545-.234.545-.622s-.234-.545-.7-.545Zm.311.856V443.2h.39c.311,0,.468.156.468.312,0,.234-.156.311-.39.311Z" transform="translate(8672.838 1377.81)" fill="#384f53" fill-rule="evenodd"/>
    <path id="Path_18166" data-name="Path 18166" d="M246.818,441.588a2.975,2.975,0,0,0-3.115,2.881,3.154,3.154,0,1,0,6.308,0,3.048,3.048,0,0,0-3.193-2.881Zm0,1.4a1.6,1.6,0,1,1,0,3.193,1.663,1.663,0,0,1-1.636-1.713A1.682,1.682,0,0,1,246.818,442.989Z" transform="translate(8699.255 1377.939)" fill="#384f53" fill-rule="evenodd"/>
    <path id="Path_18167" data-name="Path 18167" d="M265.148,441.689v2.959c0,.7-.078,1.557-1.013,1.557s-1.013-.856-1.013-1.557v-2.959h-1.48V444.8a2.539,2.539,0,0,0,.623,2.1,3,3,0,0,0,1.869.623,3.165,3.165,0,0,0,1.87-.623,2.833,2.833,0,0,0,.622-2.1v-3.115Z" transform="translate(8695.409 1377.916)" fill="#384f53" fill-rule="evenodd"/>
    <path id="Path_18168" data-name="Path 18168" d="M281.016,444.237v1.093h1.091a1.1,1.1,0,0,1-1.246,1.089,1.657,1.657,0,0,1-1.479-1.791c0-.856.544-1.87,1.479-1.87a1.41,1.41,0,0,1,1.246,1.013l1.4-.7a2.741,2.741,0,0,0-2.57-1.479,3.038,3.038,0,0,0-.078,6.076,3.076,3.076,0,0,0,2.414-1.089,4.2,4.2,0,0,0,.545-2.258l-2.8-.078Z" transform="translate(8691.923 1377.937)" fill="#384f53" fill-rule="evenodd"/>
    <path id="Path_18169" data-name="Path 18169" d="M296.827,443.946v-2.258h-1.48v5.76h1.48V445.19h2.1v2.258h1.48v-5.76h-1.48v2.258Z" transform="translate(8688.183 1377.916)" fill="#384f53" fill-rule="evenodd"/>
    <path id="Path_18170" data-name="Path 18170" d="M312.1,447.453h1.48v-3.5h0l2.726,3.5h1.479v-5.76h-1.479v3.582h0l-2.726-3.582H312.1Z" transform="translate(8684.591 1377.914)" fill="#384f53" fill-rule="evenodd"/>
    <path id="Path_18171" data-name="Path 18171" d="M333.041,441.689v3.038c0,.779,0,1.479-1.013,1.479-.934,0-1.013-.7-1.013-1.479v-3.038h-1.479v3.27a2.646,2.646,0,0,0,.623,2.026,2.79,2.79,0,0,0,1.869.7,2.848,2.848,0,0,0,1.947-.7,2.606,2.606,0,0,0,.545-2.026v-3.27Z" transform="translate(8680.86 1377.916)" fill="#384f53" fill-rule="evenodd"/>
    <path id="Path_18172" data-name="Path 18172" d="M348.2,443.012h1.636v-1.324H345.01v1.324h1.635v4.439H348.2v-4.439Z" transform="translate(8677.534 1377.916)" fill="#384f53" fill-rule="evenodd"/>
    <path id="Path_18173" data-name="Path 18173" d="M363.949,441.974a6.064,6.064,0,0,0-1.791-.389,1.882,1.882,0,0,0-1.947,1.947c0,1.091.623,1.246,1.558,1.635.312,0,.856.156.856.623,0,.312-.311.545-.7.545a2.32,2.32,0,0,1-1.324-.623l-.623,1.246a4.838,4.838,0,0,0,2.025.7,3.158,3.158,0,0,0,1.636-.544,2.444,2.444,0,0,0,.545-1.636c0-.856-.623-1.324-1.4-1.558l-.39-.078c-.234-.078-.623-.234-.623-.545a.6.6,0,0,1,.623-.545,1.737,1.737,0,0,1,1.013.468l.545-1.246Z" transform="translate(8674.325 1377.939)" fill="#384f53" fill-rule="evenodd"/>
    <path id="Path_18174" data-name="Path 18174" d="M332.052,419.884c1.635.078,3.581-.856,3.971-1.636s.234-2.18-.856-2.18C334.232,416.069,332.44,416.847,332.052,419.884Zm6.307,2.725c-3.115,4.205-7.632,3.66-8.723-.234-.779,1.479-1.869,3.038-3.893,3.271-2.414.156-2.648-2.18-2.414-3.5a38.792,38.792,0,0,1,1.713-4.673c.623-1.947-1.4-.935-2.492.934-.856,2.258-2.726,7.242-2.726,7.242a21.673,21.673,0,0,0-3.115-.156c.234-1.246,2.025-5.14,3.038-8.021.7-1.947-1.4-.856-2.57,1.091l-.078.156-2.8,6.93h-3.271L312.038,423a4.833,4.833,0,0,1-1.091,1.091c-4.205,2.959-6.23.779-6.853-1.323-1.168,1.479-2.648,2.881-3.893,2.725-2.414-.078-1.869-3.66-1.4-4.828,1.091-3.193,2.258-4.361.079-4.439-.39,0-3.038,10.124-7.865,10.669-4.438.312-2.726-3.115-1.947-5.14,1.168-3.271,2.414-4.906,1.791-6.076-.467-1.013-3.193.935-3.971,3.038-1.091,2.648-3.27,8.177-3.27,8.177l-4.128.156s3.427-8.645,6.773-17.444c1.091-2.8-.623-2.881-1.869-2.8-1.091.078-.7-.857.078-1.013,4.051-.312,5.451-.156,5.919.156a1.515,1.515,0,0,1,.623,1.791c-.7,1.947-2.025,5.3-2.258,5.841-.545,1.791.623.156,1.013-.312a47,47,0,0,0,3.348-3.971c.545-.623,2.882-2.959,4.361-2.959,1.4,0,39.638-.078,40.65,0a4.041,4.041,0,0,0,2.959-1.168c.312-.234.7-.234.7.156-.078.078-2.025,4.595-4.672,4.595H296.074c-.856,0-2.648,1.013-3.972,2.648-1.246,1.479.312.935.312.935,2.336-.234,4.439-.779.779,7.242-3.5,7.71,1.713,4.128,4.75-5.217.156-.312-.779-.7-.779-1.4-.078-.857-.312-1.713,1.168-1.713,1.4,0,.934,1.4,2.1,1.713,2.414.779,3.738,0,2.492,3.193-1.246,2.881-2.57,6.541-1.013,6.152,1.325-.312,1.713-1.636,1.947-2.181v-.311c.234-3.038,2.025-5.763,3.583-6.386,3.659-1.635,5.064.468,4.905,2.414-.156,2.336-2.8,3.972-5.84,4.051-.078-.078-.078,0,0,.467.468,3.426,4.361,1.479,6.463-.779l2.648-6.7,3.348-.078-.779,2.025c2.492-2.959,5.14-2.181,4.906.466l.078-.156c2.881-3.738,6.152-2.336,4.984,1.091-.156.467-1.791,5.064-1.791,5.064s-.466,1.558.545,1.558c.779,0,1.947-1.558,2.492-2.959v-.078a7.225,7.225,0,0,1,3.193-6.386c3.66-1.557,5.218.545,5.218,2.414,0,2.336-2.648,3.972-5.685,4.051-.077-.078-.077,0,0,.467.779,4.127,4.906,1.4,5.451.623,1.558-1.791,1.48-.545.779.466Zm-31.85-2.725c1.636.078,3.583-.856,3.971-1.636.467-.779.39-2.18-.7-2.18C308.923,415.991,307.132,416.847,306.509,419.884Zm-57.626-11.759a1.674,1.674,0,1,1,1.674,1.675,1.679,1.679,0,0,1-1.674-1.675Zm20.481,20.715a6.26,6.26,0,0,0,2.336-2.57,9.288,9.288,0,0,0-2.725,1.48C268.039,428.606,268.507,429.384,269.364,428.84Zm-5.14-4.517c2.648-.779,4.906-4.361,5.3-5.451,1.091-2.648,1.947-4.828,1.947-4.828h3.115s-2.258,5.374-3.193,8.255c-.935,2.57,1.713.389,2.726-2.492.935-2.648,2.1-5.685,2.1-5.685h3.348s-3.815,9.578-4.205,10.434c1.168-.311,2.726.545,2.57,1.091-.545,1.558-.857-.856-3.115-.156-1.245,2.959-3.971,5.607-6.152,5.3-2.881-.39-1.168-4.283,3.583-5.607l.39-1.168c-2.492,2.025-4.828.779-4.283-1.636a6.714,6.714,0,0,1-5.919,2.725,2.488,2.488,0,0,1-2.648-1.089c-.779,2.025-1.869,4.747-1.869,4.747h-3.193l1.636-4.127a7.031,7.031,0,0,1-3.739.856,3,3,0,0,1-3.66-1.791c-2.336,3.115-4.906,1.947-5.295.078-1.013.935-2.025,1.869-3.038,1.713-2.414-.078-1.791-3.66-1.4-4.828,1.091-3.193,2.258-4.361.078-4.439-.39,0-3.038,10.124-7.785,10.668-4.439.312-2.726-3.115-2.025-5.14,1.168-3.27,2.414-4.906,1.791-6.076-.468-1.013-3.193.935-3.972,3.038-1.091,2.648-3.27,8.177-3.27,8.177l-4.128.156s3.427-8.645,6.773-17.444c1.091-2.8-.623-2.881-1.869-2.8-1.091.078-.7-.857.156-1.013,3.972-.312,5.374-.156,5.919.156a1.637,1.637,0,0,1,.623,1.791c-.779,1.947-2.1,5.3-2.258,5.841-.623,1.791.623.156.935-.312.389-.389,2.881-3.193,3.426-3.971.467-.623,2.8-2.959,4.361-2.959h10.357a2.78,2.78,0,0,0-.623,1.791,2.6,2.6,0,0,0,.7,1.791H236.5c-.856,0-2.648,1.013-3.971,2.648-1.168,1.479.311.935.311.935,2.336-.234,4.439-.779.779,7.242-3.5,7.71,1.713,4.128,4.828-5.217.078-.312-.779-.7-.856-1.4,0-.857-.234-1.713,1.168-1.713s.934,1.4,2.1,1.713c2.492.779,3.815,0,2.492,3.193-1.168,2.881-2.57,6.541-.934,6.152a2.515,2.515,0,0,0,1.479-1.324c1.713-4.517,3.115-8.1,3.115-8.1h3.115S248.96,417,246.7,422.683c-.779,1.948.856.857,2.026-.389a1.712,1.712,0,0,1,1.091-1.558c1.246-1.713,5.295-7.32,5.295-7.32s.234.156,0,.622c-.311.467.312,3.115.623,3.972.39,1.323,1.091,4.672-.779,6.23a3.952,3.952,0,0,1-1.013.7,6.584,6.584,0,0,0,2.8-1.246l3.738-9.656H263.6a6.585,6.585,0,0,0-.311.779,3.59,3.59,0,0,1,2.881-.857c.857.312,3.738.545.545,7.089a8.311,8.311,0,0,1-2.492,3.271Zm-13.24-3.582a1.837,1.837,0,0,1-.156,3.271c-.467.311,1.636,1.4,2.57-.779s-.312-4.361-.467-4.747c-.312.311-1.013,1.091-1.947,2.258Zm11.6-3.66c-.234.39-1.868,4.44-1.868,4.44-.467,1.167.234,1.713.7,1.791,1.013.234,2.025-.545,3.193-3.427C266.325,415.368,263.132,415.991,262.587,417.08Zm-9.811-10.824c11.369,0,25.153,0,25.775.078a3.878,3.878,0,0,0,2.96-1.168c.312-.234.7-.234.7.156,0,.078-1.947,4.595-4.672,4.595H252.776a2.943,2.943,0,0,0,.623-1.791,3.172,3.172,0,0,0-.623-1.869Z" transform="translate(8704.354 1385.781)" fill="#ad443f" fill-rule="evenodd"/>
    <path id="Path_18175" data-name="Path 18175" d="M229.322,443.013h.311a1.513,1.513,0,0,1,1.636,1.636,1.489,1.489,0,0,1-1.636,1.557h-.311Zm-1.48,4.439h2.1a2.858,2.858,0,0,0,2.881-2.8,2.942,2.942,0,0,0-2.881-2.959h-2.1v5.76Z" transform="translate(8702.655 1377.915)" fill="#384f53" fill-rule="evenodd"/>
  </g>
</svg>
