<svg id="kubernetes-seeklogo.com" xmlns="http://www.w3.org/2000/svg" width="74.658" height="72.689" viewBox="0 0 74.658 72.689">
  <path id="Path_22497" data-name="Path 22497" d="M27.208,74.275A5.693,5.693,0,0,1,22.72,72.1L5.827,51.09a5.665,5.665,0,0,1-1.111-4.924l6.033-26.2a5.709,5.709,0,0,1,3.138-3.9L38.309,4.377a5.739,5.739,0,0,1,5.02,0L67.752,16.009a5.709,5.709,0,0,1,3.138,3.9L76.923,46.12a5.821,5.821,0,0,1-1.111,4.924l-16.893,21a5.842,5.842,0,0,1-4.488,2.172Z" transform="translate(-3.372 -2.736)" fill="#326de6"/>
  <path id="Path_22498" data-name="Path 22498" d="M37.929,2.433a4.722,4.722,0,0,1,1.979.434L64.33,14.5a4.688,4.688,0,0,1,2.509,3.138l6.033,26.208a4.513,4.513,0,0,1-.918,3.958l-16.893,21a4.591,4.591,0,0,1-3.62,1.738H24.353a4.591,4.591,0,0,1-3.62-1.738L3.853,47.8a4.832,4.832,0,0,1-.918-3.958L8.968,17.639A4.609,4.609,0,0,1,11.479,14.5L35.9,2.821a5.815,5.815,0,0,1,2.027-.386Zm0-2.268h0A7.3,7.3,0,0,0,34.945.84L10.513,12.522A6.836,6.836,0,0,0,6.748,17.2L.715,43.4a6.843,6.843,0,0,0,1.352,5.9l16.893,21a6.818,6.818,0,0,0,5.358,2.557H51.406A6.818,6.818,0,0,0,56.764,70.3l16.893-21A6.809,6.809,0,0,0,75,43.4L68.965,17.2A6.836,6.836,0,0,0,65.2,12.52L40.863.842A6.919,6.919,0,0,0,37.929.165Z" transform="translate(-0.531 -0.165)" fill="#fff"/>
  <path id="Path_22499" data-name="Path 22499" d="M91.068,68.776H91.02c-.048,0-.1,0-.1-.048-.1,0-.193-.048-.289-.048a6.6,6.6,0,0,0-.918-.1,1.808,1.808,0,0,1-.482-.048h-.048a12.736,12.736,0,0,1-2.605-.434.941.941,0,0,1-.53-.53c0-.048-.048-.048-.048-.1h0l-.627-.193a19.092,19.092,0,0,0-.337-6.806,19.889,19.889,0,0,0-2.7-6.322l.482-.434v-.1a1.09,1.09,0,0,1,.241-.723,14.079,14.079,0,0,1,2.172-1.5h0c.145-.1.289-.145.434-.241a7.264,7.264,0,0,0,.82-.482c.048-.048.145-.1.241-.193.048-.048.1-.048.1-.1h0a1.607,1.607,0,0,0,.337-2.172,1.377,1.377,0,0,0-1.111-.53,1.793,1.793,0,0,0-1.063.386h0l-.1.1c-.1.048-.145.145-.241.193a8.021,8.021,0,0,0-.627.675,2.228,2.228,0,0,1-.337.337h0a12.271,12.271,0,0,1-1.931,1.738.778.778,0,0,1-.434.145.613.613,0,0,1-.289-.048h-.1l-.578.386a23.436,23.436,0,0,0-1.979-1.836,19.283,19.283,0,0,0-10.087-4.006l-.048-.627-.1-.1a1.008,1.008,0,0,1-.386-.627A16.936,16.936,0,0,1,67.9,41.8v-.053a1.715,1.715,0,0,1,.1-.482c.048-.289.1-.578.145-.918v-.434h0A1.471,1.471,0,0,0,65.588,38.8a1.529,1.529,0,0,0-.434,1.111h0V40.3a2.81,2.81,0,0,0,.145.918c.048.145.048.289.1.482v.048a12.465,12.465,0,0,1,.145,2.605,1.008,1.008,0,0,1-.386.627l-.1.1h0l-.048.627a24.25,24.25,0,0,0-2.605.386,18.608,18.608,0,0,0-9.556,5.406l-.482-.337h-.1c-.1,0-.193.048-.289.048a.778.778,0,0,1-.434-.145,12.8,12.8,0,0,1-1.931-1.786h0a2.229,2.229,0,0,0-.337-.337,8.014,8.014,0,0,0-.627-.675c-.048-.048-.145-.1-.241-.193-.048-.048-.1-.048-.1-.1h0a1.687,1.687,0,0,0-1.063-.386,1.377,1.377,0,0,0-1.111.53,1.607,1.607,0,0,0,.337,2.172h0c.048,0,.048.048.1.048.1.048.145.145.241.193a7.267,7.267,0,0,0,.82.482,1.956,1.956,0,0,1,.434.241h0a14.082,14.082,0,0,1,2.172,1.5.886.886,0,0,1,.241.723v.1h0l.482.434a1.7,1.7,0,0,0-.241.386,18.8,18.8,0,0,0-2.7,12.743l-.627.193c0,.048-.048.048-.048.1a1.123,1.123,0,0,1-.53.53,12.19,12.19,0,0,1-2.605.434h-.055a1.642,1.642,0,0,0-.482.048,6.594,6.594,0,0,0-.918.1c-.1,0-.193.048-.289.048a.177.177,0,0,0-.145.048h0a1.584,1.584,0,0,0-1.256,1.786,1.488,1.488,0,0,0,1.545,1.111,1.063,1.063,0,0,0,.386-.048h0c.048,0,.1,0,.1-.048.1,0,.193-.048.289-.048a4.643,4.643,0,0,0,.868-.337c.145-.048.289-.145.434-.193h.048a11.858,11.858,0,0,1,2.509-.723h.1a1.074,1.074,0,0,1,.627.241c.048,0,.048.048.1.048h0l.675-.1a19.09,19.09,0,0,0,6.322,9.074,19.537,19.537,0,0,0,2.066,1.4l-.289.627c0,.048.048.048.048.1a.992.992,0,0,1,.1.771,13.608,13.608,0,0,1-1.256,2.268V84.6c-.1.145-.193.241-.289.386-.193.241-.337.482-.53.771a1.053,1.053,0,0,0-.145.241.168.168,0,0,1-.048.1h0a1.527,1.527,0,0,0,.627,2.066,1.286,1.286,0,0,0,.578.145,1.735,1.735,0,0,0,1.449-.918h0a.168.168,0,0,1,.048-.1,1.056,1.056,0,0,1,.145-.241,9.137,9.137,0,0,0,.289-.868l.145-.434h0A11.342,11.342,0,0,1,59,83.336a1.24,1.24,0,0,1,.627-.434c.048,0,.048,0,.1-.048h0l.337-.627A18.859,18.859,0,0,0,66.839,83.5a17.521,17.521,0,0,0,4.2-.482,21.451,21.451,0,0,0,2.509-.723l.289.53c.048,0,.048,0,.1.048a.9.9,0,0,1,.627.434,16.527,16.527,0,0,1,1.015,2.413v.048l.145.434a6.108,6.108,0,0,0,.289.868c.048.1.1.145.145.241a.167.167,0,0,0,.048.1h0a1.639,1.639,0,0,0,1.449.918,1.285,1.285,0,0,0,.578-.145,1.437,1.437,0,0,0,.723-.868,1.747,1.747,0,0,0-.1-1.207h0c0-.048-.048-.048-.048-.1a1.054,1.054,0,0,0-.145-.241,4.36,4.36,0,0,0-.53-.771c-.1-.145-.193-.241-.289-.386v-.055a10.833,10.833,0,0,1-1.256-2.268,1.345,1.345,0,0,1,.048-.771c0-.048.048-.048.048-.1h0l-.241-.578a19.15,19.15,0,0,0,8.4-10.56l.579.1c.048,0,.048-.048.1-.048a1.226,1.226,0,0,1,.627-.241h.1a11.857,11.857,0,0,1,2.509.723H88.8c.145.048.289.145.434.193a4.643,4.643,0,0,0,.868.337c.1,0,.193.048.289.048a.177.177,0,0,1,.145.048h0a1.063,1.063,0,0,0,.386.048,1.625,1.625,0,0,0,1.545-1.111,1.857,1.857,0,0,0-1.4-1.593ZM68.716,66.411,66.6,67.433l-2.123-1.015-.53-2.268,1.448-1.836h2.364l1.449,1.836-.482,2.268Zm12.6-5.02a15.22,15.22,0,0,1,.337,4.876l-7.385-2.123a1.309,1.309,0,0,1-.918-1.545,1.148,1.148,0,0,1,.289-.53l5.84-5.261A15.465,15.465,0,0,1,81.315,61.4Zm-4.15-7.481L70.842,58.4a1.286,1.286,0,0,1-1.69-.289,1.072,1.072,0,0,1-.241-.53l-.425-7.867a14.65,14.65,0,0,1,8.689,4.2Zm-14-3.958c.53-.1,1.015-.193,1.545-.289l-.434,7.722a1.32,1.32,0,0,1-1.3,1.256,1.148,1.148,0,0,1-.578-.145l-6.428-4.591a14.724,14.724,0,0,1,7.192-3.958Zm-9.5,6.852L59.4,61.921a1.286,1.286,0,0,1,.145,1.786.962.962,0,0,1-.578.386l-7.481,2.172a15.539,15.539,0,0,1,2.172-9.46Zm-1.3,13.085,7.674-1.3A1.3,1.3,0,0,1,61.384,69.6a1.377,1.377,0,0,1-.048.771h0l-2.95,7.091a15.213,15.213,0,0,1-6.033-7.575Zm17.616,9.6a15.762,15.762,0,0,1-3.379.386,16.354,16.354,0,0,1-4.876-.771l3.813-6.9a1.267,1.267,0,0,1,1.545-.337,2.066,2.066,0,0,1,.578.53h0l3.717,6.71c-.434.145-.918.241-1.4.386Zm9.412-6.71a15.319,15.319,0,0,1-4.632,4.683l-3.042-7.288a1.3,1.3,0,0,1,.675-1.5,1.543,1.543,0,0,1,.675-.145l7.722,1.3a9.713,9.713,0,0,1-1.4,2.945Z" transform="translate(-29.199 -27.169)" fill="#fff"/>
</svg>
