<svg width="105" height="56" viewBox="0 0 105 56" fill="none" xmlns="http://www.w3.org/2000/svg">
<g clip-path="url(#clip0_17131_249)">
<path d="M65.9162 2.80469H39.3921V17.0425H65.9162V2.80469Z" fill="#DE1E35"/>
<path d="M52.1495 3.8031V8.57434C52.0461 8.56827 51.8571 8.61567 51.8195 8.49473C51.6542 7.27564 51.4408 5.4239 50.3141 4.69888C49.3995 4.11 47.2712 4.00304 46.1986 4.09298C45.7933 4.12702 45.5125 4.15497 45.4566 4.60347C45.3472 5.47981 45.366 6.46068 45.3527 7.34309C45.3423 8.02618 45.3648 8.71108 45.3545 9.39356H46.6319C46.8452 9.39356 47.3594 9.26168 47.5709 9.17599C48.8404 8.66125 48.7261 7.26774 48.8246 6.1161C48.8927 6.10759 49.1619 6.10394 49.1619 6.18842V13.1766C49.1619 13.2538 48.8957 13.2793 48.8216 13.2277C48.7292 13.1633 48.7918 12.479 48.7784 12.307C48.6885 11.1104 48.2229 9.73084 46.7766 9.73084H45.3551C45.3666 10.558 45.3399 11.3875 45.3533 12.2146C45.3672 13.0928 45.3405 14.3021 45.456 15.1481C45.5034 15.4921 45.7544 15.5073 46.0588 15.5571C46.8161 15.6817 48.2187 15.6562 48.9875 15.5559C51.0349 15.2891 51.6943 14.2772 52.175 12.3817C52.2327 12.1538 52.3889 10.9888 52.4418 10.9384C52.4667 10.9141 52.7067 10.9493 52.7766 10.936V16.0445H40.5832C40.5972 15.9266 40.5285 15.6616 40.6622 15.6173C40.844 15.5577 41.38 15.63 41.6212 15.6124C41.9883 15.5857 42.875 15.5425 42.9418 15.1019C43.0245 14.5592 42.9722 13.963 42.9904 13.4155C43.0676 11.1244 43.0555 8.81804 42.9904 6.52753C42.9734 5.92831 43.0585 5.12976 42.9339 4.55972C42.8768 4.29657 42.5055 4.24431 42.2794 4.20237C41.7349 4.10088 41.1351 4.09784 40.5826 4.09177V3.80249H52.1495V3.8031Z" fill="white"/>
<path d="M64.7289 3.80322V7.12808C64.5831 7.15179 64.6518 7.09223 64.6317 7.01079C64.4469 6.26633 64.5351 5.60209 64.0051 4.93663C63.6326 4.46868 62.8401 4.14051 62.247 4.14051H60.5362L60.4955 15.2898C60.5533 15.4576 61.2631 15.6174 61.4411 15.6453C61.6915 15.6855 62.9045 15.7049 62.9732 15.8003C63.0072 15.8477 62.9933 15.8963 62.9945 15.948H55.5243L55.6052 15.7529C56.0956 15.6848 56.6 15.7432 57.0898 15.7061C57.3384 15.6873 57.7638 15.6326 57.934 15.4418C58.2397 15.0996 58.1114 13.7711 58.1242 13.271C58.1916 10.6438 58.2044 7.99835 58.1242 5.37115C58.1114 4.96215 58.1376 4.5489 58.126 4.14051H56.8006C56.5708 4.14051 56.0093 4.28454 55.7796 4.37266C54.4402 4.88983 54.2603 6.29611 54.1254 7.56261H53.9807V3.80322H64.7277H64.7289Z" fill="white"/>
<path d="M30.7073 26.0217V27.335H25.5186V20.1365H27.439V26.0217H30.7073Z" fill="#7D7D7D"/>
<path d="M32.9834 24.9171V25.7084C32.9834 26.0372 33.0606 26.3392 33.7661 26.3392C34.4055 26.3392 34.5489 26.1782 34.5489 25.8785V25.5042H36.4389V25.8548C36.4389 26.9293 35.8671 27.4799 33.7655 27.4799C31.4805 27.4799 31.0624 26.6953 31.0624 25.5571V23.7934C31.0624 22.6552 31.4805 21.8706 33.7655 21.8706C35.8671 21.8706 36.4389 22.4534 36.4389 23.5242V24.9177H32.9828L32.9834 24.9171ZM32.9834 23.6415V24.1447H34.5495V23.4999C34.5495 23.1997 34.4061 23.0107 33.7668 23.0107C33.0612 23.0107 32.984 23.3133 32.984 23.6421L32.9834 23.6415Z" fill="#7D7D7D"/>
<path d="M42.4892 23.793V27.3348H40.8125L40.7305 26.9136C40.4533 27.2388 39.8104 27.4794 38.9085 27.4794C37.4816 27.4794 37.0835 26.9069 37.0835 26.1193V25.5657C37.0835 24.7781 37.4822 24.2439 38.9085 24.2439C39.6809 24.2439 40.2467 24.3873 40.5694 24.6213V23.6422C40.5694 23.3135 40.5068 23.0114 39.8146 23.0114C39.2105 23.0114 39.0817 23.1725 39.0817 23.4727V23.9419H37.2111V23.4575C37.2111 22.383 37.7629 21.8713 39.814 21.8713C42.0711 21.8713 42.4892 22.6559 42.4892 23.7942V23.793ZM40.5688 26.0908V25.5937C40.5688 25.3785 40.381 25.2175 39.7198 25.2175C39.1248 25.2175 39.0033 25.3785 39.0033 25.5937V26.0908C39.0033 26.3059 39.1248 26.467 39.7198 26.467C40.381 26.467 40.5688 26.3059 40.5688 26.0908Z" fill="#7D7D7D"/>
<path d="M46.6962 22.4512V20.1357H48.6166V27.3342H46.9399L46.8482 26.7204C46.6069 27.1136 46.0624 27.4795 45.132 27.4795C43.595 27.4795 43.2103 26.7405 43.2103 25.6855V23.6648C43.2103 22.6092 43.595 21.8708 45.132 21.8708C45.9384 21.8708 46.4173 22.1443 46.6962 22.4518V22.4512ZM45.9135 26.2616C46.5966 26.2616 46.6962 25.9735 46.6962 25.6448V23.7043C46.6962 23.3755 46.5966 23.0875 45.9135 23.0875C45.2304 23.0875 45.1307 23.3755 45.1307 23.7043V25.6448C45.1307 25.9735 45.2304 26.2616 45.9135 26.2616Z" fill="#7D7D7D"/>
<path d="M51.2584 24.9171V25.7084C51.2584 26.0372 51.3356 26.3392 52.0412 26.3392C52.6805 26.3392 52.8239 26.1782 52.8239 25.8785V25.5042H54.7139V25.8548C54.7139 26.9293 54.1421 27.4799 52.0406 27.4799C49.7555 27.4799 49.3374 26.6953 49.3374 25.5571V23.7934C49.3374 22.6552 49.7555 21.8706 52.0406 21.8706C54.1421 21.8706 54.7139 22.4534 54.7139 23.5242V24.9177H51.2578L51.2584 24.9171ZM51.2584 23.6415V24.1447H52.8245V23.4999C52.8245 23.1997 52.6811 23.0107 52.0418 23.0107C51.3362 23.0107 51.259 23.3133 51.259 23.6421L51.2584 23.6415Z" fill="#7D7D7D"/>
<path d="M59.0339 21.8702V24.1662H58.1636C57.582 24.1662 57.3584 24.3947 57.3584 24.8967V27.3343H55.438V22.0149H57.1147L57.2283 23.2875C57.534 22.4184 58.1387 21.8696 59.0333 21.8696L59.0339 21.8702Z" fill="#7D7D7D"/>
<path d="M62.8207 23.9262V23.443C62.8207 23.1993 62.6773 23.0103 62.0599 23.0103C61.4424 23.0103 61.299 23.1714 61.299 23.4145V23.6861C61.299 24.5369 64.7332 23.9158 64.7332 25.5974V25.9882C64.7332 27.0061 64.1316 27.4795 62.0599 27.4795C59.9881 27.4795 59.3865 26.901 59.3865 25.883V25.4236H61.2765V25.9061C61.2765 26.1498 61.4199 26.3388 62.0593 26.3388C62.6986 26.3388 62.842 26.1778 62.842 25.9347V25.663C62.842 24.8122 59.4381 25.4333 59.4381 23.7518V23.361C59.4381 22.3467 60.01 21.8696 62.0593 21.8696C64.1085 21.8696 64.6804 22.4524 64.6804 23.4661V23.9256H62.8201L62.8207 23.9262Z" fill="#7D7D7D"/>
<path d="M70.8643 23.6604V27.3347H68.9439V23.7759C68.9439 23.3225 68.7209 23.0879 68.183 23.0879C67.6452 23.0879 67.3778 23.345 67.3778 23.7899V27.3347H65.4574V20.1362H67.3778V22.4924C67.6713 22.132 68.1727 21.8707 68.964 21.8707C70.3228 21.8707 70.8637 22.5629 70.8637 23.661L70.8643 23.6604Z" fill="#7D7D7D"/>
<path d="M71.6802 20.2112H73.6006V21.3531H71.6802V20.2112ZM71.6802 22.0155H73.6006V27.3349H71.6802V22.0155Z" fill="#7D7D7D"/>
<path d="M74.3828 22.0156H76.0595L76.1513 22.6294C76.3926 22.2368 76.9371 21.8704 77.8675 21.8704C79.4044 21.8704 79.7891 22.6094 79.7891 23.6644V25.6851C79.7891 26.7407 79.4044 27.4791 77.8675 27.4791C77.0611 27.4791 76.5822 27.205 76.3032 26.8981V29.1801H74.3828V22.0156ZM77.8687 25.6455V23.7051C77.8687 23.3763 77.7691 23.0882 77.086 23.0882C76.4029 23.0882 76.3032 23.3763 76.3032 23.7051V25.6455C76.3032 25.9743 76.4029 26.2624 77.086 26.2624C77.7691 26.2624 77.8687 25.9743 77.8687 25.6455Z" fill="#7D7D7D"/>
<path d="M25.765 29.7209H31.2929V31.0604H27.7237V32.7024H31.0863V33.8845H27.7237V35.7241H31.3798V37.0635H25.765V29.7216V29.7209Z" fill="#7D7D7D"/>
<path d="M35.9471 34.3498L37.3425 37.0627H35.244L34.4266 35.3319L33.5983 37.0627H31.5107L32.9055 34.3498L31.5107 31.637H33.6098L34.4272 33.304L35.2555 31.637H37.3431L35.9477 34.3498H35.9471Z" fill="#7D7D7D"/>
<path d="M37.6194 35.2497V33.4509C37.6194 32.2901 38.046 31.4897 40.3766 31.4897C42.4897 31.4897 43.1035 32.0841 43.1035 33.1762V33.7778H41.1752V33.1519C41.1752 32.8456 41.0287 32.6529 40.3766 32.6529C39.6571 32.6529 39.5781 32.9611 39.5781 33.2965V35.4041C39.5781 35.739 39.6571 36.0477 40.3766 36.0477C41.0287 36.0477 41.1752 35.8544 41.1752 35.5487V34.9228H43.1035V35.5244C43.1035 36.6208 42.4897 37.2109 40.3766 37.2109C38.046 37.2109 37.6194 36.4105 37.6194 35.2497Z" fill="#7D7D7D"/>
<path d="M45.7183 34.5972V35.4042C45.7183 35.7391 45.7973 36.0478 46.5169 36.0478C47.169 36.0478 47.3154 35.8837 47.3154 35.5774V35.1958H49.2438V35.5531C49.2438 36.6494 48.6603 37.2104 46.5169 37.2104C44.1863 37.2104 43.7596 36.41 43.7596 35.2492V33.4504C43.7596 32.2896 44.1863 31.4893 46.5169 31.4893C48.6603 31.4893 49.2438 32.0836 49.2438 33.1757V34.5972H45.7189H45.7183ZM45.7183 33.2966V33.8102H47.3154V33.152C47.3154 32.8457 47.169 32.653 46.5169 32.653C45.7973 32.653 45.7183 32.9612 45.7183 33.2966Z" fill="#7D7D7D"/>
<path d="M51.9403 29.7209V37.0635H49.9816V29.7209H51.9403Z" fill="#7D7D7D"/>
<path d="M54.7142 29.7209V37.0635H52.7555V29.7209H54.7142Z" fill="#7D7D7D"/>
<path d="M57.4056 34.5972V35.4042C57.4056 35.7391 57.4846 36.0478 58.2041 36.0478C58.8562 36.0478 59.0027 35.8837 59.0027 35.5774V35.1958H60.931V35.5531C60.931 36.6494 60.3476 37.2104 58.2041 37.2104C55.8735 37.2104 55.4469 36.41 55.4469 35.2492V33.4504C55.4469 32.2896 55.8735 31.4893 58.2041 31.4893C60.3476 31.4893 60.931 32.0836 60.931 33.1757V34.5972H57.4062H57.4056ZM57.4056 33.2966V33.8102H59.0027V33.152C59.0027 32.8457 58.8562 32.653 58.2041 32.653C57.4846 32.653 57.4056 32.9612 57.4056 33.2966Z" fill="#7D7D7D"/>
<path d="M61.6688 31.6375H63.3796L63.4756 32.3C63.8305 31.8053 64.3489 31.4893 65.2404 31.4893C66.6345 31.4893 67.1839 32.1954 67.1839 33.3149V37.0621H65.2252V33.4322C65.2252 32.9697 64.9973 32.7308 64.4492 32.7308C63.901 32.7308 63.6281 32.9934 63.6281 33.4467V37.0627H61.6694V31.6369L61.6688 31.6375Z" fill="#7D7D7D"/>
<path d="M67.9181 35.2497V33.4509C67.9181 32.2901 68.3447 31.4897 70.6753 31.4897C72.7884 31.4897 73.4022 32.0841 73.4022 33.1762V33.7778H71.4739V33.1519C71.4739 32.8456 71.3274 32.6529 70.6753 32.6529C69.9558 32.6529 69.8768 32.9611 69.8768 33.2965V35.4041C69.8768 35.739 69.9558 36.0477 70.6753 36.0477C71.3274 36.0477 71.4739 35.8544 71.4739 35.5487V34.9228H73.4022V35.5244C73.4022 36.6208 72.7884 37.2109 70.6753 37.2109C68.3447 37.2109 67.9181 36.4105 67.9181 35.2497Z" fill="#7D7D7D"/>
<path d="M76.0169 34.5972V35.4042C76.0169 35.7391 76.0959 36.0478 76.8155 36.0478C77.4676 36.0478 77.614 35.8837 77.614 35.5774V35.1958H79.5423V35.5531C79.5423 36.6494 78.9589 37.2104 76.8155 37.2104C74.4849 37.2104 74.0582 36.41 74.0582 35.2492V33.4504C74.0582 32.2896 74.4849 31.4893 76.8155 31.4893C78.9589 31.4893 79.5423 32.0836 79.5423 33.1757V34.5972H76.0175H76.0169ZM76.0169 33.2966V33.8102H77.614V33.152C77.614 32.8457 77.4676 32.653 76.8155 32.653C76.0959 32.653 76.0169 32.9612 76.0169 33.2966Z" fill="#7D7D7D"/>
<path d="M37.6284 49.9826L37.6139 49.9972L37.7312 53.0637H36.506V47.562H37.8339L38.8317 50.6359H38.8536L38.729 47.562H39.9542V53.0637H38.6336L37.6284 49.9826Z" fill="#7D7D7D"/>
<path d="M40.5779 50.2461C40.5779 49.1899 41.2014 48.8374 42.1039 48.8374C43.1309 48.8374 43.6299 49.3218 43.6299 50.2461V51.9186C43.5709 52.8502 42.9918 53.1948 42.1039 53.1948C41.2676 53.1948 40.5779 52.8575 40.5779 51.9186V50.2461ZM41.7441 51.9921C41.766 52.2267 41.8614 52.3519 42.1039 52.3519C42.3464 52.3519 42.4412 52.2273 42.463 51.9921V50.158C42.463 49.8936 42.3749 49.6809 42.1039 49.6809C41.8328 49.6809 41.7441 49.8936 41.7441 50.158V51.9921Z" fill="#7D7D7D"/>
<path d="M45.3322 48.9554V49.579H45.3468C45.4787 49.139 45.7649 48.8381 46.2493 48.8381V50.1587C46.132 50.1368 46.0147 50.1295 45.8974 50.1295C45.5674 50.1295 45.4355 50.1958 45.413 50.5331V53.0643H44.2468V48.956H45.3328L45.3322 48.9554Z" fill="#7D7D7D"/>
<path d="M46.4692 49.7988V48.9553H46.9311V47.7817H48.0973V48.9553H48.6546V49.7988H48.0973V51.9629C48.0973 52.1975 48.2 52.2491 48.3544 52.2491C48.4863 52.2272 48.5306 52.2345 48.6552 52.2345V53.0562C48.4061 53.0926 48.1636 53.1224 47.9071 53.1224C47.2763 53.1224 46.9317 52.7997 46.9317 52.1762V49.7994H46.4698L46.4692 49.7988Z" fill="#7D7D7D"/>
<path d="M50.3274 49.2781H50.3419C50.6136 48.9335 50.8992 48.8381 51.2298 48.8381C51.7944 48.8381 52.1615 49.2416 52.1615 49.7698V53.0636H50.9952V50.1441C50.9952 49.9095 50.9363 49.7922 50.6653 49.7922C50.4082 49.7922 50.328 50.0195 50.328 50.2249V53.0642H49.1617V47.5625H50.328V49.2793L50.3274 49.2781Z" fill="#7D7D7D"/>
<path d="M54.5022 49.5496V49.2634C54.5022 48.1774 55.0819 47.5618 56.1892 47.5618C57.1798 47.5618 57.7808 48.0534 57.7808 49.0732C57.7808 49.7629 57.5608 50.1592 57.0911 50.6502L56.614 51.1121C56.4159 51.3029 55.954 51.7648 55.8878 52.0729H57.7875V53.0635H54.4937V52.88C54.4937 51.9702 55.0582 51.1856 55.6453 50.5396L56.2026 49.9526C56.4669 49.659 56.5544 49.4244 56.5544 49.0209C56.5544 48.742 56.4299 48.4484 56.0926 48.4782C55.7036 48.5001 55.6672 49.0063 55.6672 49.2853V49.5496H54.5009H54.5022Z" fill="#7D7D7D"/>
<path d="M58.1993 49.1164C58.1993 48.0159 58.7864 47.5613 59.8353 47.5613C61.1559 47.5613 61.4786 48.1994 61.4567 49.4319V51.4124C61.4567 52.6157 61.0751 53.1949 59.8207 53.1949C58.7937 53.1949 58.1993 52.7403 58.1993 51.6762V49.1158V49.1164ZM60.2316 49.1164C60.2316 49.0356 60.2753 48.4783 59.8353 48.4783C59.4391 48.4783 59.4245 48.8083 59.4245 49.1164V51.5887C59.4245 51.9114 59.4245 52.2784 59.8353 52.2784C60.2534 52.2639 60.2316 51.7795 60.2316 51.5887V49.1164Z" fill="#7D7D7D"/>
<path d="M61.8381 49.5496V49.2634C61.8381 48.1774 62.4179 47.5618 63.5251 47.5618C64.5157 47.5618 65.1168 48.0534 65.1168 49.0732C65.1168 49.7629 64.8968 50.1592 64.427 50.6502L63.9499 51.1121C63.7518 51.3029 63.2899 51.7648 63.2237 52.0729H65.1235V53.0635H61.8296V52.88C61.8296 51.9702 62.3942 51.1856 62.9812 50.5396L63.5385 49.9526C63.8029 49.659 63.8904 49.4244 63.8904 49.0209C63.8904 48.742 63.7658 48.4484 63.4285 48.4782C63.0396 48.5001 63.0031 49.0063 63.0031 49.2853V49.5496H61.8369H61.8381Z" fill="#7D7D7D"/>
<path d="M65.5879 50.6788L65.727 47.6785H68.5736V48.6691H66.6587L66.607 49.6961C66.8641 49.4688 67.1205 49.3588 67.4651 49.3588C68.6095 49.3588 68.8003 50.3269 68.8003 51.2586C68.8003 52.4473 68.404 53.1954 67.1132 53.1954C66.167 53.1954 65.7191 52.7554 65.5508 51.8602V51.4421H66.7097C66.7389 51.7065 66.6805 52.2346 67.0914 52.2783C67.5757 52.3294 67.5757 51.6548 67.5757 51.3686C67.5757 51.024 67.6268 50.2753 67.0987 50.2753C66.8416 50.2753 66.6878 50.4223 66.666 50.6788H65.5879Z" fill="#7D7D7D"/>
<path d="M35.9828 44.6046H33.6479L33.2146 45.8534H31.2668L33.7646 39.2578H35.9518L38.4337 45.8534H36.3894L35.9828 44.6046ZM35.5908 43.4019L34.8524 41.132L34.0648 43.4019H35.5908Z" fill="#EBBB67"/>
<path d="M37.8098 39.2585H39.7965L40.6704 43.5199L41.6889 39.5922H42.9998L44.0226 43.5199L44.9038 39.2585H46.8862L45.1365 45.8542H43.4039L42.3507 42.1258L41.2921 45.8542H39.557L37.8098 39.2585Z" fill="#EBBB67"/>
<path d="M50.9559 44.6046H48.6211L48.1877 45.8534H46.24L48.7377 39.2578H50.9249L53.4069 45.8534H51.3625L50.9559 44.6046ZM50.5646 43.4019L49.8262 41.132L49.0386 43.4019H50.5646Z" fill="#EBBB67"/>
<path d="M57.8763 45.8542L56.6706 43.5163H55.711V45.8542H53.7523V39.2585H57.0267C59.3391 39.2585 59.9754 39.8213 59.9754 40.8708V41.904C59.9754 42.6442 59.6588 43.1419 58.6609 43.3716L59.9785 45.8542H57.8763ZM55.711 42.313H57.0267C57.8295 42.313 58.0167 42.1215 58.0167 41.7435V41.0319C58.0167 40.6806 57.8295 40.4624 57.0267 40.4624H55.711V42.3136V42.313Z" fill="#EBBB67"/>
<path d="M67.0482 41.0586V44.0541C67.0482 45.1529 66.3372 45.8542 63.7592 45.8542H60.7224V39.2585H63.7592C66.3372 39.2585 67.0482 39.9599 67.0482 41.0586ZM63.7586 40.4618H62.6805V44.6509H63.7586C64.8568 44.6509 65.0889 44.33 65.0889 43.8931V41.2197C65.0889 40.7827 64.8568 40.4618 63.7586 40.4618Z" fill="#EBBB67"/>
<path d="M72.0596 41.608V40.8824C72.0596 40.5719 71.8067 40.347 70.8733 40.347C69.9398 40.347 69.687 40.5457 69.687 40.8563V41.34C69.687 42.4139 74.0401 41.4956 74.0401 43.6962V44.3398C74.0401 45.3601 73.3814 45.9867 70.8727 45.9867C68.364 45.9867 67.7058 45.2283 67.7058 44.2431V43.5041H69.6645V44.2298C69.6645 44.5403 69.9173 44.7652 70.8727 44.7652C71.828 44.7652 72.0814 44.5664 72.0814 44.2559V43.7722C72.0814 42.6989 67.7587 43.6166 67.7587 41.416V40.7724C67.7587 39.7557 68.5396 39.1255 70.8727 39.1255C73.2057 39.1255 73.9867 39.8876 73.9867 40.8691V41.608H72.0583H72.0596Z" fill="#EBBB67"/>
<path d="M23.4201 53.3868C23.253 53.3856 23.0779 53.396 22.8889 53.4215C22.8397 53.4294 22.7911 53.4367 22.7437 53.4458C22.6951 53.4525 22.6495 53.4616 22.5972 53.4695C22.4994 53.4889 22.3985 53.512 22.2958 53.5388C21.8831 53.6506 21.4353 53.8329 20.9831 54.0401C20.5401 54.2346 20.0934 54.4528 19.6935 54.6588C19.2936 54.8636 18.9412 55.0599 18.6902 55.193C18.441 55.3249 18.2903 55.4106 18.2903 55.4106C18.2903 55.4106 18.3298 55.4251 18.4076 55.4543C18.4841 55.4792 18.5923 55.523 18.7321 55.5613C19.0135 55.6415 19.4067 55.746 19.8534 55.8366C19.9664 55.8597 20.0776 55.8828 20.1955 55.901C20.3164 55.9174 20.4386 55.9308 20.562 55.9447C20.8087 55.9703 21.0597 55.9909 21.3089 55.9964C21.809 56.0165 22.3092 55.9551 22.7419 55.8366C23.6061 55.6002 24.1919 55.069 24.5541 54.6272C24.9206 54.1823 25.0761 53.8098 25.0761 53.8098C25.0761 53.8098 24.7796 53.6178 24.2873 53.5035C24.0418 53.4446 23.7501 53.3862 23.4177 53.3862L23.4201 53.3868Z" fill="#FFCD4F"/>
<path d="M24.7421 49.953C24.5409 49.6322 24.2735 49.3526 24 49.0779C23.8639 48.9424 23.7186 48.8178 23.5746 48.7023C23.4993 48.6416 23.4294 48.5875 23.3631 48.5334C23.2957 48.4769 23.2258 48.4228 23.162 48.3711C22.8934 48.1651 22.6515 47.9998 22.4758 47.8898C22.3002 47.7689 22.192 47.7026 22.192 47.7026C22.192 47.7026 22.1896 47.8582 22.1993 48.1159C22.2072 48.376 22.2322 48.7206 22.2899 49.1156C22.347 49.5124 22.4309 49.9561 22.5585 50.3888C22.6867 50.8075 22.863 51.2159 23.0739 51.5526C23.1225 51.6389 23.1796 51.7185 23.2379 51.7938C23.2647 51.8321 23.2951 51.8668 23.3261 51.9008C23.3552 51.9336 23.3832 51.9664 23.4142 51.9986C23.5375 52.122 23.67 52.2278 23.7983 52.3183C23.9265 52.4089 24.0565 52.486 24.1854 52.5462C24.3112 52.6076 24.4321 52.6617 24.5506 52.6921C25.018 52.8264 25.3601 52.8033 25.3601 52.8033C25.3601 52.8033 25.4172 52.401 25.3577 51.8491C25.3297 51.5714 25.2787 51.2572 25.1808 50.9363C25.1541 50.8549 25.1286 50.7735 25.0982 50.6939C25.0702 50.61 25.0356 50.5249 25.0003 50.4423C24.925 50.2776 24.8423 50.1104 24.7421 49.9524V49.953Z" fill="#FFCD4F"/>
<path d="M18.0626 50.9043C18.0322 50.8758 17.9872 50.8399 17.9343 50.7895C17.8237 50.6941 17.6554 50.5646 17.439 50.4413C17.3284 50.3793 17.2099 50.3197 17.0726 50.2644C16.9364 50.2091 16.7863 50.1599 16.6295 50.1094C16.3123 50.0165 15.941 49.9599 15.5083 49.966C15.2865 49.9733 15.0616 49.9843 14.827 50.0073C14.5955 50.0298 14.35 50.0626 14.1105 50.1028C13.8626 50.1429 13.6183 50.1878 13.3788 50.2346C13.143 50.2839 12.9091 50.3301 12.6903 50.3744C12.2485 50.4674 11.8601 50.5579 11.5818 50.6248C11.298 50.6935 11.1296 50.7403 11.1296 50.7403C11.1296 50.7403 11.2749 50.8393 11.5192 50.9931C11.6377 51.069 11.7902 51.1578 11.9555 51.2544C12.037 51.3018 12.1275 51.3522 12.2205 51.4039C12.3135 51.4531 12.4138 51.5005 12.5171 51.5498C12.7207 51.6464 12.9425 51.7418 13.1673 51.8342C13.2828 51.8791 13.3965 51.9235 13.515 51.9648C13.5745 51.9879 13.6304 52.0086 13.6906 52.028C13.752 52.0438 13.8091 52.0627 13.8699 52.0797C14.3573 52.2128 14.8477 52.2991 15.2944 52.2979C16.2041 52.2717 16.903 51.9314 17.3764 51.6014C17.6147 51.4404 17.7964 51.2714 17.921 51.1474C18.0419 51.0259 18.1057 50.9451 18.1057 50.9451C18.1057 50.9451 18.0905 50.9305 18.0626 50.9037V50.9043Z" fill="#FFCD4F"/>
<path d="M16.8076 48.2552C16.9206 48.6265 17.095 48.9334 17.2913 49.1795C17.3867 49.3072 17.4925 49.4087 17.6019 49.4968C17.7076 49.5861 17.8158 49.6615 17.9191 49.7277C18.1227 49.8565 18.3074 49.9392 18.4423 49.989C18.5086 50.0146 18.5681 50.0279 18.604 50.037C18.6459 50.0474 18.6636 50.051 18.6636 50.051C18.6636 50.051 18.7067 49.958 18.759 49.7982C18.8112 49.6372 18.875 49.4099 18.9267 49.1333C19.03 48.5815 19.0756 47.8559 18.8592 47.1467C18.759 46.7821 18.5882 46.4314 18.387 46.1081C18.1938 45.7805 17.9823 45.4669 17.7732 45.2093C17.6675 45.0835 17.5769 44.954 17.487 44.8446C17.4031 44.7352 17.3205 44.641 17.253 44.5608C17.1169 44.4046 17.0263 44.3159 17.0263 44.3159C17.0263 44.3159 16.9796 44.4642 16.923 44.7115C16.8604 44.9577 16.7881 45.3047 16.7298 45.7021C16.7018 45.9033 16.6727 46.1172 16.6575 46.3348C16.6447 46.5493 16.6374 46.7705 16.6423 46.9911C16.6447 47.2123 16.6575 47.4348 16.683 47.6487C16.7122 47.862 16.748 48.0723 16.8076 48.2558V48.2552Z" fill="#FFCD4F"/>
<path d="M11.823 45.9415C11.7404 45.8212 11.6243 45.6528 11.4499 45.4741C11.2767 45.2979 11.05 45.1119 10.7662 44.9406C10.4872 44.7649 10.1475 44.6087 9.73245 44.4994C9.58963 44.4617 9.44378 44.4313 9.29063 44.4015C9.14174 44.3705 8.9892 44.345 8.82998 44.3201C8.04054 44.2016 7.14597 44.1554 6.47261 44.1141C5.79196 44.0758 5.30518 44.0679 5.30518 44.0679C5.30518 44.0679 5.46926 44.2769 5.75307 44.585C6.02898 44.8968 6.45195 45.2809 6.92415 45.6546C6.99526 45.7112 7.07062 45.7652 7.14293 45.8205C7.18122 45.8491 7.21829 45.8759 7.2584 45.9044C7.29426 45.9299 7.33619 45.9549 7.37448 45.9816C7.53492 46.0837 7.69657 46.1815 7.86187 46.2703C8.02717 46.3596 8.18883 46.4404 8.35717 46.5091C8.52247 46.5796 8.68169 46.6416 8.85246 46.6817C9.73427 46.9011 10.4994 46.7643 11.0518 46.5735C11.6079 46.376 11.9427 46.1354 11.9427 46.1354C11.9427 46.1354 11.9045 46.0594 11.8218 45.9415H11.823Z" fill="#FFCD4F"/>
<path d="M12.1147 44.9163C12.2751 45.0956 12.424 45.2281 12.5449 45.3083C12.6647 45.3885 12.7412 45.4244 12.7412 45.4244C12.7412 45.4244 13.005 45.1138 13.2566 44.6185C13.5149 44.1172 13.7732 43.428 13.7683 42.6902C13.7707 42.4186 13.7416 42.1348 13.6856 41.8643C13.6589 41.7276 13.623 41.5933 13.5878 41.4596C13.5483 41.3301 13.5155 41.1934 13.4748 41.0676C13.4073 40.8464 13.3295 40.6379 13.2517 40.4514C13.2317 40.4034 13.211 40.3584 13.1958 40.3134C13.1758 40.2697 13.16 40.2241 13.1411 40.1815C13.1107 40.0958 13.0773 40.0181 13.0457 39.9451C12.9223 39.6565 12.8269 39.4802 12.8269 39.4802C12.8269 39.4802 12.5875 39.8442 12.3061 40.3973C12.2338 40.5346 12.1621 40.6829 12.0898 40.8427C12.0527 40.923 12.0174 41.0056 11.9816 41.0864C11.9469 41.1679 11.9166 41.253 11.8837 41.338C11.7579 41.6771 11.6431 42.0418 11.5695 42.4028C11.5379 42.5419 11.5173 42.6805 11.4972 42.8148C11.482 42.9497 11.4772 43.0792 11.4772 43.2038C11.4772 43.5957 11.5574 43.9348 11.6735 44.2253C11.7944 44.511 11.9597 44.7383 12.1165 44.9169L12.1147 44.9163Z" fill="#FFCD4F"/>
<path d="M5.95999 40.0517C6.13076 40.0596 6.29181 40.0566 6.44252 40.0481C7.03019 40.008 7.42278 39.8688 7.42278 39.8688C7.42278 39.8688 7.40638 39.7843 7.36323 39.6476C7.34013 39.5789 7.30975 39.4993 7.27025 39.4075C7.23743 39.3121 7.19003 39.21 7.13655 39.1018C7.02047 38.8843 6.86064 38.6442 6.63396 38.4042C6.58169 38.3501 6.52335 38.2905 6.45833 38.2225C6.39573 38.1611 6.3301 38.1021 6.2596 38.0432C6.11557 37.9247 5.95513 37.8086 5.7722 37.7004C5.58867 37.591 5.38508 37.4877 5.1663 37.3887C4.96028 37.2866 4.73847 37.1887 4.51178 37.0945C4.06024 36.9092 3.58622 36.7372 3.15473 36.5919C2.7348 36.4424 2.36044 36.3166 2.08818 36.2285C1.8147 36.138 1.64636 36.0894 1.64636 36.0894C1.64636 36.0894 1.71139 36.2492 1.8299 36.5044C1.88945 36.6339 1.95813 36.7882 2.04868 36.9554C2.14166 37.1225 2.2474 37.3012 2.36287 37.492C2.48259 37.6804 2.61082 37.8779 2.74999 38.0748C2.78402 38.1216 2.81988 38.1702 2.85573 38.2188C2.89524 38.265 2.93352 38.313 2.97181 38.3616C3.05203 38.4558 3.13225 38.5488 3.2149 38.6406C3.38263 38.8229 3.55462 38.9967 3.73329 39.1523C3.82384 39.2325 3.91135 39.3054 4.00676 39.3753C4.10218 39.4403 4.19759 39.5029 4.29604 39.5601C4.68559 39.7849 5.07393 39.9156 5.43796 39.9885C5.62149 40.0244 5.7953 40.0426 5.96121 40.0529L5.95999 40.0517Z" fill="#FFCD4F"/>
<path d="M7.71501 37.9605C7.7533 38.2626 7.83838 38.5282 7.93623 38.7445C7.98484 38.8515 8.03954 38.9469 8.08755 39.0295C8.13981 39.1128 8.19329 39.1803 8.23766 39.2331C8.33064 39.3425 8.39202 39.399 8.39202 39.399C8.39202 39.399 8.73599 39.1705 9.12129 38.7609C9.21913 38.66 9.31758 38.5482 9.41543 38.4248C9.51874 38.2984 9.61902 38.1611 9.71443 38.0189C9.90039 37.7302 10.0681 37.4063 10.1739 37.0502C10.1994 36.9614 10.2194 36.8727 10.2438 36.7797C10.2638 36.6868 10.2845 36.5926 10.2997 36.4984C10.3276 36.3106 10.3489 36.1197 10.3544 35.9314C10.3592 35.5576 10.3671 35.182 10.3392 34.8587C10.3276 34.6952 10.31 34.5421 10.2924 34.4066C10.282 34.2686 10.2693 34.1465 10.2565 34.0456C10.2322 33.8408 10.2067 33.7192 10.2067 33.7192C10.2067 33.7192 10.0857 33.8213 9.89735 33.9994C9.70896 34.1756 9.44946 34.4309 9.17295 34.7396C8.90676 35.0441 8.62964 35.3996 8.38655 35.777C8.26318 35.9654 8.15258 36.1605 8.05169 36.3549C7.95628 36.5476 7.88092 36.7402 7.82501 36.928C7.76546 37.114 7.73203 37.2951 7.71441 37.4683C7.70286 37.554 7.698 37.6397 7.698 37.7211C7.698 37.7618 7.698 37.8031 7.70043 37.8433C7.70286 37.8822 7.70833 37.921 7.71441 37.9605H7.71501Z" fill="#FFCD4F"/>
<path d="M2.52354 32.272C2.69127 32.3893 2.85839 32.4847 3.02916 32.5667C3.36402 32.7284 3.69219 32.825 3.97721 32.8858C4.55273 33.0013 4.9672 32.969 4.9672 32.969C4.9672 32.969 5.01703 32.6293 4.90886 32.1547C4.88212 32.035 4.83897 31.9074 4.79825 31.7737C4.75632 31.6393 4.70041 31.4971 4.63052 31.3519C4.5582 31.2073 4.47008 31.0584 4.3619 30.9089C4.30842 30.8323 4.24887 30.7581 4.18384 30.6816C4.15345 30.6439 4.12003 30.6056 4.08721 30.5667C4.05257 30.529 4.01975 30.4914 3.9839 30.4537C3.41872 29.8435 2.50591 29.2182 1.78697 28.7107C1.42052 28.4591 1.09052 28.2428 0.847432 28.0872C0.605558 27.9328 0.456665 27.8423 0.456665 27.8423C0.456665 27.8423 0.47672 28.0094 0.525338 28.2884C0.575171 28.5655 0.643844 28.9483 0.758096 29.3725C0.886934 29.7973 1.05224 30.261 1.25825 30.6974C1.3093 30.8074 1.36643 30.9155 1.43024 31.0201C1.49284 31.1234 1.55361 31.2249 1.62107 31.3233C1.75233 31.5196 1.89697 31.7019 2.04586 31.8593C2.20144 32.021 2.35277 32.1571 2.52293 32.2738L2.52354 32.272Z" fill="#FFCD4F"/>
<path d="M6.03574 32.7673C6.03574 32.7673 6.43259 32.636 6.92302 32.3425C7.16976 32.1942 7.43837 32.007 7.69544 31.7791C7.82549 31.6643 7.94886 31.5403 8.06737 31.4048C8.1883 31.2698 8.30681 31.1228 8.41195 30.9654C8.51526 30.8068 8.60824 30.6378 8.68542 30.4652C8.76564 30.292 8.82398 30.1146 8.89144 29.9322C9.02514 29.5737 9.11022 29.2121 9.17282 28.8936C9.25304 28.5697 9.29862 28.2865 9.32779 28.0829C9.35331 27.8806 9.3606 27.7566 9.3606 27.7566C9.3606 27.7566 9.2184 27.8247 8.98928 27.9462C8.76017 28.0696 8.44598 28.2488 8.09715 28.4743C7.755 28.7004 7.36788 28.972 7.04092 29.2735C6.70606 29.5737 6.39795 29.9043 6.17674 30.2373C6.06066 30.4026 5.98591 30.5673 5.9221 30.7296C5.86254 30.8906 5.81879 31.0492 5.78962 31.2012C5.76166 31.3519 5.7489 31.499 5.74647 31.6369C5.7416 31.7712 5.76166 31.9001 5.77928 32.0161C5.86193 32.4804 6.03514 32.7661 6.03514 32.7661L6.03574 32.7673Z" fill="#FFCD4F"/>
<path d="M1.62143 21.9755C1.64695 22.156 1.68099 22.3371 1.7217 22.5145C1.80436 22.8676 1.90524 23.2031 2.07054 23.4972C2.27899 23.8861 2.53606 24.1955 2.80771 24.4404C3.08118 24.6853 3.35891 24.8652 3.6251 24.9971C4.15078 25.2657 4.55796 25.3441 4.55796 25.3441C4.55796 25.3441 4.59503 25.2657 4.62784 25.1265C4.66066 24.9861 4.71596 24.7886 4.73602 24.5461C4.75911 24.3043 4.75364 24.018 4.69287 23.7008C4.63574 23.383 4.53486 23.0359 4.34161 22.664C4.27415 22.5419 4.20304 22.4124 4.12039 22.2854C4.08211 22.2228 4.04017 22.159 3.99703 22.0921C3.95509 22.0308 3.91438 21.9615 3.87244 21.8989C3.65366 21.5768 3.40936 21.2492 3.1608 20.9387C2.91406 20.6269 2.66672 20.3291 2.45462 20.0751C2.03225 19.5634 1.71259 19.2073 1.71259 19.2073C1.71259 19.2073 1.66154 19.4674 1.61171 19.8752C1.58132 20.0788 1.57099 20.3225 1.56309 20.5856C1.55397 20.85 1.55397 21.1362 1.56795 21.4303C1.57281 21.6078 1.59591 21.7938 1.62143 21.9767V21.9755Z" fill="#FFCD4F"/>
<path d="M8.43836 24.3383C8.49184 24.2958 8.54168 24.2471 8.58969 24.1979C8.64195 24.1487 8.693 24.0989 8.74223 24.0472C8.84311 23.9451 8.93548 23.8363 9.01996 23.7257C9.10808 23.6151 9.19073 23.5021 9.26791 23.3854C9.34813 23.2644 9.42227 23.1496 9.49216 23.0432C9.61796 22.8469 9.73039 22.6525 9.82215 22.4744C9.87138 22.3832 9.91514 22.2957 9.95464 22.2143C9.99049 22.131 10.0373 22.0569 10.0707 21.9876C10.2147 21.7075 10.2871 21.5239 10.2871 21.5239C10.2871 21.5239 9.84646 21.5932 9.22415 21.7603C9.07283 21.8004 8.90206 21.8466 8.73797 21.9038C8.57267 21.9578 8.39704 22.021 8.22505 22.0897C7.87379 22.2246 7.51584 22.3875 7.18281 22.5741C6.92574 22.7157 6.70696 22.8767 6.50823 23.0463C6.20923 23.3064 5.99167 23.5896 5.85007 23.8685C5.71637 24.1463 5.64648 24.4167 5.61366 24.647C5.58145 24.8828 5.57659 25.0791 5.6009 25.2183C5.61852 25.3575 5.64162 25.4383 5.64162 25.4383C5.64162 25.4383 6.05669 25.4182 6.61154 25.2645C7.16275 25.1125 7.87683 24.8348 8.43958 24.3383H8.43836Z" fill="#FFCD4F"/>
<path d="M4.95002 16.5703C5.14631 16.8796 5.36752 17.1312 5.57901 17.3306C6.0026 17.7262 6.37331 17.9121 6.37331 17.9121C6.37331 17.9121 6.428 17.8465 6.50579 17.7237C6.5848 17.6028 6.67778 17.4168 6.77076 17.1932C6.86374 16.9671 6.94639 16.693 6.98225 16.3716C6.99987 16.2129 6.99987 16.0379 6.99987 15.8586C6.99987 15.6794 6.98225 15.4861 6.94639 15.2825C6.90811 15.0789 6.85341 14.865 6.78839 14.6444C6.75557 14.535 6.71971 14.4214 6.68021 14.3096C6.64192 14.1996 6.60485 14.0877 6.56717 13.9753C6.41342 13.528 6.22989 13.0777 6.05668 12.6729C5.9716 12.473 5.88895 12.281 5.81481 12.1096C5.73945 11.9406 5.672 11.7875 5.61852 11.6611C5.50548 11.4058 5.43255 11.2551 5.43255 11.2551C5.43255 11.2551 5.3499 11.4058 5.23139 11.6611C5.16394 11.7863 5.1056 11.9461 5.0351 12.1211C4.96764 12.2992 4.89654 12.4955 4.82908 12.7039C4.79626 12.8097 4.75919 12.9179 4.72577 13.026C4.69538 13.1366 4.66074 13.2497 4.63765 13.3688C4.58295 13.5991 4.54223 13.8416 4.50942 14.0804C4.47782 14.3205 4.45715 14.5605 4.45715 14.7909C4.45958 15.0273 4.48025 15.2533 4.52218 15.4679C4.60726 15.8957 4.76162 16.2603 4.95002 16.5697V16.5703Z" fill="#FFCD4F"/>
<path d="M10.8919 17.7191C11.0597 17.6158 11.2244 17.5015 11.3769 17.3824C11.5282 17.2627 11.671 17.1381 11.8047 17.0129C11.9409 16.8908 12.0758 16.7704 12.1943 16.6519C12.3128 16.5346 12.421 16.4198 12.5164 16.3189C12.5638 16.2648 12.6069 16.2156 12.6477 16.1706C12.6896 16.125 12.7279 16.0843 12.7649 16.046C12.909 15.8929 12.9862 15.7963 12.9862 15.7963C12.9862 15.7963 12.8257 15.7768 12.5607 15.7598C12.2976 15.7434 11.9208 15.7239 11.5106 15.7397C11.098 15.7525 10.6312 15.7914 10.1754 15.8655C10.06 15.8868 9.94632 15.9069 9.83206 15.9306C9.72389 15.9585 9.61571 15.9859 9.50997 16.0163C9.29848 16.0776 9.09733 16.1506 8.91197 16.2356C8.73026 16.3189 8.56435 16.4131 8.41667 16.5152C8.27021 16.6185 8.15474 16.7334 8.04353 16.847C7.83447 17.0773 7.68437 17.315 7.57862 17.5289C7.47835 17.7434 7.43763 17.9385 7.41089 18.0752C7.38537 18.2132 7.38293 18.2946 7.38293 18.2946C7.38293 18.2946 7.78768 18.3894 8.36562 18.3918C8.65429 18.3949 8.98186 18.3754 9.32765 18.3147C9.6777 18.2581 10.0417 18.1597 10.3918 18.0017C10.565 17.9215 10.7315 17.8248 10.8919 17.7191Z" fill="#FFCD4F"/>
<path d="M9.0716 9.88756C9.17187 10.2346 9.31347 10.5336 9.46115 10.7785C9.75529 11.2653 10.0567 11.5418 10.0567 11.5418C10.0567 11.5418 10.3533 11.3485 10.6499 10.9565C10.7234 10.8575 10.7988 10.7463 10.8686 10.6211C10.941 10.5001 11.0175 10.3658 11.0801 10.2188C11.2084 9.92402 11.3013 9.5685 11.3433 9.15403C11.3864 8.74686 11.3791 8.28012 11.3457 7.80367C11.3086 7.32113 11.2679 6.85076 11.2132 6.41745C11.1622 5.98596 11.1075 5.60431 11.0668 5.32537C11.0224 5.0525 10.9969 4.88477 10.9969 4.88477C10.9969 4.88477 10.9641 4.91394 10.9118 4.97532C10.8632 5.03427 10.7884 5.12178 10.6954 5.23056C10.5149 5.45177 10.2676 5.76232 10.0148 6.12756C9.77534 6.50314 9.52861 6.93219 9.32988 7.37158C9.13906 7.81886 9.00414 8.28559 8.96099 8.71222C8.95066 8.82039 8.9458 8.92492 8.9458 9.02641C8.9458 9.1279 8.95309 9.23243 8.96343 9.33088C8.98409 9.52961 9.02237 9.71314 9.0716 9.88756Z" fill="#FFCD4F"/>
<path d="M14.4821 12.5244C14.5775 12.4952 14.6668 12.4612 14.7598 12.4253C14.8042 12.4077 14.8479 12.3889 14.8947 12.3712C14.9433 12.3512 14.9877 12.3336 15.0309 12.3159C15.3997 12.1701 15.7322 11.9902 16.0239 11.8194C16.3253 11.6608 16.5726 11.504 16.7483 11.3892C16.8334 11.3296 16.9039 11.2792 16.9494 11.2469C17.0017 11.2147 17.0272 11.1977 17.0272 11.1977C17.0272 11.1977 16.9877 11.1825 16.9215 11.1564C16.8492 11.1309 16.7507 11.0944 16.6273 11.0543C16.3788 10.9729 16.0293 10.8671 15.624 10.7717C15.4204 10.7249 15.2065 10.6781 14.9798 10.638C14.868 10.6186 14.7543 10.5991 14.6413 10.5839C14.5283 10.5705 14.4122 10.5578 14.3016 10.5499C13.8421 10.5098 13.3839 10.511 12.9767 10.5772C12.5769 10.6453 12.2487 10.7845 11.9764 10.9467C11.8391 11.0282 11.7157 11.1157 11.61 11.2068C11.5067 11.2998 11.4191 11.3952 11.3414 11.4858C11.032 11.8528 10.9287 12.167 10.9287 12.167C10.9287 12.167 11.2952 12.3633 11.8555 12.5177C12.1308 12.5967 12.4577 12.6635 12.8066 12.697C13.1603 12.7298 13.5231 12.717 13.9126 12.6605C14.1059 12.6295 14.2973 12.5815 14.4827 12.5226L14.4821 12.5244Z" fill="#FFCD4F"/>
<path d="M15.5436 5.90161C15.616 6.05658 15.667 6.14288 15.667 6.14288C15.667 6.14288 15.6913 6.13437 15.7266 6.11918C15.7649 6.10399 15.8195 6.08272 15.8858 6.0499C16.0231 5.98791 16.2091 5.89007 16.4103 5.73935C16.7998 5.43124 17.2836 4.97605 17.5929 4.1933C17.6962 3.93684 17.7916 3.65425 17.8743 3.35282C17.9776 2.97907 18.0602 2.57979 18.135 2.19267C18.2128 1.81406 18.2814 1.44578 18.3361 1.11882C18.4449 0.467948 18.5033 0.00121545 18.5033 0C18.5033 0 18.2693 0.140384 17.9241 0.382259C17.7533 0.501373 17.5522 0.647227 17.3389 0.813136C17.1298 0.986945 16.911 1.18142 16.6971 1.39047C16.5622 1.51992 16.4333 1.65119 16.31 1.78732C16.2753 1.82196 16.245 1.85599 16.2146 1.89185C16.1866 1.92649 16.1574 1.96295 16.1271 2.00063C16.0699 2.07356 16.014 2.14709 15.9593 2.22184C15.743 2.51841 15.557 2.82653 15.4312 3.12917C15.3461 3.32547 15.2951 3.5327 15.258 3.72596C15.2222 3.92043 15.2045 4.10943 15.2021 4.29054C15.1942 4.65031 15.2452 4.97423 15.3182 5.2471C15.3881 5.52239 15.475 5.74361 15.5449 5.9004L15.5436 5.90161Z" fill="#FFCD4F"/>
<path d="M20.7519 8.14026C20.9858 8.09407 21.2076 8.03999 21.4112 7.9859C21.6148 7.9391 21.8008 7.89049 21.9558 7.84673C22.2651 7.75679 22.4559 7.68082 22.4559 7.68082C22.4559 7.68082 22.1046 7.41403 21.5638 7.0889C21.2976 6.92663 20.981 6.75039 20.6358 6.58631C20.2948 6.42648 19.9345 6.28366 19.5704 6.17549C19.2915 6.09223 19.0119 6.0272 18.7482 5.99925C17.9436 5.92693 17.3097 6.15786 16.9153 6.43559C16.7141 6.57112 16.5665 6.70664 16.4662 6.80874C16.4151 6.85796 16.3781 6.90172 16.3556 6.93089C16.3325 6.96188 16.3228 6.98011 16.3228 6.98011C16.3228 6.98011 16.3951 7.05122 16.5288 7.15939C16.6625 7.26757 16.8606 7.41342 17.1091 7.56171C17.3535 7.71242 17.6476 7.86618 17.9721 7.98954C18.1374 8.05153 18.307 8.10987 18.485 8.15059C18.6631 8.19556 18.8466 8.22595 19.0429 8.25269C19.6118 8.32258 20.2025 8.2296 20.7525 8.14208L20.7519 8.14026Z" fill="#FFCD4F"/>
<path d="M29.1511 53.9881C28.9985 53.9693 28.8065 53.9456 28.5883 53.9201C28.4801 53.9043 28.3641 53.8964 28.2431 53.8733C28.1222 53.852 27.9964 53.8307 27.8639 53.8058C27.5989 53.7614 27.3127 53.7134 27.0058 53.6594C26.7044 53.5931 26.3871 53.5226 26.059 53.4515C25.8949 53.4132 25.7265 53.3822 25.5588 53.3354C25.3947 53.2905 25.2239 53.2437 25.0532 53.1975C24.7135 53.1027 24.3634 53.0188 24.0249 52.9015C22.6514 52.4883 21.3369 51.92 20.367 51.4661C20.1276 51.3488 19.9051 51.2394 19.7113 51.1452C19.611 51.096 19.5217 51.0498 19.439 51.0085C19.3564 50.9659 19.281 50.9222 19.2123 50.8863C18.9389 50.7356 18.7833 50.6475 18.7833 50.6475C18.7833 50.6475 18.6295 50.5624 18.3554 50.4111C18.082 50.2549 17.7113 50.0142 17.2542 49.7371C16.3645 49.1512 15.2026 48.3333 14.1372 47.4016C13.0707 46.4706 12.0904 45.4545 11.397 44.6577C11.3064 44.5623 11.2317 44.4614 11.1551 44.3691C11.0773 44.2767 11.0074 44.1892 10.9388 44.1059C10.8014 43.9412 10.6853 43.7954 10.5875 43.6756C10.4872 43.5578 10.4198 43.4575 10.3736 43.3918C10.3238 43.325 10.2958 43.291 10.2958 43.291C10.2958 43.291 10.1925 43.1518 10.0096 42.9026C9.92144 42.7793 9.80597 42.6322 9.68503 42.4553C9.56653 42.2791 9.43283 42.0779 9.28819 41.8604C9.21587 41.7522 9.1393 41.6386 9.06151 41.5188C8.98129 41.4015 8.9114 41.2751 8.83483 41.1445C8.67986 40.8868 8.5182 40.6151 8.34986 40.3338C8.19732 40.0457 8.0381 39.7461 7.87766 39.4447C7.83451 39.3669 7.79501 39.2927 7.75429 39.215C7.71843 39.1366 7.68197 39.0575 7.64368 38.981C7.57137 38.823 7.49601 38.6662 7.42187 38.5076C6.83906 37.2429 6.35652 35.9357 6.08001 34.9317C6.04415 34.8071 6.00891 34.6868 5.97183 34.5732C5.94145 34.4601 5.90802 34.3532 5.88371 34.2498C5.8351 34.045 5.79073 33.8639 5.75791 33.7163C5.6856 33.4221 5.64427 33.252 5.64427 33.252C5.64427 33.252 5.63394 33.2106 5.61632 33.1322C5.59869 33.0544 5.57681 32.9347 5.54886 32.7852C5.5209 32.6369 5.49052 32.4577 5.45101 32.2486C5.41516 32.0426 5.36046 31.8074 5.33251 31.5485C5.29969 31.292 5.26019 31.0125 5.2219 30.7183C5.21461 30.6442 5.20185 30.5701 5.19395 30.4947C5.1824 30.4175 5.17997 30.3416 5.17207 30.2632C5.16174 30.107 5.14654 29.949 5.13378 29.7861C5.06632 29.1407 5.06632 28.4485 5.04627 27.7557C5.06632 27.0635 5.06632 26.3713 5.13378 25.7241C5.14654 25.563 5.16174 25.4038 5.17207 25.2482C5.17997 25.1698 5.1824 25.0933 5.19395 25.0179C5.20185 24.9413 5.21461 24.8672 5.2219 24.7918C5.26019 24.4995 5.29969 24.2181 5.33251 23.9617C5.36046 23.704 5.41516 23.4718 5.45101 23.2628C5.49052 23.0555 5.5209 22.8744 5.54886 22.7249C5.57681 22.5767 5.59869 22.4582 5.61632 22.3804C5.63394 22.3001 5.64427 22.2576 5.64427 22.2576C5.64427 22.2576 5.68499 22.0905 5.75791 21.7951C5.79073 21.6481 5.8357 21.4688 5.88371 21.2634C5.90802 21.1601 5.94084 21.0507 5.97183 20.9376C6.00891 20.8246 6.04415 20.7055 6.08001 20.5791C6.35592 19.5763 6.83845 18.2691 7.42187 17.0032C7.49601 16.847 7.57076 16.6878 7.64368 16.5316C7.68197 16.4514 7.71904 16.3754 7.75429 16.297C7.79501 16.2205 7.83451 16.1451 7.87766 16.0673C8.0381 15.7647 8.19732 15.4651 8.34986 15.1782C8.5182 14.8968 8.67986 14.6252 8.83483 14.3675C8.9114 14.2399 8.98129 14.1111 9.06151 13.9919C9.1393 13.8747 9.21587 13.7616 9.28819 13.6522C9.43343 13.4341 9.56713 13.2329 9.68503 13.0567C9.80597 12.8798 9.92144 12.7327 10.0096 12.6094C10.1931 12.362 10.2958 12.221 10.2958 12.221C10.2958 12.221 10.3238 12.1858 10.3736 12.1189C10.4192 12.0533 10.4866 11.9542 10.5875 11.837C10.6853 11.7178 10.8014 11.572 10.9388 11.4061C11.0074 11.3234 11.0773 11.2359 11.1551 11.1405C11.2317 11.0499 11.3064 10.9497 11.397 10.853C12.091 10.0575 13.0707 9.04203 14.1372 8.1116C15.2026 7.17935 16.3645 6.36074 17.2542 5.77551C17.7113 5.49778 18.0814 5.25772 18.3554 5.10275C18.6289 4.95204 18.7833 4.86392 18.7833 4.86392C18.7833 4.86392 18.9389 4.77823 19.2123 4.62751C19.281 4.58984 19.3564 4.54973 19.439 4.50354C19.5217 4.46221 19.611 4.41724 19.7113 4.36984C19.7763 4.33763 19.8438 4.3036 19.9149 4.27078H19.9313C20.1057 4.28476 20.3512 4.29387 20.6405 4.27686C21.2196 4.25073 21.9732 4.131 22.635 3.7688C22.979 3.59195 23.3005 3.35312 23.5819 3.09666C23.718 2.96539 23.8633 2.83533 23.9945 2.70528C24.1258 2.57584 24.2467 2.44457 24.3549 2.3212C24.5676 2.06839 24.7651 1.8496 24.8946 1.68552C25.0179 1.52326 25.0933 1.41994 25.0933 1.41994C25.0933 1.41994 24.9328 1.41387 24.6709 1.41083C24.4047 1.4084 24.0358 1.41569 23.6183 1.44972C23.5126 1.45884 23.4044 1.46735 23.2962 1.48011C23.1881 1.49348 23.0775 1.50867 22.9669 1.5269C22.7469 1.56094 22.5202 1.60469 22.2959 1.65635C21.8529 1.76209 21.3983 1.89883 21.0562 2.09269C20.7025 2.28352 20.4296 2.51689 20.2236 2.75451C20.0249 2.99517 19.9003 3.24494 19.8097 3.46615C19.7283 3.68493 19.6839 3.8788 19.6657 4.01797C19.6608 4.04592 19.6608 4.06962 19.6578 4.09393C19.6323 4.10791 19.6055 4.12128 19.58 4.13161C19.4822 4.18084 19.3892 4.22702 19.3035 4.26835C19.2221 4.31393 19.1443 4.35525 19.0744 4.39415C18.8009 4.54608 18.6441 4.6342 18.6441 4.6342C18.6441 4.6342 18.4837 4.71989 18.2114 4.87425C17.9379 5.03044 17.5611 5.27231 17.0999 5.5549C16.1998 6.14439 15.0239 6.97151 13.9482 7.91409C12.8713 8.85242 11.8813 9.88008 11.1825 10.6829C11.0919 10.7807 11.0147 10.8828 10.9382 10.9734C10.8604 11.0676 10.7881 11.1569 10.7206 11.242C10.582 11.4091 10.4635 11.555 10.3657 11.6747C10.2654 11.7938 10.198 11.8965 10.1469 11.9609C10.0971 12.0266 10.0691 12.063 10.0691 12.063C10.0691 12.063 9.9658 12.2058 9.78288 12.4538C9.69232 12.5808 9.57382 12.7291 9.45288 12.9059C9.33194 13.0858 9.19946 13.2882 9.053 13.5094C8.97521 13.62 8.90046 13.7349 8.82024 13.854C8.74367 13.9725 8.67135 14.1019 8.59113 14.2314C8.43677 14.4903 8.27146 14.7668 8.10373 15.0524C7.94937 15.3429 7.7865 15.6431 7.62788 15.9512C7.58595 16.029 7.54523 16.1044 7.5033 16.1822C7.46744 16.2594 7.42977 16.3396 7.39269 16.418C7.31855 16.5784 7.2438 16.7383 7.16844 16.8981C6.57774 18.1743 6.08791 19.4943 5.81261 20.5086C5.77311 20.635 5.73725 20.7547 5.70687 20.8726C5.66979 20.9875 5.63455 21.0938 5.61388 21.1983C5.56405 21.4056 5.5209 21.5879 5.48383 21.7374C5.41516 22.034 5.37079 22.2041 5.37079 22.2041C5.37079 22.2041 5.36046 22.2479 5.34284 22.3263C5.32278 22.4077 5.30455 22.5262 5.27538 22.6757C5.24986 22.8264 5.21461 23.01 5.17511 23.2184C5.13925 23.4299 5.08577 23.6645 5.0566 23.9246C5.02378 24.1847 4.98428 24.4661 4.94599 24.7651C4.9387 24.8392 4.92594 24.9158 4.91804 24.9905C4.90771 25.0695 4.90285 25.1467 4.89495 25.2251C4.88097 25.3813 4.87064 25.5405 4.85787 25.7071C4.7892 26.3579 4.7892 27.0568 4.76489 27.7569C4.7892 28.457 4.7892 29.1559 4.85787 29.808C4.87064 29.9727 4.88097 30.1313 4.89495 30.2899C4.90224 30.3689 4.90771 30.4473 4.91804 30.5221C4.92594 30.598 4.9387 30.6752 4.94599 30.7487C4.98428 31.0453 5.02378 31.3303 5.0566 31.5892C5.08577 31.8481 5.13925 32.0845 5.17511 32.2954C5.21461 32.5045 5.25046 32.6862 5.27538 32.8369C5.30455 32.9864 5.32278 33.1061 5.34284 33.1875C5.36046 33.2659 5.37079 33.3085 5.37079 33.3085C5.37079 33.3085 5.41516 33.4792 5.48383 33.7764C5.5209 33.9271 5.56405 34.1076 5.61388 34.3143C5.63394 34.4188 5.66979 34.5282 5.70687 34.643C5.73725 34.7579 5.77311 34.8788 5.81261 35.0065C6.0873 36.0195 6.57774 37.3383 7.16844 38.6169C7.2438 38.7774 7.31855 38.9372 7.39269 39.094C7.42977 39.1736 7.46805 39.2526 7.5033 39.3316C7.54523 39.4076 7.58595 39.486 7.62788 39.5632C7.78711 39.8689 7.94998 40.1703 8.10373 40.4608C8.27146 40.7458 8.43737 41.0211 8.59113 41.2806C8.67135 41.4101 8.74367 41.5395 8.82024 41.6598C8.90046 41.7771 8.97521 41.8938 9.053 42.0044C9.19946 42.2244 9.33194 42.4268 9.45288 42.6061C9.57382 42.7853 9.69232 42.9336 9.78288 43.0582C9.96641 43.3074 10.0691 43.449 10.0691 43.449C10.0691 43.449 10.0971 43.4854 10.1469 43.5535C10.198 43.6197 10.2654 43.7188 10.3657 43.8385C10.4635 43.9582 10.582 44.1053 10.7206 44.2724C10.7881 44.3563 10.8604 44.4456 10.9382 44.5386C11.0147 44.6304 11.0919 44.7349 11.1825 44.8315C11.8813 45.6362 12.8713 46.662 13.9482 47.5997C15.0239 48.5411 16.1998 49.3688 17.0999 49.9601C17.5605 50.2427 17.9373 50.484 18.2114 50.6408C18.4837 50.7939 18.6441 50.879 18.6441 50.879C18.6441 50.879 18.8009 50.9683 19.0744 51.1191C19.1443 51.158 19.2221 51.1993 19.3035 51.2455C19.3886 51.288 19.4816 51.3324 19.58 51.3804C19.7757 51.477 19.9975 51.5888 20.243 51.7067C21.2221 52.1643 22.5536 52.7374 23.9392 53.1543C24.2832 53.2741 24.6326 53.3567 24.979 53.4539C25.1486 53.5007 25.3212 53.5481 25.4895 53.5931C25.6566 53.6411 25.8268 53.6721 25.9921 53.7122C26.3245 53.7839 26.6436 53.8532 26.9505 53.9225C27.255 53.9754 27.5461 54.0246 27.8147 54.0708C27.9484 54.0939 28.0772 54.117 28.1988 54.1376C28.3221 54.1607 28.4382 54.1686 28.5488 54.185C28.7676 54.2112 28.9584 54.2343 29.1189 54.2531C29.433 54.292 29.6142 54.3157 29.6142 54.3157L29.6421 54.0471C29.6421 54.0471 29.4616 54.024 29.1492 53.9863L29.1511 53.9881Z" fill="#FFCD4F"/>
<path d="M81.8871 53.3868C82.0543 53.3856 82.2293 53.396 82.4183 53.4215C82.4675 53.4294 82.5161 53.4367 82.5635 53.4458C82.6121 53.4525 82.6577 53.4616 82.71 53.4695C82.8078 53.4889 82.9087 53.512 83.0114 53.5388C83.4241 53.6506 83.872 53.8329 84.3241 54.0401C84.7671 54.2346 85.2138 54.4528 85.6137 54.6588C86.0136 54.8636 86.3661 55.0599 86.617 55.193C86.8662 55.3249 87.0169 55.4106 87.0169 55.4106C87.0169 55.4106 86.9774 55.4251 86.8996 55.4543C86.8231 55.4792 86.7149 55.523 86.5751 55.5613C86.2937 55.6415 85.9005 55.746 85.4539 55.8366C85.3408 55.8597 85.2296 55.8828 85.1117 55.901C84.9908 55.9174 84.8686 55.9308 84.7453 55.9447C84.4985 55.9703 84.2475 55.9909 83.9984 55.9964C83.4982 56.0165 82.998 55.9551 82.5653 55.8366C81.7012 55.6002 81.1153 55.069 80.7531 54.6272C80.3867 54.1823 80.2311 53.8098 80.2311 53.8098C80.2311 53.8098 80.5276 53.6178 81.0199 53.5035C81.2654 53.4446 81.5571 53.3862 81.8896 53.3862L81.8871 53.3868Z" fill="#FFCD4F"/>
<path d="M80.5649 49.953C80.766 49.6322 81.0334 49.3526 81.3069 49.0779C81.443 48.9424 81.5883 48.8178 81.7323 48.7023C81.8077 48.6416 81.8775 48.5875 81.9438 48.5334C82.0112 48.4769 82.0811 48.4228 82.1449 48.3711C82.4136 48.1651 82.6554 47.9998 82.8311 47.8898C83.0067 47.7689 83.1149 47.7026 83.1149 47.7026C83.1149 47.7026 83.1173 47.8582 83.1076 48.1159C83.0997 48.376 83.0748 48.7206 83.017 49.1156C82.9599 49.5124 82.876 49.9561 82.7484 50.3888C82.6202 50.8075 82.4439 51.2159 82.2331 51.5526C82.1844 51.6389 82.1273 51.7185 82.069 51.7938C82.0422 51.8321 82.0118 51.8668 81.9809 51.9008C81.9517 51.9336 81.9237 51.9664 81.8927 51.9986C81.7694 52.122 81.6369 52.2278 81.5087 52.3183C81.3804 52.4089 81.2504 52.486 81.1215 52.5462C80.9957 52.6076 80.8748 52.6617 80.7563 52.6921C80.289 52.8264 79.9468 52.8033 79.9468 52.8033C79.9468 52.8033 79.8897 52.401 79.9492 51.8491C79.9772 51.5714 80.0282 51.2572 80.1261 50.9363C80.1528 50.8549 80.1783 50.7735 80.2087 50.6939C80.2367 50.61 80.2713 50.5249 80.3066 50.4423C80.3819 50.2776 80.4646 50.1104 80.5649 49.9524V49.953Z" fill="#FFCD4F"/>
<path d="M87.2443 50.9043C87.2747 50.8758 87.3197 50.8399 87.3725 50.7895C87.4832 50.6941 87.6515 50.5646 87.8678 50.4413C87.9785 50.3793 88.097 50.3197 88.2343 50.2644C88.3704 50.2091 88.5205 50.1599 88.6773 50.1094C88.9946 50.0165 89.3659 49.9599 89.7986 49.966C90.0204 49.9733 90.2453 49.9843 90.4798 50.0073C90.7114 50.0298 90.9569 50.0626 91.1964 50.1028C91.4443 50.1429 91.6886 50.1878 91.9281 50.2346C92.1639 50.2839 92.3978 50.3301 92.6166 50.3744C93.0584 50.4674 93.4468 50.5579 93.7251 50.6248C94.0089 50.6935 94.1772 50.7403 94.1772 50.7403C94.1772 50.7403 94.032 50.8393 93.7877 50.9931C93.6692 51.069 93.5166 51.1578 93.3513 51.2544C93.2699 51.3018 93.1794 51.3522 93.0864 51.4039C92.9934 51.4531 92.8931 51.5005 92.7898 51.5498C92.5862 51.6464 92.3644 51.7418 92.1395 51.8342C92.0241 51.8791 91.9104 51.9235 91.7919 51.9648C91.7324 51.9879 91.6765 52.0086 91.6163 52.028C91.5549 52.0438 91.4978 52.0627 91.437 52.0797C90.9496 52.2128 90.4592 52.2991 90.0125 52.2979C89.1027 52.2717 88.4039 51.9314 87.9304 51.6014C87.6922 51.4404 87.5105 51.2714 87.3859 51.1474C87.265 51.0259 87.2012 50.9451 87.2012 50.9451C87.2012 50.9451 87.2164 50.9305 87.2443 50.9037V50.9043Z" fill="#FFCD4F"/>
<path d="M88.4992 48.2552C88.3862 48.6265 88.2118 48.9334 88.0155 49.1795C87.9201 49.3072 87.8143 49.4087 87.705 49.4968C87.5992 49.5861 87.491 49.6615 87.3877 49.7277C87.1841 49.8565 86.9994 49.9392 86.8645 49.989C86.7982 50.0146 86.7387 50.0279 86.7028 50.037C86.6609 50.0474 86.6433 50.051 86.6433 50.051C86.6433 50.051 86.6001 49.958 86.5478 49.7982C86.4956 49.6372 86.4318 49.4099 86.3801 49.1333C86.2768 48.5815 86.2312 47.8559 86.4476 47.1467C86.5478 46.7821 86.7186 46.4314 86.9198 46.1081C87.113 45.7805 87.3245 45.4669 87.5336 45.2093C87.6393 45.0835 87.7299 44.954 87.8198 44.8446C87.9037 44.7352 87.9863 44.641 88.0538 44.5608C88.1899 44.4046 88.2805 44.3159 88.2805 44.3159C88.2805 44.3159 88.3273 44.4642 88.3838 44.7115C88.4464 44.9577 88.5187 45.3047 88.577 45.7021C88.605 45.9033 88.6342 46.1172 88.6494 46.3348C88.6621 46.5493 88.6694 46.7705 88.6645 46.9911C88.6621 47.2123 88.6494 47.4348 88.6238 47.6487C88.5947 47.862 88.5588 48.0723 88.4992 48.2558V48.2552Z" fill="#FFCD4F"/>
<path d="M93.4836 45.9415C93.5663 45.8212 93.6823 45.6528 93.8568 45.4741C94.03 45.2979 94.2566 45.1119 94.5404 44.9406C94.8194 44.7649 95.1591 44.6087 95.5742 44.4994C95.717 44.4617 95.8629 44.4313 96.016 44.4015C96.1649 44.3705 96.3174 44.345 96.4767 44.3201C97.2661 44.2016 98.1607 44.1554 98.834 44.1141C99.5147 44.0758 100.001 44.0679 100.001 44.0679C100.001 44.0679 99.8374 44.2769 99.5536 44.585C99.2777 44.8968 98.8547 45.2809 98.3825 45.6546C98.3114 45.7112 98.236 45.7652 98.1637 45.8205C98.1254 45.8491 98.0883 45.8759 98.0482 45.9044C98.0124 45.9299 97.9704 45.9549 97.9322 45.9816C97.7717 46.0837 97.6101 46.1815 97.4448 46.2703C97.2795 46.3596 97.1178 46.4404 96.9495 46.5091C96.7842 46.5796 96.6249 46.6416 96.4542 46.6817C95.5724 46.9011 94.8072 46.7643 94.2548 46.5735C93.6987 46.376 93.3639 46.1354 93.3639 46.1354C93.3639 46.1354 93.4022 46.0594 93.4848 45.9415H93.4836Z" fill="#FFCD4F"/>
<path d="M93.1918 44.9163C93.0314 45.0956 92.8825 45.2281 92.7616 45.3083C92.6419 45.3885 92.5653 45.4244 92.5653 45.4244C92.5653 45.4244 92.3015 45.1138 92.0499 44.6185C91.7917 44.1172 91.5334 43.428 91.5382 42.6902C91.5358 42.4186 91.565 42.1348 91.6209 41.8643C91.6476 41.7276 91.6835 41.5933 91.7187 41.4596C91.7582 41.3301 91.791 41.1934 91.8318 41.0676C91.8992 40.8464 91.977 40.6379 92.0548 40.4514C92.0748 40.4034 92.0955 40.3584 92.1107 40.3134C92.1308 40.2697 92.1466 40.2241 92.1654 40.1815C92.1958 40.0958 92.2292 40.0181 92.2608 39.9451C92.3842 39.6565 92.4796 39.4802 92.4796 39.4802C92.4796 39.4802 92.719 39.8442 93.0004 40.3973C93.0727 40.5346 93.1444 40.6829 93.2168 40.8427C93.2538 40.923 93.2891 41.0056 93.3249 41.0864C93.3596 41.1679 93.39 41.253 93.4228 41.338C93.5486 41.6771 93.6634 42.0418 93.737 42.4028C93.7686 42.5419 93.7892 42.6805 93.8093 42.8148C93.8245 42.9497 93.8293 43.0792 93.8293 43.2038C93.8293 43.5957 93.7491 43.9348 93.6331 44.2253C93.5121 44.511 93.3468 44.7383 93.19 44.9169L93.1918 44.9163Z" fill="#FFCD4F"/>
<path d="M99.3471 40.0517C99.1763 40.0596 99.0153 40.0566 98.8645 40.0481C98.2769 40.008 97.8843 39.8688 97.8843 39.8688C97.8843 39.8688 97.9007 39.7843 97.9438 39.6476C97.9669 39.5789 97.9973 39.4993 98.0368 39.4075C98.0696 39.3121 98.117 39.21 98.1705 39.1018C98.2866 38.8843 98.4464 38.6442 98.6731 38.4042C98.7254 38.3501 98.7837 38.2905 98.8487 38.2225C98.9113 38.1611 98.977 38.1021 99.0475 38.0432C99.1915 37.9247 99.3519 37.8086 99.5349 37.7004C99.7184 37.591 99.922 37.4877 100.141 37.3887C100.347 37.2866 100.569 37.1887 100.795 37.0945C101.247 36.9092 101.721 36.7372 102.152 36.5919C102.572 36.4424 102.947 36.3166 103.219 36.2285C103.492 36.138 103.661 36.0894 103.661 36.0894C103.661 36.0894 103.596 36.2492 103.477 36.5044C103.418 36.6339 103.349 36.7882 103.258 36.9554C103.165 37.1225 103.06 37.3012 102.944 37.492C102.824 37.6804 102.696 37.8779 102.557 38.0748C102.523 38.1216 102.487 38.1702 102.451 38.2188C102.412 38.265 102.374 38.313 102.335 38.3616C102.255 38.4558 102.175 38.5488 102.092 38.6406C101.924 38.8229 101.752 38.9967 101.574 39.1523C101.483 39.2325 101.396 39.3054 101.3 39.3753C101.205 39.4403 101.109 39.5029 101.011 39.5601C100.621 39.7849 100.233 39.9156 99.8691 39.9885C99.6856 40.0244 99.5118 40.0426 99.3459 40.0529L99.3471 40.0517Z" fill="#FFCD4F"/>
<path d="M97.5923 37.9605C97.554 38.2626 97.469 38.5282 97.3711 38.7445C97.3225 38.8515 97.2678 38.9469 97.2198 39.0295C97.1675 39.1128 97.1141 39.1803 97.0697 39.2331C96.9767 39.3425 96.9153 39.399 96.9153 39.399C96.9153 39.399 96.5714 39.1705 96.1861 38.7609C96.0882 38.66 95.9898 38.5482 95.8919 38.4248C95.7886 38.2984 95.6883 38.1611 95.5929 38.0189C95.407 37.7302 95.2392 37.4063 95.1335 37.0502C95.108 36.9614 95.0879 36.8727 95.0636 36.7797C95.0435 36.6868 95.0229 36.5926 95.0077 36.4984C94.9797 36.3106 94.9585 36.1197 94.953 35.9314C94.9481 35.5576 94.9402 35.182 94.9682 34.8587C94.9797 34.6952 94.9973 34.5421 95.015 34.4066C95.0253 34.2686 95.0381 34.1465 95.0508 34.0456C95.0751 33.8408 95.1007 33.7192 95.1007 33.7192C95.1007 33.7192 95.2216 33.8213 95.41 33.9994C95.5984 34.1756 95.8579 34.4309 96.1344 34.7396C96.4006 35.0441 96.6777 35.3996 96.9208 35.777C97.0442 35.9654 97.1548 36.1605 97.2557 36.3549C97.3511 36.5476 97.4264 36.7402 97.4823 36.928C97.5419 37.114 97.5753 37.2951 97.5929 37.4683C97.6045 37.554 97.6094 37.6397 97.6094 37.7211C97.6094 37.7618 97.6093 37.8031 97.6069 37.8433C97.6045 37.8822 97.599 37.921 97.5929 37.9605H97.5923Z" fill="#FFCD4F"/>
<path d="M102.783 32.272C102.615 32.3893 102.448 32.4847 102.277 32.5667C101.943 32.7284 101.614 32.825 101.329 32.8858C100.754 33.0013 100.339 32.969 100.339 32.969C100.339 32.969 100.29 32.6293 100.398 32.1547C100.424 32.035 100.468 31.9074 100.508 31.7737C100.55 31.6393 100.606 31.4971 100.676 31.3519C100.748 31.2073 100.836 31.0584 100.945 30.9089C100.998 30.8323 101.058 30.7581 101.123 30.6816C101.153 30.6439 101.187 30.6056 101.219 30.5667C101.254 30.529 101.287 30.4914 101.323 30.4537C101.888 29.8435 102.801 29.2182 103.52 28.7107C103.886 28.4591 104.216 28.2428 104.459 28.0872C104.701 27.9328 104.85 27.8423 104.85 27.8423C104.85 27.8423 104.83 28.0094 104.781 28.2884C104.731 28.5655 104.663 28.9483 104.548 29.3725C104.42 29.7973 104.254 30.261 104.048 30.6974C103.997 30.8074 103.94 30.9155 103.876 31.0201C103.814 31.1234 103.753 31.2249 103.685 31.3233C103.554 31.5196 103.41 31.7019 103.261 31.8593C103.105 32.021 102.954 32.1571 102.784 32.2738L102.783 32.272Z" fill="#FFCD4F"/>
<path d="M99.271 32.7673C99.271 32.7673 98.8742 32.636 98.3837 32.3425C98.137 32.1942 97.8684 32.007 97.6113 31.7791C97.4813 31.6643 97.3579 31.5403 97.2394 31.4048C97.1185 31.2698 97 31.1228 96.8948 30.9654C96.7915 30.8068 96.6985 30.6378 96.6213 30.4652C96.5411 30.292 96.4828 30.1146 96.4153 29.9322C96.2816 29.5737 96.1965 29.2121 96.134 28.8936C96.0537 28.5697 96.0082 28.2865 95.979 28.0829C95.9535 27.8806 95.9462 27.7566 95.9462 27.7566C95.9462 27.7566 96.0884 27.8247 96.3175 27.9462C96.5466 28.0696 96.8608 28.2488 97.2096 28.4743C97.5518 28.7004 97.9389 28.972 98.2658 29.2735C98.6007 29.5737 98.9088 29.9043 99.13 30.2373C99.2461 30.4026 99.3209 30.5673 99.3847 30.7296C99.4442 30.8906 99.488 31.0492 99.5172 31.2012C99.5451 31.3519 99.5579 31.499 99.5603 31.6369C99.5652 31.7712 99.5451 31.9001 99.5275 32.0161C99.4448 32.4804 99.2716 32.7661 99.2716 32.7661L99.271 32.7673Z" fill="#FFCD4F"/>
<path d="M103.686 21.9755C103.66 22.156 103.626 22.3371 103.585 22.5145C103.503 22.8676 103.402 23.2031 103.236 23.4972C103.028 23.8861 102.771 24.1955 102.499 24.4404C102.226 24.6853 101.948 24.8652 101.682 24.9971C101.156 25.2657 100.749 25.3441 100.749 25.3441C100.749 25.3441 100.712 25.2657 100.679 25.1265C100.646 24.9861 100.591 24.7886 100.571 24.5461C100.548 24.3043 100.553 24.018 100.614 23.7008C100.671 23.383 100.772 23.0359 100.965 22.664C101.033 22.5419 101.104 22.4124 101.187 22.2854C101.225 22.2228 101.267 22.159 101.31 22.0921C101.352 22.0308 101.393 21.9615 101.435 21.8989C101.653 21.5768 101.898 21.2492 102.146 20.9387C102.393 20.6269 102.64 20.3291 102.852 20.0751C103.275 19.5634 103.594 19.2073 103.594 19.2073C103.594 19.2073 103.645 19.4674 103.695 19.8752C103.726 20.0788 103.736 20.3225 103.744 20.5856C103.753 20.85 103.753 21.1362 103.739 21.4303C103.734 21.6078 103.711 21.7938 103.686 21.9767V21.9755Z" fill="#FFCD4F"/>
<path d="M96.8682 24.3383C96.8147 24.2958 96.7649 24.2471 96.7169 24.1979C96.6646 24.1487 96.6136 24.0989 96.5644 24.0472C96.4635 23.9451 96.3711 23.8363 96.2866 23.7257C96.1985 23.6151 96.1159 23.5021 96.0387 23.3854C95.9585 23.2644 95.8843 23.1496 95.8144 23.0432C95.6886 22.8469 95.5762 22.6525 95.4844 22.4744C95.4352 22.3832 95.3915 22.2957 95.352 22.2143C95.3161 22.131 95.2693 22.0569 95.2359 21.9876C95.0918 21.7075 95.0195 21.5239 95.0195 21.5239C95.0195 21.5239 95.4601 21.5932 96.0824 21.7603C96.2338 21.8004 96.4045 21.8466 96.5686 21.9038C96.7339 21.9578 96.9096 22.021 97.0815 22.0897C97.4328 22.2246 97.7908 22.3875 98.1238 22.5741C98.3809 22.7157 98.5996 22.8767 98.7984 23.0463C99.0974 23.3064 99.3149 23.5896 99.4565 23.8685C99.5902 24.1463 99.6601 24.4167 99.6929 24.647C99.7251 24.8828 99.73 25.0791 99.7057 25.2183C99.6881 25.3575 99.665 25.4383 99.665 25.4383C99.665 25.4383 99.2499 25.4182 98.695 25.2645C98.1438 25.1125 97.4298 24.8348 96.867 24.3383H96.8682Z" fill="#FFCD4F"/>
<path d="M100.357 16.5703C100.161 16.8796 99.9397 17.1312 99.7282 17.3306C99.3046 17.7262 98.9339 17.9121 98.9339 17.9121C98.9339 17.9121 98.8792 17.8465 98.8015 17.7237C98.7224 17.6028 98.6295 17.4168 98.5365 17.1932C98.4435 16.9671 98.3609 16.693 98.325 16.3716C98.3074 16.2129 98.3074 16.0379 98.3074 15.8586C98.3074 15.6794 98.325 15.4861 98.3609 15.2825C98.3991 15.0789 98.4538 14.865 98.5189 14.6444C98.5517 14.535 98.5875 14.4214 98.627 14.3096C98.6653 14.1996 98.7024 14.0877 98.7401 13.9753C98.8938 13.528 99.0774 13.0777 99.2506 12.6729C99.3356 12.473 99.4183 12.281 99.4924 12.1096C99.5678 11.9406 99.6353 11.7875 99.6887 11.6611C99.8018 11.4058 99.8747 11.2551 99.8747 11.2551C99.8747 11.2551 99.9573 11.4058 100.076 11.6611C100.143 11.7863 100.202 11.9461 100.272 12.1211C100.34 12.2992 100.411 12.4955 100.478 12.7039C100.511 12.8097 100.548 12.9179 100.581 13.026C100.612 13.1366 100.647 13.2497 100.67 13.3688C100.724 13.5991 100.765 13.8416 100.798 14.0804C100.829 14.3205 100.85 14.5605 100.85 14.7909C100.848 15.0273 100.827 15.2533 100.785 15.4679C100.7 15.8957 100.546 16.2603 100.357 16.5697V16.5703Z" fill="#FFCD4F"/>
<path d="M94.4142 17.7191C94.2464 17.6158 94.0817 17.5015 93.9292 17.3824C93.7779 17.2627 93.6351 17.1381 93.5014 17.0129C93.3652 16.8908 93.2303 16.7704 93.1118 16.6519C92.9933 16.5346 92.8851 16.4198 92.7897 16.3189C92.7423 16.2648 92.6992 16.2156 92.6585 16.1706C92.6165 16.125 92.5782 16.0843 92.5412 16.046C92.3971 15.8929 92.3199 15.7963 92.3199 15.7963C92.3199 15.7963 92.4804 15.7768 92.7454 15.7598C93.0085 15.7434 93.3853 15.7239 93.7955 15.7397C94.2081 15.7525 94.6749 15.7914 95.1307 15.8655C95.2461 15.8868 95.3598 15.9069 95.474 15.9306C95.5822 15.9585 95.6904 15.9859 95.7961 16.0163C96.0076 16.0776 96.2088 16.1506 96.3941 16.2356C96.5758 16.3189 96.7418 16.4131 96.8894 16.5152C97.0359 16.6185 97.1514 16.7334 97.2626 16.847C97.4716 17.0773 97.6217 17.315 97.7275 17.5289C97.8278 17.7434 97.8685 17.9385 97.8952 18.0752C97.9207 18.2132 97.9232 18.2946 97.9232 18.2946C97.9232 18.2946 97.5184 18.3894 96.9405 18.3918C96.6518 18.3949 96.3242 18.3754 95.9785 18.3147C95.6284 18.2581 95.2644 18.1597 94.9143 18.0017C94.7411 17.9215 94.5746 17.8248 94.4142 17.7191Z" fill="#FFCD4F"/>
<path d="M96.2345 9.88756C96.1342 10.2346 95.9926 10.5336 95.8449 10.7785C95.5508 11.2653 95.2494 11.5418 95.2494 11.5418C95.2494 11.5418 94.9528 11.3485 94.6562 10.9565C94.5827 10.8575 94.5073 10.7463 94.4375 10.6211C94.3651 10.5001 94.2886 10.3658 94.226 10.2188C94.0977 9.92402 94.0048 9.5685 93.9628 9.15403C93.9197 8.74686 93.927 8.28012 93.9604 7.80367C93.9975 7.32113 94.0382 6.85076 94.0929 6.41745C94.1439 5.98596 94.1986 5.60431 94.2393 5.32537C94.2837 5.0525 94.3092 4.88477 94.3092 4.88477C94.3092 4.88477 94.342 4.91394 94.3943 4.97532C94.4429 5.03427 94.5177 5.12178 94.6107 5.23056C94.7912 5.45177 95.0385 5.76232 95.2913 6.12756C95.5308 6.50314 95.7775 6.93219 95.9762 7.37158C96.167 7.81886 96.302 8.28559 96.3451 8.71222C96.3554 8.82039 96.3603 8.92492 96.3603 9.02641C96.3603 9.1279 96.353 9.23243 96.3427 9.33088C96.322 9.52961 96.2837 9.71314 96.2345 9.88756Z" fill="#FFCD4F"/>
<path d="M90.8249 12.5244C90.7295 12.4952 90.6402 12.4612 90.5472 12.4253C90.5028 12.4077 90.4591 12.3889 90.4123 12.3712C90.3637 12.3512 90.3193 12.3336 90.2762 12.3159C89.9073 12.1701 89.5748 11.9902 89.2831 11.8194C88.9817 11.6608 88.7344 11.504 88.5587 11.3892C88.4736 11.3296 88.4032 11.2792 88.3576 11.2469C88.3053 11.2147 88.2798 11.1977 88.2798 11.1977C88.2798 11.1977 88.3193 11.1825 88.3855 11.1564C88.4578 11.1309 88.5563 11.0944 88.6797 11.0543C88.9282 10.9729 89.2777 10.8671 89.683 10.7717C89.8866 10.7249 90.1005 10.6781 90.3272 10.638C90.439 10.6186 90.5527 10.5991 90.6657 10.5839C90.7787 10.5705 90.8948 10.5578 91.0054 10.5499C91.4649 10.5098 91.9231 10.511 92.3303 10.5772C92.7302 10.6453 93.0583 10.7845 93.3306 10.9467C93.4679 11.0282 93.5913 11.1157 93.697 11.2068C93.8004 11.2998 93.8879 11.3952 93.9657 11.4858C94.275 11.8528 94.3783 12.167 94.3783 12.167C94.3783 12.167 94.0118 12.3633 93.4515 12.5177C93.1762 12.5967 92.8493 12.6635 92.5004 12.697C92.1467 12.7298 91.7839 12.717 91.3944 12.6605C91.2011 12.6295 91.0097 12.5815 90.8243 12.5226L90.8249 12.5244Z" fill="#FFCD4F"/>
<path d="M89.7637 5.90161C89.6914 6.05658 89.6403 6.14288 89.6403 6.14288C89.6403 6.14288 89.616 6.13437 89.5808 6.11918C89.5425 6.10399 89.4878 6.08272 89.4216 6.0499C89.2842 5.98791 89.0982 5.89007 88.8971 5.73935C88.5075 5.43124 88.0238 4.97605 87.7145 4.1933C87.6111 3.93684 87.5157 3.65425 87.4331 3.35282C87.3298 2.97907 87.2471 2.57979 87.1724 2.19267C87.0946 1.81406 87.0259 1.44578 86.9712 1.11882C86.863 0.467948 86.8047 0.00121545 86.8047 0C86.8047 0 87.0387 0.140384 87.3839 0.382259C87.5546 0.501373 87.7558 0.647227 87.9691 0.813136C88.1781 0.986945 88.3969 1.18142 88.6109 1.39047C88.7458 1.51992 88.8746 1.65119 88.998 1.78732C89.0326 1.82196 89.063 1.85599 89.0934 1.89185C89.1213 1.92649 89.1505 1.96295 89.1809 2.00063C89.238 2.07356 89.2939 2.14709 89.3486 2.22184C89.565 2.51841 89.7509 2.82653 89.8767 3.12917C89.9618 3.32547 90.0129 3.5327 90.0499 3.72596C90.0858 3.92043 90.1034 4.10943 90.1059 4.29054C90.1138 4.65031 90.0627 4.97423 89.9898 5.2471C89.9199 5.52239 89.833 5.74361 89.7631 5.9004L89.7637 5.90161Z" fill="#FFCD4F"/>
<path d="M84.5551 8.14026C84.3212 8.09407 84.0993 8.03999 83.8957 7.9859C83.6922 7.9391 83.5062 7.89049 83.3512 7.84673C83.0419 7.75679 82.8511 7.68082 82.8511 7.68082C82.8511 7.68082 83.2023 7.41403 83.7432 7.0889C84.0094 6.92663 84.326 6.75039 84.6712 6.58631C85.0121 6.42648 85.3725 6.28366 85.7365 6.17549C86.0155 6.09223 86.2951 6.0272 86.5588 5.99925C87.3634 5.92693 87.9973 6.15786 88.3917 6.43559C88.5929 6.57112 88.7405 6.70664 88.8408 6.80874C88.8919 6.85796 88.9289 6.90172 88.9514 6.93089C88.9745 6.96188 88.9842 6.98011 88.9842 6.98011C88.9842 6.98011 88.9119 7.05122 88.7782 7.15939C88.6445 7.26757 88.4464 7.41342 88.1978 7.56171C87.9535 7.71242 87.6594 7.86618 87.3349 7.98954C87.1696 8.05153 87 8.10987 86.8219 8.15059C86.6439 8.19556 86.4603 8.22595 86.2641 8.25269C85.6952 8.32258 85.1045 8.2296 84.5545 8.14208L84.5551 8.14026Z" fill="#FFCD4F"/>
<path d="M76.1549 53.9881C76.3074 53.9693 76.4994 53.9456 76.7176 53.9201C76.8258 53.9043 76.9419 53.8964 77.0628 53.8733C77.1837 53.852 77.3095 53.8307 77.442 53.8058C77.707 53.7614 77.9932 53.7134 78.3001 53.6594C78.6016 53.5931 78.9188 53.5226 79.247 53.4515C79.411 53.4132 79.5794 53.3822 79.7471 53.3354C79.9112 53.2905 80.082 53.2437 80.2527 53.1975C80.5925 53.1027 80.9425 53.0188 81.281 52.9015C82.6545 52.4883 83.969 51.92 84.9389 51.4661C85.1784 51.3488 85.4008 51.2394 85.5946 51.1452C85.6949 51.096 85.7843 51.0498 85.8669 51.0085C85.9496 50.9659 86.0249 50.9222 86.0936 50.8863C86.3671 50.7356 86.5226 50.6475 86.5226 50.6475C86.5226 50.6475 86.6764 50.5624 86.9505 50.4111C87.224 50.2549 87.5947 50.0142 88.0517 49.7371C88.9414 49.1512 90.1034 48.3333 91.1687 47.4016C92.2353 46.4706 93.2155 45.4545 93.9089 44.6577C93.9995 44.5623 94.0742 44.4614 94.1508 44.3691C94.2286 44.2767 94.2985 44.1892 94.3672 44.1059C94.5045 43.9412 94.6206 43.7954 94.7184 43.6756C94.8187 43.5578 94.8861 43.4575 94.9323 43.3918C94.9822 43.325 95.0101 43.291 95.0101 43.291C95.0101 43.291 95.1134 43.1518 95.2964 42.9026C95.3845 42.7793 95.5 42.6322 95.6209 42.4553C95.7394 42.2791 95.8731 42.0779 96.0177 41.8604C96.09 41.7522 96.1666 41.6386 96.2444 41.5188C96.3246 41.4015 96.3945 41.2751 96.4711 41.1445C96.6261 40.8868 96.7877 40.6151 96.9561 40.3338C97.1086 40.0457 97.2678 39.7461 97.4283 39.4447C97.4714 39.3669 97.5109 39.2927 97.5516 39.215C97.5875 39.1366 97.6239 39.0575 97.6622 38.981C97.7346 38.823 97.8099 38.6662 97.8841 38.5076C98.4669 37.2429 98.9494 35.9357 99.2259 34.9317C99.2618 34.8071 99.297 34.6868 99.3341 34.5732C99.3645 34.4601 99.3979 34.3532 99.4222 34.2498C99.4708 34.045 99.5152 33.8639 99.548 33.7163C99.6203 33.4221 99.6616 33.252 99.6616 33.252C99.6616 33.252 99.672 33.2106 99.6896 33.1322C99.7072 33.0544 99.7291 32.9347 99.7571 32.7852C99.785 32.6369 99.8154 32.4577 99.8549 32.2486C99.8908 32.0426 99.9455 31.8074 99.9734 31.5485C100.006 31.292 100.046 31.0125 100.084 30.7183C100.091 30.6442 100.104 30.5701 100.112 30.4947C100.124 30.4175 100.126 30.3416 100.134 30.2632C100.144 30.107 100.159 29.949 100.172 29.7861C100.24 29.1407 100.24 28.4485 100.26 27.7557C100.24 27.0635 100.24 26.3713 100.172 25.7241C100.159 25.563 100.144 25.4038 100.134 25.2482C100.126 25.1698 100.124 25.0933 100.112 25.0179C100.104 24.9413 100.091 24.8672 100.084 24.7918C100.046 24.4995 100.006 24.2181 99.9734 23.9617C99.9455 23.704 99.8908 23.4718 99.8549 23.2628C99.8154 23.0555 99.785 22.8744 99.7571 22.7249C99.7291 22.5767 99.7072 22.4582 99.6896 22.3804C99.672 22.3001 99.6616 22.2576 99.6616 22.2576C99.6616 22.2576 99.6209 22.0905 99.548 21.7951C99.5152 21.6481 99.4702 21.4688 99.4222 21.2634C99.3979 21.1601 99.3651 21.0507 99.3341 20.9376C99.297 20.8246 99.2618 20.7055 99.2259 20.5791C98.95 19.5763 98.4675 18.2691 97.8841 17.0032C97.8099 16.847 97.7352 16.6878 97.6622 16.5316C97.6239 16.4514 97.5869 16.3754 97.5516 16.297C97.5109 16.2205 97.4714 16.1451 97.4283 16.0673C97.2678 15.7647 97.1086 15.4651 96.9561 15.1782C96.7877 14.8968 96.6261 14.6252 96.4711 14.3675C96.3945 14.2399 96.3246 14.1111 96.2444 13.9919C96.1666 13.8747 96.09 13.7616 96.0177 13.6522C95.8725 13.4341 95.7388 13.2329 95.6209 13.0567C95.5 12.8798 95.3845 12.7327 95.2964 12.6094C95.1128 12.362 95.0101 12.221 95.0101 12.221C95.0101 12.221 94.9822 12.1858 94.9323 12.1189C94.8868 12.0533 94.8193 11.9542 94.7184 11.837C94.6206 11.7178 94.5045 11.572 94.3672 11.4061C94.2985 11.3234 94.2286 11.2359 94.1508 11.1405C94.0742 11.0499 93.9995 10.9497 93.9089 10.853C93.2149 10.0575 92.2353 9.04203 91.1687 8.1116C90.1034 7.17935 88.9414 6.36074 88.0517 5.77551C87.5947 5.49778 87.2246 5.25772 86.9505 5.10275C86.677 4.95204 86.5226 4.86392 86.5226 4.86392C86.5226 4.86392 86.3671 4.77823 86.0936 4.62751C86.0249 4.58984 85.9496 4.54973 85.8669 4.50354C85.7843 4.46221 85.6949 4.41724 85.5946 4.36984C85.5296 4.33763 85.4622 4.3036 85.3911 4.27078H85.3746C85.2002 4.28476 84.9547 4.29387 84.6654 4.27686C84.0863 4.25073 83.3327 4.131 82.6709 3.7688C82.3269 3.59195 82.0054 3.35312 81.724 3.09666C81.5879 2.96539 81.4427 2.83533 81.3114 2.70528C81.1801 2.57584 81.0592 2.44457 80.951 2.3212C80.7383 2.06839 80.5408 1.8496 80.4114 1.68552C80.288 1.52326 80.2126 1.41994 80.2126 1.41994C80.2126 1.41994 80.3731 1.41387 80.635 1.41083C80.9012 1.4084 81.2701 1.41569 81.6876 1.44972C81.7933 1.45884 81.9015 1.46735 82.0097 1.48011C82.1178 1.49348 82.2285 1.50867 82.3391 1.5269C82.5591 1.56094 82.7857 1.60469 83.01 1.65635C83.453 1.76209 83.9076 1.89883 84.2498 2.09269C84.6034 2.28352 84.8763 2.51689 85.0823 2.75451C85.2811 2.99517 85.4056 3.24494 85.4962 3.46615C85.5776 3.68493 85.622 3.8788 85.6402 4.01797C85.6451 4.04592 85.6451 4.06962 85.6481 4.09393C85.6736 4.10791 85.7004 4.12128 85.7259 4.13161C85.8238 4.18084 85.9167 4.22702 86.0024 4.26835C86.0839 4.31393 86.1617 4.35525 86.2315 4.39415C86.505 4.54608 86.6618 4.6342 86.6618 4.6342C86.6618 4.6342 86.8222 4.71989 87.0945 4.87425C87.368 5.03044 87.7448 5.27231 88.206 5.5549C89.1061 6.14439 90.282 6.97151 91.3577 7.91409C92.4346 8.85242 93.4246 9.88008 94.1235 10.6829C94.214 10.7807 94.2912 10.8828 94.3678 10.9734C94.4456 11.0676 94.5179 11.1569 94.5853 11.242C94.7239 11.4091 94.8424 11.555 94.9402 11.6747C95.0405 11.7938 95.108 11.8965 95.159 11.9609C95.2088 12.0266 95.2368 12.063 95.2368 12.063C95.2368 12.063 95.3401 12.2058 95.523 12.4538C95.6136 12.5808 95.7321 12.7291 95.853 12.9059C95.974 13.0858 96.1065 13.2882 96.2529 13.5094C96.3307 13.62 96.4055 13.7349 96.4857 13.854C96.5623 13.9725 96.6346 14.1019 96.7148 14.2314C96.8692 14.4903 97.0345 14.7668 97.2022 15.0524C97.3565 15.3429 97.5194 15.6431 97.678 15.9512C97.72 16.029 97.7607 16.1044 97.8026 16.1822C97.8385 16.2594 97.8762 16.3396 97.9132 16.418C97.9874 16.5784 98.0621 16.7383 98.1375 16.8981C98.7282 18.1743 99.218 19.4943 99.4933 20.5086C99.5328 20.635 99.5687 20.7547 99.5991 20.8726C99.6361 20.9875 99.6714 21.0938 99.692 21.1983C99.7419 21.4056 99.785 21.5879 99.8221 21.7374C99.8908 22.034 99.9351 22.2041 99.9351 22.2041C99.9351 22.2041 99.9455 22.2479 99.9631 22.3263C99.9831 22.4077 100.001 22.5262 100.031 22.6757C100.056 22.8264 100.091 23.01 100.131 23.2184C100.167 23.4299 100.22 23.6645 100.249 23.9246C100.282 24.1847 100.322 24.4661 100.36 24.7651C100.367 24.8392 100.38 24.9158 100.388 24.9905C100.398 25.0695 100.403 25.1467 100.411 25.2251C100.425 25.3813 100.435 25.5405 100.448 25.7071C100.517 26.3579 100.517 27.0568 100.541 27.7569C100.517 28.457 100.517 29.1559 100.448 29.808C100.435 29.9727 100.425 30.1313 100.411 30.2899C100.404 30.3689 100.398 30.4473 100.388 30.5221C100.38 30.598 100.367 30.6752 100.36 30.7487C100.322 31.0453 100.282 31.3303 100.249 31.5892C100.22 31.8481 100.167 32.0845 100.131 32.2954C100.091 32.5045 100.055 32.6862 100.031 32.8369C100.001 32.9864 99.9831 33.1061 99.9631 33.1875C99.9455 33.2659 99.9351 33.3085 99.9351 33.3085C99.9351 33.3085 99.8908 33.4792 99.8221 33.7764C99.785 33.9271 99.7419 34.1076 99.692 34.3143C99.672 34.4188 99.6361 34.5282 99.5991 34.643C99.5687 34.7579 99.5328 34.8788 99.4933 35.0065C99.2186 36.0195 98.7282 37.3383 98.1375 38.6169C98.0621 38.7774 97.9874 38.9372 97.9132 39.094C97.8762 39.1736 97.8379 39.2526 97.8026 39.3316C97.7607 39.4076 97.72 39.486 97.678 39.5632C97.5188 39.8689 97.3559 40.1703 97.2022 40.4608C97.0345 40.7458 96.8685 41.0211 96.7148 41.2806C96.6346 41.4101 96.5623 41.5395 96.4857 41.6598C96.4055 41.7771 96.3307 41.8938 96.2529 42.0044C96.1065 42.2244 95.974 42.4268 95.853 42.6061C95.7321 42.7853 95.6136 42.9336 95.523 43.0582C95.3395 43.3074 95.2368 43.449 95.2368 43.449C95.2368 43.449 95.2088 43.4854 95.159 43.5535C95.108 43.6197 95.0405 43.7188 94.9402 43.8385C94.8424 43.9582 94.7239 44.1053 94.5853 44.2724C94.5179 44.3563 94.4456 44.4456 94.3678 44.5386C94.2912 44.6304 94.214 44.7349 94.1235 44.8315C93.4246 45.6362 92.4346 46.662 91.3577 47.5997C90.282 48.5411 89.1061 49.3688 88.206 49.9601C87.7454 50.2427 87.3686 50.484 87.0945 50.6408C86.8222 50.7939 86.6618 50.879 86.6618 50.879C86.6618 50.879 86.505 50.9683 86.2315 51.1191C86.1617 51.158 86.0839 51.1993 86.0024 51.2455C85.9173 51.288 85.8244 51.3324 85.7259 51.3804C85.5302 51.477 85.3084 51.5888 85.0629 51.7067C84.0838 52.1643 82.7523 52.7374 81.3667 53.1543C81.0227 53.2741 80.6733 53.3567 80.3269 53.4539C80.1573 53.5007 79.9847 53.5481 79.8164 53.5931C79.6493 53.6411 79.4791 53.6721 79.3138 53.7122C78.9814 53.7839 78.6623 53.8532 78.3554 53.9225C78.051 53.9754 77.7599 54.0246 77.4912 54.0708C77.3575 54.0939 77.2287 54.117 77.1072 54.1376C76.9838 54.1607 76.8677 54.1686 76.7571 54.185C76.5383 54.2112 76.3475 54.2343 76.1871 54.2531C75.8729 54.292 75.6918 54.3157 75.6918 54.3157L75.6638 54.0471C75.6638 54.0471 75.8443 54.024 76.1567 53.9863L76.1549 53.9881Z" fill="#FFCD4F"/>
</g>
<defs>
<clipPath id="clip0_17131_249">
<rect width="104.394" height="56" fill="white" transform="translate(0.456665)"/>
</clipPath>
</defs>
</svg>
