<svg width="16" height="24" viewBox="0 0 16 24" fill="none" xmlns="http://www.w3.org/2000/svg">
<path fill-rule="evenodd" clip-rule="evenodd" d="M14.1685 5.33042C14.1685 6.79179 13.6609 8.22112 12.739 9.35509C12.4939 9.65648 12.5396 10.0996 12.8412 10.3446C12.9716 10.4506 13.1285 10.5022 13.2845 10.5022C13.4888 10.5022 13.6917 10.4134 13.8307 10.2424C14.9559 8.8585 15.5755 7.11406 15.5755 5.33042C15.5755 3.46421 14.9043 1.65823 13.6855 0.24503C13.4317 -0.04922 12.9875 -0.081996 12.6933 0.171789C12.3992 0.42539 12.3664 0.869604 12.62 1.16385C13.6187 2.32182 14.1685 3.80149 14.1685 5.33042ZM2.29102 10.5022C2.44703 10.5022 2.60395 10.4506 2.73432 10.3446C3.0359 10.0996 3.08148 9.65648 2.8365 9.35509C1.91455 8.22112 1.40699 6.79179 1.40699 5.33042C1.40699 3.80149 1.95686 2.32182 2.95551 1.16386C3.20911 0.869789 3.17634 0.425574 2.88208 0.17179C2.58802 -0.0818116 2.1438 -0.0490356 1.89002 0.245032C0.671265 1.65825 0 3.46439 0 5.33061C0 7.11406 0.619629 8.8585 1.74482 10.2426C1.88379 10.4136 2.08648 10.5022 2.29102 10.5022ZM3.79359 8.33352C3.93183 8.51735 4.14276 8.61422 4.35627 8.61422C4.50348 8.61422 4.65199 8.56807 4.77851 8.47286C5.08906 8.23941 5.15149 7.7983 4.91804 7.48794C4.45331 6.86977 4.19734 6.10366 4.19734 5.33041C4.19734 4.50331 4.4861 3.69527 5.01032 3.0555C5.25642 2.75502 5.21247 2.31173 4.91199 2.06545C4.61152 1.81935 4.16822 1.8633 3.92194 2.16378C3.19227 3.05439 2.79035 4.17903 2.79035 5.33041C2.79035 6.40689 3.14667 7.47329 3.79359 8.33352ZM10.6575 7.48794C11.1224 6.86995 11.3782 6.10366 11.3782 5.33041C11.3782 4.50331 11.0896 3.69545 10.5654 3.05531C10.3191 2.75483 10.3632 2.31173 10.6635 2.06545C10.9642 1.81935 11.4073 1.8633 11.6536 2.16378C12.3834 3.05439 12.7852 4.17903 12.7852 5.33041C12.7852 6.4067 12.4289 7.47329 11.7819 8.33352C11.6437 8.51735 11.4328 8.61422 11.2193 8.61422C11.072 8.61422 10.9235 8.56807 10.797 8.47286C10.4865 8.23941 10.424 7.79849 10.6575 7.48794ZM12.4263 22.5942H14.4011C14.7896 22.5942 15.1045 22.9091 15.1045 23.2977C15.1045 23.6861 14.7896 24.001 14.4011 24.001H1.17627C0.787716 24.001 0.472774 23.6861 0.472774 23.2977C0.472774 22.9091 0.787716 22.5942 1.17627 22.5942H3.14722L6.74176 7.27299C6.05108 6.89982 5.5807 6.16923 5.5807 5.33042C5.5807 4.11405 6.57037 3.12437 7.78675 3.12437C9.00312 3.12437 9.9928 4.11405 9.9928 5.33042C9.9928 6.16905 9.5224 6.89982 8.83173 7.27299L12.4263 22.5942ZM6.96351 15.3317L9.65351 16.9355L8.99763 14.1398L6.96351 15.3317ZM8.586 5.33042C8.586 4.88987 8.22748 4.53135 7.78675 4.53135C7.34619 4.53135 6.98767 4.88987 6.98767 5.33042C6.98767 5.77115 7.34619 6.12967 7.78675 6.12967C8.22748 6.12967 8.586 5.77115 8.586 5.33042ZM8.66125 12.7063L7.78675 8.97881L6.63355 13.8945L8.66125 12.7063ZM9.3338 18.3827L6.04102 16.4197L4.97571 20.9607L9.3338 18.3827ZM10.2495 19.4757L4.97754 22.5942H10.981L10.2495 19.4757Z" fill="white"/>
</svg>
