<svg width="21" height="20" viewBox="0 0 21 20" fill="none" xmlns="http://www.w3.org/2000/svg">
<g clip-path="url(#clip0_12173_659)">
<path d="M4.70532 18.6235L1.21428 15.7144V10.7144H5.03081C5.78858 10.7144 6.51529 11.0154 7.05112 11.5512L8.71428 13.2144C9.30601 13.8061 9.30601 14.7655 8.71428 15.3572C8.54915 15.5224 8.35539 15.6414 8.14898 15.7144H14.5476C15.8626 15.7144 16.9286 16.7804 16.9286 18.0952C16.9286 18.7528 16.3956 19.2858 15.7381 19.2858H6.53442C5.86604 19.2858 5.21879 19.0514 4.70532 18.6235Z" fill="#ECF3FF"/>
<path d="M14.0714 12.1429C17.2273 12.1429 19.7857 9.58456 19.7857 6.42864C19.7857 3.27273 17.2273 0.714355 14.0714 0.714355C10.9155 0.714355 8.35713 3.27273 8.35713 6.42864C8.35713 9.58456 10.9155 12.1429 14.0714 12.1429Z" fill="white"/>
<path d="M14.0714 12.1429C17.2273 12.1429 19.7857 9.58456 19.7857 6.42864C19.7857 3.27273 17.2273 0.714355 14.0714 0.714355C10.9155 0.714355 8.35713 3.27273 8.35713 6.42864C8.35713 9.58456 10.9155 12.1429 14.0714 12.1429Z" stroke="#1163FB" stroke-width="1.5" stroke-linecap="round" stroke-linejoin="round"/>
<path d="M14.0714 7.85714V5" stroke="#1163FB" stroke-width="1.5" stroke-linecap="round" stroke-linejoin="round"/>
<path d="M1.21428 15.7144L4.70532 18.6235C5.21879 19.0514 5.86604 19.2858 6.53442 19.2858H15.7381C16.3956 19.2858 16.9286 18.7528 16.9286 18.0952C16.9286 16.7804 15.8626 15.7144 14.5476 15.7144H8.14898" stroke="#1163FB" stroke-width="1.5" stroke-linecap="round" stroke-linejoin="round"/>
<path d="M5.49999 14.2858L6.57142 15.3572C7.16315 15.949 8.12255 15.949 8.71428 15.3572C9.30601 14.7655 9.30601 13.8061 8.71428 13.2144L7.05112 11.5512C6.51529 11.0154 5.78858 10.7144 5.03081 10.7144H1.21428" stroke="#1163FB" stroke-width="1.5" stroke-linecap="round" stroke-linejoin="round"/>
</g>
<defs>
<clipPath id="clip0_12173_659">
<rect width="20" height="20" fill="white" transform="translate(0.5)"/>
</clipPath>
</defs>
</svg>
