<svg width="20" height="20" viewBox="0 0 20 20" fill="none" xmlns="http://www.w3.org/2000/svg">
<path d="M13.0815 16.4897H17.5672C17.946 16.4897 18.3094 16.3392 18.5773 16.0713C18.8452 15.8034 18.9957 15.4401 18.9957 15.0612V11.2012H13.0815V16.4897Z" fill="#ECF3FF"/>
<path d="M18.9943 10.7742L17.0057 6.70276C16.8884 6.46201 16.7058 6.25908 16.4787 6.11712C16.2517 5.97517 15.9892 5.8999 15.7214 5.8999H13.0872V11.1956L18.9943 11.2013V10.7742Z" fill="white"/>
<path d="M1.00287 5.86265V15.3284C1.00287 15.7072 1.15338 16.0706 1.42129 16.3385C1.6892 16.6064 2.05256 16.7569 2.43144 16.7569H13.0857V5.86265C13.0857 5.48377 12.9352 5.12041 12.6673 4.8525C12.3994 4.58459 12.036 4.43408 11.6572 4.43408H2.43144C2.05256 4.43408 1.6892 4.58459 1.42129 4.8525C1.15338 5.12041 1.00287 5.48377 1.00287 5.86265Z" fill="#ECF3FF"/>
<path d="M13.0843 15.5569V5.86265C13.0843 5.48377 12.9338 5.12041 12.6659 4.8525C12.398 4.58459 12.0346 4.43408 11.6557 4.43408H2.43144C2.05256 4.43408 1.6892 4.58459 1.42129 4.8525C1.15338 5.12041 1.00287 5.48377 1.00287 5.86265V15.3284C1.00287 15.7072 1.15338 16.0706 1.42129 16.3385C1.6892 16.6064 2.05256 16.7569 2.43144 16.7569H3.50287" stroke="#1163FB" stroke-width="1.5" stroke-linecap="round" stroke-linejoin="round"/>
<path d="M18.9972 11.1953H13.0857" stroke="#1163FB" stroke-width="1.5" stroke-linecap="round" stroke-linejoin="round"/>
<path d="M17.0743 16.4899H17.5671C17.946 16.4899 18.3094 16.3394 18.5773 16.0715C18.8452 15.8036 18.9957 15.4402 18.9957 15.0613V10.7756L17.0057 6.6999C16.8881 6.45991 16.7056 6.25771 16.4788 6.11629C16.252 5.97487 15.9901 5.8999 15.7229 5.8999H13.3414" stroke="#1163FB" stroke-width="1.5" stroke-linecap="round" stroke-linejoin="round"/>
<path d="M3.57431 16.7999C3.57431 17.3289 3.78442 17.8361 4.15842 18.2101C4.53242 18.5841 5.03968 18.7942 5.5686 18.7942C6.09751 18.7942 6.60477 18.5841 6.97877 18.2101C7.35277 17.8361 7.56288 17.3289 7.56288 16.7999C7.56288 16.271 7.35277 15.7638 6.97877 15.3898C6.60477 15.0158 6.09751 14.8057 5.5686 14.8057C5.03968 14.8057 4.53242 15.0158 4.15842 15.3898C3.78442 15.7638 3.57431 16.271 3.57431 16.7999Z" fill="white"/>
<path d="M12.6272 16.7999C12.6272 17.3289 12.8373 17.8361 13.2113 18.2101C13.5853 18.5841 14.0925 18.7942 14.6215 18.7942C15.1504 18.7942 15.6576 18.5841 16.0316 18.2101C16.4056 17.8361 16.6157 17.3289 16.6157 16.7999C16.6157 16.271 16.4056 15.7638 16.0316 15.3898C15.6576 15.0158 15.1504 14.8057 14.6215 14.8057C14.0925 14.8057 13.5853 15.0158 13.2113 15.3898C12.8373 15.7638 12.6272 16.271 12.6272 16.7999Z" fill="white"/>
<path d="M3.57431 16.7999C3.57431 17.3289 3.78442 17.8361 4.15842 18.2101C4.53242 18.5841 5.03968 18.7942 5.5686 18.7942C6.09751 18.7942 6.60477 18.5841 6.97877 18.2101C7.35277 17.8361 7.56288 17.3289 7.56288 16.7999C7.56288 16.271 7.35277 15.7638 6.97877 15.3898C6.60477 15.0158 6.09751 14.8057 5.5686 14.8057C5.03968 14.8057 4.53242 15.0158 4.15842 15.3898C3.78442 15.7638 3.57431 16.271 3.57431 16.7999Z" stroke="#1163FB" stroke-width="1.5" stroke-linecap="round" stroke-linejoin="round"/>
<path d="M12.6272 16.7999C12.6272 17.3289 12.8373 17.8361 13.2113 18.2101C13.5853 18.5841 14.0925 18.7942 14.6215 18.7942C15.1504 18.7942 15.6576 18.5841 16.0316 18.2101C16.4056 17.8361 16.6157 17.3289 16.6157 16.7999C16.6157 16.271 16.4056 15.7638 16.0316 15.3898C15.6576 15.0158 15.1504 14.8057 14.6215 14.8057C14.0925 14.8057 13.5853 15.0158 13.2113 15.3898C12.8373 15.7638 12.6272 16.271 12.6272 16.7999Z" stroke="#1163FB" stroke-width="1.5" stroke-linecap="round" stroke-linejoin="round"/>
<path d="M12.2529 16.7568H8.05716" stroke="#1163FB" stroke-width="1.5" stroke-linecap="round" stroke-linejoin="round"/>
</svg>
