<svg xmlns="http://www.w3.org/2000/svg" width="22.039" height="20.376" viewBox="0 0 22.039 20.376">
  <g id="Logistics-on-demand" transform="translate(-0.032 0.002)">
    <path id="Path_1556" data-name="Path 1556" d="M2076.049,817.826a.849.849,0,0,0-1.11-.426l-5.919,2.539a.821.821,0,0,0-.434,1.089.843.843,0,0,0,.773.5.854.854,0,0,0,.337-.069l5.918-2.539a.821.821,0,0,0,.434-1.089Z" transform="translate(-2054.048 -805.9)" fill="#fff"/>
    <path id="Path_1557" data-name="Path 1557" d="M2016.812,782.009a.853.853,0,0,0,.357-.078.82.82,0,0,0,.4-1.1l-5.458-11.432a.843.843,0,0,0-.763-.476h-1.994a.827.827,0,1,0,0,1.653h1.458l5.23,10.956A.845.845,0,0,0,2016.812,782.009Z" transform="translate(-2008.5 -768.925)" fill="#fff"/>
    <path id="Path_1558" data-name="Path 1558" d="M2041.609,827.323a3.293,3.293,0,1,0,3.356,3.292A3.328,3.328,0,0,0,2041.609,827.323Zm0,4.931a1.639,1.639,0,1,1,1.669-1.639,1.657,1.657,0,0,1-1.669,1.639Z" transform="translate(-2031.103 -813.533)" fill="#fff"/>
    <path id="Path_1559" data-name="Path 1559" d="M2046.351,791.05a.844.844,0,0,0,.759.467.859.859,0,0,0,.331-.067l6.737-2.825a.834.834,0,0,0,.455-.461.81.81,0,0,0-.018-.641l-2.678-5.781a.849.849,0,0,0-1.109-.414l-6.841,2.957a.833.833,0,0,0-.451.47.812.812,0,0,0,.032.645Zm4.394-7.88,1.977,4.267-5.2,2.182-2.052-4.168Z" transform="translate(-2035.045 -778.347)" fill="#fff"/>
  </g>
</svg>
