<svg width="32" height="32" viewBox="0 0 32 32" fill="none" xmlns="http://www.w3.org/2000/svg">
<path d="M29.1559 17.3458C27.9955 17.3458 26.9966 18.0456 26.554 19.0475L23.2464 17.9439H16.4456V14.0561H23.2464L26.554 12.9525C26.9936 13.9514 27.9925 14.6542 29.1559 14.6542C30.723 14.6542 31.997 13.3802 31.997 11.8131C31.997 10.246 30.723 8.97196 29.1559 8.97196C27.5888 8.97196 26.3148 10.246 26.3148 11.8131C26.3148 11.9058 26.3207 11.9955 26.3297 12.0822L23.1028 13.1589H16.4456V9.27103H20.5548L24.4905 5.73009C24.96 6.07402 25.5372 6.28037 26.1652 6.28037C27.7323 6.28037 29.0064 5.00635 29.0064 3.43925C29.0064 1.87215 27.7323 0.598131 26.1652 0.598131C24.5981 0.598131 23.3241 1.87215 23.3241 3.43925C23.3241 4.05533 23.5245 4.62654 23.8594 5.09009L20.2138 8.37383H16.4486V4.03738C16.4486 1.81234 14.6363 0 12.4112 0C10.3357 0 8.61907 1.57607 8.39776 3.59178C8.34093 3.59178 8.28411 3.58878 8.2243 3.58878C5.66729 3.58878 3.58878 5.66729 3.58878 8.2243C3.58878 8.52935 3.62168 8.83738 3.68449 9.14243C1.36972 10.6736 0 13.2127 0 16C0 18.7873 1.36972 21.3264 3.68449 22.8576C3.62168 23.1626 3.58878 23.4707 3.58878 23.7757C3.58878 26.3327 5.66729 28.4112 8.2243 28.4112C8.28411 28.4112 8.34093 28.4112 8.39776 28.4082C8.61907 30.4269 10.3357 32 12.4112 32C14.6363 32 16.4486 30.1877 16.4486 27.9626V23.6262H20.2138L23.8594 26.9099C23.5245 27.3764 23.3241 27.9447 23.3241 28.5607C23.3241 30.1278 24.5981 31.4019 26.1652 31.4019C27.7323 31.4019 29.0064 30.1278 29.0064 28.5607C29.0064 26.9936 27.7323 25.7196 26.1652 25.7196C25.5402 25.7196 24.96 25.926 24.4905 26.2699L20.5548 22.729H16.4456V18.8411H23.1028L26.3297 19.9178C26.3207 20.0075 26.3148 20.0972 26.3148 20.1869C26.3148 21.754 27.5888 23.028 29.1559 23.028C30.723 23.028 31.997 21.754 31.997 20.1869C31.997 18.6198 30.723 17.3458 29.1559 17.3458Z" fill="white"/>
</svg>
