<svg width="20" height="20" viewBox="0 0 20 20" fill="none" xmlns="http://www.w3.org/2000/svg">
<g clip-path="url(#clip0_12176_928)">
<path d="M11.4286 6.07129H5V9.64272H11.4286V6.07129Z" fill="white"/>
<path fill-rule="evenodd" clip-rule="evenodd" d="M17.5 17.5C17.0264 17.5 16.5722 17.3119 16.2373 16.977C15.9024 16.6421 15.7143 16.1879 15.7143 15.7143V3.21429C15.7143 3.02484 15.639 2.84316 15.5052 2.70921C15.3712 2.57526 15.1894 2.5 15 2.5H1.42858C1.23914 2.5 1.05746 2.57526 0.923504 2.70921C0.789549 2.84316 0.714294 3.02484 0.714294 3.21429V16.0714C0.714294 16.4503 0.864804 16.8137 1.13271 17.0816C1.40062 17.3494 1.76398 17.5 2.14287 17.5H17.5ZM5.00001 6.07143H11.4286V9.64286H5.00001V6.07143Z" fill="#ECF3FF"/>
<path d="M19.2857 6.42857V15.7143C19.2857 16.1879 19.0976 16.6421 18.7627 16.977C18.4279 17.3119 17.9736 17.5 17.5 17.5M17.5 17.5C17.0264 17.5 16.5722 17.3119 16.2373 16.977C15.9024 16.6421 15.7143 16.1879 15.7143 15.7143V3.21429C15.7143 3.02484 15.639 2.84316 15.5052 2.70921C15.3712 2.57526 15.1894 2.5 15 2.5H1.42858C1.23914 2.5 1.05746 2.57526 0.923504 2.70921C0.789549 2.84316 0.714294 3.02484 0.714294 3.21429V16.0714C0.714294 16.4503 0.864804 16.8137 1.13271 17.0816C1.40062 17.3494 1.76398 17.5 2.14287 17.5H17.5Z" stroke="#1163FB" stroke-width="1.5" stroke-linecap="round" stroke-linejoin="round"/>
<path d="M11.4286 6.07129H5V9.64272H11.4286V6.07129Z" stroke="#1163FB" stroke-width="1.5" stroke-linecap="round" stroke-linejoin="round"/>
<path d="M5 13.9287H11.4286" stroke="#1163FB" stroke-width="1.5" stroke-linecap="round" stroke-linejoin="round"/>
</g>
<defs>
<clipPath id="clip0_12176_928">
<rect width="20" height="20" fill="white"/>
</clipPath>
</defs>
</svg>
