<svg width="24" height="24" viewBox="0 0 24 24" fill="none" xmlns="http://www.w3.org/2000/svg">
<path fill-rule="evenodd" clip-rule="evenodd" d="M9.42889 6H15.4289V8.57143H17.1432V6.7354C17.4188 6.80703 17.7027 6.85715 18.0003 6.85715C18.298 6.85715 18.5819 6.80703 18.8575 6.7354V8.57143H20.5717V5.6724C21.0985 5.06945 21.4289 4.29043 21.4289 3.42857C21.4289 1.53767 19.8908 0 18.0003 0C17.1385 0 16.3595 0.330323 15.7565 0.857143H9.42889C8.31295 0.857143 7.37037 1.57585 7.01541 2.57143H5.14319V1.71428C5.14319 1.38951 4.95987 1.09319 4.66941 0.947544L2.95512 0.0904017C2.71405 -0.0301339 2.42945 -0.0301339 2.18839 0.0904017L0.474096 0.947544C0.0505466 1.15932 -0.12105 1.67411 0.0907252 2.09765C0.302081 2.5212 0.815613 2.6928 1.24084 2.48103L2.57175 1.81557L3.42889 2.24415V4.613L2.57175 5.04157L1.24084 4.37612C0.815613 4.16517 0.302081 4.33677 0.0907252 4.75948C-0.12105 5.18304 0.0505465 5.69783 0.474096 5.9096L2.18839 6.76675C2.30892 6.82701 2.44033 6.85715 2.57175 6.85715C2.70317 6.85715 2.83459 6.82701 2.95512 6.76675L4.66941 5.9096C4.95987 5.76395 5.14319 5.46764 5.14319 5.14285V4.28572H7.01547C7.37043 5.28128 8.31295 6 9.42889 6ZM14.6935 4.28572H11.8424C11.9384 4.01629 12.0003 3.73059 12.0003 3.42857C12.0003 3.12655 11.9384 2.84085 11.8424 2.57143H14.6935C14.6219 2.84703 14.5717 3.13084 14.5717 3.42857C14.5717 3.72631 14.6219 4.01012 14.6935 4.28572ZM18.0003 1.71428C18.9457 1.71428 19.7147 2.48353 19.7147 3.42857C19.7147 4.3736 18.9457 5.14285 18.0003 5.14285C17.0549 5.14285 16.286 4.3736 16.286 3.42857C16.286 2.48353 17.0549 1.71428 18.0003 1.71428ZM9.42889 2.57143C9.90141 2.57143 10.286 2.95564 10.286 3.42857C10.286 3.90151 9.90141 4.28572 9.42889 4.28572C8.95637 4.28572 8.57175 3.90151 8.57175 3.42857C8.57175 2.95564 8.95637 2.57143 9.42889 2.57143ZM21.4285 9.42857H8.57143C7.15347 9.42857 6 10.582 6 12V18.8572C6 20.2751 7.15347 21.4285 8.57143 21.4285H14.1428V22.2857H12.8571C12.3838 22.2857 12 22.6691 12 23.1428C12 23.6167 12.3838 24 12.8571 24H17.1428C17.6163 24 18 23.6167 18 23.1428C18 22.6691 17.6163 22.2857 17.1428 22.2857H15.8572V21.4285H21.4285C22.8465 21.4285 24 20.2751 24 18.8572V12C24 10.582 22.8465 9.42857 21.4285 9.42857ZM22.2857 18.8572C22.2857 19.3301 21.9011 19.7143 21.4285 19.7143H8.57143C8.09891 19.7143 7.71428 19.3301 7.71428 18.8572V12C7.71428 11.5271 8.09891 11.1429 8.57143 11.1429H21.4285C21.9011 11.1429 22.2857 11.5271 22.2857 12V18.8572ZM11.394 13.1083C11.7288 12.7734 12.2712 12.7734 12.606 13.1083C12.9409 13.4431 12.9409 13.9855 12.606 14.3203L11.4978 15.4285L12.606 16.5368C12.9409 16.8716 12.9409 17.414 12.606 17.7489C12.4386 17.9163 12.2193 18 12 18C11.7807 18 11.5614 17.9163 11.394 17.7489L9.67969 16.0345C9.34487 15.6997 9.34487 15.1573 9.67969 14.8225L11.394 13.1083ZM18.606 13.1083C18.2712 12.7734 17.7288 12.7734 17.394 13.1083C17.0592 13.4431 17.0592 13.9855 17.394 14.3203L18.5023 15.4285L17.394 16.5368C17.0592 16.8716 17.0592 17.414 17.394 17.7489C17.5613 17.9163 17.7807 18 18 18C18.2193 18 18.4387 17.9163 18.606 17.7489L20.3203 16.0345C20.6552 15.6997 20.6552 15.1573 20.3203 14.8225L18.606 13.1083ZM14.5972 13.5063C14.7123 13.0459 15.1785 12.7689 15.6368 12.8827C16.0959 12.9974 16.3751 13.4628 16.2604 13.9215L15.4032 17.35C15.3057 17.7401 14.9563 17.9996 14.5725 17.9996C14.5035 17.9996 14.4335 17.9912 14.3636 17.9736C13.9045 17.8589 13.6253 17.3936 13.74 16.9348L14.5972 13.5063Z" fill="white"/>
</svg>
