<svg width="21" height="19" viewBox="0 0 21 19" fill="none" xmlns="http://www.w3.org/2000/svg">
<path d="M4.64286 11.6787H16.3571C17.2305 11.6787 18.068 12.0256 18.6856 12.6432C19.3031 13.2607 19.65 14.0982 19.65 14.9716C19.65 15.8449 19.3031 16.6824 18.6856 17.3C18.068 17.9175 17.2305 18.2644 16.3571 18.2644H4.64286C3.76954 18.2644 2.93199 17.9175 2.31446 17.3C1.69693 16.6824 1.35001 15.8449 1.35001 14.9716C1.35001 14.0982 1.69693 13.2607 2.31446 12.6432C2.93199 12.0256 3.76954 11.6787 4.64286 11.6787Z" fill="white"/>
<path d="M4.64286 11.6787H16.3571C17.2305 11.6787 18.068 12.0256 18.6856 12.6432C19.3031 13.2607 19.65 14.0982 19.65 14.9716C19.65 15.8449 19.3031 16.6824 18.6856 17.3C18.068 17.9175 17.2305 18.2644 16.3571 18.2644H4.64286C3.76954 18.2644 2.93199 17.9175 2.31446 17.3C1.69693 16.6824 1.35001 15.8449 1.35001 14.9716C1.35001 14.0982 1.69693 13.2607 2.31446 12.6432C2.93199 12.0256 3.76954 11.6787 4.64286 11.6787Z" stroke="#1163FB" stroke-width="1.5" stroke-linecap="round" stroke-linejoin="round"/>
<path d="M15.4214 1.13721H5.42143C4.92001 1.13721 4.51286 1.50006 4.51286 1.94864V10.8672C4.51286 11.3158 4.92001 11.6786 5.42143 11.6786H15.4214C15.9229 11.6786 16.33 11.3158 16.33 10.8672V1.94864C16.33 1.50006 15.9229 1.13721 15.4214 1.13721Z" fill="#ECF3FF"/>
<path d="M12.24 1.13717V5.19146C12.2392 5.24575 12.227 5.29926 12.2041 5.3485C12.1812 5.39773 12.1482 5.44158 12.1072 5.47717C12.0182 5.55506 11.9039 5.59774 11.7857 5.59717H9.05715C8.93963 5.59778 8.8259 5.55564 8.73715 5.4786C8.69614 5.44301 8.66311 5.39916 8.64022 5.34993C8.61732 5.30069 8.60508 5.24718 8.60429 5.19289V1.13574" fill="white"/>
<path d="M15.4214 1.13721H5.42143C4.92001 1.13721 4.51286 1.50006 4.51286 1.94864V10.8672C4.51286 11.3158 4.92001 11.6786 5.42143 11.6786H15.4214C15.9229 11.6786 16.33 11.3158 16.33 10.8672V1.94864C16.33 1.50006 15.9229 1.13721 15.4214 1.13721Z" stroke="#1163FB" stroke-width="1.5" stroke-linecap="round" stroke-linejoin="round"/>
<path d="M12.24 1.13717V5.19146C12.2392 5.24575 12.227 5.29926 12.2041 5.3485C12.1812 5.39773 12.1482 5.44158 12.1072 5.47717C12.0182 5.55506 11.9039 5.59774 11.7857 5.59717H9.05715C8.93963 5.59778 8.8259 5.55564 8.73715 5.4786C8.69614 5.44301 8.66311 5.39916 8.64022 5.34993C8.61732 5.30069 8.60508 5.24718 8.60429 5.19289V1.13574" stroke="#1163FB" stroke-width="1.5" stroke-linecap="round" stroke-linejoin="round"/>
<path d="M5.83572 15.3285C5.741 15.3285 5.65016 15.2909 5.58318 15.2239C5.5162 15.157 5.47858 15.0661 5.47858 14.9714C5.47858 14.8767 5.5162 14.7858 5.58318 14.7189C5.65016 14.6519 5.741 14.6143 5.83572 14.6143" stroke="#1163FB" stroke-width="1.5" stroke-linecap="round" stroke-linejoin="round"/>
<path d="M5.83572 15.3285C5.93044 15.3285 6.02129 15.2909 6.08826 15.2239C6.15524 15.157 6.19287 15.0661 6.19287 14.9714C6.19287 14.8767 6.15524 14.7858 6.08826 14.7189C6.02129 14.6519 5.93044 14.6143 5.83572 14.6143" stroke="#1163FB" stroke-width="1.5" stroke-linecap="round" stroke-linejoin="round"/>
<path d="M10.5 15.3285C10.4053 15.3285 10.3144 15.2909 10.2475 15.2239C10.1805 15.157 10.1429 15.0661 10.1429 14.9714C10.1429 14.8767 10.1805 14.7858 10.2475 14.7189C10.3144 14.6519 10.4053 14.6143 10.5 14.6143" stroke="#1163FB" stroke-width="1.5" stroke-linecap="round" stroke-linejoin="round"/>
<path d="M10.5 15.3285C10.5947 15.3285 10.6856 15.2909 10.7526 15.2239C10.8195 15.157 10.8572 15.0661 10.8572 14.9714C10.8572 14.8767 10.8195 14.7858 10.7526 14.7189C10.6856 14.6519 10.5947 14.6143 10.5 14.6143" stroke="#1163FB" stroke-width="1.5" stroke-linecap="round" stroke-linejoin="round"/>
<path d="M15.1643 15.3285C15.0696 15.3285 14.9787 15.2909 14.9117 15.2239C14.8448 15.157 14.8071 15.0661 14.8071 14.9714C14.8071 14.8767 14.8448 14.7858 14.9117 14.7189C14.9787 14.6519 15.0696 14.6143 15.1643 14.6143" stroke="#1163FB" stroke-width="1.5" stroke-linecap="round" stroke-linejoin="round"/>
<path d="M15.1643 15.3285C15.259 15.3285 15.3499 15.2909 15.4168 15.2239C15.4838 15.157 15.5214 15.0661 15.5214 14.9714C15.5214 14.8767 15.4838 14.7858 15.4168 14.7189C15.3499 14.6519 15.259 14.6143 15.1643 14.6143" stroke="#1163FB" stroke-width="1.5" stroke-linecap="round" stroke-linejoin="round"/>
</svg>
