<svg width="20" height="20" viewBox="0 0 20 20" fill="none" xmlns="http://www.w3.org/2000/svg">
<path d="M1.89716 17.5517L15.4829 14.396L10.55 5.85742L1.02716 16.0431L1.89716 17.5517Z" fill="#ECF3FF"/>
<path d="M1.89716 17.5517L15.4829 14.396" stroke="#1163FB" stroke-width="1.5" stroke-linecap="round" stroke-linejoin="round"/>
<path d="M1.02716 16.0431L10.5514 5.85742" stroke="#1163FB" stroke-width="1.5" stroke-linecap="round" stroke-linejoin="round"/>
<path d="M1.89716 17.5517L15.4829 14.396L10.55 5.85742L1.02716 16.0431L1.89716 17.5517Z" stroke="#1163FB" stroke-width="1.5" stroke-linecap="round" stroke-linejoin="round"/>
<path d="M10.26 5.35303L15.77 14.8973" stroke="#1163FB" stroke-width="1.5" stroke-linecap="round" stroke-linejoin="round"/>
<path d="M15.4814 14.396L1.89571 17.5517L1.02856 16.0431L10.5514 5.85742" stroke="#1163FB" stroke-width="1.5" stroke-linecap="round" stroke-linejoin="round"/>
<path d="M4.85144 16.8643L5.60001 18.1586C5.87129 18.6237 6.31621 18.962 6.83689 19.099C7.35757 19.236 7.91136 19.1606 8.37644 18.8893C8.84152 18.6181 9.17978 18.1731 9.31681 17.6525C9.45385 17.1318 9.37843 16.578 9.10715 16.1129L8.98715 15.9058" stroke="#1163FB" stroke-width="1.5" stroke-linecap="round" stroke-linejoin="round"/>
<path d="M10.6343 2.62444V0.833008" stroke="#1163FB" stroke-width="1.5" stroke-linecap="round" stroke-linejoin="round"/>
<path d="M17.4943 9.48584H19.2858" stroke="#1163FB" stroke-width="1.5" stroke-linecap="round" stroke-linejoin="round"/>
<path d="M1.98431 9.48584H3.77431" stroke="#1163FB" stroke-width="1.5" stroke-linecap="round" stroke-linejoin="round"/>
<path d="M4.51575 3.36719L5.78146 4.63433" stroke="#1163FB" stroke-width="1.5" stroke-linecap="round" stroke-linejoin="round"/>
<path d="M15.4857 4.63433L16.7514 3.36719" stroke="#1163FB" stroke-width="1.5" stroke-linecap="round" stroke-linejoin="round"/>
</svg>
