<svg xmlns="http://www.w3.org/2000/svg" width="90.287" height="78.815" viewBox="0 0 90.287 78.815">
  <g id="Layer_2" data-name="Layer 2" transform="translate(0 0.063)">
    <g id="svg8" transform="translate(0 -0.063)">
      <g id="layer1" transform="translate(0 0)">
        <g id="g80302" transform="translate(0 58.784)">
          <path id="path825" d="M6.3,721.841A6.459,6.459,0,0,0,0,728.684c0,3.981,2.807,6.792,6.3,6.792a5.061,5.061,0,0,0,4.165-1.934v.843a.889.889,0,0,0,.843.843h2.082V722.137H10.461V723.8A5.069,5.069,0,0,0,6.3,721.84Zm.521,2.676a4.173,4.173,0,0,1,.005,8.328,3.953,3.953,0,0,1-3.843-4.191,3.9,3.9,0,0,1,3.838-4.136Z" transform="translate(0 -715.446)"/>
          <path id="path829" d="M184.8,735.2a.819.819,0,0,1-.843-.843V722.112h2.925v1.62a4.571,4.571,0,0,1,3.946-1.921,4.888,4.888,0,0,1,4.979,5.012V735.2h-2.032a.9.9,0,0,1-.892-.892v-6.843a2.776,2.776,0,0,0-2.725-2.973c-2.052,0-3.275,1.939-3.275,3.766V735.2Z" transform="translate(-167.347 -715.419)"/>
          <path id="path833" d="M346.227,658.907a6.458,6.458,0,0,0-6.3,6.842c0,3.981,2.807,6.792,6.3,6.792a5.061,5.061,0,0,0,4.165-1.934v.843a.889.889,0,0,0,.843.843h2.082V652.66h-2.925v8.205A5.069,5.069,0,0,0,346.227,658.907Zm.521,2.676a4.173,4.173,0,0,1,.005,8.328,3.957,3.957,0,0,1-3.847-4.191,3.9,3.9,0,0,1,3.842-4.136Z" transform="translate(-309.239 -652.512)"/>
          <path id="path835" d="M524.719,736.738a.819.819,0,0,1-.843-.843V723.649H526.8v2.181a3.6,3.6,0,0,1,3.521-2.33,6.116,6.116,0,0,1,1.041.1v3.025a4.212,4.212,0,0,0-1.389-.248c-2.052,0-3.174,1.939-3.174,3.766v6.6Z" transform="translate(-476.577 -716.956)"/>
          <path id="path837" d="M794.9,738.239a.819.819,0,0,1-.843-.843V725.15h2.925v13.091Z" transform="translate(-722.363 -718.457)"/>
          <path id="path839" d="M858.026,658.907a6.458,6.458,0,0,0-6.3,6.842c0,3.981,2.807,6.792,6.3,6.792a5.061,5.061,0,0,0,4.165-1.934v.843a.889.889,0,0,0,.843.843h2.082V652.66h-2.925v8.205A5.069,5.069,0,0,0,858.026,658.907Zm.521,2.676a4.173,4.173,0,0,1,.005,8.328,3.957,3.957,0,0,1-3.847-4.191,3.9,3.9,0,0,1,3.842-4.136Z" transform="translate(-774.83 -652.512)"/>
          <circle id="path841" cx="1.935" cy="1.935" r="1.935" transform="translate(71.198)"/>
          <path id="path843" d="M623.513,721.81a6.738,6.738,0,0,0-6.823,6.823,6.662,6.662,0,0,0,6.817,6.817,6.821,6.821,0,1,0,.007-13.64Zm.011,2.732a3.951,3.951,0,0,1,3.926,4.1,3.921,3.921,0,1,1-7.833.04,3.943,3.943,0,0,1,3.909-4.139Z" transform="translate(-561.011 -715.419)"/>
        </g>
        <path id="path80319" d="M67.724,15.187,75.213,2.222a1.52,1.52,0,0,0-.55-2.077A1.5,1.5,0,0,0,72.594.7L65.01,13.832a47.309,47.309,0,0,0-38.6,0L18.829.7a1.516,1.516,0,0,0-2.618,1.522L23.7,15.187A44.684,44.684,0,0,0,.6,50.537H90.826A44.676,44.676,0,0,0,67.724,15.187ZM25,37.863a3.781,3.781,0,1,1,3.781-3.781A3.781,3.781,0,0,1,25,37.863Zm41.42,0A3.781,3.781,0,1,1,70.2,34.082a3.781,3.781,0,0,1-3.781,3.781Z" transform="translate(-0.546 0.063)" fill="#32de84"/>
      </g>
    </g>
  </g>
</svg>
