<svg xmlns="http://www.w3.org/2000/svg" width="64.538" height="69.139" viewBox="0 0 64.538 69.139">
  <g id="Layer_2" data-name="Layer 2" transform="translate(-0.003 0.003)">
    <g id="Layer_1" data-name="Layer 1" transform="translate(0.003 -0.003)">
      <path id="Path_14169" data-name="Path 14169" d="M99.313,192.677v5.266c0,.25-.071.325-.325.325-.558,0-.558,0-.558-.552v-5.938c0-.253.062-.325.325-.325.9,0,.9,0,1.341.831l2.416,4.513c.039.071.052.169.188.218V191.8c0-.3.071-.432.38-.38a.3.3,0,0,0,.1,0c.305-.052.409.055.406.383-.016,1.717,0,3.432,0,5.149v1.049c0,.166-.049.224-.221.234-.974.052-.974.055-1.435-.812q-1.224-2.318-2.454-4.633c-.026-.049-.055-.091-.081-.14Z" transform="translate(-66.474 -129.266)" fill="#4dc8ed"/>
      <path id="Path_14170" data-name="Path 14170" d="M157.38,200.946c.5-1.351.974-2.646,1.471-3.941.045-.117.045-.292.2-.305a2.648,2.648,0,0,1,.714,0c.107.019,0,.172-.023.253q-.487,1.32-.974,2.633c-.247.649-.5,1.3-.734,1.948a.3.3,0,0,1-.325.24c-.9.02-.9.023-1.214-.834q-.731-1.948-1.474-3.919c-.136-.36-.136-.36.237-.36.526,0,.523,0,.7.5q.649,1.734,1.3,3.464A.905.905,0,0,0,157.38,200.946Z" transform="translate(-104.639 -132.81)" fill="#4dc8ed"/>
      <path id="Path_14171" data-name="Path 14171" d="M77.443,196.062v1.377c0,.51.2.679.708.692h.558c.419,0,.562.2.438.6-.029.1-.094.11-.172.107a9.273,9.273,0,0,1-1.146-.023c-.9-.123-1.224-.532-1.237-1.5q-.016-1.3,0-2.62c0-.243-.065-.351-.325-.308s-.305-.1-.3-.325,0-.38.289-.325.325-.084.325-.325v-.851c0-.192.045-.273.256-.266.74.019.578-.078.6.578a3.877,3.877,0,0,1,0,.555c-.032.273.088.325.325.325.38-.016.766,0,1.146,0,.3,0,.224.192.234.351s0,.325-.243.325c-.4-.016-.808,0-1.211,0-.2,0-.266.065-.26.263V196.1Z" transform="translate(-51.305 -129.865)" fill="#4dc8ed"/>
      <path id="Path_14172" data-name="Path 14172" d="M136.865,196.045a10.712,10.712,0,0,0,.049,1.536c.078.383.211.493.6.51h.854c.286,0,.227.169.2.325s.127.393-.175.4a5.843,5.843,0,0,1-1.4-.068,1.11,1.11,0,0,1-.925-1.078c-.094-.86-.032-1.724-.052-2.6a3.269,3.269,0,0,1,0-.425c.026-.234-.075-.325-.3-.289-.292.052-.305-.117-.325-.344s.055-.354.325-.325.325-.088.3-.325,0-.545,0-.818c0-.218.052-.325.292-.325.682.019.539-.065.562.552,0,.282-.117.649.052.825s.558.049.847.068a2.2,2.2,0,0,0,.458,0c.3-.039.373.084.364.367,0,.231-.075.305-.305.3h-1.182c-.188,0-.247.065-.24.247C136.887,195.035,136.865,195.483,136.865,196.045Z" transform="translate(-91.435 -129.812)" fill="#4dc8ed"/>
      <path id="Path_14173" data-name="Path 14173" d="M65.058,197.439a7.08,7.08,0,0,0-1.088-.325,1.681,1.681,0,0,0-2.052,1.64A3.068,3.068,0,0,0,62,199.793a1.675,1.675,0,0,0,2.1,1.185,3.779,3.779,0,0,0,.776-.256c.117-.052.169-.049.188.1.062.5,0,.649-.5.76a2.807,2.807,0,0,1-2.714-.464,2.179,2.179,0,0,1-.669-1.065,3.571,3.571,0,0,1-.019-1.948,2.321,2.321,0,0,1,2.493-1.734,4.591,4.591,0,0,1,1.062.166c.279.078.4.218.354.51A2.455,2.455,0,0,0,65.058,197.439Z" transform="translate(-41.218 -132.615)" fill="#4dc8ed"/>
      <path id="Path_14174" data-name="Path 14174" d="M149.449,199.284v2.23c0,.221-.049.325-.286.3-.669-.023-.558.075-.562-.549v-4.195c0-.127-.075-.325.127-.354a1.227,1.227,0,0,1,.675.029c.081.036.042.159.042.243C149.449,197.762,149.449,198.521,149.449,199.284Z" transform="translate(-100.348 -132.827)" fill="#4ec8ee"/>
      <path id="Path_14175" data-name="Path 14175" d="M148.619,191.155a1.9,1.9,0,0,0,0-.231c-.026-.208.045-.292.269-.286.708.023.562-.078.578.565v.231c.019.192-.042.3-.25.266h-.032C148.512,191.688,148.636,191.776,148.619,191.155Z" transform="translate(-100.365 -128.744)" fill="#50c8ee"/>
      <path id="Path_14176" data-name="Path 14176" d="M64.474,27.79a7.125,7.125,0,0,0-2.328-3.9,21.338,21.338,0,0,0-6.565-4.068,37.788,37.788,0,0,0-4.7-1.623c-.214-.058-.276-.143-.208-.354s.117-.464.172-.7A33.993,33.993,0,0,0,51.793,9.7a19.824,19.824,0,0,0-.2-2.922,11.061,11.061,0,0,0-1.269-4.055A4.984,4.984,0,0,0,47.205.193a7.091,7.091,0,0,0-3.308,0,17.44,17.44,0,0,0-5.721,2.526A33.856,33.856,0,0,0,32.54,7.3c-.179.179-.282.195-.464,0-.536-.562-1.12-1.075-1.708-1.581a27.866,27.866,0,0,0-6.958-4.558A10.831,10.831,0,0,0,18.268.086a4.808,4.808,0,0,0-3.286,1.5,7.393,7.393,0,0,0-1.623,3.026,19.377,19.377,0,0,0-.5,7.24A34.211,34.211,0,0,0,13.927,17.8c.068.26-.042.325-.25.37a32.791,32.791,0,0,0-8.006,3.253A14.61,14.61,0,0,0,1.3,25.1a5.363,5.363,0,0,0-.2,6.743A13.146,13.146,0,0,0,4.668,35.28a30.067,30.067,0,0,0,8.867,3.974c.412.12.416.11.325.513a34.739,34.739,0,0,0-1.136,7.519,18.89,18.89,0,0,0,.179,3.266,10.951,10.951,0,0,0,1.211,3.915A5.126,5.126,0,0,0,17.034,57a7.01,7.01,0,0,0,3.461.14,16.84,16.84,0,0,0,5.62-2.273,32.392,32.392,0,0,0,6.094-4.786c.153-.149.237-.188.406,0,.7.721,1.455,1.386,2.221,2.036a27.174,27.174,0,0,0,5.555,3.747A11.588,11.588,0,0,0,45.975,57.3a4.9,4.9,0,0,0,3.49-1.5,8.058,8.058,0,0,0,1.88-3.552,19.976,19.976,0,0,0,.513-6.756c-.045-.649-.133-1.279-.218-1.916a33.389,33.389,0,0,0-.825-4.133c-.049-.185,0-.247.172-.292q.6-.166,1.192-.354a29.456,29.456,0,0,0,8.152-3.9,11.867,11.867,0,0,0,3.338-3.412A5.169,5.169,0,0,0,64.474,27.79ZM33.582,8.466a29.019,29.019,0,0,1,8.159-5.9,9.435,9.435,0,0,1,4.068-.974,3.432,3.432,0,0,1,3.052,1.763A9.155,9.155,0,0,1,50,6.764a16.055,16.055,0,0,1,.214,2.448,34.59,34.59,0,0,1-1.065,8.243c-.049.2-.133.26-.325.211-1.6-.4-3.214-.695-4.841-.945-1.13-.175-2.273-.325-3.4-.432l-.815-.075a.545.545,0,0,1-.429-.253,63.835,63.835,0,0,0-3.9-5.058c-.6-.7-1.23-1.39-1.854-2.078C33.466,8.69,33.443,8.618,33.582,8.466ZM18.765,30.543c.789,1.555,1.594,3.065,2.451,4.545s1.766,2.922,2.73,4.4c-.974-.052-1.88-.175-2.8-.3-1.685-.231-3.36-.5-5.016-.893-.162-.039-.253-.049-.188-.263a65.694,65.694,0,0,1,2.727-7.325,1.531,1.531,0,0,1,.091-.166Zm-1.211-6.62Q16.7,21.751,16.011,19.5c-.078-.253,0-.325.221-.377,2.036-.445,4.081-.825,6.149-1.071.487-.058.974-.123,1.542-.195A84.486,84.486,0,0,0,18.758,26.8C18.31,25.829,17.927,24.877,17.554,23.923Zm3.594,7.792c-.468-.89-.906-1.8-1.377-2.685a.7.7,0,0,1,0-.7,82.684,82.684,0,0,1,4.7-8.412c.435-.682.893-1.347,1.331-2.026a.458.458,0,0,1,.4-.221c1.623-.127,3.273-.159,4.909-.218,1.467-.049,2.922.032,4.389.049.974,0,1.948.12,2.922.172a.432.432,0,0,1,.357.237c1.195,1.737,2.3,3.532,3.354,5.36q1.448,2.513,2.734,5.113a.484.484,0,0,1,0,.484A90.907,90.907,0,0,1,38.816,39.4a.545.545,0,0,1-.474.263c-2.062.149-4.123.214-6.321.195-1.331.026-2.8-.023-4.26-.081-.532-.023-1.065-.078-1.6-.107a.37.37,0,0,1-.325-.2A78.163,78.163,0,0,1,21.148,31.7Zm24.675-1.26c.5,1.075.942,2.107,1.36,3.146q.838,2.081,1.519,4.221c.071.224.045.325-.208.373-1.724.39-3.454.727-5.195.951l-2.334.3a2.9,2.9,0,0,1-.3,0,96.494,96.494,0,0,0,5.165-9.006Zm0-3.656a95.863,95.863,0,0,0-5.178-8.912c1.753.195,3.432.435,5.1.743.867.162,1.73.351,2.6.542.26.058.325.127.237.383-.571,1.812-1.208,3.6-1.948,5.351-.253.6-.529,1.2-.812,1.88ZM32.024,10.04c.234-.256.354-.231.571,0a64.2,64.2,0,0,1,4.678,5.74c.042.062.078.127.153.243a81.666,81.666,0,0,0-10.311,0c.4-.526.75-1,1.114-1.477C29.423,12.985,30.7,11.495,32.024,10.04ZM14.313,9.456a12.441,12.441,0,0,1,1.065-5.7,3.536,3.536,0,0,1,3.438-2.114,10.5,10.5,0,0,1,4.305,1.114,25.769,25.769,0,0,1,5.691,3.711c.766.649,1.5,1.3,2.214,2,.153.146.14.214,0,.354a65.356,65.356,0,0,0-5.779,7.11.63.63,0,0,1-.51.292c-1.217.084-2.429.24-3.636.416-1.5.218-2.993.471-4.471.8-.3.065-.6.12-.893.2-.175.049-.253.023-.3-.169a40.956,40.956,0,0,1-.919-4.714,23.641,23.641,0,0,1-.2-3.3ZM14.07,37.78a36.98,36.98,0,0,1-4.652-1.662A20.918,20.918,0,0,1,4.278,33.01a8.074,8.074,0,0,1-2.471-3.169,4.042,4.042,0,0,1-.247-1.211A4.565,4.565,0,0,1,2.71,25.842,13.613,13.613,0,0,1,6.638,22.67a32.032,32.032,0,0,1,7.467-2.99c.234-.065.325-.023.4.214a64.673,64.673,0,0,0,3.26,8.516.6.6,0,0,1-.026.552,67.32,67.32,0,0,0-3.042,7.792c-.088.269-.179.539-.247.815-.055.234-.159.276-.377.211ZM31.1,48.968a28.58,28.58,0,0,1-7.665,5.545,11.224,11.224,0,0,1-4.49,1.2c-1.792-.049-3-.669-3.9-2.886a11.98,11.98,0,0,1-.737-3.675,30.4,30.4,0,0,1,1-8.906c.019-.084.055-.166.071-.253.036-.185.127-.25.325-.2,1.269.325,2.558.549,3.851.747,1.11.172,2.221.325,3.341.422.672.058,1.344.133,2.019.188a.438.438,0,0,1,.325.231q1.519,2.136,3.182,4.162c.847,1.029,1.73,2.026,2.64,3,.166.153.208.253.032.422Zm1.49-1.549c-.149.162-.24.192-.406,0A67.852,67.852,0,0,1,27.274,41.5c-.032-.042-.055-.088-.114-.179A100.709,100.709,0,0,0,37.449,41.3a7.961,7.961,0,0,1-.734,1.058,57.413,57.413,0,0,1-4.127,5.065Zm16.84,5.519a4.233,4.233,0,0,1-2.179,2.5,4.8,4.8,0,0,1-2.8.185,15.581,15.581,0,0,1-5.682-2.5,33.3,33.3,0,0,1-5.081-4.169c-.136-.133-.185-.214-.023-.386a57.5,57.5,0,0,0,4.789-5.893c.292-.409.6-.808.864-1.234a.672.672,0,0,1,.588-.325c1.24-.081,2.474-.237,3.7-.412,1.792-.253,3.571-.578,5.331-1,.25-.062.325,0,.377.237a32.34,32.34,0,0,1,.922,5.341c.058.74.123,1.477.117,2.221a14.514,14.514,0,0,1-.925,5.441ZM61.9,31.286a14.543,14.543,0,0,1-4.445,3.571,32.648,32.648,0,0,1-6.837,2.786c-.244.071-.325,0-.39-.211a61.572,61.572,0,0,0-3.393-8.542.552.552,0,0,1,0-.523,65.177,65.177,0,0,0,3.078-7.824c.071-.227.146-.458.208-.688.042-.156.094-.2.273-.153a29.52,29.52,0,0,1,9.055,4.019,9.427,9.427,0,0,1,3.091,3.247,3.685,3.685,0,0,1,.451,1.6A4.545,4.545,0,0,1,61.9,31.286Z" transform="translate(-0.003 0.003)" fill="#4dc8ed"/>
      <path id="Path_14177" data-name="Path 14177" d="M13.559,198.048c-.3-.575-.578-1.153-.87-1.727a2.851,2.851,0,0,0-1.016-1.211,2.107,2.107,0,0,0,.73-.506,1.886,1.886,0,0,0-1.071-3.01,14.225,14.225,0,0,0-2.6-.123c-.256,0-.325.062-.325.325v5.844c0,.685,0,.679.679.649.185,0,.243-.062.24-.247v-1.8c0-.834,0-.815.831-.841a1.571,1.571,0,0,1,1.594.974,13.122,13.122,0,0,1,.649,1.321.851.851,0,0,0,1.042.6C13.647,198.272,13.644,198.213,13.559,198.048Zm-2.685-3.425a9.213,9.213,0,0,1-1.37.049c-.179,0-.185-.1-.185-.234v-1.948c0-.094-.023-.221.127-.214a6.628,6.628,0,0,1,1.532.058,1.182,1.182,0,0,1-.1,2.289Z" transform="translate(-5.681 -129.305)" fill="#4dc8ed"/>
      <path id="Path_14178" data-name="Path 14178" d="M47.763,198.036a1.662,1.662,0,0,0-1.25-1.484,4.032,4.032,0,0,0-2.471.182.185.185,0,0,0-.14.195v.617a4.318,4.318,0,0,1,1.341-.4,1.492,1.492,0,0,1,1.653.708c.214.529.136.578-.383.581a5.655,5.655,0,0,0-1.948.185,1.558,1.558,0,0,0-1.055,1.6,1.48,1.48,0,0,0,1.211,1.5,2.062,2.062,0,0,0,2.247-.792c.039.769.039.769.649.721h.032c.123,0,.179-.049.175-.175A27.58,27.58,0,0,0,47.763,198.036Zm-.792,1.64a1.5,1.5,0,0,1-1.737,1.38.938.938,0,0,1-.864-.8.877.877,0,0,1,.649-1.052,4.023,4.023,0,0,1,1.23-.123h.227c.555,0,.591.042.49.594Z" transform="translate(-29.381 -132.66)" fill="#4dc8ed"/>
      <path id="Path_14179" data-name="Path 14179" d="M123.1,198.353a1.831,1.831,0,0,0-1.649-1.89,4.733,4.733,0,0,0-1.877.175c-.3.088-.435.211-.4.539s0,.357.325.224a3.094,3.094,0,0,1,1.821-.224,1.114,1.114,0,0,1,.935.974c.016.211-.036.289-.263.289a10.276,10.276,0,0,0-1.7.058,1.6,1.6,0,0,0-1.461,1.925,1.545,1.545,0,0,0,1.682,1.357,2,2,0,0,0,1.724-.828c.049.721.049.714.623.7.182,0,.247-.055.247-.243C123.1,200.389,123.13,199.369,123.1,198.353Zm-2.354,2.7c-.812,0-1.243-.523-1.052-1.263a.747.747,0,0,1,.506-.555,5.984,5.984,0,0,1,1.912-.159c.11,0,.146.062.153.166a1.555,1.555,0,0,1-1.513,1.815Z" transform="translate(-80.242 -132.659)" fill="#4dc8ed"/>
      <path id="Path_14180" data-name="Path 14180" d="M26.934,199.219h2.951c.6,0,.617,0,.581-.614a2.156,2.156,0,0,0-1.114-1.98,2.458,2.458,0,0,0-2.441.091,2.429,2.429,0,0,0-1.143,2.029,2.515,2.515,0,0,0,1.451,2.743,3.925,3.925,0,0,0,2.922-.12.172.172,0,0,0,.12-.175c0-.2,0-.406,0-.649l-.276.114a3.824,3.824,0,0,1-1.786.325,1.623,1.623,0,0,1-1.552-1.464C26.638,199.307,26.69,199.216,26.934,199.219Zm-.256-.847a1.516,1.516,0,0,1,1.523-1.3,1.36,1.36,0,0,1,1.39,1.055c.1.393.058.451-.354.451H26.882c-.143-.006-.224-.032-.2-.208Z" transform="translate(-17.393 -132.597)" fill="#4dc8ed"/>
      <path id="Path_14181" data-name="Path 14181" d="M173.713,199.2c.974.023,1.922,0,2.886,0,.61,0,.627,0,.594-.6a2.17,2.17,0,0,0-1.107-1.987,2.454,2.454,0,0,0-2.471.1,2.416,2.416,0,0,0-1.12,2.006,2.492,2.492,0,0,0,1.562,2.8,3.539,3.539,0,0,0,2.273,0c.789-.243.649-.058.649-.929a.1.1,0,0,0-.026-.052,4.2,4.2,0,0,1-1.919.435,1.623,1.623,0,0,1-1.649-1.393C173.35,199.334,173.382,199.194,173.713,199.2Zm-.325-.828a1.522,1.522,0,0,1,1.477-1.321,1.344,1.344,0,0,1,1.422,1.01c.13.438.091.493-.354.5h-2.312c-.127,0-.237.006-.224-.185Z" transform="translate(-116.482 -132.585)" fill="#4dc8ed"/>
      <path id="Path_14182" data-name="Path 14182" d="M87.2,70a5.863,5.863,0,1,1-4.158,1.7A5.873,5.873,0,0,1,87.2,70Z" transform="translate(-54.912 -47.272)" fill="#4dc8ed"/>
    </g>
  </g>
</svg>
