<svg id="Layer_2" data-name="Layer 2" xmlns="http://www.w3.org/2000/svg" xmlns:xlink="http://www.w3.org/1999/xlink" width="111.12" height="40.32" viewBox="0 0 111.12 40.32">
  <defs>
    <clipPath id="clip-path">
      <path id="Path_14149" data-name="Path 14149" d="M32.56,18.61,21.71,29.46,32.56,40.32H20.16L15.5,35.67l-6.2-6.2L20.16,18.61ZM20.16,0,0,20.16l6.2,6.2L32.56,0Z" fill="none"/>
    </clipPath>
    <linearGradient id="linear-gradient" x1="-889.909" y1="542.594" x2="-889.201" y2="543.643" gradientUnits="objectBoundingBox">
      <stop offset="0" stop-color="#1a237e" stop-opacity="0.4"/>
      <stop offset="1" stop-color="#1a237e" stop-opacity="0"/>
    </linearGradient>
    <radialGradient id="radial-gradient" cx="0.5" cy="0.5" r="0.454" gradientTransform="translate(-0.119) scale(1.238 1)" gradientUnits="objectBoundingBox">
      <stop offset="0" stop-color="#fff" stop-opacity="0.102"/>
      <stop offset="1" stop-color="#fff" stop-opacity="0"/>
    </radialGradient>
  </defs>
  <g id="Layer_1" data-name="Layer 1">
    <g id="Group_2457" data-name="Group 2457" clip-path="url(#clip-path)">
      <path id="Path_14148" data-name="Path 14148" d="M15.5,35.67,32.56,18.61H20.16L9.3,29.46Z" fill="#39cefd"/>
    </g>
    <g id="Group_2458" data-name="Group 2458" clip-path="url(#clip-path)">
      <path id="Path_14150" data-name="Path 14150" d="M0,20.16,20.16,0h12.4L6.2,26.36Z" fill="#39cefd"/>
    </g>
    <g id="Group_2459" data-name="Group 2459" clip-path="url(#clip-path)">
      <path id="Path_14152" data-name="Path 14152" d="M20.16,40.32h12.4L21.71,29.46l-6.2,6.2Z" fill="#03569b"/>
    </g>
    <g id="Group_2460" data-name="Group 2460" clip-path="url(#clip-path)">
      <path id="Path_14154" data-name="Path 14154" d="M21.71,29.46l-6.2,6.2,9.2-3.19Z" fill="url(#linear-gradient)"/>
    </g>
    <g id="Group_2461" data-name="Group 2461" clip-path="url(#clip-path)">
      <path id="Path_14156" data-name="Path 14156" d="M9.3,29.46l6.2-6.2,6.2,6.2-6.2,6.21Z" fill="#16b9fd"/>
    </g>
    <path id="Path_14158" data-name="Path 14158" d="M32.56,18.61,21.71,29.46,32.56,40.32H20.16L15.5,35.67l-6.2-6.2L20.16,18.61ZM20.16,0,0,20.16l6.2,6.2L32.56,0Z" fill="url(#radial-gradient)"/>
    <path id="Path_14159" data-name="Path 14159" d="M36.49,10.81H47.36v2.07H38.77V19.3h7.76v2.07H38.77v8.08H36.59V10.81Z" fill="gray"/>
    <path id="Path_14160" data-name="Path 14160" d="M49.95,10.81h2.17V29.55H49.95Z" fill="gray"/>
    <path id="Path_14161" data-name="Path 14161" d="M60.3,30a4.91,4.91,0,0,1-3.73-1.45,5.78,5.78,0,0,1-1.24-3.93V16.19H57.5v8.08a4.28,4.28,0,0,0,.83,2.8,3.12,3.12,0,0,0,2.38.93,3.19,3.19,0,0,0,2-.62A3.87,3.87,0,0,0,64,25.82a4.71,4.71,0,0,0,.52-2.07V16.19h2.17V29.55H64.65v-2h-.1a4.55,4.55,0,0,1-1.76,1.66A4.13,4.13,0,0,1,60.3,30Z" fill="gray"/>
    <path id="Path_14162" data-name="Path 14162" d="M75.41,29.75a4.15,4.15,0,0,1-1.55-.31,4.27,4.27,0,0,1-1.14-.72,4.6,4.6,0,0,1-.83-1.14A3.46,3.46,0,0,1,71.58,26V18.16H69.2v-2h2.38v-3.7h2.17v3.73H77v2H73.76V25.4a2.63,2.63,0,0,0,.41,1.66,1.74,1.74,0,0,0,1.45.62,2.38,2.38,0,0,0,1.45-.41v2.17c-.31.1-.52.21-.83.31Z" fill="gray"/>
    <path id="Path_14163" data-name="Path 14163" d="M84.84,29.75a4.15,4.15,0,0,1-1.55-.31,4.27,4.27,0,0,1-1.14-.72,4.6,4.6,0,0,1-.83-1.14A3.46,3.46,0,0,1,81,26V18.16H78.83v-2h2.38v-3.7h2.17v3.73H86.6v2H83.39V25.4a2.63,2.63,0,0,0,.41,1.66,1.74,1.74,0,0,0,1.45.62,2.38,2.38,0,0,0,1.45-.41v2.17c-.31.1-.52.21-.83.31Z" fill="gray"/>
    <path id="Path_14164" data-name="Path 14164" d="M94.67,30a6.52,6.52,0,0,1-3.42-1,6.85,6.85,0,0,1-2.38-2.48,8.12,8.12,0,0,1-.87-3.6,8,8,0,0,1,.83-3.52,6.89,6.89,0,0,1,2.28-2.59,6.31,6.31,0,0,1,9,2.38,7.68,7.68,0,0,1,.83,3.52,1.54,1.54,0,0,1-.1.72H90.22A6.34,6.34,0,0,0,90.94,26a4,4,0,0,0,1.66,1.55,5.09,5.09,0,0,0,2.07.52,4.34,4.34,0,0,0,3.93-2.38l1.86.93a7.16,7.16,0,0,1-2.38,2.59,7.62,7.62,0,0,1-3.42.72Zm3.83-8.49a3.44,3.44,0,0,0-.5-1.7,4.42,4.42,0,0,0-1.35-1.45,3.94,3.94,0,0,0-2.28-.62,3.67,3.67,0,0,0-2.69,1,5.2,5.2,0,0,0-1.45,2.69Z" fill="gray"/>
    <path id="Path_14165" data-name="Path 14165" d="M103.47,16.19h2.07v2.17h.1a3.2,3.2,0,0,1,1.55-1.76,4,4,0,0,1,2.38-.72,3.46,3.46,0,0,1,1.55.31v2.38a3.55,3.55,0,0,0-1.86-.41,3.49,3.49,0,0,0-1.76.52,6.05,6.05,0,0,0-1.35,1.45,4.28,4.28,0,0,0-.52,2v7.45h-2.17Z" fill="gray"/>
  </g>
</svg>
