<svg xmlns="http://www.w3.org/2000/svg" width="90.823" height="34.195" viewBox="0 0 90.823 34.195">
  <g id="mobile-pwa-logo" transform="translate(0 0)">
    <path id="Path_14166" data-name="Path 14166" d="M1436.62,28.071l2.624-6.635h7.576l-3.6-10.065L1447.721,0,1460.6,34.2h-9.5l-2.2-6.124Z" transform="translate(-1369.776 0)" fill="#3d3d3d"/>
    <path id="Path_14167" data-name="Path 14167" d="M537.2,34.2,550.991,0h-9.141L532.42,22.1,525.713,0h-7.026l-7.2,22.1L506.408,12.03l-4.6,14.159,4.666,8.008h9l6.507-19.817,6.2,19.817Z" transform="translate(-478.464 -0.001)" fill="#706cf5"/>
    <path id="Path_14168" data-name="Path 14168" d="M8.676,22.457h5.63a16.6,16.6,0,0,0,4.556-.571L20.318,17.4,24.388,4.863a10.017,10.017,0,0,0-1.062-1.394Q20.192,0,14.155,0H0V34.2H8.676Zm7.452-14.59a4.472,4.472,0,0,1,1.224,3.3,4.812,4.812,0,0,1-1.077,3.3q-1.18,1.356-4.346,1.356H8.676V6.635h3.278Q14.9,6.635,16.129,7.867Z" fill="#3d3d3d"/>
  </g>
</svg>
