<svg id="Layer_2" data-name="Layer 2" xmlns="http://www.w3.org/2000/svg" width="85.985" height="80.842" viewBox="0 0 85.985 80.842">
  <g id="Layer_1" data-name="Layer 1">
    <g id="Page-1" transform="translate(0 61.542)">
      <g id="xamarin-logo">
        <path id="Logo" d="M10.208,119.728l-3.268-6.274L3.6,119.728H0l5.095-8.094L.507,103.589H4.172L7.147,109.7l3.225-6.109h3.335l-4.728,8,4.789,8.143Zm11.655,0v-1.759h-.049a4.233,4.233,0,0,1-3.769,2.071,4.142,4.142,0,0,1-2.963-1.02A3.665,3.665,0,0,1,14,116.252q0-3.714,4.166-4.221l3.72-.513q0-2.6-2.443-2.6a6.976,6.976,0,0,0-4.172,1.417v-2.541a7.984,7.984,0,0,1,2.04-.782,9.969,9.969,0,0,1,2.443-.348q4.924,0,4.924,4.985v8.088H21.863Zm-2.724-5.84a3.335,3.335,0,0,0-1.833.611,1.833,1.833,0,0,0-.507,1.436,1.662,1.662,0,0,0,.611,1.307,2.279,2.279,0,0,0,1.527.5,2.779,2.779,0,0,0,2.114-.886,3.091,3.091,0,0,0,.831-2.205V113.5l-2.749.36Zm23.9,5.84v-7.22a4.924,4.924,0,0,0-.562-2.639,2.138,2.138,0,0,0-1.967-.874,2.3,2.3,0,0,0-1.9,1.069,4.068,4.068,0,0,0-.77,2.5v7.165H34.972v-7.453q0-3.262-2.5-3.262a2.334,2.334,0,0,0-1.93.977,4.136,4.136,0,0,0-.745,2.566v7.165H26.927V106.973H29.8v1.967h.049a4.435,4.435,0,0,1,4.032-2.279,3.836,3.836,0,0,1,2.242.672,3.494,3.494,0,0,1,1.381,1.833,4.667,4.667,0,0,1,4.276-2.5q4.154,0,4.154,5.18v7.886Zm12.437,0v-1.759H55.43a4.233,4.233,0,0,1-3.769,2.071,4.142,4.142,0,0,1-2.963-1.02,3.665,3.665,0,0,1-1.051-2.767q0-3.714,4.166-4.221l3.72-.513q0-2.6-2.443-2.6a6.976,6.976,0,0,0-4.221,1.417v-2.541a7.984,7.984,0,0,1,2.059-.782,9.969,9.969,0,0,1,2.443-.348q4.924,0,4.924,4.985v8.088H55.479Zm-2.724-5.84a3.335,3.335,0,0,0-1.833.611,1.833,1.833,0,0,0-.507,1.436,1.662,1.662,0,0,0,.611,1.307,2.278,2.278,0,0,0,1.527.5,2.779,2.779,0,0,0,2.114-.886,3.091,3.091,0,0,0,.831-2.205V113.5l-2.749.36Zm15.186-4.111a3.115,3.115,0,0,0-1.668-.434,2.407,2.407,0,0,0-2.028,1.069,4.667,4.667,0,0,0-.77,2.792v6.53H60.6V106.973h2.871v2.48h.055q.922-2.706,3.262-2.706a2.993,2.993,0,0,1,1.155.177v2.853ZM70.8,104.12a1.759,1.759,0,0,1-1.222-.476,1.57,1.57,0,0,1-.507-1.185,1.6,1.6,0,0,1,.507-1.222,1.833,1.833,0,0,1,2.5,0,1.643,1.643,0,0,1,0,2.382,1.778,1.778,0,0,1-1.271.5Zm-1.466,15.608V106.973H72.2v12.755Zm13.732,0v-7.165q0-3.549-2.547-3.549a2.761,2.761,0,0,0-2.15.983,3.6,3.6,0,0,0-.861,2.48v7.251H74.635V106.973h2.871v2.04h.073a4.508,4.508,0,0,1,4.129-2.352q4.276,0,4.276,5.235v7.837H83.078Z" transform="translate(0 -100.745)" fill="#3498db"/>
      </g>
    </g>
    <path id="Path_14183" data-name="Path 14183" d="M81.028,25.369,67.851,2.443A4.942,4.942,0,0,0,63.673,0H37.326a4.942,4.942,0,0,0-4.178,2.443L19.972,25.369a5,5,0,0,0,0,4.844L33.148,53.145a4.942,4.942,0,0,0,4.178,2.443H63.679a4.942,4.942,0,0,0,4.178-2.443L81.034,30.2a5,5,0,0,0-.006-4.826Zm-17.7,16.78H58.78a.611.611,0,0,1-.513-.312L50.576,28.1a.611.611,0,0,1-.073-.22.611.611,0,0,1-.073.22L42.714,41.85a.611.611,0,0,1-.495.312H37.674a.611.611,0,0,1-.513-.886l7.526-13.482-7.526-13.5a.611.611,0,0,1,.4-.855h4.655a.611.611,0,0,1,.495.293l7.715,13.757a.611.611,0,0,1,.073.22.611.611,0,0,1,.073-.22L58.267,13.72a.611.611,0,0,1,.513-.281h4.545a.611.611,0,0,1,.513.867l-7.52,13.488,7.526,13.482a.611.611,0,0,1-.519.874Z" transform="translate(-7.528)" fill="#3498db"/>
  </g>
</svg>
