<svg xmlns="http://www.w3.org/2000/svg" width="88.3" height="43.812" viewBox="0 0 88.3 43.812">
  <path id="mobile-ios" d="M1.082,43.686h7.3V12.6h-7.3V43.686ZM4.719,8.525a3.975,3.975,0,1,0,0-7.947,3.974,3.974,0,1,0,0,7.947ZM32.7.666C20.35.666,12.608,9.082,12.608,22.543S20.35,44.39,32.7,44.39c12.316,0,20.059-8.387,20.059-21.847S45.013.666,32.7.666Zm0,6.452c7.536,0,12.346,5.982,12.346,15.425,0,9.413-4.809,15.4-12.346,15.4-7.566,0-12.346-5.982-12.346-15.4C20.35,13.1,25.13,7.117,32.7,7.117ZM55.835,31.78c.323,7.8,6.715,12.61,16.451,12.61,10.235,0,16.686-5.044,16.686-13.079,0-6.3-3.636-9.853-12.228-11.818l-4.868-1.114c-5.191-1.232-7.331-2.874-7.331-5.689,0-3.519,3.226-5.865,8.006-5.865,4.839,0,8.152,2.375,8.5,6.334h7.214C88.092,5.71,81.934.666,72.609.666,63.4.666,56.861,5.739,56.861,13.247c0,6.041,3.695,9.795,11.5,11.584l5.484,1.29c5.337,1.261,7.507,3.02,7.507,6.07,0,3.519-3.548,6.041-8.651,6.041-5.161,0-9.061-2.551-9.53-6.452H55.835Z" transform="translate(-0.672 -0.578)"/>
</svg>
