<svg width="32" height="32" viewBox="0 0 32 32" fill="none" xmlns="http://www.w3.org/2000/svg">
<path fill-rule="evenodd" clip-rule="evenodd" d="M21.8386 11.32L18.9306 20.048C18.7559 20.5707 19.0386 21.1373 19.5626 21.312C20.0866 21.4867 20.6532 21.204 20.8279 20.68L23.7359 11.952C23.9106 11.4293 23.6279 10.8627 23.1039 10.688C22.5799 10.5133 22.0132 10.796 21.8386 11.32Z" fill="white"/>
<path fill-rule="evenodd" clip-rule="evenodd" d="M24.3838 13.7987L26.5852 16L24.3838 18.2013C23.9932 18.592 23.9932 19.2253 24.3838 19.616C24.7745 20.0067 25.4078 20.0067 25.7985 19.616L28.7065 16.7067C29.0972 16.316 29.0972 15.684 28.7065 15.2933L25.7985 12.384C25.4078 11.9933 24.7745 11.9933 24.3838 12.384C23.9932 12.7747 23.9932 13.408 24.3838 13.7987Z" fill="white"/>
<path fill-rule="evenodd" clip-rule="evenodd" d="M16.868 12.384L13.96 15.2933C13.5693 15.684 13.5693 16.316 13.96 16.7067L16.868 19.616C17.2587 20.0067 17.892 20.0067 18.2827 19.616C18.6733 19.2253 18.6733 18.592 18.2827 18.2013L16.0813 16L18.2827 13.7987C18.6733 13.408 18.6733 12.7747 18.2827 12.384C17.892 11.9933 17.2587 11.9933 16.868 12.384Z" fill="white"/>
<path fill-rule="evenodd" clip-rule="evenodd" d="M22.3333 20.3787L22.092 21.1014C21.6853 22.3227 20.3627 22.984 19.1413 22.5774C18.4667 22.352 17.9627 21.8494 17.716 21.2374C17.0733 21.276 16.4173 21.0494 15.9253 20.5587L13.0173 17.6494C12.1053 16.7387 12.1053 15.2614 13.0173 14.3507L15.9253 11.4414C16.836 10.5307 18.3147 10.5307 19.2253 11.4414C19.636 11.852 19.8613 12.3774 19.9027 12.9147L20.5747 10.8987C20.8493 10.0747 21.5387 9.50669 22.3333 9.34802V5.33335C22.3333 4.36135 21.9467 3.42802 21.26 2.74002C20.572 2.05335 19.6387 1.66669 18.6667 1.66669C15.408 1.66669 9.92533 1.66669 6.66667 1.66669C5.69467 1.66669 4.76133 2.05335 4.07333 2.74002C3.38667 3.42802 3 4.36135 3 5.33335V26.6667C3 27.6387 3.38667 28.572 4.07333 29.26C4.76133 29.9467 5.69467 30.3333 6.66667 30.3333H18.6667C19.6387 30.3333 20.572 29.9467 21.26 29.26C21.9467 28.572 22.3333 27.6387 22.3333 26.6667V20.3787ZM10 27H15.3333C15.8853 27 16.3333 26.552 16.3333 26C16.3333 25.448 15.8853 25 15.3333 25H10C9.448 25 9 25.448 9 26C9 26.552 9.448 27 10 27ZM18 3.66669H7.33333L8.164 5.74269C8.468 6.50269 9.20267 7.00002 10.0213 7.00002H15.312C16.1307 7.00002 16.8653 6.50269 17.1693 5.74269L18 3.66669Z" fill="white"/>
</svg>
