<svg id="ionic" xmlns="http://www.w3.org/2000/svg" width="138.114" height="46.647" viewBox="0 0 138.114 46.647">
  <g id="icon">
    <path id="Shape" d="M78.636,68.2A10.636,10.636,0,1,0,89.271,78.836,10.631,10.631,0,0,0,78.636,68.2Z" transform="translate(-55.312 -55.475)" fill="#3880ff"/>
    <circle id="Oval" cx="4.851" cy="4.851" r="4.851" transform="translate(33.717 3.974)" fill="#3880ff"/>
    <path id="Shape_1_" d="M44.52,13.677l-.187-.429-.317.392a7.211,7.211,0,0,1-2.929,2l-.317.131.131.317a18.587,18.587,0,0,1,1.455,7.3,19.065,19.065,0,1,1-10.878-17.2l.28.131.131-.317a7.309,7.309,0,0,1,2.164-2.836l.392-.317-.429-.224A23.313,23.313,0,1,0,46.647,23.324,23.421,23.421,0,0,0,44.52,13.677Z" fill="#3880ff"/>
  </g>
  <g id="logotype" transform="translate(58.645 12.669)">
    <rect id="Rectangle-path" width="4.926" height="20.301" transform="translate(0 0.522)" fill="#3880ff"/>
    <rect id="Rectangle-path_1_" width="4.926" height="20.301" transform="translate(53.066 0.522)" fill="#3880ff"/>
    <path id="Shape_2_" d="M449.158,60.2a10.579,10.579,0,0,0-6.717,2.668l-.336-2.183H438v20.3h4.926V68.708c0-2.426,3.265-4.366,5.691-4.366,2.351,0,4.2,2.276,4.2,5.019V81h4.926V69.847C457.685,64.492,455.39,60.2,449.158,60.2Z" transform="translate(-407.455 -60.144)" fill="#3880ff"/>
    <path id="Shape_3_" d="M607.166,77.048c-3.713,0-6.139-2.873-6.139-6.475s2.444-6.475,6.139-6.475c3.135,0,5.057,3.041,5.057,3.041l3.545-2.37a10.6,10.6,0,0,0-3.844-3.527A9.078,9.078,0,0,0,607.3,59.9a10.639,10.639,0,1,0,0,21.271,8.848,8.848,0,0,0,4.627-1.343,10.909,10.909,0,0,0,3.844-3.527l-3.545-2.37C612.223,73.988,610.32,77.048,607.166,77.048Z" transform="translate(-536.299 -59.9)" fill="#3880ff"/>
    <path id="path3000_1_" d="M322.936,60.2a10.627,10.627,0,1,0,10.617,10.654A10.465,10.465,0,0,0,322.936,60.2Zm.075,4.2c3.041,0,5.934,2.463,5.934,6.475A6.016,6.016,0,1,1,323.01,64.4Z" transform="translate(-305.21 -60.144)" fill="#3880ff"/>
  </g>
</svg>
