<svg id="Layer_2" data-name="Layer 2" xmlns="http://www.w3.org/2000/svg" width="74.38" height="69.139" viewBox="0 0 74.38 69.139">
  <g id="Layer_1" data-name="Layer 1" transform="translate(0)">
    <path id="path9" d="M73.731,51.605H64.985l.609-7.371h-4.3l-.609,7.371H42.56l-.609-7.371h-4.3l.609,7.371H29.518l-4.9-31.955L36.892,0H66.356L78.629,19.651ZM63.89,9.838H56.008l.535,3.687H46.705l.535-3.687H39.359l-4.933,9.8,2.449,19.651H66.339l2.449-19.651Zm-4.3,22.957c-.7,0-1.221-2.033-1.221-4.576s.56-4.576,1.221-4.576,1.221,2.033,1.221,4.576S60.279,32.794,59.594,32.794Zm-15.484.381c-.7,0-1.221-2.033-1.221-4.576s.56-4.576,1.221-4.576,1.221,2.033,1.221,4.576S44.771,33.175,44.11,33.175Z" transform="translate(-16.007)" fill="#32383d"/>
    <g id="g13" transform="translate(0.211 54.467)">
      <path id="path15" d="M.6,157.745l.924-2a.049.049,0,0,1,.052-.031h.031a.049.049,0,0,1,.052.031l.913,2c.021.042,0,.073-.052.073H2.27c-.042,0-.063-.021-.084-.063l-.147-.318h-.9L1,157.756a.091.091,0,0,1-.084.063H.657a.056.056,0,0,1-.052-.073Zm1.294-.637-.3-.658h0l-.3.658Z" transform="translate(-0.602 -155.702)" fill="#a5b0b8"/>
      <path id="path17" d="M7.89,155.849a.049.049,0,0,1,.038-.052h.7a.665.665,0,1,1,0,1.326h-.35v.7a.056.056,0,0,1-.052.052H7.953a.056.056,0,0,1-.052-.052v-1.973Zm.738.9a.308.308,0,0,0,.308-.308.3.3,0,0,0-.308-.287h-.35v.595Z" transform="translate(-5.34 -155.758)" fill="#a5b0b8"/>
      <path id="path19" d="M12.672,157.745l.924-2a.049.049,0,0,1,.052-.031h.031a.049.049,0,0,1,.052.031l.913,2c.021.042,0,.073-.052.073h-.255c-.042,0-.063-.021-.084-.063l-.147-.318h-.892l-.147.318a.091.091,0,0,1-.084.063h-.255c-.052,0-.073-.042-.052-.073Zm1.284-.637-.3-.658h0l-.3.658h.605Z" transform="translate(-8.446 -155.702)" fill="#a5b0b8"/>
      <path id="path21" d="M20.547,155.693a1.018,1.018,0,0,1,.721.276.049.049,0,0,1,0,.084l-.182.192a.052.052,0,0,1-.073,0,.749.749,0,0,0-.455-.182.689.689,0,1,0,.455,1.207.052.052,0,0,1,.073,0l.182.192a.063.063,0,0,1,0,.084.994.994,0,0,1-.721.287,1.072,1.072,0,0,1,0-2.145Z" transform="translate(-12.872 -155.69)" fill="#a5b0b8"/>
      <path id="path23" d="M26.58,155.852a.056.056,0,0,1,.052-.052h.276a.056.056,0,0,1,.052.052v.787h.966v-.787a.049.049,0,0,1,.052-.052h.276a.056.056,0,0,1,.052.052v1.973a.056.056,0,0,1-.052.052h-.276a.056.056,0,0,1-.052-.052v-.819h-.966v.819a.049.049,0,0,1-.052.052h-.276a.056.056,0,0,1-.052-.052Z" transform="translate(-17.492 -155.761)" fill="#a5b0b8"/>
      <path id="path25" d="M33.987,155.852a.049.049,0,0,1,.052-.052h1.21a.056.056,0,0,1,.052.052v.245a.049.049,0,0,1-.052.052h-.889v.49h.731a.056.056,0,0,1,.052.052v.245a.056.056,0,0,1-.052.052h-.731v.532h.882a.056.056,0,0,1,.052.052v.245a.049.049,0,0,1-.052.052h-1.21a.056.056,0,0,1-.052-.052Z" transform="translate(-22.303 -155.761)" fill="#a5b0b8"/>
    </g>
    <g id="g29" transform="translate(70.685 59.028)">
      <path id="path31" d="M203.271,168.78h-1.116a.1.1,0,0,0-.1.1v.213a.1.1,0,0,0,.1.1h.35v1.378a.1.1,0,0,0,.1.1h.234a.1.1,0,0,0,.1-.1v-1.375h.35a.1.1,0,0,0,.1-.1v-.213a.136.136,0,0,0-.115-.1Z" transform="translate(-202.05 -168.762)" fill="#32383d"/>
      <path id="path33" d="M208.707,170.521l-.3-1.707a.094.094,0,0,0-.094-.084h-.042a.112.112,0,0,0-.094.052l-.521,1.116-.521-1.116a.112.112,0,0,0-.094-.052h-.031a.087.087,0,0,0-.094.084l-.308,1.718a.115.115,0,0,0,.021.084.1.1,0,0,0,.073.031h.234a.094.094,0,0,0,.094-.084l.126-.808.381.85a.112.112,0,0,0,.094.052h.042a.094.094,0,0,0,.094-.063l.381-.85.126.808a.1.1,0,0,0,.094.073h.234a.119.119,0,0,0,.084-.031v-.073Z" transform="translate(-205.013 -168.729)" fill="#32383d"/>
    </g>
    <g id="g35" transform="translate(0 58.889)">
      <path id="path37" d="M7.759,175.652a.448.448,0,0,0-.318-.126.462.462,0,0,0-.308.115,3.023,3.023,0,0,1-1.952.731,2.949,2.949,0,0,1,0-5.891,3.044,3.044,0,0,1,1.952.742.479.479,0,0,0,.318.136.43.43,0,0,0,.318-.147l.829-.85a.448.448,0,0,0,.136-.35.469.469,0,0,0-.161-.35,4.824,4.824,0,0,0-3.439-1.315,5.115,5.115,0,1,0-.01,10.229,4.9,4.9,0,0,0,3.46-1.378.532.532,0,0,0,.147-.371.4.4,0,0,0-.136-.3l-.84-.892Z" transform="translate(0 -168.34)" fill="#32383d"/>
      <path id="path39" d="M32.992,168.33a5.08,5.08,0,1,0,3.636,1.493A5.125,5.125,0,0,0,32.992,168.33Zm0,8.046a2.919,2.919,0,1,1,0-5.839,2.967,2.967,0,0,1,2.921,2.925,2.914,2.914,0,0,1-2.921,2.9Z" transform="translate(-18.113 -168.33)" fill="#32383d"/>
      <path id="path41" d="M71.454,171.848a3.149,3.149,0,0,0-3.184-3.149H63.845a.472.472,0,0,0-.465.465v9.012a.472.472,0,0,0,.465.465H65.1a.472.472,0,0,0,.465-.465v-3.25h1.592l1.858,3.5a.437.437,0,0,0,.4.245h1.434a.472.472,0,0,0,.413-.224.5.5,0,0,0,0-.49L69.513,174.7a3.149,3.149,0,0,0,1.942-2.851Zm-2.187.031a1.175,1.175,0,0,1-1.123,1.179H65.587v-2.291h2.557A1.14,1.14,0,0,1,69.268,171.88Z" transform="translate(-41.207 -168.57)" fill="#32383d"/>
      <path id="path43" d="M96.854,168.714H93.625a.469.469,0,0,0-.455.465v9.012a.469.469,0,0,0,.455.465H96.85a4.973,4.973,0,1,0,0-9.946Zm2.687,4.968a2.8,2.8,0,0,1-2.855,2.907h-1.34v-5.8h1.336a2.8,2.8,0,0,1,2.855,2.9Z" transform="translate(-60.575 -168.577)" fill="#32383d"/>
      <path id="path45" d="M127.616,168.33a2.123,2.123,0,1,1,0,.007Zm0,8.046a2.919,2.919,0,1,1,0-5.839,2.967,2.967,0,0,1,2.918,2.925,2.914,2.914,0,0,1-2.918,2.9Z" transform="translate(-79.631 -168.33)" fill="#32383d"/>
      <path id="path47" d="M162.691,168.933a.458.458,0,0,0-.4-.213h-1.4a.448.448,0,0,0-.423.276l-2.473,5.531-2.449-5.521a.465.465,0,0,0-.423-.287h-1.4a.458.458,0,0,0-.4.213.444.444,0,0,0-.021.444l4.2,9.169a.455.455,0,0,0,.423.266h.14a.458.458,0,0,0,.423-.276l4.223-9.159a.472.472,0,0,0-.031-.444Z" transform="translate(-99.636 -168.583)" fill="#32383d"/>
      <path id="path49" d="M186.492,177.795l-4.2-9.169a.451.451,0,0,0-.423-.266h-.136a.458.458,0,0,0-.423.276l-4.233,9.148a.444.444,0,0,0,.021.444.483.483,0,0,0,.4.213h1.189a.612.612,0,0,0,.584-.392l.616-1.347h3.8l.616,1.347a.609.609,0,0,0,.584.392h1.179a.458.458,0,0,0,.4-.213.451.451,0,0,0,.021-.434Zm-3.673-3.026h-2.082l1.029-2.312,1.05,2.312Z" transform="translate(-115.096 -168.349)" fill="#32383d"/>
    </g>
  </g>
</svg>
