<svg width="17" height="18" viewBox="0 0 17 18" fill="none" xmlns="http://www.w3.org/2000/svg">
<path fill-rule="evenodd" clip-rule="evenodd" d="M11.988 12.2032L12.1395 11.7494V15.6977C12.1395 16.308 11.8967 16.894 11.4656 17.326C11.0336 17.7572 10.4475 18 9.83721 18H2.30233C1.692 18 1.10595 17.7572 0.673954 17.326C0.242791 16.894 0 16.308 0 15.6977V2.30233C0 1.692 0.242791 1.10595 0.673954 0.673954C1.10595 0.242791 1.692 0 2.30233 0H9.83721C10.4475 0 11.0336 0.242791 11.4656 0.673954C11.8967 1.10595 12.1395 1.692 12.1395 2.30233V4.82316C11.6406 4.92279 11.2077 5.27944 11.0353 5.79684L10.6133 7.0627C10.5874 6.7253 10.4459 6.39544 10.188 6.13758C9.61619 5.56577 8.68772 5.56577 8.11591 6.13758L6.28995 7.96437C5.7173 8.53619 5.7173 9.46381 6.28995 10.0356L8.11591 11.8624C8.42484 12.1705 8.83675 12.3128 9.24028 12.2886C9.39516 12.6728 9.71163 12.9885 10.1353 13.13C10.9021 13.3853 11.7327 12.97 11.988 12.2032ZM7.74419 15.907H4.39535C4.04875 15.907 3.76744 15.6257 3.76744 15.2791C3.76744 14.9325 4.04875 14.6512 4.39535 14.6512H7.74419C8.09079 14.6512 8.3721 14.9325 8.3721 15.2791C8.3721 15.6257 8.09079 15.907 7.74419 15.907ZM2.72093 1.25581H9.41861L8.89703 2.55935C8.70614 3.03656 8.24484 3.34884 7.73079 3.34884H4.40874C3.8947 3.34884 3.4334 3.03656 3.24251 2.55935L2.72093 1.25581ZM10.003 11.5409L11.8289 6.06055C11.9386 5.73152 12.2944 5.55403 12.6235 5.66371C12.9525 5.77338 13.13 6.1292 13.0203 6.45738L11.1943 11.9378C11.0847 12.2668 10.7289 12.4443 10.3998 12.3346C10.0708 12.2249 9.89332 11.8691 10.003 11.5409ZM14.8101 8.9992L13.4278 7.61697C13.1825 7.37167 13.1825 6.97399 13.4278 6.72869C13.6731 6.48339 14.0708 6.48339 14.3161 6.72869L16.1421 8.55548C16.3874 8.80078 16.3874 9.19762 16.1421 9.44292L14.3161 11.2697C14.0708 11.515 13.6731 11.515 13.4278 11.2697C13.1825 11.0244 13.1825 10.6267 13.4278 10.3814L14.8101 8.9992ZM8.7072 6.72869L6.88124 8.55548C6.63594 8.80078 6.63594 9.19762 6.88124 9.44292L8.7072 11.2697C8.9525 11.515 9.35017 11.515 9.59548 11.2697C9.84078 11.0244 9.84078 10.6267 9.59548 10.3814L8.21324 8.9992L9.59548 7.61697C9.84078 7.37167 9.84078 6.97399 9.59548 6.72869C9.35017 6.48339 8.9525 6.48339 8.7072 6.72869Z" fill="white"/>
</svg>
