<svg xmlns="http://www.w3.org/2000/svg" width="160.002" height="45.588" viewBox="0 0 160.002 45.588">
  <g id="mongodb-seeklogo.com" transform="translate(0 -0.203)">
    <g id="Group_105196" data-name="Group 105196" transform="translate(0 0.203)">
      <path id="Path_75556" data-name="Path 75556" d="M411.555,56.975c-.144.029-.288.347-.288.52-.029,1.155-.058,4.215-.058,6.294a.214.214,0,0,0,.173.173c.433.029,1.472.058,2.367.058a6.174,6.174,0,0,0,2.368-.346,3.066,3.066,0,0,0,1.53-2.887c0-2.8-1.963-3.869-4.879-3.869a4.646,4.646,0,0,0-1.213.058ZM419,69.881c0-2.858-2.108-4.446-5.919-4.446a16.717,16.717,0,0,0-1.675.029c-.087.029-.2.087-.2.173,0,2.05-.029,5.312.058,6.582a2.179,2.179,0,0,0,.953,1.559,6.61,6.61,0,0,0,2.512.346A3.942,3.942,0,0,0,419,69.881ZM405.665,55.388c.289,0,1.155.086,3.378.086,2.108,0,3.782-.058,5.832-.058,2.512,0,5.976.895,5.976,4.648a4.527,4.527,0,0,1-3,4.042c-.086.029-.086.086,0,.115,2.425.606,4.562,2.108,4.562,4.937,0,2.772-1.732,4.533-4.244,5.63a13.81,13.81,0,0,1-5.37.895c-1.472,0-5.428-.173-7.622-.115-.231-.087.2-1.126.4-1.3a5.387,5.387,0,0,0,1.472-.231c.78-.2.866-.433.982-1.617.058-1.011.058-4.591.058-7.131,0-3.494.029-5.861,0-7.016-.029-.895-.347-1.184-.982-1.357-.491-.086-1.3-.2-1.963-.288-.145-.145.346-1.126.52-1.242ZM389.006,73.346a5.818,5.818,0,0,0,3.263.779,6.4,6.4,0,0,0,4.619-1.646c1.53-1.386,2.6-3.522,2.6-6.929,0-3.263-1.242-5.919-3.782-7.478a10.216,10.216,0,0,0-5.428-1.27,4.325,4.325,0,0,0-1.617.2.85.85,0,0,0-.289.462c-.058.578-.058,5.024-.058,7.622,0,2.685,0,6.438.058,6.871a1.791,1.791,0,0,0,.635,1.386Zm-6.554-17.958c.549,0,2.656.086,3.667.086,1.819,0,3.118-.086,6.554-.086a10.682,10.682,0,0,1,7.045,2.252,9.361,9.361,0,0,1,3.2,7.391,9.675,9.675,0,0,1-3.984,8.315,13.351,13.351,0,0,1-8.286,2.338c-1.963,0-5.341-.058-8.142-.087h-.029c-.144-.26.231-1.27.462-1.3a4.591,4.591,0,0,0,1.328-.26c.606-.231.722-.549.809-1.617.086-1.992.058-4.388.058-7.1,0-1.934.029-5.717-.029-6.929-.086-1.01-.519-1.27-1.386-1.444-.433-.086-1.011-.2-1.819-.288-.116-.2.4-1.1.548-1.27Z" transform="translate(-262.409 -38.122)" fill="#fff" fill-rule="evenodd"/>
      <path id="Path_75557" data-name="Path 75557" d="M141.909,89.182a5.812,5.812,0,0,1-1.877-.491.881.881,0,0,1-.231-.462c-.058-1.011-.058-3.9-.058-5.832a6.806,6.806,0,0,0-.924-3.869A3.942,3.942,0,0,0,135.47,76.8a7.722,7.722,0,0,0-4.388,2.079c-.029.029-.26.231-.231-.087,0-.318.058-.953.087-1.386a.75.75,0,0,0-.2-.606,19.274,19.274,0,0,1-4.475,1.155c-.693.145-.866.808-.144,1.039h.029a6.414,6.414,0,0,1,1.7.751.9.9,0,0,1,.26.808c.029,2.165.029,5.485-.058,7.3-.029.722-.231.981-.751,1.1l.058-.029a11.365,11.365,0,0,1-1.213.231,1.69,1.69,0,0,0,0,1.3c.318,0,1.992-.087,3.378-.087,1.905,0,2.887.087,3.378.087a1.879,1.879,0,0,0,.144-1.3,5.358,5.358,0,0,1-1.328-.2c-.52-.116-.664-.375-.693-.982-.058-1.53-.058-4.764-.058-6.958a1.391,1.391,0,0,1,.346-1.068A4.367,4.367,0,0,1,134,78.962a2.985,2.985,0,0,1,1.992.664,2.84,2.84,0,0,1,.924,1.819c.144,1.242.087,3.7.087,5.832,0,1.155-.087,1.444-.52,1.588a5.5,5.5,0,0,1-1.328.26,1.69,1.69,0,0,0,0,1.3c.837,0,1.819-.087,3.263-.087,1.79,0,2.945.087,3.407.087a2.009,2.009,0,0,0,.086-1.242Zm8-11.029c-1.53,0-2.483,1.184-2.483,3.031,0,1.877.837,4.042,3.2,4.042a2.238,2.238,0,0,0,1.5-.577,3.824,3.824,0,0,0,.924-2.656c0-2.4-1.184-3.84-3.147-3.84Zm-.2,12.761a2.481,2.481,0,0,0-1.241.318c-1.213.779-1.761,1.53-1.761,2.425a2.553,2.553,0,0,0,1.011,2.079,5.129,5.129,0,0,0,3.464,1.068c2.945,0,4.244-1.588,4.244-3.147a2.207,2.207,0,0,0-1.675-2.223,11.665,11.665,0,0,0-4.042-.52Zm.2,7.507a6.389,6.389,0,0,1-4.129-1.213,3.806,3.806,0,0,1-1.53-2.858,2.211,2.211,0,0,1,.578-1.444,15.307,15.307,0,0,1,2.656-2.136c.058-.029.086-.058.086-.116a.191.191,0,0,0-.115-.144,2.747,2.747,0,0,1-1.877-1.819v-.058c-.029-.173-.086-.346.173-.52.2-.144.491-.317.808-.519a11.855,11.855,0,0,0,1.328-.866.212.212,0,0,0,.058-.173.191.191,0,0,0-.116-.144,4.21,4.21,0,0,1-3.031-4.417,4.383,4.383,0,0,1,1.848-3.638,8.486,8.486,0,0,1,4.158-1.415h.087a8.85,8.85,0,0,1,3.176.693,5.344,5.344,0,0,0,1.877.288,2.5,2.5,0,0,0,2.021-.75,1.576,1.576,0,0,1,.116.577,2.18,2.18,0,0,1-.375,1.328,1.64,1.64,0,0,1-1.27.549h-.145a6.429,6.429,0,0,1-.751-.116l-.115.058c-.029.058,0,.115.029.2l.029.058a10.673,10.673,0,0,1,.173,1.242,4.678,4.678,0,0,1-1.963,4.186,6.647,6.647,0,0,1-3.378,1.3,3.613,3.613,0,0,0-.4.029c-.145,0-.347.029-.375.029H149.5c-.231.058-.808.346-.808.837,0,.433.26.953,1.5,1.039.26.029.52.029.808.058a25.347,25.347,0,0,1,4.648.577,3.236,3.236,0,0,1,2.165,3.089c0,2.136-1.53,4.129-4.071,5.37a9.289,9.289,0,0,1-3.84.837ZM166.363,78.3a2.681,2.681,0,0,0-1.559.433c-1.126.693-1.7,2.079-1.7,4.1,0,3.782,1.905,6.438,4.619,6.438a2.938,2.938,0,0,0,1.992-.693c.837-.693,1.27-2.079,1.27-4.013,0-3.753-1.877-6.265-4.619-6.265Zm.52,12.357c-4.908,0-6.669-3.609-6.669-6.987a6.251,6.251,0,0,1,2.858-5.486,8.69,8.69,0,0,1,4.417-1.3,6.186,6.186,0,0,1,6.381,6.554,6.7,6.7,0,0,1-3.032,5.976,8.007,8.007,0,0,1-3.955,1.242ZM115.433,78.3a2.682,2.682,0,0,0-1.559.433c-1.126.693-1.7,2.079-1.7,4.1,0,3.782,1.905,6.438,4.619,6.438a2.938,2.938,0,0,0,1.992-.693c.837-.693,1.27-2.079,1.27-4.013,0-3.753-1.848-6.265-4.619-6.265Zm.52,12.357c-4.908,0-6.669-3.609-6.669-6.987a6.251,6.251,0,0,1,2.858-5.486,8.69,8.69,0,0,1,4.417-1.3,6.186,6.186,0,0,1,6.381,6.554,6.7,6.7,0,0,1-3.032,5.976,7.821,7.821,0,0,1-3.955,1.242Zm-33-.289a1.237,1.237,0,0,1-.087-.664.974.974,0,0,1,.087-.433,10.588,10.588,0,0,0,1.27-.26c.578-.145.808-.462.837-1.184.087-1.732.087-5.024.058-7.3v-.058a.875.875,0,0,0-.318-.808,6.506,6.506,0,0,0-1.732-.751c-.26-.086-.433-.231-.4-.4,0-.173.173-.375.549-.433a21.143,21.143,0,0,0,4.417-1.126.714.714,0,0,1,.145.462l-.029.317c-.029.318-.058.693-.058,1.068a.223.223,0,0,0,.231.2.411.411,0,0,0,.173-.058A8.142,8.142,0,0,1,92.48,76.97a3.737,3.737,0,0,1,3.349,2.05.217.217,0,0,0,.2.115.205.205,0,0,0,.173-.086,8.774,8.774,0,0,1,4.533-2.079c2.685,0,4.273,1.992,4.273,5.37,0,.953,0,2.194-.029,3.32,0,1.01-.029,1.934-.029,2.6a.908.908,0,0,0,.52.693,6.161,6.161,0,0,0,1.675.4h.029a2.318,2.318,0,0,1-.173,1.1,7.064,7.064,0,0,1-.722-.029c-.549-.029-1.328-.058-2.194-.058-1.79,0-2.714.029-3.609.087a2.81,2.81,0,0,1,0-1.1,8.9,8.9,0,0,0,1.1-.26c.578-.173.722-.433.751-1.184,0-.548.115-5.226-.058-6.352a2.847,2.847,0,0,0-2.945-2.512,5.12,5.12,0,0,0-2.945,1.126.514.514,0,0,0-.115.289v.029a13.345,13.345,0,0,1,.115,2.367v1.877c0,1.3-.029,2.512,0,3.436a.846.846,0,0,0,.693.9c.173.029.288.058.433.086.26.058.52.116.924.2a1.559,1.559,0,0,1-.029.808.554.554,0,0,1-.115.289c-.982-.029-1.992-.058-3.465-.058-.433,0-1.184.029-1.819.029-.52,0-1.011.029-1.3.029a1.53,1.53,0,0,1-.087-.578.9.9,0,0,1,.116-.52,1.944,1.944,0,0,1,.4-.058c.346-.058.635-.116.924-.173.491-.144.664-.4.693-1.039a50.1,50.1,0,0,0-.029-6.612,2.72,2.72,0,0,0-2.829-2.512,5.3,5.3,0,0,0-2.945,1.126.935.935,0,0,0-.26.664v1.7c0,2.079,0,4.677.029,5.8a.9.9,0,0,0,.808.895,5.956,5.956,0,0,0,.664.116l.52.086a2.425,2.425,0,0,1-.087,1.1c-.289,0-.635-.029-1.039-.029-.606-.029-1.386-.058-2.252-.058-1.011,0-1.732.029-2.31.058a6.983,6.983,0,0,0-1.068-.058Z" transform="translate(-56.8 -52.833)" fill="#fff" fill-rule="evenodd"/>
      <g id="Group_105195" data-name="Group 105195" transform="translate(0 0)">
        <path id="Path_75558" data-name="Path 75558" d="M26.925,56.924l-1.184-.4s.145-6.034-2.021-6.467c-1.444-1.675.231-71.024,5.428-.231a4.222,4.222,0,0,0-2.108,2.425,22.27,22.27,0,0,0-.116,4.677Z" transform="translate(-15.958 -12.462)" fill="#fff" fill-rule="evenodd"/>
        <path id="Path_75559" data-name="Path 75559" d="M26.925,56.924l-1.184-.4s.145-6.034-2.021-6.467c-1.444-1.675.231-71.024,5.428-.231a4.222,4.222,0,0,0-2.108,2.425,22.27,22.27,0,0,0-.116,4.677Z" transform="translate(-15.958 -12.462)" fill="#a6a385" fill-rule="evenodd"/>
        <path id="Path_75560" data-name="Path 75560" d="M33.089,39.087s10.365-6.814,7.94-20.99C38.69,7.79,33.175,4.412,32.569,3.113A14.566,14.566,0,0,1,31.27.572L31.7,29.242c0,.029-.9,8.777,1.386,9.845" transform="translate(-21.487 -0.457)" fill="#fff" fill-rule="evenodd"/>
        <path id="Path_75561" data-name="Path 75561" d="M33.089,39.087s10.365-6.814,7.94-20.99C38.69,7.79,33.175,4.412,32.569,3.113A14.566,14.566,0,0,1,31.27.572L31.7,29.242c0,.029-.9,8.777,1.386,9.845" transform="translate(-21.487 -0.457)" fill="#499d4a" fill-rule="evenodd"/>
        <path id="Path_75562" data-name="Path 75562" d="M9.177,39.208S-.552,32.568.025,20.875C.573,9.182,7.445,3.437,8.773,2.4A2.688,2.688,0,0,0,9.726.2c.606,1.3.491,19.431.577,21.567.26,8.228-.462,15.879-1.126,17.438Z" transform="translate(0 -0.203)" fill="#fff" fill-rule="evenodd"/>
        <path id="Path_75563" data-name="Path 75563" d="M9.177,39.208S-.552,32.568.025,20.875C.573,9.182,7.445,3.437,8.773,2.4A2.688,2.688,0,0,0,9.726.2c.606,1.3.491,19.431.577,21.567.26,8.228-.462,15.879-1.126,17.438Z" transform="translate(0 -0.203)" fill="#58aa50" fill-rule="evenodd"/>
      </g>
    </g>
  </g>
</svg>
