<svg id="mooscootes-b-registered" xmlns="http://www.w3.org/2000/svg" width="95.051" height="25.832" viewBox="0 0 95.051 25.832">
  <path id="Path_21655" data-name="Path 21655" d="M167.51,379.176V355.3h6.967v2.738c1.2-2.114,4.275-3.459,6.869-3.459,3.411,0,5.862,1.393,7.063,3.747a8.2,8.2,0,0,1,7.4-3.747c4.515,0,8.84,2.642,8.84,9.127v15.469h-7.063V365.34c0-2.258-1.2-4.035-3.795-4.035a3.879,3.879,0,0,0-3.987,4.083v13.788H182.6V365.34c0-2.258-1.2-4.035-3.843-4.035a3.881,3.881,0,0,0-3.939,4.131v13.74Z" transform="translate(-167.51 -353.898)"/>
  <path id="Path_21656" data-name="Path 21656" d="M435.5,354.4a12.456,12.456,0,0,0-10.286,5.107h0a1.3,1.3,0,0,1-1.988,0h0a12.454,12.454,0,0,0-10.287-5.107,12.59,12.59,0,1,0,0,25.179A12.467,12.467,0,0,0,423.23,374.5h0a1.3,1.3,0,0,1,1.988,0h0a12.485,12.485,0,0,0,10.286,5.074,12.589,12.589,0,1,0,0-25.178Zm-22.62,18.862c-2.945,0-5.688-1.988-5.688-6.248s2.743-6.295,5.688-6.295c2.9,0,5.69,2.082,5.69,6.295C418.574,371.281,415.78,373.262,412.884,373.262Zm22.683,0c-2.9,0-5.69-1.988-5.69-6.248,0-4.217,2.794-6.295,5.69-6.295,2.947,0,5.69,2.033,5.69,6.295s-2.743,6.25-5.69,6.25Z" transform="translate(-361.765 -353.748)"/>
  <path id="Path_21657" data-name="Path 21657" d="M787.973,30.8a1.683,1.683,0,0,0-.783-.136h-.553v1.325h.585a1.766,1.766,0,0,0,.618-.081.662.662,0,0,0,.134-1.113m-.7-.578a2.793,2.793,0,0,1,.994.133.912.912,0,0,1,.571.929.807.807,0,0,1-.36.727,1.405,1.405,0,0,1-.53.177.886.886,0,0,1,.629.359,1.013,1.013,0,0,1,.2.568v.27c0,.084,0,.176.008.272a.623.623,0,0,0,.032.192l.023.045h-.6l-.01-.035-.01-.041-.013-.118V33.4a.9.9,0,0,0-.346-.84,1.54,1.54,0,0,0-.72-.119h-.51V33.89h-.644V30.217Zm-1.97-.187a2.923,2.923,0,0,0-.01,4.088,2.875,2.875,0,0,0,4.075,0,2.817,2.817,0,0,0,.838-2.051,2.872,2.872,0,0,0-4.908-2.037m4.4,4.406a3.336,3.336,0,0,1-4.734,0A3.253,3.253,0,0,1,784,32.063a3.343,3.343,0,0,1,6.686,0,3.239,3.239,0,0,1-.981,2.374" transform="translate(-695.633 -28.72)"/>
</svg>
