<svg width="28" height="28" viewBox="0 0 28 28" fill="none" xmlns="http://www.w3.org/2000/svg">
<g filter="url(#filter0_d_2436_53)">
<path d="M22.4 19.8L19.375 16.775C18.9583 17.0417 18.5167 17.2708 18.05 17.4625C17.5833 17.6542 17.1 17.8083 16.6 17.925V15.875C16.8333 15.7917 17.0625 15.7083 17.2875 15.625C17.5125 15.5417 17.725 15.4417 17.925 15.325L14.6 12V17.2L9.6 12.2H5.6V6.2H8.8L4 1.4L5.4 0L23.8 18.4L22.4 19.8ZM22.2 14L20.75 12.55C21.0333 12.0333 21.2458 11.4917 21.3875 10.925C21.5292 10.3583 21.6 9.775 21.6 9.175C21.6 7.60833 21.1417 6.20833 20.225 4.975C19.3083 3.74167 18.1 2.90833 16.6 2.475V0.425C18.6667 0.891667 20.35 1.9375 21.65 3.5625C22.95 5.1875 23.6 7.05833 23.6 9.175C23.6 10.0583 23.4792 10.9083 23.2375 11.725C22.9958 12.5417 22.65 13.3 22.2 14ZM18.85 10.65L16.6 8.4V5.15C17.3833 5.51667 17.9958 6.06667 18.4375 6.8C18.8792 7.53333 19.1 8.33333 19.1 9.2C19.1 9.45 19.0792 9.69583 19.0375 9.9375C18.9958 10.1792 18.9333 10.4167 18.85 10.65ZM14.6 6.4L12 3.8L14.6 1.2V6.4Z" fill="white"/>
</g>
<defs>
<filter id="filter0_d_2436_53" x="0" y="0" width="27.8" height="27.8" filterUnits="userSpaceOnUse" color-interpolation-filters="sRGB">
<feFlood flood-opacity="0" result="BackgroundImageFix"/>
<feColorMatrix in="SourceAlpha" type="matrix" values="0 0 0 0 0 0 0 0 0 0 0 0 0 0 0 0 0 0 127 0" result="hardAlpha"/>
<feOffset dy="4"/>
<feGaussianBlur stdDeviation="2"/>
<feComposite in2="hardAlpha" operator="out"/>
<feColorMatrix type="matrix" values="0 0 0 0 0 0 0 0 0 0 0 0 0 0 0 0 0 0 0.25 0"/>
<feBlend mode="normal" in2="BackgroundImageFix" result="effect1_dropShadow_2436_53"/>
<feBlend mode="normal" in="SourceGraphic" in2="effect1_dropShadow_2436_53" result="shape"/>
</filter>
</defs>
</svg>
