<svg width="47" height="24" viewBox="0 0 47 24" fill="none" xmlns="http://www.w3.org/2000/svg">
<path d="M0.00940443 21.8921H1.56406V15.8438L3.95248 21.101C4.04662 21.3914 4.23962 21.6395 4.49788 21.8021C4.75614 21.9648 5.06328 22.0317 5.3658 21.9912C5.66832 22.0317 5.97546 21.9648 6.23372 21.8021C6.49197 21.6395 6.68498 21.3914 6.77912 21.101L9.16754 15.8438V21.8926H10.7222V15.8438C10.7551 15.6085 10.6954 15.3696 10.5557 15.1774C10.416 14.9852 10.2073 14.8546 9.97333 14.8132C8.80047 14.4314 8.05111 14.771 7.66981 15.5621L5.3236 20.7771L3.01959 15.5611C2.69472 14.7695 1.89089 14.4869 0.716066 14.8122C0.490476 14.864 0.292604 14.9988 0.161705 15.1897C0.0308064 15.3806 -0.0235555 15.6137 0.00940443 15.8428V21.8921Z" fill="#00678F"/>
<path d="M11.9297 16.9621H13.4843V20.2991C13.4843 20.4827 13.5265 20.9067 14.3745 20.9067H17.7116V16.9199H19.2662V22.3607C19.2662 23.7176 17.6267 24.0003 16.8214 24.0003H11.9297V22.9697H16.763C17.7523 22.8716 17.6532 22.3622 17.6532 22.2209V21.7969H14.4172C12.919 21.7969 11.9297 21.0902 11.9297 20.3413V16.9636V16.9621Z" fill="#00678F"/>
<path d="M44.9236 13.1036C44.1417 13.0554 43.3581 13.1659 42.6201 13.4285C42.4366 13.5266 42.1539 13.5266 42.1539 13.7111C42.252 13.8093 42.252 13.9516 42.3374 14.0929C42.4889 14.3679 42.6958 14.6085 42.945 14.7996C43.1854 14.9831 43.4681 15.1814 43.6938 15.3649C44.16 15.6476 44.6831 15.8311 45.1071 16.1138C45.3898 16.2973 45.6303 16.4956 45.8987 16.6791C46.04 16.7772 46.1392 16.9196 46.2805 17.004V16.9618C46.1823 16.8636 46.1823 16.6791 46.097 16.58C45.9842 16.4557 45.8559 16.3465 45.7152 16.2551C45.3825 15.7953 44.971 15.3982 44.4996 15.0822C44.1178 14.7996 43.284 14.4747 43.1427 14.0517H43.1005C43.3832 14.0095 43.6658 13.9104 43.8921 13.8682C44.3161 13.77 44.6409 13.77 45.0649 13.6846C45.2591 13.6428 45.4485 13.5813 45.6303 13.5011V13.4029C45.3898 13.1625 45.2485 12.8798 45.0227 12.6963C44.4142 12.17 43.7721 11.6838 43.1005 11.2408C42.7187 11.0003 42.2525 10.859 41.885 10.6332C41.7436 10.5351 41.5032 10.5351 41.4188 10.3928C41.2252 10.1176 41.0684 9.81837 40.9526 9.50256C40.6277 8.85233 40.3023 8.14567 39.9632 7.44147C39.7865 6.97808 39.5836 6.52506 39.3557 6.08458C38.2627 4.23252 36.6907 2.70934 34.8051 1.67531C34.3382 1.4301 33.8305 1.27211 33.3069 1.20911C33.0242 1.20911 32.6993 1.1669 32.4167 1.1669C32.2331 1.06875 32.0349 0.842034 31.8514 0.742905C31.3282 0.318908 29.6043 -0.613983 29.1238 0.601573C28.799 1.35044 29.59 2.09979 29.8727 2.52379C30.099 2.8017 30.3021 3.09761 30.4802 3.40859C30.505 3.61566 30.5524 3.81939 30.6216 4.01612C30.8051 4.53925 31.0034 5.09034 31.2291 5.57078C31.3704 5.81124 31.5118 6.0939 31.6531 6.31964C31.7512 6.46097 31.9358 6.50318 31.9358 6.74364C31.7974 7.02452 31.7022 7.32461 31.6531 7.63384C31.4438 8.27991 31.3647 8.96108 31.4205 9.63792C31.4763 10.3148 31.6657 10.9738 31.978 11.5769C32.1615 11.8596 32.6282 12.5093 33.1935 12.2836C33.7166 12.0431 33.6175 11.3934 33.7588 10.828C33.801 10.6867 33.7588 10.5876 33.857 10.5032V10.5454C34.0323 10.8654 34.188 11.1958 34.3232 11.5347C34.7558 12.1441 35.2803 12.6828 35.8779 13.1316C36.1261 13.4056 36.4115 13.6435 36.7258 13.8382V13.796H36.6836C36.5855 13.6979 36.5001 13.6547 36.401 13.5556C36.1707 13.3454 35.9667 13.1081 35.7934 12.8489C35.283 12.1747 34.8426 11.4503 34.4792 10.6867C34.2957 10.3049 34.0975 9.93785 33.9561 9.55802C33.858 9.41668 33.858 9.17622 33.7726 9.13402C33.5605 9.38013 33.3712 9.64508 33.2073 9.92558C33.0129 10.5002 32.9035 11.1002 32.8824 11.7065C32.8402 11.7065 32.8402 11.7065 32.8402 11.7487C32.4584 11.6505 32.3171 11.2825 32.19 10.9571C31.8027 9.94774 31.7681 8.8371 32.0918 7.80559C32.19 7.56513 32.5158 6.77505 32.3745 6.5336C32.2763 6.29314 32.0496 6.15181 31.9505 6.01048C31.7962 5.7684 31.6547 5.51844 31.5265 5.26161C31.2438 4.61139 31.1025 3.84829 30.7776 3.20052C30.6148 2.87858 30.4105 2.57932 30.1701 2.31032C29.9249 2.02038 29.7072 1.70824 29.5199 1.37792C29.4777 1.23659 29.3785 1.05305 29.4777 0.911719C29.4884 0.871257 29.5123 0.835481 29.5455 0.809932C29.5786 0.784382 29.6193 0.770483 29.6612 0.770386C29.8025 0.629054 30.2687 0.81259 30.4101 0.868534C30.8242 1.02265 31.2181 1.22667 31.5829 1.47607C31.75 1.64382 31.9404 1.78662 32.1482 1.90006H32.3887C32.7705 1.99821 33.1803 1.94227 33.5616 2.0414C34.1496 2.25363 34.7172 2.51856 35.2576 2.83295C36.8246 3.81979 38.0907 5.21781 38.918 6.87466C39.0593 7.15733 39.1015 7.39779 39.2428 7.66622C39.4833 8.23155 39.8082 8.83909 40.0344 9.40442C40.2343 9.97669 40.5202 10.5152 40.8824 11.0013C41.0659 11.2417 41.7726 11.3831 42.0979 11.5244C42.3726 11.6043 42.6379 11.7132 42.8895 11.8493C43.3135 12.0897 43.6811 12.3724 44.0624 12.6408C44.2353 12.63 44.4079 12.6679 44.5603 12.7503C44.7127 12.8328 44.839 12.9564 44.9246 13.107L44.9236 13.1036Z" fill="#00678F"/>
<path d="M32.9584 2.87256C32.7749 2.87256 32.6335 2.91476 32.4922 2.91476V2.95697H32.5344C32.6511 3.12071 32.7787 3.27646 32.9162 3.42317C33.0143 3.6067 33.0997 3.80496 33.1989 3.9885V3.94629C33.3402 3.84815 33.3824 3.66363 33.3824 3.38096C33.3572 3.28981 33.3084 3.20689 33.2411 3.1405C33.1846 3.0134 33.0448 2.9712 32.9584 2.87256Z" fill="#00678F"/>
<path d="M20.3767 21.895H24.786C25.272 21.9041 25.7542 21.8077 26.1993 21.6124C26.8496 21.2875 27.1887 20.9057 27.1887 20.3404V19.2117C27.1887 18.7877 26.8069 18.3637 26.1144 18.083C25.6936 17.9275 25.2489 17.8461 24.8003 17.8425H22.9212C22.3137 17.8425 21.9888 17.659 21.9319 17.235V16.2456C22.03 15.9208 22.1724 15.8217 22.7235 15.7795H27.2319V14.7489H22.9065C22.4778 14.7307 22.0488 14.7783 21.6345 14.8902C20.7443 15.1729 20.3203 15.6391 20.3203 16.3885V17.2787C20.3203 17.9853 21.1119 18.5506 22.4261 18.692H24.6732C25.1394 18.7342 25.3798 18.8333 25.5211 19.0168C25.5632 19.0515 25.5974 19.0945 25.6218 19.1432C25.6461 19.1919 25.66 19.2451 25.6625 19.2995V20.1897C25.6271 20.3402 25.5424 20.4745 25.422 20.5715C25.2309 20.7087 25.0062 20.7918 24.7718 20.812H20.4042V21.8862H20.3758L20.3767 21.895Z" fill="#E38D1A"/>
<path d="M36.772 20.0998C36.772 21.1303 37.5636 21.7393 39.1183 21.838C39.2596 21.838 39.4009 21.8802 39.5845 21.8802H43.5697V20.8496H39.528C38.6378 20.8496 38.3125 20.6092 38.3125 20.1007V14.7998H36.7578V20.0998H36.772Z" fill="#E38D1A"/>
<path d="M28.1763 20.1562V16.4958C28.1763 15.5634 28.8265 14.9976 30.0985 14.7998H33.8576C35.1295 14.9833 35.7798 15.5487 35.7798 16.4958V20.1562C35.8153 20.458 35.7463 20.763 35.5844 21.0201C35.4224 21.2773 35.1772 21.4712 34.8896 21.5695L36.3878 22.9264H34.6049L33.3894 21.7977L32.1738 21.8959H30.5343C30.2321 21.8941 29.932 21.8464 29.6441 21.7545C28.6832 21.5141 28.1719 20.9914 28.1719 20.1577L28.1763 20.1562ZM29.858 20.0581C29.858 20.1003 29.9003 20.1562 29.9003 20.1994C29.9984 20.6234 30.3665 20.8496 30.9745 20.8496H32.3878L31.1158 19.6767H32.854L33.9827 20.7073C34.0831 20.6564 34.17 20.5825 34.2364 20.4915C34.3027 20.4006 34.3466 20.2953 34.3645 20.1842V16.4251C34.2663 16.0011 33.8983 15.8176 33.2903 15.8176H30.9867C30.2801 15.8176 29.858 16.1003 29.858 16.5665V20.0571V20.0581Z" fill="#E38D1A"/>
<path d="M44.2702 21.8919H44.5106V21.0439H44.7933V20.8613H43.9453V21.0449H44.2702V21.8919ZM45.9519 21.8919H46.1924V20.8613H45.8675L45.5849 21.568L45.3022 20.8613H44.9759V21.8919H45.1594V21.1018L45.4421 21.8933H45.5834L45.8661 21.1018V21.8919H45.9519Z" fill="#E38D1A"/>
</svg>
