<svg xmlns="http://www.w3.org/2000/svg" width="95.358" height="21.816" viewBox="0 0 95.358 21.816">
  <g id="nagios-logo" transform="translate(0 -0.003)">
    <path id="Path_78728" data-name="Path 78728" d="M0,20.493a2.452,2.452,0,0,1,2.569-1.159,30.8,30.8,0,0,0,7.043-.042,9.436,9.436,0,0,1,2.316-.018c1.195.136,2.4.193,3.6.3a8.06,8.06,0,0,1,1.1.155.782.782,0,0,1,.653.612.764.764,0,0,1-.435.86,2.269,2.269,0,0,1-1.042.3c-1.29-.029-2.579-.158-3.869-.181a28.942,28.942,0,0,0-3.346.1,24.94,24.94,0,0,1-4.632.029c-.854-.075-1.719-.027-2.579-.042A1.5,1.5,0,0,1,0,20.837ZM17.248,5.215c.045.975.106,1.951.128,2.927a14.533,14.533,0,0,1-.06,1.892,14.031,14.031,0,0,0,0,3.951,5.027,5.027,0,0,1-.052,1.707,1.469,1.469,0,0,1-1.618,1.362,15.735,15.735,0,0,1-2.8-.409A2.876,2.876,0,0,1,11.237,15.4a17.905,17.905,0,0,1-1.043-1.682,13.651,13.651,0,0,0-2-2.8,14.1,14.1,0,0,1-1.24-1.749,3.6,3.6,0,0,0-.272-.439.584.584,0,0,0-1.03.195,2.08,2.08,0,0,0-.108.681c-.03,1.32-.042,2.64-.076,3.96a1.933,1.933,0,0,1-.148.668,1.832,1.832,0,0,0-.04,1.651.663.663,0,0,1-.477.954,3.934,3.934,0,0,1-3.023-.084,1.362,1.362,0,0,1-.849-1.283c-.012-.954-.049-1.9-.1-2.844a1.853,1.853,0,0,1,.6-1.572,2.572,2.572,0,0,0,.481-.6,1.139,1.139,0,0,0-.045-1.37A5.386,5.386,0,0,1,.827,5.095C.894,4.152.873,3.2.891,2.257c0-.23-.015-.462.007-.689A.855.855,0,0,1,2,.6,5.945,5.945,0,0,0,4.1.209,1.271,1.271,0,0,1,5.845.985c.109.234.192.48.289.719A1.441,1.441,0,0,0,7,2.6a2.061,2.061,0,0,1,1.026.883c.9,1.3,1.791,2.606,2.7,3.9a6.761,6.761,0,0,0,.954,1.11c.386.35.706.241.768-.29a12.6,12.6,0,0,0,.114-2.487,27.844,27.844,0,0,1,.044-3.869A1.291,1.291,0,0,1,14.24.367c.316.016.632.037.954.054a1.839,1.839,0,0,1,1.918,1.527,4.994,4.994,0,0,1,.172,1.1c.026.718.008,1.437.008,2.156Zm20.6,4.659a8.653,8.653,0,0,1,.247-2.725,3.6,3.6,0,0,1,3.175-2.527,5.183,5.183,0,0,1,3.872.805,3.31,3.31,0,0,0,.368.225.789.789,0,0,0,1.148-.177A3.215,3.215,0,0,1,50.1,5.163a1.929,1.929,0,0,1,.647,2.316,6.266,6.266,0,0,0-.29,3.876c.129.88.2,1.771.272,2.656.087.97.168,1.94.226,2.911a4.118,4.118,0,0,1-.913,2.711A6.746,6.746,0,0,1,47.971,21.4a1.5,1.5,0,0,1-1.471.18,4.386,4.386,0,0,0-3.269-.046,4.881,4.881,0,0,1-2.725.159,3.749,3.749,0,0,1-2.725-2.171,1.155,1.155,0,0,1,.061-1.437,1.226,1.226,0,0,1,1.44-.2c.136.053.272.108.4.168s.252.136.386.192c1.2.445,2.462.722,3.678,1.117a2.043,2.043,0,0,0,2.526-1.75,5.735,5.735,0,0,0,.049-1.617.584.584,0,0,0-.853-.557,5.926,5.926,0,0,0-1.246.56,3.542,3.542,0,0,1-2.4.467,3.269,3.269,0,0,1-2.607-2.146,5.385,5.385,0,0,0-1.057-1.85,1.65,1.65,0,0,1-.294-.954c-.045-.545-.012-1.094-.012-1.64Zm8.62.87a11.932,11.932,0,0,0-.347-1.579,2.325,2.325,0,0,0-2.2-1.635,2.425,2.425,0,0,0-2.043,1.83.858.858,0,0,0-.065.248,19.018,19.018,0,0,0,.09,2.132,1.827,1.827,0,0,0,1.437,1.635,2.353,2.353,0,0,0,2.368-.651,3.154,3.154,0,0,0,.759-1.979Zm-25.587,3c0-.23.016-.462,0-.689a2.166,2.166,0,0,1,2.552-2.316,3.072,3.072,0,0,1,.426.06,2.011,2.011,0,0,0,1.714-.361,4.283,4.283,0,0,1,2.4-.827,5.722,5.722,0,0,0,1.18-.2A1.422,1.422,0,0,0,30.2,7.683a.9.9,0,0,0-1-.858,5.606,5.606,0,0,0-3.97,1.362.9.9,0,0,1-.593.286,11.834,11.834,0,0,1-2.468-.247,1.1,1.1,0,0,1-.361-2.082A6.148,6.148,0,0,1,26.46,4.734,8.244,8.244,0,0,0,29.2,4.688,4.313,4.313,0,0,1,33.92,8.051,2.93,2.93,0,0,1,33.8,9.233a3.5,3.5,0,0,0,.136,2.513A2.249,2.249,0,0,1,34,13a4.978,4.978,0,0,0,.015,2.043,1.2,1.2,0,0,1-1.294,1.635c-.459.008-.92-.008-1.377.02a1.635,1.635,0,0,1-1.415-.459.759.759,0,0,0-1.09-.068,1.527,1.527,0,0,1-.507.317c-1.376.272-2.75.568-4.141.721a3.959,3.959,0,0,1-1.751-.356,2.257,2.257,0,0,1-1.571-2.327c.012-.262.005-.52.005-.779Zm5.85,1.1a1.443,1.443,0,0,0,.426-.037c1.029-.422,2.071-.817,3.069-1.306A.7.7,0,0,0,30.3,12.33a1.99,1.99,0,0,0-2.2-.771,4.017,4.017,0,0,1-.937.071,7.106,7.106,0,0,0-1.109.11,1.449,1.449,0,0,0-1.05,1.737,1.3,1.3,0,0,0,1.2,1.33,4.98,4.98,0,0,0,.515.041Zm49.5-4.139a8.938,8.938,0,0,1-.935,3.569,4.456,4.456,0,0,1-1.621,1.635,1.666,1.666,0,0,1-1.475.233,1.433,1.433,0,0,0-1.576.386,1.635,1.635,0,0,1-1.652.409,11.715,11.715,0,0,0-2.309-.21,2.482,2.482,0,0,1-1.576-.576c-.582-.465-1.2-.88-1.812-1.31a1.439,1.439,0,0,1-.643-1.155,7.644,7.644,0,0,0-.584-2.588,3.437,3.437,0,0,1,.565-3.177.836.836,0,0,1,.473-.342,2.5,2.5,0,0,0,1.6-1.346A1.929,1.929,0,0,1,67.023,5.1a1.21,1.21,0,0,0,.514.02,13.183,13.183,0,0,1,3.75.022,4.619,4.619,0,0,1,4.178,2.7,6.968,6.968,0,0,1,.766,2.87Zm-4.73.467A4.31,4.31,0,0,0,70.956,8.6a2.18,2.18,0,0,0-3.568-.484,4.678,4.678,0,0,0-.369,5.212,2.637,2.637,0,0,0,2.715.86,2.425,2.425,0,0,0,1.714-2.155c.03-.287.037-.58.053-.862ZM84.644,4.464c.969.1,1.949.148,2.9.338a5.555,5.555,0,0,1,1.643.717,1.924,1.924,0,0,1,.668.763.817.817,0,0,1-.594,1.3,3.763,3.763,0,0,1-3.395-.248,3.876,3.876,0,0,0-1.21-.43,1.729,1.729,0,0,0-1.469.331.828.828,0,0,0-.012,1.44.993.993,0,0,0,.371.214,11.929,11.929,0,0,0,3.1.663,2.908,2.908,0,0,1,1.791.5,15.306,15.306,0,0,0,1.362.727,2.067,2.067,0,0,1,1.24,2.007c-.068,1.941-.817,3.186-2.733,3.515a5.35,5.35,0,0,0-2.052.594,1.584,1.584,0,0,1-.666.147c-.628.064-1.259.112-1.888.162a10.312,10.312,0,0,1-4.177-1.17,2.624,2.624,0,0,1-.388-.339,1.067,1.067,0,0,1,.529-1.947,8.3,8.3,0,0,1,2.389-.176,2.25,2.25,0,0,1,1.075.657,2.8,2.8,0,0,0,2.316.7A2.878,2.878,0,0,0,86.5,14.59a.954.954,0,0,0-.112-1.76c-.154-.075-.327-.108-.485-.174a14.179,14.179,0,0,1-1.565-.695,3.662,3.662,0,0,0-2.3-.519,2.861,2.861,0,0,1-3.2-1.907,3.269,3.269,0,0,1,1.1-3.7,5.313,5.313,0,0,1,3.5-1.249,5.04,5.04,0,0,0,1.214-.119ZM58.638,9.653a5.722,5.722,0,0,0,.022,1.1c.11,1.486.289,2.97.33,4.456a1.655,1.655,0,0,1-1.907,1.819,2.658,2.658,0,0,1-2.393-3.937,3.951,3.951,0,0,0,.211-2.52q-.319-1.818-.535-3.652a2.6,2.6,0,0,1,.078-.937,1.32,1.32,0,0,1,1.339-1.117,9.718,9.718,0,0,1,1.635.031,1.473,1.473,0,0,1,1.451,1.6c.015.343,0,.689,0,1.034.038.012-.144,1.419-.229,2.122ZM56.731.029h.257a1.5,1.5,0,0,1,1.332,2.433.954.954,0,0,1-.843.509A10.739,10.739,0,0,1,55.767,2.9a1.192,1.192,0,0,1-1.152-1.345A1.548,1.548,0,0,1,55.959.014c.256-.023.515,0,.772,0V.037Z"/>
    <path id="Path_78729" data-name="Path 78729" d="M69.695,4.078a.714.714,0,0,0-.1-.127.545.545,0,0,0-.155-.089.636.636,0,0,0,.21-.1.623.623,0,0,0,.188-.237.818.818,0,0,0,.068-.347.8.8,0,0,0-.09-.392.474.474,0,0,0-.236-.221,1.169,1.169,0,0,0-.422-.06h-.993V4.929h.6V3.948h.053A.217.217,0,0,1,68.966,4a.573.573,0,0,1,.108.187l.319.74h.674l-.289-.7a.983.983,0,0,0-.083-.151Zm-.421-.7a.158.158,0,0,1-.1.076.734.734,0,0,1-.158.033h-.251V3h.262a.3.3,0,0,1,.222.063.252.252,0,0,1,.059.18.263.263,0,0,1-.037.14ZM69.03,1.649A2.072,2.072,0,1,0,71.1,3.721,2.072,2.072,0,0,0,69.03,1.649Zm0,3.8a1.726,1.726,0,1,1,1.726-1.726A1.726,1.726,0,0,1,69.03,5.447Z" transform="translate(24.256 0.596)" fill-rule="evenodd"/>
  </g>
</svg>
