<svg width="22" height="24" viewBox="0 0 22 24" fill="none" xmlns="http://www.w3.org/2000/svg">
<path fill-rule="evenodd" clip-rule="evenodd" d="M17.28 1.2V3.144C17.8278 3.25519 18.24 3.73944 18.24 4.32V12.7351C20.0993 13.7544 21.36 15.73 21.36 18C21.36 20.8738 19.3396 23.2756 16.642 23.8628C16.3912 23.9516 16.1212 24 15.84 24H2.4C1.0745 24 0 22.9255 0 21.6V11.7488C0 11.1096 0.255 10.4968 0.70848 10.0462L6.97803 3.81741C7.42765 3.3707 8.03572 3.12 8.66955 3.12H10.56V1.2C10.56 0.537264 11.0973 0 11.76 0H16.08C16.7427 0 17.28 0.537264 17.28 1.2ZM15.36 1.92V3.12H12.48V1.92H15.36ZM10.9607 22.08C9.96734 21.0093 9.36 19.5757 9.36 18C9.36 14.6863 12.0463 12 15.36 12C15.6868 12 16.0074 12.0261 16.32 12.0764V5.04H8.66955C8.54277 5.04 8.42116 5.09013 8.33125 5.17948L2.0617 11.4083C1.97101 11.4984 1.92 11.621 1.92 11.7488V21.6C1.92 21.8653 2.1349 22.08 2.4 22.08H10.9607ZM19.44 18C19.44 20.2533 17.6133 22.08 15.36 22.08C13.1067 22.08 11.28 20.2533 11.28 18C11.28 15.7467 13.1067 13.92 15.36 13.92C17.6133 13.92 19.44 15.7467 19.44 18ZM11.823 7.0166C12.7134 7.907 12.7134 9.35062 11.823 10.241L7.24101 14.8231C6.35061 15.7135 4.90698 15.7135 4.01658 14.8231C3.12621 13.9327 3.12621 12.4891 4.01658 11.5987L8.59865 7.0166C9.48905 6.1262 10.9327 6.1262 11.823 7.0166ZM5.37425 12.9563L9.9563 8.37426C10.0969 8.23366 10.3248 8.23366 10.4654 8.37426C10.606 8.51484 10.606 8.74277 10.4654 8.88337L5.88336 13.4654C5.74276 13.606 5.51483 13.606 5.37425 13.4654C5.23365 13.3248 5.23365 13.0969 5.37425 12.9563ZM17.9997 18.5163C17.9997 19.9539 16.8177 21.1193 15.3597 21.1193C13.9016 21.1193 12.7197 19.9539 12.7197 18.5163C12.7197 17.6234 13.7379 16.1591 14.5096 15.1775C14.9487 14.6191 15.7706 14.6191 16.2097 15.1775C16.9813 16.1591 17.9997 17.6234 17.9997 18.5163ZM16.0777 18.5657C16.0514 18.8986 15.763 19.1993 15.3597 19.1993C14.9563 19.1993 14.6679 18.8986 14.6416 18.5657C14.7124 18.3126 14.8511 18.0743 14.9827 17.8493C15.0957 17.6563 15.2238 17.4569 15.3597 17.2582C15.4956 17.4569 15.6237 17.6563 15.7366 17.8493C15.8682 18.0743 16.0069 18.3126 16.0777 18.5657Z" fill="white"/>
</svg>
