<svg xmlns="http://www.w3.org/2000/svg" width="25.575" height="17.456" viewBox="0 0 25.575 17.456">
  <g id="kyc" transform="translate(13.085 15.454)">
    <g id="Investment_apps" data-name="Investment apps" transform="translate(-13.085 -15.454)">
      <g id="Dynamic_KYC_Platforms" data-name="Dynamic KYC Platforms" transform="translate(0 0)">
        <g id="New_device_compatibility" data-name="New device compatibility" transform="translate(15.447)">
          <path id="Path_2580" data-name="Path 2580" d="M297.636,173.432v-.075h-5.262v5.259h5.262v-.763a.686.686,0,1,1,1.372,0V179.3a.685.685,0,0,1-.686.686h-6.636A.685.685,0,0,1,291,179.3v-6.631a.685.685,0,0,1,.686-.686h6.636a.685.685,0,0,1,.686.686v.76a.686.686,0,1,1-1.372,0Z" transform="translate(-291 -171.986)" fill="#fff"/>
          <path id="Path_1692" data-name="Path 1692" d="M304.7,176.394a.686.686,0,0,0-.937-.251h0l-4.5,2.607-.846-1.167a.686.686,0,1,0-1.111.806l1.209,1.668a.686.686,0,0,0,.9.191l5.036-2.918a.686.686,0,0,0,.251-.937Z" transform="translate(-294.663 -174.399)" fill="#fff"/>
        </g>
        <g id="New_device_compatibility-2" data-name="New device compatibility" transform="translate(15.447 9.35)">
          <path id="Path_2581" data-name="Path 2581" d="M297.636,196.432v-.075h-5.262v5.259h5.262v-.763a.686.686,0,1,1,1.372,0V202.3a.685.685,0,0,1-.686.686h-6.636A.685.685,0,0,1,291,202.3v-6.631a.685.685,0,0,1,.686-.686h6.636a.685.685,0,0,1,.686.686v.76a.686.686,0,1,1-1.372,0Z" transform="translate(-291 -194.986)" fill="#fff"/>
          <path id="Path_1692-2" data-name="Path 1692" d="M304.7,199.394a.686.686,0,0,0-.937-.251h0l-4.5,2.607-.846-1.167a.686.686,0,1,0-1.111.806l1.209,1.668a.686.686,0,0,0,.9.191l5.036-2.918a.686.686,0,0,0,.251-.937Z" transform="translate(-294.663 -197.399)" fill="#fff"/>
        </g>
        <path id="Path_1712" data-name="Path 1712" d="M262.8,181.95a5.5,5.5,0,1,0-6.36.03c-2.355,1.5-3.286,4.577-3.44,6.435a.948.948,0,0,0,.867,1.024c.027,0,.053,0,.081,0a.948.948,0,0,0,.944-.871c.019-.228.51-5.583,4.709-5.584h0c4.34,0,4.833,5.354,4.852,5.58a.949.949,0,0,0,1.892-.148h0C266.2,186.546,265.253,183.445,262.8,181.95Zm-3.2-8.058a3.6,3.6,0,1,1-3.6,3.6,3.6,3.6,0,0,1,3.6-3.6Z" transform="translate(-252.999 -171.987)" fill="#fff"/>
      </g>
    </g>
  </g>
</svg>
