<svg width="20" height="20" viewBox="0 0 20 20" fill="none" xmlns="http://www.w3.org/2000/svg">
<path d="M7.14287 0.714355H2.14287C1.35389 0.714355 0.714294 1.35395 0.714294 2.14293V7.14293C0.714294 7.9319 1.35389 8.5715 2.14287 8.5715H7.14287C7.93184 8.5715 8.57144 7.9319 8.57144 7.14293V2.14293C8.57144 1.35395 7.93184 0.714355 7.14287 0.714355Z" fill="#ECF3FF"/>
<path d="M17.8572 11.4287H12.8572C12.0682 11.4287 11.4286 12.0683 11.4286 12.8573V17.8573C11.4286 18.6463 12.0682 19.2859 12.8572 19.2859H17.8572C18.6462 19.2859 19.2857 18.6463 19.2857 17.8573V12.8573C19.2857 12.0683 18.6462 11.4287 17.8572 11.4287Z" fill="#ECF3FF"/>
<path d="M7.14287 11.4287H2.14287C1.35389 11.4287 0.714294 12.0683 0.714294 12.8573V17.8573C0.714294 18.6463 1.35389 19.2859 2.14287 19.2859H7.14287C7.93184 19.2859 8.57144 18.6463 8.57144 17.8573V12.8573C8.57144 12.0683 7.93184 11.4287 7.14287 11.4287Z" fill="#ECF3FF"/>
<path d="M7.14287 0.714355H2.14287C1.35389 0.714355 0.714294 1.35395 0.714294 2.14293V7.14293C0.714294 7.9319 1.35389 8.5715 2.14287 8.5715H7.14287C7.93184 8.5715 8.57144 7.9319 8.57144 7.14293V2.14293C8.57144 1.35395 7.93184 0.714355 7.14287 0.714355Z" stroke="#1163FB" stroke-width="1.5" stroke-linecap="round" stroke-linejoin="round"/>
<path d="M17.8572 11.4287H12.8572C12.0682 11.4287 11.4286 12.0683 11.4286 12.8573V17.8573C11.4286 18.6463 12.0682 19.2859 12.8572 19.2859H17.8572C18.6462 19.2859 19.2857 18.6463 19.2857 17.8573V12.8573C19.2857 12.0683 18.6462 11.4287 17.8572 11.4287Z" stroke="#1163FB" stroke-width="1.5" stroke-linecap="round" stroke-linejoin="round"/>
<path d="M7.14287 11.4287H2.14287C1.35389 11.4287 0.714294 12.0683 0.714294 12.8573V17.8573C0.714294 18.6463 1.35389 19.2859 2.14287 19.2859H7.14287C7.93184 19.2859 8.57144 18.6463 8.57144 17.8573V12.8573C8.57144 12.0683 7.93184 11.4287 7.14287 11.4287Z" stroke="#1163FB" stroke-width="1.5" stroke-linecap="round" stroke-linejoin="round"/>
<path d="M15.3571 8.5715V0.714355" stroke="#1163FB" stroke-width="1.5" stroke-linecap="round" stroke-linejoin="round"/>
<path d="M11.4286 4.64307H19.2857" stroke="#1163FB" stroke-width="1.5" stroke-linecap="round" stroke-linejoin="round"/>
</svg>
