<svg width="52" height="7" viewBox="0 0 52 7" fill="none" xmlns="http://www.w3.org/2000/svg">
<path d="M21.6408 4.22799H24.9582L23.2094 1.40289L19.9921 6.50755H18.5273L22.4418 0.392C22.5282 0.270768 22.6424 0.171944 22.7748 0.103759C22.9072 0.0355737 23.0539 0 23.2028 0C23.3517 0 23.4985 0.0355737 23.6308 0.103759C23.7632 0.171944 23.8774 0.270768 23.9638 0.392L27.8871 6.52272H26.4179L25.7346 5.38108H22.3791L21.6408 4.22799ZM36.8379 5.36963V0.0496453H35.5962V5.88855C35.5954 5.96851 35.6106 6.04782 35.641 6.12179C35.6714 6.19576 35.7163 6.26288 35.7731 6.31919C35.8322 6.38038 35.9034 6.42869 35.982 6.4611C36.0607 6.49352 36.1452 6.50933 36.2303 6.50755H41.8913L42.6256 5.36592H36.8396L36.8379 5.36963ZM16.2979 4.42006C16.876 4.42006 17.4303 4.19044 17.839 3.78171C18.2478 3.37298 18.4774 2.81862 18.4774 2.24058C18.4774 1.66255 18.2478 1.10819 17.839 0.699457C17.4303 0.290725 16.876 0.061102 16.2979 0.061102H10.8667V6.51901H12.1084V1.20273H16.208C16.3453 1.2025 16.4813 1.22957 16.6081 1.28236C16.7348 1.33515 16.8498 1.41262 16.9464 1.51025C17.043 1.60789 17.1192 1.72374 17.1706 1.85109C17.222 1.97843 17.2475 2.11472 17.2458 2.25204C17.2469 2.52906 17.1384 2.79527 16.944 2.9926C16.7495 3.18993 16.485 3.30237 16.208 3.30539H12.7153L16.4246 6.53417H18.2237L15.7406 4.42006H16.2979ZM3.22879 6.50755C2.37246 6.50755 1.5512 6.16738 0.945689 5.56186C0.340175 4.95635 0 4.13509 0 3.27877C0 2.42244 0.340175 1.60119 0.945689 0.995672C1.5512 0.390157 2.37246 0.0499822 3.22879 0.0499822H6.97515C7.83147 0.0499822 8.65273 0.390157 9.25824 0.995672C9.86376 1.60119 10.2039 2.42244 10.2039 3.27877C10.2039 4.13509 9.86376 4.95635 9.25824 5.56186C8.65273 6.16738 7.83147 6.50755 6.97515 6.50755H3.22879ZM6.90337 5.36963C7.45746 5.36963 7.98885 5.14952 8.38064 4.75772C8.77244 4.36593 8.99255 3.83454 8.99255 3.28045C8.99255 2.72637 8.77244 2.19498 8.38064 1.80318C7.98885 1.41139 7.45746 1.19128 6.90337 1.19128H3.31741C3.04305 1.19053 2.77124 1.24382 2.51748 1.34811C2.26372 1.45241 2.03299 1.60567 1.83846 1.79913C1.64393 1.9926 1.48941 2.22249 1.38373 2.47567C1.27804 2.72885 1.22326 3.00037 1.2225 3.27472C1.22175 3.54908 1.27504 3.82089 1.37934 4.07465C1.48364 4.32841 1.63689 4.55914 1.83036 4.75367C2.02382 4.9482 2.25371 5.10272 2.50689 5.20841C2.76008 5.31409 3.0316 5.36887 3.30595 5.36963H6.90337ZM30.4817 6.50755C29.6254 6.50755 28.8041 6.16738 28.1986 5.56186C27.5931 4.95635 27.2529 4.13509 27.2529 3.27877C27.2529 2.42244 27.5931 1.60119 28.1986 0.995672C28.8041 0.390157 29.6254 0.0499822 30.4817 0.0499822H34.9408L34.2065 1.19161H30.5586C30.2817 1.1881 30.007 1.23959 29.7502 1.3431C29.4934 1.44661 29.2597 1.60007 29.0627 1.79459C28.8657 1.98911 28.7093 2.22081 28.6025 2.47625C28.4958 2.73169 28.4408 3.00579 28.4408 3.28264C28.4408 3.5595 28.4958 3.83359 28.6025 4.08904C28.7093 4.34448 28.8657 4.57618 29.0627 4.7707C29.2597 4.96522 29.4934 5.11868 29.7502 5.22219C30.007 5.32569 30.2817 5.37718 30.5586 5.37367H35.0291L34.2948 6.5153H30.4817V6.50755ZM45.665 5.36963C45.2105 5.36718 44.769 5.21807 44.4061 4.94449C44.0432 4.67092 43.7784 4.28749 43.6509 3.85127H48.9554L49.6897 2.70964H43.6469C43.7742 2.27256 44.0396 1.88844 44.4033 1.61474C44.7671 1.34104 45.2097 1.19248 45.665 1.19128H49.3129L50.0472 0.0496453H45.5881C45.1641 0.0496453 44.7443 0.13316 44.3525 0.295422C43.9608 0.457684 43.6049 0.695514 43.305 0.995335C43.0052 1.29516 42.7674 1.65109 42.6051 2.04283C42.4429 2.43456 42.3594 2.85442 42.3594 3.27843C42.3594 3.70244 42.4429 4.1223 42.6051 4.51403C42.7674 4.90577 43.0052 5.26171 43.305 5.56153C43.6049 5.86135 43.9608 6.09918 44.3525 6.26144C44.7443 6.4237 45.1641 6.50722 45.5881 6.50722H49.4245L50.1587 5.36558H45.665V5.36963Z" fill="#ED1C24"/>
<path d="M50.7125 0.732815C50.7125 0.620318 50.7458 0.510347 50.8083 0.41681C50.8708 0.323272 50.9597 0.250368 51.0636 0.207317C51.1675 0.164267 51.2819 0.153002 51.3922 0.17495C51.5026 0.196897 51.6039 0.251069 51.6835 0.330616C51.763 0.410164 51.8172 0.511513 51.8391 0.621849C51.8611 0.732184 51.8498 0.84655 51.8067 0.950483C51.7637 1.05442 51.6908 1.14325 51.5972 1.20575C51.5037 1.26825 51.3938 1.30161 51.2813 1.30161C51.2065 1.30174 51.1325 1.28712 51.0634 1.25858C50.9944 1.23005 50.9316 1.18815 50.8788 1.13531C50.8259 1.08247 50.784 1.01971 50.7555 0.950641C50.727 0.881571 50.7123 0.807548 50.7125 0.732815ZM51.2853 1.46706C51.4282 1.46706 51.568 1.42467 51.6869 1.34525C51.8057 1.26583 51.8984 1.15294 51.9531 1.02087C52.0078 0.888798 52.0221 0.74347 51.9942 0.603263C51.9663 0.463056 51.8975 0.334268 51.7964 0.233184C51.6953 0.132101 51.5665 0.0632617 51.4263 0.0353729C51.2861 0.00748396 51.1408 0.0217975 51.0087 0.0765036C50.8766 0.13121 50.7638 0.223851 50.6843 0.342713C50.6049 0.461574 50.5625 0.601318 50.5625 0.744272C50.5629 0.935857 50.6392 1.11949 50.7746 1.25497C50.9101 1.39044 51.0937 1.4667 51.2853 1.46706ZM51.2085 0.302512C51.2814 0.294301 51.3552 0.303541 51.4238 0.329469C51.4702 0.346045 51.5101 0.376962 51.5377 0.417736C51.5653 0.458511 51.5793 0.507026 51.5775 0.556246C51.5784 0.577403 51.5744 0.598488 51.566 0.61791C51.548 0.673713 51.5126 0.722261 51.4649 0.756402C51.4535 0.756402 51.4535 0.767859 51.4265 0.767859L51.6149 1.10988H51.4379L51.2728 0.794816H51.1718V1.12538H51.0066V0.302512H51.2085ZM51.2702 0.682944C51.2956 0.687109 51.3216 0.684714 51.3458 0.675987C51.3701 0.667259 51.3917 0.652489 51.4087 0.633074C51.4189 0.608852 51.4229 0.582413 51.4201 0.556246C51.4186 0.535735 51.4123 0.515867 51.4017 0.498287C51.391 0.480707 51.3763 0.465922 51.3588 0.455157C51.3084 0.443955 51.2566 0.440096 51.2051 0.4437H51.1667V0.670477H51.2678V0.681933L51.2702 0.682944Z" fill="#ED1C24"/>
</svg>
