<svg xmlns="http://www.w3.org/2000/svg" xmlns:xlink="http://www.w3.org/1999/xlink" width="207.189" height="30.599" viewBox="0 0 207.189 30.599">
  <defs>
    <clipPath id="clip-path">
      <rect id="Rectangle_44808" data-name="Rectangle 44808" width="207.187" height="14.19" fill="none"/>
    </clipPath>
    <clipPath id="clip-path-2">
      <rect id="Rectangle_44811" data-name="Rectangle 44811" width="207.189" height="30.599" fill="none"/>
    </clipPath>
  </defs>
  <g id="Group_105251" data-name="Group 105251" transform="translate(0 0)">
    <g id="Group_105248" data-name="Group 105248" transform="translate(0 0)">
      <g id="Group_105247" data-name="Group 105247" clip-path="url(#clip-path)">
        <path id="Path_75624" data-name="Path 75624" d="M0,7.135V7.1A7.148,7.148,0,0,1,7.368,0,7.083,7.083,0,0,1,14.7,7.056V7.1a7.147,7.147,0,0,1-7.369,7.095A7.083,7.083,0,0,1,0,7.135m16.492.8V.273h3.821V7.856c0,1.968.994,2.9,2.514,2.9,1.54,0,2.533-.9,2.533-2.808V.273h3.821V7.836c0,4.386-2.514,6.336-6.394,6.336-3.859,0-6.3-1.969-6.3-6.238M34.758,3.587H30.685V.273H42.633V3.587H38.539V13.918H34.758ZM44.292.273h3.78V10.6H54.68v3.314H44.292ZM55.872,7.135V7.1a7.354,7.354,0,0,1,14.7-.04V7.1a7.354,7.354,0,0,1-14.7.039m10.818,0V7.1A3.518,3.518,0,0,0,63.2,3.411,3.481,3.481,0,0,0,59.73,7.056V7.1a3.547,3.547,0,0,0,3.508,3.684A3.479,3.479,0,0,0,66.69,7.135m5.38,0V7.1a7.354,7.354,0,0,1,14.7-.04V7.1a7.354,7.354,0,0,1-14.7.039m10.819,0V7.1A3.519,3.519,0,0,0,79.4,3.411,3.481,3.481,0,0,0,75.93,7.056V7.1a3.546,3.546,0,0,0,3.509,3.684,3.478,3.478,0,0,0,3.45-3.645M88.718.273H92.5V5.809L97.218.273h4.463L96.515,6.121l5.341,7.8H97.335L93.884,8.85,92.5,10.37v3.548H88.718Zm-77.9,6.862V7.1A3.518,3.518,0,0,0,7.329,3.411,3.481,3.481,0,0,0,3.86,7.056V7.1A3.546,3.546,0,0,0,7.368,10.78a3.478,3.478,0,0,0,3.45-3.645" transform="translate(0 0)" fill="#d12638"/>
        <path id="Path_75625" data-name="Path 75625" d="M141.015.286h7a5.111,5.111,0,0,1,3.722,1.209,3.067,3.067,0,0,1,.878,2.222v.04A3.158,3.158,0,0,1,150.508,6.8c1.656.546,2.709,1.481,2.709,3.332v.039c0,2.34-1.91,3.763-5.167,3.763h-7.036Zm7.876,4.21c0-.76-.605-1.169-1.717-1.169H144.7v2.4h2.377c1.152,0,1.815-.389,1.815-1.189Zm5.906,3.45V.286h3.822V7.868c0,1.969.992,2.9,2.512,2.9,1.541,0,2.536-.9,2.536-2.806V.286h3.818V7.85c0,4.385-2.513,6.334-6.392,6.334-3.859,0-6.3-1.967-6.3-6.238M168.7,11.9,170.8,9.388a7.07,7.07,0,0,0,4.424,1.638c1.033,0,1.579-.351,1.579-.937v-.038c0-.585-.447-.876-2.321-1.325-2.9-.662-5.145-1.481-5.145-4.269V4.418c0-2.535,2.008-4.366,5.284-4.366a8.58,8.58,0,0,1,5.613,1.813l-1.891,2.67a6.7,6.7,0,0,0-3.821-1.344c-.915,0-1.364.37-1.364.876v.038c0,.625.468.9,2.379,1.326,3.118.681,5.067,1.7,5.067,4.251V9.72c0,2.788-2.2,4.445-5.516,4.445A9.566,9.566,0,0,1,168.7,11.9M182.538.286h3.78V13.931h-3.78Zm6.277,0h3.528L197.958,7.5V.286H201.7V13.931h-3.293l-5.848-7.485v7.485h-3.742Zm15.3,0h10.974v3.2h-7.231V5.568h6.548V8.55h-6.548v2.165h7.329v3.216H204.119ZM216.107,11.9l2.107-2.514a7.061,7.061,0,0,0,4.424,1.638c1.034,0,1.579-.351,1.579-.937v-.038c0-.585-.449-.876-2.321-1.325-2.9-.662-5.147-1.481-5.147-4.269V4.418c0-2.535,2.008-4.366,5.283-4.366a8.58,8.58,0,0,1,5.614,1.813l-1.89,2.67a6.7,6.7,0,0,0-3.821-1.344c-.916,0-1.364.37-1.364.876v.038c0,.625.467.9,2.379,1.326,3.118.681,5.067,1.7,5.067,4.251V9.72c0,2.788-2.2,4.445-5.516,4.445a9.569,9.569,0,0,1-6.394-2.262m12.711,0,2.105-2.514a7.063,7.063,0,0,0,4.425,1.638c1.033,0,1.578-.351,1.578-.937v-.038c0-.585-.448-.876-2.319-1.325-2.905-.662-5.147-1.481-5.147-4.269V4.418c0-2.535,2.008-4.366,5.283-4.366a8.582,8.582,0,0,1,5.614,1.813l-1.891,2.67a6.7,6.7,0,0,0-3.821-1.344c-.915,0-1.364.37-1.364.876v.038c0,.625.469.9,2.378,1.326,3.119.681,5.068,1.7,5.068,4.251V9.72c0,2.788-2.2,4.445-5.517,4.445a9.563,9.563,0,0,1-6.392-2.262M147.584,8.375H144.7V10.89h2.924c1.17,0,1.812-.449,1.812-1.246V9.6c0-.741-.587-1.228-1.852-1.229" transform="translate(-33.539 -0.013)" fill="#fff"/>
      </g>
    </g>
    <g id="Group_105250" data-name="Group 105250" transform="translate(0 0)">
      <g id="Group_105249" data-name="Group 105249" clip-path="url(#clip-path-2)">
        <path id="Path_75626" data-name="Path 75626" d="M143.021,32.424a3.215,3.215,0,0,0,.272,1.474,2.416,2.416,0,0,0,.793.944,3.3,3.3,0,0,0,1.194.5,6.83,6.83,0,0,0,1.474.152,4.134,4.134,0,0,0,.977-.129,3.376,3.376,0,0,0,.985-.408,2.5,2.5,0,0,0,.761-.721,1.827,1.827,0,0,0,.3-1.065,1.579,1.579,0,0,0-.215-.834,2.009,2.009,0,0,0-.562-.592,3.293,3.293,0,0,0-.761-.393,7.71,7.71,0,0,0-.816-.248l-2.549-.625a6.864,6.864,0,0,1-.976-.32,2.774,2.774,0,0,1-.818-.513,2.428,2.428,0,0,1-.569-.785,2.7,2.7,0,0,1-.216-1.137,3.6,3.6,0,0,1,.161-.977,2.706,2.706,0,0,1,.6-1.057,3.482,3.482,0,0,1,1.21-.841,4.852,4.852,0,0,1,1.97-.345,5.773,5.773,0,0,1,1.619.225,4.1,4.1,0,0,1,1.354.672,3.224,3.224,0,0,1,.921,1.114,3.38,3.38,0,0,1,.338,1.546h-1.091a2.757,2.757,0,0,0-.287-1.146,2.467,2.467,0,0,0-.69-.817,3.147,3.147,0,0,0-.985-.5,3.964,3.964,0,0,0-1.162-.168,4.793,4.793,0,0,0-1.081.12,2.729,2.729,0,0,0-.914.384,1.989,1.989,0,0,0-.631.7,2.18,2.18,0,0,0-.242,1.073,1.66,1.66,0,0,0,.137.7,1.406,1.406,0,0,0,.377.5,2.261,2.261,0,0,0,.552.336,3.779,3.779,0,0,0,.664.216l2.788.688a8.2,8.2,0,0,1,1.146.393,3.824,3.824,0,0,1,.944.576,2.448,2.448,0,0,1,.641.841,2.832,2.832,0,0,1,.232,1.2,4.366,4.366,0,0,1-.04.513,2.666,2.666,0,0,1-.192.681,3.379,3.379,0,0,1-.433.728,2.841,2.841,0,0,1-.768.673,4.3,4.3,0,0,1-1.21.489,7.064,7.064,0,0,1-1.73.184,7.226,7.226,0,0,1-1.874-.232,3.943,3.943,0,0,1-1.473-.721,3.176,3.176,0,0,1-.937-1.249,4.034,4.034,0,0,1-.28-1.8Z" transform="translate(-33.756 -5.83)" fill="#fff"/>
        <path id="Path_75627" data-name="Path 75627" d="M159.124,30.432h3.748a2.81,2.81,0,0,0,1.841-.577,2.144,2.144,0,0,0,.705-1.761,2.145,2.145,0,0,0-.705-1.762,2.818,2.818,0,0,0-1.841-.577h-3.748Zm-1.09-5.606h5.078a4.221,4.221,0,0,1,1.393.217,2.944,2.944,0,0,1,1.074.639,2.836,2.836,0,0,1,.687,1.034,4.034,4.034,0,0,1,0,2.754,2.833,2.833,0,0,1-.687,1.033,2.947,2.947,0,0,1-1.074.641,4.242,4.242,0,0,1-1.393.216h-3.988v4.9h-1.09Z" transform="translate(-37.587 -5.905)" fill="#fff"/>
        <path id="Path_75628" data-name="Path 75628" d="M173.667,30.469a6.882,6.882,0,0,0,.248,1.843,4.951,4.951,0,0,0,.77,1.609,3.87,3.87,0,0,0,1.338,1.146,4.589,4.589,0,0,0,3.892,0,3.859,3.859,0,0,0,1.338-1.146,4.933,4.933,0,0,0,.768-1.609,6.925,6.925,0,0,0,0-3.677,4.928,4.928,0,0,0-.768-1.618,3.863,3.863,0,0,0-1.338-1.145,4.589,4.589,0,0,0-3.892,0,3.874,3.874,0,0,0-1.338,1.145,4.946,4.946,0,0,0-.77,1.618,6.91,6.91,0,0,0-.248,1.834m-1.088,0a7.505,7.505,0,0,1,.335-2.25,5.621,5.621,0,0,1,1.009-1.907A4.875,4.875,0,0,1,175.614,25a5.4,5.4,0,0,1,2.363-.489,5.347,5.347,0,0,1,2.354.489,4.886,4.886,0,0,1,1.682,1.313,5.62,5.62,0,0,1,1.009,1.907,7.7,7.7,0,0,1,0,4.5,5.624,5.624,0,0,1-1.009,1.906,4.888,4.888,0,0,1-1.682,1.314,5.347,5.347,0,0,1-2.354.488,5.4,5.4,0,0,1-2.363-.488,4.877,4.877,0,0,1-1.69-1.314,5.624,5.624,0,0,1-1.009-1.906,7.519,7.519,0,0,1-.335-2.251" transform="translate(-41.046 -5.83)" fill="#fff"/>
        <path id="Path_75629" data-name="Path 75629" d="M189.435,24.826H198.5v.929h-3.988V36.265h-1.088V25.755h-3.988Z" transform="translate(-45.055 -5.905)" fill="#fff"/>
        <path id="Path_75630" data-name="Path 75630" d="M204.839,24.826h1.089V35.335h6.407v.93h-7.5Z" transform="translate(-48.719 -5.905)" fill="#fff"/>
        <rect id="Rectangle_44809" data-name="Rectangle 44809" width="1.088" height="11.438" transform="translate(166.405 18.921)" fill="#fff"/>
        <path id="Path_75631" data-name="Path 75631" d="M234.6,36.189h-.785l-.144-2.082h-.032a3.927,3.927,0,0,1-.713,1.049,3.81,3.81,0,0,1-.937.721,4.291,4.291,0,0,1-1.1.416,5.283,5.283,0,0,1-1.21.136,5.4,5.4,0,0,1-2.363-.488,4.905,4.905,0,0,1-1.69-1.314,5.63,5.63,0,0,1-1.009-1.906,7.7,7.7,0,0,1,0-4.5,5.63,5.63,0,0,1,1.009-1.906A4.876,4.876,0,0,1,227.317,25a5.393,5.393,0,0,1,2.363-.489,5.911,5.911,0,0,1,1.7.24,4.483,4.483,0,0,1,1.434.721,4.154,4.154,0,0,1,1.057,1.194,4.778,4.778,0,0,1,.585,1.642h-1.091a2.566,2.566,0,0,0-.328-1,3.476,3.476,0,0,0-.754-.921,3.873,3.873,0,0,0-1.129-.681,3.918,3.918,0,0,0-1.473-.264,4.12,4.12,0,0,0-1.955.433,3.879,3.879,0,0,0-1.337,1.145,4.923,4.923,0,0,0-.77,1.618,6.925,6.925,0,0,0,0,3.677,4.932,4.932,0,0,0,.77,1.61,3.855,3.855,0,0,0,1.337,1.145,4.12,4.12,0,0,0,1.955.434,4.334,4.334,0,0,0,1.69-.313,3.491,3.491,0,0,0,1.257-.873,3.66,3.66,0,0,0,.77-1.329,5.015,5.015,0,0,0,.24-1.683h-3.892v-.928H234.6Z" transform="translate(-53.343 -5.83)" fill="#fff"/>
        <path id="Path_75632" data-name="Path 75632" d="M242.672,24.826h1.09v4.965h6.792V24.826h1.088V36.265h-1.088V30.721h-6.792v5.543h-1.09Z" transform="translate(-57.717 -5.905)" fill="#fff"/>
        <path id="Path_75633" data-name="Path 75633" d="M257.952,24.826h9.067v.929H263.03V36.265h-1.09V25.755h-3.988Z" transform="translate(-61.351 -5.905)" fill="#fff"/>
        <rect id="Rectangle_44810" data-name="Rectangle 44810" width="102.66" height="7.218" transform="translate(0 21.219)" fill="#939598"/>
      </g>
    </g>
  </g>
</svg>
