<svg id="Layer_2" data-name="Layer 2" xmlns="http://www.w3.org/2000/svg" width="43.283" height="61.94" viewBox="0 0 43.283 61.94">
  <g id="Layer_1" data-name="Layer 1">
    <g id="Page-1">
      <g id="Artboard">
        <g id="Packer_VerticalLogo_FullColor" data-name="Packer VerticalLogo FullColor">
          <path id="Shape" d="M1.578,222.223v-1.145H.542v1.139H0v-2.737H.54v1.151H1.576v-1.151h.54v2.743Zm2.484,0H3.648l-.037-.145a1.161,1.161,0,0,1-.621.172c-.379,0-.54-.248-.54-.588s.184-.54.6-.54h.5v-.207c0-.222-.064-.3-.393-.3a3,3,0,0,0-.573.06l-.064-.379a2.793,2.793,0,0,1,.725-.1c.648,0,.828.222.828.712Zm-.542-.745H3.17c-.168,0-.207.043-.207.195s.048.207.207.207a.828.828,0,0,0,.389-.1Zm1.621.789a2.522,2.522,0,0,1-.712-.114l.07-.379a2.4,2.4,0,0,0,.621.087c.228,0,.265-.048.265-.207s0-.184-.362-.259c-.5-.118-.54-.238-.54-.621s.184-.574.772-.574a2.82,2.82,0,0,1,.621.07l-.048.393a3.782,3.782,0,0,0-.54-.06c-.228,0-.265.048-.265.172s0,.172.292.238c.578.145.631.222.631.621s-.172.611-.793.611Zm2.366-.043V220.84c0-.108-.048-.157-.168-.157a1.464,1.464,0,0,0-.54.168v1.373H6.265V219.44l.54.077v.867a1.88,1.88,0,0,1,.756-.188c.34,0,.464.232.464.584v1.437Zm.956-2.253v-.487H9v.487Zm0,2.257v-1.988H9v1.977Zm.93-1.961c0-.5.3-.783,1-.783a3.313,3.313,0,0,1,.766.091l-.06.443a4.324,4.324,0,0,0-.7-.1c-.366,0-.487.124-.487.414v1.035c0,.286.118.414.487.414a4.321,4.321,0,0,0,.691-.07l.06.443a3.313,3.313,0,0,1-.766.091c-.7,0-1-.286-1-.783Zm2.911,2c-.708,0-.9-.373-.9-.778v-.487c0-.414.188-.778.9-.778s.9.373.9.778v.5c0,.389-.195.762-.9.762Zm0-1.621c-.275,0-.383.118-.383.34v.54c0,.222.108.34.383.34s.383-.118.383-.34v-.544c0-.242-.114-.362-.389-.362Zm2.35.033a4.094,4.094,0,0,0-.54.286v1.279h-.54v-2.008h.47v.207a2.349,2.349,0,0,1,.54-.259Zm2.07.859a.611.611,0,0,1-.681.7,2.96,2.96,0,0,1-.54-.06v.81l-.54.077v-2.826h.414l.048.168a1.112,1.112,0,0,1,.654-.207c.414,0,.638.238.638.685Zm-1.232.222a2.381,2.381,0,0,0,.46.054c.184,0,.259-.087.259-.265v-.669c0-.161-.064-.255-.255-.255a.745.745,0,0,0-.46.178Z" transform="translate(0 -174.008)"/>
          <path id="Shape-2" data-name="Shape" d="M0,243.55H4.418c2.619,0,3.586,1.081,3.586,3.062v1.544c0,1.971-1.081,3.041-3.689,3.041H2.159v3.673H0Zm4.321,1.884H2.159V249.3H4.321c1.209,0,1.567-.443,1.567-1.377V246.78C5.865,245.844,5.476,245.434,4.321,245.434Z" transform="translate(0 -193.127)"/>
          <path id="Shape-3" data-name="Shape" d="M48.866,265.821h-1.7l-.151-.54a4.526,4.526,0,0,1-2.464.729c-1.511,0-2.159-1.035-2.159-2.464,0-1.685.729-2.327,2.414-2.327h1.988v-.87c0-.917-.255-1.242-1.582-1.242a11.568,11.568,0,0,0-2.3.248l-.255-1.582a10.8,10.8,0,0,1,2.836-.414c2.6,0,3.364.917,3.364,2.992ZM46.8,262.7H45.257c-.681,0-.87.188-.87.816s.188.828.828.828a3.24,3.24,0,0,0,1.571-.429Z" transform="translate(-33.614 -204.078)"/>
          <path id="Shape-4" data-name="Shape" d="M79.64,262.845v-2.263c0-2.226.967-3.182,3.569-3.182a7.134,7.134,0,0,1,2.025.308l-.255,1.7a7.561,7.561,0,0,0-1.718-.222c-1.188,0-1.544.356-1.544,1.377v2.3c0,1.021.356,1.377,1.544,1.377a7.022,7.022,0,0,0,1.718-.222l.255,1.7a6.832,6.832,0,0,1-2.025.308C80.613,266.025,79.64,265.069,79.64,262.845Z" transform="translate(-63.152 -204.109)"/>
          <path id="Shape-5" data-name="Shape" d="M113,252.444V240.782l2.07-.292v11.952Zm7.039-8.281-2.431,4.1,2.532,4.18h-2.277l-2.5-4.18,2.366-4.1Z" transform="translate(-89.605 -190.7)"/>
          <path id="Shape-6" data-name="Shape" d="M153.725,264.363a8.673,8.673,0,0,0,2.534-.381l.325,1.567a8.891,8.891,0,0,1-3.045.54c-2.6,0-3.5-1.209-3.5-3.2v-2.2c0-1.749.783-3.24,3.435-3.24s3.24,1.544,3.24,3.333v1.766H152.1v.426C152.1,263.982,152.462,264.363,153.725,264.363Zm-1.623-3.486h2.636v-.414c0-.783-.238-1.329-1.259-1.329a1.2,1.2,0,0,0-1.377,1.329Z" transform="translate(-118.977 -204.149)"/>
          <path id="Shape-7" data-name="Shape" d="M192.733,259.37a16.231,16.231,0,0,0-2.193,1.209v5.335h-2.07v-8.281h1.749l.135.917a9.278,9.278,0,0,1,2.159-1.07Z" transform="translate(-149.45 -204.173)"/>
          <path id="Shape-8" data-name="Shape" d="M42.81,24.68l13.55,7.83V61.379L42.81,53.553Z" transform="translate(-33.947 -19.57)" fill="#1daeff"/>
          <path id="Shape-9" data-name="Shape" d="M84.248,8.488,69.52,0V5.892l10.014,5.785V29.353l4.714,2.691c2.917,1.685,5.3.675,5.3-2.242V16.85C89.553,13.933,87.166,10.17,84.248,8.488Z" transform="translate(-55.127)" fill="#1d94dd"/>
        </g>
      </g>
    </g>
  </g>
</svg>
