<svg width="21" height="20" viewBox="0 0 21 20" fill="none" xmlns="http://www.w3.org/2000/svg">
<path d="M18.3571 0.714355H2.64285C2.26397 0.714355 1.90061 0.864865 1.6327 1.13277C1.36479 1.40068 1.21428 1.76405 1.21428 2.14293V10.7144C1.21428 11.0932 1.36479 11.4566 1.6327 11.7245C1.90061 11.9924 2.26397 12.1429 2.64285 12.1429H18.3571C18.736 12.1429 19.0994 11.9924 19.3673 11.7245C19.6352 11.4566 19.7857 11.0932 19.7857 10.7144V2.14293C19.7857 1.76405 19.6352 1.40068 19.3673 1.13277C19.0994 0.864865 18.736 0.714355 18.3571 0.714355Z" fill="#ECF3FF"/>
<path d="M18.3571 0.714355H2.64285C2.26397 0.714355 1.90061 0.864865 1.6327 1.13277C1.36479 1.40068 1.21428 1.76405 1.21428 2.14293V10.7144C1.21428 11.0932 1.36479 11.4566 1.6327 11.7245C1.90061 11.9924 2.26397 12.1429 2.64285 12.1429H18.3571C18.736 12.1429 19.0994 11.9924 19.3673 11.7245C19.6352 11.4566 19.7857 11.0932 19.7857 10.7144V2.14293C19.7857 1.76405 19.6352 1.40068 19.3673 1.13277C19.0994 0.864865 18.736 0.714355 18.3571 0.714355Z" stroke="#1163FB" stroke-width="1.5" stroke-linecap="round" stroke-linejoin="round"/>
<path d="M10.5 16.4287V19.2859" stroke="#1163FB" stroke-width="1.5" stroke-linecap="round" stroke-linejoin="round"/>
<path d="M14.0714 15V17.8571" stroke="#1163FB" stroke-width="1.5" stroke-linecap="round" stroke-linejoin="round"/>
<path d="M6.92856 15V17.8571" stroke="#1163FB" stroke-width="1.5" stroke-linecap="round" stroke-linejoin="round"/>
<path d="M4.42857 6.78557C4.33385 6.78557 4.24301 6.74795 4.17603 6.68097C4.10905 6.61399 4.07143 6.52315 4.07143 6.42843C4.07143 6.33371 4.10905 6.24287 4.17603 6.17589C4.24301 6.10892 4.33385 6.07129 4.42857 6.07129" stroke="#1163FB" stroke-width="1.5" stroke-linecap="round" stroke-linejoin="round"/>
<path d="M4.42857 6.78557C4.52329 6.78557 4.61413 6.74795 4.68111 6.68097C4.74809 6.61399 4.78572 6.52315 4.78572 6.42843C4.78572 6.33371 4.74809 6.24287 4.68111 6.17589C4.61413 6.10892 4.52329 6.07129 4.42857 6.07129" stroke="#1163FB" stroke-width="1.5" stroke-linecap="round" stroke-linejoin="round"/>
<path d="M16.5714 6.78557C16.4767 6.78557 16.3859 6.74795 16.3189 6.68097C16.2519 6.61399 16.2143 6.52315 16.2143 6.42843C16.2143 6.33371 16.2519 6.24287 16.3189 6.17589C16.3859 6.10892 16.4767 6.07129 16.5714 6.07129" stroke="#1163FB" stroke-width="1.5" stroke-linecap="round" stroke-linejoin="round"/>
<path d="M16.5714 6.78557C16.6661 6.78557 16.757 6.74795 16.824 6.68097C16.8909 6.61399 16.9286 6.52315 16.9286 6.42843C16.9286 6.33371 16.8909 6.24287 16.824 6.17589C16.757 6.10892 16.6661 6.07129 16.5714 6.07129" stroke="#1163FB" stroke-width="1.5" stroke-linecap="round" stroke-linejoin="round"/>
<path d="M12.02 4.84165C11.9381 4.60931 11.7861 4.40813 11.5849 4.26586C11.3838 4.12359 11.1435 4.04724 10.8971 4.04736H9.97571C9.71439 4.04829 9.46257 4.14546 9.26835 4.32031C9.07414 4.49515 8.95115 4.73542 8.92287 4.99521C8.89459 5.255 8.96301 5.5161 9.11506 5.72863C9.26711 5.94117 9.49213 6.09024 9.74714 6.14736L11.1514 6.45594C11.4374 6.5197 11.6898 6.68658 11.8605 6.9247C12.0312 7.16281 12.1081 7.45547 12.0767 7.74674C12.0452 8.03802 11.9075 8.30749 11.6899 8.50367C11.4723 8.69985 11.1901 8.80899 10.8971 8.81022H10.1029C9.85654 8.81013 9.61632 8.73371 9.41524 8.59146C9.21415 8.44922 9.0621 8.24816 8.97999 8.01593" stroke="#1163FB" stroke-width="1.5" stroke-linecap="round" stroke-linejoin="round"/>
<path d="M10.5 4.04742V2.85742" stroke="#1163FB" stroke-width="1.5" stroke-linecap="round" stroke-linejoin="round"/>
<path d="M10.5 10.0001V8.81006" stroke="#1163FB" stroke-width="1.5" stroke-linecap="round" stroke-linejoin="round"/>
</svg>
