<svg width="38" height="34" viewBox="0 0 38 34" fill="none" xmlns="http://www.w3.org/2000/svg">
<path d="M27.6442 24.0091C27.874 22.3897 27.8081 22.1507 29.2291 22.4173H29.5907C30.7338 22.4608 31.8754 22.2989 32.9614 21.9393C34.7716 21.2559 35.8448 20.0402 34.0614 20.3474C29.9623 21.0307 29.7095 19.8878 29.7095 19.8878C34.0047 14.4786 35.8011 7.59255 34.2506 5.93863C30.0075 1.37447 22.6962 3.547 22.5606 3.60216H22.52C21.6163 3.44903 20.7017 3.3691 19.7852 3.36315C18.2734 3.28943 16.7741 3.67017 15.4807 4.45631C15.4807 4.45631 2.41332 -0.107854 3.02157 10.1971C3.14491 12.3904 6.73158 26.7784 10.9947 22.4334C12.5728 20.8484 14.0758 19.5224 14.0758 19.5224C14.8613 19.9627 15.7607 20.1577 16.6581 20.0823L16.7348 20.0279C16.7025 20.234 16.7025 20.4439 16.7348 20.65C15.6623 21.6681 15.9833 21.8527 13.8107 22.2587C11.6382 22.6647 12.8914 23.3381 13.7494 23.5227C14.7813 23.741 17.1653 24.0589 18.7916 22.1561L18.7303 22.3744C19.1609 22.6678 19.1333 24.4787 19.1946 25.7902C19.1842 26.8786 19.3432 27.962 19.6657 29.0015C19.9721 29.6849 20.349 31.5433 23.2317 31.0515C25.6432 30.6141 27.4879 29.9859 27.6587 24.1172" fill="#231F20"/>
<path d="M27.6442 24.0091C27.874 22.3897 27.8081 22.1507 29.2291 22.4173H29.5907C30.7338 22.4608 31.8754 22.2989 32.9614 21.9393C34.7716 21.2559 35.8448 20.0402 34.0614 20.3474C29.9623 21.0307 29.7095 19.8878 29.7095 19.8878C34.0047 14.4786 35.8011 7.59255 34.2506 5.93863C30.0075 1.37447 22.6962 3.547 22.5606 3.60216H22.52C21.6163 3.44903 20.7017 3.3691 19.7852 3.36315C18.2734 3.28943 16.7741 3.67017 15.4807 4.45631C15.4807 4.45631 2.41332 -0.107854 3.02157 10.1971C3.14491 12.3904 6.73158 26.7784 10.9947 22.4334C12.5728 20.8484 14.0758 19.5223 14.0758 19.5223C14.8613 19.9627 15.7607 20.1577 16.6581 20.0823L16.7348 20.0279C16.7025 20.234 16.7025 20.4439 16.7348 20.65C15.6623 21.6681 15.9833 21.8527 13.8107 22.2587C11.6382 22.6647 12.8914 23.3381 13.7494 23.5227C14.7813 23.741 17.1653 24.0589 18.7916 22.1561L18.7303 22.3744C19.1609 22.6678 19.1333 24.4787 19.1946 25.7902C19.1842 26.8786 19.3432 27.962 19.6657 29.0015C19.9721 29.6849 20.349 31.5433 23.2317 31.0515C25.6432 30.6141 27.4879 29.9859 27.6587 24.1172" stroke="#231F20" stroke-width="4.11"/>
<path d="M34.0522 20.3682C29.9531 21.0515 29.7003 19.9085 29.7003 19.9085C33.9978 14.4979 35.7942 7.61103 34.2437 5.95788C30.0143 1.37533 22.6962 3.54786 22.5606 3.60225H22.52C21.6163 3.44913 20.7017 3.3692 19.7852 3.36324C18.2734 3.28952 16.7741 3.67027 15.4807 4.45641C15.4807 4.45641 2.41332 -0.107758 3.02157 10.1972C3.14491 12.3905 6.72469 26.7785 10.9947 22.4335C12.5728 20.8485 14.0758 19.5224 14.0758 19.5224C14.8613 19.9628 15.7607 20.1578 16.6581 20.0824L16.7348 20.028C16.7031 20.2342 16.7031 20.4439 16.7348 20.6501C15.6623 21.6682 15.9833 21.8528 13.8107 22.2588C11.6382 22.6648 12.8914 23.3382 13.7494 23.5228C14.7813 23.7411 17.1653 24.059 18.7916 22.1561L18.7303 22.3745C19.1609 22.6679 19.4611 24.2735 19.4137 25.7359C19.2759 26.8235 19.3619 27.9278 19.6665 28.9809C20.0012 29.7669 20.3498 31.5227 23.2324 31.0309C25.644 30.5935 26.8942 29.4597 27.0719 27.5599C27.1953 26.1933 27.4749 26.4108 27.4956 25.2097L27.7208 24.6428C27.9805 22.8188 27.7621 22.2312 29.2529 22.5047H29.6152C30.7583 22.5482 31.9 22.3863 32.9859 22.0267C34.7961 21.3434 35.8693 20.1276 34.0859 20.4348L34.0522 20.3682Z" fill="#326690"/>
<path d="M18.9527 21.4466C18.8432 24.8624 18.9527 28.2783 19.3763 29.0987C19.8 29.9191 20.6059 31.5447 23.4755 31.0253C25.8871 30.5879 26.7696 29.7407 27.1442 27.8623C27.4176 26.4956 27.9638 22.6531 28.032 21.871M15.4894 4.36656C15.4894 4.36656 2.40589 -0.149345 3.02103 10.1595C3.16122 12.3527 6.72338 26.7408 10.9934 22.3888C12.5508 20.7969 13.9588 19.5192 13.9588 19.5192M22.5601 3.55301C22.1089 3.68247 29.8376 1.16214 34.2225 5.91706C35.773 7.59625 33.9766 14.464 29.679 19.8677" stroke="white" stroke-width="1.37" stroke-linecap="round" stroke-linejoin="round"/>
<path d="M29.6725 19.8689C29.6725 19.8689 29.946 21.0372 34.0245 20.3286C35.8078 20.0145 34.7078 21.2034 32.9244 21.9204C31.4421 22.5011 28.1419 22.6512 28.0531 21.8438C27.9098 19.7938 29.802 20.3952 29.6725 19.8697C29.543 19.3442 28.7027 18.9405 28.1404 17.8197C27.5781 16.699 21.4397 9.08131 29.8632 10.2289C30.1697 10.1745 27.6631 3.43777 19.7789 3.32822C11.8946 3.21868 12.1543 11.525 12.1543 11.525" stroke="white" stroke-width="1.37" stroke-linecap="round" stroke-linejoin="bevel"/>
<path d="M16.7466 20.5867C15.6465 21.6255 15.9675 21.8124 13.7751 22.1955C11.5826 22.5785 12.8558 23.2748 13.7138 23.4595C14.7457 23.6778 17.1296 23.9957 18.756 22.0928C19.2478 21.5121 18.756 20.576 18.0726 20.337C17.8521 20.2319 17.6033 20.2018 17.3641 20.2512C17.1248 20.3005 16.9083 20.4267 16.7474 20.6105L16.7466 20.5867Z" stroke="white" stroke-width="1.37" stroke-linejoin="round"/>
<path d="M16.6721 20.5657C16.6747 19.7933 16.8848 19.0358 17.2803 18.3725C17.8403 17.0947 19.1319 15.8177 18.1 11.7591C17.3278 8.73929 12.1562 11.1309 12.1562 11.5408C12.282 12.8788 12.2522 14.2268 12.0673 15.558C11.6506 18.0928 13.9664 20.2309 16.6376 20.0126" stroke="white" stroke-width="1.37" stroke-linecap="round" stroke-linejoin="round"/>
<path d="M15.4424 11.4794C15.4996 11.6304 15.5975 11.7627 15.7253 11.8616C15.8531 11.9604 16.0057 12.0219 16.1663 12.0393C16.3245 12.0634 16.4863 12.0398 16.631 11.9716C16.7758 11.9034 16.8969 11.7936 16.9791 11.6563C16.9791 11.52 16.6788 11.3629 16.2552 11.3147C15.8315 11.2664 15.4424 11.3223 15.4424 11.4794Z" fill="white" stroke="white" stroke-width="0.46"/>
<path d="M28.3474 11.1991C28.2902 11.3502 28.1923 11.4825 28.0645 11.5813C27.9367 11.6802 27.7841 11.7417 27.6235 11.7591C27.4631 11.7861 27.2984 11.7639 27.1508 11.6956C27.0033 11.6272 26.8799 11.5158 26.7969 11.3761C26.7969 11.2328 27.0972 11.0827 27.5208 11.0344C27.9444 10.9861 28.3068 11.0344 28.3336 11.1983L28.3474 11.1991Z" fill="white" stroke="white" stroke-width="0.23"/>
<path d="M29.8636 10.229C29.9317 11.3291 29.5832 12.0737 29.5426 13.2419C29.4744 14.9433 30.4994 16.883 28.9619 18.8341" stroke="white" stroke-width="1.37" stroke-linecap="round" stroke-linejoin="round"/>
</svg>
