<svg xmlns="http://www.w3.org/2000/svg" width="73.121" height="73.12" viewBox="0 0 73.121 73.12">
  <g id="prometheus-seeklogo.com" transform="translate(0 -0.667)">
    <path id="Path_78760" data-name="Path 78760" d="M36.561.667a36.56,36.56,0,1,0,36.56,36.559A36.56,36.56,0,0,0,36.561.667Zm0,68.425c-5.745,0-10.4-3.838-10.4-8.57h20.8c0,4.732-4.658,8.57-10.4,8.57ZM53.742,57.684H19.378V51.453H53.743v6.231Zm-.123-9.438H19.476c-.114-.131-.23-.26-.339-.393-3.518-4.271-4.346-6.5-5.151-8.773-.014-.075,4.265.874,7.3,1.557,0,0,1.561.361,3.844.777a14.267,14.267,0,0,1-3.493-9.173c0-7.329,5.621-13.733,3.593-18.909,1.974.161,4.085,4.165,4.227,10.427,2.1-2.9,2.976-8.195,2.976-11.441,0-3.361,2.215-7.266,4.43-7.4-1.975,3.255.512,6.045,2.722,12.968.829,2.6.723,6.976,1.363,9.751.212-5.763,1.2-14.173,4.86-17.076-1.613,3.656.239,8.231,1.505,10.431,2.043,3.549,3.282,6.237,3.282,11.322a14.142,14.142,0,0,1-3.382,9.128c2.414-.453,4.081-.861,4.081-.861l7.84-1.53a22.229,22.229,0,0,1-5.516,9.2Z" fill="#da4e31"/>
  </g>
</svg>
