<svg id="rabbitmq-seeklogo.com_2" data-name="rabbitmq-seeklogo.com 2" xmlns="http://www.w3.org/2000/svg" width="39.349" height="41.62" viewBox="0 0 39.349 41.62">
  <path id="Path_78488" data-name="Path 78488" d="M37.726,16.648H24.647a1.189,1.189,0,0,1-1.189-1.189V1.828A1.828,1.828,0,0,0,21.631,0H16.962a1.828,1.828,0,0,0-1.827,1.828V15.376a1.277,1.277,0,0,1-1.271,1.277l-4.286.02a1.277,1.277,0,0,1-1.283-1.28L8.32,1.831A1.827,1.827,0,0,0,6.493,0H1.827A1.828,1.828,0,0,0,0,1.828V40a1.623,1.623,0,0,0,1.622,1.623h36.1A1.623,1.623,0,0,0,39.349,40V18.271a1.623,1.623,0,0,0-1.623-1.623ZM31.593,30.978a2.128,2.128,0,0,1-2.128,2.128h-3.69a2.128,2.128,0,0,1-2.128-2.128v-3.69a2.128,2.128,0,0,1,2.128-2.128h3.69a2.128,2.128,0,0,1,2.128,2.128v3.69Z" fill="#f60"/>
</svg>
