<svg width="24" height="24" viewBox="0 0 24 24" fill="none" xmlns="http://www.w3.org/2000/svg">
<mask id="mask0_15316_321" style="mask-type:luminance" maskUnits="userSpaceOnUse" x="0" y="0" width="24" height="24">
<path d="M0.578125 0.47998H23.6181V23.52H0.578125V0.47998Z" fill="white"/>
</mask>
<g mask="url(#mask0_15316_321)">
<path d="M9.69886 9.11998H13.5389C14.8617 9.11998 15.9389 8.04382 15.9389 6.71998V2.87998C15.9389 1.55614 14.8617 0.47998 13.5389 0.47998H9.69886C8.37595 0.47998 7.29883 1.55614 7.29883 2.87998V6.71998C7.29883 8.04382 8.37595 9.11998 9.69886 9.11998Z" fill="#4E0CAA"/>
<path d="M12.7708 17.7598H10.4668C9.77846 17.7598 9.21875 18.3194 9.21875 19.0078V21.3118C9.21875 22.0001 9.77846 22.5598 10.4668 22.5598H12.7708C13.4591 22.5598 14.0188 22.0001 14.0188 21.3118V19.0078C14.0188 18.3194 13.4591 17.7598 12.7708 17.7598Z" fill="#4E0CAA"/>
<path d="M21.4094 17.7598H19.1054C18.4171 17.7598 17.8574 18.3194 17.8574 19.0078V21.3118C17.8574 22.0001 18.4171 22.5598 19.1054 22.5598H21.4094C22.0977 22.5598 22.6574 22.0001 22.6574 21.3118V19.0078C22.6574 18.3194 22.0977 17.7598 21.4094 17.7598Z" fill="#4E0CAA"/>
<path d="M4.13012 17.7598H1.82612C1.1378 17.7598 0.578125 18.3194 0.578125 19.0078V21.3118C0.578125 22.0001 1.1378 22.5598 1.82612 22.5598H4.13012C4.81844 22.5598 5.37812 22.0001 5.37812 21.3118V19.0078C5.37812 18.3194 4.81844 17.7598 4.13012 17.7598Z" fill="#4E0CAA"/>
<path d="M19.7781 16.3201C19.7781 16.585 19.9931 16.8001 20.2581 16.8001C20.523 16.8001 20.7381 16.585 20.7381 16.3201C20.7381 14.4673 19.2309 12.9601 17.3781 12.9601H12.0981V10.5601C12.0981 10.2951 11.883 10.0801 11.6181 10.0801C11.3531 10.0801 11.1381 10.2951 11.1381 10.5601V12.9601H5.85805C4.00525 12.9601 2.49805 14.4673 2.49805 16.3201C2.49805 16.585 2.71309 16.8001 2.97805 16.8001C3.24301 16.8001 3.45805 16.585 3.45805 16.3201C3.45805 14.9962 4.53517 13.9201 5.85805 13.9201H11.1381V16.3201C11.1381 16.585 11.3531 16.8001 11.6181 16.8001C11.883 16.8001 12.0981 16.585 12.0981 16.3201V13.9201H17.3781C18.701 13.9201 19.7781 14.9962 19.7781 16.3201Z" fill="#4E0CAA"/>
</g>
</svg>
