<svg xmlns="http://www.w3.org/2000/svg" width="17.068" height="21.106" viewBox="0 0 17.068 21.106">
  <g id="Real_Estate_" data-name="Real Estate " transform="translate(-1153.998 -1002.002)">
    <path id="Path_2494" data-name="Path 2494" d="M454.694,132.813h1.039a.475.475,0,0,0,.48-.475V120.723l.254.239a.8.8,0,0,0,1.165-.067.883.883,0,0,0-.064-1.214l-7.44-6.953a1.138,1.138,0,0,0-1.568,0l-7.506,6.953a.883.883,0,0,0-.069,1.214.8.8,0,0,0,1.165.072l.1-.093v11.7l.007.186.011.32a.446.446,0,0,0,.438.441h13.069a.447.447,0,0,0,.438-.456v-1.448a.475.475,0,0,0-.475-.474H454.8c-.262,0-.236.213-.236.475H444.135v-12.2l5.217-4.625,5.021,4.464v13.088C454.374,132.6,454.435,132.81,454.694,132.813Z" transform="translate(713.222 889.587)" fill="#fff"/>
    <g id="project_estimation" data-name="project estimation" transform="translate(1160.609 1010.237)">
      <path id="Path_1705" data-name="Path 1705" d="M1599.423,966.6h1.593a.668.668,0,1,0,0-1.333h-.269V964.3a.668.668,0,0,0-1.333,0v.964c-.87,0-1.524.506-1.524,1.173v1.336c0,.668.659,1.173,1.533,1.173h.726a.706.706,0,0,1,.2.027v.845a.712.712,0,0,1-.2.026h-1.593a.668.668,0,1,0,0,1.333h.858v1.072a.668.668,0,0,0,1.333,0V971.09a1.185,1.185,0,0,0,.935-1.086v-1.219c0-.668-.659-1.173-1.533-1.173h-.726a.717.717,0,0,1-.2-.026v-.962a.719.719,0,0,1,.2-.024Z" transform="translate(-1597.849 -963.673)" fill="#fff"/>
    </g>
  </g>
</svg>
