<svg xmlns="http://www.w3.org/2000/svg" width="23.218" height="21.59" viewBox="0 0 23.218 21.59">
  <g id="Group_271" data-name="Group 271" transform="translate(-2569.997 -645.295)">
    <g id="Cross_platform_functionality" data-name="Cross platform functionality" transform="translate(2569.997 645.296)">
      <path id="Path_1778" data-name="Path 1778" d="M1709.6,1108.639h-10.729a.956.956,0,0,0-.956.957v6.839a.956.956,0,0,0,.956.956H1709.6a.956.956,0,0,0,.957-.956V1109.6a.957.957,0,0,0-.957-.957Zm-.957,6.839h-8.816v-4.927h8.816Z" transform="translate(-1697.911 -1099.006)" fill="#fff"/>
      <path id="Path_1779" data-name="Path 1779" d="M1712.812,1145.407h-6.854a.956.956,0,0,0,0,1.912h6.854a.956.956,0,0,0,0-1.912Z" transform="translate(-1703.065 -1125.729)" fill="#fff"/>
      <path id="Path_1780" data-name="Path 1780" d="M1760.927,1109.15h-5.987a.956.956,0,0,0-.957.956v9.905a.956.956,0,0,0,.957.956h5.987a.956.956,0,0,0,.956-.956v-9.905A.956.956,0,0,0,1760.927,1109.15Zm-.956,9.905H1755.9v-8h4.074Z" transform="translate(-1738.665 -1099.378)" fill="#fff"/>
      <path id="Path_1781" data-name="Path 1781" d="M1740.307,1080.507a.956.956,0,0,0,1.641-.5l.641-3.836a.956.956,0,0,0-1.886-.315l-.323,1.93-3.843-4.1a.957.957,0,1,0-1.4,1.308Z" transform="translate(-1724.783 -1073.384)" fill="#fff"/>
      <path id="Path_1782" data-name="Path 1782" d="M1721.816,1078.656a.956.956,0,0,0-1.641.5l-.641,3.837a.956.956,0,1,0,1.887.315l.323-1.93,3.843,4.1a.956.956,0,0,0,1.4-1.308Z" transform="translate(-1713.617 -1076.994)" fill="#fff"/>
    </g>
  </g>
</svg>
