<svg width="20" height="20" viewBox="0 0 20 20" fill="none" xmlns="http://www.w3.org/2000/svg">
<g clip-path="url(#clip0_12181_470)">
<path d="M15 2.85721V7.85721H19.2857V2.85721C19.2857 2.2889 19.06 1.74384 18.6581 1.34198C18.2563 0.94012 17.7111 0.714355 17.1429 0.714355C16.5746 0.714355 16.0294 0.94012 15.6276 1.34198C15.2257 1.74384 15 2.2889 15 2.85721Z" fill="white"/>
<path d="M3.57144 0.714355H17.1429C16.5746 0.714355 16.0294 0.94012 15.6276 1.34198C15.2257 1.74384 15 2.2889 15 2.85721V19.2858L11.4286 17.1429L7.85715 19.2858L4.28572 17.1429L0.714294 19.2858V3.5715C0.714294 2.81374 1.01531 2.08701 1.55114 1.5512C2.08695 1.01538 2.81368 0.714355 3.57144 0.714355Z" fill="#ECF3FF"/>
<path d="M17.1429 0.714355H3.57144C2.81368 0.714355 2.08695 1.01538 1.55114 1.5512C1.01531 2.08701 0.714294 2.81374 0.714294 3.5715V19.2858L4.28572 17.1429L7.85715 19.2858L11.4286 17.1429L15 19.2858V2.85721C15 2.2889 15.2257 1.74384 15.6276 1.34198C16.0294 0.94012 16.5746 0.714355 17.1429 0.714355ZM17.1429 0.714355C17.7112 0.714355 18.2563 0.94012 18.6582 1.34198C19.06 1.74384 19.2857 2.2889 19.2857 2.85721V7.85721H15" stroke="#1163FB" stroke-width="1.5" stroke-linecap="round" stroke-linejoin="round"/>
<path d="M3.92859 10.0001L6.78573 12.143L11.7857 6.42871" stroke="#1163FB" stroke-width="1.5" stroke-linecap="round" stroke-linejoin="round"/>
</g>
<defs>
<clipPath id="clip0_12181_470">
<rect width="20" height="20" fill="white"/>
</clipPath>
</defs>
</svg>
