<svg xmlns="http://www.w3.org/2000/svg" width="20.929" height="24.228" viewBox="0 0 20.929 24.228">
  <g id="SaaS" transform="translate(0.004 -0.001)">
    <path id="Path_1492" data-name="Path 1492" d="M2331.183,628.175a.814.814,0,0,0-.807-.821h-4.334v-8.266h12.321v1.237a.807.807,0,1,0,1.613,0v-6.343a.814.814,0,0,0-.806-.821h-13.936a.814.814,0,0,0-.806.821v14.193a.815.815,0,0,0,.807.821h5.14a.814.814,0,0,0,.808-.821Zm7.181-13.371v2.642h-12.321V614.8Z" transform="translate(-2324.432 -613.16)" fill="#fff"/>
    <path id="Path_1493" data-name="Path 1493" d="M2334.333,623.842h.1a.821.821,0,1,0,0-1.642h-.1a.821.821,0,0,0,0,1.642Z" transform="translate(-2331.429 -620.079)" fill="#fff"/>
    <path id="Path_1494" data-name="Path 1494" d="M2343.333,623.842h.1a.821.821,0,0,0,0-1.642h-.1a.821.821,0,1,0,0,1.642Z" transform="translate(-2338.356 -620.079)" fill="#fff"/>
    <path id="Path_1495" data-name="Path 1495" d="M2352.332,623.842h.1a.821.821,0,1,0,0-1.642h-.1a.821.821,0,0,0,0,1.642Z" transform="translate(-2345.281 -620.079)" fill="#fff"/>
    <path id="Path_1496" data-name="Path 1496" d="M2376.045,676.109a2.341,2.341,0,1,0,2.3,2.34,2.341,2.341,0,0,0-2.3-2.34Zm0,3.853a1.513,1.513,0,1,1,1.488-1.513A1.513,1.513,0,0,1,2376.045,679.962Z" transform="translate(-2363.685 -662.676)" fill="#fff"/>
    <path id="Path_1497" data-name="Path 1497" d="M2363.413,651.278h-2.958a4.965,4.965,0,0,0-.89-2.122l2.3-2.041a.832.832,0,0,0,.078-1.159.8.8,0,0,0-1.138-.079l-2.4,2.134a4.776,4.776,0,0,0-1.923-.784v-2.972a.807.807,0,1,0-1.613,0v2.972a4.773,4.773,0,0,0-1.885.758l-1.79-1.81a.8.8,0,0,0-1.14,0,.832.832,0,0,0,0,1.162l1.754,1.773a4.984,4.984,0,0,0-.242,5.617l-2.313,1.957a.831.831,0,0,0-.1,1.157.8.8,0,0,0,1.136.107l2.356-1.993a4.8,4.8,0,0,0,2.225,1.014v2.755a.807.807,0,1,0,1.613,0v-2.756a4.774,4.774,0,0,0,1.8-.708l1.957,1.683a.8.8,0,0,0,1.136-.1.832.832,0,0,0-.1-1.158l-1.793-1.539a4.962,4.962,0,0,0,.969-2.229h2.958a.821.821,0,1,0,0-1.642Zm-7.742,4.125a3.3,3.3,0,1,1,3.244-3.3,3.3,3.3,0,0,1-3.244,3.3Z" transform="translate(-2343.31 -636.326)" fill="#fff"/>
  </g>
</svg>
