<svg id="saltstack" xmlns="http://www.w3.org/2000/svg" width="178.835" height="26.382" viewBox="0 0 178.835 26.382">
  <path id="Path_14732" data-name="Path 14732" d="M5.812.37c0,1.115.03,2.224.036,3.332v2.45a1.824,1.824,0,0,1-.292.054H.191A1.341,1.341,0,0,1,0,6.17V.37Z" transform="translate(0 -0.37)"/>
  <path id="Path_14733" data-name="Path 14733" d="M259.066,6.386h4.513V15.4c.739-.781,1.395-1.466,2.039-2.158l6.206-6.6a.8.8,0,0,1,.471-.262h5.544a.883.883,0,0,1,.179.048l-9.073,8.942,9.538,13.013a2.982,2.982,0,0,1-.322.042h-5.276a.6.6,0,0,1-.536-.3q-3.171-4.5-6.361-8.989c-.06-.083-.119-.167-.227-.3-.483.477-.918.984-1.425,1.4a2.235,2.235,0,0,0-.787,1.985c.054,1.884,0,3.773,0,5.663v.507H259.03Z" transform="translate(-104.618 -2.797)"/>
  <path id="Path_14734" data-name="Path 14734" d="M186.14,28.373l1.449-4.066q3.13-8.739,6.247-17.478a.6.6,0,0,1,.686-.495c1.46.036,2.921,0,4.381,0a.417.417,0,0,1,.471.334l7.547,21.323c.042.107.066.221.113.382H202.48a.488.488,0,0,1-.554-.411c-.387-1.264-.8-2.516-1.192-3.779a.435.435,0,0,0-.5-.364H192.9a.459.459,0,0,0-.525.393c-.411,1.282-.84,2.563-1.276,3.839-.042.125-.191.3-.292.3C189.246,28.379,187.72,28.373,186.14,28.373Zm13.216-8.346-2.73-8.465h-.089c-.93,2.808-1.854,5.615-2.8,8.453Z" transform="translate(-75.179 -2.776)"/>
  <path id="Path_14735" data-name="Path 14735" d="M37.14,28.363c.423-1.192.823-2.307,1.192-3.434q3.279-9.073,6.516-18.146a.548.548,0,0,1,.632-.441h4.334a.5.5,0,0,1,.6.387q3.732,10.617,7.511,21.222c.042.119.072.25.119.405h-5l-.852-2.635c-.173-.537-.328-1.079-.531-1.6a.519.519,0,0,0-.37-.268H43.781c-.274,0-.352.131-.423.346-.411,1.27-.835,2.539-1.252,3.8-.042.125-.089.25-.137.382Zm13.21-8.346c-.924-2.861-1.824-5.669-2.766-8.6l-2.843,8.6Z" transform="translate(-15 -2.778)"/>
  <path id="Path_14736" data-name="Path 14736" d="M241.275,20.385a10,10,0,0,1-1.669,4.471,8.548,8.548,0,0,1-6.706,3.791,11.058,11.058,0,0,1-5-.656,8.662,8.662,0,0,1-5.013-5.1,15.5,15.5,0,0,1-.167-11.112c1.455-4.018,4.954-6.367,9.657-6.128a9.237,9.237,0,0,1,6.176,2.313,8.244,8.244,0,0,1,2.635,5.222c-.435,0-.829.048-1.222.054-1.025,0-2.051.036-3.082.066-.215,0-.382,0-.411-.28a1.243,1.243,0,0,0-.077-.209,4.6,4.6,0,0,0-6.11-2.981,4.381,4.381,0,0,0-2.8,2.581,11.588,11.588,0,0,0,.06,9.538,4.829,4.829,0,0,0,6.009,2.563,4,4,0,0,0,2.51-2.188,8.772,8.772,0,0,0,.387-.948c.3-.888.3-.888,1.264-.894s2.027-.036,3.04-.06Z" transform="translate(-89.569 -2.495)"/>
  <path id="Path_14737" data-name="Path 14737" d="M126.95,25.748h4.018c.256,0,.382.042.441.34a3.589,3.589,0,0,0,3.63,3.225,9.186,9.186,0,0,0,3.714-.286A2.581,2.581,0,0,0,140.727,27a1.89,1.89,0,0,0-1.133-2.307,23.469,23.469,0,0,0-3.225-1,43.129,43.129,0,0,1-5.723-1.544,5.326,5.326,0,0,1-3.291-5.878h4.209a2.144,2.144,0,0,0,1.878,2.253c1.985.525,3.988.984,5.961,1.508a17.5,17.5,0,0,1,2.6.846,5.085,5.085,0,0,1,3.2,4.882,6.5,6.5,0,0,1-4.536,6.611,13.007,13.007,0,0,1-9.681-.274,6.438,6.438,0,0,1-4.1-6.152A1.4,1.4,0,0,1,126.95,25.748Z" transform="translate(-51.243 -6.792)"/>
  <path id="Path_14738" data-name="Path 14738" d="M6.086,15.94h4.173c0,.048.06.083.054.125a1.914,1.914,0,0,0,1.466,1.991c1.073.358,2.17.626,3.267.912,1.55.405,3.124.751,4.668,1.192a6.116,6.116,0,0,1,2.849,1.633,5.711,5.711,0,0,1,1.4,4.316,6.653,6.653,0,0,1-4.948,6.134,13.264,13.264,0,0,1-9.3-.459,6.372,6.372,0,0,1-4.03-5.83,2.8,2.8,0,0,1,0-.316,1.466,1.466,0,0,1,.042-.2H9.717c.209,0,.382,0,.417.274.346,2.432,1.92,3.124,3.887,3.3a8.447,8.447,0,0,0,3.577-.346,2.545,2.545,0,0,0,1.9-2.73,1.788,1.788,0,0,0-1.156-1.562,33.068,33.068,0,0,0-3.356-1.037,40.119,40.119,0,0,1-5.633-1.526C6.73,20.745,5.872,18.36,6.086,15.94Z" transform="translate(-2.295 -6.658)"/>
  <path id="Path_14739" data-name="Path 14739" d="M107.741,28.4H103.1V10.342H96.48V6.42H114.3v3.869h-6.557Z" transform="translate(-38.967 -2.813)"/>
  <path id="Path_14740" data-name="Path 14740" d="M159.62,10.334V6.4h17.824v3.869h-6.557v18.1h-4.68V10.334Z" transform="translate(-64.468 -2.805)"/>
  <path id="Path_14741" data-name="Path 14741" d="M75.79,6.39h4.554v18H91.361v3.976H75.79Z" transform="translate(-30.61 -2.801)"/>
  <path id="Path_14742" data-name="Path 14742" d="M27.276,12.484H22.889a1.747,1.747,0,0,1-.06-.221A3.4,3.4,0,0,0,19.6,9.229a6.79,6.79,0,0,0-3.964.441V5.6a12.1,12.1,0,0,1,3.2-.31,9.329,9.329,0,0,1,6.408,2.313A6.486,6.486,0,0,1,27.276,12.484Z" transform="translate(-6.317 -2.356)"/>
  <path id="Path_14743" data-name="Path 14743" d="M136.86,5.793c3.273-.6,6.414-.453,9.186,1.657a6.566,6.566,0,0,1,2.492,5.27h-4.071c-.191,0-.37.036-.405-.262a3.306,3.306,0,0,0-3.07-2.981,6.557,6.557,0,0,0-4.131.465Z" transform="translate(-55.275 -2.437)"/>
  <path id="Path_14744" data-name="Path 14744" d="M297.69,39.459A1.7,1.7,0,1,1,296,37.76a1.681,1.681,0,0,1,1.687,1.7Zm-1.711-1.4a1.425,1.425,0,0,0-1.4,1.389,1.449,1.449,0,0,0,1.413,1.431,1.472,1.472,0,0,0,1.413-1.4,1.443,1.443,0,0,0-1.425-1.419Z" transform="translate(-118.854 -15.471)"/>
  <path id="Path_14745" data-name="Path 14745" d="M296,38.892c.513.06,1.037-.191,1.365.31.227.34.054.65-.244.888l.393.769c-.346.161-.441-.054-.56-.28s-.173-.542-.6-.382l-.03.656-.1.089c-.083-.1-.227-.191-.232-.286C296,40.091,296,39.548,296,38.892Zm.382.232v.787a3.933,3.933,0,0,0,.632-.238.352.352,0,0,0,0-.31,3.934,3.934,0,0,0-.644-.238Z" transform="translate(-119.545 -15.924)"/>
</svg>
