<svg width="20" height="18" viewBox="0 0 20 18" fill="none" xmlns="http://www.w3.org/2000/svg">
<path d="M1.49428 7.30566H4.85285V16.2485H1.49428C1.40123 16.2485 1.30909 16.2302 1.22312 16.1946C1.13715 16.159 1.05904 16.1068 0.993241 16.041C0.927444 15.9752 0.875251 15.8971 0.839642 15.8111C0.804033 15.7251 0.785706 15.633 0.785706 15.5399V8.01424C0.785706 7.82631 0.860358 7.64608 0.993241 7.5132C1.12612 7.38032 1.30635 7.30566 1.49428 7.30566Z" fill="white"/>
<path d="M1.49428 7.30566H4.85285V16.2485H1.49428C1.40123 16.2485 1.30909 16.2302 1.22312 16.1946C1.13715 16.159 1.05904 16.1068 0.993241 16.041C0.927444 15.9752 0.875251 15.8971 0.839642 15.8111C0.804033 15.7251 0.785706 15.633 0.785706 15.5399V8.01424C0.785706 7.82631 0.860358 7.64608 0.993241 7.5132C1.12612 7.38032 1.30635 7.30566 1.49428 7.30566Z" stroke="#1163FB" stroke-width="1.5" stroke-linecap="round" stroke-linejoin="round"/>
<path d="M4.85284 7.30589L8.45284 1.55161C8.59235 1.32402 8.78847 1.13648 9.02207 1.00729C9.25567 0.878092 9.51877 0.811658 9.7857 0.814466C9.9957 0.807015 10.2051 0.841717 10.4014 0.916522C10.5978 0.991328 10.7772 1.10472 10.929 1.25C11.0808 1.39529 11.2019 1.56951 11.2853 1.7624C11.3686 1.95529 11.4125 2.16292 11.4143 2.37304V6.49732H17.6371C17.867 6.50485 18.0928 6.56095 18.2995 6.66195C18.5061 6.76295 18.6891 6.90656 18.8363 7.08333C18.9835 7.26009 19.0917 7.46602 19.1536 7.68757C19.2156 7.90912 19.2299 8.14126 19.1957 8.36875L18.0628 15.683C18.0141 16.0736 17.8245 16.4329 17.5297 16.6936C17.2348 16.9542 16.855 17.0983 16.4614 17.0988H7.16284C6.71999 17.1002 6.28427 16.9988 5.88856 16.8016L4.86713 16.2916" fill="#ECF3FF"/>
<path d="M4.85284 7.3059L8.45284 1.55161C8.59235 1.32402 8.78847 1.13648 9.02207 1.00729C9.25567 0.878092 9.51877 0.811659 9.7857 0.814466C9.99558 0.807018 10.2048 0.841675 10.4011 0.916392C10.5973 0.991109 10.7767 1.10437 10.9285 1.2495C11.0802 1.39464 11.2014 1.56869 11.2849 1.76141C11.3683 1.95413 11.4123 2.16161 11.4143 2.37161V6.4959H17.6371C17.8671 6.5032 18.093 6.55915 18.2998 6.66008C18.5066 6.76101 18.6896 6.90462 18.8369 7.08144C18.9841 7.25826 19.0923 7.46428 19.1541 7.68592C19.216 7.90757 19.2301 8.1398 19.1957 8.36732L18.0628 15.6802C18.0144 16.071 17.825 16.4306 17.5301 16.6916C17.2352 16.9525 16.8552 17.0968 16.4614 17.0973H7.16284C6.71999 17.0988 6.28427 16.9973 5.88856 16.8002L4.86713 16.2902" stroke="#1163FB" stroke-width="1.5" stroke-linecap="round" stroke-linejoin="round"/>
<path d="M4.85284 7.30566V16.2485" stroke="#1163FB" stroke-width="1.5" stroke-linecap="round" stroke-linejoin="round"/>
</svg>
