<svg xmlns="http://www.w3.org/2000/svg" width="19.499" height="20.18" viewBox="0 0 19.499 20.18">
  <g id="Group_990" data-name="Group 990" transform="translate(-1232.221 -612.175)">
    <path id="Path_1460" data-name="Path 1460" d="M1240.738,654.305a3.831,3.831,0,1,0-5.494.01,4.959,4.959,0,0,0-3.022,4.274.829.829,0,0,0,.813.836h.017a.833.833,0,0,0,.829-.81c.009-.318.2-3.114,4.111-3.137,3.949-.016,4.285,2.955,4.31,3.289a.829.829,0,0,0,.829.78h.052a.829.829,0,0,0,.776-.878A5.173,5.173,0,0,0,1240.738,654.305Zm-2.752-4.831a2.172,2.172,0,0,1,0,4.344h0a2.172,2.172,0,0,1,0-4.344Z" transform="translate(0 -27.192)" fill="#fff"/>
    <path id="Path_1461" data-name="Path 1461" d="M1269.88,613a.829.829,0,0,0-.829-.829h-12.2a.829.829,0,0,0-.829.829v6.051a.829.829,0,1,0,1.657,0v-5.221h10.54v9.81a.8.8,0,0,0,.008.08,3.94,3.94,0,0,1-1.663,2.194,4.66,4.66,0,0,0,.087-2.478c0-.019-.014-.035-.02-.053a.8.8,0,0,0-.031-.084c-.011-.024-.024-.045-.037-.068a.816.816,0,0,0-.044-.071.584.584,0,0,0-.049-.058c-.018-.019-.038-.043-.058-.063s-.034-.028-.049-.042a.883.883,0,0,0-.079-.057c-.015-.009-.03-.017-.046-.025a.863.863,0,0,0-.1-.049l-.041-.013a.8.8,0,0,0-.115-.029c-.013,0-.027,0-.04,0a.793.793,0,0,0-.1-.01h-3.982a.829.829,0,0,0,0,1.658h3.251a2.232,2.232,0,0,1-.283,1.236,1.626,1.626,0,0,1-1.152.673c-.413.076-1.381.253-1.357,1.1.005.188.095.808,1.024.926a3.409,3.409,0,0,0,.417.023c1.634,0,5.1-.886,6.081-4.322q.006-.233.032-.464Z" transform="translate(-18.16)" fill="#fff"/>
    <path id="Path_1462" data-name="Path 1462" d="M1270.057,626.957h4.339a.829.829,0,0,0,0-1.657h-4.339a.829.829,0,1,0,0,1.657Z" transform="translate(-28.235 -10.014)" fill="#fff"/>
    <path id="Path_1463" data-name="Path 1463" d="M1270.057,637.957h4.339a.829.829,0,0,0,0-1.657h-4.339a.829.829,0,1,0,0,1.658Z" transform="translate(-28.235 -18.407)" fill="#fff"/>
  </g>
</svg>
