<svg width="32" height="32" viewBox="0 0 32 32" fill="none" xmlns="http://www.w3.org/2000/svg">
<path d="M30.0002 6C30.0002 5.46957 29.7894 4.96086 29.4144 4.58579C29.0393 4.21071 28.5306 4 28.0002 4H13.4102L15.4102 6H30.0002Z" fill="white"/>
<path d="M14.29 7.71L10.59 4H4C3.46957 4 2.96086 4.21071 2.58579 4.58579C2.21071 4.96086 2 5.46957 2 6V26C2 26.5304 2.21071 27.0391 2.58579 27.4142C2.96086 27.7893 3.46957 28 4 28H28C28.5304 28 29.0391 27.7893 29.4142 27.4142C29.7893 27.0391 30 26.5304 30 26V8H15C14.8684 8.00076 14.7379 7.97554 14.6161 7.92577C14.4943 7.87601 14.3834 7.80268 14.29 7.71ZM5 8C4.73478 8 4.48043 7.89464 4.29289 7.70711C4.10536 7.51957 4 7.26522 4 7C4 6.73478 4.10536 6.48043 4.29289 6.29289C4.48043 6.10536 4.73478 6 5 6C5.26522 6 5.51957 6.10536 5.70711 6.29289C5.89464 6.48043 6 6.73478 6 7C6 7.26522 5.89464 7.51957 5.70711 7.70711C5.51957 7.89464 5.26522 8 5 8ZM8 7C8 6.73478 8.10536 6.48043 8.29289 6.29289C8.48043 6.10536 8.73478 6 9 6C9.19778 6 9.39112 6.05865 9.55557 6.16853C9.72002 6.27841 9.84819 6.43459 9.92388 6.61732C9.99957 6.80004 10.0194 7.00111 9.98079 7.19509C9.9422 7.38907 9.84696 7.56725 9.70711 7.70711C9.56725 7.84696 9.38907 7.9422 9.19509 7.98079C9.00111 8.01937 8.80004 7.99957 8.61732 7.92388C8.43459 7.84819 8.27841 7.72002 8.16853 7.55557C8.05865 7.39112 8 7.19778 8 7ZM12.69 19.29C12.7837 19.383 12.8581 19.4936 12.9089 19.6154C12.9597 19.7373 12.9858 19.868 12.9858 20C12.9858 20.132 12.9597 20.2627 12.9089 20.3846C12.8581 20.5064 12.7837 20.617 12.69 20.71C12.597 20.8037 12.4864 20.8781 12.3646 20.9289C12.2427 20.9797 12.112 21.0058 11.98 21.0058C11.848 21.0058 11.7173 20.9797 11.5954 20.9289C11.4736 20.8781 11.363 20.8037 11.27 20.71L9.27 18.71C9.17627 18.617 9.10188 18.5064 9.05111 18.3846C9.00034 18.2627 8.9742 18.132 8.9742 18C8.9742 17.868 9.00034 17.7373 9.05111 17.6154C9.10188 17.4936 9.17627 17.383 9.27 17.29L11.27 15.29C11.3632 15.1968 11.4739 15.1228 11.5958 15.0723C11.7176 15.0219 11.8481 14.9959 11.98 14.9959C12.1119 14.9959 12.2424 15.0219 12.3642 15.0723C12.4861 15.1228 12.5968 15.1968 12.69 15.29C12.7832 15.3832 12.8572 15.4939 12.9077 15.6158C12.9581 15.7376 12.9841 15.8681 12.9841 16C12.9841 16.1319 12.9581 16.2624 12.9077 16.3842C12.8572 16.5061 12.7832 16.6168 12.69 16.71L11.41 18L12.69 19.29ZM19.27 16.71C19.0817 16.5217 18.9759 16.2663 18.9759 16C18.9759 15.7337 19.0817 15.4783 19.27 15.29C19.4583 15.1017 19.7137 14.9959 19.98 14.9959C20.2463 14.9959 20.5017 15.1017 20.69 15.29L22.69 17.29C22.7837 17.383 22.8581 17.4936 22.9089 17.6154C22.9597 17.7373 22.9858 17.868 22.9858 18C22.9858 18.132 22.9597 18.2627 22.9089 18.3846C22.8581 18.5064 22.7837 18.617 22.69 18.71L20.69 20.71C20.597 20.8037 20.4864 20.8781 20.3646 20.9289C20.2427 20.9797 20.112 21.0058 19.98 21.0058C19.848 21.0058 19.7173 20.9797 19.5954 20.9289C19.4736 20.8781 19.363 20.8037 19.27 20.71C19.1763 20.617 19.1019 20.5064 19.0511 20.3846C19.0003 20.2627 18.9742 20.132 18.9742 20C18.9742 19.868 19.0003 19.7373 19.0511 19.6154C19.1019 19.4936 19.1763 19.383 19.27 19.29L20.59 18L19.27 16.71ZM17.27 14.05C17.4039 14.081 17.53 14.1392 17.6404 14.2211C17.7509 14.303 17.8432 14.4068 17.9117 14.526C17.9802 14.6451 18.0234 14.7772 18.0386 14.9138C18.0538 15.0504 18.0406 15.1887 18 15.32L16 21.32C15.9304 21.527 15.795 21.7055 15.6144 21.8283C15.4339 21.9511 15.2181 22.0114 15 22C14.8916 21.9973 14.784 21.9805 14.68 21.95C14.5551 21.9083 14.4396 21.8422 14.3402 21.7557C14.2409 21.6692 14.1596 21.5639 14.1011 21.4459C14.0425 21.3279 14.0079 21.1995 13.9991 21.0681C13.9903 20.9366 14.0076 20.8047 14.05 20.68L16.05 14.68C16.0917 14.5551 16.1578 14.4396 16.2443 14.3402C16.3308 14.2409 16.4361 14.1596 16.5541 14.1011C16.6721 14.0425 16.8005 14.0079 16.9319 13.9991C17.0634 13.9903 17.1953 14.0076 17.32 14.05H17.27Z" fill="white"/>
</svg>
