<svg xmlns="http://www.w3.org/2000/svg" width="94.52" height="59.627" viewBox="0 0 94.52 59.627">
  <g id="spark_streaming" transform="translate(0 0.037)">
    <path id="Path_14282" data-name="Path 14282" d="M262.584,153.453a10.244,10.244,0,0,1,.659-2.417,6.932,6.932,0,0,0,2.6.3,4.447,4.447,0,0,0,4.342-3.412c.457-1.515.838-3.059,1.156-4.613a2.392,2.392,0,0,0-3.176-2.946,4.008,4.008,0,0,0-2.987,3.2c-.359,1.676.523,2.769,2.259,2.965a4.991,4.991,0,0,0,2.164-.35c-.1,2.454-.34,2.719-2.48,2.807-3.866.161-5.731-2.284-4.458-5.945a7.688,7.688,0,0,1,6.232-5.328c3.333-.608,5.6,1.456,5.217,4.824a24.632,24.632,0,0,1-1.72,6.745A7.936,7.936,0,0,1,262.584,153.453Z" transform="translate(-179.638 -94.275)" fill="#3c3a3e"/>
    <path id="Path_14283" data-name="Path 14283" d="M165.1,149.1h-2.59c.536-2.205,1.046-4.313,1.575-6.427.208-.829.29-1.641-.662-2.016a1.886,1.886,0,0,0-2.25.715,4.113,4.113,0,0,0-.709,1.777c-.491,1.969-.986,3.938-1.493,5.958h-2.552l1.364-5.577c.035-.145.063-.29.1-.435.4-1.638.236-2.265-.674-2.521a2.261,2.261,0,0,0-2.587,1.72c-.592,2.1-1.081,4.222-1.613,6.336-.035.139-.091.271-.154.466a8.719,8.719,0,0,1-2.568-.025c.6-2.347,1.169-4.653,1.79-6.931a5.529,5.529,0,0,1,3.63-3.85,3.843,3.843,0,0,1,4.43.9,8.458,8.458,0,0,1,2.889-1.163c2.543-.315,4.275,1.434,3.781,3.954C166.314,144.344,165.681,146.682,165.1,149.1Z" transform="translate(-102.939 -94.517)" fill="#3c3a3e"/>
    <path id="Path_14284" data-name="Path 14284" d="M120.386,148.9h-2.606c.41-1.7.81-3.321,1.194-4.947a5.988,5.988,0,0,0,.192-1.166,2.2,2.2,0,0,0-2.694-2.492,4.25,4.25,0,0,0-3.56,3.314,2.446,2.446,0,0,0,2.631,2.971,7.039,7.039,0,0,0,1.632-.315c.107.135.167.18.161.211-.485,2.467-1.03,2.908-3.283,2.665a4.1,4.1,0,0,1-4.011-4.3,7.867,7.867,0,0,1,7.713-7.183,3.92,3.92,0,0,1,4.115,4.263C121.823,144.314,120.875,146.535,120.386,148.9Z" transform="translate(-75.37 -94.313)" fill="#3c3a3e"/>
    <path id="Path_14285" data-name="Path 14285" d="M79.6,145.28l1.61,1.093A6.5,6.5,0,0,1,73.814,149a3.854,3.854,0,0,1-2.555-3.516c-.356-4.285,4.411-8.393,8.579-7.395a3.727,3.727,0,0,1,2.861,2.521.907.907,0,0,1-.432,1.238c-2.1,1.295-4.165,2.64-6.226,3.957-.536-.315-.586-.86-.989-1.364l4.8-3.129a1.87,1.87,0,0,0-2.01-.945,4.835,4.835,0,0,0-3.916,3.22,2.5,2.5,0,0,0,.63,2.609,2.743,2.743,0,0,0,2.921.454A6.76,6.76,0,0,0,79.6,145.28Z" transform="translate(-48.795 -94.505)" fill="#3c3a3e"/>
    <path id="Path_14286" data-name="Path 14286" d="M10.044,130.674,8.1,132.205c-.6-.095-.687-.63-1.046-.888a1.371,1.371,0,0,0-1.89.095c-.58.555-.236,1.081.18,1.55.721.816,1.43,1.648,2.205,2.426a3.7,3.7,0,0,1,.863,4.244A4.509,4.509,0,0,1,4.5,142.637C1.877,142.892.6,142.07.05,139.7l2.142-1.175c.567.277.608.92,1.033,1.26a1.761,1.761,0,0,0,2.309-.032,1.349,1.349,0,0,0,.12-2.1c-.775-.9-1.651-1.717-2.4-2.634-1.352-1.651-1.424-3.084-.315-4.6A4.613,4.613,0,0,1,7.9,128.639,4.012,4.012,0,0,1,10.044,130.674Z" transform="translate(-0.034 -88.002)" fill="#3c3a3e"/>
    <path id="Path_14287" data-name="Path 14287" d="M229.677,149.184a9.8,9.8,0,0,1-2.558-.019c.438-1.8.848-3.56,1.311-5.312a5.121,5.121,0,0,0,.211-1.61,1.627,1.627,0,0,0-1.575-1.651,3.146,3.146,0,0,0-3.538,2.486c-.592,1.985-1.052,4.011-1.575,6.068a9.241,9.241,0,0,1-2.621.05c.608-2.313,1.09-4.578,1.808-6.768a6.427,6.427,0,0,1,7.454-4.2,3.391,3.391,0,0,1,2.763,3.951A59.824,59.824,0,0,1,230,148.1C229.907,148.434,229.793,148.765,229.677,149.184Z" transform="translate(-150.227 -94.599)" fill="#3c3a3e"/>
    <path id="Path_14288" data-name="Path 14288" d="M37.158,128.916l-.665,2.8c.514.463,1.166.032,1.774.347.262.737-.331,1.4-.334,2.117-.7.315-1.371.022-2.136.293-.356,1.443-.769,2.962-1.093,4.5-.239,1.125.441,1.632,1.437,1.667.135.876-.384,1.459-.3,2.127-2.858.558-4.411-1.137-3.733-4.011.573-2.457,1.226-4.9,1.84-7.344.192-.766.384-1.534.589-2.354A7.479,7.479,0,0,1,37.158,128.916Z" transform="translate(-21.883 -88.298)" fill="#3c3a3e"/>
    <path id="Path_14289" data-name="Path 14289" d="M50.715,149.455H48.1c.63-2.423,1.15-4.786,1.831-7.1a5.324,5.324,0,0,1,5.618-3.875c.262.378.032.756-.038,1.122a12.352,12.352,0,0,1-.35,1.2c-1.957.041-2.681,1.3-3.062,3C51.679,145.677,51.188,147.533,50.715,149.455Z" transform="translate(-32.945 -94.867)" fill="#3c3a3e"/>
    <path id="Path_14290" data-name="Path 14290" d="M206.784,149.512H204.16l2.719-10.863a8.151,8.151,0,0,1,2.609.025Z" transform="translate(-139.837 -94.927)" fill="#3c3a3e"/>
    <path id="Path_14291" data-name="Path 14291" d="M217.771,123.265a2.22,2.22,0,0,1-2.268,1.89,1.235,1.235,0,0,1-1.172-1.421,2.276,2.276,0,0,1,2.205-1.972,1.279,1.279,0,0,1,1.235,1.5Z" transform="translate(-146.8 -83.422)" fill="#3c3a3e"/>
    <path id="Path_14292" data-name="Path 14292" d="M153.255,17.552a2.677,2.677,0,0,0-.123-.246c-.841-1.6-1.682-3.2-2.521-4.783a.287.287,0,0,1,.041-.391c1.336-1.575,2.669-3.122,4-4.7a.631.631,0,0,0,.1-.2l-1.169.315-4.855,1.285a.211.211,0,0,1-.287-.123c-.923-1.541-1.846-3.059-2.773-4.6a.533.533,0,0,0-.2-.227c-.082.41-.145.822-.227,1.232-.246,1.437-.514,2.9-.759,4.332-.022.164-.063.315-.082.473a.262.262,0,0,1-.227.246c-1.909.6-3.8,1.21-5.709,1.805a.517.517,0,0,0-.246.145l4.7,1.868c-.063.041-.1.082-.145.1-.964.63-1.95,1.26-2.914,1.89a.315.315,0,0,1-.35.022c-1.169-.514-2.319-1.046-3.491-1.575a3.554,3.554,0,0,1-1.355-.986,1.818,1.818,0,0,1,.432-2.873,5.429,5.429,0,0,1,1.169-.532c1.868-.63,3.737-1.191,5.6-1.786a.315.315,0,0,0,.268-.287c.246-1.437.514-2.9.759-4.332a6.978,6.978,0,0,1,.6-2.259,3.8,3.8,0,0,1,.514-.759,1.657,1.657,0,0,1,2.568-.063,5.04,5.04,0,0,1,.7.9c.863,1.418,1.723,2.836,2.568,4.25.1.164.186.2.369.145l6.257-1.654a2.836,2.836,0,0,1,1.314-.082,1.3,1.3,0,0,1,1.068,1.846,3.582,3.582,0,0,1-.7,1.128c-1.459,1.7-2.914,3.428-4.373,5.132a.29.29,0,0,0-.041.391c.863,1.641,1.745,3.286,2.609,4.946a2.691,2.691,0,0,1,.369,1.26,2,2,0,0,1-1.764,2.013,3.705,3.705,0,0,1-1.632-.211c-1.314-.41-2.628-.8-3.923-1.191a.221.221,0,0,1-.186-.2c-.145-.923-.315-1.846-.473-2.773v-.1l4.518,1.21" transform="translate(-91.887)" fill="#e25a1c"/>
    <path id="Path_14293" data-name="Path 14293" d="M58.822,61.133H55.29a.315.315,0,0,1-.315-.186c-1.415-2.149-2.807-4.25-4.222-6.383l-.164-.246c-.315,2.3-.6,4.537-.882,6.8H46.585c.041-.315.063-.6.1-.882.315-2.3.6-4.6.9-6.931.287-2.205.573-4.4.863-6.616a.334.334,0,0,1,.1-.186c1.068-.7,2.136-1.377,3.2-2.073.022,0,.041-.022.082-.022l-.964,7.35.041.022,5.041-5.6a7.585,7.585,0,0,0,.145.781c.123.7.227,1.4.369,2.1a.378.378,0,0,1-.1.315c-1.087,1.128-2.155,2.278-3.245,3.409-.041.041-.082.1-.145.164.041.063.063.1.1.164,1.868,2.609,3.715,5.236,5.583,7.842l.123.123V61.1m-36.6-6.749a6.654,6.654,0,0,0-.183-.914,3.194,3.194,0,0,0-3.86-2.073,4.3,4.3,0,0,0-3.387,3.781,3.094,3.094,0,0,0,2.013,3.264,3.639,3.639,0,0,0,3.245-.369A4.312,4.312,0,0,0,22.193,54.356Zm-8.17,5.936c-.082.677-.186,1.336-.268,1.991-.123.863-.227,1.723-.315,2.587-.022.1-.041.145-.145.145H10.737c-.022,0-.041-.022-.082-.022.063-.41.1-.822.164-1.232.186-1.437.369-2.854.555-4.291.227-1.641.391-3.264.677-4.887A7.708,7.708,0,0,1,17.842,48.6a6.081,6.081,0,0,1,4.7.74,5.233,5.233,0,0,1,2.464,3.982,7.035,7.035,0,0,1-2.319,6.037,7.322,7.322,0,0,1-4,2.023,5.876,5.876,0,0,1-4.436-.964c-.082-.041-.145-.082-.227-.123M12.647,46.637,9.855,48.716c-.145-.227-.287-.473-.432-.677A2.13,2.13,0,0,0,7.8,47.012a1.846,1.846,0,0,0-1.519.6,1.065,1.065,0,0,0-.063,1.418,15.768,15.768,0,0,0,1.21,1.418c.7.759,1.418,1.478,2.114,2.237a4.757,4.757,0,0,1,1.295,2.4,4.9,4.9,0,0,1-.573,3.182,6.024,6.024,0,0,1-4.578,3.22A5.958,5.958,0,0,1,3,61.337,3.926,3.926,0,0,1,.476,59.132C.315,58.751.164,58.36,0,57.951l3.018-1.623a2.407,2.407,0,0,0,.1.227,6.077,6.077,0,0,0,.532,1.027,2.042,2.042,0,0,0,2.691.759,3.466,3.466,0,0,0,.737-.488A1.575,1.575,0,0,0,7.4,55.7a9.2,9.2,0,0,0-.986-1.191c-.822-.923-1.682-1.805-2.483-2.732a4.338,4.338,0,0,1-1.046-2.259,3.923,3.923,0,0,1,.555-2.628,5.668,5.668,0,0,1,5.309-2.9,4.2,4.2,0,0,1,3.226,1.7c.186.287.41.6.677.945m22.6,10.583c-.164,1.191-.315,2.319-.451,3.45a.23.23,0,0,1-.1.164A6.128,6.128,0,0,1,27.47,59.6a5.6,5.6,0,0,1-1.377-4.045,7.627,7.627,0,0,1,6.569-7.042,5.639,5.639,0,0,1,5.214,1.89,5.287,5.287,0,0,1,1.314,3.8c-.041.945-.186,1.868-.315,2.814-.164,1.336-.35,2.65-.514,3.982,0,.041-.022.1-.022.145H35.6c.041-.315.063-.6.1-.9.2-1.541.41-3.059.6-4.6a5.006,5.006,0,0,0-.384-2.807A2.691,2.691,0,0,0,33.639,51.3a4.313,4.313,0,0,0-4.6,3.346A3.166,3.166,0,0,0,30.3,58.07a3.438,3.438,0,0,0,3.387.246,4.959,4.959,0,0,0,1.575-1.109m11.6-8.459L46.494,51.6H44.77a1.087,1.087,0,0,0-1.027.74,2.237,2.237,0,0,0-.1.532l-.863,6.591c-.082.555-.145,1.109-.227,1.664H39.666c.063-.432.1-.822.164-1.232.186-1.418.369-2.836.555-4.269.164-1.232.315-2.464.491-3.7a4.014,4.014,0,0,1,3.548-3.182c.8-.022,1.6,0,2.423,0" transform="translate(0 -30.152)" fill="#3c3a3e"/>
    <path id="Path_14294" data-name="Path 14294" d="M94.614,58V56.785h0L94.157,58h-.164l-.473-1.21h0V58h-.246V56.54h.369l.432,1.109.432-1.109h.369V58ZM92.5,56.738V58h-.233v-1.26h-.451v-.186h1.15v.186h-.451M48.892,41.451h.718l-.192-1.068Zm.822.7H48.52l-.362.737H47.31l1.846-3.45h.8l.63,3.45h-.772l-.1-.74m4.228-2.013h-.425l-.145.8H53.8a.438.438,0,0,0,.451-.473.287.287,0,0,0-.306-.325Zm-1.024-.7h1.109a.9.9,0,0,1,.986.945,1.213,1.213,0,0,1-1.26,1.26h-.473L53.05,42.9H52.32l.6-3.466m4.537,2.013h.718l-.164-1.068Zm.841.7H57.1l-.369.74h-.841l1.846-3.453h.816l.63,3.45H58.4l-.1-.74m4.66.63a2.067,2.067,0,0,1-.781.186,1.44,1.44,0,0,1-1.478-1.541,2.042,2.042,0,0,1,2.013-2.013,1.386,1.386,0,0,1,.718.186l-.1.822a.92.92,0,0,0-.7-.287,1.241,1.241,0,0,0-1.191,1.232.832.832,0,0,0,.822.9,1.308,1.308,0,0,0,.8-.287l-.088.785m4.411-1.26h-1.5l-.246,1.4h-.718l.63-3.45h.718l-.246,1.377h1.5l.246-1.377h.718l-.63,3.45h-.718l.246-1.415m2.65,1.4.63-3.45h1.909l-.148.706H71.226l-.123.677h1.087l-.123.7H70.981l-.123.7h1.191l-.123.7H70.017" transform="translate(-32.404 -27.018)" fill="#3c3a3e"/>
  </g>
</svg>
