<svg id="Layer_2" data-name="Layer 2" xmlns="http://www.w3.org/2000/svg" xmlns:xlink="http://www.w3.org/1999/xlink" width="79.424" height="80.452" viewBox="0 0 79.424 80.452">
  <defs>
    <linearGradient id="linear-gradient" x1="0.5" y1="3.166" x2="0.5" y2="4.174" gradientUnits="objectBoundingBox">
      <stop offset="0" stop-color="#949494"/>
      <stop offset="0.33" stop-color="#9b9b9b"/>
      <stop offset="0.82" stop-color="#aeafb0"/>
      <stop offset="1" stop-color="#b6b8b9"/>
    </linearGradient>
  </defs>
  <g id="Layer_1" data-name="Layer 1">
    <path id="Path_14221" data-name="Path 14221" d="M8.661,119.386H6.97l-.833-2.368H2.486l-.8,2.368H0L3.476,110.1H5.209ZM5.73,115.768l-1.288-3.7a4.352,4.352,0,0,1-.123-.592H4.29a3.826,3.826,0,0,1-.128.582l-1.274,3.712Z" transform="translate(0 -57.965)" fill="#465154"/>
    <path id="Path_14222" data-name="Path 14222" d="M25.336,116.3l-3.58,4.83h3.566v1.17H19.64v-.563l3.656-4.9H19.981v-1.17h5.356Z" transform="translate(-10.34 -60.898)" fill="#465154"/>
    <path id="Path_14223" data-name="Path 14223" d="M39.779,122.3h-1.5v-1.046h-.024a2.164,2.164,0,0,1-2.036,1.184q-2.368,0-2.368-2.841V115.63h1.5v3.788q0,1.785,1.378,1.785a1.392,1.392,0,0,0,1.1-.474,1.894,1.894,0,0,0,.431-1.288V115.63h1.5Z" transform="translate(-17.821 -60.877)" fill="#465154"/>
    <path id="Path_14224" data-name="Path 14224" d="M53.965,117.016a1.245,1.245,0,0,0-.781-.213,1.34,1.34,0,0,0-1.113.6,2.694,2.694,0,0,0-.445,1.638v3.173H50.12v-6.629h1.5v1.364h.024a2.311,2.311,0,0,1,.677-1.089,1.525,1.525,0,0,1,1.018-.393,1.269,1.269,0,0,1,.62.123Z" transform="translate(-26.387 -60.79)" fill="#465154"/>
    <path id="Path_14225" data-name="Path 14225" d="M65.57,119.248H61.052a1.894,1.894,0,0,0,.568,1.421,2.107,2.107,0,0,0,1.487.5,3.277,3.277,0,0,0,1.951-.635v1.212a4.456,4.456,0,0,1-2.4.568,2.964,2.964,0,0,1-2.3-.9,3.613,3.613,0,0,1-.833-2.543,3.533,3.533,0,0,1,.914-2.524,3,3,0,0,1,2.278-.975,2.614,2.614,0,0,1,2.1.876,3.627,3.627,0,0,1,.743,2.429Zm-1.449-1.061a1.937,1.937,0,0,0-.384-1.26,1.278,1.278,0,0,0-1.037-.474,1.458,1.458,0,0,0-1.1.474,2.159,2.159,0,0,0-.554,1.236Z" transform="translate(-31.339 -60.735)" fill="#465154"/>
    <path id="Path_14226" data-name="Path 14226" d="M82.448,118.8V117.21a2.444,2.444,0,0,0,.507.35,3.936,3.936,0,0,0,.625.26,4.926,4.926,0,0,0,.658.166,3.518,3.518,0,0,0,.611.057,2.6,2.6,0,0,0,1.449-.322,1.065,1.065,0,0,0,.474-.947,1.023,1.023,0,0,0-.156-.573,1.667,1.667,0,0,0-.445-.445,4.691,4.691,0,0,0-.672-.384l-.824-.384q-.474-.251-.881-.511a3.788,3.788,0,0,1-.71-.573,2.4,2.4,0,0,1-.474-.71,2.311,2.311,0,0,1-.17-.947,2.136,2.136,0,0,1,.294-1.136,2.5,2.5,0,0,1,.777-.8,3.551,3.551,0,0,1,1.1-.474,5.209,5.209,0,0,1,1.255-.152,5.072,5.072,0,0,1,2.121.331v1.52a3.4,3.4,0,0,0-2.031-.568,3.657,3.657,0,0,0-.682.066,2.022,2.022,0,0,0-.611.213,1.316,1.316,0,0,0-.436.384.947.947,0,0,0-.17.563,1.066,1.066,0,0,0,.128.535,1.383,1.383,0,0,0,.379.417,3.864,3.864,0,0,0,.611.365q.36.18.833.384a4.548,4.548,0,0,1,.914.53,4.309,4.309,0,0,1,.758.616,2.7,2.7,0,0,1,.516.748,2.409,2.409,0,0,1-.862,2.926,3.414,3.414,0,0,1-1.108.44,6.259,6.259,0,0,1-1.326.137,5.683,5.683,0,0,1-.573-.038,7.015,7.015,0,0,1-.7-.1,6.377,6.377,0,0,1-.672-.166A2.131,2.131,0,0,1,82.448,118.8Z" transform="translate(-43.401 -57.745)" fill="#465154"/>
    <path id="Path_14227" data-name="Path 14227" d="M100.2,120.089a2.6,2.6,0,0,1-1.16.218q-1.927,0-1.927-1.851v-3.746H96V113.53h1.108V112l1.5-.426v1.96H100.2v1.179H98.609v3.315a1.307,1.307,0,0,0,.232.852.885.885,0,0,0,.71.251,1.032,1.032,0,0,0,.658-.218Z" transform="translate(-50.542 -58.739)" fill="#465154"/>
    <path id="Path_14228" data-name="Path 14228" d="M111.22,117.016a1.245,1.245,0,0,0-.781-.213,1.34,1.34,0,0,0-1.113.6,2.694,2.694,0,0,0-.445,1.638v3.173h-1.5v-6.629h1.5v1.364h.024a2.306,2.306,0,0,1,.677-1.089,1.529,1.529,0,0,1,1.018-.393,1.269,1.269,0,0,1,.62.123Z" transform="translate(-56.533 -60.79)" fill="#465154"/>
    <path id="Path_14229" data-name="Path 14229" d="M122.82,119.248H118.3a1.894,1.894,0,0,0,.568,1.421,2.107,2.107,0,0,0,1.487.5,3.277,3.277,0,0,0,1.951-.635v1.212a4.451,4.451,0,0,1-2.4.568,2.964,2.964,0,0,1-2.3-.9,3.613,3.613,0,0,1-.833-2.543,3.532,3.532,0,0,1,.914-2.524,3,3,0,0,1,2.278-.975,2.614,2.614,0,0,1,2.1.876,3.627,3.627,0,0,1,.743,2.429Zm-1.449-1.061a1.937,1.937,0,0,0-.384-1.26,1.274,1.274,0,0,0-1.037-.474,1.458,1.458,0,0,0-1.1.474,2.159,2.159,0,0,0-.554,1.236Z" transform="translate(-61.479 -60.735)" fill="#465154"/>
    <path id="Path_14230" data-name="Path 14230" d="M136.98,122.17h-1.458v-1.037H135.5a2.192,2.192,0,0,1-2.017,1.174,2.121,2.121,0,0,1-1.529-.53,1.856,1.856,0,0,1-.554-1.421q0-1.894,2.164-2.188l1.97-.279q0-1.421-1.345-1.421a3.2,3.2,0,0,0-2.136.814v-1.274a4.659,4.659,0,0,1,2.42-.62,2.2,2.2,0,0,1,2.51,2.472Zm-1.449-3.258-1.392.194a2.2,2.2,0,0,0-.975.313.919.919,0,0,0-.327.8.881.881,0,0,0,.3.691,1.165,1.165,0,0,0,.8.27,1.492,1.492,0,0,0,1.136-.474,1.709,1.709,0,0,0,.45-1.212Z" transform="translate(-69.176 -60.749)" fill="#465154"/>
    <path id="Path_14231" data-name="Path 14231" d="M156.711,122.133h-1.5V118.52a2.931,2.931,0,0,0-.294-1.511,1.084,1.084,0,0,0-.994-.474,1.2,1.2,0,0,0-1,.587,2.4,2.4,0,0,0-.412,1.421v3.585H151v-3.736q0-1.851-1.307-1.851a1.179,1.179,0,0,0-1,.559,2.453,2.453,0,0,0-.393,1.421V122.1h-1.5v-6.629h1.515v1.046h0a2.3,2.3,0,0,1,2.093-1.2,1.97,1.97,0,0,1,1.2.379,1.894,1.894,0,0,1,.7.994,2.368,2.368,0,0,1,2.2-1.373q2.188,0,2.188,2.7Z" transform="translate(-77.287 -60.712)" fill="#465154"/>
    <path id="Path_14232" data-name="Path 14232" d="M36.825,152.986h-1.69l-.833-2.368H30.646l-.8,2.368H28.16l3.476-9.286h1.733Zm-2.931-3.618-1.288-3.7a4.262,4.262,0,0,1-.123-.582H32.46a3.827,3.827,0,0,1-.128.582l-1.274,3.7Z" transform="translate(-14.826 -75.655)" fill="#465154"/>
    <path id="Path_14233" data-name="Path 14233" d="M54.555,155.772h-1.5v-3.736q0-1.856-1.316-1.856a1.421,1.421,0,0,0-1.132.516,1.894,1.894,0,0,0-.445,1.3v3.788H48.65v-6.629h1.511v1.1h.024A2.368,2.368,0,0,1,52.334,149a2,2,0,0,1,1.653.7,3.158,3.158,0,0,1,.568,2.031Z" transform="translate(-25.613 -78.441)" fill="#465154"/>
    <path id="Path_14234" data-name="Path 14234" d="M69.386,155.775H67.928v-1.037H67.9a2.192,2.192,0,0,1-2.012,1.193,2.121,2.121,0,0,1-1.511-.53,1.856,1.856,0,0,1-.554-1.421q0-1.894,2.164-2.188l1.97-.279q0-1.421-1.345-1.421a3.2,3.2,0,0,0-2.136.814v-1.293A4.66,4.66,0,0,1,66.872,149a2.2,2.2,0,0,1,2.51,2.472Zm-1.449-3.258-1.392.194a2.2,2.2,0,0,0-.975.313.919.919,0,0,0-.327.8.881.881,0,0,0,.3.691,1.165,1.165,0,0,0,.8.27,1.487,1.487,0,0,0,1.136-.474,1.709,1.709,0,0,0,.474-1.212Z" transform="translate(-33.602 -78.444)" fill="#465154"/>
    <path id="Path_14235" data-name="Path 14235" d="M80.691,152.4H79.18V142.59h1.511Z" transform="translate(-41.686 -75.07)" fill="#465154"/>
    <path id="Path_14236" data-name="Path 14236" d="M91.151,149.278l-2.993,7.69q-.947,2.06-2.614,2.06a3.145,3.145,0,0,1-.791-.085v-1.25a2.1,2.1,0,0,0,.649.118,1.335,1.335,0,0,0,1.255-.829l.445-1.089-2.633-6.629h1.672l1.582,4.816q.028.09.118.474h.033q.033-.147.118-.474l1.657-4.83Z" transform="translate(-44.472 -78.577)" fill="#465154"/>
    <path id="Path_14237" data-name="Path 14237" d="M104.125,153.689a2.6,2.6,0,0,1-1.16.218q-1.932,0-1.927-1.851v-3.746H99.93V147.13h1.108V145.6l1.5-.426v1.96h1.586v1.179h-1.586v3.315a1.307,1.307,0,0,0,.213.843.885.885,0,0,0,.71.251,1.037,1.037,0,0,0,.658-.218Z" transform="translate(-52.611 -76.429)" fill="#465154"/>
    <path id="Path_14238" data-name="Path 14238" d="M111.79,144.464a.9.9,0,0,1-.63-.242.786.786,0,0,1-.26-.611.81.81,0,0,1,.26-.616.89.89,0,0,1,.63-.246.919.919,0,0,1,.649.246.8.8,0,0,1,.265.616.8.8,0,0,1-.265.6A.914.914,0,0,1,111.79,144.464Zm.743,8.021h-1.5v-6.629h1.5Z" transform="translate(-58.386 -75.154)" fill="#465154"/>
    <path id="Path_14239" data-name="Path 14239" d="M122.452,155.474a3.7,3.7,0,0,1-1.894.474,3.192,3.192,0,0,1-2.368-.923,3.267,3.267,0,0,1-.9-2.391,3.594,3.594,0,0,1,.975-2.633,3.48,3.48,0,0,1,2.6-.994,3.788,3.788,0,0,1,1.6.317v1.421a2.42,2.42,0,0,0-1.477-.516,2.05,2.05,0,0,0-1.558.644,2.368,2.368,0,0,0-.611,1.686,2.245,2.245,0,0,0,.573,1.624,2.032,2.032,0,0,0,1.539.6,2.4,2.4,0,0,0,1.529-.578Z" transform="translate(-61.746 -78.446)" fill="#465154"/>
    <path id="Path_14240" data-name="Path 14240" d="M130.489,155.572V154.18a2.993,2.993,0,0,0,1.856.639q1.359,0,1.359-.8a.635.635,0,0,0-.118-.384,1.108,1.108,0,0,0-.313-.279,2.456,2.456,0,0,0-.474-.218l-.6-.218a6.376,6.376,0,0,1-.734-.341,2.226,2.226,0,0,1-.545-.412,1.548,1.548,0,0,1-.327-.521,1.894,1.894,0,0,1-.109-.682,1.562,1.562,0,0,1,.227-.843,1.96,1.96,0,0,1,.611-.616,2.917,2.917,0,0,1,.867-.374,3.967,3.967,0,0,1,1-.128,4.569,4.569,0,0,1,1.643.279V150.6a2.77,2.77,0,0,0-1.605-.474,2.1,2.1,0,0,0-.516.057,1.325,1.325,0,0,0-.393.161.786.786,0,0,0-.251.251.587.587,0,0,0-.09.322.682.682,0,0,0,.09.365.819.819,0,0,0,.27.26,2.33,2.33,0,0,0,.426.208l.573.2a8.392,8.392,0,0,1,.767.355,2.6,2.6,0,0,1,.578.412,1.629,1.629,0,0,1,.369.53,1.809,1.809,0,0,1,.128.715,1.634,1.634,0,0,1-.232.881,1.947,1.947,0,0,1-.62.62,2.912,2.912,0,0,1-.895.365,4.646,4.646,0,0,1-1.07.118A4.513,4.513,0,0,1,130.489,155.572Z" transform="translate(-68.699 -78.445)" fill="#465154"/>
    <path id="Path_14241" data-name="Path 14241" d="M87.939,24.278V19.1l-.289-.26-5.327-1.79L80.964,13.6,83.6,8.164l.289-.606L82.148,5.791l-2.022-2-.7.346L74.221,6.767l-3.5-.985L68.463,0h-5.18l-.26.26L61.228,5.554,57.581,6.913,51.563,4.02l-3.7,3.618.346.7,2.78,5.266a17.364,17.364,0,0,1,9.253-2.486A18.117,18.117,0,0,1,70.57,14.428a9.609,9.609,0,0,1,1.032.724h0a9.4,9.4,0,0,1,2.69,3.907h0a8.68,8.68,0,0,1,.625,3.225,9.347,9.347,0,0,1-9.347,9.343h-.057A9.47,9.47,0,0,1,60.1,29.917a18.259,18.259,0,0,1-11.573,5.067l-.549,1.127,3.7,3.731.753-.2,5.209-2.893,3.589,1.477,2.287,6.25h5.209l.2-.724,1.851-5.526,3.532-1.477,6.1,2.893,3.675-3.646-.346-.7-2.675-5.171,1.08-3.608Z" transform="translate(-25.197)" fill="url(#linear-gradient)"/>
    <path id="Path_14242" data-name="Path 14242" d="M38.021,48.609h0a10.418,10.418,0,0,1-7.406-3.04,1.331,1.331,0,1,1,1.894-1.738,7.666,7.666,0,0,0,5.526,2.112h0a7.576,7.576,0,0,0,5.441-2.112,10.271,10.271,0,0,1,7.359-2.893,10.531,10.531,0,0,1,7.439,2.893,1.33,1.33,0,1,1-1.8,1.956L56.4,45.7a7.785,7.785,0,0,0-5.469-2.245h0A7.576,7.576,0,0,0,45.488,45.7,10.446,10.446,0,0,1,38.021,48.609Z" transform="translate(-15.793 -21.552)" fill="#50e6ff"/>
    <path id="Path_14243" data-name="Path 14243" d="M42.45,37.158h0A5.18,5.18,0,0,1,38.8,35.653,1.339,1.339,0,0,1,40.7,33.759a2.429,2.429,0,0,0,1.766.724h0a3.125,3.125,0,0,0,1.738-.724,15.8,15.8,0,0,1,22.194,0A1.339,1.339,0,0,1,64.5,35.653a13.169,13.169,0,0,0-18.548,0A5.616,5.616,0,0,1,42.45,37.158Z" transform="translate(-20.223 -15.376)" fill="#50e6ff"/>
    <path id="Path_14244" data-name="Path 14244" d="M34.163,59.533a15.655,15.655,0,0,1-11.2-4.6,1.331,1.331,0,0,1,1.894-1.851,13.136,13.136,0,0,0,18.548-.028,5.616,5.616,0,0,1,3.5-1.421,5.294,5.294,0,0,1,3.618,1.506,1.331,1.331,0,0,1,0,1.894,1.359,1.359,0,0,1-1.894,0,2.4,2.4,0,0,0-1.709-.724h0a2.893,2.893,0,0,0-1.738.753A15.655,15.655,0,0,1,34.163,59.533Z" transform="translate(-11.935 -27.182)" fill="#32bedd"/>
  </g>
</svg>
