<svg id="Group_2099" data-name="Group 2099" xmlns="http://www.w3.org/2000/svg" width="97.041" height="38.238" viewBox="0 0 97.041 38.238">
  <path id="Path_17924" data-name="Path 17924" d="M-3816.224,254.952a2.905,2.905,0,0,1-2.777-2.2c-.1-.548.2-.752.692-.82,2.116-.293,4.23-.6,6.347-.892q11.29-1.556,22.581-3.106l23.629-3.244q11.781-1.621,23.562-3.25,9.228-1.275,18.458-2.54c.465-.064,1.059-.249,1.317.291a3,3,0,0,1,.364,2.219c-.119.375-.5.446-.868.5q-5.593.782-11.187,1.571l-24.993,3.505q-12.5,1.753-25,3.494l-24.144,3.378C-3810.9,254.23-3813.563,254.587-3816.224,254.952Z" transform="translate(3819.02 -216.714)" fill="#d9001b"/>
  <path id="Path_17925" data-name="Path 17925" d="M-3463.639,120.909c-.372,1.789-.735,3.552-1.106,5.313-.247,1.17-.581,1.444-1.785,1.522-.373.024-.743.09-1.116.113-.887.055-1.179-.261-1.007-1.142.251-1.293.532-2.581.808-3.87.735-3.436,1.481-6.87,2.2-10.308a1.933,1.933,0,0,1,1.019-1.384,9.678,9.678,0,0,1,6.561-1.17c2.579.523,3.756,3.094,2.606,5.616a8.093,8.093,0,0,1-4.028,3.837c-.644.319-.57.525-.214,1a27.434,27.434,0,0,0,3.355,3.716c.8.743.784.956,0,1.693-1.632,1.537-1.785,1.53-3.318-.07a33.038,33.038,0,0,1-3.624-4.525C-3463.36,121.129-3463.4,120.959-3463.639,120.909Zm.6-2.937a10.974,10.974,0,0,0,3.221-1.781,2.916,2.916,0,0,0,.993-1.6c.279-1.253-.344-1.983-1.617-1.9a4.451,4.451,0,0,0-1.274.332.48.48,0,0,0-.327.375c-.323,1.5-.652,3-1,4.567Z" transform="translate(3515.105 -104.797)" fill="#d9001b"/>
  <path id="Path_17926" data-name="Path 17926" d="M-3262.234,100.493c-1.841.056-2.026-.175-1.616-1.95.288-1.242.544-2.491.835-3.732.081-.347.059-.484-.353-.4-.686.139-1.54-.04-2.035.382-.474.406-.4,1.26-.569,1.916-.3,1.171-.554,2.354-.854,3.524-.216.844-.419.978-1.292.993-.529.009-1.059.052-1.586.021-.735-.043-.956-.371-.8-1.094.382-1.761.771-3.521,1.151-5.282a2.7,2.7,0,0,0,.1-1.425.573.573,0,0,1,.148-.616c.473-.37.485-.918.6-1.42.493-2.074.967-4.153,1.455-6.228.213-.9.51-1.127,1.419-1.147.439-.01.878-.039,1.317-.068.922-.06,1.241.275,1.035,1.175-.382,1.671-.8,3.335-1.2,5-.1.428-.2.857-.3,1.284-.057.232.008.327.26.287q.979-.156,1.96-.294c.37-.051.34-.365.4-.6.493-2.074.972-4.151,1.46-6.227.294-1.256.464-1.389,1.725-1.457.417-.022.832-.093,1.25-.114.728-.036.928.18.782.905-.361,1.788-.743,3.569-1.123,5.354q-1,4.708-2.013,9.413C-3260.457,100.441-3260.467,100.438-3262.234,100.493Z" transform="translate(3343.205 -81.552)" fill="#d9001b"/>
  <path id="Path_17927" data-name="Path 17927" d="M-3724.621,159.321a26.441,26.441,0,0,1,1.14-6.076c.44-1.61.943-3.2,1.44-4.8.291-.932.582-1.1,1.565-.992.416.044.833.085,1.25.108.8.043,1.014.3.8,1.1-.3,1.124-.649,2.236-.956,3.359a53.415,53.415,0,0,0-1.443,6.157,5.187,5.187,0,0,0,.033,2.1c.179.693.472.885,1.155.7a3.608,3.608,0,0,0,2.6-2.8c.565-2.123,1.069-4.262,1.593-6.4.353-1.43.694-2.862,1.053-4.289.218-.862.466-1.034,1.348-1.006.484.015.969.027,1.453.043.987.031,1.175.263.948,1.221q-.916,3.847-1.844,7.691-.838,3.493-1.674,6.986c-.3,1.235-.478,1.393-1.774,1.338-.7-.03-1.476.24-2.043-.446-.121-.146-.236.021-.333.082a4.891,4.891,0,0,1-2.716.687,3.219,3.219,0,0,1-3.079-2,6.247,6.247,0,0,1-.52-2.765Z" transform="translate(3737.126 -136.602)" fill="#d9001b"/>
  <path id="Path_17928" data-name="Path 17928" d="M-3355.062,72.773a9.464,9.464,0,0,1,3.674.7c.889.382.972.644.554,1.509-.086.178-.161.361-.255.536a1.081,1.081,0,0,1-.579.606,1.083,1.083,0,0,1-.838.011,7.017,7.017,0,0,0-3.447-.352,2.486,2.486,0,0,0-2.146,2.535,2.339,2.339,0,0,0,1.015,1.976,18.627,18.627,0,0,0,1.73,1.211c4.165,2.515,3.611,7.457.978,10.006a8.852,8.852,0,0,1-8.285,2.338,2.044,2.044,0,0,1-.383-.108c-.569-.231-1.288-.4-1.4-1.074-.122-.737.457-1.3.9-1.829.307-.366.736-.177,1.112-.056a5.76,5.76,0,0,0,3.883-.135,3.458,3.458,0,0,0,2.349-2.923,3.164,3.164,0,0,0-1.476-3.347c-.568-.377-1.121-.78-1.709-1.122-3.81-2.219-3.027-7.872.613-9.647a8.129,8.129,0,0,1,3.71-.833Z" transform="translate(3424.67 -72.662)" fill="#d9001b"/>
  <path id="Path_17929" data-name="Path 17929" d="M-3629.138,153.162c-1.581.1-1.79-.145-1.453-1.716.2-.945.42-1.887.633-2.83a1.8,1.8,0,0,0,.051-.971.533.533,0,0,1,.017-.382c.973-1.627.956-3.523,1.434-5.282.466-1.716.807-3.465,1.211-5.2a1.3,1.3,0,0,1,.478-.919,1.3,1.3,0,0,1,1-.276,4.284,4.284,0,0,0,1.164-.187c2.82-.822,6.381.514,6.119,4.77-.23,3.751-2.427,6.032-5.631,7.565a9.46,9.46,0,0,1-1.6.6.781.781,0,0,0-.637.71c-.168.862-.379,1.716-.582,2.57-.313,1.322-.519,1.488-1.871,1.548C-3628.918,153.162-3629.028,153.162-3629.138,153.162Zm3.781-8.285a1.423,1.423,0,0,0,.394-.053,6.016,6.016,0,0,0,3.13-5.221,1.824,1.824,0,0,0-.644-1.456c-.646-.493-1.2-.3-1.383.465-.5,2.064-.987,4.131-1.5,6.262Z" transform="translate(3655.67 -126.79)" fill="#d9001b"/>
  <path id="Path_17930" data-name="Path 17930" d="M-3803.242,133.663A4.16,4.16,0,0,0-3807,135.49a3.227,3.227,0,0,0,.92,4.85c.182.124.37.239.554.358a4.968,4.968,0,0,1,1.736,7.083,8.237,8.237,0,0,1-6.525,4.06,5.847,5.847,0,0,1-2.682-.127c-.806-.273-.968-.616-.667-1.395.1-.266.225-.525.337-.787a1.1,1.1,0,0,1,1.3-.741,5.81,5.81,0,0,0,3.052-.327,3.394,3.394,0,0,0,1.859-1.69,2.381,2.381,0,0,0,.283-1.851,2.38,2.38,0,0,0-1.143-1.483c-.268-.191-.542-.377-.829-.545-2.312-1.373-3.272-3.469-2.428-6.544.892-3.264,3.328-4.946,6.541-5.6a7.174,7.174,0,0,1,3.531.134c.841.255.97.544.7,1.374C-3800.974,133.834-3800.974,133.834-3803.242,133.663Z" transform="translate(3814.494 -122.826)" fill="#d9001b"/>
  <path id="Path_17931" data-name="Path 17931" d="M-3175.615,90.165c-1.383.02-1.976-.694-1.729-1.9.892-4.349,1.8-8.695,2.685-13.046.446-2.2.424-2.215,2.683-2.549q2.582-.382,5.171-.71c1.211-.151,1.435.1,1.255,1.289-.191,1.285-.26,1.352-1.588,1.548-1.111.164-2.221.34-3.337.47-.411.048-.549.212-.589.609a16.434,16.434,0,0,1-.313,1.952c-.1.446.074.467.43.418,1.026-.141,2.052-.28,3.082-.382.892-.091,1.125.175,1,1.054-.236,1.642-.236,1.644-1.918,1.874-.916.127-1.833.255-2.753.354-.372.041-.582.149-.657.563q-.436,2.4-.944,4.786c-.1.5.078.547.5.481,1.131-.179,2.266-.337,3.4-.492.926-.127,1.117.068,1.006.98-.029.24-.024.483-.053.723a1,1,0,0,1-.828.982C-3171.332,89.547-3173.545,89.935-3175.615,90.165Z" transform="translate(3262.394 -71.923)" fill="#d9001b"/>
  <path id="Path_17932" data-name="Path 17932" d="M-3543.861,138.927c-1.479-.01-1.97-.637-1.669-1.976,1.03-4.564,2.076-9.125,3.069-13.7a1.753,1.753,0,0,1,1.617-1.541c1.872-.282,3.74-.595,5.613-.87.792-.116,1.049.164.96.96-.027.24-.1.476-.11.715a1.052,1.052,0,0,1-.284.755,1.052,1.052,0,0,1-.735.332c-1,.157-2,.34-3,.482a.56.56,0,0,0-.564.51c-.127.669-.282,1.333-.446,1.994-.08.329-.006.43.349.376q1.241-.191,2.49-.315c.892-.091,1.074.12.9.993-.327,1.64-.332,1.642-2.009,1.862-.677.089-1.35.21-2.029.275a.58.58,0,0,0-.59.553q-.5,2.453-1.061,4.895c-.088.389-.029.5.4.442,1.112-.157,2.231-.276,3.345-.4.849-.094,1.049.106.969.927-.163,1.691-.276,1.793-1.968,2.013-1.571.2-3.138.44-4.708.658C-3543.536,138.907-3543.757,138.917-3543.861,138.927Z" transform="translate(3581.832 -114.344)" fill="#d9001b"/>
</svg>
