<svg width="14" height="15" viewBox="0 0 14 15" fill="none" xmlns="http://www.w3.org/2000/svg">
<g clip-path="url(#clip0_12168_507)">
<path d="M3.75101 10.501H6.75001C6.75001 10.501 7.00001 10.501 7.00001 10.751V13.75C7.00001 13.75 7.00001 14 6.75001 14H3.75101C3.75101 14 3.50101 14 3.50101 13.75V10.751C3.50101 10.751 3.50101 10.501 3.75101 10.501Z" fill="white"/>
<path d="M5.5 7.00098H8.499C8.499 7.00098 8.749 7.00098 8.749 7.25098V10.25C8.749 10.25 8.749 10.5 8.499 10.5H5.5C5.5 10.5 5.25 10.5 5.25 10.25V7.25098C5.25 7.25098 5.25 7.00098 5.5 7.00098Z" fill="white"/>
<path d="M7.25 10.501H10.249C10.249 10.501 10.499 10.501 10.499 10.751V13.75C10.499 13.75 10.499 14 10.249 14H7.25C7.25 14 7 14 7 13.75V10.751C7 10.751 7 10.501 7.25 10.501Z" fill="white"/>
<path fill-rule="evenodd" clip-rule="evenodd" d="M13.418 7.036C13.4731 7.1635 13.501 7.3011 13.5 7.44V13C13.5 13.2652 13.3946 13.5196 13.2071 13.7071C13.0196 13.8946 12.7652 14 12.5 14H10.25C10.3163 14 10.3799 13.9737 10.4268 13.9268C10.4737 13.8799 10.5 13.8163 10.5 13.75V10.75C10.5 10.6837 10.4737 10.6201 10.4268 10.5732C10.3799 10.5263 10.3163 10.5 10.25 10.5H8.49999C8.5663 10.5 8.62988 10.4737 8.67677 10.4268C8.72365 10.3799 8.74999 10.3163 8.74999 10.25V7.252C8.74999 7.1857 8.72365 7.12211 8.67677 7.07522C8.62988 7.02834 8.5663 7.002 8.49999 7.002H5.49999C5.43369 7.002 5.3701 7.02834 5.32322 7.07522C5.27633 7.12211 5.24999 7.1857 5.24999 7.252V10.252C5.24999 10.39 5.36199 10.502 5.49999 10.502H3.74999C3.68369 10.502 3.6201 10.5283 3.57322 10.5752C3.52633 10.6221 3.49999 10.6857 3.49999 10.752V13.751C3.49999 13.889 3.61299 14.001 3.74999 14.001H1.49999C1.23478 14.001 0.980422 13.8956 0.792886 13.7081C0.605349 13.5206 0.499992 13.2662 0.499992 13.001V7.44C0.499053 7.3012 0.52702 7.16372 0.582112 7.03632C0.637205 6.90892 0.718217 6.79438 0.819992 6.7L6.99999 1L13.18 6.7C13.2818 6.79428 13.3628 6.9087 13.418 7.036ZM7.24999 10.501H6.74999C6.8163 10.501 6.87989 10.5273 6.92677 10.5742C6.97365 10.6211 6.99999 10.6847 6.99999 10.751C6.99999 10.6847 7.02633 10.6211 7.07322 10.5742C7.1201 10.5273 7.18369 10.501 7.24999 10.501ZM7.24999 14C7.18369 14 7.1201 13.9737 7.07322 13.9268C7.02633 13.8799 6.99999 13.8163 6.99999 13.75C6.99999 13.8163 6.97365 13.8799 6.92677 13.9268C6.87989 13.9737 6.8163 14 6.74999 14H7.24999Z" fill="#ECF3FF"/>
<path d="M13.5 7.44C13.501 7.30119 13.4731 7.1637 13.418 7.03629C13.3629 6.90887 13.2818 6.79434 13.18 6.7L6.99999 1L0.819992 6.7C0.718217 6.79438 0.637205 6.90892 0.582112 7.03632C0.52702 7.16372 0.499053 7.3012 0.499992 7.44V13C0.499992 13.2652 0.605349 13.5196 0.792886 13.7071C0.980422 13.8946 1.23478 14 1.49999 14H12.5C12.7652 14 13.0196 13.8946 13.2071 13.7071C13.3946 13.5196 13.5 13.2652 13.5 13V7.44Z" stroke="#1163FB" stroke-width="1.5" stroke-linecap="round" stroke-linejoin="round"/>
<path d="M7.25 10.501H10.249C10.249 10.501 10.499 10.501 10.499 10.751V13.75C10.499 13.75 10.499 14 10.249 14H7.25C7.25 14 7 14 7 13.75V10.751C7 10.751 7 10.501 7.25 10.501Z" stroke="#1163FB" stroke-width="1.5" stroke-linecap="round" stroke-linejoin="round"/>
<path d="M5.5 7.00098H8.499C8.499 7.00098 8.749 7.00098 8.749 7.25098V10.25C8.749 10.25 8.749 10.5 8.499 10.5H5.5C5.5 10.5 5.25 10.5 5.25 10.25V7.25098C5.25 7.25098 5.25 7.00098 5.5 7.00098Z" stroke="#1163FB" stroke-width="1.5" stroke-linecap="round" stroke-linejoin="round"/>
<path d="M3.75101 10.501H6.75001C6.75001 10.501 7.00001 10.501 7.00001 10.751V13.75C7.00001 13.75 7.00001 14 6.75001 14H3.75101C3.75101 14 3.50101 14 3.50101 13.75V10.751C3.50101 10.751 3.50101 10.501 3.75101 10.501Z" stroke="#1163FB" stroke-width="1.5" stroke-linecap="round" stroke-linejoin="round"/>
</g>
<defs>
<clipPath id="clip0_12168_507">
<rect width="14" height="14" fill="white" transform="translate(0 0.5)"/>
</clipPath>
</defs>
</svg>
