<svg width="20" height="20" viewBox="0 0 20 20" fill="none" xmlns="http://www.w3.org/2000/svg">
<path d="M13.7 6.92272C12.5957 6.14129 11.3671 5.70558 10.1114 5.64844C8.85853 5.70844 7.63424 6.14701 6.53424 6.92701" stroke="#1163FB" stroke-width="1.5" stroke-linecap="round" stroke-linejoin="round"/>
<path d="M3.08569 4.0399C5.04875 2.37507 7.52123 1.43012 10.0943 1.36133C12.6641 1.43102 15.1331 2.376 17.0928 4.0399" stroke="#1163FB" stroke-width="1.5" stroke-linecap="round" stroke-linejoin="round"/>
<path d="M14.4914 16.1097H16.3571V17.3526C16.3571 18.384 15.5214 19.2197 14.4914 19.2197H13.2485C12.7537 19.2197 12.2792 19.0231 11.9293 18.6732C11.5794 18.3233 11.3828 17.8488 11.3828 17.354V13.6226C11.3828 12.594 12.2171 11.7568 13.2485 11.7568H14.4914C15.3042 11.7568 15.9942 12.2768 16.2514 13.0011" stroke="#1163FB" stroke-width="1.5" stroke-linecap="round" stroke-linejoin="round"/>
<path d="M8.5371 11.7627H4.4971L3.87567 15.4913L4.33281 15.2627C4.85063 15.0046 5.4214 14.8706 5.99996 14.8713H6.98281C8.01281 14.8713 8.8471 15.7056 8.8471 16.7356V17.357C8.8471 18.3856 8.01281 19.2213 6.98281 19.2213H5.73996C5.35452 19.2212 4.9786 19.1016 4.66392 18.879C4.34925 18.6564 4.11129 18.3418 3.98281 17.9784" stroke="#1163FB" stroke-width="1.5" stroke-linecap="round" stroke-linejoin="round"/>
</svg>
