<svg width="24" height="24" viewBox="0 0 24 24" fill="none" xmlns="http://www.w3.org/2000/svg">
<g clip-path="url(#clip0_15316_201)">
<path d="M0.809692 9.02772C2.97122 10.313 8.28408 13.467 10.9368 14.9878C11.2617 15.1742 11.6303 15.2727 12 15.2727C12.3697 15.2727 12.7383 15.1742 13.0643 14.9872C15.7159 13.467 21.0288 10.3131 23.1904 9.02721C23.6975 8.72464 24 8.20478 24 7.6364C24 7.06802 23.6974 6.54817 23.1904 6.24509C21.5199 5.25166 15.8555 1.88572 13.0632 0.285051C12.7348 0.0964608 12.3704 -0.00151635 11.9998 1.77415e-05C11.6406 0.00150069 11.2754 0.0965631 10.9315 0.288171C10.9315 0.288171 3.33772 4.74823 0.810715 6.24447C0.302573 6.54602 0 7.06588 0 7.6364C0 8.20473 0.302573 8.72464 0.809692 9.02772Z" fill="#1D70F7"/>
<path d="M23.2095 10.6238C23.038 10.5178 22.8206 10.5156 22.647 10.62C19.7098 12.3635 15.7585 14.7008 13.6065 15.934C12.6243 16.4965 11.3746 16.4959 10.3945 15.9345C8.22231 14.6891 4.27842 12.3571 1.35302 10.62C1.18043 10.5162 0.962027 10.5178 0.789442 10.6238C0.295108 10.9268 0 11.4414 0 12.0002C0 12.5686 0.302573 13.0884 0.809641 13.3915C2.97122 14.6769 8.28408 17.8308 10.9368 19.3515C11.2617 19.538 11.6303 19.6365 12 19.6365C12.3697 19.6365 12.7383 19.538 13.0643 19.351C15.7159 17.8308 21.0288 14.6769 23.1904 13.391C23.6975 13.0884 24 12.5686 24 12.0002C24 11.4414 23.7049 10.9268 23.2095 10.6238Z" fill="#1D70F7"/>
<path d="M23.2095 14.9871C23.038 14.8822 22.8206 14.879 22.647 14.9834C19.7098 16.7268 15.7585 19.0642 13.6065 20.2973C12.6243 20.8598 11.3746 20.8593 10.3945 20.2978C8.22231 19.0525 4.27842 16.7204 1.35302 14.9834C1.18043 14.8795 0.962027 14.8822 0.789442 14.9871C0.295108 15.2902 0 15.8048 0 16.3635C0 16.9319 0.302573 17.4517 0.809641 17.7548C2.97122 19.0402 8.28408 22.1941 10.9368 23.7149C11.2617 23.9014 11.6303 23.9999 12 23.9999C12.3697 23.9999 12.7383 23.9014 13.0643 23.7144C15.7159 22.1942 21.0288 19.0402 23.1904 17.7544C23.6975 17.4518 24 16.9319 24 16.3636C24 15.8048 23.7049 15.2902 23.2095 14.9871Z" fill="#1D70F7"/>
</g>
<defs>
<clipPath id="clip0_15316_201">
<rect width="24" height="24" fill="white"/>
</clipPath>
</defs>
</svg>
