<svg width="20" height="20" viewBox="0 0 20 20" fill="none" xmlns="http://www.w3.org/2000/svg">
<g clip-path="url(#clip0_12166_534)">
<path d="M7.92939 8.9406C8.34156 8.52843 8.90058 8.29688 9.48348 8.29688H13.8771C14.5879 9.4071 15 10.7269 15 12.143C15 15.1229 13.1753 17.6765 10.5824 18.7476V13.7914C10.5824 13.4999 10.4666 13.2204 10.2605 13.0143C10.0544 12.8083 9.77492 12.6925 9.48348 12.6925C8.90058 12.6925 8.34156 12.4609 7.92939 12.0488C7.51722 11.6366 7.28568 11.0776 7.28568 10.4947C7.28568 9.91179 7.51722 9.35277 7.92939 8.9406Z" fill="white"/>
<path d="M5.0156 13.8854C4.60344 13.4732 4.04441 13.2417 3.46153 13.2417H0.798279C1.21336 15.9298 3.12721 18.1232 5.65933 18.9411V15.4395C5.65933 14.8567 5.42777 14.2975 5.0156 13.8854Z" fill="white"/>
<path d="M7.51537 5.0083C3.72919 5.18667 0.714294 8.31281 0.714294 12.1431C0.714294 12.5168 0.742992 12.8838 0.7983 13.242H3.46154C4.04442 13.242 4.60345 13.4736 5.01561 13.8857C5.42778 14.2978 5.65934 14.857 5.65934 15.4398V18.9415C6.35172 19.1651 7.09032 19.286 7.85715 19.286C8.82224 19.286 9.74262 19.0945 10.5824 18.7477V13.7915C10.5824 13.5 10.4666 13.2205 10.2606 13.0144C10.0545 12.8083 9.77495 12.6926 9.48351 12.6926C8.90061 12.6926 8.34159 12.461 7.92942 12.0488C7.51725 11.6367 7.28571 11.0777 7.28571 10.4948C7.28571 9.91186 7.51725 9.35284 7.92942 8.94067C8.34159 8.52851 8.90061 8.29696 9.48351 8.29696H10.5753C10.5482 8.25383 10.5276 8.20676 10.5143 8.15721L9.81429 5.75722L9.44287 5.62864L7.51537 5.0083Z" fill="#ECF3FF"/>
<path d="M18.9429 2.81427L17.5143 2.32856C17.4139 2.29445 17.3052 2.29413 17.2044 2.32767C17.1039 2.3612 17.017 2.42675 16.9571 2.51427L15.9143 4.12856L10.2 1.27141C9.74839 1.00525 9.24352 0.8422 8.72152 0.793925C8.19954 0.745649 7.67334 0.813343 7.18055 0.992162C6.68778 1.17098 6.24061 1.4565 5.87106 1.8283C5.50151 2.2001 5.21869 2.64899 5.04286 3.14285C4.99441 3.27096 4.97359 3.40787 4.98178 3.5446C4.98996 3.68133 5.02698 3.81479 5.09038 3.9362C5.15379 4.05762 5.24216 4.16425 5.34968 4.2491C5.45721 4.33396 5.58146 4.39512 5.71429 4.42856L9.44286 5.62856L9.81429 5.75713L10.5143 8.15713C10.5368 8.24069 10.58 8.31723 10.6399 8.37967C10.6998 8.4421 10.7746 8.48839 10.8571 8.51427L12.5429 9.05713C12.6289 9.08516 12.7207 9.09063 12.8095 9.073C12.8983 9.05537 12.9811 9.01525 13.0499 8.95646C13.1187 8.89767 13.1713 8.8222 13.2026 8.73727C13.2339 8.65235 13.2428 8.5608 13.2286 8.47142L12.8571 6.6857H13.1L16.7429 7.87142C16.9816 7.9537 17.2431 7.93833 17.4706 7.82862C17.698 7.7189 17.873 7.52376 17.9571 7.2857L19.2429 3.32856C19.257 3.22169 19.2352 3.11316 19.1809 3.02006C19.1266 2.92695 19.0429 2.85455 18.9429 2.81427Z" fill="white"/>
<path d="M18.9429 2.81427L17.5143 2.32856C17.4139 2.29445 17.3051 2.29413 17.2044 2.32767C17.1039 2.3612 17.017 2.42675 16.9571 2.51427L15.9143 4.12856L10.2 1.27141C9.74839 1.00525 9.24352 0.8422 8.72152 0.793925C8.19954 0.745649 7.67334 0.813343 7.18055 0.992162C6.68778 1.17098 6.24061 1.4565 5.87106 1.8283C5.50151 2.2001 5.21869 2.64899 5.04286 3.14285C4.99441 3.27096 4.97359 3.40787 4.98178 3.5446C4.98996 3.68133 5.02698 3.81479 5.09038 3.9362C5.15379 4.05762 5.24216 4.16425 5.34968 4.2491C5.45721 4.33396 5.58146 4.39512 5.71429 4.42856L9.44286 5.62856L9.81429 5.75713L10.5143 8.15713C10.5368 8.24069 10.58 8.31723 10.6399 8.37967C10.6998 8.4421 10.7746 8.48839 10.8571 8.51427L12.5429 9.05713C12.6289 9.08516 12.7207 9.09063 12.8095 9.073C12.8983 9.05537 12.9811 9.01525 13.0499 8.95646C13.1187 8.89767 13.1713 8.8222 13.2026 8.73727C13.2339 8.65235 13.2428 8.5608 13.2286 8.47142L12.8571 6.6857H13.1L16.7429 7.87142C16.9816 7.9537 17.2431 7.93833 17.4706 7.82862C17.698 7.7189 17.873 7.52376 17.9571 7.2857L19.2429 3.32856C19.257 3.22169 19.2352 3.11316 19.1809 3.02006C19.1266 2.92695 19.0429 2.85455 18.9429 2.81427Z" stroke="#1163FB" stroke-width="1.5" stroke-linecap="round" stroke-linejoin="round"/>
<path d="M15 12.1429C14.9999 13.3411 14.6984 14.5199 14.1234 15.5711C13.5482 16.6222 12.718 17.5116 11.7089 18.1578C10.6999 18.8039 9.54459 19.1858 8.34929 19.2684C7.15399 19.3509 5.95712 19.1315 4.86887 18.6302C3.78061 18.1289 2.83594 17.3619 2.12178 16.3999C1.40763 15.4378 0.946964 14.3116 0.782176 13.1249C0.617389 11.9381 0.753777 10.7289 1.17879 9.60871C1.60381 8.48847 2.30378 7.49314 3.21429 6.71436" stroke="#1163FB" stroke-width="1.5" stroke-linecap="round" stroke-linejoin="round"/>
<path d="M7.54286 9.5C7.39189 9.81171 7.31373 10.1537 7.31429 10.5C7.31239 10.7876 7.36763 11.0726 7.4768 11.3387C7.58597 11.6047 7.7469 11.8464 7.95023 12.0498C8.15357 12.2531 8.39529 12.414 8.66133 12.5232C8.92736 12.6324 9.21244 12.6876 9.5 12.6857C9.79174 12.6857 10.0715 12.8016 10.2778 13.0079C10.4841 13.2142 10.6 13.494 10.6 13.7857V18.7429" stroke="#1163FB" stroke-width="1.5" stroke-linecap="round" stroke-linejoin="round"/>
<path d="M0.814301 13.2429H3.45716C3.75084 13.2353 4.04307 13.2866 4.31662 13.3937C4.59017 13.5008 4.83949 13.6617 5.04987 13.8667C5.26024 14.0718 5.42743 14.3169 5.54154 14.5876C5.65566 14.8583 5.7144 15.1492 5.7143 15.4429V18.9429" stroke="#1163FB" stroke-width="1.5" stroke-linecap="round" stroke-linejoin="round"/>
</g>
<defs>
<clipPath id="clip0_12166_534">
<rect width="20" height="20" fill="white"/>
</clipPath>
</defs>
</svg>
