<svg xmlns="http://www.w3.org/2000/svg" width="23.573" height="21.377" viewBox="0 0 23.573 21.377">
  <g id="Travel_and_Tourism" data-name="Travel and Tourism" transform="translate(-58.706 -98.793)">
    <g id="Global_buyer_Access" data-name="Global buyer Access" transform="translate(61.894 101.965)">
      <g id="Group_635" data-name="Group 635" transform="translate(0 0)">
        <path id="Path_1958" data-name="Path 1958" d="M75.979,108.574a7.433,7.433,0,0,0-7.407,6.939.164.164,0,0,0,0,.033c-.01.149-.014.3-.014.452a7.431,7.431,0,0,0,9.719,7.058.7.7,0,1,0-.431-1.331A6.047,6.047,0,0,1,74,121.686l.021-.019a6.047,6.047,0,0,1-.57-2.034,6.475,6.475,0,0,0-2.492-3.4.541.541,0,0,1,.156.073,15.468,15.468,0,0,1-1.1-1.21,5.982,5.982,0,0,1,1.827-3.482,4.2,4.2,0,0,1,.951,1.571,6.078,6.078,0,0,1,.115,1.092,2.81,2.81,0,0,0,.075.683,5.376,5.376,0,0,0,.883,1.615,1.837,1.837,0,0,0,1.19.516,1,1,0,0,0,.424-.088,2.414,2.414,0,0,0,1.073-1.6,3.061,3.061,0,0,1,1.9-1.345,21.932,21.932,0,0,0,3-.574,6.035,6.035,0,0,1,.516,1.965.7.7,0,1,0,1.4-.1c0-.009,0-.018,0-.027A7.382,7.382,0,0,0,75.979,108.574Zm-5.51,8.973a6.144,6.144,0,0,1,1.608,2.342c.056.3.107.574.159.822a6.017,6.017,0,0,1-2.146-3.447,1.511,1.511,0,0,0,.379.283Zm7.874-4.881a4.112,4.112,0,0,0-3.16,2.473,1.308,1.308,0,0,1-.233.51c-.026-.014-.049-.026-.067-.037a4.505,4.505,0,0,1-.541-.993,1.57,1.57,0,0,1-.033-.368,7.152,7.152,0,0,0-.137-1.319,5.278,5.278,0,0,0-1.2-2.153,6.037,6.037,0,0,1,7.726,1.457,18.334,18.334,0,0,1-2.353.431Z" transform="translate(-68.554 -108.574)" fill="#fff"/>
        <path id="Path_1959" data-name="Path 1959" d="M68.568,131.075a.167.167,0,0,0,0,.033.105.105,0,0,1-.016-.019Z" transform="translate(-68.55 -124.137)" fill="#fff"/>
      </g>
      <g id="Group_636" data-name="Group 636" transform="translate(6.288 9.217)">
        <path id="Path_1960" data-name="Path 1960" d="M90.08,140.718a.7.7,0,0,1-.623-.382l-.437-.853a.7.7,0,0,1,1.245-.637h0l.437.853a.7.7,0,0,1-.622,1.018Z" transform="translate(-88.943 -138.466)" fill="#fff"/>
      </g>
    </g>
    <path id="Path_2276" data-name="Path 2276" d="M87.779,98.046h.049c.267-.024.559-.049.826-.049h.073a.575.575,0,0,0,.534-.534.539.539,0,0,0-.534-.534h-.1a6.173,6.173,0,0,0-.923.073.507.507,0,0,0-.462.584A.528.528,0,0,0,87.779,98.046Z" transform="translate(-19.524 1.864)" fill="#fff"/>
    <path id="Path_2277" data-name="Path 2277" d="M67.667,106.237a.535.535,0,0,0,.364-.146,8.123,8.123,0,0,1,.68-.606.518.518,0,0,0-.656-.8,10.118,10.118,0,0,0-.753.68.515.515,0,0,0,0,.753A.6.6,0,0,0,67.667,106.237Z" transform="translate(-5.388 -3.509)" fill="#fff"/>
    <path id="Path_2278" data-name="Path 2278" d="M57.547,125.249h.1a.542.542,0,0,0,.51-.462c.048-.292.1-.606.17-.9a.525.525,0,1,0-1.021-.244c-.073.316-.146.656-.194,1a.526.526,0,0,0,.438.607Z" transform="translate(1.672 -16.642)" fill="#fff"/>
    <path id="Path_2279" data-name="Path 2279" d="M76.946,100.361a.707.707,0,0,0,.218-.049,8.92,8.92,0,0,1,.85-.34.53.53,0,0,0-.364-1c-.316.122-.632.243-.923.389a.524.524,0,0,0-.243.7.477.477,0,0,0,.462.292Z" transform="translate(-11.921 0.448)" fill="#fff"/>
    <path id="Path_2280" data-name="Path 2280" d="M98.877,98.819c.292.073.584.146.876.243a.417.417,0,0,0,.17.024.516.516,0,0,0,.486-.364.5.5,0,0,0-.34-.656c-.316-.1-.656-.194-.971-.267a.53.53,0,0,0-.632.389.566.566,0,0,0,.412.632Z" transform="translate(-27.415 1.261)" fill="#fff"/>
    <path id="Path_2281" data-name="Path 2281" d="M123.353,120.7a.539.539,0,0,0,.51.388.22.22,0,0,0,.121-.024.521.521,0,0,0,.364-.656c-.1-.316-.194-.656-.316-.972a.53.53,0,0,0-1,.364C123.159,120.112,123.256,120.4,123.353,120.7Z" transform="translate(-44.676 -13.716)" fill="#fff"/>
    <path id="Path_2282" data-name="Path 2282" d="M58.068,135.89c-.048-.292-.1-.607-.121-.9a.56.56,0,0,0-.584-.486.541.541,0,0,0-.486.584,6.541,6.541,0,0,0,.146,1,.525.525,0,0,0,.534.437h.1A.567.567,0,0,0,58.068,135.89Z" transform="translate(1.83 -24.562)" fill="#fff"/>
    <path id="Path_2283" data-name="Path 2283" d="M118.069,111.031a.543.543,0,0,0,.437.243.466.466,0,0,0,.292-.1.539.539,0,0,0,.146-.729,9.963,9.963,0,0,0-.606-.8.535.535,0,0,0-.826.68A5.088,5.088,0,0,1,118.069,111.031Z" transform="translate(-40.729 -6.942)" fill="#fff"/>
    <path id="Path_2284" data-name="Path 2284" d="M109.206,102.968c.267.17.51.34.753.51a.559.559,0,0,0,.34.1.508.508,0,0,0,.413-.219.53.53,0,0,0-.1-.729c-.267-.194-.559-.389-.826-.559a.541.541,0,0,0-.729.17.514.514,0,0,0,.145.729Z" transform="translate(-34.805 -1.698)" fill="#fff"/>
    <path id="Path_2285" data-name="Path 2285" d="M87.359,165.205c-.292-.024-.607-.049-.9-.1a.529.529,0,1,0-.17,1.045,7.294,7.294,0,0,0,1,.1h.049a.523.523,0,0,0,.024-1.045Z" transform="translate(-18.545 -46.079)" fill="#fff"/>
    <path id="Path_2286" data-name="Path 2286" d="M98.372,164.24c-.292.073-.584.146-.876.194a.526.526,0,0,0,.1,1.045h.075c.34-.049.656-.146,1-.219a.522.522,0,0,0,.364-.656.5.5,0,0,0-.657-.365Z" transform="translate(-26.425 -45.454)" fill="#fff"/>
    <path id="Path_2287" data-name="Path 2287" d="M108.78,159.511A8.352,8.352,0,0,1,108,160a.542.542,0,0,0-.194.729.549.549,0,0,0,.461.267.469.469,0,0,0,.243-.073,10.026,10.026,0,0,0,.85-.534.539.539,0,0,0,.146-.729.522.522,0,0,0-.729-.146Z" transform="translate(-33.941 -42.086)" fill="#fff"/>
    <path id="Path_2288" data-name="Path 2288" d="M76.7,162.023a8.688,8.688,0,0,1-.826-.389.522.522,0,0,0-.486.923c.292.146.607.292.923.437a.709.709,0,0,0,.219.049.523.523,0,0,0,.17-1.02Z" transform="translate(-11 -43.601)" fill="#fff"/>
    <path id="Path_2289" data-name="Path 2289" d="M66.98,154.9a.533.533,0,0,0-.777.729c.243.243.486.486.729.7a.511.511,0,0,0,.364.122.573.573,0,0,0,.389-.17.537.537,0,0,0-.048-.753C67.417,155.337,67.2,155.118,66.98,154.9Z" transform="translate(-4.628 -38.786)" fill="#fff"/>
    <path id="Path_2290" data-name="Path 2290" d="M60.774,145.714a.533.533,0,1,0-.972.437c.146.292.292.607.461.9a.551.551,0,0,0,.462.267.411.411,0,0,0,.243-.073.542.542,0,0,0,.194-.729C61.041,146.248,60.9,145.981,60.774,145.714Z" transform="translate(-0.195 -32.224)" fill="#fff"/>
    <path id="Path_2291" data-name="Path 2291" d="M61.676,112.958a.541.541,0,0,0-.729.17l-.51.876a.524.524,0,0,0,.243.7.437.437,0,0,0,.243.049.545.545,0,0,0,.462-.292c.146-.267.292-.534.461-.8A.522.522,0,0,0,61.676,112.958Z" transform="translate(-0.636 -9.355)" fill="#fff"/>
    <path id="Path_2292" data-name="Path 2292" d="M117.44,135.883l-1.792-2.878.707-1.616a1.844,1.844,0,0,0,0-1.464.392.392,0,0,0-.5-.227,1.86,1.86,0,0,0-1.086,1.01l-.707,1.616-3.332.606a.559.559,0,0,0-.429.353l-.379.858a.111.111,0,0,0,.1.151l3.282-.151-.783,2.247-1.287.177a.385.385,0,0,0-.328.253l-.1.253a.112.112,0,0,0,.076.151l1.287.353a.513.513,0,0,0,.328.53.544.544,0,0,0,.606-.126l1.111.707a.121.121,0,0,0,.151-.05l.1-.253a.4.4,0,0,0-.051-.4l-.757-1.06,1.136-2.1,2.121,2.524a.107.107,0,0,0,.177-.025l.379-.858A.528.528,0,0,0,117.44,135.883Z" transform="translate(-35.262 -21.201)" fill="#fff"/>
  </g>
</svg>
