<svg width="26" height="26" viewBox="0 0 26 26" fill="none" xmlns="http://www.w3.org/2000/svg">
<g filter="url(#filter0_d_2436_51)">
<path d="M15 17.5V15.45C16.5 15.0167 17.7083 14.1833 18.625 12.95C19.5417 11.7167 20 10.3167 20 8.75C20 7.18333 19.5417 5.78333 18.625 4.55C17.7083 3.31667 16.5 2.48333 15 2.05V0C17.0667 0.466667 18.75 1.5125 20.05 3.1375C21.35 4.7625 22 6.63333 22 8.75C22 10.8667 21.35 12.7375 20.05 14.3625C18.75 15.9875 17.0667 17.0333 15 17.5ZM4 11.775V5.775H8L13 0.775V16.775L8 11.775H4ZM15 12.775V4.725C15.7833 5.09167 16.3958 5.64167 16.8375 6.375C17.2792 7.10833 17.5 7.90833 17.5 8.775C17.5 9.625 17.2792 10.4125 16.8375 11.1375C16.3958 11.8625 15.7833 12.4083 15 12.775Z" fill="white"/>
</g>
<defs>
<filter id="filter0_d_2436_51" x="0" y="0" width="26" height="25.5" filterUnits="userSpaceOnUse" color-interpolation-filters="sRGB">
<feFlood flood-opacity="0" result="BackgroundImageFix"/>
<feColorMatrix in="SourceAlpha" type="matrix" values="0 0 0 0 0 0 0 0 0 0 0 0 0 0 0 0 0 0 127 0" result="hardAlpha"/>
<feOffset dy="4"/>
<feGaussianBlur stdDeviation="2"/>
<feComposite in2="hardAlpha" operator="out"/>
<feColorMatrix type="matrix" values="0 0 0 0 0 0 0 0 0 0 0 0 0 0 0 0 0 0 0.25 0"/>
<feBlend mode="normal" in2="BackgroundImageFix" result="effect1_dropShadow_2436_51"/>
<feBlend mode="normal" in="SourceGraphic" in2="effect1_dropShadow_2436_51" result="shape"/>
</filter>
</defs>
</svg>
