<svg xmlns="http://www.w3.org/2000/svg" width="34.47" height="39.534" viewBox="0 0 34.47 39.534">
  <g id="vertex-ai-seeklogo" transform="translate(-3.873 -2.633)">
    <path id="Path_78830" data-name="Path 78830" d="M28.961,14.2a1.632,1.632,0,0,0-2.12-.339L12,24.759v.466a1.526,1.526,0,1,1,0,3.032h0a1.569,1.569,0,0,0,.954-.318l15.71-11.6a1.611,1.611,0,0,0,.3-2.141Z" transform="translate(9.103 12.298)" fill="#669df6"/>
    <path id="Path_78831" data-name="Path 78831" d="M21.1,28.26a1.526,1.526,0,0,1,0-3.032h0v-.466L6.263,13.865a1.611,1.611,0,0,0-2.12.339,1.569,1.569,0,0,0,.339,2.12l15.71,11.6a1.548,1.548,0,0,0,.933.318h0Z" transform="translate(0 12.295)" fill="#aecbfa"/>
    <path id="Path_78832" data-name="Path 78832" d="M13.647,18.34a3.117,3.117,0,1,0,3.117,3.117,3.117,3.117,0,0,0-3.117-3.117Zm0,4.622a1.526,1.526,0,1,1,1.526-1.505,1.505,1.505,0,0,1-1.526,1.505Z" transform="translate(7.457 17.593)" fill="#4285f4"/>
    <path id="Path_78833" data-name="Path 78833" d="M6.846,10a1.611,1.611,0,0,1-1.59-1.59V4.429a1.611,1.611,0,1,1,3.2,0V8.415A1.611,1.611,0,0,1,6.846,10Z" transform="translate(1.537)" fill="#aecbfa"/>
    <circle id="Ellipse_548" data-name="Ellipse 548" cx="1.611" cy="1.611" r="1.611" transform="translate(6.729 20.881)" fill="#aecbfa"/>
    <circle id="Ellipse_549" data-name="Ellipse 549" cx="1.611" cy="1.611" r="1.611" transform="translate(6.729 16.195)" fill="#aecbfa"/>
    <circle id="Ellipse_550" data-name="Ellipse 550" cx="1.611" cy="1.611" r="1.611" transform="translate(6.729 11.489)" fill="#aecbfa"/>
    <path id="Path_78834" data-name="Path 78834" d="M18.84,12.107A1.611,1.611,0,0,1,17.25,10.5V6.51a1.59,1.59,0,1,1,3.18,0V10.5a1.59,1.59,0,0,1-1.59,1.611Z" transform="translate(14.984 2.562)" fill="#4285f4"/>
    <circle id="Ellipse_551" data-name="Ellipse 551" cx="1.611" cy="1.611" r="1.611" transform="translate(32.255 20.902)" fill="#4285f4"/>
    <circle id="Ellipse_552" data-name="Ellipse 552" cx="1.611" cy="1.611" r="1.611" transform="translate(32.255 16.132)" fill="#4285f4"/>
    <circle id="Ellipse_553" data-name="Ellipse 553" cx="1.611" cy="1.611" r="1.611" transform="translate(32.255 2.817)" fill="#4285f4"/>
    <path id="Path_78835" data-name="Path 78835" d="M12.84,18.733a1.611,1.611,0,0,1-1.59-1.59V13.094a1.611,1.611,0,0,1,3.2,0V17.1a1.611,1.611,0,0,1-1.611,1.632Z" transform="translate(8.263 10.119)" fill="#669df6"/>
    <circle id="Ellipse_554" data-name="Ellipse 554" cx="1.611" cy="1.611" r="1.611" transform="translate(19.492 30.315)" fill="#669df6"/>
    <circle id="Ellipse_555" data-name="Ellipse 555" cx="1.611" cy="1.611" r="1.611" transform="translate(19.492 16.937)" fill="#669df6"/>
    <circle id="Ellipse_556" data-name="Ellipse 556" cx="1.611" cy="1.611" r="1.611" transform="translate(19.492 12.231)" fill="#669df6"/>
    <path id="Path_78836" data-name="Path 78836" d="M15.846,14.435a1.611,1.611,0,0,1-1.59-1.59V8.859a1.611,1.611,0,1,1,3.2,0v3.986a1.611,1.611,0,0,1-1.611,1.59Z" transform="translate(11.618 4.962)" fill="#4285f4"/>
    <circle id="Ellipse_557" data-name="Ellipse 557" cx="1.611" cy="1.611" r="1.611" transform="translate(25.873 7.503)" fill="#4285f4"/>
    <circle id="Ellipse_558" data-name="Ellipse 558" cx="1.611" cy="1.611" r="1.611" transform="translate(25.873 25.524)" fill="#4285f4"/>
    <circle id="Ellipse_559" data-name="Ellipse 559" cx="1.611" cy="1.611" r="1.611" transform="translate(25.873 20.817)" fill="#4285f4"/>
    <circle id="Ellipse_560" data-name="Ellipse 560" cx="1.611" cy="1.611" r="1.611" transform="translate(13.11 25.524)" fill="#aecbfa"/>
    <circle id="Ellipse_561" data-name="Ellipse 561" cx="1.611" cy="1.611" r="1.611" transform="translate(13.11 12.231)" fill="#aecbfa"/>
    <circle id="Ellipse_562" data-name="Ellipse 562" cx="1.611" cy="1.611" r="1.611" transform="translate(13.11 7.503)" fill="#aecbfa"/>
    <path id="Path_78837" data-name="Path 78837" d="M9.851,16.516A1.611,1.611,0,0,1,8.24,14.968V10.94a1.59,1.59,0,0,1,3.18,0v4.028a1.59,1.59,0,0,1-1.569,1.548Z" transform="translate(4.892 7.524)" fill="#aecbfa"/>
  </g>
</svg>
