<svg width="48" height="48" viewBox="0 0 48 48" fill="none" xmlns="http://www.w3.org/2000/svg">
<g filter="url(#filter0_d_1707_381)">
<path d="M19 29L33 20L19 11V29ZM24 40C21.2333 40 18.6333 39.475 16.2 38.425C13.7667 37.375 11.65 35.95 9.85 34.15C8.05 32.35 6.625 30.2333 5.575 27.8C4.525 25.3667 4 22.7667 4 20C4 17.2333 4.525 14.6333 5.575 12.2C6.625 9.76667 8.05 7.65 9.85 5.85C11.65 4.05 13.7667 2.625 16.2 1.575C18.6333 0.525 21.2333 0 24 0C26.7667 0 29.3667 0.525 31.8 1.575C34.2333 2.625 36.35 4.05 38.15 5.85C39.95 7.65 41.375 9.76667 42.425 12.2C43.475 14.6333 44 17.2333 44 20C44 22.7667 43.475 25.3667 42.425 27.8C41.375 30.2333 39.95 32.35 38.15 34.15C36.35 35.95 34.2333 37.375 31.8 38.425C29.3667 39.475 26.7667 40 24 40Z" fill="white"/>
</g>
<defs>
<filter id="filter0_d_1707_381" x="0" y="0" width="48" height="48" filterUnits="userSpaceOnUse" color-interpolation-filters="sRGB">
<feFlood flood-opacity="0" result="BackgroundImageFix"/>
<feColorMatrix in="SourceAlpha" type="matrix" values="0 0 0 0 0 0 0 0 0 0 0 0 0 0 0 0 0 0 127 0" result="hardAlpha"/>
<feOffset dy="4"/>
<feGaussianBlur stdDeviation="2"/>
<feComposite in2="hardAlpha" operator="out"/>
<feColorMatrix type="matrix" values="0 0 0 0 0 0 0 0 0 0 0 0 0 0 0 0 0 0 0.25 0"/>
<feBlend mode="normal" in2="BackgroundImageFix" result="effect1_dropShadow_1707_381"/>
<feBlend mode="normal" in="SourceGraphic" in2="effect1_dropShadow_1707_381" result="shape"/>
</filter>
</defs>
</svg>
