<svg width="20" height="20" viewBox="0 0 20 20" fill="none" xmlns="http://www.w3.org/2000/svg">
<g clip-path="url(#clip0_12176_887)">
<path d="M13.7171 17.8574V15.3574H13.7014C12.6482 16.0582 11.4108 16.4311 10.1457 16.4289C8.83142 16.4289 7.60999 16.0346 6.59142 15.3574H6.57428V17.8574C6.57428 18.2363 6.72479 18.5997 6.9927 18.8676C7.26061 19.1355 7.62397 19.286 8.00285 19.286H12.2886C12.6674 19.286 13.0308 19.1355 13.2987 18.8676C13.5666 18.5997 13.7171 18.2363 13.7171 17.8574Z" fill="#ECF3FF"/>
<path d="M10.1457 16.4284C10.9899 16.4284 11.8259 16.2622 12.6058 15.9391C13.3858 15.616 14.0945 15.1425 14.6914 14.5455C15.2884 13.9486 15.7619 13.2399 16.085 12.46C16.408 11.68 16.5743 10.8441 16.5743 9.99986C16.5743 9.15565 16.408 8.3197 16.085 7.53975C15.7619 6.7598 15.2884 6.05112 14.6914 5.45417C14.0945 4.85723 13.3858 4.3837 12.6058 4.06064C11.8259 3.73757 10.9899 3.57129 10.1457 3.57129C8.44077 3.57129 6.80564 4.24858 5.60005 5.45417C4.39446 6.65976 3.71716 8.2949 3.71716 9.99986C3.71716 11.7048 4.39446 13.34 5.60005 14.5455C6.80564 15.7511 8.44077 16.4284 10.1457 16.4284Z" fill="white"/>
<path d="M13.7171 2.14293V4.64293H13.7014C12.6482 3.94213 11.4108 3.56928 10.1457 3.5715C8.83142 3.5715 7.60999 3.96578 6.59142 4.64293H6.57428V2.14293C6.57428 1.76405 6.72479 1.40068 6.9927 1.13277C7.26061 0.864865 7.62397 0.714355 8.00285 0.714355H12.2886C12.6674 0.714355 13.0308 0.864865 13.2987 1.13277C13.5666 1.40068 13.7171 1.76405 13.7171 2.14293Z" fill="#ECF3FF"/>
<path d="M10.1457 16.4284C10.9899 16.4284 11.8259 16.2622 12.6058 15.9391C13.3858 15.616 14.0945 15.1425 14.6914 14.5455C15.2884 13.9486 15.7619 13.2399 16.085 12.46C16.408 11.68 16.5743 10.8441 16.5743 9.99986C16.5743 9.15565 16.408 8.3197 16.085 7.53975C15.7619 6.7598 15.2884 6.05112 14.6914 5.45417C14.0945 4.85723 13.3858 4.3837 12.6058 4.06063C11.8259 3.73757 10.9899 3.57129 10.1457 3.57129C8.44077 3.57129 6.80564 4.24858 5.60005 5.45417C4.39446 6.65976 3.71716 8.2949 3.71716 9.99986C3.71716 11.7048 4.39446 13.34 5.60005 14.5455C6.80564 15.7511 8.44077 16.4284 10.1457 16.4284Z" stroke="#1163FB" stroke-width="1.5" stroke-linecap="round" stroke-linejoin="round"/>
<path d="M13.7171 4.64293V2.14293C13.7171 1.76405 13.5666 1.40068 13.2987 1.13277C13.0308 0.864865 12.6674 0.714355 12.2886 0.714355H8.00285C7.62397 0.714355 7.26061 0.864865 6.9927 1.13277C6.72479 1.40068 6.57428 1.76405 6.57428 2.14293V4.64293" stroke="#1163FB" stroke-width="1.5" stroke-linecap="round" stroke-linejoin="round"/>
<path d="M13.7171 15.3574V17.8574C13.7171 18.2363 13.5666 18.5997 13.2987 18.8676C13.0308 19.1355 12.6674 19.286 12.2886 19.286H8.00285C7.62397 19.286 7.26061 19.1355 6.9927 18.8676C6.72479 18.5997 6.57428 18.2363 6.57428 17.8574V15.3574" stroke="#1163FB" stroke-width="1.5" stroke-linecap="round" stroke-linejoin="round"/>
<path d="M12.8572 8.21436H10.1458" stroke="#1163FB" stroke-width="1.5" stroke-linecap="round" stroke-linejoin="round"/>
<path d="M12.8572 11.7856H10.1458" stroke="#1163FB" stroke-width="1.5" stroke-linecap="round" stroke-linejoin="round"/>
<path d="M7.51144 8.57171C7.41672 8.57171 7.32588 8.53408 7.2589 8.4671C7.19192 8.40013 7.1543 8.30928 7.1543 8.21456C7.1543 8.11984 7.19192 8.029 7.2589 7.96203C7.32588 7.89505 7.41672 7.85742 7.51144 7.85742" stroke="#1163FB" stroke-width="1.5" stroke-linecap="round" stroke-linejoin="round"/>
<path d="M7.51141 8.57171C7.60613 8.57171 7.69697 8.53408 7.76395 8.4671C7.83093 8.40013 7.86856 8.30928 7.86856 8.21456C7.86856 8.11984 7.83093 8.029 7.76395 7.96203C7.69697 7.89505 7.60613 7.85742 7.51141 7.85742" stroke="#1163FB" stroke-width="1.5" stroke-linecap="round" stroke-linejoin="round"/>
<path d="M7.51144 12.143C7.41672 12.143 7.32588 12.1054 7.2589 12.0384C7.19192 11.9714 7.1543 11.8806 7.1543 11.7859C7.1543 11.6911 7.19192 11.6003 7.2589 11.5333C7.32588 11.4663 7.41672 11.4287 7.51144 11.4287" stroke="#1163FB" stroke-width="1.5" stroke-linecap="round" stroke-linejoin="round"/>
<path d="M7.51141 12.143C7.60613 12.143 7.69697 12.1054 7.76395 12.0384C7.83093 11.9714 7.86856 11.8806 7.86856 11.7859C7.86856 11.6911 7.83093 11.6003 7.76395 11.5333C7.69697 11.4663 7.60613 11.4287 7.51141 11.4287" stroke="#1163FB" stroke-width="1.5" stroke-linecap="round" stroke-linejoin="round"/>
</g>
<defs>
<clipPath id="clip0_12176_887">
<rect width="20" height="20" fill="white"/>
</clipPath>
</defs>
</svg>
