<svg id="Group_2152" data-name="Group 2152" xmlns="http://www.w3.org/2000/svg" width="101.044" height="21.704" viewBox="0 0 101.044 21.704">
  <path id="Path_18216" data-name="Path 18216" d="M304.83,415.017a.731.731,0,0,1,.676-.474.744.744,0,0,1,.715.74v4.384h-1.333v4.153h8.891v-4.134h-1.333v-13.02h1.333v-4.136h-9.567l-2.821,8.31a.884.884,0,0,1-.833.637.864.864,0,0,1-.833-.637l-2.861-8.31H287.3v4.136h1.335v13.02H287.32v4.134h8.871l.019-4.153h-1.333l-.019-4.363a.754.754,0,0,1,.735-.761.72.72,0,0,1,.675.492c.175.433,3.077,8.764,3.077,8.764h2.415l3.073-8.782" transform="translate(-248.03 -402.511)" fill="#cb0018"/>
  <path id="Path_18217" data-name="Path 18217" d="M382.7,409.668a.553.553,0,0,1-.5.329.585.585,0,0,1-.5-.329c-.562-1.154-1.452-3-1.452-3h1.335v-4.136h-7.808v4.136h1.352l4,7.1v5.906h-1.354v4.153h8.851v-4.153h-1.352v-5.906l4-7.1h1.334v-4.136h-7.79v4.136h1.336s-.889,1.849-1.449,3" transform="translate(-289.973 -402.512)" fill="#cb0018"/>
  <path id="Path_18218" data-name="Path 18218" d="M267.525,402.531v4.136h1.333v13.02h-1.333v4.134h8.852v-4.134h-1.335v-13.02h1.335v-4.136h-8.852" transform="translate(-238.438 -402.511)" fill="#cb0018"/>
  <path id="Path_18219" data-name="Path 18219" d="M221.342,402.492v4.156h1.333l-2.125,6.19h-.328l-2.127-6.19h1.354v-4.156h-8.408v4.156h1.333l5.972,17.154h3.944l2.319-6.645h.6l2.321,6.645h3.942l5.972-17.154h1.334v-4.156h-8.387v4.156h1.333l-2.127,6.19h-.328l-2.127-6.19h1.334v-4.156h-7.131" transform="translate(-211.041 -402.492)" fill="#cb0018"/>
  <path id="Path_18220" data-name="Path 18220" d="M349.986,423.8h.136V419.65h-.136Zm0-7.385c2.551.022,5.353.247,6.552-2.531a11.132,11.132,0,0,0,.908-4.215v-.206a9.237,9.237,0,0,0-.449-2.838c-1.293-3.684-3.826-4.073-7.014-4.136v3.167c.657.04,1.2.946,1.2,3.6,0,2.8-.542,3.558-1.2,3.6ZM342.6,419.65h-1.335V423.8h8.718V419.65h-1.2v-3.21c.385-.022.794-.022,1.2-.022v-3.558h-1.2v-7.2h1.2v-3.167h-1.468l-7.228.02v4.136h1.333Z" transform="translate(-274.206 -402.492)" fill="#cb0018"/>
  <path id="Path_18221" data-name="Path 18221" d="M404.352,439.907a1.531,1.531,0,0,0-1.527-1.624H402.8v.391h.021a1.256,1.256,0,0,1,0,2.488H402.8v.393h.021a1.551,1.551,0,0,0,1.527-1.648m-1.548.31v-.449h.058c.173,0,.251-.041.251-.226s-.173-.208-.309-.208v-.287h.021c.422,0,.675.122.675.513a.412.412,0,0,1-.406.472l.424.76h-.405Zm0-1.933a1.518,1.518,0,0,0-1.528,1.624,1.538,1.538,0,0,0,1.528,1.648v-.393a1.256,1.256,0,0,1,0-2.488Zm0,.762v.287h-.249v.433h.249v.449l-.076-.163h-.173v.743h-.35v-1.747Z" transform="translate(-303.311 -419.852)" fill="#cb0018"/>
</svg>
