<svg id="Layer_2" data-name="Layer 2" xmlns="http://www.w3.org/2000/svg" width="101.066" height="26.472" viewBox="0 0 101.066 26.472">
  <g id="Layer_1" data-name="Layer 1">
    <path id="Path_78730" data-name="Path 78730" d="M0,0H101.066V26.472H0Z" fill="#d40000"/>
    <path id="Path_78731" data-name="Path 78731" d="M14.978,14.683H29.592v1.9L17.829,30.991H29.88v2.1H14.69v-1.9l11.763-14.41H14.978Zm24.789,2.452L36.348,26.3h6.841Zm-1.423-2.452H41.2l7.086,18.4H45.663l-1.692-4.721H35.587l-1.694,4.721H31.237ZM53.5,24.3V31.04h4.037a4.649,4.649,0,0,0,3.021-.824,3.078,3.078,0,0,0,.972-2.54,3.139,3.139,0,0,0-.978-2.546,4.643,4.643,0,0,0-3.021-.824Zm0-7.569v5.548h3.727a4.527,4.527,0,0,0,2.746-.684,2.46,2.46,0,0,0,.9-2.087,2.454,2.454,0,0,0-.9-2.082,4.512,4.512,0,0,0-2.746-.692H53.5Zm-2.516-2.046h6.429a7.209,7.209,0,0,1,4.435,1.184A3.972,3.972,0,0,1,63.4,19.233a4.2,4.2,0,0,1-.8,2.689,3.587,3.587,0,0,1-2.343,1.247,4.9,4.9,0,0,1,2.884,1.648,4.757,4.757,0,0,1,1.03,3.125,4.57,4.57,0,0,1-1.694,3.809,7.6,7.6,0,0,1-4.814,1.335H50.989Zm19.749,9.612V31.04h4.04a4.649,4.649,0,0,0,3.021-.824,3.078,3.078,0,0,0,.972-2.54,3.139,3.139,0,0,0-.978-2.546,4.643,4.643,0,0,0-3.021-.824Zm0-7.569v5.548h3.727a4.527,4.527,0,0,0,2.746-.684,2.46,2.46,0,0,0,.9-2.087,2.447,2.447,0,0,0-.9-2.082,4.518,4.518,0,0,0-2.746-.692H70.735ZM68.216,14.68h6.429a7.209,7.209,0,0,1,4.435,1.184,3.979,3.979,0,0,1,1.557,3.367,4.2,4.2,0,0,1-.8,2.689A3.587,3.587,0,0,1,77.5,23.166a4.9,4.9,0,0,1,2.884,1.648,4.757,4.757,0,0,1,1.03,3.125,4.57,4.57,0,0,1-1.694,3.809A7.615,7.615,0,0,1,74.9,33.086H68.219Zm24.519,0h2.782l4.375,6.608,4.413-6.6h2.675L101.214,23.3l6.476,9.783h-2.768L99.827,25.4l-5.147,7.69H92.005l6.49-9.714Zm-7.289,0h2.516v18.4H85.447Z" transform="translate(-10.656 -10.648)" fill="#fff"/>
  </g>
</svg>
