<svg width="421" height="92" viewBox="0 0 421 92" fill="none" xmlns="http://www.w3.org/2000/svg">
  <defs>
    <linearGradient id="bg" x1="16" y1="8" x2="405" y2="84" gradientUnits="userSpaceOnUse">
      <stop offset="0" stop-color="#B1001C"/>
      <stop offset="0.42" stop-color="#D81331"/>
      <stop offset="1" stop-color="#8F0A1F"/>
    </linearGradient>
    <linearGradient id="shine" x1="40" y1="18" x2="361" y2="18" gradientUnits="userSpaceOnUse">
      <stop offset="0" stop-color="#FFFFFF" stop-opacity="0.18"/>
      <stop offset="1" stop-color="#FFFFFF" stop-opacity="0"/>
    </linearGradient>
    <linearGradient id="progress" x1="24" y1="0" x2="220" y2="0" gradientUnits="userSpaceOnUse">
      <stop offset="0" stop-color="#FFD7A3"/>
      <stop offset="0.6" stop-color="#FFD15A"/>
      <stop offset="1" stop-color="#B9FF4D"/>
    </linearGradient>
    <filter id="soft" x="-20%" y="-20%" width="140%" height="140%">
      <feGaussianBlur stdDeviation="8"/>
    </filter>
  </defs>

  <rect x="0.5" y="0.5" width="420" height="91" rx="11" fill="url(#bg)"/>
  <rect x="0.5" y="0.5" width="420" height="91" rx="11" stroke="rgba(255,255,255,0.14)"/>

  <path d="M-10 88C70 38 136 52 230 20C302 -4 367 2 439 38" stroke="white" stroke-opacity="0.08" stroke-width="2"/>
  <path d="M9 100C103 48 182 67 280 31C336 10 387 12 443 36" stroke="white" stroke-opacity="0.05" stroke-width="2"/>
  <path d="M96 -12C135 16 170 40 240 52C301 63 365 50 432 21" stroke="url(#shine)" stroke-width="28" stroke-linecap="round"/>

  <g opacity="0.95">
    <text x="330" y="24" text-anchor="end" fill="#FFFFFF" font-family="Arial, Helvetica, sans-serif" font-size="13" font-weight="700">1.6k</text>
    <text x="338" y="24" fill="#FFE9E9" font-family="Arial, Helvetica, sans-serif" font-size="13" font-weight="400">/ 20k pt</text>
  </g>

  <rect x="25" y="41" width="370" height="4" rx="2" fill="#FFFFFF" fill-opacity="0.17"/>
  <rect x="25" y="41" width="169" height="4" rx="2" fill="url(#progress)"/>

  <g transform="translate(23 57)">
    <circle cx="6" cy="8" r="4.5" fill="#FFF5F5" fill-opacity="0.95"/>
    <path d="M6 0.8C4.7 2.9 2.7 5.1 2.7 6.9C2.7 8.8 4.2 10.2 6 10.2C7.8 10.2 9.3 8.8 9.3 6.9C9.3 5.1 7.3 2.9 6 0.8Z" fill="#FFF5F5"/>
  </g>

  <text x="44" y="69" fill="#FFFFFF" font-family="Arial, Helvetica, sans-serif" font-size="14" font-weight="400">Silver level</text>
  <text x="319" y="69" fill="#FFF1F1" font-family="Arial, Helvetica, sans-serif" font-size="14" font-weight="400">Gold level</text>

  <g transform="translate(372 56)" opacity="0.9">
    <path d="M9.8 0C6.7 5.2 2.1 10.4 2.1 14.7C2.1 19.3 5.7 22.8 10.3 22.8C15 22.8 18.7 19.3 18.7 14.7C18.7 10.4 14 5.2 10.9 0C10.7 -0.2 10.1 -0.2 9.8 0Z" fill="#FFFFFF" fill-opacity="0.18"/>
    <path d="M10.1 2.7C7.9 6.4 4.6 10.1 4.6 13.2C4.6 16.4 7.2 18.8 10.3 18.8C13.4 18.8 15.9 16.4 15.9 13.2C15.9 10.1 12.7 6.4 10.5 2.7C10.4 2.5 10.2 2.5 10.1 2.7Z" fill="#FFFFFF" fill-opacity="0.28"/>
  </g>
</svg>
